ply
format ascii 1.0
element vertex 36
property double x
property double y
property double z
element face 68
property list uchar int vertex_indices
end_header
0.1499880006 0.007438579246 0.0557189803
0.1500046893 0.006908103995 0.05591276817
0.1505066757 0.006558829129 0.05530678771
0.1497416739 0.006590467292 0.05541723958
0.1490980443 0.007474542881 0.05548303203
0.1482534916 0.007132373075 0.05441344405
0.1504474326 0.007697038964 0.05434074829
0.1504204575 0.006864612229 0.05406517186
0.1494879435 0.008199290942 0.05473105865
0.149390103 0.006534552077 0.05410900343
0.1481257 0.008172095703 0.05391849229
0.149249648 0.008344278145 0.05376489966
0.149182872 0.006882742501 0.05276105353
0.148396517 0.008568026846 0.05293361565
0.1485490325 0.006655661454 0.05284086239
0.1472533447 0.007503369445 0.05251273376
0.1475597889 0.006820713772 0.05226194282
0.1493064412 0.007926776561 0.05272754287
0.1489448051 0.008509729512 0.0520690474
0.1489974608 0.007910676805 0.05065486597
0.1485160833 0.008951896716 0.05092846629
0.147987196 0.006896330857 0.05082645008
0.1469622542 0.008484951356 0.05050281363
0.1470157755 0.007401255091 0.05086320161
0.1477428801 0.006919758709 0.04937220676
0.1476163563 0.009032161965 0.05054493571
0.146622346 0.00813402347 0.05003420001
0.1484306768 0.007959487974 0.04948806538
0.1476819159 0.008300338166 0.04893228613
0.1473571949 0.008753272987 0.04954678266
0.1467389788 0.006966733383 0.04917209825
0.1468107826 0.008549571347 0.04944176105
0.1462311497 0.00832478134 0.04922668026
0.1461879191 0.007445489887 0.04918131123
0.146807264 0.007246040973 0.0480392317
0.1464738358 0.007847468655 0.04807954628
3 2 0 1
3 1 3 2
3 0 4 1
3 4 3 1
3 4 5 3
3 6 0 2
3 2 7 6
3 8 0 6
3 2 3 7
3 3 9 7
3 4 0 8
3 10 4 8
3 10 5 4
3 5 9 3
3 13 10 8
3 6 11 8
3 11 13 8
3 25 28 29
3 14 12 9
3 5 14 9
3 5 10 16
3 16 14 5
3 17 11 6
3 17 6 7
3 7 12 17
3 18 13 11
3 18 11 17
3 33 23 26
3 12 21 17
3 20 13 18
3 14 21 12
3 13 22 15
3 16 21 14
3 15 23 16
3 19 18 17
3 17 21 19
3 20 18 19
3 13 25 22
3 23 15 22
3 16 23 21
3 23 22 26
3 19 27 20
3 25 20 27
3 19 24 27
3 27 28 25
3 24 34 27
3 21 23 24
3 25 29 22
3 23 30 24
3 22 29 31
3 22 31 26
3 25 13 20
3 26 31 32
3 32 33 26
3 15 10 13
3 33 30 23
3 21 24 19
3 27 34 28
3 24 30 34
3 28 31 29
3 9 12 7
3 32 31 28
3 28 35 32
3 34 30 33
3 33 32 35
3 33 35 34
3 35 28 34
3 10 15 16
