ply
format ascii 1.0
element vertex 36
property double x
property double y
property double z
element face 68
property list uchar int vertex_indices
end_header
0.1502566257 0.00767776284 0.05390923617
0.149929671 0.006921473536 0.05429360067
0.1504091813 0.0064304273 0.05366078546
0.1493996088 0.006433636093 0.0537455001
0.1492150582 0.007723289441 0.05354246716
0.148049733 0.007428650085 0.05237011275
0.150399508 0.007823737242 0.05219033651
0.150162431 0.006767282285 0.05211017195
0.1496545276 0.008558128476 0.05250474761
0.1489055944 0.00635001959 0.05221797287
0.1482718857 0.008866681584 0.05163005851
0.1494016566 0.008891692438 0.05141647731
0.1488105776 0.007062226959 0.05051165847
0.1485469581 0.009389699673 0.05050283003
0.1480769786 0.006890090312 0.05067329036
0.1470807933 0.008092052825 0.05021091788
0.1471624712 0.007226013926 0.05001285025
0.1493372499 0.008371681928 0.05029236048
0.1490422628 0.009196471877 0.04954342971
0.1488487629 0.008557164034 0.04814923823
0.148474833 0.009941899825 0.04837330946
0.147554961 0.007366697437 0.04848005439
0.1466175876 0.009409850792 0.04809054362
0.1466488561 0.008009595157 0.04851460156
0.1472202793 0.007503951194 0.04694699205
0.1474146285 0.01007227692 0.04806232415
0.1461597069 0.00901196023 0.04761693712
0.1481199334 0.008694357695 0.04693524769
0.1472575821 0.009210744582 0.04634030535
0.1469868295 0.009761535014 0.04699326883
0.146135529 0.007663643803 0.04672568388
0.1463386379 0.009553741276 0.04690178739
0.1456256347 0.009348046663 0.046653418
0.1455806304 0.008260066647 0.04667718358
0.1461260352 0.008094239641 0.04548501561
0.1457582306 0.008820943651 0.04543318317
3 2 0 1
3 1 3 2
3 0 4 1
3 4 3 1
3 4 5 3
3 6 0 2
3 2 7 6
3 8 0 6
3 2 3 7
3 3 9 7
3 4 0 8
3 10 4 8
3 10 5 4
3 5 9 3
3 13 10 8
3 6 11 8
3 11 13 8
3 25 28 29
3 14 12 9
3 5 14 9
3 5 10 16
3 16 14 5
3 17 11 6
3 17 6 7
3 7 12 17
3 18 13 11
3 18 11 17
3 33 23 26
3 12 21 17
3 20 13 18
3 14 21 12
3 13 22 15
3 16 21 14
3 15 23 16
3 19 18 17
3 17 21 19
3 20 18 19
3 13 25 22
3 23 15 22
3 16 23 21
3 23 22 26
3 19 27 20
3 25 20 27
3 19 24 27
3 27 28 25
3 24 34 27
3 21 23 24
3 25 29 22
3 23 30 24
3 22 29 31
3 22 31 26
3 25 13 20
3 26 31 32
3 32 33 26
3 15 10 13
3 33 30 23
3 21 24 19
3 27 34 28
3 24 30 34
3 28 31 29
3 9 12 7
3 32 31 28
3 28 35 32
3 34 30 33
3 33 32 35
3 33 35 34
3 35 28 34
3 10 15 16
