ply
format ascii 1.0
element vertex 36
property double x
property double y
property double z
element face 68
property list uchar int vertex_indices
end_header
0.1502164213 0.007485619434 0.05481749585
0.1499387363 0.006772713024 0.05518481599
0.1505882593 0.006312488022 0.05464050161
0.1496208784 0.006349396892 0.0545845458
0.1492462429 0.007570870869 0.05434041264
0.1483012935 0.007289140591 0.05306668294
0.1506165073 0.007612353347 0.05319489574
0.1506430795 0.006666659907 0.05307153784
0.1496993368 0.008286038439 0.05344323736
0.1494325112 0.0062846472 0.05298645193
0.1483286911 0.008606926158 0.05245825773
0.1495096761 0.008590337242 0.05238896462
0.1492607948 0.00687056052 0.05140876641
0.148560742 0.008991940896 0.05150033687
0.148564775 0.006698330871 0.05147862142
0.1473212306 0.007833928605 0.05098785547
0.1475664271 0.006952580788 0.0508085519
0.1494528572 0.008001389093 0.05132755998
0.1490915865 0.008746587251 0.05064484639
0.1490224868 0.008180075468 0.04922361777
0.1485698558 0.009454831587 0.04947898861
0.1479743041 0.006952577827 0.04947031621
0.1469036832 0.009031534073 0.04907699246
0.1470310219 0.007583070229 0.04945053879
0.1476548143 0.007162325312 0.04788270949
0.1476115291 0.009638906113 0.0490934212
0.1465384773 0.008636310758 0.0486072837
0.1483216479 0.008358427069 0.04791868825
0.1475338815 0.008883979189 0.04729900686
0.1472457619 0.009407681186 0.04797906956
0.146678103 0.007263600081 0.04766688741
0.1466792293 0.009218617974 0.04789578619
0.1460880252 0.009041345899 0.04766631738
0.1461445402 0.007917876204 0.04767149492
0.1466514427 0.007769751497 0.04641685498
0.1462683553 0.008499819009 0.04640722611
3 2 0 1
3 1 3 2
3 0 4 1
3 4 3 1
3 4 5 3
3 6 0 2
3 2 7 6
3 8 0 6
3 2 3 7
3 3 9 7
3 4 0 8
3 10 4 8
3 10 5 4
3 5 9 3
3 13 10 8
3 6 11 8
3 11 13 8
3 25 28 29
3 14 12 9
3 5 14 9
3 5 10 16
3 16 14 5
3 17 11 6
3 17 6 7
3 7 12 17
3 18 13 11
3 18 11 17
3 33 23 26
3 12 21 17
3 20 13 18
3 14 21 12
3 13 22 15
3 16 21 14
3 15 23 16
3 19 18 17
3 17 21 19
3 20 18 19
3 13 25 22
3 23 15 22
3 16 23 21
3 23 22 26
3 19 27 20
3 25 20 27
3 19 24 27
3 27 28 25
3 24 34 27
3 21 23 24
3 25 29 22
3 23 30 24
3 22 29 31
3 22 31 26
3 25 13 20
3 26 31 32
3 32 33 26
3 15 10 13
3 33 30 23
3 21 24 19
3 27 34 28
3 24 30 34
3 28 31 29
3 9 12 7
3 32 31 28
3 28 35 32
3 34 30 33
3 33 32 35
3 33 35 34
3 35 28 34
3 10 15 16
