ply
format ascii 1.0
element vertex 36
property double x
property double y
property double z
element face 68
property list uchar int vertex_indices
end_header
0.1215019922 0.00676831032 0.05026412324
0.1217047989 0.006341967104 0.05077187645
0.1219440055 0.005714208706 0.05048908518
0.1211672918 0.005612383786 0.0508080935
0.1205913569 0.00639416297 0.05044963006
0.1192603195 0.005703217261 0.05007575026
0.1210047391 0.00585322179 0.04941075952
0.1210694859 0.005114336099 0.04969577599
0.120241326 0.00650625793 0.0495478835
0.1201512504 0.004928278593 0.05011624971
0.1188479889 0.006502252981 0.04921851756
0.1196994047 0.006417392588 0.04878068032
0.1194590516 0.004941451645 0.04870393278
0.1187178676 0.006631913044 0.04822016268
0.1189541556 0.004891281783 0.04894683016
0.1178146427 0.005669244836 0.04851286771
0.1180049564 0.004978563952 0.04845474758
0.1195279523 0.005766587232 0.04815899654
0.1189376141 0.00623837357 0.04746549283
0.1185785681 0.005610678375 0.04662509341
0.1181302378 0.006721027537 0.04669470581
0.1178881827 0.004810231854 0.04720714587
0.1166907621 0.00634754261 0.04696098616
0.1170488148 0.005305645023 0.04732768905
0.1171938179 0.00472644531 0.04613767012
0.1172150258 0.006831608089 0.04672020701
0.116294907 0.005980628104 0.04676964547
0.1177185788 0.005656193198 0.04587061071
0.1168581907 0.005993584553 0.04559137277
0.116700583 0.00649026188 0.04610638718
0.1162685881 0.004790290555 0.04619346401
0.1162147468 0.006334409551 0.04621642848
0.1156756361 0.00616492366 0.04625254514
0.1157587325 0.005275372296 0.04629170181
0.1159102492 0.004978095358 0.04534460209
0.1155708908 0.005587223022 0.04540278721
3 2 0 1
3 1 3 2
3 0 4 1
3 4 3 1
3 4 5 3
3 6 0 2
3 2 7 6
3 8 0 6
3 2 3 7
3 3 9 7
3 4 0 8
3 10 4 8
3 10 5 4
3 5 9 3
3 13 10 8
3 6 11 8
3 11 13 8
3 25 28 29
3 14 12 9
3 5 14 9
3 5 10 16
3 16 14 5
3 17 11 6
3 17 6 7
3 7 12 17
3 18 13 11
3 18 11 17
3 33 23 26
3 12 21 17
3 20 13 18
3 14 21 12
3 13 22 15
3 16 21 14
3 15 23 16
3 19 18 17
3 17 21 19
3 20 18 19
3 13 25 22
3 23 15 22
3 16 23 21
3 23 22 26
3 19 27 20
3 25 20 27
3 19 24 27
3 27 28 25
3 24 34 27
3 21 23 24
3 25 29 22
3 23 30 24
3 22 29 31
3 22 31 26
3 25 13 20
3 26 31 32
3 32 33 26
3 15 10 13
3 33 30 23
3 21 24 19
3 27 34 28
3 24 30 34
3 28 31 29
3 9 12 7
3 32 31 28
3 28 35 32
3 34 30 33
3 33 32 35
3 33 35 34
3 35 28 34
3 10 15 16
