ply
format ascii 1.0
element vertex 333
property double x
property double y
property double z
element face 662
property list uchar int vertex_indices
end_header
0.1475305281 -0.02948303542 0.07826773984
0.1485532596 -0.02837767356 0.07831941846
0.1480437193 -0.02700727219 0.07841189239
0.1468928535 -0.02616934673 0.07798186846
0.1462778568 -0.02954033209 0.07781623888
0.1457312405 -0.02744614027 0.07803361957
0.1441129982 -0.02620774046 0.07662044464
0.1498776837 0.02616253285 0.07624101107
0.1507226564 0.02500066837 0.07625723124
0.1501067738 0.02374880333 0.07641168176
0.1488428723 0.02307136809 0.07610363567
0.1486649546 0.02633249422 0.0759125857
0.1240141843 -0.02091392351 0.06692673081
0.1241620474 -0.02149652151 0.06651163004
0.1478221096 0.02448535776 0.07623416977
0.1234482145 -0.02061839054 0.06528985224
0.1460207894 0.02346090527 0.07502083775
0.1490390574 -0.0284743601 0.07669136559
0.1472425886 -0.02566270149 0.07653906472
0.1259973471 0.01766018996 0.06686573003
0.1261266347 0.01819630351 0.06637967323
0.1253908023 0.0172343495 0.06520999073
0.1457778204 -0.02940682196 0.07548908547
0.1430519289 -0.02728319019 0.07631380521
0.1509716528 0.02513595956 0.07460331783
0.1409315512 -0.02647754772 0.07547049464
0.1489896305 0.02261493525 0.07461264897
0.1397505404 -0.02568183552 0.07463032821
0.14140768 -0.02546773726 0.07563433367
0.1478857993 0.02628815362 0.07367667461
0.1450951396 0.0245806451 0.07478798633
0.142915064 0.02395273997 0.07408406968
0.1416053418 0.02323662134 0.07334714514
0.1432549805 0.0229638042 0.07425294004
0.1258104983 -0.02061058026 0.06554242743
0.1245522455 -0.01929974324 0.06560205141
0.1277434017 0.01724166502 0.06527700445
0.1264387224 0.0159030044 0.06570083831
0.1231539722 -0.0169990306 0.06254312122
0.1248301669 0.01324689324 0.06307692408
0.1228607097 -0.01935762286 0.06441679282
0.1247467496 0.01580441509 0.06459668863
0.124379419 0.01379012228 0.06239072468
0.1226173113 -0.01750587545 0.06200077469
0.1222568244 -0.01525576771 0.06106597305
0.1218563749 -0.005341398634 0.05983862197
0.1215420048 -0.01629017882 0.06055524241
0.1238493212 0.01141152602 0.06185141914
0.1224737865 0.001932419786 0.06024684738
0.1492604758 -0.02792806737 0.07513093392
0.147236898 -0.02973239446 0.07486160676
0.1447919322 -0.02531791183 0.07532506608
0.1232849592 0.01252942884 0.06115605269
0.140233716 -0.02669506153 0.07417850677
0.1392328516 -0.02429983141 0.07266639393
0.1510362841 0.02452858393 0.07312351881
0.1492206568 0.02643513681 0.07299402548
0.1393215346 -0.02619952524 0.07322414792
0.1388659207 -0.02527358155 0.07275465899
0.1465306941 0.02249280693 0.07363178093
0.1421533065 0.02414414609 0.07285353575
0.1259089085 -0.01916343562 0.06507308245
0.1251115668 -0.0210997868 0.06520088435
0.1409082614 0.02176666384 0.07146283034
0.1411237956 0.02367936151 0.07195705541
0.1405907103 0.02275436832 0.0715501479
0.1251467199 -0.02110159486 0.06362414662
0.1242777398 -0.016755102 0.06282663017
0.1277938655 0.01570070467 0.06503941219
0.1270411883 0.01773253956 0.06491540642
0.123941317 -0.00485133447 0.06094978383
0.1270369015 0.01769501769 0.06326400099
0.1259364134 0.01301723057 0.0633357084
0.1243760072 0.001162861813 0.0612861886
0.1228029145 -0.0120550403 0.06097114115
0.1240122538 0.008275104074 0.06175266463
0.1201679999 -0.01406254971 0.05937162293
0.1217989855 0.01051430629 0.06000221786
0.150633322 0.02361978424 0.0732240362
0.1491183167 0.0228460379 0.07185739399
0.1467469456 0.02220138738 0.07154310944
0.1434265435 0.02184576122 0.07117586105
0.1489548191 -0.02691399782 0.07515981163
0.1476663083 -0.02587073947 0.0736692104
0.1453045197 -0.0249348619 0.07321093001
0.1408616209 0.02131552726 0.07060513177
0.1417546466 -0.02442597567 0.07258089457
0.1402390566 0.02308130381 0.07093767771
0.1393176923 0.02194673262 0.07035658171
0.1331393958 0.01974806124 0.06798635647
0.1326995707 0.01882182998 0.06795687114
0.139222425 -0.02388325502 0.07179959955
0.1309800717 0.01916632031 0.06711601128
0.1307512601 0.01708692493 0.06642127142
0.1385483331 -0.02563096187 0.07210967244
0.1286920911 0.01777115348 0.06554947035
0.1281168398 0.01816801632 0.06464314203
0.1377132462 -0.02453415771 0.07143836919
0.1290178618 0.01633790284 0.06536265229
0.1313731239 -0.02260641207 0.06879659699
0.1308649948 -0.02174773265 0.06859685963
0.1291411745 -0.02224746697 0.06772533183
0.1288063837 -0.0203663991 0.06673907108
0.1259070591 0.002950865657 0.06121867763
0.1267607484 -0.02115440405 0.06589930903
0.1262364707 -0.02154915824 0.06506227161
0.127108166 -0.01977589569 0.0655304119
0.1251255586 0.006593226317 0.06184621983
0.1258214198 0.005437548539 0.06167089753
0.1265239045 -0.0005825315615 0.06086728566
0.1263232097 0.009212878267 0.06147624831
0.1252439522 -0.006837085544 0.06060953456
0.1249659179 0.01525541494 0.06184750697
0.1218642566 0.008000801098 0.06033299158
0.1241937794 -0.01042483397 0.06093070657
0.1191331701 0.007879898357 0.05548163672
0.1249971629 -0.009321917467 0.06076880378
0.1261797864 -0.003332668486 0.06074259407
0.1250465065 -0.01303531559 0.06056258058
0.1229839836 -0.01888493232 0.06176136141
0.120520722 -0.01150283661 0.05970605888
0.1503226468 0.02491470459 0.07155813611
0.1499635731 0.02602616563 0.07252662689
0.1176619578 -0.01069812135 0.05478602321
0.1486439689 -0.02829474749 0.07348038914
0.144330709 0.02483561301 0.07047760332
0.1395243902 0.02104507437 0.06994521671
0.148108671 -0.02941109232 0.07444489463
0.1426907413 -0.0275914317 0.07193994201
0.1370744788 0.02051456353 0.06877121118
0.137631864 0.02205348242 0.06918662964
0.1379974563 -0.02362758516 0.07102938543
0.1349842262 0.02253555632 0.06780506962
0.1342112598 0.02102423042 0.06799350719
0.1347681568 0.01962080457 0.06787323413
0.1354876023 -0.02318898683 0.06978356619
0.136096431 -0.02469560249 0.07019401246
0.133356408 -0.02529009826 0.06870859879
0.1336204013 0.02196738834 0.06734388425
0.1318506801 0.01663088298 0.06609764331
0.1324941168 -0.02383647254 0.06893196414
0.1329342326 -0.02243668125 0.06872236794
0.1286880744 0.01336954579 0.06357023523
0.127146238 0.01142801229 0.06220021434
0.125155249 0.01088462509 0.06223224805
0.1320750273 -0.02482205914 0.06822461777
0.1261915889 0.005673003908 0.06107430346
0.1299923076 -0.01985322792 0.06638607027
0.1270502821 -0.01702385953 0.06332982731
0.1256499708 -0.01523331956 0.06142637901
0.1236785201 -0.01480011498 0.06133417784
0.1252339813 -0.009460036954 0.06027108994
0.1203223395 0.003455345445 0.05849217938
0.119369837 -0.006421056145 0.05803302923
0.1187231763 0.006057397168 0.05618482292
0.1185382479 0.0001862430629 0.0560377048
0.117346222 -0.008926375871 0.05547644583
0.1181564118 -0.002487701464 0.05595355274
0.1470788939 -0.02769843415 0.07187190529
0.1486821575 0.02460938098 0.0700661986
0.1476877483 0.02596188606 0.07055645799
0.1458629497 -0.02914081479 0.07221275117
0.1459369705 0.02560256311 0.07057708269
0.143232458 0.02412140985 0.06926357629
0.1442054245 -0.02859958379 0.07212766693
0.1403642841 0.02083544116 0.06904386631
0.1417206772 -0.02676991962 0.07062904369
0.1390440965 0.02298468322 0.06922462924
0.1380376808 0.02316818121 0.06740747234
0.1388364356 -0.02338404888 0.07017279537
0.1370323923 0.0197338862 0.06773725099
0.1375271721 -0.0255898824 0.07031475291
0.1365504886 -0.02576815466 0.06848112422
0.1347728566 0.01889653493 0.0668239368
0.1352959127 -0.02239526908 0.06874573593
0.1329585436 -0.02174073325 0.06761193276
0.1330468216 0.02219810576 0.0650423604
0.1321950987 0.01585290444 0.06406506233
0.1316555801 -0.02518252651 0.06580280912
0.1268760156 0.009418140459 0.05961687832
0.1260775038 0.007505670865 0.06002396697
0.1303199582 -0.01921775744 0.06433418054
0.123449538 0.001693454783 0.05837514914
0.1229601334 0.01275128935 0.05780803287
0.1253758704 -0.0130350756 0.05890127335
0.1247786435 -0.01111287804 0.05928593051
0.1227848174 -0.004680084345 0.05801728535
0.1213887199 -0.01603593024 0.05708537171
0.1469875312 0.02483583343 0.06964421364
0.1454375022 -0.02782734764 0.07128899188
0.1429059496 -0.02525995838 0.07096063887
0.1443435492 0.02269387585 0.06951310687
0.1445463851 0.0234911687 0.06934684324
0.1428973262 0.02321753812 0.06805241223
0.1423960238 0.02386832029 0.06853730843
0.1426905039 0.02235142684 0.06819418408
0.1408813948 0.0214291389 0.06796076246
0.139602436 0.02310432124 0.06779475016
0.1430968765 -0.02612000694 0.07083678636
0.1415626574 -0.02577111534 0.0693734064
0.140960967 -0.02646539366 0.06984050969
0.1359882001 0.01907101391 0.06614743024
0.1413306928 -0.02483620663 0.06945829081
0.1394339952 -0.02390322833 0.06905478016
0.1381859434 -0.02569197587 0.06886768511
0.1342407805 -0.02183920295 0.06707995952
0.1317592454 0.02125724882 0.06358344939
0.128886183 0.01853136971 0.0592308987
0.1250678701 0.01544859142 0.05703431148
0.1303365666 -0.02440426313 0.06428259292
0.1277309348 -0.02197856088 0.05945353577
0.1236492267 -0.0188412154 0.05660247125
0.1184453292 0.004412584836 0.05448123448
0.1408399506 0.02245568936 0.06746630134
0.1394402677 0.02254234465 0.06691603017
0.1382721964 0.0211889164 0.0658445727
0.138084715 0.02238467773 0.06551460925
0.1374078624 0.02041050871 0.06564611064
0.1364735076 0.02207320962 0.06497713024
0.1354453626 0.01903417046 0.06467816566
0.1174832591 -0.006896300619 0.05379285636
0.1331234767 0.02168685621 0.06373662782
0.1316141205 0.0208618236 0.06214137213
0.1302645643 0.01421214126 0.06061702773
0.1291097468 0.01255934349 0.06037646744
0.1394993744 -0.02497404865 0.06858336732
0.1227410893 0.004469182272 0.05610924979
0.1221282676 0.002034818754 0.0559338701
0.1381041248 -0.02511262782 0.06796498615
0.1199582816 0.006645566295 0.05222504861
0.1366887407 -0.0237725905 0.06691854847
0.1366635944 -0.02499438378 0.06658102863
0.1358888539 0.02001078041 0.06454127018
0.1357860012 -0.02304839971 0.06666545936
0.135113578 -0.02479740169 0.06596261886
0.133817429 -0.02181422633 0.06555234684
0.1342586768 0.01798707215 0.06388717553
0.1359570622 0.02140595709 0.06448615957
0.1316858527 -0.02474513596 0.064453275
0.1337639192 0.02010986138 0.06308708257
0.132480851 0.02049864333 0.06221844861
0.1302799097 -0.02399264678 0.06282382704
0.1288180875 -0.01770576274 0.06088441084
0.1311779022 0.01664508488 0.06001477567
0.1275582362 -0.01624056536 0.06011194473
0.1217013149 -0.007034659653 0.05560138617
0.1214398947 -0.004448913524 0.05561676555
0.1273545355 0.01627359512 0.05583790103
0.1242998969 0.01248300557 0.05551220225
0.1227850505 0.00129425971 0.05329987374
0.1191601723 -0.00869970165 0.05140160698
0.1328349537 0.01867444833 0.06128486603
0.1304697951 0.01840334561 0.05918788714
0.1301971057 0.0163034113 0.05783196071
0.1343760704 -0.02276279548 0.06548490157
0.1326246081 -0.02091550527 0.06460058217
0.1345935012 -0.02419688076 0.06544442794
0.1321818114 -0.02315550402 0.06389688351
0.1285426436 0.01192598543 0.05792418264
0.1310907518 -0.02356833238 0.06295688823
0.1261218588 0.008547121308 0.05622239314
0.1242492645 0.005631926624 0.05489622877
0.129994456 -0.01994302547 0.06052828022
0.1215883012 0.006762942481 0.05125676497
0.1265209429 -0.01949597326 0.05540982626
0.128911675 0.0155119861 0.05534950692
0.1289440573 0.01351386083 0.05587989732
0.128041894 0.01557278223 0.05497164495
0.1291850462 0.01761542387 0.05696645826
0.1233639938 -0.01538533563 0.05466378141
0.1272714536 0.01150994879 0.05501553741
0.1258850608 0.008962158696 0.05446173788
0.1272873309 0.01266705103 0.05464473694
0.1222837276 -0.003315174708 0.05319657481
0.1262009411 0.0122142478 0.05444302564
0.1315347589 -0.02179797865 0.06200839498
0.1246538456 0.01044789513 0.05343862756
0.123861628 0.003843658908 0.05315011245
0.129536131 -0.02174590596 0.05966313783
0.1235127604 0.008403866544 0.05147953227
0.1294075727 -0.0196343873 0.05804682979
0.1275501352 -0.01521008611 0.05764206506
0.1251189781 -0.01135259874 0.05577923625
0.125090061 0.009662053492 0.05319725003
0.1234364833 -0.007957031538 0.05464942259
0.1212208446 -0.008504941877 0.05049243031
0.1247537 0.008184214657 0.05204901866
0.1245086951 0.006071690626 0.05209539432
0.1231713936 0.003460089513 0.05083280509
0.1222612555 0.0001434112855 0.0504875306
0.1282987458 -0.01851613948 0.05518102994
0.1220137796 0.004272767504 0.05031943606
0.1283023689 -0.01644827268 0.055730186
0.127502559 -0.01861276761 0.05460780291
0.1282735608 -0.02098719798 0.05699456016
0.1267832816 -0.01421807645 0.05466077691
0.1253414638 -0.01120848457 0.05414714792
0.1228823415 0.004659548784 0.05052496058
0.1268513565 -0.01544549878 0.05419065845
0.1257173871 -0.01491637973 0.05369314635
0.124191463 -0.01264333211 0.05267001164
0.122055552 0.001264029439 0.05012764972
0.1213517568 0.0006310898363 0.04997796181
0.1214494079 -0.0007007820153 0.04979408254
0.1232106936 -0.005732102828 0.053146837
0.1231853147 -0.01002853143 0.05082774127
0.1246619421 -0.01167988055 0.05264767307
0.1243316326 -0.009711528204 0.05178564798
0.1240061465 -0.007649916448 0.05201312334
0.1227867125 -0.005009106678 0.05070488642
0.1219010658 -0.001717044213 0.05035781071
0.1217101604 -0.005788844436 0.04992979811
0.122560007 -0.006149825037 0.05030411514
0.1216912033 -0.002739743376 0.04992624414
0.1209898326 -0.002071993065 0.04979046851
0.1218716262 -0.001162494314 0.05567424976
0.1190231486 -0.0007994441796 0.05205478724
0.1242464652 -0.0017847475 0.06084891962
0.1258050293 -0.001878534554 0.06060444192
0.1179335284 -0.0009829255667 0.05458198412
0.1230685821 -0.001462016024 0.05814323572
0.1222855531 -0.001029275751 0.0537105602
0.1221046233 -0.0008374758787 0.05104924066
0.1223248311 -0.0009322080794 0.05236924965
0.1233659078 -0.001748492249 0.06043696035
0.1220197939 -0.0007827519288 0.05040520968
0.1205130827 -0.001363154186 0.05821012572
0.1210790003 -0.0007058555269 0.04986711482
0.1232257561 -0.001739966249 0.0603538577
0.1216055899 -0.0015223297 0.059146597
0.118971122 -0.001202754003 0.05659465663
0.1225910595 -0.001689002833 0.05993840131
0.1183396817 -0.001116312201 0.05590352118
3 166 198 128
3 82 83 18
3 109 73 317
3 117 318 317
3 229 183 279
3 10 9 14
3 13 12 15
3 64 32 60
3 78 26 79
3 305 250 285
3 105 104 34
3 41 19 21
3 236 177 251
3 123 46 76
3 8 24 7
3 181 147 255
3 26 10 59
3 73 107 48
3 190 189 198
3 185 184 245
3 233 256 254
3 151 116 114
3 105 178 145
3 99 145 140
3 78 9 26
3 308 304 296
3 204 225 199
3 28 25 23
3 16 33 59
3 52 77 113
3 157 220 156
3 24 55 122
3 26 80 79
3 47 113 48
3 63 32 65
3 210 209 66
3 43 38 46
3 284 304 273
3 53 128 164
3 68 36 19
3 36 69 20
3 141 140 135
3 186 318 117
3 301 289 302
3 81 85 165
3 75 48 107
3 118 74 150
3 42 52 39
3 141 100 99
3 278 275 241
3 253 223 266
3 64 197 167
3 133 129 130
3 86 169 91
3 105 34 62
3 310 309 313
3 108 73 103
3 129 134 170
3 80 26 59
3 39 41 42
3 87 65 64
3 90 89 92
3 86 51 84
3 238 178 209
3 96 36 95
3 96 69 36
3 236 173 139
3 174 135 131
3 71 69 96
3 71 21 69
3 23 25 53
3 189 128 198
3 127 17 50
3 41 112 42
3 221 222 206
3 171 137 172
3 100 141 147
3 205 230 233
3 121 122 55
3 255 147 175
3 160 29 56
3 95 36 68
3 200 166 128
3 125 64 60
3 257 254 256
3 256 238 257
3 87 64 167
3 126 85 63
3 88 129 126
3 88 87 130
3 130 129 88
3 255 275 181
3 250 311 285
3 306 296 295
3 61 106 148
3 133 89 134
3 100 101 99
3 201 170 173
3 89 133 138
3 93 139 90
3 213 193 195
3 104 61 34
3 141 174 175
3 107 146 110
3 146 107 108
3 252 222 251
3 237 218 217
3 163 125 192
3 296 307 308
3 30 33 16
3 10 26 9
3 259 238 241
3 212 319 155
3 191 192 188
3 70 45 114
3 74 114 45
3 295 296 282
3 195 196 213
3 74 45 44
3 142 144 143
3 62 13 15
3 188 192 125
3 126 170 165
3 170 126 129
3 46 44 120
3 231 234 230
3 134 173 170
3 7 9 8
3 130 132 133
3 180 110 146
3 181 102 147
3 3 5 2
3 188 160 159
3 101 104 105
3 125 162 188
3 3 6 5
3 229 115 183
3 194 163 193
3 194 197 125
3 119 15 40
3 309 304 308
3 280 292 242
3 291 263 279
3 46 120 76
3 183 208 248
3 68 39 72
3 57 53 27
3 202 225 203
3 109 103 73
3 68 142 98
3 284 273 245
3 85 81 33
3 119 46 187
3 193 197 194
3 197 193 213
3 213 214 197
3 5 6 23
3 158 189 190
3 169 86 202
3 5 23 4
3 207 71 206
3 235 254 255
3 82 18 2
3 211 119 187
3 78 24 9
3 211 210 119
3 152 113 77
3 238 209 241
3 150 38 67
3 96 206 71
3 136 140 137
3 179 258 224
3 239 232 236
3 258 260 270
3 61 67 38
3 204 128 57
3 225 204 228
3 237 221 218
3 290 280 294
3 215 196 201
3 81 80 59
3 262 278 280
3 260 179 226
3 111 116 151
3 191 195 193
3 311 305 285
3 106 181 148
3 282 245 184
3 44 45 120
3 131 169 174
3 185 151 118
3 102 106 101
3 307 300 305
3 296 306 307
3 92 93 90
3 58 97 94
3 243 253 252
3 252 253 268
3 284 245 282
3 248 274 276
3 274 267 272
3 130 87 167
3 272 265 266
3 19 37 68
3 47 144 39
3 181 242 148
3 181 262 242
3 219 236 232
3 265 272 267
3 317 73 324
3 283 270 271
3 271 286 283
3 299 295 298
3 286 279 276
3 186 117 111
3 290 293 298
3 257 255 254
3 82 49 124
3 120 45 153
3 152 77 154
3 293 264 269
3 257 275 255
3 34 13 62
3 303 289 325
3 61 104 106
3 291 297 301
3 266 270 272
3 92 96 95
3 256 234 238
3 279 183 248
3 279 263 229
3 2 5 0
3 155 152 154
3 182 109 318
3 78 79 121
3 65 87 88
3 141 175 147
3 112 71 207
3 9 7 14
3 157 156 153
3 251 177 243
3 218 215 217
3 283 286 276
3 0 4 50
3 144 68 72
3 142 68 144
3 50 4 22
3 251 240 239
3 91 169 131
3 112 41 21
3 112 21 71
3 33 30 31
3 239 237 232
3 185 118 184
3 247 208 268
3 208 207 268
3 122 56 24
3 96 138 176
3 184 244 281
3 22 4 23
3 138 96 92
3 142 224 223
3 180 179 110
3 20 19 36
3 248 267 274
3 267 248 247
3 68 37 39
3 168 197 214
3 3 2 18
3 81 195 191
3 165 195 81
3 176 218 221
3 261 226 249
3 79 191 159
3 172 228 204
3 241 275 259
3 257 238 259
3 144 72 39
3 78 121 55
3 197 64 125
3 287 288 297
3 297 288 301
3 63 33 32
3 88 126 63
3 265 268 253
3 60 30 29
3 205 235 175
3 218 176 216
3 229 212 115
3 115 212 154
3 114 118 151
3 132 130 167
3 176 138 132
3 177 236 139
3 97 54 131
3 17 2 1
3 97 136 94
3 227 249 226
3 17 127 49
3 145 99 101
3 299 298 293
3 294 278 210
3 316 229 291
3 292 298 295
3 94 171 57
3 293 294 264
3 187 269 211
3 118 150 149
3 39 19 41
3 110 143 144
3 296 284 282
3 10 14 16
3 136 97 135
3 121 160 122
3 93 92 98
3 98 177 93
3 331 48 329
3 38 43 40
3 228 172 231
3 235 205 254
3 22 53 164
3 114 116 70
3 138 133 132
3 184 281 282
3 164 161 22
3 6 51 28
3 177 139 93
3 332 330 155
3 29 30 11
3 103 146 108
3 110 144 75
3 190 199 202
3 290 294 293
3 54 27 28
3 271 287 286
3 52 42 112
3 90 139 134
3 292 280 290
3 226 182 227
3 182 320 227
3 201 232 217
3 267 247 268
3 283 274 270
3 86 28 51
3 80 81 191
3 82 124 83
3 292 295 281
3 300 269 305
3 128 189 164
3 287 297 286
3 195 165 196
3 208 247 248
3 121 79 159
3 159 160 121
3 85 126 165
3 191 193 192
3 14 7 11
3 227 320 315
3 144 47 75
3 230 205 203
3 161 50 22
3 110 75 107
3 75 47 48
3 84 51 18
3 178 231 172
3 98 142 177
3 275 262 181
3 66 105 62
3 153 76 120
3 86 190 202
3 20 21 19
3 262 280 242
3 167 168 132
3 225 230 203
3 314 313 311
3 278 294 280
3 69 21 20
3 274 283 276
3 179 224 143
3 134 139 173
3 194 125 163
3 217 232 237
3 221 206 176
3 18 51 3
3 38 44 46
3 83 158 190
3 91 54 28
3 214 216 168
3 274 272 270
3 115 77 52
3 112 183 52
3 289 301 288
3 183 115 52
3 208 183 112
3 208 112 207
3 167 197 168
3 123 76 156
3 23 6 28
3 261 277 271
3 185 111 151
3 153 156 76
3 299 300 306
3 155 154 212
3 56 29 11
3 137 171 136
3 24 8 9
3 64 65 32
3 201 196 165
3 201 165 170
3 105 209 178
3 200 128 204
3 56 122 160
3 140 141 99
3 14 30 16
3 261 249 277
3 84 190 86
3 12 61 35
3 250 305 187
3 211 294 210
3 275 257 259
3 230 228 231
3 124 127 161
3 312 313 309
3 244 149 148
3 180 226 179
3 201 217 215
3 159 191 188
3 177 223 243
3 134 89 90
3 207 206 222
3 308 312 309
3 179 143 110
3 256 233 234
3 38 40 12
3 224 142 143
3 113 152 48
3 269 300 299
3 173 236 219
3 213 215 214
3 134 129 133
3 219 232 201
3 182 103 109
3 177 142 223
3 115 154 77
3 201 173 219
3 215 216 214
3 54 58 27
3 250 123 220
3 32 31 60
3 24 56 7
3 1 0 17
3 210 241 209
3 55 24 78
3 145 101 105
3 213 196 215
3 297 291 279
3 191 79 80
3 68 98 95
3 148 242 244
3 61 38 35
3 252 207 222
3 189 158 161
3 179 260 258
3 266 258 270
3 298 292 290
3 258 266 224
3 270 260 271
3 266 223 224
3 95 98 92
3 251 243 252
3 239 240 221
3 216 215 218
3 101 100 102
3 136 171 94
3 237 239 221
3 240 222 221
3 17 0 50
3 184 118 149
3 234 233 230
3 178 137 145
3 305 269 187
3 176 132 168
3 14 11 30
3 85 33 63
3 328 48 331
3 138 92 89
3 81 59 33
3 104 101 106
3 94 57 58
3 119 210 66
3 160 188 162
3 261 260 226
3 128 53 57
3 205 174 169
3 65 88 63
3 39 37 19
3 66 62 15
3 150 74 44
3 40 43 119
3 116 111 70
3 131 54 91
3 288 287 277
3 287 271 277
3 7 56 11
3 50 161 127
3 286 297 279
3 281 295 282
3 52 113 47
3 211 269 264
3 302 291 301
3 27 25 28
3 265 267 268
3 276 279 248
3 106 102 181
3 310 325 322
3 222 240 251
3 246 245 273
3 266 265 253
3 243 223 253
3 315 249 227
3 225 228 230
3 288 249 289
3 105 66 209
3 205 233 254
3 271 260 261
3 32 33 31
3 312 305 311
3 307 305 312
3 311 313 312
3 16 59 10
3 29 162 60
3 162 29 160
3 60 162 125
3 192 193 163
3 39 52 47
3 53 22 23
3 182 180 103
3 180 146 103
3 182 226 180
3 269 299 293
3 187 46 123
3 96 176 206
3 277 249 288
3 176 168 216
3 107 73 108
3 205 169 203
3 58 54 97
3 0 1 2
3 306 295 299
3 184 149 244
3 229 263 291
3 97 131 135
3 30 60 31
3 239 236 251
3 124 49 127
3 225 202 199
3 313 314 310
3 38 12 35
3 309 310 273
3 82 2 17
3 268 207 252
3 57 27 58
3 91 28 86
3 57 171 204
3 44 38 150
3 198 166 199
3 190 198 199
3 6 3 51
3 124 158 83
3 281 244 292
3 308 307 312
3 175 235 255
3 117 70 111
3 292 244 242
3 200 199 166
3 18 83 84
3 310 322 273
3 119 66 15
3 284 296 304
3 49 82 17
3 212 229 316
3 171 172 204
3 245 246 186
3 27 53 25
3 190 84 83
3 316 302 327
3 234 231 178
3 302 289 303
3 61 12 34
3 5 4 0
3 46 119 43
3 140 136 135
3 326 330 153
3 199 200 204
3 70 324 45
3 275 278 262
3 150 67 61
3 123 156 220
3 202 203 169
3 148 149 150
3 304 309 273
3 278 241 210
3 319 212 316
3 186 111 185
3 13 34 12
3 118 114 74
3 182 318 320
3 205 175 174
3 158 124 161
3 291 302 316
3 135 174 141
3 306 300 307
3 178 172 137
3 161 164 189
3 145 137 140
3 102 100 147
3 109 317 318
3 148 150 61
3 264 294 211
3 40 15 12
3 178 238 234
3 250 187 123
3 152 155 330
3 326 153 329
3 289 249 322
3 73 48 324
3 117 317 70
3 152 326 329
3 48 152 329
3 326 152 330
3 302 303 327
3 186 185 245
3 48 328 324
3 249 323 322
3 289 322 325
3 273 323 321
3 155 319 332
3 249 321 323
3 249 315 321
3 246 315 320
3 153 45 329
3 317 324 70
3 186 246 320
3 303 325 310
3 332 157 330
3 319 316 220
3 220 316 250
3 315 246 273
3 314 303 310
3 316 327 314
3 157 332 319
3 220 157 319
3 331 329 45
3 316 311 250
3 328 331 45
3 311 316 314
3 324 328 45
3 273 321 315
3 314 327 303
3 330 157 153
3 186 320 318
3 322 323 273
