ply
format ascii 1.0
element vertex 157
property double x
property double y
property double z
element face 310
property list uchar int vertex_indices
end_header
0.1560084353 -0.006636549817 0.04686482215
0.1563036365 -0.005373239496 0.04726836803
0.1569427817 -0.004621134062 0.04695239983
0.1562978538 -0.004305135694 0.04723925385
0.1550039164 -0.006675423739 0.0472899555
0.1550870653 -0.004932048143 0.04731601649
0.1539073505 -0.008084234091 0.04691911114
0.1534916548 -0.005682930344 0.04705232884
0.1571620575 -0.004522411797 0.04622798237
0.1561566175 -0.00581985375 0.0460374924
0.1566771514 -0.004402226521 0.04590866059
0.1565198229 -0.004050488807 0.04644554032
0.1555067227 -0.007282131506 0.045981638
0.1552575481 -0.004546126962 0.04637357413
0.1542165756 -0.008668853684 0.04592451378
0.1539230099 -0.00485506792 0.04634783116
0.15331462 -0.008458056649 0.04585924646
0.1527527713 -0.006990911775 0.04615926039
0.1520540177 -0.005917353234 0.04594893173
0.1524574242 -0.005199801238 0.04614814834
0.1545053353 -0.007539699109 0.04493958792
0.1543648359 -0.005473940049 0.04542664883
0.153714583 -0.007984600383 0.0443974794
0.1534180255 -0.005114497011 0.04548947799
0.1530140602 -0.0079750382 0.04411091797
0.1527714691 -0.007821454992 0.04504585082
0.1521080738 -0.005224491687 0.04540584661
0.151069273 -0.006382843873 0.04460985211
0.1513569863 -0.005717760367 0.04487224319
0.1534166462 -0.006940693148 0.04407241046
0.1523048748 -0.005640195613 0.04435623453
0.1519229721 -0.007515672959 0.04395616995
0.1508894201 -0.005522622001 0.04356412542
0.1501487471 -0.005801169019 0.04345944976
0.1502894559 -0.006740292322 0.04381044924
0.1528014496 -0.00762246494 0.04277578272
0.1524017548 -0.006576887664 0.0426961397
0.1522286277 -0.008480561447 0.04264472316
0.1513884036 -0.005506363881 0.04279692853
0.1509568402 -0.007984012853 0.04283673221
0.1492904182 -0.007793618475 0.04258459166
0.1489284514 -0.006767434111 0.04287608438
0.152269277 -0.008833307054 0.04103203158
0.1507812577 -0.005115690596 0.03951761889
0.1508865796 -0.009518006337 0.0417755753
0.1488707529 -0.005622026476 0.04106555083
0.1485698355 -0.007648085243 0.04197530735
0.1482244443 -0.006688594148 0.04148241682
0.1516327841 -0.009889371536 0.04072404653
0.1503414598 -0.01092512397 0.04003426366
0.1495519526 -0.009762307091 0.04058116806
0.1496878377 -0.004677222828 0.03904574149
0.1482407678 -0.007476319903 0.04108465918
0.1509777715 -0.01037271525 0.03831715581
0.1516920065 -0.006040965536 0.03888878188
0.1505552134 -0.01100794262 0.03936671286
0.1488986311 -0.008966725813 0.03916634913
0.1487608489 -0.005498627823 0.03830895936
0.1518118701 -0.007869392341 0.03860099699
0.1489922565 -0.01101789763 0.037432155
0.1489322576 -0.004698848521 0.03844372529
0.1486474791 -0.01015496476 0.03725658601
0.1491572247 -0.007483182449 0.03692529173
0.1518493823 -0.006173611586 0.03741863131
0.151767783 -0.008482248698 0.03700730137
0.1511188958 -0.004916385367 0.03753969155
0.1512193487 -0.01094691098 0.03560696063
0.1497036363 -0.00391223252 0.03750239865
0.1498129901 -0.01154945083 0.03665351888
0.1484070433 -0.003753582702 0.03703311714
0.1483582676 -0.004980391118 0.03732959199
0.1528311856 -0.008726120536 0.03464199755
0.1517724521 -0.00469459516 0.03583786874
0.1500478849 -0.003911489505 0.03601060052
0.1491614432 -0.01174222226 0.03505140394
0.1484095484 -0.00352740556 0.03618245587
0.1490831 -0.007363519874 0.03622213694
0.1478375652 -0.004295662031 0.03646621767
0.1538183538 -0.007131586883 0.0329135015
0.1525201014 -0.005708677317 0.0353581188
0.150987004 -0.01207779156 0.03457720305
0.1497619075 -0.01207772587 0.03474577159
0.1488026436 -0.01109226669 0.03503004683
0.1482793066 -0.007153580125 0.03443265519
0.1473877475 -0.005023601296 0.03518822376
0.1472366363 -0.003765837046 0.03480877492
0.1460746823 -0.003965539761 0.03395169843
0.1530942753 -0.005691045764 0.03309313647
0.1527271669 -0.01143486821 0.03413388826
0.1518540604 -0.004495922045 0.0337269295
0.1508904962 -0.004298152256 0.03242626203
0.1507267598 -0.0124277913 0.03390979726
0.1486665475 -0.008838647248 0.03433130537
0.1480983274 -0.003535657317 0.0340153083
0.1468140755 -0.006246266023 0.03294358785
0.1453985191 -0.005047962399 0.03278101526
0.1542472625 -0.01262294525 0.03270651126
0.1542542113 -0.01059799305 0.03309757338
0.1528600089 -0.01343278358 0.03274177379
0.1503521387 -0.01214347278 0.03329972064
0.1499359495 -0.01113756444 0.03249060036
0.1483057118 -0.00776190584 0.03317262891
0.1464262599 -0.003392006339 0.03360568061
0.1443191316 -0.00329298677 0.03334691769
0.1448002224 -0.003151147309 0.03340441682
0.1552379672 -0.01118424379 0.03188121022
0.1545616671 -0.009889747497 0.03208217765
0.1539640942 -0.0133351689 0.03193415048
0.1541402162 -0.008461363169 0.03228673631
0.1536458111 -0.006965881191 0.03198698186
0.1525179695 -0.005562506453 0.03157083831
0.1526540356 -0.013646231 0.03147931725
0.1491235005 -0.009370704335 0.03240819941
0.1457844849 -0.003185902848 0.03257244633
0.1472566162 -0.007053732924 0.031431703
0.143568065 -0.003656479377 0.03235605162
0.1435961552 -0.002898620471 0.03252228648
0.155506528 -0.01134803585 0.030992841
0.1553096645 -0.01059953575 0.03072742814
0.154785767 -0.01265930675 0.0310012666
0.154115697 -0.01304176507 0.03019475478
0.1526927646 -0.01333825195 0.03008121702
0.151416644 -0.005429300399 0.03072413737
0.1512185038 -0.01212178614 0.02952611194
0.1501256545 -0.01056025848 0.02929086239
0.1497423316 -0.01029662789 0.03061390307
0.1490414582 -0.009282687801 0.02980392558
0.1458407249 -0.003592295126 0.03122641771
0.1437958438 -0.004139095525 0.03162804484
0.1439363596 -0.003262751505 0.031818669
0.155157268 -0.0115222101 0.03009624897
0.1520757388 -0.006921020349 0.03019147986
0.1513544229 -0.007088346994 0.02975682181
0.1464452775 -0.004336069191 0.03025605379
0.1468974886 -0.006443611813 0.03009089606
0.1445108505 -0.004279269089 0.03084420077
0.1546927806 -0.01158462255 0.02959560451
0.1532820423 -0.0124278067 0.02923558221
0.1531250604 -0.01285513099 0.02935704197
0.1520443684 -0.01255885138 0.02931826828
0.1510732561 -0.0116838325 0.02926449969
0.1498594189 -0.007580161366 0.02831933095
0.1490682782 -0.006027154091 0.02914566173
0.1499915203 -0.009980677716 0.02922336322
0.1492205424 -0.008944418931 0.02845671067
0.1489392817 -0.008300635018 0.02869059929
0.1473587248 -0.005724915732 0.02928434065
0.1481139228 -0.007004823953 0.02899704765
0.149586924 -0.007836433881 0.02815351346
0.1543060836 -0.009967366179 0.03121934857
0.1533679584 -0.008740211937 0.03118200717
0.1539223781 -0.01158768914 0.02943272008
0.1527739353 -0.01064072454 0.03006441575
0.1506936021 -0.01022645049 0.02920132495
0.1504717306 -0.009257863325 0.02919690824
0.1517372258 -0.01151578927 0.02928896877
0.1504265206 -0.007852843326 0.02888207765
3 1 2 3
3 1 4 0
3 5 1 3
3 133 90 122
3 4 1 5
3 7 4 5
3 14 4 6
3 85 84 77
3 9 8 1
3 2 8 11
3 147 142 148
3 11 3 2
3 0 12 9
3 3 11 13
3 14 12 4
3 3 13 5
3 55 48 49
3 13 15 5
3 14 6 16
3 7 5 15
3 17 16 6
3 84 83 76
3 18 17 7
3 15 19 7
3 18 7 19
3 10 8 9
3 142 122 141
3 10 13 11
3 12 14 20
3 12 20 9
3 9 13 10
3 21 13 9
3 22 20 14
3 15 13 21
3 16 22 14
3 22 16 24
3 23 15 21
3 24 16 25
3 84 85 86
3 16 17 25
3 23 19 15
3 19 23 26
3 17 27 25
3 27 17 18
3 18 19 26
3 27 18 28
3 26 28 18
3 101 112 92
3 29 21 20
3 21 29 30
3 23 21 30
3 25 31 24
3 30 26 23
3 25 27 31
3 26 30 28
3 28 32 27
3 34 27 33
3 156 154 148
3 35 22 24
3 35 29 22
3 36 29 35
3 35 24 37
3 30 29 36
3 24 31 37
3 38 30 36
3 39 37 31
3 30 38 32
3 39 31 34
3 34 40 39
3 33 41 34
3 40 34 41
3 42 35 37
3 73 89 90
3 43 38 36
3 37 39 44
3 39 40 44
3 45 33 32
3 51 38 43
3 40 41 46
3 45 41 33
3 45 47 41
3 46 41 47
3 37 48 42
3 49 48 44
3 44 48 37
3 32 38 51
3 97 96 105
3 45 32 51
3 40 52 50
3 40 46 52
3 47 52 46
3 53 42 48
3 53 48 55
3 27 32 33
3 50 52 56
3 120 119 107
3 4 12 0
3 58 42 53
3 58 35 42
3 35 58 54
3 9 1 0
3 49 50 59
3 50 56 59
3 57 52 47
3 45 51 60
3 56 57 62
3 45 60 57
3 56 52 57
3 79 71 78
3 58 64 63
3 63 54 58
3 64 58 53
3 65 54 63
3 54 65 43
3 66 53 68
3 43 65 67
3 6 4 7
3 68 55 59
3 43 67 51
3 153 149 152
3 59 56 61
3 67 69 51
3 61 56 62
3 137 120 138
3 112 82 92
3 57 60 70
3 63 64 79
3 63 72 65
3 66 64 53
3 67 65 73
3 74 68 59
3 67 73 75
3 50 44 40
3 57 76 62
3 75 69 67
3 57 70 76
3 70 60 77
3 69 77 60
3 79 72 63
3 71 64 66
3 68 80 66
3 68 81 80
3 74 81 68
3 74 59 82
3 82 59 61
3 34 31 27
3 76 70 84
3 84 70 77
3 85 77 75
3 73 65 72
3 76 61 62
3 78 87 79
3 66 88 71
3 80 88 66
3 72 79 89
3 72 89 73
3 91 80 81
3 82 61 92
3 76 92 61
3 83 92 76
3 75 73 93
3 94 83 84
3 28 30 32
3 93 85 75
3 94 84 95
3 84 86 95
3 96 97 88
3 88 97 71
3 98 96 88
3 20 21 9
3 98 88 80
3 80 91 98
3 129 113 127
3 11 8 10
3 99 91 81
3 100 99 74
3 74 82 100
3 73 90 93
3 100 82 112
3 68 53 55
3 83 101 92
3 94 101 83
3 85 93 102
3 1 8 2
3 74 99 81
3 102 104 86
3 104 103 86
3 106 97 105
3 78 97 106
3 78 106 108
3 109 78 108
3 107 96 98
3 54 36 35
3 109 87 78
3 110 87 109
3 89 87 110
3 89 110 90
3 91 111 98
3 111 91 99
3 139 123 140
3 123 100 124
3 93 90 113
3 101 94 114
3 113 102 93
3 103 95 86
3 113 104 102
3 115 95 103
3 104 113 116
3 116 103 104
3 115 103 116
3 117 118 105
3 96 119 117
3 105 96 117
3 105 118 106
3 119 96 107
3 107 111 120
3 98 111 107
3 121 111 123
3 90 110 122
3 99 123 111
3 60 51 69
3 100 125 124
3 112 125 100
3 125 112 126
3 112 101 126
3 59 55 49
3 101 114 126
3 127 113 90
3 114 94 128
3 95 128 94
3 115 128 95
3 116 113 129
3 100 123 99
3 115 129 128
3 129 115 116
3 7 17 6
3 117 130 118
3 119 130 117
3 119 120 130
3 155 139 140
3 120 111 121
3 131 110 109
3 110 131 122
3 131 132 122
3 127 90 133
3 126 114 134
3 128 134 114
3 134 128 135
3 135 127 133
3 127 135 129
3 128 129 135
3 136 118 130
3 130 120 136
3 137 136 120
3 75 77 69
3 121 138 120
3 138 121 139
3 89 79 87
3 139 137 138
3 137 139 155
3 139 121 123
3 132 141 122
3 123 124 140
3 47 45 57
3 124 125 143
3 143 125 126
3 126 144 143
3 126 145 144
3 122 142 133
3 102 86 85
3 147 145 126
3 126 134 147
3 146 147 134
3 135 146 134
3 135 133 146
3 142 141 148
3 144 145 148
3 147 148 145
3 146 142 147
3 29 20 22
3 50 49 44
3 118 149 106
3 106 149 108
3 108 149 150
3 79 64 71
3 71 97 78
3 133 142 146
3 108 150 109
3 109 150 131
3 118 151 149
3 152 149 151
3 150 149 153
3 154 131 150
3 131 154 132
3 136 151 118
3 151 136 137
3 155 151 137
3 152 151 155
3 153 152 155
3 43 36 54
3 150 153 154
3 132 156 141
3 155 140 153
3 156 132 154
3 140 124 153
3 143 153 124
3 143 154 153
3 156 148 141
3 144 154 143
3 148 154 144
