ply
format ascii 1.0
element vertex 157
property double x
property double y
property double z
element face 310
property list uchar int vertex_indices
end_header
0.1557810202 -0.007599341625 0.04510347301
0.1558166114 -0.006244918595 0.04540763513
0.1563343761 -0.005461494865 0.04494785364
0.1557082943 -0.005226583244 0.04527431689
0.1549020556 -0.00773149294 0.04561213546
0.1547345743 -0.006007484051 0.04555038135
0.1541024031 -0.009390788688 0.04546644879
0.1533099858 -0.007112615551 0.04542075814
0.1566583405 -0.005433406244 0.0441718107
0.1558779168 -0.006911960807 0.0441240464
0.1562193042 -0.005430189881 0.04387583076
0.1559618564 -0.005043388735 0.04440019393
0.1554653407 -0.008486475937 0.04416690722
0.1548261688 -0.005740659083 0.04448311842
0.1543923467 -0.01011039211 0.04439953344
0.153547395 -0.006298237457 0.04458626201
0.1534227933 -0.01008647745 0.04441797141
0.1526719406 -0.008653768387 0.04457745943
0.1517936362 -0.007692110856 0.04439934841
0.1521393367 -0.006893757884 0.04452817911
0.1543449662 -0.009079177954 0.04304752299
0.1539648278 -0.006998990766 0.04351118448
0.1534851976 -0.009725537027 0.04261009753
0.1529918171 -0.006793935937 0.04367507268
0.1527034991 -0.0098251055 0.04241589472
0.1525941703 -0.009635649778 0.04345369653
0.1517273576 -0.007056067274 0.04377063955
0.150790768 -0.008369175637 0.04314331918
0.1510171576 -0.007660473505 0.04335149301
0.1530277656 -0.008761928149 0.04216110671
0.1518686702 -0.00753829073 0.042634455
0.1515842754 -0.009447051464 0.04236414758
0.1505546304 -0.007530990411 0.04205786457
0.1499431004 -0.007831615926 0.04205545029
0.1501674194 -0.008763793056 0.04241777139
0.1523899586 -0.009489439907 0.04101993818
0.1520073428 -0.008471220427 0.0409499578
0.1518408966 -0.01033608111 0.04101288922
0.1509813497 -0.007505504192 0.04120086978
0.1507340595 -0.009936377207 0.04132073636
0.1492622574 -0.009769765939 0.04117174546
0.1488874042 -0.008779231739 0.04153544159
0.1520021806 -0.01052378266 0.03944605091
0.1503666374 -0.007053480585 0.03803786598
0.1507236671 -0.01129168716 0.040354623
0.1485629985 -0.00758709815 0.03968396945
0.1485342332 -0.009571003767 0.04060732437
0.148079892 -0.008599703102 0.04016941214
0.1514817137 -0.01154851304 0.03930457234
0.150162105 -0.01258281552 0.0385533247
0.1493496663 -0.01143160365 0.03900662408
0.1490287786 -0.006744912856 0.0375514221
0.1480806715 -0.0093059937 0.03971922204
0.1507328539 -0.0121361179 0.03672698455
0.1515157599 -0.007921423056 0.03719021986
0.1503681269 -0.01269680816 0.03785089033
0.1484180245 -0.01045159447 0.03749438998
0.1479945743 -0.007629514911 0.03680638206
0.1517246159 -0.00965519542 0.03674503268
0.1478007568 -0.01312593215 0.0358887658
0.1481152847 -0.006885138838 0.03695453734
0.1473538673 -0.01209004383 0.03557029149
0.1481292378 -0.009411287931 0.03514276731
0.1513403784 -0.008062612108 0.03544736705
0.1510683207 -0.01028261765 0.035272084
0.1504102192 -0.006943551847 0.03578511468
0.1502181923 -0.01289583356 0.03467776953
0.148678679 -0.006069146518 0.03585987311
0.1488066135 -0.01372390854 0.03557079611
0.1471662557 -0.006067278952 0.03544743879
0.1473348431 -0.007288205118 0.03584145428
0.1511808325 -0.01053575425 0.03314418611
0.1504502824 -0.006557193108 0.03376242938
0.1486396987 -0.006076969293 0.0342308467
0.14781761 -0.01451163134 0.03467783255
0.1469844861 -0.005896427489 0.03456184887
0.1476652283 -0.009481523775 0.03455259661
0.1464828342 -0.006715881606 0.03495545801
0.1519746013 -0.008843025437 0.03083371394
0.1510538145 -0.007326878648 0.03312442108
0.1502530489 -0.01442951632 0.03400464225
0.1486820707 -0.01474436925 0.03444878809
0.1472772338 -0.01385715274 0.034419036
0.146371993 -0.01016121961 0.03276868986
0.1455899973 -0.007691488645 0.03373385744
0.1455094189 -0.006318123452 0.03324215401
0.1442936363 -0.006688540997 0.03226002836
0.1513026881 -0.007317641293 0.03075247627
0.1519364316 -0.01355445912 0.03282171504
0.1500040058 -0.006441481707 0.03146735228
0.14882552 -0.006538482233 0.0303314729
0.1501912873 -0.01495906217 0.03349190886
0.1470721779 -0.01179818051 0.03321972893
0.1463041021 -0.006054196305 0.03235499929
0.1446656886 -0.0096077869 0.03055989508
0.1435199697 -0.008163365685 0.03061076702
0.153079694 -0.01475893635 0.03061119073
0.1527897506 -0.01273858404 0.03098499322
0.1523880839 -0.01563912288 0.03115348426
0.1500937294 -0.01485411312 0.0330737873
0.1500230565 -0.01409692321 0.03258472152
0.1464445469 -0.01092459109 0.03158621865
0.1445981826 -0.006015179265 0.0320066648
0.1425765629 -0.006089043115 0.03181482867
0.1430200064 -0.005892408524 0.03186389717
0.1535143214 -0.01363850407 0.02929449135
0.1527736636 -0.01228894841 0.02964494207
0.1529408534 -0.01547972501 0.02987466069
0.1522837778 -0.0106706808 0.03006995112
0.151714732 -0.008900795664 0.02970703188
0.1505457411 -0.007649009846 0.02918346516
0.1521895717 -0.01585731183 0.02983908275
0.1482150518 -0.01232606216 0.03207867554
0.1438367342 -0.005862449104 0.03101732535
0.1452194334 -0.0101561387 0.0292602987
0.141712081 -0.006572743883 0.03087252184
0.1416862386 -0.005753901121 0.0312192143
0.1536534148 -0.01386292273 0.0283954341
0.1532672954 -0.01320693679 0.02808903743
0.1532439034 -0.01485837977 0.0286127553
0.152848309 -0.0152615529 0.02787431841
0.1520174661 -0.01552214054 0.02811068914
0.1492216249 -0.007889380503 0.02842612392
0.1510933774 -0.0147310353 0.02779352483
0.1500029271 -0.01357328237 0.02765502424
0.1503339838 -0.01371180768 0.02980638149
0.1484081205 -0.01225657207 0.02812283256
0.1438133274 -0.006311277386 0.02963793177
0.1418989627 -0.007088131796 0.03004194923
0.1419686862 -0.006112413916 0.03046689907
0.1531663285 -0.01407731504 0.02739214255
0.1499243639 -0.009361020035 0.02767921812
0.149216532 -0.009669713215 0.0273100717
0.1443635347 -0.007081839761 0.02849320021
0.1447559623 -0.009391174407 0.02805119904
0.1425566158 -0.007146295674 0.02916355831
0.1528263818 -0.01421850411 0.02692937495
0.1521156684 -0.01491634727 0.02681293488
0.1521340127 -0.01521654524 0.02705042135
0.1514805901 -0.0149654153 0.02722409746
0.15089121 -0.01443637401 0.02747963597
0.1480042613 -0.01030379084 0.02621928246
0.1469659035 -0.008731518658 0.02720262046
0.149605846 -0.0130053744 0.02744764659
0.1479866437 -0.01175867679 0.02648572649
0.1473192818 -0.01106807994 0.02666439459
0.1452466691 -0.008536074589 0.02747488504
0.1461202199 -0.009774889349 0.02705932927
0.1477804488 -0.01055980843 0.02608541847
0.1524605773 -0.01252444838 0.02865784536
0.151570262 -0.01133142012 0.02860305924
0.1523572839 -0.01427931814 0.02687130414
0.1515404776 -0.01334191271 0.02777435581
0.1500741753 -0.01314434315 0.02720666482
0.1493896608 -0.01214461609 0.02707867901
0.1511234726 -0.01420101679 0.02718757239
0.1485452192 -0.01062336011 0.02660482297
3 1 2 3
3 1 4 0
3 5 1 3
3 133 90 122
3 4 1 5
3 7 4 5
3 14 4 6
3 85 84 77
3 9 8 1
3 2 8 11
3 147 142 148
3 11 3 2
3 0 12 9
3 3 11 13
3 14 12 4
3 3 13 5
3 55 48 49
3 13 15 5
3 14 6 16
3 7 5 15
3 17 16 6
3 84 83 76
3 18 17 7
3 15 19 7
3 18 7 19
3 10 8 9
3 142 122 141
3 10 13 11
3 12 14 20
3 12 20 9
3 9 13 10
3 21 13 9
3 22 20 14
3 15 13 21
3 16 22 14
3 22 16 24
3 23 15 21
3 24 16 25
3 84 85 86
3 16 17 25
3 23 19 15
3 19 23 26
3 17 27 25
3 27 17 18
3 18 19 26
3 27 18 28
3 26 28 18
3 101 112 92
3 29 21 20
3 21 29 30
3 23 21 30
3 25 31 24
3 30 26 23
3 25 27 31
3 26 30 28
3 28 32 27
3 34 27 33
3 156 154 148
3 35 22 24
3 35 29 22
3 36 29 35
3 35 24 37
3 30 29 36
3 24 31 37
3 38 30 36
3 39 37 31
3 30 38 32
3 39 31 34
3 34 40 39
3 33 41 34
3 40 34 41
3 42 35 37
3 73 89 90
3 43 38 36
3 37 39 44
3 39 40 44
3 45 33 32
3 51 38 43
3 40 41 46
3 45 41 33
3 45 47 41
3 46 41 47
3 37 48 42
3 49 48 44
3 44 48 37
3 32 38 51
3 97 96 105
3 45 32 51
3 40 52 50
3 40 46 52
3 47 52 46
3 53 42 48
3 53 48 55
3 27 32 33
3 50 52 56
3 120 119 107
3 4 12 0
3 58 42 53
3 58 35 42
3 35 58 54
3 9 1 0
3 49 50 59
3 50 56 59
3 57 52 47
3 45 51 60
3 56 57 62
3 45 60 57
3 56 52 57
3 79 71 78
3 58 64 63
3 63 54 58
3 64 58 53
3 65 54 63
3 54 65 43
3 66 53 68
3 43 65 67
3 6 4 7
3 68 55 59
3 43 67 51
3 153 149 152
3 59 56 61
3 67 69 51
3 61 56 62
3 137 120 138
3 112 82 92
3 57 60 70
3 63 64 79
3 63 72 65
3 66 64 53
3 67 65 73
3 74 68 59
3 67 73 75
3 50 44 40
3 57 76 62
3 75 69 67
3 57 70 76
3 70 60 77
3 69 77 60
3 79 72 63
3 71 64 66
3 68 80 66
3 68 81 80
3 74 81 68
3 74 59 82
3 82 59 61
3 34 31 27
3 76 70 84
3 84 70 77
3 85 77 75
3 73 65 72
3 76 61 62
3 78 87 79
3 66 88 71
3 80 88 66
3 72 79 89
3 72 89 73
3 91 80 81
3 82 61 92
3 76 92 61
3 83 92 76
3 75 73 93
3 94 83 84
3 28 30 32
3 93 85 75
3 94 84 95
3 84 86 95
3 96 97 88
3 88 97 71
3 98 96 88
3 20 21 9
3 98 88 80
3 80 91 98
3 129 113 127
3 11 8 10
3 99 91 81
3 100 99 74
3 74 82 100
3 73 90 93
3 100 82 112
3 68 53 55
3 83 101 92
3 94 101 83
3 85 93 102
3 1 8 2
3 74 99 81
3 102 104 86
3 104 103 86
3 106 97 105
3 78 97 106
3 78 106 108
3 109 78 108
3 107 96 98
3 54 36 35
3 109 87 78
3 110 87 109
3 89 87 110
3 89 110 90
3 91 111 98
3 111 91 99
3 139 123 140
3 123 100 124
3 93 90 113
3 101 94 114
3 113 102 93
3 103 95 86
3 113 104 102
3 115 95 103
3 104 113 116
3 116 103 104
3 115 103 116
3 117 118 105
3 96 119 117
3 105 96 117
3 105 118 106
3 119 96 107
3 107 111 120
3 98 111 107
3 121 111 123
3 90 110 122
3 99 123 111
3 60 51 69
3 100 125 124
3 112 125 100
3 125 112 126
3 112 101 126
3 59 55 49
3 101 114 126
3 127 113 90
3 114 94 128
3 95 128 94
3 115 128 95
3 116 113 129
3 100 123 99
3 115 129 128
3 129 115 116
3 7 17 6
3 117 130 118
3 119 130 117
3 119 120 130
3 155 139 140
3 120 111 121
3 131 110 109
3 110 131 122
3 131 132 122
3 127 90 133
3 126 114 134
3 128 134 114
3 134 128 135
3 135 127 133
3 127 135 129
3 128 129 135
3 136 118 130
3 130 120 136
3 137 136 120
3 75 77 69
3 121 138 120
3 138 121 139
3 89 79 87
3 139 137 138
3 137 139 155
3 139 121 123
3 132 141 122
3 123 124 140
3 47 45 57
3 124 125 143
3 143 125 126
3 126 144 143
3 126 145 144
3 122 142 133
3 102 86 85
3 147 145 126
3 126 134 147
3 146 147 134
3 135 146 134
3 135 133 146
3 142 141 148
3 144 145 148
3 147 148 145
3 146 142 147
3 29 20 22
3 50 49 44
3 118 149 106
3 106 149 108
3 108 149 150
3 79 64 71
3 71 97 78
3 133 142 146
3 108 150 109
3 109 150 131
3 118 151 149
3 152 149 151
3 150 149 153
3 154 131 150
3 131 154 132
3 136 151 118
3 151 136 137
3 155 151 137
3 152 151 155
3 153 152 155
3 43 36 54
3 150 153 154
3 132 156 141
3 155 140 153
3 156 132 154
3 140 124 153
3 143 153 124
3 143 154 153
3 156 148 141
3 144 154 143
3 148 154 144
