ply
format ascii 1.0
element vertex 333
property double x
property double y
property double z
element face 662
property list uchar int vertex_indices
end_header
0.1449977029 -0.02382747162 0.07423086188
0.1456427276 -0.02309325265 0.07406951371
0.145362173 -0.0221323294 0.07410399388
0.1445996639 -0.02141220248 0.07403035867
0.144076472 -0.02392842957 0.07414551642
0.1436863289 -0.0223627587 0.07438390247
0.1424947662 -0.02113488414 0.07374251853
0.1454825263 0.02044711009 0.07739828255
0.1459541531 0.01956832063 0.07745918231
0.1453929029 0.0187413468 0.07739978672
0.1445301869 0.0184195206 0.07694520082
0.1447278903 0.02070847639 0.0769668651
0.1292166053 -0.01377658405 0.0681712516
0.1290486357 -0.01406994327 0.06777172712
0.1439445276 0.01948314765 0.07691185424
0.1284225712 -0.01319865453 0.06736100701
0.142905588 0.01897653137 0.075702334
0.1459726424 -0.02336345381 0.0729794481
0.1448070845 -0.0211462154 0.07286936745
0.1307202789 0.01359060104 0.06845563377
0.1306943993 0.01394141115 0.06804375625
0.1298932159 0.01316557998 0.0675412813
0.1435380304 -0.02426930061 0.07250347047
0.1414840995 -0.0221869538 0.07385206242
0.1464414975 0.01967711146 0.0763844214
0.1390812625 -0.02141365695 0.07343732453
0.1448481653 0.01813504786 0.07593497448
0.1377308677 -0.02056649171 0.07270300899
0.1397505987 -0.02012863965 0.07360079443
0.1445664442 0.0209131636 0.07528632395
0.1424312894 0.01984393956 0.07543726171
0.141079651 0.01957099234 0.07452934043
0.1403707236 0.01909130936 0.07377087633
0.1412562337 0.01883816516 0.07465024231
0.1296201239 -0.0134670899 0.06655867017
0.1291727535 -0.01250722295 0.06750267874
0.1313540763 0.01312677261 0.06738596762
0.1305703841 0.01222489037 0.06800368182
0.1274836741 -0.01033295836 0.06677882367
0.1284853572 0.01022049059 0.06708103611
0.127906791 -0.01218913142 0.06738661835
0.1291585508 0.01219866953 0.06758021956
0.1280551957 0.01060485705 0.06670082189
0.1270472895 -0.01060087577 0.06647098735
0.1265678847 -0.008955473434 0.06654528812
0.1247178246 -0.002486511285 0.0665633074
0.1260211028 -0.009689281199 0.0660964333
0.1272879089 0.008845901602 0.06661357436
0.1246344383 0.002172570674 0.06636605007
0.1464210188 -0.02310205218 0.07189896021
0.1447402265 -0.02459980222 0.07186019912
0.14306527 -0.0204913857 0.07226048391
0.1269092564 0.009677948219 0.06614048926
0.1381405688 -0.02172420406 0.07193560611
0.1379166514 -0.01850009364 0.07040859368
0.1466862462 0.0192865209 0.07533331226
0.1456566084 0.02088917055 0.07504285897
0.1372706946 -0.02102218027 0.07097206108
0.1371359257 -0.019800871 0.07055929137
0.1434097175 0.01834443542 0.07482333401
0.1408272024 0.01973036724 0.07354206873
0.129743859 -0.01242398196 0.0666453078
0.1291019833 -0.01361886059 0.06652102167
0.1403567335 0.01803660721 0.07233105141
0.1403299599 0.01940708034 0.07274907326
0.1400996078 0.01873558172 0.07236781216
0.1286043621 -0.01323806218 0.0654670097
0.1282924128 -0.01022905582 0.06652348362
0.1312779136 0.01197279837 0.06745636939
0.1308270397 0.01345308333 0.06712950444
0.1262165728 -0.001971782658 0.06644250458
0.1304074479 0.01324660507 0.0660650143
0.12935329 0.009948634996 0.06694819631
0.126132588 0.001479482338 0.06640292063
0.1264709047 -0.006782689149 0.06656186757
0.1269342754 0.006545307984 0.06656896891
0.1247560914 -0.008317340561 0.06574939479
0.1255628215 0.008225922969 0.06550449255
0.1462874247 0.01868292893 0.07528472764
0.1453675775 0.01831862145 0.07407445722
0.1438776378 0.01814253346 0.07345705306
0.1418673817 0.0181867677 0.072586035
0.1461957529 -0.02234694425 0.07183802122
0.1453293652 -0.02166169077 0.07053041156
0.1434091953 -0.0204808552 0.07011991912
0.1405438244 0.01775027999 0.07177926118
0.1404348897 -0.0190593227 0.07000461558
0.1399631092 0.01898884797 0.071917358
0.1395402794 0.01813218803 0.07143991281
0.1354375056 0.01521531097 0.06929983701
0.1351766806 0.01436055693 0.06923121904
0.1381653914 -0.01798138625 0.06941908818
0.1338642028 0.01474186949 0.06837348374
0.133647429 0.01307081889 0.06794672492
0.136764526 -0.02015284832 0.06982384714
0.1320386271 0.01357167064 0.06739639393
0.1314831397 0.01377687118 0.06676996217
0.1364399847 -0.01853796759 0.06915477377
0.1322153587 0.01245380696 0.06744412762
0.1327763138 -0.01616783982 0.06660571907
0.1327371472 -0.01541854832 0.06666153306
0.1314802992 -0.01550795851 0.06644115988
0.1316105423 -0.01391636054 0.06625831599
0.1274989523 0.002387762486 0.06577867329
0.1300684169 -0.01401423988 0.06630410176
0.1294539945 -0.0139910455 0.06590170851
0.1304256501 -0.0130875142 0.06630257707
0.127525255 0.005155212867 0.06617547351
0.1277796257 0.004212854494 0.06593411548
0.127551249 0.0003778394277 0.06572806122
0.1290348031 0.006865517879 0.06570928992
0.1274023019 -0.003007504018 0.06575399789
0.1285090692 0.01152475399 0.06598637647
0.1251457904 0.006520086629 0.0660826622
0.1271560876 -0.005546323694 0.06613149314
0.123361788 0.005885291065 0.06231177509
0.1275065818 -0.004705059564 0.06586592831
0.1275733096 -0.001061289788 0.0657141482
0.1283217807 -0.007282662308 0.06546548685
0.1272866287 -0.01137461863 0.06573167776
0.1246641524 -0.006638326078 0.06631278204
0.1465260603 0.01968505685 0.07415252019
0.1462313349 0.02052057516 0.0748204091
0.1225462285 -0.00610840011 0.06315193232
0.1461526493 -0.02371438649 0.07056627191
0.1426486828 0.02022841953 0.07239507626
0.1399057885 0.01741574574 0.07117250735
0.1455186375 -0.02439921858 0.07146522435
0.1403224545 -0.02311498391 0.06882503643
0.1385295875 0.01645845413 0.07013066875
0.1385496307 0.01808272308 0.07042058758
0.1370357843 -0.01754546859 0.06860117663
0.136502733 0.018253407 0.06884280852
0.1360781764 0.01659872464 0.06922866506
0.1369087734 0.01511511898 0.06924708398
0.1352736756 -0.01696621059 0.06717480373
0.1351652711 -0.01845926476 0.06774424007
0.1332032015 -0.01856526198 0.06628584315
0.1356155452 0.01753878189 0.06835881298
0.1345353672 0.01261922388 0.06757848623
0.1330736007 -0.01728387182 0.06646311251
0.1338358807 -0.01622369346 0.06614929858
0.1315791705 0.01003619482 0.0665560591
0.130052653 0.008460058377 0.06595764016
0.1283794355 0.00830389544 0.06646474963
0.1324226742 -0.01799061984 0.06600936539
0.1282019122 0.004228955942 0.06547936261
0.1322858437 -0.0137059709 0.06570043821
0.1302668626 -0.0106732422 0.0657667169
0.1290845384 -0.008895353796 0.0654955029
0.1276231523 -0.008559133758 0.06627358151
0.1278268864 -0.004781553153 0.06538528447
0.1231985688 0.003356968124 0.06537428928
0.1231986841 -0.003525711541 0.06575246512
0.1226756406 0.004819473311 0.06307337211
0.1221547191 0.0006246987959 0.06430529946
0.1222577074 -0.005025791653 0.06385757279
0.1222367338 -0.001086863311 0.06443561482
0.1450377905 -0.02390574775 0.0687961692
0.145556125 0.01967205712 0.07286204204
0.1449696435 0.02079508591 0.07308251822
0.1436969997 -0.02491710692 0.06929240162
0.1437804631 0.02071868445 0.07279565031
0.1420790787 0.01978331863 0.07136092218
0.141853125 -0.02439829725 0.0689968414
0.1406379264 0.01742711391 0.07068642983
0.139518177 -0.0219853014 0.06768329505
0.1394459681 0.01893065073 0.07058593418
0.1390858265 0.01911387267 0.06897059637
0.1378977645 -0.01773799029 0.06781019109
0.1390363941 0.01560768942 0.06915534433
0.1360502353 -0.01962407154 0.06790254471
0.1354230244 -0.01959208429 0.06617232167
0.1373214724 0.01437186291 0.06815805905
0.1354915292 -0.01647391807 0.06616742873
0.1339420942 -0.01571959954 0.06533495991
0.1354727778 0.01781399879 0.06582291483
0.1348050655 0.01195861783 0.06574693092
0.1318365289 -0.01812534204 0.06418157093
0.1297752659 0.006667149874 0.06408860762
0.128870288 0.005353062185 0.06457028765
0.132413581 -0.01289296056 0.06425971738
0.1275362032 0.001187396276 0.06392007516
0.1266077494 0.009569423572 0.06328074664
0.1289022342 -0.007176384432 0.06382236317
0.1281253274 -0.005946253237 0.06447711172
0.1269176146 -0.002297089134 0.06403713218
0.1252339871 -0.009668703964 0.06364400288
0.1445807886 0.02007842396 0.07232626856
0.1433115479 -0.02391364633 0.06801553927
0.1411140393 -0.02040822386 0.06789037727
0.142653159 0.01876445632 0.07172507793
0.1428547576 0.01928791104 0.07167506196
0.1420362257 0.01920708964 0.07048488854
0.14165927 0.01964852729 0.07072208455
0.1419086969 0.01863281149 0.0705092703
0.1411015429 0.01794170428 0.06996703341
0.1400981434 0.01914841592 0.0696611747
0.1411022385 -0.0214163882 0.06763881087
0.1395243723 -0.02083242872 0.06653450068
0.1388127796 -0.02144127104 0.06706971235
0.1387006368 0.01483145525 0.06754232854
0.139638077 -0.01981912683 0.06676063223
0.1382627098 -0.01849710799 0.0667530273
0.1365970152 -0.01987963203 0.0666170355
0.134794362 -0.01607480322 0.06486633113
0.1343660942 0.01662633978 0.0645762533
0.1314563564 0.01355939318 0.06220850463
0.1282826854 0.0112107906 0.06236107245
0.1308017709 -0.01694544376 0.06341112869
0.1285819636 -0.01348578462 0.0617440587
0.1264433387 -0.01105834077 0.0625797619
0.1223368486 0.003422955673 0.06207303774
0.1410301783 0.01871860741 0.0696415322
0.1403327684 0.01875980086 0.06891597318
0.1402504314 0.01747348616 0.0676089937
0.1398357356 0.01866742194 0.06730514597
0.1397894521 0.01654743757 0.06720492929
0.1386595776 0.01833762307 0.06641142399
0.1384220616 0.01481209571 0.06586576505
0.1221421069 -0.003830878288 0.06297599588
0.1356689701 0.01727517727 0.06455068844
0.1341210049 0.01602519908 0.06341557022
0.1330178842 0.010288583 0.06372927267
0.1319714513 0.008945965136 0.06394063569
0.1379216823 -0.01949371957 0.06627150743
0.1280511158 0.002665414483 0.06189547182
0.1277296083 0.000998153557 0.06209033131
0.1367301853 -0.01929077114 0.0658527601
0.1234763304 0.004592767677 0.05970121866
0.1362225037 -0.01807424893 0.06487188631
0.1358399767 -0.01904130875 0.0646290745
0.1388019811 0.0159628562 0.06573489406
0.1356442736 -0.01737302251 0.06461097477
0.1346391626 -0.01862877365 0.0641034344
0.134330757 -0.01591874007 0.06379698325
0.1371145448 0.01371521621 0.06503365348
0.1384496077 0.01759501375 0.06576032827
0.131886453 -0.01769873145 0.06320380524
0.1365555649 0.01571877802 0.06392183372
0.1350509819 0.01578772841 0.06328665326
0.1305260788 -0.01631385224 0.0624354171
0.1310846214 -0.01082554335 0.06295363366
0.1336271421 0.01218156466 0.0624032521
0.1303832478 -0.009501681381 0.06335910434
0.1267518518 -0.004024569695 0.06189416336
0.1267708826 -0.002472589022 0.06220885935
0.1297322003 0.01167516187 0.06071886919
0.1274675858 0.009107405158 0.06100501064
0.1268137862 0.0005379067354 0.06059280386
0.1227439351 -0.00517281043 0.06088318711
0.1353663332 0.01407502236 0.06248577466
0.1327660577 0.01354932717 0.06163724464
0.1324632174 0.01180115353 0.06108157787
0.1345151573 -0.01682424432 0.06367412181
0.1335782149 -0.0147662782 0.06334849523
0.134327541 -0.01805677192 0.06366472911
0.1327887304 -0.01635822364 0.06266251494
0.1313862192 0.008310595128 0.06198851034
0.1313962596 -0.01622335187 0.06226901944
0.1294959201 0.005734944307 0.061009036
0.1283115635 0.003484915703 0.06069211536
0.1309701268 -0.01250634063 0.06162353013
0.1246776513 0.004327404869 0.05885291303
0.1273651285 -0.01151230867 0.0610217311
0.1308864585 0.01109347296 0.05998621757
0.131095456 0.009598044383 0.06022501714
0.1301582978 0.01114639648 0.05993525638
0.1312825278 0.01268895663 0.06082119685
0.1257733528 -0.009485019983 0.06156061091
0.1297853728 0.008074432719 0.05963819954
0.1288038928 0.005995115687 0.05969310042
0.1296252579 0.009019725451 0.05948541693
0.1262989973 -0.002124936411 0.06088191207
0.1287480574 0.008706639143 0.05956044019
0.1320506062 -0.01448753574 0.06146598509
0.1273788159 0.007197256038 0.05933091008
0.1273376645 0.002171797603 0.05994563742
0.1297343715 -0.01359195511 0.06101957671
0.1261215695 0.005394367958 0.05850733953
0.1297146722 -0.01197592024 0.06088368454
0.1296305255 -0.008836433108 0.06181502286
0.1277578559 -0.006776175109 0.06126143547
0.1276669583 0.00650990988 0.05909429765
0.1269060159 -0.004899652202 0.06082400206
0.1236107965 -0.005245685151 0.05987383329
0.1271266468 0.005208672064 0.05864115461
0.1270901001 0.003756929493 0.05896010896
0.1259624147 0.001871283383 0.05908617678
0.1252721958 -0.0001269678967 0.05985525663
0.1283007988 -0.01111032847 0.0602894909
0.1250012412 0.002389677995 0.05886633332
0.1287843719 -0.00988795787 0.06051275067
0.1277059783 -0.01108235657 0.06034633983
0.1284562287 -0.01263938006 0.06071703481
0.1276695389 -0.008665360161 0.06034024386
0.1269591366 -0.007151072837 0.06017211713
0.1256581477 0.002652936303 0.0587075155
0.1274321227 -0.009400565199 0.06023295965
0.1267539395 -0.009187089172 0.06035556531
0.1257246518 -0.008024441074 0.06001131662
0.1250372547 0.0004879650717 0.05952742014
0.1245177488 0.0001663587504 0.05979701712
0.1246924789 -0.0005765511743 0.05994144445
0.1263104681 -0.00377166548 0.0603787572
0.1246993782 -0.006404037805 0.05926758134
0.1260197865 -0.007509264902 0.05972388605
0.1256813756 -0.006412965974 0.05920277041
0.1258877207 -0.005151396267 0.05947206886
0.1252492036 -0.003344777349 0.05982141415
0.1251361171 -0.001198385092 0.06008815094
0.1242836465 -0.00366439164 0.05984992072
0.1247931097 -0.004028740723 0.05959290258
0.1247400322 -0.00179525783 0.06001862307
0.1243654971 -0.001321659852 0.0601678536
0.1273243808 -0.0007593706822 0.06216522636
0.1240720949 -0.0004790644329 0.06163076371
0.1261108107 -0.0002660435466 0.06636089376
0.1273472274 -0.0003515154752 0.0656824566
0.1221793412 -0.000281457285 0.06353455167
0.126999889 -0.0005513875611 0.06407966231
0.1267537296 -0.000788683603 0.06111688039
0.1254955905 -0.0006759321751 0.06024866435
0.1260962116 -0.0007477549851 0.0606375966
0.1254398439 -0.0002284763446 0.06648716936
0.125230659 -0.0006441418997 0.06003963213
0.1234330406 -0.0001632247135 0.06582848031
0.1244851074 -0.0005486029041 0.06007673254
0.1253197191 -0.0002207058158 0.06649692515
0.1241846899 -0.0001715470895 0.06619645037
0.1225823173 -0.0002192371763 0.06480585061
0.1248133419 -0.0001894933174 0.06647869736
0.1222224419 -0.0002316801377 0.06436726791
3 166 198 128
3 82 83 18
3 109 73 317
3 117 318 317
3 229 183 279
3 10 9 14
3 13 12 15
3 64 32 60
3 78 26 79
3 305 250 285
3 105 104 34
3 41 19 21
3 236 177 251
3 123 46 76
3 8 24 7
3 181 147 255
3 26 10 59
3 73 107 48
3 190 189 198
3 185 184 245
3 233 256 254
3 151 116 114
3 105 178 145
3 99 145 140
3 78 9 26
3 308 304 296
3 204 225 199
3 28 25 23
3 16 33 59
3 52 77 113
3 157 220 156
3 24 55 122
3 26 80 79
3 47 113 48
3 63 32 65
3 210 209 66
3 43 38 46
3 284 304 273
3 53 128 164
3 68 36 19
3 36 69 20
3 141 140 135
3 186 318 117
3 301 289 302
3 81 85 165
3 75 48 107
3 118 74 150
3 42 52 39
3 141 100 99
3 278 275 241
3 253 223 266
3 64 197 167
3 133 129 130
3 86 169 91
3 105 34 62
3 310 309 313
3 108 73 103
3 129 134 170
3 80 26 59
3 39 41 42
3 87 65 64
3 90 89 92
3 86 51 84
3 238 178 209
3 96 36 95
3 96 69 36
3 236 173 139
3 174 135 131
3 71 69 96
3 71 21 69
3 23 25 53
3 189 128 198
3 127 17 50
3 41 112 42
3 221 222 206
3 171 137 172
3 100 141 147
3 205 230 233
3 121 122 55
3 255 147 175
3 160 29 56
3 95 36 68
3 200 166 128
3 125 64 60
3 257 254 256
3 256 238 257
3 87 64 167
3 126 85 63
3 88 129 126
3 88 87 130
3 130 129 88
3 255 275 181
3 250 311 285
3 306 296 295
3 61 106 148
3 133 89 134
3 100 101 99
3 201 170 173
3 89 133 138
3 93 139 90
3 213 193 195
3 104 61 34
3 141 174 175
3 107 146 110
3 146 107 108
3 252 222 251
3 237 218 217
3 163 125 192
3 296 307 308
3 30 33 16
3 10 26 9
3 259 238 241
3 212 319 155
3 191 192 188
3 70 45 114
3 74 114 45
3 295 296 282
3 195 196 213
3 74 45 44
3 142 144 143
3 62 13 15
3 188 192 125
3 126 170 165
3 170 126 129
3 46 44 120
3 231 234 230
3 134 173 170
3 7 9 8
3 130 132 133
3 180 110 146
3 181 102 147
3 3 5 2
3 188 160 159
3 101 104 105
3 125 162 188
3 3 6 5
3 229 115 183
3 194 163 193
3 194 197 125
3 119 15 40
3 309 304 308
3 280 292 242
3 291 263 279
3 46 120 76
3 183 208 248
3 68 39 72
3 57 53 27
3 202 225 203
3 109 103 73
3 68 142 98
3 284 273 245
3 85 81 33
3 119 46 187
3 193 197 194
3 197 193 213
3 213 214 197
3 5 6 23
3 158 189 190
3 169 86 202
3 5 23 4
3 207 71 206
3 235 254 255
3 82 18 2
3 211 119 187
3 78 24 9
3 211 210 119
3 152 113 77
3 238 209 241
3 150 38 67
3 96 206 71
3 136 140 137
3 179 258 224
3 239 232 236
3 258 260 270
3 61 67 38
3 204 128 57
3 225 204 228
3 237 221 218
3 290 280 294
3 215 196 201
3 81 80 59
3 262 278 280
3 260 179 226
3 111 116 151
3 191 195 193
3 311 305 285
3 106 181 148
3 282 245 184
3 44 45 120
3 131 169 174
3 185 151 118
3 102 106 101
3 307 300 305
3 296 306 307
3 92 93 90
3 58 97 94
3 243 253 252
3 252 253 268
3 284 245 282
3 248 274 276
3 274 267 272
3 130 87 167
3 272 265 266
3 19 37 68
3 47 144 39
3 181 242 148
3 181 262 242
3 219 236 232
3 265 272 267
3 317 73 324
3 283 270 271
3 271 286 283
3 299 295 298
3 286 279 276
3 186 117 111
3 290 293 298
3 257 255 254
3 82 49 124
3 120 45 153
3 152 77 154
3 293 264 269
3 257 275 255
3 34 13 62
3 303 289 325
3 61 104 106
3 291 297 301
3 266 270 272
3 92 96 95
3 256 234 238
3 279 183 248
3 279 263 229
3 2 5 0
3 155 152 154
3 182 109 318
3 78 79 121
3 65 87 88
3 141 175 147
3 112 71 207
3 9 7 14
3 157 156 153
3 251 177 243
3 218 215 217
3 283 286 276
3 0 4 50
3 144 68 72
3 142 68 144
3 50 4 22
3 251 240 239
3 91 169 131
3 112 41 21
3 112 21 71
3 33 30 31
3 239 237 232
3 185 118 184
3 247 208 268
3 208 207 268
3 122 56 24
3 96 138 176
3 184 244 281
3 22 4 23
3 138 96 92
3 142 224 223
3 180 179 110
3 20 19 36
3 248 267 274
3 267 248 247
3 68 37 39
3 168 197 214
3 3 2 18
3 81 195 191
3 165 195 81
3 176 218 221
3 261 226 249
3 79 191 159
3 172 228 204
3 241 275 259
3 257 238 259
3 144 72 39
3 78 121 55
3 197 64 125
3 287 288 297
3 297 288 301
3 63 33 32
3 88 126 63
3 265 268 253
3 60 30 29
3 205 235 175
3 218 176 216
3 229 212 115
3 115 212 154
3 114 118 151
3 132 130 167
3 176 138 132
3 177 236 139
3 97 54 131
3 17 2 1
3 97 136 94
3 227 249 226
3 17 127 49
3 145 99 101
3 299 298 293
3 294 278 210
3 316 229 291
3 292 298 295
3 94 171 57
3 293 294 264
3 187 269 211
3 118 150 149
3 39 19 41
3 110 143 144
3 296 284 282
3 10 14 16
3 136 97 135
3 121 160 122
3 93 92 98
3 98 177 93
3 331 48 329
3 38 43 40
3 228 172 231
3 235 205 254
3 22 53 164
3 114 116 70
3 138 133 132
3 184 281 282
3 164 161 22
3 6 51 28
3 177 139 93
3 332 330 155
3 29 30 11
3 103 146 108
3 110 144 75
3 190 199 202
3 290 294 293
3 54 27 28
3 271 287 286
3 52 42 112
3 90 139 134
3 292 280 290
3 226 182 227
3 182 320 227
3 201 232 217
3 267 247 268
3 283 274 270
3 86 28 51
3 80 81 191
3 82 124 83
3 292 295 281
3 300 269 305
3 128 189 164
3 287 297 286
3 195 165 196
3 208 247 248
3 121 79 159
3 159 160 121
3 85 126 165
3 191 193 192
3 14 7 11
3 227 320 315
3 144 47 75
3 230 205 203
3 161 50 22
3 110 75 107
3 75 47 48
3 84 51 18
3 178 231 172
3 98 142 177
3 275 262 181
3 66 105 62
3 153 76 120
3 86 190 202
3 20 21 19
3 262 280 242
3 167 168 132
3 225 230 203
3 314 313 311
3 278 294 280
3 69 21 20
3 274 283 276
3 179 224 143
3 134 139 173
3 194 125 163
3 217 232 237
3 221 206 176
3 18 51 3
3 38 44 46
3 83 158 190
3 91 54 28
3 214 216 168
3 274 272 270
3 115 77 52
3 112 183 52
3 289 301 288
3 183 115 52
3 208 183 112
3 208 112 207
3 167 197 168
3 123 76 156
3 23 6 28
3 261 277 271
3 185 111 151
3 153 156 76
3 299 300 306
3 155 154 212
3 56 29 11
3 137 171 136
3 24 8 9
3 64 65 32
3 201 196 165
3 201 165 170
3 105 209 178
3 200 128 204
3 56 122 160
3 140 141 99
3 14 30 16
3 261 249 277
3 84 190 86
3 12 61 35
3 250 305 187
3 211 294 210
3 275 257 259
3 230 228 231
3 124 127 161
3 312 313 309
3 244 149 148
3 180 226 179
3 201 217 215
3 159 191 188
3 177 223 243
3 134 89 90
3 207 206 222
3 308 312 309
3 179 143 110
3 256 233 234
3 38 40 12
3 224 142 143
3 113 152 48
3 269 300 299
3 173 236 219
3 213 215 214
3 134 129 133
3 219 232 201
3 182 103 109
3 177 142 223
3 115 154 77
3 201 173 219
3 215 216 214
3 54 58 27
3 250 123 220
3 32 31 60
3 24 56 7
3 1 0 17
3 210 241 209
3 55 24 78
3 145 101 105
3 213 196 215
3 297 291 279
3 191 79 80
3 68 98 95
3 148 242 244
3 61 38 35
3 252 207 222
3 189 158 161
3 179 260 258
3 266 258 270
3 298 292 290
3 258 266 224
3 270 260 271
3 266 223 224
3 95 98 92
3 251 243 252
3 239 240 221
3 216 215 218
3 101 100 102
3 136 171 94
3 237 239 221
3 240 222 221
3 17 0 50
3 184 118 149
3 234 233 230
3 178 137 145
3 305 269 187
3 176 132 168
3 14 11 30
3 85 33 63
3 328 48 331
3 138 92 89
3 81 59 33
3 104 101 106
3 94 57 58
3 119 210 66
3 160 188 162
3 261 260 226
3 128 53 57
3 205 174 169
3 65 88 63
3 39 37 19
3 66 62 15
3 150 74 44
3 40 43 119
3 116 111 70
3 131 54 91
3 288 287 277
3 287 271 277
3 7 56 11
3 50 161 127
3 286 297 279
3 281 295 282
3 52 113 47
3 211 269 264
3 302 291 301
3 27 25 28
3 265 267 268
3 276 279 248
3 106 102 181
3 310 325 322
3 222 240 251
3 246 245 273
3 266 265 253
3 243 223 253
3 315 249 227
3 225 228 230
3 288 249 289
3 105 66 209
3 205 233 254
3 271 260 261
3 32 33 31
3 312 305 311
3 307 305 312
3 311 313 312
3 16 59 10
3 29 162 60
3 162 29 160
3 60 162 125
3 192 193 163
3 39 52 47
3 53 22 23
3 182 180 103
3 180 146 103
3 182 226 180
3 269 299 293
3 187 46 123
3 96 176 206
3 277 249 288
3 176 168 216
3 107 73 108
3 205 169 203
3 58 54 97
3 0 1 2
3 306 295 299
3 184 149 244
3 229 263 291
3 97 131 135
3 30 60 31
3 239 236 251
3 124 49 127
3 225 202 199
3 313 314 310
3 38 12 35
3 309 310 273
3 82 2 17
3 268 207 252
3 57 27 58
3 91 28 86
3 57 171 204
3 44 38 150
3 198 166 199
3 190 198 199
3 6 3 51
3 124 158 83
3 281 244 292
3 308 307 312
3 175 235 255
3 117 70 111
3 292 244 242
3 200 199 166
3 18 83 84
3 310 322 273
3 119 66 15
3 284 296 304
3 49 82 17
3 212 229 316
3 171 172 204
3 245 246 186
3 27 53 25
3 190 84 83
3 316 302 327
3 234 231 178
3 302 289 303
3 61 12 34
3 5 4 0
3 46 119 43
3 140 136 135
3 326 330 153
3 199 200 204
3 70 324 45
3 275 278 262
3 150 67 61
3 123 156 220
3 202 203 169
3 148 149 150
3 304 309 273
3 278 241 210
3 319 212 316
3 186 111 185
3 13 34 12
3 118 114 74
3 182 318 320
3 205 175 174
3 158 124 161
3 291 302 316
3 135 174 141
3 306 300 307
3 178 172 137
3 161 164 189
3 145 137 140
3 102 100 147
3 109 317 318
3 148 150 61
3 264 294 211
3 40 15 12
3 178 238 234
3 250 187 123
3 152 155 330
3 326 153 329
3 289 249 322
3 73 48 324
3 117 317 70
3 152 326 329
3 48 152 329
3 326 152 330
3 302 303 327
3 186 185 245
3 48 328 324
3 249 323 322
3 289 322 325
3 273 323 321
3 155 319 332
3 249 321 323
3 249 315 321
3 246 315 320
3 153 45 329
3 317 324 70
3 186 246 320
3 303 325 310
3 332 157 330
3 319 316 220
3 220 316 250
3 315 246 273
3 314 303 310
3 316 327 314
3 157 332 319
3 220 157 319
3 331 329 45
3 316 311 250
3 328 331 45
3 311 316 314
3 324 328 45
3 273 321 315
3 314 327 303
3 330 157 153
3 186 320 318
3 322 323 273
