ply
format ascii 1.0
element vertex 333
property double x
property double y
property double z
element face 662
property list uchar int vertex_indices
end_header
0.1259534783 -0.01923195092 0.07597431969
0.1267697425 -0.01843122489 0.07598954535
0.1264010774 -0.01736626066 0.07614048979
0.125471033 -0.01666308759 0.07591133636
0.1249765986 -0.01921454822 0.07574292119
0.1244697304 -0.01765576204 0.07597452037
0.1230270592 -0.01666475208 0.0748555115
0.1235045294 0.02072284002 0.07536290901
0.1242535172 0.0199036448 0.07535302187
0.1238781893 0.01888368383 0.07546789638
0.1228919544 0.01824298429 0.07523482183
0.1225284689 0.02077506536 0.07509709782
0.1073101492 -0.01278510035 0.06702966479
0.1072757991 -0.01320974184 0.06678061647
0.1220301774 0.01922313344 0.07533436895
0.1066554869 -0.01267914004 0.06588370915
0.120579714 0.01837711066 0.07428683838
0.1269854256 -0.0184957748 0.07469278191
0.1255889776 -0.01628976694 0.07467378217
0.1052247529 0.01325016456 0.06695196366
0.1051682337 0.01367825537 0.06664251066
0.1046385585 0.01298478089 0.06580004509
0.1243957682 -0.01917930144 0.07396741708
0.1222043686 -0.01750219557 0.07469713954
0.1244696673 0.02002344687 0.07409428069
0.1204259369 -0.01697200515 0.07396601565
0.1230007019 0.01787401355 0.07406693717
0.1193557114 -0.01643687861 0.07322374948
0.1207128063 -0.01612481877 0.0739973093
0.1219311761 0.02075712172 0.07334993786
0.1198380948 0.01925071286 0.07412770125
0.1180870716 0.01878669755 0.07349410631
0.1170420463 0.01823106209 0.07284042309
0.1183403998 0.017975868 0.07356278897
0.1082207393 -0.01279495862 0.06565329002
0.107495623 -0.0117292327 0.06597489223
0.1062568462 0.01325678222 0.06558820065
0.1055648944 0.01213350668 0.0659569624
0.1060632561 -0.01013434698 0.0640902645
0.1044259448 0.01026953195 0.06408237955
0.1061943865 -0.01173921455 0.06541336132
0.1042702237 0.01195910707 0.06535613285
0.1039685605 0.01059780953 0.06368477315
0.1056416363 -0.01053959612 0.06372407713
0.1052563533 -0.00895402122 0.06319483233
0.1035780418 -0.002478733068 0.06245798827
0.1047898041 -0.009771346976 0.06282500918
0.1037988633 0.008979211994 0.0631959742
0.1032245944 0.002413984856 0.0625332759
0.1270526509 -0.01796230519 0.07343043322
0.1255058854 -0.01939701603 0.07339106867
0.1235059057 -0.01598727114 0.07364179688
0.1032663189 0.009699647641 0.06280266458
0.1198554682 -0.01726760433 0.07291135102
0.1188054336 -0.01549361841 0.0713125678
0.1245712456 0.0195395754 0.07291736509
0.123024682 0.02096189621 0.07280746935
0.1190206455 -0.01705339822 0.07208096892
0.1185661199 -0.01633445116 0.07156714049
0.1209744044 0.01766082977 0.07315911083
0.1175134883 0.01898815069 0.07242889784
0.1083130835 -0.01174783111 0.06531424173
0.1076572617 -0.01311212751 0.06558817026
0.1164950681 0.01714338449 0.07109700706
0.1167002333 0.01871230281 0.07163447183
0.1162466826 0.01797937871 0.0712285078
0.1074094806 -0.01330782393 0.06444921354
0.1068416128 -0.01001771289 0.0640688664
0.1064075655 0.01218029297 0.06529937031
0.1056620351 0.01353505352 0.06546318358
0.1049240924 -0.00192337989 0.06301850736
0.1054320793 0.01360742594 0.06428806572
0.1052226254 0.01023652564 0.06410361757
0.1045508213 0.001994116746 0.06313627186
0.1052214801 -0.006814083685 0.0630609411
0.1040799942 0.006898891977 0.06311637738
0.1036319778 -0.008409693726 0.06206772422
0.102362779 0.008228491024 0.06208239425
0.1242860696 0.0187733397 0.07296820507
0.1230711488 0.01799672861 0.07183246257
0.1211666535 0.01743259654 0.07145891397
0.1184983758 0.01727542454 0.07093627479
0.1267919679 -0.01716603858 0.07348639912
0.1256317783 -0.01645715623 0.07235309909
0.1236919144 -0.01585675961 0.07191955584
0.1165058396 0.01684426211 0.07035639482
0.120846314 -0.01559634525 0.07124507574
0.1159794167 0.01829218317 0.07071853242
0.1152183708 0.01737103211 0.07013927102
0.1101517761 0.01535571513 0.06781972429
0.1099082071 0.01464088909 0.0676427317
0.1188208792 -0.01526126879 0.07051381674
0.108581921 0.01484401902 0.0669314559
0.1085111659 0.01338965662 0.06617820845
0.1182914387 -0.01671718026 0.07107873453
0.1068806831 0.01374293504 0.06575101451
0.1063247209 0.01401275699 0.06520101939
0.1175251148 -0.01583858165 0.07039072777
0.1072387925 0.01274105006 0.06547368853
0.1123666063 -0.01443835677 0.06788978617
0.1120018634 -0.01372485616 0.06762327639
0.1106714688 -0.01405536774 0.06706562417
0.1105172415 -0.01268734079 0.06618293372
0.1053640301 0.003259226834 0.06274696872
0.1088835923 -0.0131995029 0.06584293712
0.1083371028 -0.01352991805 0.06536479158
0.1091700093 -0.01221649938 0.06547016171
0.1049044997 0.005818780703 0.06302130036
0.1053463296 0.005044400347 0.06286116047
0.1057226042 0.0009881628197 0.06277570597
0.105463888 0.007738193753 0.06259210025
0.1058957592 -0.003096299873 0.06264538692
0.1040992323 0.0116666666 0.06333457878
0.1025568931 0.006540996076 0.06237051683
0.1058527267 -0.00565781574 0.06292451868
0.1002107043 0.006107784213 0.05922896645
0.1061498214 -0.004845776723 0.06278222143
0.105886019 -0.0007789612007 0.0627506855
0.106704817 -0.007575127951 0.06248087945
0.1058968355 -0.01164122478 0.06340322696
0.1035328413 -0.006660022266 0.06238414573
0.1240326017 0.01981150269 0.07163654115
0.1236661898 0.02066859254 0.07243442514
0.1012469647 -0.006625170889 0.05910420258
0.1265047925 -0.0182912796 0.07220553543
0.1192969868 0.0196734124 0.07063311662
0.1154336681 0.01664370786 0.06971889262
0.1261389281 -0.01911140064 0.07298181768
0.121709167 -0.01810893041 0.07117789453
0.1134464805 0.01622573998 0.06863433803
0.1138731625 0.01754032642 0.0691134278
0.1177425059 -0.01513907694 0.06984303751
0.1115424088 0.01787930299 0.0679556474
0.1109585768 0.01653839348 0.06796751205
0.1114735235 0.01544640454 0.06764446169
0.1156515507 -0.01493360525 0.06875968218
0.1161027214 -0.01610323892 0.06940337009
0.1137894268 -0.01679394625 0.06824870536
0.1104342962 0.01735317296 0.06756477257
0.1093119701 0.01317150176 0.06576270268
0.1131990524 -0.01548255067 0.06815346048
0.1136439713 -0.01439464415 0.06770607422
0.1071313966 0.01074834499 0.06405189391
0.1060456451 0.00930839848 0.06300615457
0.1047659892 0.008752745763 0.06325283229
0.1126509793 -0.01635584894 0.06780945773
0.1054369996 0.005191927726 0.06241653388
0.1112854917 -0.01245978077 0.06573184679
0.1087788227 -0.01037491704 0.06390053522
0.1075090864 -0.009120216761 0.0628938293
0.1061752245 -0.008634065369 0.06318268975
0.1062653626 -0.005018165475 0.0623617029
0.101559991 0.003247052756 0.06137649324
0.1020885943 -0.003594994383 0.06132852016
0.1001838433 0.004875320639 0.05974288848
0.1003552782 0.0006877754867 0.06002616978
0.1010337657 -0.005393768565 0.05961662467
0.1004941948 -0.001156263642 0.0600443932
0.1252338407 -0.01807342536 0.07104357914
0.1227366005 0.01953193513 0.07044878062
0.1219260208 0.02060413432 0.07085074476
0.1244056452 -0.019136897 0.07150901853
0.1205696766 0.02034684658 0.0707922806
0.1184162828 0.01918179111 0.0695437855
0.1230291839 -0.01880784891 0.07143526958
0.1161339269 0.01660586552 0.06901539475
0.1208262185 -0.01769700013 0.07001144907
0.1150353859 0.01830878147 0.06922398972
0.114183407 0.01858447257 0.06772797186
0.11846241 -0.01515815068 0.06910806373
0.1134137465 0.01566270282 0.06761625778
0.1173075389 -0.0168821766 0.06958481116
0.1164466918 -0.01733178726 0.06805269891
0.1115156342 0.01498708343 0.06664104135
0.1155530299 -0.01446138238 0.0676415441
0.1136064135 -0.01400235231 0.06662034744
0.1098552613 0.01782450682 0.06567346067
0.1094419777 0.01289131339 0.06397503049
0.1120777034 -0.01705967472 0.06598793525
0.1054243023 0.007968153417 0.06114590178
0.1050751009 0.006497215828 0.06161806625
0.1112835491 -0.01232493271 0.06394706856
0.1032803683 0.002131178379 0.06086025241
0.1025114935 0.009953169798 0.0604209346
0.1066606562 -0.007898400927 0.0610604919
0.1061198953 -0.006419732781 0.0615650116
0.1035838507 -0.002346947754 0.06082653204
0.1038552284 -0.0102190155 0.06045996929
0.1214415494 0.01975395971 0.07006251316
0.1239003982 -0.018303623 0.07064957138
0.1217009178 -0.01645287964 0.07008504682
0.1192772204 0.01800883695 0.069666182
0.1194728209 0.01863455653 0.0696431835
0.1181806776 0.01856515143 0.06845939337
0.1177569847 0.01903694114 0.06890681653
0.1180088411 0.01788851781 0.0684387567
0.116552633 0.01714330733 0.06811128721
0.1154948829 0.01852839522 0.06812041934
0.1218896762 -0.01712835422 0.07007347469
0.1205908008 -0.0171227108 0.06882002076
0.1201535124 -0.01760810881 0.06932670923
0.1126044881 0.01529207452 0.06611899706
0.1204399223 -0.01643500133 0.06876484609
0.1188992833 -0.01576785847 0.06824598473
0.1178257504 -0.01722089989 0.06842612267
0.1146603931 -0.014282935 0.06613927774
0.1087060444 0.01715282691 0.06444979609
0.1060033544 0.01511226548 0.06095312186
0.1034405867 0.01210890214 0.05985615279
0.1108499142 -0.01660010284 0.06472567234
0.107907037 -0.01504340302 0.0611596603
0.1050206771 -0.01243259239 0.05992508895
0.09961994577 0.003725769735 0.0586178115
0.1165160288 0.01800776335 0.06781717811
0.1153743695 0.01813490443 0.06730398971
0.1143932308 0.01712565068 0.06612149388
0.1141355857 0.0180671963 0.06601782178
0.1136985581 0.01650122057 0.06583655503
0.1127865245 0.01786562184 0.06555376228
0.1120474108 0.01542624669 0.06475045412
0.1002180096 -0.004323365344 0.05856258388
0.1098287075 0.01763921438 0.06452888587
0.1084241715 0.01697581831 0.06325192219
0.10773916 0.01188566688 0.06140136506
0.1069650755 0.01051090247 0.06129692173
0.11889997 -0.01667760595 0.06801503499
0.102332501 0.004173230806 0.0588156514
0.101977902 0.002245152938 0.05893227137
0.1176973642 -0.01687187886 0.06753755456
0.09969454492 0.005489168389 0.05654266971
0.1165824709 -0.01593806998 0.06631718535
0.1164174459 -0.01696163297 0.0662933592
0.1123786834 0.01626411591 0.06477232711
0.1158381718 -0.01540372524 0.06598260621
0.1150502256 -0.01691561024 0.06581497982
0.1140825433 -0.01459093615 0.06482326202
0.1110077032 0.01468676688 0.06396153919
0.1123457592 0.01740300286 0.06501656693
0.1120161875 -0.01701671288 0.06482046782
0.1103893572 0.01652617497 0.06370787049
0.1091709794 0.0167862964 0.06316554869
0.1105154116 -0.01657591667 0.06354478325
0.1094040079 -0.0116748991 0.06150322778
0.1080442629 0.0139376932 0.06083483025
0.1084752117 -0.01036210847 0.0612636294
0.1028513956 -0.004486049951 0.05877561481
0.1022793136 -0.002647853462 0.05885076407
0.1044025346 0.01329987101 0.05848017021
0.1027691488 0.01021279538 0.0582801257
0.1018138963 0.001646280407 0.0563661037
0.1004365918 -0.006074956788 0.05645537047
0.1093667111 0.01556455459 0.0618847206
0.1071837572 0.01528539104 0.06057054852
0.1069179477 0.01379235472 0.05924932995
0.1144702806 -0.01538937176 0.06493377082
0.1129468056 -0.01404312075 0.06389796675
0.1145487528 -0.01651878423 0.06525464384
0.1124334908 -0.01593409895 0.06386739955
0.1061562137 0.01009035688 0.05937304249
0.1112455583 -0.01635074323 0.06340191253
0.1042181515 0.007464693779 0.05819196732
0.1029552752 0.005189215179 0.05735016696
0.1098410915 -0.01373437634 0.06103694824
0.1002087023 0.005815765314 0.05520296219
0.1060698032 -0.01361000487 0.05854776969
0.1055253724 0.01307051621 0.05764402373
0.1058794542 0.01154839636 0.05771691196
0.1048244129 0.01300459325 0.05758161168
0.1057237852 0.01458569954 0.05910107159
0.1040483663 -0.01054013787 0.05835169385
0.1046884341 0.009851127775 0.05705155634
0.1037753839 0.007843821272 0.05659515033
0.1045254966 0.01079464045 0.05692752336
0.1020602402 -0.002067329427 0.05634648102
0.103762205 0.01037873097 0.05689307557
0.1113236779 -0.01523426054 0.06199176736
0.1025683266 0.00888156411 0.05625549228
0.1023521108 0.003714199746 0.05594181859
0.1090834759 -0.01515229614 0.06077670197
0.101362269 0.00725797696 0.05485600928
0.1086517308 -0.01370808845 0.05946218657
0.1075381802 -0.01012871522 0.05934839847
0.1052072027 -0.007633119968 0.05817779113
0.1028545635 0.008332496289 0.05584360823
0.1036244987 -0.00547031744 0.05731361733
0.1009894544 -0.006394631654 0.05513194946
0.1023934383 0.007186282874 0.05487392572
0.1024616825 0.005555860147 0.05488211366
0.1013997272 0.003353469882 0.0542350478
0.1008180854 0.0005127611458 0.05419183437
0.1071244008 -0.01325552673 0.05771694231
0.1003379006 0.003903694844 0.0541891252
0.1073123467 -0.01168466056 0.05769412023
0.1064203521 -0.01328450338 0.05762668813
0.1075225782 -0.01465853304 0.05928662201
0.1059120017 -0.01008913537 0.05703427136
0.1047629135 -0.008096293522 0.05658228055
0.1010267413 0.004289199258 0.05410977353
0.105851713 -0.01107256863 0.05689484125
0.1050352379 -0.01069924398 0.05690695097
0.1036879982 -0.009283960435 0.05626884605
0.100474462 0.001405214828 0.05394158706
0.09993270023 0.0008070970584 0.05402010056
0.100274414 -0.0003183400634 0.0538243876
0.1028917919 -0.004079496383 0.05580992549
0.1022969511 -0.007768909617 0.05483339882
0.1039304562 -0.008701296736 0.05582656419
0.1033557686 -0.007594215235 0.0548627071
0.1032305938 -0.005922701054 0.05480934635
0.1018836858 -0.003861107182 0.0541396339
0.1009253152 -0.001068284181 0.05419544152
0.100899231 -0.004519987504 0.05408252552
0.1016008474 -0.004828985289 0.05402437805
0.1006919773 -0.002004973116 0.05393179778
0.1000811212 -0.001476719883 0.0540234618
0.1020247751 -0.0002051166572 0.05872871899
0.09962426169 -0.0003363801907 0.05674116977
0.1046032925 3.521345166e-05 0.06298263768
0.1054343929 6.849624497e-05 0.06267863104
0.09981792802 -0.0002949083952 0.05911289484
0.1032512513 -0.0001078153992 0.06088463771
0.1018996571 -0.0002046356025 0.05680545832
0.1010988554 -0.0002635971038 0.0547000242
0.1015585934 -0.0002403549255 0.05569357454
0.1040348656 8.615771052e-06 0.06280384117
0.1008713842 -0.0002774789259 0.05419126219
0.101916876 -0.0001263237137 0.06141484818
0.1000059209 -0.0003347479488 0.05401175803
0.1039369183 3.715596920e-06 0.06276137154
0.1027259055 -6.464250039e-05 0.06199838814
0.1008710982 -0.0001963038323 0.06042498509
0.1034785993 -2.000617030e-05 0.06251942259
0.1003971138 -0.0002366161589 0.06000346405
3 166 198 128
3 82 83 18
3 109 73 317
3 117 318 317
3 229 183 279
3 10 9 14
3 13 12 15
3 64 32 60
3 78 26 79
3 305 250 285
3 105 104 34
3 41 19 21
3 236 177 251
3 123 46 76
3 8 24 7
3 181 147 255
3 26 10 59
3 73 107 48
3 190 189 198
3 185 184 245
3 233 256 254
3 151 116 114
3 105 178 145
3 99 145 140
3 78 9 26
3 308 304 296
3 204 225 199
3 28 25 23
3 16 33 59
3 52 77 113
3 157 220 156
3 24 55 122
3 26 80 79
3 47 113 48
3 63 32 65
3 210 209 66
3 43 38 46
3 284 304 273
3 53 128 164
3 68 36 19
3 36 69 20
3 141 140 135
3 186 318 117
3 301 289 302
3 81 85 165
3 75 48 107
3 118 74 150
3 42 52 39
3 141 100 99
3 278 275 241
3 253 223 266
3 64 197 167
3 133 129 130
3 86 169 91
3 105 34 62
3 310 309 313
3 108 73 103
3 129 134 170
3 80 26 59
3 39 41 42
3 87 65 64
3 90 89 92
3 86 51 84
3 238 178 209
3 96 36 95
3 96 69 36
3 236 173 139
3 174 135 131
3 71 69 96
3 71 21 69
3 23 25 53
3 189 128 198
3 127 17 50
3 41 112 42
3 221 222 206
3 171 137 172
3 100 141 147
3 205 230 233
3 121 122 55
3 255 147 175
3 160 29 56
3 95 36 68
3 200 166 128
3 125 64 60
3 257 254 256
3 256 238 257
3 87 64 167
3 126 85 63
3 88 129 126
3 88 87 130
3 130 129 88
3 255 275 181
3 250 311 285
3 306 296 295
3 61 106 148
3 133 89 134
3 100 101 99
3 201 170 173
3 89 133 138
3 93 139 90
3 213 193 195
3 104 61 34
3 141 174 175
3 107 146 110
3 146 107 108
3 252 222 251
3 237 218 217
3 163 125 192
3 296 307 308
3 30 33 16
3 10 26 9
3 259 238 241
3 212 319 155
3 191 192 188
3 70 45 114
3 74 114 45
3 295 296 282
3 195 196 213
3 74 45 44
3 142 144 143
3 62 13 15
3 188 192 125
3 126 170 165
3 170 126 129
3 46 44 120
3 231 234 230
3 134 173 170
3 7 9 8
3 130 132 133
3 180 110 146
3 181 102 147
3 3 5 2
3 188 160 159
3 101 104 105
3 125 162 188
3 3 6 5
3 229 115 183
3 194 163 193
3 194 197 125
3 119 15 40
3 309 304 308
3 280 292 242
3 291 263 279
3 46 120 76
3 183 208 248
3 68 39 72
3 57 53 27
3 202 225 203
3 109 103 73
3 68 142 98
3 284 273 245
3 85 81 33
3 119 46 187
3 193 197 194
3 197 193 213
3 213 214 197
3 5 6 23
3 158 189 190
3 169 86 202
3 5 23 4
3 207 71 206
3 235 254 255
3 82 18 2
3 211 119 187
3 78 24 9
3 211 210 119
3 152 113 77
3 238 209 241
3 150 38 67
3 96 206 71
3 136 140 137
3 179 258 224
3 239 232 236
3 258 260 270
3 61 67 38
3 204 128 57
3 225 204 228
3 237 221 218
3 290 280 294
3 215 196 201
3 81 80 59
3 262 278 280
3 260 179 226
3 111 116 151
3 191 195 193
3 311 305 285
3 106 181 148
3 282 245 184
3 44 45 120
3 131 169 174
3 185 151 118
3 102 106 101
3 307 300 305
3 296 306 307
3 92 93 90
3 58 97 94
3 243 253 252
3 252 253 268
3 284 245 282
3 248 274 276
3 274 267 272
3 130 87 167
3 272 265 266
3 19 37 68
3 47 144 39
3 181 242 148
3 181 262 242
3 219 236 232
3 265 272 267
3 317 73 324
3 283 270 271
3 271 286 283
3 299 295 298
3 286 279 276
3 186 117 111
3 290 293 298
3 257 255 254
3 82 49 124
3 120 45 153
3 152 77 154
3 293 264 269
3 257 275 255
3 34 13 62
3 303 289 325
3 61 104 106
3 291 297 301
3 266 270 272
3 92 96 95
3 256 234 238
3 279 183 248
3 279 263 229
3 2 5 0
3 155 152 154
3 182 109 318
3 78 79 121
3 65 87 88
3 141 175 147
3 112 71 207
3 9 7 14
3 157 156 153
3 251 177 243
3 218 215 217
3 283 286 276
3 0 4 50
3 144 68 72
3 142 68 144
3 50 4 22
3 251 240 239
3 91 169 131
3 112 41 21
3 112 21 71
3 33 30 31
3 239 237 232
3 185 118 184
3 247 208 268
3 208 207 268
3 122 56 24
3 96 138 176
3 184 244 281
3 22 4 23
3 138 96 92
3 142 224 223
3 180 179 110
3 20 19 36
3 248 267 274
3 267 248 247
3 68 37 39
3 168 197 214
3 3 2 18
3 81 195 191
3 165 195 81
3 176 218 221
3 261 226 249
3 79 191 159
3 172 228 204
3 241 275 259
3 257 238 259
3 144 72 39
3 78 121 55
3 197 64 125
3 287 288 297
3 297 288 301
3 63 33 32
3 88 126 63
3 265 268 253
3 60 30 29
3 205 235 175
3 218 176 216
3 229 212 115
3 115 212 154
3 114 118 151
3 132 130 167
3 176 138 132
3 177 236 139
3 97 54 131
3 17 2 1
3 97 136 94
3 227 249 226
3 17 127 49
3 145 99 101
3 299 298 293
3 294 278 210
3 316 229 291
3 292 298 295
3 94 171 57
3 293 294 264
3 187 269 211
3 118 150 149
3 39 19 41
3 110 143 144
3 296 284 282
3 10 14 16
3 136 97 135
3 121 160 122
3 93 92 98
3 98 177 93
3 331 48 329
3 38 43 40
3 228 172 231
3 235 205 254
3 22 53 164
3 114 116 70
3 138 133 132
3 184 281 282
3 164 161 22
3 6 51 28
3 177 139 93
3 332 330 155
3 29 30 11
3 103 146 108
3 110 144 75
3 190 199 202
3 290 294 293
3 54 27 28
3 271 287 286
3 52 42 112
3 90 139 134
3 292 280 290
3 226 182 227
3 182 320 227
3 201 232 217
3 267 247 268
3 283 274 270
3 86 28 51
3 80 81 191
3 82 124 83
3 292 295 281
3 300 269 305
3 128 189 164
3 287 297 286
3 195 165 196
3 208 247 248
3 121 79 159
3 159 160 121
3 85 126 165
3 191 193 192
3 14 7 11
3 227 320 315
3 144 47 75
3 230 205 203
3 161 50 22
3 110 75 107
3 75 47 48
3 84 51 18
3 178 231 172
3 98 142 177
3 275 262 181
3 66 105 62
3 153 76 120
3 86 190 202
3 20 21 19
3 262 280 242
3 167 168 132
3 225 230 203
3 314 313 311
3 278 294 280
3 69 21 20
3 274 283 276
3 179 224 143
3 134 139 173
3 194 125 163
3 217 232 237
3 221 206 176
3 18 51 3
3 38 44 46
3 83 158 190
3 91 54 28
3 214 216 168
3 274 272 270
3 115 77 52
3 112 183 52
3 289 301 288
3 183 115 52
3 208 183 112
3 208 112 207
3 167 197 168
3 123 76 156
3 23 6 28
3 261 277 271
3 185 111 151
3 153 156 76
3 299 300 306
3 155 154 212
3 56 29 11
3 137 171 136
3 24 8 9
3 64 65 32
3 201 196 165
3 201 165 170
3 105 209 178
3 200 128 204
3 56 122 160
3 140 141 99
3 14 30 16
3 261 249 277
3 84 190 86
3 12 61 35
3 250 305 187
3 211 294 210
3 275 257 259
3 230 228 231
3 124 127 161
3 312 313 309
3 244 149 148
3 180 226 179
3 201 217 215
3 159 191 188
3 177 223 243
3 134 89 90
3 207 206 222
3 308 312 309
3 179 143 110
3 256 233 234
3 38 40 12
3 224 142 143
3 113 152 48
3 269 300 299
3 173 236 219
3 213 215 214
3 134 129 133
3 219 232 201
3 182 103 109
3 177 142 223
3 115 154 77
3 201 173 219
3 215 216 214
3 54 58 27
3 250 123 220
3 32 31 60
3 24 56 7
3 1 0 17
3 210 241 209
3 55 24 78
3 145 101 105
3 213 196 215
3 297 291 279
3 191 79 80
3 68 98 95
3 148 242 244
3 61 38 35
3 252 207 222
3 189 158 161
3 179 260 258
3 266 258 270
3 298 292 290
3 258 266 224
3 270 260 271
3 266 223 224
3 95 98 92
3 251 243 252
3 239 240 221
3 216 215 218
3 101 100 102
3 136 171 94
3 237 239 221
3 240 222 221
3 17 0 50
3 184 118 149
3 234 233 230
3 178 137 145
3 305 269 187
3 176 132 168
3 14 11 30
3 85 33 63
3 328 48 331
3 138 92 89
3 81 59 33
3 104 101 106
3 94 57 58
3 119 210 66
3 160 188 162
3 261 260 226
3 128 53 57
3 205 174 169
3 65 88 63
3 39 37 19
3 66 62 15
3 150 74 44
3 40 43 119
3 116 111 70
3 131 54 91
3 288 287 277
3 287 271 277
3 7 56 11
3 50 161 127
3 286 297 279
3 281 295 282
3 52 113 47
3 211 269 264
3 302 291 301
3 27 25 28
3 265 267 268
3 276 279 248
3 106 102 181
3 310 325 322
3 222 240 251
3 246 245 273
3 266 265 253
3 243 223 253
3 315 249 227
3 225 228 230
3 288 249 289
3 105 66 209
3 205 233 254
3 271 260 261
3 32 33 31
3 312 305 311
3 307 305 312
3 311 313 312
3 16 59 10
3 29 162 60
3 162 29 160
3 60 162 125
3 192 193 163
3 39 52 47
3 53 22 23
3 182 180 103
3 180 146 103
3 182 226 180
3 269 299 293
3 187 46 123
3 96 176 206
3 277 249 288
3 176 168 216
3 107 73 108
3 205 169 203
3 58 54 97
3 0 1 2
3 306 295 299
3 184 149 244
3 229 263 291
3 97 131 135
3 30 60 31
3 239 236 251
3 124 49 127
3 225 202 199
3 313 314 310
3 38 12 35
3 309 310 273
3 82 2 17
3 268 207 252
3 57 27 58
3 91 28 86
3 57 171 204
3 44 38 150
3 198 166 199
3 190 198 199
3 6 3 51
3 124 158 83
3 281 244 292
3 308 307 312
3 175 235 255
3 117 70 111
3 292 244 242
3 200 199 166
3 18 83 84
3 310 322 273
3 119 66 15
3 284 296 304
3 49 82 17
3 212 229 316
3 171 172 204
3 245 246 186
3 27 53 25
3 190 84 83
3 316 302 327
3 234 231 178
3 302 289 303
3 61 12 34
3 5 4 0
3 46 119 43
3 140 136 135
3 326 330 153
3 199 200 204
3 70 324 45
3 275 278 262
3 150 67 61
3 123 156 220
3 202 203 169
3 148 149 150
3 304 309 273
3 278 241 210
3 319 212 316
3 186 111 185
3 13 34 12
3 118 114 74
3 182 318 320
3 205 175 174
3 158 124 161
3 291 302 316
3 135 174 141
3 306 300 307
3 178 172 137
3 161 164 189
3 145 137 140
3 102 100 147
3 109 317 318
3 148 150 61
3 264 294 211
3 40 15 12
3 178 238 234
3 250 187 123
3 152 155 330
3 326 153 329
3 289 249 322
3 73 48 324
3 117 317 70
3 152 326 329
3 48 152 329
3 326 152 330
3 302 303 327
3 186 185 245
3 48 328 324
3 249 323 322
3 289 322 325
3 273 323 321
3 155 319 332
3 249 321 323
3 249 315 321
3 246 315 320
3 153 45 329
3 317 324 70
3 186 246 320
3 303 325 310
3 332 157 330
3 319 316 220
3 220 316 250
3 315 246 273
3 314 303 310
3 316 327 314
3 157 332 319
3 220 157 319
3 331 329 45
3 316 311 250
3 328 331 45
3 311 316 314
3 324 328 45
3 273 321 315
3 314 327 303
3 330 157 153
3 186 320 318
3 322 323 273
