ply
format ascii 1.0
element vertex 395
property double x
property double y
property double z
property double nx
property double ny
property double nz
element face 786
property list uchar int vertex_indices
end_header
0.1192882474 0.02208438218 0.03864819182
0.4589021634 0.5149066365 -0.7240717921
0.1204714981 0.02177235061 0.03945137066
0.7699899042 0.1318663881 -0.6242810289
0.1191028349 0.01976022004 0.03868194741
0.804974093 -0.4633820871 -0.3705317138
0.1133140212 -0.01851249704 0.05238501691
0.7227469555 0.5684480304 0.393069555
0.1099322864 -0.01497331742 0.05448645652
0.7562478325 0.6338008677 0.162436683
0.1108849381 -0.01666237753 0.05516436608
0.7315450523 0.2836879112 0.6199701651
0.1128814363 -0.01773925504 0.03160119935
-0.4251674344 -0.009420966037 -0.9050656872
0.1149460598 -0.01667035359 0.032547152
-0.293822257 0.8425166455 -0.4514799922
0.1155015739 -0.01749519971 0.03038069418
-0.48955395 0.7943537907 -0.3596372967
0.1150449738 -0.0246002963 0.04654697602
-0.2534951245 -0.9672739341 -0.01101627162
0.1134696986 -0.02358326029 0.04814227231
-0.5925171659 -0.8053619736 0.01776230645
0.1114297911 -0.0195898507 0.04164456684
-0.6113848635 -0.7902270462 -0.04183018306
0.1269016985 0.02100355059 0.04893886177
0.385413856 -0.9156691974 0.1140442042
0.1272730367 0.02141149403 0.05022942639
0.8100584653 -0.4209721689 0.4081515844
0.1262173626 0.02150801443 0.05104947529
-0.4644444245 -0.4529430743 0.7610085071
0.1188877159 -0.02342693677 0.03323404458
0.4137607986 -0.8701780279 -0.2675671902
0.1189925499 -0.02241595089 0.02940505549
0.6538249543 -0.6965839584 -0.2954381796
0.119879115 -0.02199216193 0.03416770513
0.9873639434 -0.06068987944 -0.1463870956
0.1143970246 -0.01882341805 0.02974274891
-0.8206112851 -0.07553150715 -0.5664733976
0.1155125054 -0.01832951206 0.02762742344
-0.8539548382 0.5075661699 -0.1146198825
0.1278461286 -0.02250280914 0.04946796214
-0.8102066741 0.5153723221 0.279206939
0.1274419703 -0.02248772816 0.04780964946
-0.3939096854 0.9153590251 0.08338474047
0.1264114606 -0.023563605 0.04787704177
-0.843664672 0.1220133393 0.5228218303
0.1270016106 -0.02270841344 0.04615233356
-0.1995144074 0.9791702086 0.03767895662
0.1289661879 -0.02272769544 0.04699552861
0.5035382796 0.7918689175 -0.3455326589
0.1262865546 -0.02297531919 0.04431600488
0.3409403827 0.8994890047 -0.2732749272
0.1162551198 -0.02208296977 0.02291060776
0.1568645119 -0.9240032443 -0.3487284465
0.1176682001 -0.02253689041 0.02652036197
0.4052213645 -0.8771431705 -0.257712057
0.1167932811 -0.02281068133 0.02888434184
-0.07063431884 -0.9729846213 -0.2197992713
0.1253934206 0.02152457394 0.04864514259
-0.7457074428 -0.5930426462 0.3036788261
0.113302628 -0.01773465843 0.05022731205
0.5884810231 0.7858080491 0.1902519263
0.1090508714 -0.01406743188 0.05187207409
0.6855858736 0.72674885 0.04252198195
0.1273993382 0.02199516056 0.04936888801
0.9380544864 0.3180024918 0.1375797798
0.0992510448 -0.002922342877 0.05204251651
0.2360867433 0.1313504811 0.9628136376
0.09881135921 -0.004167049078 0.05170149359
-0.7934365281 -0.2067278197 0.5724701603
0.09969631579 -0.004081309525 0.05225377363
0.08271821631 0.4452665482 0.8915690651
0.1125514054 0.02179208509 0.04561378735
-0.3637424277 0.9299944563 -0.05293163017
0.1111567839 0.01453397615 0.04137718421
-0.6986514671 0.7115135887 -0.07506357684
0.1116894123 0.01955991785 0.04752690787
-0.6817615937 0.7313960583 -0.01615348996
0.1268260159 0.02294919224 0.04667841233
0.7393373697 0.6610825719 -0.127867458
0.1264585943 0.02325743905 0.04732673405
0.3424773392 0.9263954837 0.1565269303
0.1275244506 0.02158189986 0.04808747094
0.9889522212 -0.1481980741 0.003291655958
0.1033237025 -0.007051544959 0.03658740523
0.5733412843 0.6783299172 -0.4595087541
0.1021912807 -0.004807518572 0.03929313007
0.8854339513 0.4647339199 -0.005394590699
0.1034305753 -0.006743398339 0.03845684126
0.7137558548 0.6963625821 -0.07504487964
0.1262462312 0.02138130559 0.04602471221
0.5927223289 -0.7426716676 -0.3116392706
0.1106644835 0.009504815713 0.04598778415
0.6592617251 -0.745201238 0.1002451626
0.1127435045 0.012022365 0.05014205242
0.6750230666 -0.7032004056 0.2232779639
0.1087368645 0.008581061564 0.05169080316
0.764960775 -0.6399578269 0.07272545995
0.120049267 -0.02398363035 0.03609203024
0.4531423849 -0.8038819494 -0.3852736565
0.120821522 -0.02203927391 0.03684374405
0.9123540521 0.2814806208 -0.2972856264
0.1266352895 0.02283698938 0.04952250941
0.08964590983 0.9291269379 0.3587293465
0.1253473454 0.0229488703 0.04815871321
-0.6085082425 0.6697487679 0.4256222583
0.1151780251 0.01194126164 0.02267467262
0.6409616835 -0.7165241487 -0.2752476425
0.1159579812 0.01268455667 0.02441187093
0.8141329708 -0.5709447487 -0.1058753976
0.1144763873 0.01101590958 0.02323034042
0.04036806714 -0.9937431935 -0.1041387751
0.1018305002 -0.008791714873 0.03631976315
-0.8220322391 -0.4284816188 -0.3750553297
0.1023054852 -0.007772846555 0.03584604234
-0.1188626895 0.2158313441 -0.9691689698
0.1045495579 -0.0117408386 0.0347669208
-0.6081816856 -0.1590794122 -0.7776945274
0.1281125381 -0.02464256957 0.04576365971
0.6901661818 -0.6005084527 -0.4038071815
0.1269489666 -0.02536931081 0.04673990357
0.07911401065 -0.972614172 0.2185466673
0.1265326646 -0.02553440338 0.04548191636
0.2882325797 -0.9481202112 -0.1341269737
0.1065860755 -0.0109093641 0.05720992612
0.6342790253 0.5450924767 0.5482374576
0.1079017293 -0.0140486888 0.05743174283
0.01559185545 -0.3326947908 0.9429056529
0.1097675631 -0.01521729725 0.05648058211
0.7193947614 0.01837659552 0.694358321
0.1003647934 -0.006836396214 0.04486755721
-0.7593176895 -0.6471958504 0.06763266623
0.1040437564 -0.01113015403 0.0465944174
-0.7284363522 -0.6834728683 0.04738479811
0.09875861691 -0.00480352184 0.04975184593
-0.8490853138 -0.5264994745 0.04303990258
0.1158829135 -0.01620822945 0.03619053416
0.3211636358 0.9468760698 0.01672206439
0.1088701228 -0.01369725768 0.03457386766
0.3292586481 0.7624745821 -0.556975093
0.1125668952 -0.01476258321 0.03649587627
0.42634729 0.889420477 -0.164800496
0.1263285585 -0.02493063123 0.04709088656
-0.5612152602 -0.6187349528 0.5497312888
0.1290902819 -0.02451605545 0.04843622149
0.4467617062 -0.87277761 0.1966296555
0.1279403682 -0.02405495915 0.04911493596
-0.5278798818 -0.7163648146 0.4562502415
0.12361045 0.02238486861 0.04701029358
-0.825248945 -0.1957919891 0.5297449157
0.1267637494 0.02218948437 0.04603242383
0.9058663595 0.03767315034 -0.4218849043
0.1072423108 0.009684121358 0.0413273037
-0.7552155641 0.6541803054 0.04120169665
0.1037408919 0.005462976441 0.04665243087
-0.8027933829 0.5959523074 0.01906912986
0.1053508689 0.007626287917 0.05038588895
-0.8106376633 0.5824533627 -0.06012203526
0.1165571923 -0.01693529979 0.03923766629
0.469604555 0.8791937221 0.08056029332
0.1203056596 -0.02079585437 0.03786442833
0.6819973582 0.7299689376 0.04499948471
0.1197249799 -0.01946009594 0.03654770713
0.6700768712 0.7373961356 0.08511125623
0.1123113146 -0.0218546662 0.05124225628
-0.4863716358 -0.7968004369 0.3585410656
0.1094601065 -0.01826079815 0.05180913814
-0.7217449036 -0.6920392619 0.01288232115
0.1151288538 0.01511533338 0.04950977469
0.6893780432 -0.5211560495 0.5031443984
0.112766801 0.01293424499 0.05246741405
0.7826361565 -0.4631573585 0.415891702
0.129287527 -0.02201157602 0.04982284593
0.2764485396 0.9582989712 0.0723829174
0.1285687712 -0.02224132799 0.05199810535
-0.5153554785 0.4290878699 0.7418169118
0.1296214605 -0.02228243723 0.05117205929
0.7544808533 0.5297275954 0.387488473
0.1182325367 0.01867183832 0.03620264773
0.9395007095 -0.1870370971 -0.2869765515
0.1173620338 0.01798995422 0.0336353288
0.9740779438 0.1680409718 -0.1514410483
0.1155067514 0.01945228919 0.03244795858
0.3110381597 0.8995320602 -0.3067528906
0.1247574854 0.02129885255 0.04695956037
-0.285593492 -0.9501944124 0.1247675277
0.1234203682 0.02344660379 0.04611127986
-0.6306457135 0.5729376148 0.5234772905
0.1086636628 0.0106079112 0.05621899738
-0.1520403423 0.7135095096 0.6839502278
0.1073132545 0.008380343113 0.05764376123
-0.02530348964 0.3733565004 0.9273427937
0.1092051599 0.00970337986 0.05650638775
0.7150675742 0.09537855469 0.6925180833
0.1100297551 -0.01331748108 0.03654278936
0.550286208 0.8094942534 -0.2047050144
0.1069216066 -0.01170415757 0.03530975676
0.4482727573 0.576762409 -0.6829323968
0.1078949388 -0.01165643457 0.03626809833
0.6448251218 0.6502482677 -0.4017184992
0.1198848013 -0.02102641161 0.0305311542
0.987865955 0.0949959086 -0.1228683537
0.1191876523 -0.02127149078 0.02815105514
0.9321690671 -0.1657343163 -0.3218586129
0.1194520072 -0.01912558053 0.02949454952
0.7931187109 0.5957214298 -0.1268017685
0.1044178881 0.006080433625 0.05735774848
-0.6294905366 0.5421228451 0.5566367623
0.1039294817 0.004396649161 0.05797314308
-0.3917164281 0.3172694536 0.8636540591
0.1057395493 0.006475610579 0.05776882547
-0.09576886908 0.2744879449 0.9568096424
0.1033989126 0.002271763618 0.05763005653
0.4454126305 -0.5979638315 0.6663684002
0.1041750689 0.003057917352 0.05659187541
0.7534413315 -0.6392409007 0.1539390491
0.1044144471 0.004116094787 0.05806150174
0.362718973 -0.134908845 0.9220816397
0.1099414034 0.007401697238 0.03660092817
0.6408020518 -0.7485938772 -0.1702349477
0.108514894 0.006426753044 0.03752800587
0.7745588748 -0.6320730187 -0.02328623018
0.115289545 -0.02149509625 0.02514648668
-0.5936024229 -0.7876561189 -0.165027276
0.114162703 -0.01952458855 0.02244286977
-0.6905347228 -0.6701005907 -0.2722627314
0.1071646732 0.008686311077 0.0331701686
0.08775256174 -0.4658282866 -0.8805131999
0.1065134431 0.009180663073 0.03306028658
-0.4823381483 0.2725568018 -0.8325038742
0.1088810276 0.01077407909 0.0327128068
-0.3394125728 0.389830363 -0.8560557187
0.105052521 -0.01167843551 0.05709125209
-0.5641215231 -0.5863799193 0.5813135964
0.1045570817 -0.009995201377 0.05779473489
-0.3548878356 -0.3223410185 0.8775824132
0.1033907932 -0.01069026402 0.055227419
-0.7429389522 -0.6484753183 0.1658959759
0.1187373137 -0.01967724221 0.04314183668
0.5075159092 0.8529970678 0.1217522245
0.1219083782 -0.02234140036 0.03953441448
0.7468550345 0.5366281037 -0.3927312512
0.1166186323 0.01993268236 0.04543775068
0.622331002 -0.04844622117 0.781253536
0.1158765214 0.02194206319 0.04461060777
0.3172418078 0.6149170587 0.7219658207
0.1145314743 0.02042850031 0.04740238055
0.4545630308 0.4285131621 0.7808642141
0.1108804348 -0.01522468903 0.04589977618
0.5683172892 0.8201910507 0.06559038881
0.1187380334 -0.02238483013 0.04644885974
0.6104907769 0.1548704365 0.7767342912
0.1165214803 -0.0232297831 0.04822590554
0.4992188215 -0.3377589086 0.7979345136
0.1185450403 -0.02403167645 0.04563321062
0.3845423977 -0.5414614336 0.7476273539
0.1241880253 -0.02551528959 0.04461462095
-0.2556133553 -0.9111906624 0.3230996586
0.1101878798 0.01112665942 0.05516481675
0.757966736 -0.1692926096 0.6299416159
0.1103066811 0.01221607163 0.05520744696
0.1844697248 0.4318567432 0.8828763639
0.1131722757 0.01544848328 0.02546626585
-0.6804650013 0.7055117129 -0.1980419275
0.1128911898 0.01612427171 0.02824354961
-0.489513599 0.8388071791 -0.2382833454
0.1136446804 0.01621576784 0.02309754192
0.04954746648 0.9196411752 -0.3896218134
0.1186426094 -0.01852195715 0.02735861041
0.6542035166 0.7553610489 -0.03804529754
0.1173720763 -0.0173479591 0.02944552938
0.09332780222 0.9948606336 -0.03927137656
0.118763882 -0.0174314326 0.03114627744
0.4363247989 0.8997403036 0.009383808727
0.105746997 0.008514247254 0.0557728037
-0.7220102714 0.6424091307 0.2569273764
0.1186057364 0.01449399618 0.03286250702
0.8590691602 -0.488410499 0.1531514366
0.1176663886 0.01608409135 0.03043163034
0.9925237492 0.01471570597 -0.1211612778
0.1151982334 -0.02178275649 0.02821235024
-0.3884258362 -0.8995616725 -0.1997853026
0.1111347755 -0.01891774605 0.03417779855
-0.4408343655 -0.8786698721 -0.1833148059
0.1140495255 -0.02014260753 0.03020918609
-0.5904303426 -0.6566016904 -0.469325293
0.1029962692 0.0051681341 0.05530691843
-0.8134315607 0.564834902 0.1388907108
0.1161258789 0.01147900597 0.0294307586
0.2079086438 -0.9781384391 0.004380611534
0.1138238123 0.0101165636 0.03412686913
0.2921276939 -0.9411299277 -0.170105466
0.1142110702 0.01078171387 0.03254955392
-0.1934154592 -0.88978777 -0.4133620501
0.1029477765 0.002482825754 0.05771534932
-0.2821887955 -0.1571015351 0.9464082583
0.1021685262 0.002939489956 0.05684849204
-0.7784279546 0.3615307004 0.5131719714
0.1020102864 0.001870966844 0.05684564737
-0.6166089765 -0.352641556 0.7038730732
0.1158093437 0.01163471367 0.02593370576
0.3622705217 -0.9262608031 0.1039278298
0.1151389379 0.011620675 0.02808082038
-0.2734935349 -0.9605128062 0.05115110346
0.1060197461 0.005373419095 0.05745360342
0.6916843919 -0.4432134481 0.570205701
0.124628769 0.02234263857 0.04366378617
0.7378793375 0.0571951096 -0.6725048719
0.1252241466 0.02308962014 0.04459838044
0.61708722 0.6579553728 -0.4316226249
0.1020832807 0.001287243765 0.05411248989
0.5772785933 -0.7825790587 0.2330653183
0.1011518758 0.001144411017 0.05468834175
-0.101212451 -0.8232377061 0.5586015745
0.09995480662 -0.0002719665926 0.05313615527
-0.3171160907 -0.3774674603 0.8700320117
0.1225240683 -0.02458667302 0.03957265196
0.5172747865 -0.4897476575 -0.7018361826
0.1236136889 -0.02402023788 0.04037101128
0.7816736174 -0.06933316895 -0.6198219644
0.1124745306 0.008807991517 0.03672810039
0.5268668413 -0.8404579493 -0.1266560975
0.1166236907 0.01102644594 0.03944113419
0.5680328159 -0.8144998745 0.1180198057
0.1147549434 -0.01794099687 0.02224606365
-0.4523224669 0.2352281262 -0.8602744414
0.1159299486 -0.01748686362 0.02250392612
0.2421839453 0.627164839 -0.7402777866
0.1153542231 -0.01883841249 0.02154846762
0.3152069066 -0.1878521104 -0.9302452315
0.1201408635 0.02078905979 0.0418061266
0.2425083489 -0.9373763321 0.2500306236
0.1205973659 0.02091561958 0.04015058473
0.7625157698 -0.5952329115 -0.253510319
0.121786348 0.02106955872 0.04216256423
0.4585805049 -0.8862336266 -0.06552770135
0.1242781318 -0.023089398 0.04415644355
-0.2515706005 0.886855737 0.3875553312
0.1239154894 -0.02389977028 0.04492988177
-0.5744602592 0.4053789869 0.7111000545
0.1135935696 0.01334756472 0.02708242808
-0.9777050664 0.1558741123 -0.1406984868
0.1125948759 0.01313577066 0.02277140513
-0.7629768786 0.5726386413 -0.299918771
0.1019279359 -8.201611025e-05 0.05020877012
0.8461802478 -0.5252545856 0.08992557216
0.1013008332 -0.001192691149 0.04411130945
0.9057248831 -0.4227133665 0.03123853253
0.1033544109 0.001143225193 0.03847881939
0.7897547702 -0.6116897807 -0.04607618832
0.11153131 0.01417376069 0.05424123004
-0.01109322709 0.6399062606 0.7683729029
0.1117628656 0.01301441265 0.05452516684
0.6654097453 0.03823352769 0.7454985367
0.114098358 0.01435276027 0.02177999894
0.379886766 0.6172399256 -0.6889854274
0.1150921526 0.01501929727 0.02300489979
0.8272242619 0.3999792485 -0.3946094541
0.1150239818 0.01332482547 0.02199801064
0.826983525 -0.02438807605 -0.5616969567
0.1299447224 -0.02265907966 0.04903042495
0.9651546514 0.2616078386 -0.006151226131
0.1294768876 -0.02357168094 0.04715332265
0.9051788749 0.04886612597 -0.4222123946
0.116411151 -0.01757520391 0.02807200015
-0.3831552496 0.9236348188 0.009527657462
0.1155261093 -0.01770155161 0.02541199661
-0.7042723801 0.6835600652 0.1916925976
0.1099879439 0.01331604676 0.05418531349
-0.572576564 0.6973493228 0.4311148342
0.1266458177 0.02208925298 0.05113554918
-0.0236548668 0.4395421528 0.8979104316
0.1068120631 -0.01516100768 0.03395593563
-0.6918553886 -0.7080711837 -0.1413199212
0.107190122 -0.01520016147 0.03325514194
-0.4455640142 -0.3634660638 -0.8181473766
0.1089043687 -0.01694648343 0.03397715511
-0.512630402 -0.8299992931 -0.2197981901
0.1275853517 -0.02395107393 0.0447206978
0.7410087073 -0.001533092165 -0.6714936674
0.1204258202 -0.02362745231 0.04453556732
0.3051611343 0.06580003503 0.9500247563
0.1208572717 -0.02197066414 0.04386395143
0.4493910071 0.7413836833 0.498395382
0.1077190583 -0.01472594587 0.03329397815
0.03461884414 0.4329771493 -0.9007398758
0.1096986399 -0.01647897386 0.03302390505
-0.2900307801 -0.464136554 -0.836934529
0.1105098343 0.01338978251 0.03410456671
-0.5391138059 0.812781854 -0.2207758187
0.1135880079 0.02165601369 0.03995651087
-0.3878731304 0.8824827412 -0.2660425645
0.1114736113 0.01659800064 0.05129910457
-0.5762904508 0.7501701129 0.3242439176
0.1127488177 0.02113767616 0.04763788364
-0.1289787276 0.8567128287 0.4994072657
0.1127050637 0.01394482732 0.03057809958
-0.6613207178 0.5624703029 -0.4962681398
0.1211778885 0.02314868834 0.04427483412
-0.6540819459 0.2554245704 0.7119937478
0.1225153303 0.02220618605 0.04550512632
-0.6826293846 -0.489267298 0.542802574
0.1094874523 0.009638846841 0.05452113852
0.8241342217 -0.5342004784 0.1882355801
0.1172961435 -0.01738638845 0.02614637812
0.252522724 0.965592871 0.06215047301
0.1159396571 -0.0170033146 0.02360054831
-0.07419029016 0.9862211099 -0.1478638673
0.1127417687 0.01454588003 0.05344139664
0.6383896209 0.1879883259 0.7464041005
0.1166269518 0.02076660135 0.03518896292
0.3579448436 0.8331556436 -0.4215769946
0.118010444 0.02030346307 0.03637767109
0.831299211 0.3645147819 -0.4196076686
0.1177639058 0.01553518854 0.04277184057
0.6025249332 -0.7823264564 0.1578892669
0.1016336869 0.002875801583 0.03631511126
-0.8651886426 0.3135693877 -0.3913091513
0.1042477934 0.005520439632 0.0346864566
-0.6204621605 0.05307046111 -0.7824386452
0.1021624347 0.00177503837 0.03588648272
-0.09077509595 -0.2708386402 -0.9583351778
0.107737933 0.005895378846 0.03611945097
0.7167880923 -0.5883110144 -0.3743059993
0.1106228083 -0.01896417667 0.05395072654
-0.4888395787 -0.7392010841 0.4632684141
0.1062601528 -0.01402833161 0.055566315
-0.6434455714 -0.7096946068 0.2868995675
0.1291040122 -0.02384494788 0.05051346339
0.1953740716 -0.8959633985 0.3988465377
0.1290282349 -0.02283505827 0.0521113064
0.02477019388 -0.3997245631 0.9163005572
0.1170216723 -0.02471587701 0.04524906434
0.09999962049 -0.9804206709 0.1696330863
0.1193103171 -0.02479869365 0.04436339568
0.07238440428 -0.8324819338 0.5493034935
0.1211893798 0.02373956131 0.04366550239
-0.3602679013 0.8888024964 0.2832616487
0.1132562902 -0.02011557509 0.05318430539
0.654118658 -0.07955475583 0.7521966645
0.1121004238 -0.01983145292 0.05393360694
0.06135526733 -0.6023485633 0.7958716853
0.1138493247 -0.02206684131 0.05125557581
0.2174846007 -0.5369281753 0.8151126198
0.1059254512 0.005150024169 0.04429589744
0.7688338417 -0.6376361022 0.04811158988
0.1066061445 0.0044342821 0.03685171349
0.7354169574 -0.6596625653 -0.1549425657
0.1050164036 0.006062742105 0.03429512322
-0.1986135666 -0.1207954385 -0.9726053224
0.1038993249 0.002652805994 0.03580118336
0.3290462754 -0.5947581571 -0.7334788907
0.1143203806 0.01637582604 0.05064160366
0.6309043461 -0.01181488996 0.7757706584
0.1128356961 0.01726937588 0.05127033329
0.1516736657 0.5941120814 0.7899531213
0.1085078654 -0.01215031803 0.03762506952
0.6962436254 0.7158388656 -0.05309927185
0.09864942313 -0.0007312239146 0.04967935336
-0.9043833624 0.4261680135 0.0217153877
0.1021627276 -0.0005830636983 0.03700651266
0.8532055446 -0.3570761105 -0.3801801546
0.1017235523 -0.002826492647 0.03817424126
0.9951199787 0.05602549035 -0.08122421059
0.1014062142 -0.002904029202 0.03699490388
0.8702301596 0.03969420399 -0.4910436228
0.1161174319 0.0176602192 0.02901156951
0.569582673 0.7538709128 -0.327496909
0.1166468069 0.01615913424 0.02799096385
0.9075551203 0.258136914 -0.3312235456
0.1088948554 0.01247591762 0.05186771781
-0.7970538489 0.6037025222 -0.01576155596
0.1020817957 -0.005702614361 0.05024250053
0.7794152002 0.6231770406 0.06451605819
0.1014768084 -0.004497817233 0.04419210283
0.8505616541 0.5257764367 0.01019858736
0.1006591496 0.00152652969 0.05448837397
-0.864388429 0.02719630493 0.5020886424
0.1026137503 0.001655899844 0.0570484079
0.1487248676 -0.7844647165 0.6020764256
0.1038099536 -0.007838132393 0.05766149426
0.3714243862 0.6743638336 0.6381828463
0.1033867263 -0.008049508363 0.05774432599
-0.3010594898 0.1650011059 0.9392219219
0.1184608476 0.01248363166 0.03288393913
0.6710758382 -0.7199022498 0.1771947238
0.1179777985 0.0134799044 0.02981181295
0.8570742487 -0.5049071537 -0.1024328968
0.1241289132 0.02126480501 0.04531267375
-0.0850109007 -0.9930499928 0.0813932341
0.1233276654 0.02139575348 0.04348338923
0.4434536088 -0.865197718 -0.2340551336
0.1235265874 -0.02530156928 0.04134398505
0.4843431111 -0.714788125 -0.5044697087
0.1258226566 -0.02367635851 0.04314272681
0.7797022771 0.2363041677 -0.5798488591
0.121319094 0.02148779099 0.04338112966
-0.1481571369 -0.8920808815 0.4268971348
0.1295032624 -0.024269912 0.04783898094
0.811249688 -0.5760540672 -0.1001781186
0.1065851085 0.005775894587 0.03521150511
0.5137911431 -0.5506103783 -0.6579109914
0.1029469894 -0.007137000469 0.0571277114
0.05533421909 0.8218495472 0.5670109751
0.1023449936 -0.007341309869 0.05693745569
-0.6551326384 0.3094804291 0.6892191887
0.1067877281 -0.01003458595 0.0368767615
0.6545098008 0.7328780601 -0.1857597095
0.1061340759 -0.01058754676 0.04441217905
0.6897622737 0.7238133357 0.01795162552
0.1247481079 -0.02283205816 0.04299785386
0.3535435136 0.9293934467 -0.1059943637
0.1002215175 0.001380473618 0.05307694747
-0.8963124971 0.4236163279 0.1310462296
0.121209087 -0.02327792906 0.03722789381
0.8688742651 -0.2842283465 -0.4053045255
0.1228022152 0.02188515411 0.04217746664
0.8032577626 -0.1700981075 -0.5708271198
0.1209421351 0.02229305435 0.04410862268
-0.5256526 -0.4371812749 0.7297683721
0.1193160401 0.02179803363 0.04315102288
-0.04369560717 -0.5139668516 0.8566964278
0.1185844529 0.02300095755 0.04318835248
-0.2685291603 0.6248697247 0.7330961173
0.1173652115 0.02158355453 0.03719392345
0.2800989065 0.844809783 -0.4558958578
0.1005511671 -0.003890135315 0.05154440172
0.7469603975 0.417105099 0.5177581491
0.1013337189 -0.005545292001 0.05258216793
0.5710867229 0.7251037079 0.3848175773
0.1178361246 -0.0183822931 0.02461952893
0.7428867369 0.6560690027 -0.1330141342
0.1241572972 -0.02479923689 0.04514981476
-0.6219885489 -0.2977273505 0.7242159
0.125468096 -0.02361754425 0.04632950023
-0.7361433835 0.4303508294 0.5223897803
0.1050122787 -0.009721041815 0.05789665652
0.3417654689 0.2160143575 0.9146224148
0.1048977566 -0.01296474315 0.03551383726
-0.7392484606 -0.6582100066 -0.1423773182
0.1162861606 -0.02041657891 0.02154085483
0.4505292706 -0.5987095504 -0.662246367
0.1171478139 -0.01918085946 0.0220859238
0.8198938955 0.09552419681 -0.5644901487
0.1174755722 -0.02074153714 0.0228952503
0.869124372 -0.3182184342 -0.3786289135
0.1167596964 0.01472828375 0.02648373662
0.9608300105 -0.0967016245 -0.2597200159
0.09958296467 -0.001658112556 0.05223001986
0.1317416238 -0.3929870884 0.9100578514
0.1011539251 -0.0002602942283 0.05249354591
0.650415675 -0.6364531816 0.4145923267
0.1167015926 -0.02474392739 0.04402347819
-0.1337718222 -0.9818803577 -0.1342239276
0.1004522763 -0.007115699954 0.05317894241
-0.8414569426 -0.5186650595 0.1514489017
0.1056445806 -0.01341863676 0.05037978746
-0.7376188325 -0.6744424037 -0.0323404068
0.1062322876 -0.01381022497 0.03404661095
-0.4455190139 0.03931176367 -0.8944089632
0.1207476669 -0.02441668137 0.0381023387
0.3772285244 -0.8259059611 -0.4190202666
0.1045522252 -0.008622967801 0.0566465026
0.673884881 0.7283978973 0.1237564964
0.1040943502 -0.008747472056 0.05358376308
0.683095698 0.7285539932 0.05088562149
0.1023094311 -0.006848951215 0.05429034374
0.4821275506 0.8536419704 0.1971000033
0.1215748672 -0.02496283211 0.04406468341
-0.1961736898 -0.6187510272 0.7606990534
0.1140985893 -0.01849085048 0.02346914179
-0.9978767718 -0.05535254795 -0.03432264211
0.1147860489 -0.01737581972 0.02383623482
-0.689714394 0.7192588962 -0.0834307796
0.1199743274 -0.01961613106 0.03266951023
0.7962828569 0.5909380561 0.1293283636
0.1148879081 -0.02425572738 0.04844698252
-0.03011187267 -0.8429086956 0.5372133709
0.116412866 0.02267743867 0.04344224461
-0.02583240098 0.8586783384 0.5118634566
0.1175598958 0.02164563139 0.04357217422
0.3082413108 0.01228228806 0.9512289103
0.1145295259 -0.01921676752 0.0242479293
-0.9729983409 -0.08962855081 0.2126992044
0.115030489 -0.01958428675 0.02664331277
-0.9527366531 -0.2739446744 -0.131328539
0.1226119684 -0.02588122907 0.04214235686
0.02348187878 -0.9840488459 -0.1763419127
0.1189373174 -0.02018330771 0.02642757779
0.9438140898 0.1958952662 -0.266157864
0.1126822898 0.01219300073 0.02354958402
-0.9974509155 -0.06243602409 -0.0345458256
0.1130885758 0.01291903689 0.02456953599
-0.9773923694 -0.0140462293 0.2109664895
0.1193346939 -0.01796725238 0.03257120228
0.5827890138 0.7998391325 0.1435769045
0.1124079615 -0.01626180384 0.03275438847
0.06061904883 0.6932052092 -0.718186514
0.1096270296 -0.01505225793 0.03336604612
0.1181849749 0.5254073551 -0.842602767
0.1143552398 -0.0159082396 0.03419441232
0.1817026618 0.9601876952 -0.2121879654
0.1204283121 0.02314294941 0.04036773188
0.3995554099 0.7431397973 -0.53674828
0.1235741099 0.02388808234 0.04439932833
0.1769579169 0.9682559212 -0.176539986
0.1169521256 0.01291473032 0.02736423071
0.7375221111 -0.6752926604 -0.006399878695
0.1144244117 0.02062432185 0.03522386637
-0.2200793076 0.9450612286 -0.2417113412
0.1195395683 0.02371163572 0.04115612891
-0.09013883238 0.9714199248 -0.2195867042
0.1001213796 -0.005470420247 0.05321156153
-0.3618442837 0.3754395503 0.8532958798
0.1141910352 0.0116561628 0.02535196427
-0.6208601727 -0.751400521 0.223450001
0.1142298884 0.01219739048 0.02785460347
-0.7891503942 -0.6075892844 -0.08987166798
0.1183696449 0.01982697957 0.04294079672
0.5309077915 -0.6616319406 0.5295092937
0.1158080832 -0.02009162282 0.04951035279
0.6231350501 0.6190934337 0.4779393577
0.1142530336 0.02247416191 0.04431683217
-0.01441554367 0.9918879507 0.1262952308
0.1054073663 -0.01229600377 0.03440140303
-0.2085581055 0.05382407691 -0.9765277699
0.1004414871 -0.00191896952 0.051574307
0.7889416331 -0.3044564989 0.5337390184
0.09868860966 -0.001452657962 0.05162464343
-0.8135817385 0.1384560469 0.5647253118
0.1058934974 -0.009534669719 0.0361181008
0.5022691282 0.6932368822 -0.516863955
0.1032742271 0.001247515921 0.03662119989
0.6492286836 -0.6270102803 -0.4305348125
0.1138316277 0.02234189014 0.0431341008
-0.2461432533 0.9529396405 -0.1769732761
0.1240563548 0.02381492179 0.04563448735
-0.03487640637 0.9838436029 0.1756001179
0.1186760066 0.01470132956 0.03643577886
0.7507433818 -0.6503511131 0.1158784032
0.1063448927 -0.01208401613 0.05745157132
-0.06586338412 -0.2409834013 0.9682918026
0.1084870537 0.007739899882 0.0344492817
0.4168187544 -0.7429407205 -0.5237377319
0.1014291193 -0.005686953207 0.03623937436
0.3365598857 0.2987541957 -0.8930136471
0.1022529213 -0.005146113527 0.03702522154
0.8071071291 0.4363265048 -0.3977401958
0.1006272893 -0.002922665613 0.04602673521
0.9975156022 0.05713514156 -0.04120920883
0.1007420772 -0.002922105419 0.05011044755
0.9829255499 -0.1286913255 0.1315139004
0.1007420772 -0.002922105419 0.05011044755
0 0 0
0.1038607256 0.003087491419 0.05335741175
0.7627308587 -0.6416038393 0.08115510184
0.1152183056 -0.02105969162 0.05066542769
0.6232899892 0.1189509958 0.7728908396
0.1046246806 0.006883469294 0.03533144944
-0.8100985124 0.5612982356 -0.1693655541
0.1057394286 0.007633717423 0.03390813345
-0.4355925281 -0.1300159067 -0.8907047847
0.116995023 -0.01779494045 0.02303025268
0.5544849887 0.7728097051 -0.3087256988
0.1179165299 -0.02190200636 0.02484233881
0.7367849762 -0.4787770858 -0.4774100973
0.1176945326 0.01181895855 0.03126150053
0.5375023303 -0.8418965323 0.04797367819
0.1157474787 0.0103838412 0.03632166388
0.4285667353 -0.9016755971 0.05754711991
0.1127698343 0.01324279174 0.02178519903
-0.3236309037 0.5942927771 -0.7362602347
0.1135281296 0.01262434643 0.0215758298
0.2935218086 0.1821477378 -0.9384386765
0.1132186056 0.01171551423 0.02213080978
-0.420062252 -0.3238505142 -0.8477432093
0.1001001752 0.00117105331 0.04473134824
-0.8293135452 0.5572754394 0.04102594701
0.0985762465 -0.001516076719 0.04481162448
-0.9676082794 0.252447993 -0.002056308959
0.0980326202 -0.002865883266 0.04752298067
-0.998296055 -0.05799217916 -0.006472534961
0.1020201612 -0.0007949249377 0.03924113354
0.9332855791 -0.3589039242 0.01288414112
0.1081276188 0.0114592155 0.03357439532
-0.604668392 0.7546031552 -0.2548533183
0.1092737482 -0.01610116298 0.05612633272
-0.07038484026 -0.6955687912 0.7150035181
0.1040518772 -0.008631971835 0.03573907885
0.2596194218 0.5958572337 -0.7599683631
0.1222730194 -0.02363530611 0.04403378681
-0.1050733771 0.5429737767 0.8331500845
0.10743853 -0.01499021039 0.04157446528
-0.6745089335 -0.7347533409 0.07193904837
0.1142991689 0.01144499264 0.02219582839
0.3153088214 -0.6266549539 -0.7126597476
0.1167069145 -0.02437750468 0.04081895859
-0.2824280403 -0.9323103307 -0.2259023005
0.123618409 -0.02298217079 0.04100244504
0.6890322937 0.6677740118 -0.281624515
0.1132254315 0.01260730507 0.03002743409
-0.8224747623 -0.04489878491 -0.5670267758
0.1119456106 0.01180948463 0.03162253498
-0.4210731153 -0.07976968203 -0.9035121634
0.1178714726 -0.0240516957 0.03608824556
-0.108633002 -0.9739189214 -0.1992004152
0.1230393664 -0.02267418532 0.04268874738
0.1317137943 0.9692771803 0.2077335413
0.1184760542 0.01691171856 0.03740116862
0.7616306373 -0.6435954872 0.07552232317
0.1138575048 0.01770076961 0.02856107321
-0.1822546557 0.9476263199 -0.2622738996
0.1147398882 0.01736191864 0.02627313424
0.3015316456 0.9059630463 -0.2971693548
0.1123750533 -0.01866010341 0.05438173543
0.6635187394 0.07187296579 0.7446993751
0.1009804926 0.002538259504 0.03815088327
-0.881432325 0.4721679897 -0.01159508264
0.1056852552 0.003754573585 0.03613144237
0.5804854742 -0.6525436751 -0.4870558144
0.1297982284 -0.02300477772 0.05033170705
0.9682066718 -0.2010201443 0.1488849966
0.1145048879 -0.0196406552 0.02146358083
-0.2507125156 -0.6597210596 -0.7084570263
0.1025724295 -0.008474335423 0.05690947344
-0.732743898 -0.4262850161 0.5304408214
0.09907996364 -0.002917120968 0.03793038819
-0.9747070343 -0.06138589173 -0.2148905992
0.1007978869 0.0004137642773 0.03614743601
-0.5728397849 0.01216665727 -0.8195770575
0.09998541339 -0.004367671921 0.03651560163
-0.6982009515 -0.3109930089 -0.6448246117
0.1009476851 -0.00641969876 0.0361348873
-0.5652651389 -0.1143968415 -0.8169386057
0.09894814996 -0.001097626248 0.03944494881
-0.928117186 0.3705566293 0.03586465569
0.1110014471 -0.01782503888 0.05509972906
0.2311303735 -0.3679150617 0.9006760005
0.1134601011 0.01124295641 0.02362779499
-0.6015992631 -0.7972536577 -0.04964808118
0.0992510448 -0.002922342877 0.05204251651
0 0 0
0.09925170308 -0.002922359904 0.05204236261
0 0 0
0.0992510448 -0.002922342877 0.05204251651
0.2472964225 -0.06061514038 0.9670420281
0.1061776049 0.009198375236 0.03376579784
-0.7688191221 0.6164411112 -0.1700515036
0.101306322 -0.0002360965678 0.03624724014
0.3708725071 -0.2967753355 -0.8799874907
0.1116385389 0.0104710195 0.03258093169
0.1418307244 -0.7122172746 -0.6874813447
0.1144630861 0.01141699744 0.0304792493
-0.3934353163 -0.8607504052 -0.3229820302
0.1151826134 0.01652569544 0.0247214084
0.6775334579 0.5391701028 -0.5002439542
0.09989088789 -0.001614548738 0.03651223202
-0.727868334 0.1994949884 -0.6560559717
0.09870393749 -0.004145920984 0.0449328901
-0.9319084959 -0.3625097911 0.01154152155
0.1011942128 -0.008170330923 0.03823456086
-0.8208207177 -0.5710713839 0.01143782731
0.1007420772 -0.002922105419 0.05011044755
0.9208782503 0.3757059104 0.1040591993
0.109044393 0.009198461105 0.03322918931
0.1804520032 -0.5449063593 -0.8188492744
0.09856695007 -0.00288822761 0.04134259334
-0.9982042807 -0.05760967583 0.01641156011
0.09982047764 -0.003032349942 0.03631341336
-0.5364837574 -0.04981621502 -0.8424390321
0.100562821 -0.00300184752 0.03627871925
0.3180075758 -0.002506624897 -0.9480848583
0.1009133392 -0.007047627413 0.05463068425
-0.856777034 -0.1054189965 0.5047969386
0.1013929056 -0.006624658726 0.05482668386
-0.1967264441 0.8301214495 0.5217251051
0.09870737915 -0.002901384483 0.04498641754
-0.9983224637 -0.05781181593 0.003170562322
0.09806693899 -0.002840353974 0.05068428251
-0.970486804 -0.05118627545 0.2356593483
0.0992510448 -0.002922342877 0.05204251651
-0.3820712689 -0.001967813094 0.9241307663
0.09877335656 -0.002899374201 0.05174045095
-0.6075133235 -0.01799562826 0.7941056096
0.1007423955 -0.002922935293 0.05011117497
-0.4976189516 0.8632393575 -0.08481267979
0.1004987187 -0.002948492666 0.05158156209
0.8159949054 0.06013559653 0.5749226248
0.09907032695 -0.004553384784 0.03951965701
-0.8790723375 -0.4735572225 0.05454706702
3 0 1 2
3 3 4 5
3 6 7 8
3 9 10 11
3 12 13 14
3 15 16 17
3 18 8 19
3 20 21 22
3 23 24 25
3 26 27 28
3 12 14 29
3 3 30 31
3 13 12 32
3 33 34 35
3 36 37 38
3 39 40 41
3 42 43 44
3 12 45 41
3 46 47 48
3 49 15 50
3 14 51 52
3 53 54 55
3 56 57 58
3 59 60 61
3 62 63 64
3 65 66 67
3 68 69 70
3 71 72 73
3 74 29 52
3 52 51 40
3 39 41 75
3 45 75 41
3 76 77 78
3 79 80 81
3 10 82 83
3 47 84 85
3 86 87 88
3 89 90 91
3 29 74 92
3 74 52 93
3 94 95 96
3 97 98 99
3 100 101 102
3 103 104 105
3 106 107 108
3 106 108 104
3 109 46 110
3 26 111 112
3 113 114 115
3 116 117 118
3 50 119 120
3 121 122 123
3 12 92 45
3 119 124 30
3 125 126 127
3 128 60 71
3 94 96 129
3 130 94 129
3 131 132 133
3 134 135 136
3 137 103 105
3 138 139 90
3 140 141 142
3 103 143 104
3 144 145 146
3 147 104 148
3 148 149 147
3 55 150 151
3 105 104 152
3 75 153 154
3 155 156 157
3 154 39 75
3 158 120 159
3 109 160 161
3 162 163 164
3 165 166 167
3 168 169 23
3 170 131 171
3 172 173 174
3 175 130 176
3 129 176 130
3 177 178 179
3 24 180 181
3 19 182 183
3 175 184 130
3 14 13 185
3 186 187 188
3 181 59 189
3 106 147 149
3 155 107 106
3 190 191 125
3 192 193 187
3 194 37 195
3 38 196 197
3 132 198 194
3 199 200 93
3 48 85 201
3 182 135 202
3 45 153 75
3 163 162 203
3 204 175 176
3 89 205 206
3 89 2 207
3 208 209 210
3 74 93 200
3 110 211 109
3 212 213 83
3 87 214 215
3 137 143 103
3 6 8 18
3 107 152 108
3 127 216 217
3 152 96 95
3 199 93 218
3 219 220 221
3 23 25 168
3 46 222 223
3 86 20 87
3 209 224 225
3 85 204 176
3 204 226 227
3 97 228 124
3 78 77 229
3 230 231 232
3 233 139 234
3 184 196 235
3 236 44 237
3 238 156 149
3 156 239 149
3 148 238 149
3 117 240 241
3 138 242 243
3 244 245 45
3 59 246 247
3 86 24 21
3 244 248 245
3 60 249 72
3 225 224 250
3 197 196 227
3 143 137 235
3 251 252 240
3 124 253 254
3 247 255 25
3 148 256 238
3 120 257 50
3 118 83 213
3 258 153 245
3 248 259 260
3 199 218 261
3 206 205 262
3 142 141 188
3 236 263 264
3 202 265 203
3 204 85 84
3 266 71 267
3 240 117 268
3 188 269 186
3 38 235 196
3 270 271 272
3 273 178 133
3 256 148 143
3 2 89 206
3 274 275 157
3 217 216 276
3 157 156 238
3 277 67 278
3 192 279 69
3 267 21 23
3 120 280 257
3 281 282 283
3 217 284 190
3 162 285 286
3 287 17 100
3 288 216 127
3 289 290 261
3 260 261 290
3 289 122 290
3 122 121 290
3 19 291 292
3 70 69 97
3 123 122 197
3 128 284 293
3 294 136 102
3 36 38 197
3 171 295 296
3 92 244 45
3 297 102 136
3 253 44 254
3 298 299 300
3 246 59 61
3 282 281 62
3 153 258 154
3 1 258 167
3 166 1 167
3 154 258 301
3 301 302 154
3 54 303 144
3 195 304 132
3 301 305 302
3 136 68 297
3 264 306 283
3 247 246 159
3 260 165 248
3 258 1 301
3 307 308 296
3 290 309 260
3 191 119 310
3 122 289 311
3 197 122 311
3 26 28 140
3 269 312 279
3 172 275 313
3 313 275 274
3 128 293 61
3 221 220 82
3 256 314 157
3 314 274 157
3 99 315 253
3 210 225 316
3 7 298 300
3 317 289 261
3 289 317 311
3 279 186 269
3 36 311 317
3 60 72 71
3 218 93 318
3 138 319 161
3 84 309 121
3 320 213 63
3 94 137 95
3 117 62 268
3 160 109 321
3 223 222 174
3 42 322 323
3 324 325 326
3 48 327 172
3 318 40 39
3 313 325 172
3 258 245 167
3 225 210 209
3 133 171 131
3 328 310 219
3 12 41 32
3 109 211 250
3 329 330 224
3 224 330 250
3 50 257 49
3 151 150 144
3 59 249 60
3 331 271 163
3 96 201 129
3 195 36 317
3 297 79 287
3 27 26 332
3 278 67 66
3 312 98 279
3 87 73 214
3 166 2 1
3 207 2 166
3 144 333 334
3 305 262 195
3 279 192 187
3 335 336 337
3 37 36 195
3 54 179 178
3 20 86 21
3 229 338 339
3 340 229 339
3 316 174 341
3 292 142 18
3 2 206 262
3 305 0 262
3 37 342 76
3 29 14 52
3 301 0 305
3 302 218 318
3 287 81 17
3 116 320 117
3 231 230 341
3 64 5 4
3 338 229 77
3 228 99 253
3 0 2 262
3 187 186 279
3 50 81 80
3 184 235 137
3 48 222 46
3 93 52 40
3 341 174 173
3 78 235 38
3 29 92 12
3 73 72 214
3 265 135 134
3 264 282 236
3 161 160 334
3 343 64 63
3 57 42 344
3 79 68 70
3 123 197 227
3 14 185 51
3 345 190 284
3 86 180 24
3 157 238 256
3 66 269 346
3 347 55 337
3 205 304 195
3 80 79 119
3 82 220 212
3 188 6 142
3 248 167 245
3 280 348 49
3 22 71 73
3 270 272 26
3 335 177 336
3 41 40 51
3 280 158 293
3 349 159 120
3 350 351 198
3 134 136 294
3 91 304 205
3 48 172 222
3 281 268 62
3 119 349 120
3 293 276 348
3 348 140 352
3 277 306 34
3 334 160 321
3 327 152 107
3 30 3 310
3 353 255 349
3 43 237 44
3 161 319 354
3 305 195 317
3 185 13 32
3 213 116 118
3 133 355 356
3 286 285 183
3 172 324 173
3 34 67 277
3 171 337 295
3 240 268 281
3 98 315 99
3 260 259 199
3 91 90 233
3 45 245 153
3 58 344 312
3 5 357 3
3 11 10 278
3 338 358 339
3 211 223 359
3 161 334 242
3 215 360 88
3 174 316 359
3 112 361 26
3 135 68 136
3 241 362 117
3 345 353 191
3 17 81 50
3 275 172 327
3 292 112 111
3 356 233 234
3 22 267 71
3 193 299 6
3 304 91 355
3 121 226 84
3 363 208 364
3 365 322 366
3 287 79 81
3 90 139 233
3 240 252 241
3 91 233 355
3 314 256 229
3 333 242 334
3 200 244 92
3 363 367 358
3 44 315 42
3 11 188 141
3 104 108 152
3 193 6 188
3 220 368 212
3 58 312 269
3 286 203 162
3 95 105 152
3 24 189 25
3 337 369 295
3 213 320 116
3 370 371 372
3 362 241 252
3 271 270 164
3 246 61 293
3 168 25 255
3 208 358 329
3 89 354 319
3 283 240 281
3 342 373 329
3 214 360 215
3 124 31 30
3 316 225 359
3 374 210 316
3 316 230 374
3 270 26 361
3 374 230 232
3 353 349 191
3 8 182 19
3 139 243 234
3 35 263 33
3 227 196 175
3 146 145 375
3 198 342 194
3 126 288 127
3 360 214 180
3 209 208 329
3 374 364 210
3 63 62 320
3 350 308 376
3 234 273 377
3 377 356 234
3 154 302 318
3 345 168 353
3 219 310 3
3 285 291 183
3 115 114 342
3 196 184 175
3 378 364 374
3 263 35 264
3 57 56 366
3 343 5 64
3 210 364 208
3 9 288 10
3 376 151 144
3 65 379 380
3 54 178 273
3 146 376 144
3 263 236 381
3 231 173 324
3 351 350 376
3 351 376 146
3 284 266 345
3 361 164 270
3 115 351 382
3 344 98 312
3 382 321 113
3 244 200 259
3 114 330 373
3 330 329 373
3 328 221 126
3 257 280 49
3 217 190 127
3 131 198 132
3 170 198 131
3 373 342 114
3 350 170 308
3 202 135 265
3 277 278 118
3 330 114 113
3 113 321 330
3 209 329 224
3 356 377 133
3 145 321 382
3 293 348 280
3 303 333 144
3 308 307 151
3 54 53 179
3 150 55 54
3 219 357 220
3 369 307 295
3 308 170 296
3 295 307 296
3 177 133 178
3 177 335 133
3 9 276 216
3 171 133 335
3 53 347 179
3 85 48 47
3 179 336 177
3 336 179 347
3 358 367 383
3 79 124 119
3 332 26 294
3 337 171 335
3 369 337 55
3 322 57 366
3 378 384 363
3 346 269 188
3 184 94 130
3 111 140 142
3 69 98 97
3 143 148 104
3 18 19 292
3 273 243 333
3 384 378 385
3 362 386 277
3 378 374 385
3 67 379 65
3 11 348 9
3 49 348 352
3 56 269 380
3 183 203 286
3 140 348 141
3 126 221 288
3 16 101 100
3 87 215 88
3 220 357 368
3 353 168 255
3 324 172 325
3 228 97 99
3 3 357 219
3 168 345 169
3 31 236 282
3 307 369 55
3 338 329 358
3 156 155 239
3 284 276 293
3 155 106 239
3 115 342 351
3 138 90 319
3 22 73 20
3 306 386 387
3 354 207 161
3 189 59 247
3 15 49 352
3 98 69 279
3 170 350 198
3 265 271 331
3 101 332 294
3 287 102 297
3 76 342 329
3 97 79 70
3 327 48 152
3 42 315 344
3 337 336 347
3 165 309 166
3 50 15 17
3 266 128 71
3 329 338 77
3 234 243 273
3 152 201 96
3 387 251 283
3 7 135 8
3 306 277 386
3 31 4 3
3 18 142 6
3 104 147 106
3 47 207 84
3 0 301 1
3 376 308 151
3 180 214 72
3 207 47 46
3 226 121 123
3 283 306 387
3 322 42 57
3 107 155 327
3 118 117 362
3 34 306 35
3 31 124 254
3 218 305 261
3 133 132 355
3 260 309 165
3 331 203 265
3 235 78 143
3 111 26 140
3 110 223 211
3 85 129 201
3 309 84 207
3 200 199 259
3 5 368 357
3 242 333 243
3 129 85 176
3 207 166 309
3 310 125 191
3 249 181 180
3 382 351 375
3 276 284 217
3 250 330 321
3 27 101 16
3 212 368 343
3 233 356 355
3 218 302 305
3 212 83 82
3 53 55 347
3 86 360 180
3 290 121 309
3 37 194 342
3 256 143 78
3 77 76 329
3 165 167 248
3 36 197 311
3 345 266 169
3 363 383 367
3 299 298 6
3 274 372 313
3 374 232 385
3 341 173 231
3 112 291 285
3 119 191 349
3 300 68 135
3 349 255 159
3 11 346 188
3 112 285 162
3 266 284 128
3 247 25 189
3 164 163 271
3 267 169 266
3 9 216 288
3 158 280 120
3 340 339 388
3 11 278 346
3 162 361 112
3 386 252 387
3 219 221 328
3 228 253 124
3 124 79 97
3 361 162 164
3 344 58 57
3 8 135 182
3 159 255 247
3 387 252 251
3 203 182 202
3 30 310 119
3 293 158 246
3 80 119 50
3 300 69 68
3 65 380 269
3 37 76 78
3 205 89 91
3 382 113 115
3 346 278 66
3 307 55 151
3 275 155 157
3 46 109 161
3 343 63 213
3 296 170 171
3 222 172 174
3 239 106 149
3 105 95 137
3 183 291 19
3 132 194 195
3 354 89 207
3 320 62 117
3 83 118 278
3 110 46 223
3 256 78 229
3 139 138 243
3 135 7 300
3 359 225 250
3 31 254 236
3 226 204 84
3 377 273 133
3 58 269 56
3 291 112 292
3 150 54 144
3 375 351 146
3 125 310 328
3 242 138 161
3 62 64 4
3 154 318 39
3 321 109 250
3 145 144 334
3 79 297 68
3 10 288 82
3 230 316 341
3 59 181 249
3 299 193 192
3 141 348 11
3 94 184 137
3 318 93 40
3 37 78 38
3 226 123 227
3 269 66 65
3 262 205 195
3 299 192 69
3 249 180 72
3 32 41 51
3 298 7 6
3 368 5 343
3 145 334 321
3 261 305 317
3 51 185 32
3 261 260 199
3 300 299 69
3 342 198 351
3 250 211 359
3 161 207 46
3 223 174 359
3 294 26 272
3 292 111 142
3 155 275 327
3 132 304 355
3 378 363 364
3 74 200 92
3 208 363 358
3 315 98 344
3 90 89 319
3 48 201 152
3 190 345 191
3 204 227 175
3 277 118 362
3 303 54 273
3 248 244 259
3 375 145 382
3 339 358 383
3 340 389 229
3 303 273 333
3 389 314 229
3 127 190 125
3 348 276 9
3 193 188 187
3 100 102 287
3 323 43 42
3 61 60 128
3 278 10 83
3 372 274 314
3 16 28 27
3 101 294 102
3 20 73 87
3 283 251 240
3 390 372 314
3 15 28 16
3 352 28 15
3 134 294 265
3 140 28 352
3 392 326 325
3 283 282 264
3 288 221 82
3 328 126 125
3 23 169 267
3 282 62 31
3 183 182 203
3 254 44 236
3 265 294 272
3 158 159 246
3 35 306 264
3 24 181 189
3 253 315 44
3 332 101 27
3 343 213 212
3 331 163 203
3 17 16 100
3 88 360 86
3 21 24 23
3 362 252 386
3 31 62 4
3 372 390 370
3 372 371 393
3 393 392 325
3 22 21 267
3 265 272 271
3 314 389 391
3 339 383 388
3 56 380 363
3 340 388 379
3 379 383 380
3 340 379 67
3 340 67 389
3 236 237 324
3 231 43 323
3 43 231 237
3 324 326 381
3 380 383 394
3 365 363 384
3 323 232 231
3 324 381 236
3 363 366 56
3 370 33 371
3 392 381 326
3 231 324 237
3 322 385 232
3 363 380 394
3 384 385 365
3 363 394 383
3 33 370 390
3 322 232 323
3 365 385 322
3 390 391 34
3 365 366 363
3 389 67 34
3 393 371 33
3 381 392 393
3 34 391 389
3 379 388 383
3 391 390 314
3 313 372 393
3 313 393 325
3 33 390 34
3 263 393 33
3 263 381 393
