ply
format ascii 1.0
element vertex 157
property double x
property double y
property double z
element face 310
property list uchar int vertex_indices
end_header
0.1243056849 -0.008498613765 0.0466186812
0.1245223821 -0.007514684624 0.04690092345
0.1249948312 -0.006850446111 0.04650023239
0.1245265597 -0.006670233532 0.04679416088
0.1235569533 -0.008687106306 0.04712708436
0.1235471807 -0.0073419279 0.04710208553
0.1226018042 -0.009809923829 0.04698435357
0.12229703 -0.00829829815 0.04702186339
0.1250981854 -0.006679660254 0.04591002382
0.1242616246 -0.007798738749 0.04591323104
0.1246399602 -0.006600298256 0.04573223002
0.1245994901 -0.006374894888 0.04615147261
0.1238289127 -0.008935186916 0.04597821182
0.1235163465 -0.006985610339 0.04628305961
0.1227426112 -0.010078374 0.04609912374
0.1225020544 -0.007501325927 0.04642564389
0.121928327 -0.01008146599 0.04617871339
0.121593066 -0.009234661003 0.04642883163
0.1210897233 -0.008645539718 0.0463110698
0.1214553959 -0.008091654467 0.04640508444
0.1228813664 -0.009208503356 0.04527071669
0.1227217478 -0.007863138356 0.0456692409
0.1221219762 -0.009658234581 0.04491632798
0.1220277887 -0.007800871323 0.04580786255
0.1214850685 -0.009762512331 0.04475847536
0.1213975315 -0.009727368497 0.04556547734
0.1211078725 -0.008126842276 0.04588246468
0.1200935923 -0.008985511556 0.04539695002
0.1204326184 -0.008524554057 0.04557002687
0.1218575402 -0.009014806708 0.04465031276
0.1211057151 -0.008335634285 0.04502305704
0.1205881112 -0.009593957248 0.04481172047
0.1199262546 -0.008316697485 0.04464086781
0.1192769995 -0.008548766035 0.04465786282
0.1193148004 -0.00918219433 0.04489871216
0.1211935536 -0.009433282809 0.0437567616
0.1209325844 -0.008797039146 0.04375991187
0.1206296821 -0.01007152395 0.04376607316
0.1202336096 -0.008196786346 0.04402412398
0.1196156317 -0.009844934629 0.04415784014
0.1182279284 -0.00975017966 0.04421829765
0.1180935362 -0.009154329297 0.04442312618
0.1205103973 -0.01011629463 0.04257177589
0.119329106 -0.00735448725 0.04189544091
0.119368789 -0.01072684019 0.0433548636
0.1178556314 -0.008117926269 0.043255809
0.1175889407 -0.009570098369 0.04389003933
0.1173140815 -0.008914872339 0.04359329971
0.1199152624 -0.01084042832 0.0424349451
0.1187228953 -0.01152099444 0.04212296076
0.1181256309 -0.01074294909 0.04270357139
0.1183701285 -0.007070914803 0.04173244872
0.1172006936 -0.009313074596 0.04332813978
0.1191554848 -0.01092213069 0.04081717504
0.1199056239 -0.007883145279 0.04129451826
0.1188580637 -0.01152175174 0.04161188627
0.1174391504 -0.01001433052 0.0418212443
0.1173383907 -0.007714337023 0.04138438934
0.1199029869 -0.009109703848 0.04100701816
0.117358045 -0.01143740974 0.04049134945
0.1176275116 -0.007122634928 0.04142163207
0.1170388195 -0.01077566771 0.0404644718
0.1174019744 -0.008907637882 0.04030118499
0.1197840846 -0.007814152646 0.04025441755
0.1196212892 -0.009402564661 0.03989391341
0.1193447329 -0.006965313818 0.04043216838
0.1189671421 -0.01119442732 0.03890572974
0.1182838368 -0.006378021878 0.04059520388
0.1179764607 -0.01179031328 0.03985319963
0.1171389595 -0.006373535138 0.04044465353
0.116963287 -0.007331332789 0.0407141049
0.1199772439 -0.009435262012 0.03804287152
0.119515027 -0.006578344418 0.03918765595
0.1183200451 -0.006325274051 0.03946165168
0.1171790183 -0.01205867725 0.03875732417
0.1170401537 -0.006170417442 0.03979409166
0.1172107861 -0.008817555571 0.03982038527
0.1164926136 -0.006844335636 0.04010908623
0.1204700134 -0.008097028365 0.03677971177
0.1198989988 -0.007278634906 0.03877878665
0.1185978022 -0.01220968394 0.03812320489
0.1176406089 -0.01231679759 0.03842823487
0.1168566316 -0.01153765047 0.03881467567
0.1162587926 -0.008798443666 0.03856993707
0.1158346056 -0.007433278152 0.03920509154
0.1157512647 -0.006566020158 0.03887999614
0.1146055191 -0.00689010842 0.03832848739
0.1199706562 -0.007149857473 0.03709362019
0.1198100587 -0.01151445544 0.03748019744
0.1192182677 -0.006431979418 0.03770038983
0.1184042033 -0.006433633396 0.03680264788
0.1182703525 -0.01248835349 0.03763570225
0.116611831 -0.009875598746 0.03839523635
0.1163655306 -0.00629543477 0.03821303513
0.1150573037 -0.008292126977 0.03754595653
0.113900544 -0.007662011755 0.03754147742
0.1207324456 -0.01229250083 0.03609521581
0.1208032688 -0.01066669822 0.03652005136
0.1196620084 -0.01303566284 0.03629589036
0.1178641809 -0.0122643477 0.03723315975
0.1174142615 -0.01145963176 0.03670052307
0.1161873174 -0.009194171537 0.03757281964
0.1148788608 -0.006405183419 0.03802176826
0.1129511449 -0.006523681881 0.03803551622
0.1133739896 -0.006351668319 0.03801147465
0.1214513997 -0.01103946888 0.03543642797
0.1209235501 -0.0100479029 0.03579996019
0.1203816314 -0.01286483022 0.03551883191
0.1206455802 -0.008997433879 0.03614992201
0.1202475312 -0.007964659429 0.03612714821
0.1194318325 -0.007118974172 0.03601525424
0.1192826312 -0.01321086473 0.03536612202
0.1167819556 -0.01023356067 0.0368333476
0.1141589223 -0.006338104804 0.03726067431
0.1152494262 -0.00883716699 0.03639596032
0.1121199252 -0.006910891925 0.03739159504
0.1121058684 -0.006222399757 0.03745186367
0.1215896145 -0.01114241068 0.03469864275
0.1214063494 -0.01055400323 0.0345875036
0.1209508879 -0.01224553373 0.03471991781
0.1202864668 -0.01259367205 0.03415331975
0.1191371572 -0.01295789148 0.03426903828
0.1185767023 -0.007169776481 0.03546477876
0.1179902495 -0.01213245341 0.03412646375
0.1172330293 -0.01098371449 0.03419031268
0.1170641672 -0.01084698687 0.03530713406
0.1164873495 -0.0101423509 0.03485217669
0.1140905466 -0.006736789593 0.03630648826
0.1122742929 -0.007250128827 0.0368462842
0.1123661322 -0.006562226098 0.03690593324
0.121198195 -0.01129301973 0.03403710781
0.1189665784 -0.008133020646 0.03493046058
0.1184032558 -0.008344020529 0.03464849253
0.1145547964 -0.007254122214 0.03558159603
0.114889174 -0.008468112017 0.03544888288
0.1128917427 -0.00729903972 0.03616926385
0.1207558105 -0.01135318344 0.03370390165
0.1195425223 -0.0121482562 0.03355485738
0.1194071841 -0.01250988273 0.03365250512
0.1185864654 -0.01237704984 0.03382141385
0.1178817703 -0.01178295053 0.0339615877
0.1170934616 -0.008834826437 0.03373191995
0.1166164087 -0.00792260265 0.03451966477
0.1171605377 -0.01055713603 0.03420838661
0.1165121472 -0.009859587696 0.03384133895
0.1163408174 -0.009448899862 0.03409517831
0.1152020953 -0.008001867968 0.03480348477
0.1157721909 -0.008718977475 0.03449040158
0.1168302201 -0.009037339998 0.03362948996
0.1206288504 -0.01011720535 0.03517836511
0.1199451983 -0.009276218064 0.03539361734
0.1201241203 -0.01142140463 0.03367302434
0.1193425528 -0.01079360245 0.0344018682
0.1176831222 -0.01067724896 0.03406304082
0.117582759 -0.009961643592 0.03417470286
0.1184076871 -0.01158352692 0.03388569977
0.1175931602 -0.008956649122 0.03405043782
3 1 2 3
3 1 4 0
3 5 1 3
3 133 90 122
3 4 1 5
3 7 4 5
3 14 4 6
3 85 84 77
3 9 8 1
3 2 8 11
3 147 142 148
3 11 3 2
3 0 12 9
3 3 11 13
3 14 12 4
3 3 13 5
3 55 48 49
3 13 15 5
3 14 6 16
3 7 5 15
3 17 16 6
3 84 83 76
3 18 17 7
3 15 19 7
3 18 7 19
3 10 8 9
3 142 122 141
3 10 13 11
3 12 14 20
3 12 20 9
3 9 13 10
3 21 13 9
3 22 20 14
3 15 13 21
3 16 22 14
3 22 16 24
3 23 15 21
3 24 16 25
3 84 85 86
3 16 17 25
3 23 19 15
3 19 23 26
3 17 27 25
3 27 17 18
3 18 19 26
3 27 18 28
3 26 28 18
3 101 112 92
3 29 21 20
3 21 29 30
3 23 21 30
3 25 31 24
3 30 26 23
3 25 27 31
3 26 30 28
3 28 32 27
3 34 27 33
3 156 154 148
3 35 22 24
3 35 29 22
3 36 29 35
3 35 24 37
3 30 29 36
3 24 31 37
3 38 30 36
3 39 37 31
3 30 38 32
3 39 31 34
3 34 40 39
3 33 41 34
3 40 34 41
3 42 35 37
3 73 89 90
3 43 38 36
3 37 39 44
3 39 40 44
3 45 33 32
3 51 38 43
3 40 41 46
3 45 41 33
3 45 47 41
3 46 41 47
3 37 48 42
3 49 48 44
3 44 48 37
3 32 38 51
3 97 96 105
3 45 32 51
3 40 52 50
3 40 46 52
3 47 52 46
3 53 42 48
3 53 48 55
3 27 32 33
3 50 52 56
3 120 119 107
3 4 12 0
3 58 42 53
3 58 35 42
3 35 58 54
3 9 1 0
3 49 50 59
3 50 56 59
3 57 52 47
3 45 51 60
3 56 57 62
3 45 60 57
3 56 52 57
3 79 71 78
3 58 64 63
3 63 54 58
3 64 58 53
3 65 54 63
3 54 65 43
3 66 53 68
3 43 65 67
3 6 4 7
3 68 55 59
3 43 67 51
3 153 149 152
3 59 56 61
3 67 69 51
3 61 56 62
3 137 120 138
3 112 82 92
3 57 60 70
3 63 64 79
3 63 72 65
3 66 64 53
3 67 65 73
3 74 68 59
3 67 73 75
3 50 44 40
3 57 76 62
3 75 69 67
3 57 70 76
3 70 60 77
3 69 77 60
3 79 72 63
3 71 64 66
3 68 80 66
3 68 81 80
3 74 81 68
3 74 59 82
3 82 59 61
3 34 31 27
3 76 70 84
3 84 70 77
3 85 77 75
3 73 65 72
3 76 61 62
3 78 87 79
3 66 88 71
3 80 88 66
3 72 79 89
3 72 89 73
3 91 80 81
3 82 61 92
3 76 92 61
3 83 92 76
3 75 73 93
3 94 83 84
3 28 30 32
3 93 85 75
3 94 84 95
3 84 86 95
3 96 97 88
3 88 97 71
3 98 96 88
3 20 21 9
3 98 88 80
3 80 91 98
3 129 113 127
3 11 8 10
3 99 91 81
3 100 99 74
3 74 82 100
3 73 90 93
3 100 82 112
3 68 53 55
3 83 101 92
3 94 101 83
3 85 93 102
3 1 8 2
3 74 99 81
3 102 104 86
3 104 103 86
3 106 97 105
3 78 97 106
3 78 106 108
3 109 78 108
3 107 96 98
3 54 36 35
3 109 87 78
3 110 87 109
3 89 87 110
3 89 110 90
3 91 111 98
3 111 91 99
3 139 123 140
3 123 100 124
3 93 90 113
3 101 94 114
3 113 102 93
3 103 95 86
3 113 104 102
3 115 95 103
3 104 113 116
3 116 103 104
3 115 103 116
3 117 118 105
3 96 119 117
3 105 96 117
3 105 118 106
3 119 96 107
3 107 111 120
3 98 111 107
3 121 111 123
3 90 110 122
3 99 123 111
3 60 51 69
3 100 125 124
3 112 125 100
3 125 112 126
3 112 101 126
3 59 55 49
3 101 114 126
3 127 113 90
3 114 94 128
3 95 128 94
3 115 128 95
3 116 113 129
3 100 123 99
3 115 129 128
3 129 115 116
3 7 17 6
3 117 130 118
3 119 130 117
3 119 120 130
3 155 139 140
3 120 111 121
3 131 110 109
3 110 131 122
3 131 132 122
3 127 90 133
3 126 114 134
3 128 134 114
3 134 128 135
3 135 127 133
3 127 135 129
3 128 129 135
3 136 118 130
3 130 120 136
3 137 136 120
3 75 77 69
3 121 138 120
3 138 121 139
3 89 79 87
3 139 137 138
3 137 139 155
3 139 121 123
3 132 141 122
3 123 124 140
3 47 45 57
3 124 125 143
3 143 125 126
3 126 144 143
3 126 145 144
3 122 142 133
3 102 86 85
3 147 145 126
3 126 134 147
3 146 147 134
3 135 146 134
3 135 133 146
3 142 141 148
3 144 145 148
3 147 148 145
3 146 142 147
3 29 20 22
3 50 49 44
3 118 149 106
3 106 149 108
3 108 149 150
3 79 64 71
3 71 97 78
3 133 142 146
3 108 150 109
3 109 150 131
3 118 151 149
3 152 149 151
3 150 149 153
3 154 131 150
3 131 154 132
3 136 151 118
3 151 136 137
3 155 151 137
3 152 151 155
3 153 152 155
3 43 36 54
3 150 153 154
3 132 156 141
3 155 140 153
3 156 132 154
3 140 124 153
3 143 153 124
3 143 154 153
3 156 148 141
3 144 154 143
3 148 154 144
