ply
format ascii 1.0
element vertex 157
property double x
property double y
property double z
element face 310
property list uchar int vertex_indices
end_header
0.1257764689 -0.003382077049 0.05077478351
0.1257872957 -0.00238346201 0.05102747336
0.1262834299 -0.001676250178 0.05075114481
0.1257558962 -0.001518775812 0.050907283
0.124976648 -0.003540494097 0.05102375155
0.1248820071 -0.002195137768 0.05096207891
0.1244149503 -0.004766070217 0.05061596341
0.123761821 -0.003061810569 0.05061127524
0.1265940201 -0.00155651143 0.05017999513
0.1259598937 -0.002715610643 0.05004959238
0.1262548861 -0.001525196947 0.04985097081
0.1260379481 -0.001277755626 0.05023385459
0.1256976814 -0.003912974949 0.0500509031
0.1250981168 -0.001839658984 0.05015564268
0.1249176537 -0.005170193962 0.04994804443
0.1241123574 -0.002323001566 0.05005457619
0.1241671493 -0.005160681387 0.04975677736
0.1234881617 -0.004135813621 0.04987313867
0.1228564501 -0.003449365135 0.04964874556
0.1230825783 -0.002852440622 0.04981355253
0.1251584409 -0.004251925701 0.04912623987
0.1246518071 -0.002742578353 0.04938413831
0.1246469841 -0.004766285177 0.048633064
0.1238973699 -0.002645712937 0.04933639782
0.1240988036 -0.004890935137 0.04835359976
0.1237811161 -0.004763236192 0.04905356
0.1229360413 -0.002923554886 0.04922020169
0.1223315173 -0.003959051331 0.04858521484
0.1224685385 -0.003410566104 0.048785024
0.1243102223 -0.00408939196 0.04829670032
0.1232480499 -0.003233855561 0.04841893581
0.1231807925 -0.004704155825 0.04817769603
0.1222693633 -0.003365352975 0.04776979921
0.1217444853 -0.003670824795 0.04767246574
0.1218687534 -0.004361758441 0.04796158995
0.1240618557 -0.004714957569 0.04732157211
0.1236582109 -0.004015952652 0.04719960824
0.1236856014 -0.005432086333 0.04724649064
0.1227579052 -0.003329157611 0.04720050249
0.1226293712 -0.005211136604 0.04730419392
0.1213634784 -0.00525740251 0.04698885089
0.1209736794 -0.004537380346 0.0471632866
0.1239624487 -0.00569203343 0.04601620143
0.1226397936 -0.002991821504 0.04467980739
0.1228635506 -0.006337207256 0.04650645958
0.1210629524 -0.003605927002 0.04578534451
0.1208790453 -0.005174161874 0.04646310762
0.1206003474 -0.004467408811 0.04606357341
0.1236077635 -0.006496837275 0.04576993781
0.1227140685 -0.007289768234 0.04512808808
0.1219728238 -0.006545621999 0.04548710305
0.1217993899 -0.002691603213 0.04424108888
0.1207022907 -0.005007184257 0.04576825301
0.1233758632 -0.00678849984 0.04390315469
0.1234468647 -0.003642159045 0.0442957572
0.1229577443 -0.007310227127 0.0446543516
0.1215252138 -0.005883932306 0.04436897124
0.1211683146 -0.003426338648 0.04368184459
0.1237558504 -0.004944941157 0.04414102941
0.1218602625 -0.007432401494 0.04308675607
0.1212691767 -0.002761811158 0.04373630924
0.1215325891 -0.006798030156 0.04292781721
0.1216909161 -0.004851101182 0.04272374111
0.123627446 -0.003745913129 0.0431806386
0.1238232416 -0.005404030328 0.04293136042
0.1230208981 -0.002791579668 0.04314193467
0.1236322966 -0.00723741427 0.04189896168
0.1218965448 -0.002083811887 0.04298490202
0.1225642789 -0.007782214367 0.04263847356
0.1209618464 -0.002050562914 0.04254335655
0.1209373617 -0.003037199256 0.04284053372
0.1246030082 -0.005522657115 0.04114220583
0.1234897415 -0.002556324761 0.04186764864
0.1221720376 -0.00205739732 0.04183908844
0.1220834719 -0.008069560952 0.0413237764
0.1209847532 -0.001881522752 0.04185652341
0.1216060197 -0.004784189405 0.04216764469
0.1205820492 -0.002523287776 0.04207354918
0.125249019 -0.004126262899 0.03988326388
0.1240773084 -0.003341236965 0.04163584151
0.123527856 -0.00819968993 0.04108775111
0.122595003 -0.008310750372 0.04113066243
0.121771973 -0.00758066534 0.0412587887
0.1210275386 -0.004704860416 0.04063364973
0.1202854816 -0.003128784411 0.04105623477
0.120149235 -0.002118770385 0.04069052327
0.1192803725 -0.002329415738 0.03997900225
0.124643397 -0.003160188426 0.03994484804
0.1247198698 -0.007497043507 0.04074836145
0.1236393429 -0.002394217627 0.04024903401
0.1230269536 -0.002258896696 0.03911388244
0.1233409698 -0.008478972455 0.04052062097
0.1215064171 -0.005887792827 0.04064642433
0.1208114056 -0.001897697548 0.04013609975
0.120019263 -0.004034289235 0.039295775
0.1188685665 -0.003186868117 0.03907557192
0.1259583825 -0.008278456111 0.03972613026
0.1257870318 -0.006655280678 0.03998972359
0.1249581506 -0.009027008725 0.0396446402
0.1230185806 -0.008282893452 0.03997612079
0.1226576229 -0.007541457061 0.03924781985
0.1212003008 -0.005129782809 0.03963819291
0.119533288 -0.001854392861 0.03973188501
0.1178924004 -0.001925777499 0.03944020304
0.1182480837 -0.001781895554 0.03950662091
0.1266341039 -0.007056270347 0.03915918033
0.1260082561 -0.006076834829 0.03924105273
0.1258034495 -0.008863914524 0.03910080796
0.1256160223 -0.005061205415 0.03939737626
0.1251801784 -0.004017239419 0.03915276137
0.1243560832 -0.003112892185 0.03868718175
0.1248086958 -0.009239387683 0.0386107179
0.1219805988 -0.006264973175 0.03910828855
0.1190451468 -0.001732845645 0.03894246879
0.1205145071 -0.004635291903 0.03821993049
0.1173424197 -0.002256155925 0.03870592597
0.117310494 -0.001696349997 0.03882748085
0.1269497269 -0.007195563708 0.03850206434
0.1267841982 -0.00662289074 0.03826732605
0.1264584241 -0.008284387642 0.03843789382
0.1260200584 -0.008660465047 0.03771886152
0.1249305379 -0.009047215307 0.03747175988
0.1236717186 -0.00313012587 0.03788635127
0.1238487476 -0.008300614326 0.03687095753
0.1230516444 -0.007138267251 0.03661911229
0.1226163901 -0.006967844739 0.03767801971
0.1221562911 -0.006243459294 0.03700280473
0.119201438 -0.002028269179 0.03801216103
0.1175962196 -0.002601238539 0.03821127735
0.1176460912 -0.001930798519 0.03835369155
0.1267831387 -0.007379126988 0.03775764566
0.1242887722 -0.004196664481 0.03758891168
0.1238549331 -0.004387207467 0.03717648303
0.1198036293 -0.002547135861 0.03732313104
0.1203401176 -0.00416629435 0.03720745652
0.1182260124 -0.002639204942 0.03768741134
0.1264764846 -0.007476608981 0.03729706616
0.1254682276 -0.008288476337 0.0368356226
0.1253408596 -0.008641859945 0.0369220296
0.1245079678 -0.008537664918 0.03679001772
0.1237650194 -0.007966130225 0.03663630969
0.1228455196 -0.004875561415 0.03591580949
0.1221026266 -0.003757454016 0.03652417437
0.122945515 -0.006702584255 0.03656761785
0.1223664611 -0.00596189285 0.03593467515
0.1221100852 -0.005498922768 0.03613246158
0.1206913091 -0.003564709818 0.03659014557
0.1213958565 -0.004546660022 0.0363912061
0.1226322434 -0.005092186604 0.03576107751
0.1258791821 -0.006188551221 0.03854769478
0.1251506715 -0.005387733785 0.03845888324
0.1259076308 -0.007555431933 0.0370712511
0.1249373127 -0.006906959953 0.03745501075
0.1234939452 -0.006837745148 0.03657842945
0.1233204121 -0.006110994429 0.03658220949
0.1242581353 -0.007757108044 0.0367149106
0.1232821663 -0.005042714916 0.03637975818
3 1 2 3
3 1 4 0
3 5 1 3
3 133 90 122
3 4 1 5
3 7 4 5
3 14 4 6
3 85 84 77
3 9 8 1
3 2 8 11
3 147 142 148
3 11 3 2
3 0 12 9
3 3 11 13
3 14 12 4
3 3 13 5
3 55 48 49
3 13 15 5
3 14 6 16
3 7 5 15
3 17 16 6
3 84 83 76
3 18 17 7
3 15 19 7
3 18 7 19
3 10 8 9
3 142 122 141
3 10 13 11
3 12 14 20
3 12 20 9
3 9 13 10
3 21 13 9
3 22 20 14
3 15 13 21
3 16 22 14
3 22 16 24
3 23 15 21
3 24 16 25
3 84 85 86
3 16 17 25
3 23 19 15
3 19 23 26
3 17 27 25
3 27 17 18
3 18 19 26
3 27 18 28
3 26 28 18
3 101 112 92
3 29 21 20
3 21 29 30
3 23 21 30
3 25 31 24
3 30 26 23
3 25 27 31
3 26 30 28
3 28 32 27
3 34 27 33
3 156 154 148
3 35 22 24
3 35 29 22
3 36 29 35
3 35 24 37
3 30 29 36
3 24 31 37
3 38 30 36
3 39 37 31
3 30 38 32
3 39 31 34
3 34 40 39
3 33 41 34
3 40 34 41
3 42 35 37
3 73 89 90
3 43 38 36
3 37 39 44
3 39 40 44
3 45 33 32
3 51 38 43
3 40 41 46
3 45 41 33
3 45 47 41
3 46 41 47
3 37 48 42
3 49 48 44
3 44 48 37
3 32 38 51
3 97 96 105
3 45 32 51
3 40 52 50
3 40 46 52
3 47 52 46
3 53 42 48
3 53 48 55
3 27 32 33
3 50 52 56
3 120 119 107
3 4 12 0
3 58 42 53
3 58 35 42
3 35 58 54
3 9 1 0
3 49 50 59
3 50 56 59
3 57 52 47
3 45 51 60
3 56 57 62
3 45 60 57
3 56 52 57
3 79 71 78
3 58 64 63
3 63 54 58
3 64 58 53
3 65 54 63
3 54 65 43
3 66 53 68
3 43 65 67
3 6 4 7
3 68 55 59
3 43 67 51
3 153 149 152
3 59 56 61
3 67 69 51
3 61 56 62
3 137 120 138
3 112 82 92
3 57 60 70
3 63 64 79
3 63 72 65
3 66 64 53
3 67 65 73
3 74 68 59
3 67 73 75
3 50 44 40
3 57 76 62
3 75 69 67
3 57 70 76
3 70 60 77
3 69 77 60
3 79 72 63
3 71 64 66
3 68 80 66
3 68 81 80
3 74 81 68
3 74 59 82
3 82 59 61
3 34 31 27
3 76 70 84
3 84 70 77
3 85 77 75
3 73 65 72
3 76 61 62
3 78 87 79
3 66 88 71
3 80 88 66
3 72 79 89
3 72 89 73
3 91 80 81
3 82 61 92
3 76 92 61
3 83 92 76
3 75 73 93
3 94 83 84
3 28 30 32
3 93 85 75
3 94 84 95
3 84 86 95
3 96 97 88
3 88 97 71
3 98 96 88
3 20 21 9
3 98 88 80
3 80 91 98
3 129 113 127
3 11 8 10
3 99 91 81
3 100 99 74
3 74 82 100
3 73 90 93
3 100 82 112
3 68 53 55
3 83 101 92
3 94 101 83
3 85 93 102
3 1 8 2
3 74 99 81
3 102 104 86
3 104 103 86
3 106 97 105
3 78 97 106
3 78 106 108
3 109 78 108
3 107 96 98
3 54 36 35
3 109 87 78
3 110 87 109
3 89 87 110
3 89 110 90
3 91 111 98
3 111 91 99
3 139 123 140
3 123 100 124
3 93 90 113
3 101 94 114
3 113 102 93
3 103 95 86
3 113 104 102
3 115 95 103
3 104 113 116
3 116 103 104
3 115 103 116
3 117 118 105
3 96 119 117
3 105 96 117
3 105 118 106
3 119 96 107
3 107 111 120
3 98 111 107
3 121 111 123
3 90 110 122
3 99 123 111
3 60 51 69
3 100 125 124
3 112 125 100
3 125 112 126
3 112 101 126
3 59 55 49
3 101 114 126
3 127 113 90
3 114 94 128
3 95 128 94
3 115 128 95
3 116 113 129
3 100 123 99
3 115 129 128
3 129 115 116
3 7 17 6
3 117 130 118
3 119 130 117
3 119 120 130
3 155 139 140
3 120 111 121
3 131 110 109
3 110 131 122
3 131 132 122
3 127 90 133
3 126 114 134
3 128 134 114
3 134 128 135
3 135 127 133
3 127 135 129
3 128 129 135
3 136 118 130
3 130 120 136
3 137 136 120
3 75 77 69
3 121 138 120
3 138 121 139
3 89 79 87
3 139 137 138
3 137 139 155
3 139 121 123
3 132 141 122
3 123 124 140
3 47 45 57
3 124 125 143
3 143 125 126
3 126 144 143
3 126 145 144
3 122 142 133
3 102 86 85
3 147 145 126
3 126 134 147
3 146 147 134
3 135 146 134
3 135 133 146
3 142 141 148
3 144 145 148
3 147 148 145
3 146 142 147
3 29 20 22
3 50 49 44
3 118 149 106
3 106 149 108
3 108 149 150
3 79 64 71
3 71 97 78
3 133 142 146
3 108 150 109
3 109 150 131
3 118 151 149
3 152 149 151
3 150 149 153
3 154 131 150
3 131 154 132
3 136 151 118
3 151 136 137
3 155 151 137
3 152 151 155
3 153 152 155
3 43 36 54
3 150 153 154
3 132 156 141
3 155 140 153
3 156 132 154
3 140 124 153
3 143 153 124
3 143 154 153
3 156 148 141
3 144 154 143
3 148 154 144
