ply
format ascii 1.0
element vertex 288
property double x
property double y
property double z
element face 588
property list uchar int vertex_indices
end_header
0.1437592259 -0.0005771794415 0.08643177117
0.1442395879 -0.0005252388396 0.08674365983
0.1431964578 0.001252384389 0.08745355186
0.1441339825 0.001424518921 0.08786749089
0.1411605732 0.01027379026 0.06105867155
0.1413209232 0.009920939666 0.06356000499
0.1412912431 0.008917913254 0.05934797913
0.1452829378 0.01207718655 0.0719023799
0.1451751559 0.01306879688 0.07084670649
0.144589329 0.01167028549 0.07234459006
0.1408662926 -0.01059695242 0.0568500047
0.1403646244 -0.01007359474 0.05536419789
0.1422294914 -0.0104670059 0.0589420031
0.1411143806 -0.009126090258 0.05744518833
0.1405766626 -0.008787321775 0.05679920962
0.1406862467 -0.009217835611 0.05749446055
0.1393817668 0.004517234981 0.06684497516
0.1397493617 0.004985838109 0.06826554597
0.1399415895 0.004540327134 0.06808556952
0.1446888847 -0.0005041124277 0.08630359673
0.1403148461 0.006778932415 0.05698870256
0.1398990239 0.00683006395 0.05703609145
0.1436649204 -0.0006612084651 0.08480298353
0.1387055317 -0.004414851378 0.06605101726
0.1395277402 -0.008630528206 0.06630347511
0.1400896021 -0.006674010909 0.0672007919
0.1446656296 0.008621152393 0.08316644694
0.1448514461 0.006706728043 0.08494035732
0.145701026 0.006985754188 0.08389158172
0.1410875469 -0.01162659142 0.06586423364
0.1404395934 -0.009416994936 0.06815268534
0.1417326771 0.01029068546 0.06652724692
0.1395906194 0.007356208012 0.06763050962
0.1409183309 0.00872177661 0.07041267028
0.1406046271 0.009292780327 0.05884546524
0.140159157 0.009696116021 0.06062963365
0.1439084587 0.00426554619 0.08568909411
0.1393229108 0.004455804012 0.06233343876
0.1397794327 0.003562752948 0.06105712583
0.140732451 0.008206901672 0.06143228232
0.1452420002 0.004730765631 0.08230373276
0.1453561037 0.008779387508 0.08190316225
0.1474311508 -0.009239984994 0.08221978197
0.1472252877 -0.007335140344 0.08416148865
0.1469417692 -0.009196447234 0.08358284758
0.1442749909 0.009240586634 0.06889110399
0.1446943248 0.01020218808 0.07256242805
0.1425164908 0.005921828699 0.07225325033
0.1432559793 0.003735072926 0.0809874028
0.1457623634 0.01270859254 0.06968434818
0.1457463186 -0.008678191039 0.07794267508
0.1455630918 -0.009022788696 0.07797187332
0.1464729453 -0.009336757696 0.0769441863
0.1404234522 0.003758753096 0.06922091727
0.144592544 0.01002834791 0.08164923478
0.1478097591 -0.01313277324 0.06990100624
0.1469727382 -0.0141006291 0.06920507246
0.1461695823 -0.01348445593 0.06784148211
0.1457888394 -0.01441102504 0.06610248711
0.1445970822 -0.01252274309 0.06704508802
0.145274454 -0.006525476111 0.07676798786
0.1431916653 -0.00748959175 0.07268846012
0.1433315102 -0.004246898362 0.07296777914
0.1447897456 0.008077982746 0.07870302564
0.1454153463 0.009740613346 0.08041711167
0.1407802739 -0.007654922079 0.06844485268
0.1408963076 -0.0056751526 0.06946843461
0.1454532692 -0.01034271866 0.06930337881
0.1426762821 -0.01185988728 0.06399086587
0.1418364068 -0.010379594 0.06188832792
0.1429205195 -0.01147198765 0.06644673289
0.1436502302 -0.01137588556 0.06727048075
0.1425419389 0.006890224379 0.0751542125
0.1429738657 0.001518101501 0.07683401796
0.1432124955 0.006722682381 0.07751094639
0.1448778627 0.009953308232 0.07900629511
0.1393887789 0.006962866621 0.05657732144
0.1377839985 0.006816318418 0.0554967754
0.1388666424 0.004966887181 0.0562315472
0.1429034706 0.005166799084 0.07911688237
0.1452647996 -0.01423812911 0.06816521008
0.1445139352 -0.01422020804 0.06640298144
0.1455984637 -0.01489303234 0.06692092686
0.1461811322 -0.009880928414 0.07745113855
0.1453770949 -0.009557550327 0.07743022304
0.1392495983 0.001401197053 0.06999650234
0.139972369 0.00569587432 0.06987133207
0.1389091978 0.00433441678 0.05828161727
0.1384509554 0.004629057604 0.05332741269
0.1387251978 0.003893734518 0.05242683923
0.139543846 0.004226444439 0.06602404268
0.1392856008 0.00551177522 0.06657673
0.1385858945 -0.002957700635 0.04939069076
0.1377270428 -0.001842796188 0.04842331278
0.139264396 -0.002707525165 0.04949473817
0.145953612 -0.005591478851 0.08249228641
0.145142345 -0.0032088591 0.08350769503
0.1463063543 -0.008850396958 0.07909781431
0.144280973 0.007938137509 0.07752068992
0.1441954704 0.00815538097 0.07851928075
0.144497589 0.007702822929 0.07750482076
0.1413755534 -0.009997686252 0.06079427785
0.1404092468 -0.00585880222 0.06131224329
0.1399399519 -0.003579450652 0.0546522472
0.1392948785 -0.006525780895 0.05270998779
0.1395315468 -0.006788959023 0.05864431415
0.1471106743 -0.01066528927 0.07599643425
0.1407377273 0.01023340798 0.06566658644
0.1415980717 -0.01158023987 0.05939298815
0.1424674115 -0.01239368528 0.06150202155
0.1413234653 -0.0119068634 0.06117296898
0.1395229741 -0.001176038244 0.06903959213
0.1391259091 0.002551610651 0.06803298276
0.1383077227 0.0021576772 0.06595255924
0.1400701631 -0.007747240664 0.06711642942
0.1405120106 -0.008011968612 0.06663866837
0.1401341622 -0.009430374392 0.05705591175
0.1446649417 0.009073553934 0.0770374234
0.1440674494 0.008443763359 0.07695210055
0.1451658779 0.008676145186 0.0765099427
0.144208124 -0.01335826592 0.06703476491
0.1442559651 -0.01353507448 0.0658491105
0.1407768805 -0.007030818446 0.05500062022
0.1397155102 -0.008037662912 0.05413504515
0.1409293852 -0.005917376197 0.0535705229
0.1392992914 -0.01073625451 0.0560008354
0.140329294 -0.01025409958 0.05731246636
0.1446609771 0.005470961978 0.07641280354
0.1451780476 -0.0006398123056 0.0767809788
0.1430465804 0.002731850107 0.07278913247
0.1452817496 0.01023496629 0.07563147178
0.1422722381 -0.01005368127 0.06763885528
0.1418777775 0.002018529197 0.07379490427
0.141092313 -0.005089052972 0.05699442217
0.1444154001 0.008070751726 0.07459084941
0.1476541033 -0.01012282518 0.08068065069
0.14649396 -0.007292066458 0.08515587001
0.1393816826 -0.008412923914 0.06465475727
0.1391574801 -0.00670648891 0.06037492851
0.140455199 -0.01025293108 0.06204720476
0.1390149195 -0.007646328554 0.05475881919
0.1390370531 -0.007260189929 0.05366341202
0.142151951 -0.01212154935 0.06621790713
0.1427338654 -0.01281449984 0.06450475464
0.1446798383 0.0106008106 0.07380183316
0.1412647689 0.006201192614 0.07169514727
0.1452861181 -0.01504768475 0.06569472419
0.1438493016 -0.0140471172 0.06484681092
0.1387647531 -0.001135976048 0.06217735106
0.1387652239 -0.001129626589 0.06217392575
0.1387656072 -0.001135947073 0.06217287044
0.1449163064 -0.01368815186 0.06568483267
0.141272139 0.008255253305 0.05845535696
0.1395451749 -0.004650169053 0.06823398048
0.1406086462 -0.009439751726 0.05892045778
0.1397016377 0.005796067559 0.06604064717
0.146482432 -0.01124231263 0.07434688072
0.1467807319 -0.01219896387 0.07281624872
0.1475169356 -0.01231570073 0.07229932547
0.1469720126 -0.01058104021 0.07927041826
0.1433055582 0.01306593195 0.0674526498
0.1425343975 0.01188187339 0.06626875819
0.1455735705 -0.0006746994492 0.08007183412
0.1451375506 0.00117015891 0.08097391061
0.1397558114 0.0009922719575 0.05452857625
0.1393913774 0.002685611424 0.05169589098
0.1391176838 0.0003060623744 0.05104955088
0.1393532624 -0.0001506266596 0.05220044153
0.1452635849 -0.009140527641 0.07524873774
0.1443240585 0.01240505965 0.06722053415
0.1430908576 0.01107363626 0.06644732715
0.1439319414 0.01310589095 0.06538904344
0.146254322 -0.01084050042 0.07315123777
0.1401373371 0.005583314048 0.0679545194
0.1471204231 -0.01060566205 0.08200681087
0.1396522771 -0.001161777871 0.07021519012
0.1384011801 0.007274730266 0.0541427494
0.1384080296 0.005019406739 0.05439458305
0.1403613057 0.007740824625 0.06029104561
0.1376540275 -0.001466898199 0.04907525982
0.1376322429 -0.001980828166 0.04910399897
0.1404212138 -0.007049462252 0.06865033613
0.14053316 0.002346847027 0.06799060454
0.1415196246 -0.007802007791 0.05841082537
0.1456397979 -0.009259778673 0.07896542
0.1394919779 -0.00749588307 0.05661441531
0.1408517881 -0.008589595066 0.05743535402
0.1436030409 0.01374355939 0.06605757407
0.1435358437 -0.008483185384 0.07562500809
0.1443047752 -0.008196186632 0.07794642817
0.1430581212 -0.003165940554 0.07698487156
0.1400540813 0.008166028505 0.05627019796
0.1393553836 -0.003166601634 0.05107711041
0.1399258688 -0.00350035319 0.05073422623
0.1399399676 -0.005286069951 0.05189195371
0.1391639004 -0.009919238523 0.05463867967
0.1384537652 -0.009535824384 0.05597859452
0.1423422051 0.009755898452 0.06671012856
0.1412503226 0.008270737459 0.06710690372
0.1430403256 0.002075116755 0.08138275849
0.1434217261 -0.0007965073847 0.07667177
0.1387655634 -0.001142282096 0.06217405544
0.1390982791 -0.005215562049 0.06143456939
0.1402271812 -0.00640020105 0.06637004703
0.1404362313 0.003371099611 0.05329285807
0.1390535786 0.005433129715 0.05379874857
0.1397723961 0.007092717047 0.05846973577
0.1449152529 0.01333570554 0.06868903163
0.1422022757 -0.01264289191 0.06346191451
0.1386819329 0.006214901764 0.06580777227
0.1436731771 -0.006740371137 0.0794764353
0.1422607482 -0.01112097526 0.05981550002
0.1431036169 -0.01205557004 0.06719956107
0.1406399975 -0.007772290984 0.07024309159
0.1420186566 -0.01038967397 0.07087472736
0.1404089453 -0.004763361885 0.05142883656
0.1433146856 0.0137637739 0.06484964459
0.1432198455 0.01221493859 0.06497970169
0.1426839266 0.0128269393 0.06559260448
0.1426225733 0.01198681188 0.0651152953
0.1416048585 0.00966117755 0.06586619211
0.1406057106 -0.006596512374 0.06839233017
0.1388569249 -0.001397710499 0.04929564977
0.1376573081 -0.001065315855 0.04842804175
0.1421864701 0.01238398475 0.06414428447
0.1412703454 0.01090248565 0.06399944384
0.1449319842 0.002099080356 0.08339713397
0.1411413001 -0.003080444008 0.05245640734
0.1425701597 -0.000805110515 0.07361879292
0.1435780093 -0.005289667149 0.08130836981
0.1447528085 -0.005331380237 0.08594507234
0.1417190502 -0.001732631621 0.05721153639
0.1407180069 0.005511978837 0.05800858546
0.139074899 0.003059061798 0.06454191039
0.1420177531 -0.003739517364 0.07394563664
0.1393931623 -0.003611171786 0.07023406594
0.1420293462 -0.007977611141 0.07209227392
0.1415873728 -0.0005608744197 0.05719431365
0.1406549267 0.002769915758 0.05680074336
0.1408470146 0.000559722163 0.05242046914
0.1398671536 0.002166774212 0.05128534086
0.1407603539 0.01063728331 0.0629794639
0.1389931103 -0.000132845623 0.04953197378
0.1383449049 4.886178707e-05 0.04939186029
0.1398547803 0.006341533804 0.05635508901
0.1409258078 -0.004336339072 0.06812712313
0.140088714 0.006214016354 0.05701334337
0.1431035559 -0.003715932512 0.08158827123
0.1434766388 -0.002401949243 0.0877356504
0.1394938617 0.007816868993 0.05675848845
0.1451758362 -0.002506584637 0.08102259995
0.1387541498 -0.001187225373 0.06753777604
0.138275825 0.001236421311 0.06403597905
0.1385338154 0.008122858228 0.05543476794
0.1396294503 0.007544506417 0.05483033457
0.140267522 0.004525533106 0.05467951326
0.1396206169 0.009693864546 0.06535813915
0.1394746771 -0.00265594535 0.05223561555
0.1399299232 -0.006836817565 0.0626279234
0.139375044 0.007980598661 0.06153872002
0.1386445269 0.002837193895 0.06118404201
0.1385672702 0.004275293783 0.0599918876
0.1396272139 0.000705802198 0.05069105939
0.1385487332 -0.003506253049 0.06411756253
0.147653368 -0.01346047476 0.07120022379
0.1375598508 -0.0009588395271 0.04911666514
0.1408992356 -0.001790659294 0.06295108619
0.1396539401 -0.00531525295 0.06468723041
0.1422245859 -0.0008072944101 0.07005821026
0.1384932665 0.006037131314 0.06416076773
0.1407035201 -0.001318828601 0.05140576278
0.1438681203 -0.0006717350922 0.07295475383
0.1394191892 -0.001420710993 0.05226119985
0.1381392637 -0.001471257043 0.04999562065
0.1407847907 -0.0001498724015 0.06287891012
0.1397465073 -0.001277574067 0.05595794296
0.1387657813 -0.001135990314 0.06216698467
0.1409002437 -0.0009636412833 0.06304072951
0.1439273105 -0.0008073708022 0.08121072783
0.1453962306 -0.0005698357729 0.08420981479
0.143452962 -0.0007461814567 0.08322179045
0.1416423686 -0.001161208982 0.05706088168
0.1409989028 -0.001065067704 0.0599384735
0.138446284 -0.001139291384 0.06418564704
0.1376085319 -0.001470300917 0.04911537623
0.1444980428 -0.002388106325 0.08807811507
0.1407406213 -0.001042958819 0.06830677217
0.1409681801 -0.0009598373938 0.06415424401
3 0 1 2
3 1 3 2
3 4 5 6
3 7 8 9
3 10 11 12
3 13 14 15
3 16 17 18
3 3 1 19
3 0 2 22
3 23 24 25
3 26 27 28
3 29 30 24
3 31 32 33
3 34 35 4
3 36 27 26
3 37 38 39
3 40 41 28
3 42 43 44
3 41 26 28
3 45 46 47
3 36 26 48
3 7 45 49
3 50 51 52
3 53 45 47
3 26 41 54
3 55 56 57
3 57 58 59
3 60 61 62
3 63 64 40
3 65 66 67
3 68 69 70
3 71 67 59
3 72 73 74
3 54 64 75
3 76 77 78
3 75 79 54
3 55 57 67
3 80 81 82
3 83 52 84
3 85 86 17
3 87 88 89
3 90 91 16
3 92 93 94
3 43 95 96
3 98 99 63
3 98 63 100
3 79 99 74
3 74 73 79
3 101 12 102
3 103 104 105
3 106 52 83
3 32 31 107
3 108 109 110
3 111 112 113
3 114 65 115
3 117 118 119
3 81 120 121
3 122 123 124
3 125 10 126
3 82 58 57
3 74 118 72
3 127 128 129
3 130 117 119
3 71 70 131
3 73 72 132
3 124 133 122
3 47 134 127
3 97 95 135
3 44 43 136
3 137 138 139
3 36 2 3
3 140 141 123
3 134 47 46
3 142 29 143
3 144 7 9
3 127 129 47
3 72 9 145
3 58 146 147
3 148 149 150
3 151 147 121
3 152 34 6
3 23 25 153
3 60 97 50
3 154 110 139
3 37 39 155
3 49 8 7
3 156 157 158
3 85 145 86
3 97 135 159
3 33 160 161
3 162 63 163
3 149 87 164
3 84 52 51
3 165 166 167
3 168 60 156
3 51 97 184
3 169 170 171
3 68 70 143
3 11 13 12
3 67 61 172
3 48 79 73
3 173 45 53
3 44 174 42
3 156 158 172
3 112 111 175
3 91 90 155
3 77 176 177
3 49 45 169
3 58 151 59
3 38 178 39
3 17 86 32
3 179 93 180
3 173 17 91
3 17 32 91
3 16 112 17
3 25 181 153
3 53 182 90
3 102 183 133
3 159 184 97
3 105 141 185
3 29 142 30
3 183 186 122
3 119 100 127
3 4 6 34
3 187 160 169
3 188 189 190
3 191 34 152
3 192 193 194
3 195 125 196
3 197 45 198
3 199 73 200
3 63 40 163
3 201 105 202
3 203 25 114
3 14 185 116
3 91 155 173
3 204 89 205
3 49 169 207
3 208 109 68
3 91 32 209
3 16 91 209
3 113 16 209
3 189 210 190
3 101 211 12
3 30 142 212
3 213 30 214
3 14 186 105
3 9 8 160
3 18 90 16
3 194 193 215
3 197 31 170
3 187 171 216
3 217 170 161
3 170 31 161
3 24 137 29
3 63 162 127
3 187 216 218
3 161 219 217
3 197 220 31
3 65 181 221
3 222 179 223
3 224 218 216
3 225 107 220
3 40 226 163
3 141 140 185
3 215 124 194
3 54 79 48
3 198 173 155
3 151 120 59
3 227 124 215
3 175 228 132
3 87 78 88
3 70 69 131
3 201 103 105
3 229 190 210
3 214 120 80
3 96 230 43
3 171 224 216
3 224 171 217
3 133 227 231
3 217 219 224
3 69 211 101
3 5 225 220
3 118 98 119
3 38 232 152
3 144 72 118
3 90 233 37
3 234 235 236
3 237 238 38
3 145 33 86
3 239 240 204
3 141 104 123
3 12 211 108
3 132 145 85
3 225 5 241
3 166 242 243
3 244 78 87
3 62 66 245
3 138 105 154
3 117 130 144
3 136 43 230
3 198 155 39
3 195 123 11
3 24 23 137
3 39 178 6
3 196 140 195
3 87 206 246
3 236 214 157
3 120 151 121
3 233 90 182
3 163 226 162
3 159 210 184
3 235 181 213
3 247 230 248
3 6 5 39
3 220 198 39
3 241 5 4
3 109 108 211
3 35 34 249
3 126 110 154
3 110 29 139
3 184 189 51
3 95 250 96
3 251 113 252
3 243 242 223
3 170 169 45
3 221 203 66
3 221 66 65
3 38 238 232
3 249 34 191
3 20 152 246
3 226 28 36
3 21 246 206
3 253 191 254
3 244 87 246
3 153 181 235
3 63 75 64
3 129 182 53
3 83 156 106
3 232 255 246
3 66 61 67
3 191 152 254
3 211 69 68
3 21 20 246
3 244 246 255
3 256 209 32
3 21 76 244
3 253 77 76
3 253 249 191
3 144 130 127
3 82 81 146
3 41 40 64
3 104 257 194
3 258 115 69
3 64 54 41
3 254 20 244
3 122 14 11
3 257 104 103
3 253 254 176
3 206 259 35
3 14 105 185
3 88 78 177
3 114 115 203
3 238 237 239
3 180 93 92
3 239 204 238
3 27 36 28
3 102 69 101
3 205 177 176
3 177 205 88
3 143 208 68
3 188 236 157
3 254 255 205
3 88 205 89
3 240 165 204
3 57 56 80
3 204 165 89
3 210 189 184
3 260 261 87
3 242 262 239
3 166 165 262
3 252 260 149
3 160 187 218
3 166 262 242
3 100 119 98
3 137 263 202
3 262 240 239
3 264 56 55
3 179 265 223
3 266 102 231
3 180 92 192
3 71 59 212
3 267 102 266
3 247 190 229
3 192 94 193
3 147 146 81
3 208 29 110
3 181 30 213
3 231 102 133
3 182 129 268
3 37 233 38
3 265 166 243
3 241 35 256
3 226 36 3
3 109 208 110
3 123 195 140
3 9 72 144
3 185 140 196
3 127 162 128
3 28 226 40
3 144 46 7
3 10 12 108
3 35 259 256
3 75 63 99
3 199 22 2
3 261 259 206
3 204 255 238
3 116 154 15
3 236 213 214
3 127 100 63
3 176 77 253
3 167 164 89
3 269 261 260
3 99 98 74
3 180 192 257
3 199 2 36
3 173 18 17
3 145 132 72
3 244 76 78
3 261 206 87
3 112 85 17
3 164 87 89
3 258 102 267
3 209 256 269
3 219 218 224
3 71 212 70
3 269 259 261
3 256 32 107
3 251 111 113
3 126 116 125
3 129 53 47
3 270 222 242
3 120 81 80
3 75 99 79
3 90 37 155
3 102 12 183
3 78 77 177
3 187 169 171
3 129 271 268
3 107 225 256
3 86 33 32
3 31 33 161
3 51 50 97
3 89 165 167
3 128 271 129
3 263 201 202
3 8 49 207
3 67 172 158
3 272 167 273
3 199 48 73
3 227 133 124
3 135 42 174
3 85 112 175
3 242 239 270
3 212 214 30
3 225 241 256
3 18 53 90
3 192 92 94
3 83 84 156
3 4 35 241
3 130 119 127
3 45 7 46
3 254 152 20
3 144 134 46
3 246 152 232
3 206 249 76
3 255 204 205
3 33 9 160
3 18 173 53
3 255 254 244
3 156 172 168
3 26 54 48
3 175 132 85
3 209 269 113
3 214 80 157
3 156 60 106
3 165 240 262
3 178 38 152
3 117 144 118
3 145 9 33
3 223 242 222
3 274 237 38
3 82 57 80
3 121 147 81
3 232 238 255
3 178 152 6
3 65 114 181
3 169 160 207
3 132 228 73
3 265 167 166
3 11 123 122
3 239 237 270
3 199 36 48
3 274 233 182
3 125 195 11
3 70 212 142
3 5 220 39
3 233 274 38
3 207 160 8
3 137 202 138
3 171 170 217
3 269 260 252
3 220 107 31
3 197 198 220
3 265 243 223
3 197 170 45
3 44 229 174
3 198 45 173
3 113 112 16
3 230 44 136
3 249 253 76
3 134 144 127
3 249 206 35
3 218 219 161
3 154 116 126
3 252 113 269
3 269 256 259
3 176 254 205
3 164 167 275
3 276 150 149
3 149 260 87
3 161 160 218
3 74 98 118
3 174 159 135
3 203 115 258
3 156 84 188
3 110 126 108
3 237 274 277
3 126 10 108
3 143 70 142
3 194 257 192
3 190 234 188
3 13 186 12
3 147 151 58
3 105 104 141
3 278 199 200
3 221 25 203
3 52 60 50
3 138 154 139
3 59 67 57
3 73 228 200
3 71 131 67
3 226 279 162
3 61 60 168
3 25 221 181
3 95 43 42
3 125 11 10
3 97 250 95
3 247 229 230
3 158 55 67
3 20 21 244
3 157 156 188
3 14 122 186
3 276 149 275
3 131 65 67
3 267 245 203
3 186 183 12
3 252 149 148
3 236 188 234
3 226 3 279
3 183 122 133
3 125 116 196
3 22 199 280
3 199 278 280
3 149 164 275
3 212 120 214
3 55 158 264
3 235 213 236
3 203 258 267
3 3 19 279
3 143 29 208
3 281 237 282
3 124 123 104
3 193 227 215
3 266 245 267
3 11 14 13
3 42 135 95
3 283 148 263
3 76 21 206
3 180 257 284
3 59 120 212
3 159 174 210
3 158 157 264
3 25 24 114
3 157 80 264
3 263 137 23
3 131 115 65
3 82 146 58
3 114 24 30
3 66 203 245
3 137 139 29
3 94 227 193
3 106 60 52
3 230 285 248
3 181 114 30
3 168 172 61
3 116 185 196
3 282 277 231
3 245 266 286
3 131 69 115
3 174 229 210
3 189 84 51
3 105 186 154
3 109 211 68
3 251 252 283
3 189 188 84
3 258 69 102
3 230 229 44
3 56 264 80
3 286 287 274
3 96 285 230
3 124 104 194
3 182 268 286
3 202 105 138
3 273 167 284
3 167 265 284
3 265 179 284
3 167 272 275
3 62 61 66
3 182 286 274
3 274 287 277
3 237 281 270
3 283 252 148
3 282 237 277
3 285 279 19
3 175 234 228
3 0 22 248
3 60 128 162
3 245 268 62
3 231 270 281
3 266 287 286
3 251 283 263
3 278 200 247
3 96 162 279
3 128 62 271
3 251 263 23
3 60 62 128
3 180 284 179
3 276 201 150
3 94 270 227
3 247 248 22
3 93 222 94
3 162 250 97
3 245 286 268
3 175 235 234
3 227 270 231
3 97 60 162
3 103 275 257
3 234 190 228
3 247 200 190
3 222 93 179
3 250 162 96
3 0 248 1
3 235 175 153
3 62 268 271
3 190 200 228
3 96 279 285
3 277 266 231
3 148 150 201
3 1 248 285
3 272 273 257
3 257 275 272
3 22 280 247
3 201 275 103
3 257 273 284
3 247 280 278
3 153 175 111
3 285 19 1
3 266 277 287
3 111 23 153
3 270 94 222
3 281 282 231
3 251 23 111
3 148 201 263
3 276 275 201
3 15 14 116
3 15 154 186
3 15 186 13
