ply
format ascii 1.0
element vertex 36
property double x
property double y
property double z
element face 68
property list uchar int vertex_indices
end_header
0.1220795856 -0.01212863582 0.05003290546
0.1222843027 -0.01167801419 0.05046050398
0.1224227416 -0.0112422385 0.05003178973
0.1216496395 -0.01101320856 0.05033377021
0.1211113185 -0.01173885874 0.05018013658
0.1198262304 -0.01112709123 0.04971109944
0.1214577008 -0.01168832271 0.04894928351
0.121489758 -0.01093831878 0.04907152179
0.1207942977 -0.01211040665 0.0492926515
0.1206359342 -0.01054324005 0.04947165155
0.1194120434 -0.01202059349 0.04906453776
0.1202003398 -0.01214578645 0.04856121535
0.1199142719 -0.01078045759 0.04822615026
0.1192110342 -0.01234702747 0.04808502089
0.1194308119 -0.01061939578 0.04849524797
0.1182452053 -0.01127345167 0.04832472725
0.1184333615 -0.01066946715 0.04817150274
0.1199349197 -0.01167836041 0.04784122661
0.1193473573 -0.01223993014 0.04726108578
0.1188899199 -0.01166274304 0.04639123762
0.1184819094 -0.0126232647 0.04656352551
0.118229912 -0.0107382932 0.04698336283
0.1170483405 -0.01209089291 0.046897884
0.1173831835 -0.01106960539 0.04721754748
0.1174445564 -0.0107090617 0.045944617
0.1175677588 -0.01260879578 0.04664091771
0.1166144806 -0.01172765099 0.04672423111
0.1179518408 -0.01164813286 0.04570415113
0.1170833221 -0.01184786499 0.04552379195
0.1169876185 -0.01229528264 0.04604568981
0.1165070168 -0.01066756319 0.04608392368
0.1165077063 -0.01211572498 0.04618698586
0.1159507962 -0.01190850637 0.04624548264
0.1159903779 -0.01103666221 0.04625420417
0.1161139235 -0.01085184901 0.04526502086
0.1157839613 -0.01137215834 0.04537389437
3 2 1 0
3 1 2 3
3 0 1 4
3 4 1 3
3 4 3 5
3 6 2 0
3 2 6 7
3 8 6 0
3 2 7 3
3 3 7 9
3 4 8 0
3 10 8 4
3 10 4 5
3 5 3 9
3 13 8 10
3 6 8 11
3 11 8 13
3 25 29 28
3 14 9 12
3 5 9 14
3 5 16 10
3 16 5 14
3 17 6 11
3 17 7 6
3 7 17 12
3 18 11 13
3 18 17 11
3 33 26 23
3 12 17 21
3 20 18 13
3 14 12 21
3 13 15 22
3 16 14 21
3 15 16 23
3 19 17 18
3 17 19 21
3 20 19 18
3 13 22 25
3 23 22 15
3 16 21 23
3 23 26 22
3 19 20 27
3 25 27 20
3 19 27 24
3 27 25 28
3 24 27 34
3 21 24 23
3 25 22 29
3 23 24 30
3 22 31 29
3 22 26 31
3 25 20 13
3 26 32 31
3 32 26 33
3 15 13 10
3 33 23 30
3 21 19 24
3 27 28 34
3 24 34 30
3 28 29 31
3 9 7 12
3 32 28 31
3 28 32 35
3 34 33 30
3 33 35 32
3 33 34 35
3 35 34 28
3 10 16 15
