ply
format ascii 1.0
element vertex 395
property double x
property double y
property double z
property double nx
property double ny
property double nz
element face 786
property list uchar int vertex_indices
end_header
0.1547347659 0.0231073334 0.05000108097
0.7457655137 0.5616543523 -0.3582990192
0.1553500055 0.02277858276 0.05144747456
0.9745526352 0.2088162028 -0.08150432252
0.1545571547 0.02076225006 0.04909581178
0.9072490406 -0.38252087 0.1748626958
0.1422830312 -0.01910859919 0.05615992984
0.3201194766 0.630788282 0.7068448656
0.1376781307 -0.01576487858 0.05646432105
0.4736448636 0.700863652 0.5333391833
0.1382407488 -0.01740770988 0.05769512562
0.2212770155 0.3463007276 0.9116536012
0.1527506283 -0.01928343634 0.03396991537
0.1692437365 -0.04211229018 -0.984674115
0.154043906 -0.01821642003 0.03529416329
-0.05180696614 0.8147208624 -0.5775343753
0.1559982053 -0.01846486678 0.03394223773
-0.2602244547 0.7476021549 -0.6110435755
0.1465639232 -0.02634898834 0.05342617928
-0.1216803134 -0.9867253809 -0.1075496347
0.144295085 -0.02506772699 0.05324318758
-0.4284869841 -0.857693319 -0.2841849309
0.1459117801 -0.02144349008 0.04434643523
-0.4111737952 -0.8439220212 -0.3445747122
0.1544676995 0.02240921861 0.06414317115
0.3250608472 -0.8761994254 0.3558230073
0.1538514322 0.02289301697 0.06558007699
0.4639644261 -0.3461036834 0.8154442051
0.1524642147 0.02287556412 0.06576601887
-0.7764326536 -0.5007879687 0.3825751493
0.1576290963 -0.02381326621 0.04289498716
0.5620809252 -0.8251641821 0.05629481401
0.1600808231 -0.02226793357 0.03903048147
0.7599866708 -0.6295172876 0.161642336
0.1581247039 -0.02272115119 0.0435483779
0.8955507271 0.03373500466 0.4436787628
0.1553932268 -0.01958354533 0.03352607072
-0.3416409091 -0.1478942234 -0.9281211063
0.1577044886 -0.01876973538 0.03197172816
-0.6742995846 0.4258087963 -0.6033298759
0.1559322903 -0.02433334117 0.06505103226
-0.8637176253 0.4345224157 -0.2553079198
0.1565947052 -0.02416558213 0.06317374404
-0.4445442932 0.8734979886 -0.1984480669
0.1556808824 -0.02535825085 0.062627974
-0.9977333114 0.03780830534 -0.05566660957
0.1571436849 -0.02415253038 0.06132500113
-0.2648063827 0.9556969579 -0.1285336702
0.1583580202 -0.02425703897 0.06319389409
0.5437353344 0.838526346 -0.03500647508
0.1576520909 -0.02434575373 0.05908554429
0.3608046206 0.9297712681 -0.07311234325
0.1610099747 -0.02126364041 0.03124753806
0.4027668284 -0.9022836692 -0.1538280281
0.1602944591 -0.02192374485 0.03565769968
0.5500522258 -0.8329817434 0.05986621762
0.1583011845 -0.02255737049 0.03752241979
0.147303698 -0.9735076763 -0.1748840323
0.1534472713 0.02286076176 0.06302338474
-0.7341238165 -0.6630555226 -0.1463543506
0.1432867602 -0.01820856121 0.05363473074
0.3081906943 0.8361688033 0.4536961851
0.1381871629 -0.01473485482 0.0530317579
0.4766358953 0.7877092893 0.3902977055
0.1544919758 0.02357970687 0.06479413639
0.662309942 0.4037985622 0.6311040024
0.126911992 -0.002888003852 0.04693572214
-0.3667224194 0.1452259673 0.918925506
0.1265212551 -0.004406147855 0.04655003002
-0.9580449825 -0.2851323935 0.02914326203
0.1274118419 -0.004194739657 0.04747539011
-0.4771944724 0.4438702234 0.7584620361
0.1439218211 0.02304408663 0.05126117422
-0.343362741 0.8920081985 -0.293978574
0.1438612408 0.01746491545 0.04268233154
-0.5866118284 0.6431479858 -0.4921861753
0.1417256292 0.0215584711 0.05104432217
-0.6080219816 0.6640566224 -0.4351299486
0.1557755298 0.02461130918 0.06202514105
0.6231028002 0.7287728173 0.2839596471
0.1549985808 0.02487930936 0.06238094263
0.1148050568 0.9532348136 0.2795768035
0.1555204499 0.0231600131 0.06370849429
0.8186801011 -0.05443942831 0.571663573
0.1390898167 -0.008433978072 0.03237723441
0.6750820458 0.7329877773 -0.08362505431
0.1370295592 -0.005835155883 0.03517592122
0.6887893591 0.5460717637 0.4768383875
0.1386228489 -0.007774858983 0.03493790696
0.5691837752 0.7610599879 0.3111551461
0.1558753801 0.02286508193 0.06117107759
0.7230520574 -0.6810215781 0.1157813994
0.1414644207 0.01208051178 0.04600887698
0.5428159452 -0.6805970201 0.4920757522
0.1414327424 0.01454930692 0.05212020071
0.4821114076 -0.6382925636 0.6001259816
0.1367130916 0.01045402339 0.05165540696
0.6362859199 -0.5656498037 0.5245765223
0.1569091334 -0.02457650571 0.04667948797
0.6559512584 -0.754507034 -0.02114432035
0.1573806035 -0.02295882981 0.04698116208
0.8922320503 0.3685282236 0.260976851
0.1536742156 0.02442130188 0.06449382109
-0.2073800372 0.9305157101 0.301884139
0.153555489 0.02441181248 0.06253312701
-0.7949683032 0.6060191265 -0.02768059515
0.1605170561 0.01406921482 0.02802493357
0.7395939064 -0.6507423407 0.1718582546
0.1601620654 0.01471246855 0.03025640112
0.7726558071 -0.4908746741 0.4025482059
0.1593785179 0.01343886882 0.02698235296
0.1737991711 -0.9846541486 -0.01581315356
0.1377127631 -0.009706429823 0.03123894936
-0.4230191415 -0.5009425736 -0.7550571792
0.1384611783 -0.008845984346 0.03071497736
0.4377225171 0.2114912777 -0.8738823934
0.1418692892 -0.01339977045 0.03070107318
-0.04071808005 -0.2093614214 -0.9769901909
0.1584072531 -0.02621771114 0.06136907115
0.843607847 -0.5295756118 0.08874385507
0.156822652 -0.02708708414 0.06167674628
0.01976164906 -0.9625744102 0.2702961006
0.1572302318 -0.02717859087 0.06019076244
0.3897741645 -0.9156539884 0.09825413045
0.1323670288 -0.01158003898 0.05692986262
0.1612466759 0.5979551851 0.7851427298
0.1334516921 -0.01525946459 0.05849224226
-0.4975910757 -0.3373440047 0.7991258623
0.1362784109 -0.01614574969 0.05853112551
0.1906716821 0.08043270574 0.9783531517
0.1323081577 -0.00749301953 0.04032030558
-0.606230634 -0.7163437241 -0.345450557
0.1351511196 -0.01248931997 0.04393918217
-0.5664700551 -0.7493871786 -0.3428272645
0.1274664653 -0.005257188789 0.04466541757
-0.6754788325 -0.6044418866 -0.4223486149
0.1527306397 -0.01773240723 0.03898812388
0.1754137928 0.9727445991 0.1516507377
0.146626198 -0.01575645561 0.03398474366
0.5242336831 0.7945587391 -0.3063583776
0.1491540625 -0.0165478465 0.03815899526
0.3695984107 0.926914838 0.06500690719
0.1560647101 -0.02664294204 0.06173318432
-0.7214931381 -0.6732455647 0.1618272573
0.1576887825 -0.02624218769 0.0645619988
0.3246088018 -0.8283893857 0.4565086543
0.156212396 -0.02588197386 0.06468030896
-0.632945503 -0.7665454065 0.108573155
0.1531110072 0.02363820635 0.06052498574
-0.9605861666 -0.2768963698 -0.02454825581
0.1562196521 0.02380748746 0.06142789166
0.9779461467 0.1262062416 0.1664130968
0.1397964651 0.01237994848 0.04014023386
-0.6944406162 0.5798072005 -0.426117168
0.1337023707 0.007902054378 0.04290925385
-0.7159428641 0.5175383335 -0.4685935218
0.133528847 0.009817152593 0.04795118438
-0.6760982517 0.5040000113 -0.5374710622
0.1518221157 -0.01828620009 0.04273972744
0.2659044935 0.9188277194 0.2916340558
0.1563379383 -0.02186609401 0.04670649309
0.4720260866 0.7905570758 0.3901421323
0.1564590167 -0.02062953503 0.04367616042
0.4388034728 0.7965049889 0.4159703293
0.141673237 -0.02313830889 0.05492276993
-0.5367152067 -0.8419242835 0.05568022695
0.1384236142 -0.01927560561 0.05297061271
-0.5406266826 -0.7570068164 -0.3669652163
0.1441678857 0.01757225957 0.05369143471
0.3193636857 -0.4579690016 0.8296211363
0.1402155051 0.01549185872 0.05437337747
0.4405917754 -0.3907446441 0.8082063539
0.1569040363 -0.02371640878 0.06612392328
0.1061906999 0.9794568847 0.1714285457
0.154949709 -0.02423989041 0.06778288549
-0.8793798615 0.3726560939 0.2963418547
0.1563308174 -0.02413396691 0.0676092477
0.3524149274 0.5952743081 0.7221164845
0.1552367219 0.02014992503 0.04527680331
0.9469348787 -0.09541947218 0.3069355956
0.1560913415 0.01974191852 0.04195970757
0.8688297971 0.2602318313 0.421205624
0.1554323504 0.0207373615 0.04115739764
0.3554451206 0.9272685405 -0.1176087582
0.1541197296 0.02258818895 0.06116320634
-0.2267354723 -0.9738401293 -0.01504753052
0.1533687907 0.02488882112 0.05953218936
-0.8609238834 0.5067673692 0.04468669312
0.1337757022 0.01310052524 0.05578757537
-0.5727022819 0.6904820722 0.4418671796
0.1316701233 0.01082517489 0.05650024952
-0.5800004043 0.3618218847 0.7298523514
0.1344338231 0.01203276748 0.056493791
0.1818742294 0.1566974065 0.9707562451
0.1463346046 -0.01521527669 0.03711559973
0.5002121899 0.8593386187 0.1064185295
0.1439016267 -0.01378202523 0.03338335209
0.7085525909 0.6219005089 -0.3334561186
0.1443682489 -0.01327862181 0.03536229926
0.7028680174 0.7112966935 0.005793446457
0.160233704 -0.02121483864 0.03955087213
0.8697952337 0.1885815162 0.4559531371
0.1608052058 -0.02100260003 0.03715204311
0.9590841341 -0.07462100705 0.2731104704
0.1603031356 -0.01929927986 0.03702001311
0.6718140634 0.6687597905 0.3184748135
0.12893857 0.007936456214 0.05455860379
-0.8763605258 0.4759317959 0.07403481957
0.1283523731 0.005858387158 0.05488370194
-0.8386149188 0.2719974129 0.4719559569
0.1302783155 0.00828852498 0.05572912636
-0.6463013138 0.2565229626 0.7186727916
0.1281456312 0.003228941033 0.05423695964
0.03316691627 -0.5587220548 0.8286915115
0.1297516719 0.004067436257 0.05364747542
0.5805067908 -0.5666759354 0.5847138189
0.1289541472 0.005496863193 0.05518280142
-0.2181673603 -0.107589079 0.9699626761
0.1452722028 0.01067041594 0.03599587819
0.6822182396 -0.6835307039 0.2595458542
0.1432395543 0.009233148489 0.03652248612
0.6982267714 -0.5561219785 0.4507856705
0.1589147741 -0.02097032513 0.03206513481
-0.3266075458 -0.8386943319 -0.4357973482
0.1596929336 -0.019425951 0.02746560068
-0.3543364341 -0.7299272439 -0.5845099743
0.1452521198 0.01212750646 0.03050619343
0.6119262022 -0.4483772202 -0.6515398618
0.1446085145 0.01246758205 0.03008379267
0.05803392678 0.2326347203 -0.9708311647
0.1471656576 0.01405556583 0.03172061639
0.1786865211 0.3630315637 -0.9144830293
0.1305065666 -0.01273623445 0.05601846897
-0.7445266042 -0.641563782 0.1845969916
0.1295642901 -0.01091665364 0.05608211998
-0.7640420862 -0.3613947826 0.5344469118
0.1298872806 -0.01165815906 0.05296677834
-0.6487618503 -0.7168679018 -0.2553594976
0.152303522 -0.02081276873 0.0507718899
0.2755558883 0.8959858351 0.3482503924
0.1568444995 -0.02329045128 0.05093012115
0.7904576188 0.6077199301 0.07650646653
0.1479394377 0.02067566736 0.05371840348
0.06725954096 0.004068253602 0.997727219
0.1477666776 0.02256267253 0.0531097246
-0.2026861444 0.6362128577 0.7444135454
0.14473608 0.02147821408 0.05383934061
-0.108740867 0.4630985995 0.8796107724
0.1428962564 -0.01613651403 0.04732690835
0.3599663639 0.8695049015 0.3382091708
0.1504398865 -0.02347689888 0.0557532082
0.04349798971 0.2053964596 0.9777117261
0.1472724758 -0.02447795614 0.05604444344
-0.01918264663 -0.2956766014 0.9550954787
0.1503938075 -0.02534361853 0.05529546451
-0.06755059541 -0.5088597438 0.8581950118
0.1557705489 -0.02713331116 0.05805216475
-0.3185032215 -0.9337879109 0.1630822964
0.1362135904 0.01349578991 0.05565068454
0.2743066191 -0.102244854 0.9561913347
0.1362221111 0.0148448305 0.05561279515
-0.387963328 0.440171706 0.809773626
0.1571002282 0.01726326124 0.03061372213
-0.5011375837 0.6398775215 -0.5825958116
0.1551811631 0.01793717748 0.03345051729
-0.3330237954 0.7908814107 -0.5134216063
0.1592002352 0.01765454092 0.0298334289
0.1872909056 0.9233336251 -0.335226988
0.1606964062 -0.01860384556 0.0342666353
0.4945734985 0.8138883338 0.3049308688
0.1582744101 -0.01801568243 0.03424711005
0.01716345029 0.9995125764 -0.02607729984
0.1585913427 -0.01815429604 0.03684591145
0.2775978069 0.9367228274 0.2132833847
0.130991058 0.01060623857 0.0536533411
-0.7893284776 0.5694751265 -0.2294746931
0.1572750092 0.01711355203 0.03909536786
0.6549419306 -0.4065681224 0.636987778
0.1583832358 0.01816315089 0.0381170385
0.8792074759 0.1090854497 0.4637829008
0.15714445 -0.02160330611 0.03497686263
-0.1299003986 -0.930498749 -0.3424879041
0.1496646364 -0.02073471393 0.03650223701
-0.1838439575 -0.9147682257 -0.3597227995
0.1548206141 -0.02078069511 0.03479011187
-0.161257626 -0.7054730046 -0.6901476783
0.1285832894 0.006614699055 0.05175775063
-0.7904054717 0.4845918844 -0.3747397708
0.1569192084 0.01434837315 0.03319315201
0.2476034279 -0.954218683 0.1678071737
0.1511603093 0.01369537527 0.03529048065
0.4128985464 -0.9080379798 0.07058199182
0.1527524379 0.01422533507 0.03418751153
0.1504795827 -0.9006830594 -0.4075854778
0.1274755513 0.003490202034 0.05411764572
-0.7573951373 -0.1906046012 0.6245178076
0.1269626429 0.004005211502 0.05291318298
-0.9585297439 0.2824743086 -0.03780205031
0.1269199608 0.002633143889 0.05281424163
-0.8764615791 -0.4148026127 0.2444460941
0.1589091321 0.01405091733 0.03035179578
0.3127781575 -0.8888412425 0.3348597763
0.1569220351 0.01437585072 0.03138753843
-0.1740265944 -0.9823791151 -0.06816170976
0.131098744 0.006855937718 0.05550616592
0.276627536 -0.380699072 0.8823522102
0.155964383 0.02376616601 0.05804005339
0.9819172729 0.1318445618 -0.1358509503
0.1557442765 0.02466289584 0.05920150357
0.6966121278 0.7165986796 -0.03489807831
0.128949337 0.001851784412 0.05034868585
0.4031346263 -0.7265987201 0.5563602907
0.1273516425 0.001613974449 0.05038786435
-0.3337670354 -0.8335896935 0.4401451908
0.1269142965 9.911630612e-05 0.04832064696
-0.7243439392 -0.4126569098 0.552304384
0.1572700359 -0.025498617 0.052045478
0.863124175 -0.4331861796 -0.2595503656
0.1578513171 -0.02501520874 0.05346431355
0.9980470863 0.009581369732 -0.06172690588
0.1479249659 0.01232631794 0.03694528045
0.5717632632 -0.7860635491 0.2349273667
0.1503306684 0.01455384405 0.0415484077
0.4637853875 -0.7583191902 0.4580994654
0.1604176561 -0.01813036288 0.02647480205
0.1014621134 0.1985234889 -0.9748301718
0.1612872246 -0.01760117258 0.0274616879
0.5686519313 0.6531341836 -0.5000507168
0.1613493097 -0.01869901281 0.02731330351
0.8034352691 -0.149826427 -0.5762324272
0.1536120231 0.02154706169 0.05332720579
0.1324895822 -0.9123627042 0.3873510121
0.1550987934 0.02177147613 0.05202993655
0.8166256976 -0.5187235389 0.253077775
0.1548245995 0.02201694422 0.05480591502
0.4848414368 -0.8385574583 0.2484958155
0.1561175454 -0.02447435048 0.05769262812
-0.4992771263 0.8560714778 0.1336561855
0.155258618 -0.02541279742 0.0582723261
-0.9082388803 0.3437356869 0.2386376206
0.1562245713 0.01584337219 0.03043430405
-0.7317727181 0.06424863283 -0.6785136713
0.15813849 0.01540495694 0.0262343195
-0.4996140337 0.5006515115 -0.7069185819
0.131375732 0.000516061474 0.04597800668
0.6834730958 -0.4439509043 0.579458473
0.1341218786 -0.0006255110079 0.03905309795
0.7572058426 -0.3357883574 0.5602548447
0.1375952564 0.002956372828 0.03377715951
0.721972083 -0.5342152459 0.4397389935
0.1378514697 0.01721898732 0.05512202999
-0.4995884105 0.6297991036 0.5947810599
0.1381196314 0.01579113516 0.05576880586
0.1157573092 0.09470486531 0.9887523622
0.1603785247 0.01614715811 0.02791844987
0.6527852917 0.655806312 -0.3791957861
0.1604524365 0.01651647584 0.02997126329
0.8684226759 0.4792655824 0.127069105
0.1609948487 0.0151334873 0.02834742939
0.9982627561 0.05812287961 0.009654050444
0.1580254947 -0.02437842503 0.06574441481
0.771031866 0.351367615 0.5310844196
0.1587891353 -0.02514402254 0.06352130405
0.9766537485 0.1372870264 0.1652262928
0.1582596331 -0.01815028778 0.03245889619
-0.3943216734 0.8833452104 -0.2534001918
0.1591103373 -0.01801127329 0.02949399208
-0.7410070112 0.6126383671 -0.2749233357
0.1362760533 0.01616628647 0.05408982612
-0.7709892823 0.6368352427 -0.004049723853
0.152700026 0.02353894823 0.06608008917
-0.5672950581 0.4281039724 0.7034936431
0.1451878247 -0.01730102607 0.03199278119
-0.4269617131 -0.7689085651 -0.4759026308
0.1460594725 -0.01728473976 0.03131952929
0.1320241738 -0.3971945081 -0.9081883837
0.147286941 -0.0191004144 0.03390174208
-0.2257202602 -0.8727816452 -0.4327846622
0.1585406898 -0.02539192126 0.06013321153
0.9887109242 0.0736657273 -0.1304763162
0.1525158517 -0.02493794013 0.05558596195
-0.2975952481 0.08657627615 0.9507584429
0.1535160457 -0.0231577572 0.05474832995
0.02244457059 0.7763604489 0.6298894304
0.1465731961 -0.01668597832 0.03168996904
0.5063777633 0.4415653139 -0.7406764708
0.1486740698 -0.0185783654 0.03305575545
0.2781242592 -0.4826175117 -0.8304981842
0.1476268207 0.01653394676 0.03504044233
-0.3814186482 0.7601608728 -0.5259992988
0.1485639671 0.02235161722 0.04724918519
-0.2376901474 0.8441561116 -0.4805245603
0.1392124198 0.0194592658 0.05272998855
-0.7174208497 0.689932041 -0.09644222726
0.1427640774 0.02246847724 0.05281294033
-0.4603675013 0.8367046871 0.2966260783
0.1529974865 0.01693000736 0.03335281847
-0.3037340986 0.5016848079 -0.8099740433
0.1526885728 0.02433467348 0.05643594156
-0.9615476971 0.1869478775 0.2011877662
0.1532378028 0.0233487248 0.0585009397
-0.8274004512 -0.5557341068 0.08104378973
0.1359606311 0.0116504814 0.05466001553
0.6101333126 -0.4557257294 0.6481137249
0.1602333069 -0.01771794592 0.03142491809
0.09186904028 0.984547777 0.1490830445
0.1606186458 -0.01729257505 0.02794573024
-0.05715146724 0.9760138734 -0.210072913
0.1395169046 0.01736775293 0.05523094601
0.08088285901 0.2412378102 0.9670895936
0.1545378876 0.02173295102 0.04480326879
0.4646944162 0.8665323383 -0.1821559943
0.1550834395 0.02132259743 0.04648359442
0.8889123439 0.4445452158 0.1105187584
0.150272946 0.01782646354 0.04912622027
0.4666129933 -0.7233635499 0.5089376083
0.1365571943 0.004849031884 0.02994002573
-0.509832572 0.2338545709 -0.8278784864
0.1404940816 0.00862636312 0.02930904876
-0.06543508057 0.0007208236038 -0.9978565682
0.1375621598 0.004523460249 0.02920971494
0.4943827115 -0.2704430706 -0.8261030687
0.1434091993 0.008581655425 0.03418565156
0.8475502646 -0.5151639771 0.1275328419
0.1384790489 -0.02020790838 0.05617784632
-0.6031624526 -0.7856599611 0.1375989871
0.1328358994 -0.01519621331 0.05544952435
-0.6314054229 -0.7694208116 -0.09653396638
0.1563076407 -0.02576447655 0.06663818131
0.005719303103 -0.8767738971 0.480868821
0.1552487325 -0.02484774752 0.06816210131
-0.4694270925 -0.4029948877 0.7856419829
0.1491625928 -0.02622539671 0.05391690512
0.06536218012 -0.9679847465 0.2423495739
0.1516671947 -0.02617770141 0.05473064711
-0.1858024608 -0.8263712802 0.5315900233
0.1530304431 0.02505192599 0.05582631234
-0.5288276896 0.8486156908 -0.01388106644
0.1417777163 -0.02087032855 0.05726092054
0.1123599352 -0.02367344732 0.9933855308
0.1401221614 -0.02084560083 0.05726235626
-0.3542556611 -0.6002955463 0.7170412706
0.1432018362 -0.02313023658 0.05621835153
-0.2429592295 -0.5206217073 0.8184887603
0.1378557542 0.006629561012 0.04204191005
0.6532952816 -0.5627752132 0.5064477608
0.1419681727 0.006566790553 0.03401683026
0.7435548455 -0.5862116507 0.3216863259
0.1418442576 0.009477811384 0.02951862512
0.4020725257 -0.1311106214 -0.9061719975
0.1392556809 0.005807845654 0.03072406638
0.7359032612 -0.5551954151 -0.3875621772
0.1427412135 0.01863872103 0.05452522581
0.07439231729 0.04138714516 0.9963698547
0.1407677347 0.01967279675 0.054066913
-0.375087125 0.5993622869 0.7071594571
0.1443069536 -0.01362301279 0.0375885748
0.5407603642 0.7786230734 0.3183148411
0.1270026746 -0.0003238301342 0.04429282875
-0.7865839372 0.3389266813 -0.5161534795
0.13618696 0.002267931572 0.02948030554
0.9434660804 -0.2720712861 0.1893382435
0.1365326079 -0.002315772676 0.03258360679
0.8551747928 0.1501326319 0.4961212217
0.1366985323 -0.002619820032 0.03014537243
0.9880807241 0.1254205734 0.08925336106
0.1581124858 0.01914849723 0.03749246952
0.5905533993 0.8067718019 0.019129615
0.1590008122 0.01782285982 0.03573036896
0.9095716218 0.3451108995 0.2314690733
0.1363475071 0.01515927883 0.05109176474
-0.69202746 0.5260752873 -0.4943104154
0.131773839 -0.005856245561 0.04631591206
0.5492827889 0.6932587944 0.4665626022
0.1343110657 -0.004334942951 0.03929119938
0.6463910116 0.6034316234 0.466957103
0.1267102747 0.00211358275 0.04993537676
-0.9950836534 -0.05836848439 -0.08001026629
0.1275769615 0.00241318894 0.05327271004
-0.1574212718 -0.7718063162 0.616062946
0.1289877589 -0.008516834827 0.05513548558
-0.1154970554 0.7011713899 0.7035759463
0.1283865555 -0.008771489458 0.05502870473
-0.7951162158 0.1283374356 0.5927222841
0.1568416569 0.01539891456 0.03766487659
0.5065276223 -0.6549195779 0.5608120134
0.1586984709 0.01603673055 0.03584097538
0.8003841622 -0.4211169776 0.4266681194
0.1546804509 0.02249983407 0.05932787074
-0.0345289559 -0.9972667008 0.06532134922
0.1551598518 0.02254699972 0.05707169737
0.5668381965 -0.8176805666 0.1004636749
0.1572391577 -0.02651432594 0.05445719696
0.7421154641 -0.6619124894 -0.1055295897
0.1580277999 -0.02497656942 0.05761988401
0.9486015106 0.3133426406 -0.04440229226
0.1536222104 0.02240958694 0.0556753992
-0.2914096046 -0.9054826887 0.3085150609
0.1584158735 -0.02593725696 0.06418369865
0.7674692328 -0.4962785806 0.4058306877
0.1428700179 0.009071198565 0.03226107731
0.8402195704 -0.4944588639 -0.2225792118
0.1283483052 -0.007825331655 0.05399347619
-0.3453894359 0.8188073935 0.4585418083
0.1277098128 -0.008112450129 0.05353797279
-0.9538509367 0.2408465801 0.1793357617
0.1425979989 -0.01139658712 0.03518757967
0.5808853726 0.7927264329 0.1848160884
0.138715609 -0.01121381632 0.043055075
0.4942991764 0.7853783828 0.372624637
0.1572625177 -0.0240243165 0.05677150745
0.2732817468 0.9593791429 0.07006245126
0.12697778 0.002225735371 0.04833105841
-0.8421122821 0.3362644106 -0.421631534
0.1574073423 -0.0239867103 0.04834698669
0.9646299983 -0.1978714951 0.1741718627
0.155510045 0.02309128738 0.05556425285
0.9960130805 -0.0890953971 -0.004466959311
0.1526884599 0.02332106924 0.05617431783
-0.8099469043 -0.4906081958 0.3213870105
0.1518626095 0.02266075441 0.05426110774
-0.4820499932 -0.522691909 0.7031507465
0.1510660737 0.02402978608 0.05384786976
-0.6886829285 0.59087372 0.420219075
0.1539514189 0.02248027574 0.0474405783
0.4196716268 0.8710810247 -0.2551344236
0.129128705 -0.003875751943 0.04705224953
0.281222317 0.4813968558 0.8301632825
0.129501498 -0.005741143648 0.04867942794
0.1880143551 0.7725287095 0.6065063851
0.1615644838 -0.0182264022 0.03133518007
0.6293493902 0.7241574224 0.281984703
0.1553614169 -0.02639662375 0.05860913309
-0.896957121 -0.3608048515 0.2555147398
0.1557900353 -0.02519672923 0.06058584703
-0.9348589954 0.3548936584 -0.009441927852
0.1301207539 -0.01056347271 0.05638719017
-0.2597969476 0.2398506033 0.9354021777
0.1418273132 -0.0145816309 0.03224010907
-0.4691856035 -0.723724662 -0.50605087
0.1619777211 -0.01978754636 0.02916890538
0.7949194779 -0.5482646551 -0.2598247325
0.1624447313 -0.01870086213 0.02945572012
0.9842344782 0.1768534054 -0.002316229512
0.1620930039 -0.0200187754 0.03123750672
0.9524104608 -0.2319010921 0.1978287078
0.1598002547 0.01655111053 0.0334950264
0.9414281494 -0.003699790358 0.3371933439
0.127168969 -0.001514875359 0.04730795668
-0.378976653 -0.3861645459 0.8409837335
0.1290621473 0.0002395979473 0.04831142177
0.3474492921 -0.5757045137 0.7401643752
0.1494965792 -0.02621465807 0.05246425897
0.04763045761 -0.9889991013 -0.1400432685
0.1276886335 -0.007731131809 0.04898629806
-0.7316943255 -0.5967987725 -0.3293245194
0.1349326802 -0.01446959024 0.04919467711
-0.5292608912 -0.7406186287 -0.4139649211
0.1443159148 -0.01582817791 0.03130612732
0.1425384342 0.004400003743 -0.9897794879
0.1564116269 -0.02514935538 0.04941309444
0.614941103 -0.7833084493 -0.09096874739
0.1306434417 -0.009223694168 0.0545774299
0.4206200527 0.7875938429 0.4503051299
0.1321103756 -0.009151023446 0.05130202125
0.4696838798 0.7892044028 0.3956683758
0.129587347 -0.007370649418 0.05090524037
0.2117899785 0.8936293946 0.3956911802
0.1537449662 -0.02644806213 0.05603675362
-0.5433736819 -0.6405903437 0.5425763111
0.1589944281 -0.0186580824 0.02731914785
-0.7916044918 -0.1487901662 -0.5926413882
0.1594314015 -0.01773129471 0.02726609916
-0.5751703494 0.6517676595 -0.4943460198
0.1590089623 -0.02026579667 0.04042249693
0.5287600837 0.6622295575 0.5309093964
0.1454236818 -0.02577492076 0.05505660668
-0.2618399649 -0.8463051148 0.4639046081
0.1490010476 0.02345718446 0.05255832878
-0.3833140287 0.8482733975 0.365380074
0.1499619828 0.02236547516 0.05351053708
-0.2913787566 0.03357838676 0.9560182593
0.1588534956 -0.01917048667 0.0289510032
-0.9092985794 -0.1825628837 -0.3739610768
0.1578277578 -0.01967165067 0.03170681524
-0.6814859744 -0.3613708731 -0.6363866425
0.1559358587 -0.02722473373 0.05471741698
0.2003678805 -0.9760107658 -0.0851803824
0.1614376647 -0.01985180369 0.03476125417
0.9072141532 0.2860371697 0.3084561846
0.1576280548 0.01461817551 0.0262258415
-0.7905487203 -0.155800038 -0.5922491612
0.1573505683 0.01521972975 0.02776616754
-0.9180956522 -0.1077186279 -0.3814407825
0.1583648848 -0.01877479844 0.03881329658
0.3289998402 0.8499776435 0.4114573012
0.1514717058 -0.0181884753 0.03420080595
0.4022261016 0.7016042125 -0.5881884835
0.1483827103 -0.01707914693 0.03317589418
0.5339680185 0.5409815938 -0.6497823254
0.152408355 -0.01774946311 0.03644972585
0.1908343424 0.9747113215 -0.1162759369
0.1545753481 0.02430658069 0.05230425995
0.571749354 0.7817666187 -0.2488847726
0.1544429406 0.02543801381 0.05795210436
0.1659700041 0.9820090865 -0.09006726251
0.1592210177 0.01519333655 0.03315116016
0.6618648779 -0.6027718623 0.4456466824
0.1524423771 0.02158398748 0.04343390947
-0.1195280052 0.9220580599 -0.3681331146
0.1531995653 0.02491815531 0.05251327702
-0.02808299937 0.9603557771 -0.2773592014
0.1273538783 -0.005793245501 0.04876606726
-0.8130567566 0.3328035372 0.4776824429
0.1577980014 0.01414143737 0.02844230723
-0.5733500573 -0.8083015176 -0.1338595103
0.1562754717 0.014933102 0.03082880708
-0.5440615237 -0.6784529485 -0.4936584397
0.1511449082 0.0205988291 0.0528043169
0.1863014845 -0.6129507392 0.7678431794
0.146377937 -0.0207891642 0.05545727082
0.1861539819 0.6711426842 0.7175752173
0.1464946054 0.02319078447 0.05170973906
-0.1650648933 0.9850722186 0.04884982321
0.1431079806 -0.01421617829 0.03090327107
0.3818717309 0.04182257289 -0.9232685707
0.128876385 -0.001719790961 0.04693309699
0.3655518644 -0.2331110413 0.9011276696
0.1262219846 -0.001348661678 0.04632118712
-0.9983807136 0.05667205587 -0.004922279138
0.1419033492 -0.01117660808 0.03345391033
0.6484640694 0.7415983994 -0.171831792
0.1377161323 0.004465706867 0.03060099505
0.8275539711 -0.5595979733 0.04477201455
0.1468762208 0.02311177548 0.05033102101
-0.1783897515 0.9269247272 -0.3301327714
0.1540682623 0.0253858988 0.05944423925
-0.209242525 0.9747394919 0.07810562504
0.1546447956 0.0174166307 0.04225635458
0.6009119745 -0.5776834287 0.5524370146
0.1317398197 -0.01316075155 0.05736889006
-0.5861648194 -0.2539178919 0.7693741019
0.1455698906 0.01126944737 0.03293885452
0.7002104734 -0.6961418836 -0.1584038219
0.137461766 -0.006302499039 0.03049136447
0.7597907795 0.3363122147 -0.5564279518
0.1379115055 -0.006509524516 0.03210196884
0.8507847831 0.5135811381 0.1113537942
0.1323953639 -0.002665786069 0.04078220663
0.8342276307 0.1511400911 0.5303026806
0.1301841541 -0.002703816184 0.04539603917
0.7390494432 -0.0366218466 0.6726550088
0.1301841541 -0.002703816184 0.04539603917
0 0 0
0.1312839958 0.004019045867 0.05052413641
0.6297918034 -0.5675664249 0.5303118306
0.1451354441 -0.02181487497 0.05651997032
0.05909516497 0.1708739945 0.9835191099
0.1404095416 0.009691187166 0.03091327268
-0.611638981 0.4838716098 -0.6259121521
0.1430388362 0.01102252304 0.03009558241
0.1624153114 -0.16326497 -0.9731216862
0.161856705 -0.01771723428 0.02906624267
0.5659576674 0.8240527688 0.02507893525
0.1613748793 -0.0211784049 0.03384431457
0.9137062995 -0.403405607 0.04903788887
0.1571754901 0.01466632729 0.03578362951
0.4810100034 -0.7879029778 0.3844974307
0.1513696212 0.01389043858 0.03787646518
0.3914011004 -0.8577493246 0.3332735734
0.1590703262 0.0154884446 0.02588448986
0.1065324922 0.5670984839 -0.8167313743
0.1598941832 0.0148517217 0.02617286879
0.7600631472 0.216541552 -0.6127101831
0.1590953782 0.01414780455 0.025457567
0.1664984589 -0.3551162182 -0.9198753909
0.1310583532 0.002348821728 0.03950817743
-0.7469711692 0.4763602532 -0.4638048959
0.1294342289 -0.001247085837 0.039014524
-0.810479027 0.1602225706 -0.56342921
0.1277457213 -0.002844001317 0.04182260603
-0.8076096665 -0.1516821314 -0.5698764407
0.1354684607 0.001162072721 0.03336336783
0.7849714794 -0.2695212737 0.5578333619
0.1456104225 0.01450177558 0.0325277673
-0.4108095518 0.696344713 -0.5885062045
0.1358396391 -0.01725750502 0.05788064375
-0.408200644 -0.7048511064 0.58013546
0.1403511916 -0.01047162783 0.03188720697
0.5966963374 0.6237673123 -0.5048443534
0.1543925965 -0.0249861025 0.05634125831
-0.6054021468 0.5239285359 0.5991553471
0.1413108882 -0.01717916673 0.04138770416
-0.5321851193 -0.7955582864 -0.2895962909
0.1599931489 0.01378380934 0.02647972582
0.7154172078 -0.5884109452 -0.3767635577
0.1510530519 -0.0255357768 0.04922812089
-0.02567910027 -0.9529091604 -0.302166702
0.1575214729 -0.02397133708 0.05399086973
0.6690973891 0.7319378362 0.128746603
0.1537966418 0.01567746049 0.032204545
-0.3453586903 -0.1175696125 -0.9310772048
0.1512148606 0.01519509275 0.03268316697
0.1774691452 -0.1117731408 -0.9777583891
0.1547595595 -0.02473383975 0.04526181505
0.1045740077 -0.9781820051 -0.179511119
0.1560221277 -0.02381476899 0.05526956979
-0.0901915566 0.9756655401 0.1998555404
0.1543132181 0.01895323951 0.0450874484
0.6322671513 -0.5696073179 0.5251530756
0.1562771529 0.01916097636 0.03593561622
-0.07709489556 0.9283392008 -0.3636519014
0.1583894444 0.01857765338 0.03416361507
0.3416830789 0.932698278 -0.1154408762
0.1403534917 -0.01938795277 0.05781402653
0.1119107921 0.1280221252 0.9854371162
0.1349163635 0.003441182933 0.03313705582
-0.7525999605 0.3871506067 -0.5326421942
0.1413473568 0.006545068638 0.03224848055
0.8056777851 -0.5910341385 -0.03952156031
0.1570400634 -0.0248106663 0.06686095723
0.7230399721 -0.11015303 0.681967381
0.1606538032 -0.01944143958 0.02712938428
0.2530393015 -0.6746607573 -0.6934002988
0.1278690371 -0.009330496926 0.05383547628
-0.8664789219 -0.4976528907 0.039444623
0.1337812865 -0.002497065594 0.03097166684
-0.6692194413 -0.1511581442 -0.7275277004
0.1360056853 0.002278283923 0.02875223586
-0.001980384119 -0.03521607896 -0.9993777593
0.1358263593 -0.004373608234 0.02958412897
-0.1776119717 -0.370143358 -0.9118376402
0.1370482361 -0.006753779649 0.02982349339
0.01307758458 -0.1605211425 -0.9869457632
0.1322781033 -0.0006620266866 0.0331159582
-0.809495506 0.281215232 -0.5153979231
0.1383897261 -0.0187373449 0.05780915554
-0.2944371594 -0.3517703923 0.8885743358
0.1582070599 0.0137351394 0.0263000597
-0.3981414885 -0.8499326822 -0.3451054779
0.126911992 -0.002888003852 0.04693572214
0 0 0
0.1269130203 -0.002887970255 0.04693585379
0 0 0
0.126911992 -0.002888003852 0.04693572214
-0.3442405613 -0.04485903478 0.9378092039
0.1435707101 0.01247967918 0.03059615611
-0.5820225964 0.542660167 -0.6056150926
0.1363947248 0.001875295575 0.02869951727
0.8292094052 -0.2534259692 -0.4981837417
0.1501606471 0.01393333494 0.03298548764
0.5662638646 -0.6901284952 -0.4506305535
0.1546203185 0.01459839923 0.03281987461
-0.06693497129 -0.8913390644 -0.4483685781
0.159574832 0.01779553571 0.03243750563
0.7948810801 0.6045903903 -0.05132765658
0.1350688182 1.678025385e-06 0.02831062782
-0.2372884959 0.1353568492 -0.9619629375
0.1298439017 -0.004441999665 0.03927805927
-0.7386604902 -0.4487309026 -0.5030121839
0.1359650082 -0.009015263542 0.03371965291
-0.6307040293 -0.6458979095 -0.430149181
0.1301841541 -0.002703816184 0.04539603917
0.6626529249 0.4598967712 0.5910888774
0.1470811165 0.01271581777 0.03192045549
0.6590247566 -0.5188700183 -0.5444816565
0.1311446261 -0.002924068695 0.03514417259
-0.8206133405 -0.1514773053 -0.5510429851
0.1354567189 -0.002330201918 0.02877567926
0.04585218197 -0.09331373643 -0.9945803758
0.1363262658 -0.002689936179 0.02889758987
0.8007089776 0.03509711692 -0.5980245193
0.1274144034 -0.00776008156 0.05061620487
-0.9795395904 -0.189695367 -0.06721501767
0.1279843839 -0.007259099102 0.05100489042
-0.5262931538 0.8036730147 0.2777142448
0.1297418742 -0.002870086614 0.03909791391
-0.8131440388 -0.1515828534 -0.5619781231
0.1260390813 -0.002882681198 0.04507912684
-0.9234861523 -0.1442413974 -0.3554824128
0.126911992 -0.002888003852 0.04693572214
-0.8390534613 -0.0453906663 0.5421521709
0.1264274459 -0.002901202049 0.04641233214
-0.947892805 -0.08152594034 0.3079817385
0.1301842294 -0.002704759527 0.04539715352
-0.4291526144 0.8132029638 -0.3931017338
0.1289854886 -0.002807455989 0.04697503979
0.3343114707 0.1320643734 0.933163888
0.1328979898 -0.005174813348 0.03345273721
-0.7108903775 -0.5546530663 -0.4324290084
3 0 1 2
3 3 4 5
3 6 7 8
3 9 10 11
3 12 13 14
3 15 16 17
3 18 8 19
3 20 21 22
3 23 24 25
3 26 27 28
3 12 14 29
3 3 30 31
3 13 12 32
3 33 34 35
3 36 37 38
3 39 40 41
3 42 43 44
3 12 45 41
3 46 47 48
3 49 15 50
3 14 51 52
3 53 54 55
3 56 57 58
3 59 60 61
3 62 63 64
3 65 66 67
3 68 69 70
3 71 72 73
3 74 29 52
3 52 51 40
3 39 41 75
3 45 75 41
3 76 77 78
3 79 80 81
3 10 82 83
3 47 84 85
3 86 87 88
3 89 90 91
3 29 74 92
3 74 52 93
3 94 95 96
3 97 98 99
3 100 101 102
3 103 104 105
3 106 107 108
3 106 108 104
3 109 46 110
3 26 111 112
3 113 114 115
3 116 117 118
3 50 119 120
3 121 122 123
3 12 92 45
3 119 124 30
3 125 126 127
3 128 60 71
3 94 96 129
3 130 94 129
3 131 132 133
3 134 135 136
3 137 103 105
3 138 139 90
3 140 141 142
3 103 143 104
3 144 145 146
3 147 104 148
3 148 149 147
3 55 150 151
3 105 104 152
3 75 153 154
3 155 156 157
3 154 39 75
3 158 120 159
3 109 160 161
3 162 163 164
3 165 166 167
3 168 169 23
3 170 131 171
3 172 173 174
3 175 130 176
3 129 176 130
3 177 178 179
3 24 180 181
3 19 182 183
3 175 184 130
3 14 13 185
3 186 187 188
3 181 59 189
3 106 147 149
3 155 107 106
3 190 191 125
3 192 193 187
3 194 37 195
3 38 196 197
3 132 198 194
3 199 200 93
3 48 85 201
3 182 135 202
3 45 153 75
3 163 162 203
3 204 175 176
3 89 205 206
3 89 2 207
3 208 209 210
3 74 93 200
3 110 211 109
3 212 213 83
3 87 214 215
3 137 143 103
3 6 8 18
3 107 152 108
3 127 216 217
3 152 96 95
3 199 93 218
3 219 220 221
3 23 25 168
3 46 222 223
3 86 20 87
3 209 224 225
3 85 204 176
3 204 226 227
3 97 228 124
3 78 77 229
3 230 231 232
3 233 139 234
3 184 196 235
3 236 44 237
3 238 156 149
3 156 239 149
3 148 238 149
3 117 240 241
3 138 242 243
3 244 245 45
3 59 246 247
3 86 24 21
3 244 248 245
3 60 249 72
3 225 224 250
3 197 196 227
3 143 137 235
3 251 252 240
3 124 253 254
3 247 255 25
3 148 256 238
3 120 257 50
3 118 83 213
3 258 153 245
3 248 259 260
3 199 218 261
3 206 205 262
3 142 141 188
3 236 263 264
3 202 265 203
3 204 85 84
3 266 71 267
3 240 117 268
3 188 269 186
3 38 235 196
3 270 271 272
3 273 178 133
3 256 148 143
3 2 89 206
3 274 275 157
3 217 216 276
3 157 156 238
3 277 67 278
3 192 279 69
3 267 21 23
3 120 280 257
3 281 282 283
3 217 284 190
3 162 285 286
3 287 17 100
3 288 216 127
3 289 290 261
3 260 261 290
3 289 122 290
3 122 121 290
3 19 291 292
3 70 69 97
3 123 122 197
3 128 284 293
3 294 136 102
3 36 38 197
3 171 295 296
3 92 244 45
3 297 102 136
3 253 44 254
3 298 299 300
3 246 59 61
3 282 281 62
3 153 258 154
3 1 258 167
3 166 1 167
3 154 258 301
3 301 302 154
3 54 303 144
3 195 304 132
3 301 305 302
3 136 68 297
3 264 306 283
3 247 246 159
3 260 165 248
3 258 1 301
3 307 308 296
3 290 309 260
3 191 119 310
3 122 289 311
3 197 122 311
3 26 28 140
3 269 312 279
3 172 275 313
3 313 275 274
3 128 293 61
3 221 220 82
3 256 314 157
3 314 274 157
3 99 315 253
3 210 225 316
3 7 298 300
3 317 289 261
3 289 317 311
3 279 186 269
3 36 311 317
3 60 72 71
3 218 93 318
3 138 319 161
3 84 309 121
3 320 213 63
3 94 137 95
3 117 62 268
3 160 109 321
3 223 222 174
3 42 322 323
3 324 325 326
3 48 327 172
3 318 40 39
3 313 325 172
3 258 245 167
3 225 210 209
3 133 171 131
3 328 310 219
3 12 41 32
3 109 211 250
3 329 330 224
3 224 330 250
3 50 257 49
3 151 150 144
3 59 249 60
3 331 271 163
3 96 201 129
3 195 36 317
3 297 79 287
3 27 26 332
3 278 67 66
3 312 98 279
3 87 73 214
3 166 2 1
3 207 2 166
3 144 333 334
3 305 262 195
3 279 192 187
3 335 336 337
3 37 36 195
3 54 179 178
3 20 86 21
3 229 338 339
3 340 229 339
3 316 174 341
3 292 142 18
3 2 206 262
3 305 0 262
3 37 342 76
3 29 14 52
3 301 0 305
3 302 218 318
3 287 81 17
3 116 320 117
3 231 230 341
3 64 5 4
3 338 229 77
3 228 99 253
3 0 2 262
3 187 186 279
3 50 81 80
3 184 235 137
3 48 222 46
3 93 52 40
3 341 174 173
3 78 235 38
3 29 92 12
3 73 72 214
3 265 135 134
3 264 282 236
3 161 160 334
3 343 64 63
3 57 42 344
3 79 68 70
3 123 197 227
3 14 185 51
3 345 190 284
3 86 180 24
3 157 238 256
3 66 269 346
3 347 55 337
3 205 304 195
3 80 79 119
3 82 220 212
3 188 6 142
3 248 167 245
3 280 348 49
3 22 71 73
3 270 272 26
3 335 177 336
3 41 40 51
3 280 158 293
3 349 159 120
3 350 351 198
3 134 136 294
3 91 304 205
3 48 172 222
3 281 268 62
3 119 349 120
3 293 276 348
3 348 140 352
3 277 306 34
3 334 160 321
3 327 152 107
3 30 3 310
3 353 255 349
3 43 237 44
3 161 319 354
3 305 195 317
3 185 13 32
3 213 116 118
3 133 355 356
3 286 285 183
3 172 324 173
3 34 67 277
3 171 337 295
3 240 268 281
3 98 315 99
3 260 259 199
3 91 90 233
3 45 245 153
3 58 344 312
3 5 357 3
3 11 10 278
3 338 358 339
3 211 223 359
3 161 334 242
3 215 360 88
3 174 316 359
3 112 361 26
3 135 68 136
3 241 362 117
3 345 353 191
3 17 81 50
3 275 172 327
3 292 112 111
3 356 233 234
3 22 267 71
3 193 299 6
3 304 91 355
3 121 226 84
3 363 208 364
3 365 322 366
3 287 79 81
3 90 139 233
3 240 252 241
3 91 233 355
3 314 256 229
3 333 242 334
3 200 244 92
3 363 367 358
3 44 315 42
3 11 188 141
3 104 108 152
3 193 6 188
3 220 368 212
3 58 312 269
3 286 203 162
3 95 105 152
3 24 189 25
3 337 369 295
3 213 320 116
3 370 371 372
3 362 241 252
3 271 270 164
3 246 61 293
3 168 25 255
3 208 358 329
3 89 354 319
3 283 240 281
3 342 373 329
3 214 360 215
3 124 31 30
3 316 225 359
3 374 210 316
3 316 230 374
3 270 26 361
3 374 230 232
3 353 349 191
3 8 182 19
3 139 243 234
3 35 263 33
3 227 196 175
3 146 145 375
3 198 342 194
3 126 288 127
3 360 214 180
3 209 208 329
3 374 364 210
3 63 62 320
3 350 308 376
3 234 273 377
3 377 356 234
3 154 302 318
3 345 168 353
3 219 310 3
3 285 291 183
3 115 114 342
3 196 184 175
3 378 364 374
3 263 35 264
3 57 56 366
3 343 5 64
3 210 364 208
3 9 288 10
3 376 151 144
3 65 379 380
3 54 178 273
3 146 376 144
3 263 236 381
3 231 173 324
3 351 350 376
3 351 376 146
3 284 266 345
3 361 164 270
3 115 351 382
3 344 98 312
3 382 321 113
3 244 200 259
3 114 330 373
3 330 329 373
3 328 221 126
3 257 280 49
3 217 190 127
3 131 198 132
3 170 198 131
3 373 342 114
3 350 170 308
3 202 135 265
3 277 278 118
3 330 114 113
3 113 321 330
3 209 329 224
3 356 377 133
3 145 321 382
3 293 348 280
3 303 333 144
3 308 307 151
3 54 53 179
3 150 55 54
3 219 357 220
3 369 307 295
3 308 170 296
3 295 307 296
3 177 133 178
3 177 335 133
3 9 276 216
3 171 133 335
3 53 347 179
3 85 48 47
3 179 336 177
3 336 179 347
3 358 367 383
3 79 124 119
3 332 26 294
3 337 171 335
3 369 337 55
3 322 57 366
3 378 384 363
3 346 269 188
3 184 94 130
3 111 140 142
3 69 98 97
3 143 148 104
3 18 19 292
3 273 243 333
3 384 378 385
3 362 386 277
3 378 374 385
3 67 379 65
3 11 348 9
3 49 348 352
3 56 269 380
3 183 203 286
3 140 348 141
3 126 221 288
3 16 101 100
3 87 215 88
3 220 357 368
3 353 168 255
3 324 172 325
3 228 97 99
3 3 357 219
3 168 345 169
3 31 236 282
3 307 369 55
3 338 329 358
3 156 155 239
3 284 276 293
3 155 106 239
3 115 342 351
3 138 90 319
3 22 73 20
3 306 386 387
3 354 207 161
3 189 59 247
3 15 49 352
3 98 69 279
3 170 350 198
3 265 271 331
3 101 332 294
3 287 102 297
3 76 342 329
3 97 79 70
3 327 48 152
3 42 315 344
3 337 336 347
3 165 309 166
3 50 15 17
3 266 128 71
3 329 338 77
3 234 243 273
3 152 201 96
3 387 251 283
3 7 135 8
3 306 277 386
3 31 4 3
3 18 142 6
3 104 147 106
3 47 207 84
3 0 301 1
3 376 308 151
3 180 214 72
3 207 47 46
3 226 121 123
3 283 306 387
3 322 42 57
3 107 155 327
3 118 117 362
3 34 306 35
3 31 124 254
3 218 305 261
3 133 132 355
3 260 309 165
3 331 203 265
3 235 78 143
3 111 26 140
3 110 223 211
3 85 129 201
3 309 84 207
3 200 199 259
3 5 368 357
3 242 333 243
3 129 85 176
3 207 166 309
3 310 125 191
3 249 181 180
3 382 351 375
3 276 284 217
3 250 330 321
3 27 101 16
3 212 368 343
3 233 356 355
3 218 302 305
3 212 83 82
3 53 55 347
3 86 360 180
3 290 121 309
3 37 194 342
3 256 143 78
3 77 76 329
3 165 167 248
3 36 197 311
3 345 266 169
3 363 383 367
3 299 298 6
3 274 372 313
3 374 232 385
3 341 173 231
3 112 291 285
3 119 191 349
3 300 68 135
3 349 255 159
3 11 346 188
3 112 285 162
3 266 284 128
3 247 25 189
3 164 163 271
3 267 169 266
3 9 216 288
3 158 280 120
3 340 339 388
3 11 278 346
3 162 361 112
3 386 252 387
3 219 221 328
3 228 253 124
3 124 79 97
3 361 162 164
3 344 58 57
3 8 135 182
3 159 255 247
3 387 252 251
3 203 182 202
3 30 310 119
3 293 158 246
3 80 119 50
3 300 69 68
3 65 380 269
3 37 76 78
3 205 89 91
3 382 113 115
3 346 278 66
3 307 55 151
3 275 155 157
3 46 109 161
3 343 63 213
3 296 170 171
3 222 172 174
3 239 106 149
3 105 95 137
3 183 291 19
3 132 194 195
3 354 89 207
3 320 62 117
3 83 118 278
3 110 46 223
3 256 78 229
3 139 138 243
3 135 7 300
3 359 225 250
3 31 254 236
3 226 204 84
3 377 273 133
3 58 269 56
3 291 112 292
3 150 54 144
3 375 351 146
3 125 310 328
3 242 138 161
3 62 64 4
3 154 318 39
3 321 109 250
3 145 144 334
3 79 297 68
3 10 288 82
3 230 316 341
3 59 181 249
3 299 193 192
3 141 348 11
3 94 184 137
3 318 93 40
3 37 78 38
3 226 123 227
3 269 66 65
3 262 205 195
3 299 192 69
3 249 180 72
3 32 41 51
3 298 7 6
3 368 5 343
3 145 334 321
3 261 305 317
3 51 185 32
3 261 260 199
3 300 299 69
3 342 198 351
3 250 211 359
3 161 207 46
3 223 174 359
3 294 26 272
3 292 111 142
3 155 275 327
3 132 304 355
3 378 363 364
3 74 200 92
3 208 363 358
3 315 98 344
3 90 89 319
3 48 201 152
3 190 345 191
3 204 227 175
3 277 118 362
3 303 54 273
3 248 244 259
3 375 145 382
3 339 358 383
3 340 389 229
3 303 273 333
3 389 314 229
3 127 190 125
3 348 276 9
3 193 188 187
3 100 102 287
3 323 43 42
3 61 60 128
3 278 10 83
3 372 274 314
3 16 28 27
3 101 294 102
3 20 73 87
3 283 251 240
3 390 372 314
3 15 28 16
3 352 28 15
3 134 294 265
3 140 28 352
3 392 326 325
3 283 282 264
3 288 221 82
3 328 126 125
3 23 169 267
3 282 62 31
3 183 182 203
3 254 44 236
3 265 294 272
3 158 159 246
3 35 306 264
3 24 181 189
3 253 315 44
3 332 101 27
3 343 213 212
3 331 163 203
3 17 16 100
3 88 360 86
3 21 24 23
3 362 252 386
3 31 62 4
3 372 390 370
3 372 371 393
3 393 392 325
3 22 21 267
3 265 272 271
3 314 389 391
3 339 383 388
3 56 380 363
3 340 388 379
3 379 383 380
3 340 379 67
3 340 67 389
3 236 237 324
3 231 43 323
3 43 231 237
3 324 326 381
3 380 383 394
3 365 363 384
3 323 232 231
3 324 381 236
3 363 366 56
3 370 33 371
3 392 381 326
3 231 324 237
3 322 385 232
3 363 380 394
3 384 385 365
3 363 394 383
3 33 370 390
3 322 232 323
3 365 385 322
3 390 391 34
3 365 366 363
3 389 67 34
3 393 371 33
3 381 392 393
3 34 391 389
3 379 388 383
3 391 390 314
3 313 372 393
3 313 393 325
3 33 390 34
3 263 393 33
3 263 381 393
