ply
format ascii 1.0
element vertex 395
property double x
property double y
property double z
property double nx
property double ny
property double nz
element face 786
property list uchar int vertex_indices
end_header
0.149041499 0.02607044524 0.04474641383
0.7362981827 0.50440842 -0.4510400559
0.1499077984 0.02522048486 0.04623957017
0.9637068869 0.1050913109 -0.2454075234
0.1507262923 0.02285571534 0.04418322847
0.8683951988 -0.4954165236 -0.02126609815
0.1412360435 -0.02023624041 0.05396638375
0.5155310045 0.5259403135 0.6764721502
0.1361971752 -0.01655128155 0.05442046648
0.6439407257 0.5935383666 0.4827551648
0.1367584885 -0.01844230337 0.05556597425
0.4190155972 0.2372395814 0.8764378531
0.1485994929 -0.02021003069 0.02906241104
-0.01215141802 0.02670970689 -0.9995693746
0.1511735849 -0.01892515012 0.03114062104
-0.04903877441 0.8633802205 -0.5021651057
0.1525646819 -0.01936410625 0.02909543857
-0.2668673082 0.823189226 -0.5011400384
0.1373971743 -0.02476626572 0.05018552197
-0.2617736502 -0.9535251074 -0.1492126859
0.1363209246 -0.02379570695 0.0505794502
-0.5760217382 -0.7758952456 -0.2572654757
0.1404180946 -0.02197306651 0.04068072844
-0.5679385329 -0.7588443597 -0.3187492128
0.1513801888 0.02153713155 0.06043881326
0.2693885703 -0.935087609 0.2303062346
0.1509825152 0.02190708341 0.06211595728
0.5520719332 -0.4666611058 0.6909732215
0.1500754283 0.02204623358 0.06272632307
-0.7543438878 -0.4428915831 0.4845743953
0.1536410449 -0.02376970926 0.03751091699
0.4549086496 -0.8844864355 -0.1036429732
0.1558052089 -0.0227239961 0.03324158167
0.6912010504 -0.7222747871 -0.02366938786
0.1548328808 -0.02273366712 0.03846973301
0.956334435 -0.1059365511 0.2724002489
0.1508199135 -0.02052618396 0.0280345869
-0.5144699384 -0.02596039045 -0.8571153601
0.1527910401 -0.01962462542 0.02561284388
-0.7103639815 0.5502342103 -0.4388910202
0.1529167681 -0.02167419432 0.0600200862
-0.8334047452 0.5491575157 -0.0621494451
0.1531608941 -0.02179688711 0.05810481062
-0.3588980556 0.931804139 -0.05415932324
0.1513465869 -0.02285209556 0.05758031378
-0.9792914399 0.1537621114 0.1317022734
0.1531657314 -0.0222403438 0.05612614412
-0.1608148762 0.9868964187 -0.01319220674
0.1542214817 -0.02173889527 0.05758171275
0.630357939 0.7723512702 -0.07824566609
0.1530278206 -0.02269637114 0.05377846518
0.4565396996 0.886467862 -0.07580390764
0.1514209279 -0.02231417255 0.0213926727
0.2529001032 -0.9244024266 -0.2855200371
0.1536906432 -0.02236950296 0.02863338867
0.4428029448 -0.8911976311 -0.09844965415
0.1528470125 -0.02333067836 0.03165831645
-0.00920962886 -0.9645076933 -0.263894093
0.1504796765 0.02272174561 0.05948521437
-0.8259031866 -0.5613371876 -0.05276824968
0.1423177255 -0.01919732154 0.05131197137
0.4854716542 0.7529958801 0.4442009426
0.1366558138 -0.01512129126 0.0506571659
0.6327842268 0.6918432117 0.3477601081
0.1512514109 0.02339732863 0.06101742104
0.807891237 0.2697751703 0.5239590696
0.1242631741 -0.002114790088 0.04487467833
-0.1792121039 0.103229272 0.9783796498
0.1237724014 -0.003855152612 0.04430614221
-0.9663415943 -0.1778294363 0.1859048542
0.1247093101 -0.003606509239 0.045295342
-0.277565952 0.4253826996 0.8613981084
0.1364080672 0.02499617893 0.04841720944
-0.2744612587 0.947296073 -0.1652306494
0.1394210352 0.02025962799 0.03928068798
-0.5779603879 0.745709507 -0.3314801974
0.1357142605 0.02394447967 0.04856125725
-0.5862637243 0.7637372661 -0.2701855544
0.1515077373 0.02620011058 0.05777860551
0.7498101081 0.6265811742 0.2125578366
0.1507833257 0.02659532378 0.05831022503
0.2809169779 0.9058944852 0.3169240179
0.151934387 0.02304629027 0.05962123431
0.8925460549 -0.1959725992 0.4061481013
0.1365752337 -0.006801192012 0.03109717179
0.7368446214 0.6575347715 -0.1571878754
0.1340304069 -0.005152396878 0.03457102982
0.8246837081 0.4213136968 0.3773480495
0.1358172233 -0.006698002806 0.03401979817
0.7059727155 0.6621482126 0.2513210486
0.1519181625 0.0234515584 0.0569597487
0.64063636 -0.7650634157 -0.06529183938
0.140471428 0.0132418543 0.04399283685
0.5304612328 -0.7778760253 0.3369269502
0.1412170374 0.01632737951 0.0502290824
0.4953916477 -0.7388039725 0.4568980254
0.135742537 0.01197355964 0.0497683602
0.6418813967 -0.6774208497 0.3592899454
0.1520718963 -0.02430714906 0.0411442465
0.5419293354 -0.8181676578 -0.1921308907
0.1536238996 -0.02256928836 0.04184755798
0.9632800732 0.242003388 0.116300734
0.1502643297 0.02508329341 0.06086830662
-0.032665916 0.917404633 0.3966127549
0.1497844423 0.02563753927 0.0588094219
-0.7049012172 0.6910472298 0.1598999691
0.1559267978 0.01709372054 0.01976632086
0.6704021415 -0.7419116185 -0.01131896458
0.1558953433 0.01752971381 0.02271470353
0.7631279905 -0.607818851 0.219526569
0.1551110321 0.01627403215 0.01948558229
0.04306776579 -0.9926000438 -0.1135355473
0.1335955562 -0.008153124402 0.03008172994
-0.6081063526 -0.3816574731 -0.6960921183
0.1351562362 -0.006960172961 0.02905021442
0.3013014798 0.2379233012 -0.9233687893
0.1368587672 -0.01373794374 0.02859687696
-0.236885651 -0.1160681061 -0.9645793814
0.1524003116 -0.02406556299 0.05553167629
0.7726913919 -0.626228744 -0.1038536134
0.1503321049 -0.02485762762 0.05644820393
-0.0545636727 -0.9789092577 0.1968742512
0.1499832118 -0.02556497603 0.05474318016
0.2825950126 -0.95853198 -0.03683072214
0.1305193972 -0.01211328056 0.05532715114
0.3699424797 0.5042411532 0.7803098238
0.1308505341 -0.01633862202 0.05677604836
-0.3886673976 -0.349178581 0.8526499707
0.1345543069 -0.01715411837 0.05661153842
0.3673365725 -0.02840797877 0.929654145
0.1292774031 -0.006678046924 0.03871815311
-0.7425189316 -0.6107119255 -0.2751301152
0.1330582142 -0.01189256518 0.04225880671
-0.7073904236 -0.6480899861 -0.2820960094
0.1251469831 -0.004809555411 0.04296287467
-0.8095046292 -0.4854041934 -0.3302802208
0.1503672411 -0.01783620094 0.03525948128
0.3201960556 0.9297778778 0.1816248438
0.1433611199 -0.01620400938 0.03066670879
0.5583486848 0.7550651013 -0.3436909063
0.1464183965 -0.01676952146 0.03485402088
0.4889114722 0.8704147285 0.05782536506
0.1501817748 -0.02439177389 0.05673457381
-0.7609797528 -0.6001531108 0.2464265803
0.1526477995 -0.02313263274 0.058563991
0.292562776 -0.8966410551 0.332327911
0.1518631839 -0.02286943508 0.05915017285
-0.6955581445 -0.6976660982 0.1716417288
0.149401828 0.02478062513 0.05693176257
-0.9771723662 -0.1646341602 0.1342749417
0.1520461656 0.02497819465 0.05713178655
0.999963723 0.0009689535652 -0.008462498259
0.137508268 0.01435653071 0.03744573517
-0.6796789418 0.6891988706 -0.2510805704
0.1321429118 0.008426071044 0.0414329688
-0.715936198 0.6337324385 -0.2929480446
0.1309573177 0.01223723432 0.04598205313
-0.6907701193 0.621989277 -0.3687356525
0.1504448462 -0.01886196555 0.03945713528
0.4262488747 0.853898496 0.2986122156
0.1534943218 -0.02166018754 0.04204810699
0.6286137161 0.6951904226 0.34864749
0.1544922432 -0.02091735909 0.03941909693
0.6014340225 0.7024975447 0.3804922026
0.1363668114 -0.02321817757 0.0526092868
-0.6203162426 -0.778331038 0.09699770326
0.1362686827 -0.02028205231 0.05173220131
-0.6873316633 -0.6563776385 -0.3110363006
0.1440575896 0.01996203135 0.05197315173
0.3992681772 -0.5624945666 0.7240060671
0.139940138 0.01745382767 0.05264063309
0.5223659192 -0.5075946773 0.6851871934
0.153922664 -0.02087649314 0.06092860032
0.2568993129 0.9423976741 0.2142180357
0.1530252065 -0.02156396514 0.06308316539
-0.7600529554 0.4407693953 0.4775372709
0.1537279344 -0.02115039665 0.06244200837
0.5452697176 0.4858292667 0.6831184807
0.1520140887 0.02206632308 0.04042122419
0.9663593445 -0.227387166 0.1201860806
0.1534059254 0.02156479857 0.03713841014
0.9548098641 0.1232223781 0.2704706435
0.1520278579 0.02378083553 0.03604946336
0.4432129516 0.8885336473 -0.1186180309
0.150831027 0.02296488978 0.05741868055
-0.3465723705 -0.9372413086 -0.03829257802
0.1481790851 0.02688701992 0.05560490677
-0.7691466024 0.5937586347 0.2363560613
0.1323672722 0.01527905278 0.05477150755
-0.3951457664 0.7082050777 0.5850687064
0.1297795677 0.01334813676 0.05516965005
-0.3932834844 0.3581878345 0.8467759893
0.1331694043 0.0141440475 0.0552728231
0.3670131781 0.04873342213 0.9289383083
0.1437051615 -0.0150481596 0.03414391324
0.6151964263 0.7852736357 0.06984750637
0.1407291203 -0.01352492334 0.03045972137
0.7118813534 0.5659920142 -0.4157859769
0.1415706966 -0.01286125658 0.03246937802
0.7768800207 0.6250359669 -0.07607544646
0.1568747481 -0.02175962841 0.03419587485
0.9528116548 0.04911589197 0.2995623134
0.1564811825 -0.02143685652 0.03107939702
0.9749275599 -0.2051592013 0.08617398099
0.1576830974 -0.02006865842 0.03177935038
0.7958607675 0.558682474 0.233408509
0.1260621656 0.01067184783 0.05296856055
-0.7829705103 0.5623600337 0.2659104597
0.125998742 0.00815623239 0.05360219595
-0.7022115122 0.3210193929 0.6354884275
0.1280830245 0.010748991 0.05418580838
-0.4732312416 0.2623586593 0.8409638077
0.1257358234 0.00511292165 0.05306826605
0.1069489334 -0.630179727 0.7690483973
0.1274965358 0.005966931314 0.05218630971
0.597794451 -0.6775393367 0.4284649829
0.1269249371 0.007544416515 0.0539842794
-0.05703094104 -0.1681149754 0.9841162669
0.1431373776 0.01131561411 0.03350345158
0.6255757246 -0.7757318892 0.08303643096
0.1413216446 0.009468218139 0.03424021931
0.6906684407 -0.6683651648 0.2761613868
0.1506726297 -0.02184976886 0.02364141222
-0.5006452616 -0.7550259083 -0.4234267349
0.1517552222 -0.01997381092 0.01853067901
-0.5400339205 -0.6310906723 -0.5568553925
0.1421083558 0.01357926078 0.02720014878
0.4272590163 -0.4543660113 -0.7816656963
0.1413084434 0.01424345244 0.02690822866
-0.08376303308 0.309840482 -0.9470916693
0.1438472871 0.01598622567 0.02747077307
0.06031427395 0.4204382771 -0.9053142236
0.1274954312 -0.01433859354 0.05422450606
-0.7755062424 -0.5682415732 0.2751210324
0.1270301767 -0.01199280233 0.05466250441
-0.6981580336 -0.3197689501 0.6405647341
0.1268875223 -0.01315459895 0.05071767723
-0.7683696931 -0.6144681648 -0.178988517
0.1507912167 -0.02087069808 0.04714593619
0.4426965615 0.8251933674 0.3508214088
0.1525987181 -0.02243962098 0.04557483505
0.861742957 0.5064685858 -0.02981019417
0.1454759634 0.02331911249 0.05124847578
0.2405993126 -0.09192982205 0.966261289
0.1431116099 0.02524673258 0.05024353242
0.01224465759 0.5863547264 0.809961853
0.1409597617 0.02367812082 0.05172803092
0.1058370389 0.3925341355 0.913627645
0.1414013967 -0.01621300738 0.04494795825
0.5200389742 0.7904479371 0.3236534013
0.1469097917 -0.02334002175 0.05238462752
0.2392275785 0.1117692844 0.9645090942
0.1433879351 -0.02463019782 0.05312571249
0.1110199885 -0.3751815137 0.9202789761
0.1456504003 -0.02500011346 0.05157988096
0.02002609439 -0.5721962374 0.8198721982
0.1482749184 -0.02592142688 0.05279668745
-0.4000093532 -0.9031424278 0.1559688192
0.1353784876 0.01546476463 0.05412030988
0.4221503953 -0.216593395 0.880270609
0.1353776518 0.017149986 0.05383919869
-0.1819248431 0.4072098923 0.8950326559
0.1501790617 0.02242265544 0.02230022901
-0.5107075459 0.7409431591 -0.4360975093
0.1495306547 0.02275441399 0.02682348648
-0.3154480961 0.8655010501 -0.389102083
0.1509621363 0.02304387561 0.01983256869
0.2404695532 0.9227061567 -0.3013100437
0.1569998689 -0.01922399478 0.02795948043
0.6386722427 0.7233195391 0.2625006871
0.1553311 -0.01881393505 0.02899369508
0.137960063 0.9896976115 0.0382839238
0.1567495635 -0.01905628383 0.03244375389
0.4262233205 0.8772507681 0.2208274685
0.1285624495 0.01377653688 0.05198075876
-0.7392660412 0.6721354238 -0.04146917445
0.1558115703 0.0186375105 0.03492037932
0.6997649992 -0.5320123417 0.4767513128
0.1559196307 0.02004794815 0.03310730406
0.9533695469 -0.03131315435 0.3001766037
0.1504070952 -0.02254675754 0.02839917872
-0.303794511 -0.8761282154 -0.3743103597
0.1439091976 -0.02112464369 0.03217135255
-0.3575056022 -0.8530072941 -0.3802213837
0.1494467431 -0.02189539665 0.02928769014
-0.3668754876 -0.6190805462 -0.6943642084
0.1259139869 0.009051209535 0.04990092803
-0.77639057 0.6011169808 -0.1894097626
0.1550722458 0.01589058759 0.02855825046
0.1510668028 -0.9869939041 0.0549713952
0.1490937863 0.01465322463 0.03175676614
0.3012977409 -0.9511227247 -0.0677143549
0.1506777971 0.01525942393 0.03042349128
-0.03762261979 -0.8721531134 -0.487784261
0.1248912076 0.005522469013 0.05290174604
-0.6544336788 -0.159450208 0.7391158172
0.1239534905 0.006319447719 0.05140167137
-0.9071014722 0.3899677398 0.1584048014
0.1241454913 0.00441051522 0.05149949628
-0.8653521205 -0.3343706645 0.3733121566
0.155573039 0.01636096861 0.02398418584
0.2521391074 -0.9443704756 0.2111640958
0.1542296252 0.01651280287 0.02614419567
-0.3054594289 -0.9468699949 -0.1006565946
0.1296924997 0.008616322303 0.05425450508
0.376474617 -0.4859166141 0.788766066
0.1506893428 0.02547036838 0.05345697895
0.9517141872 0.03290134142 -0.3052173121
0.1504552146 0.02671555224 0.05475961444
0.7643250117 0.634589533 -0.1144700883
0.1265797573 0.003384558144 0.04864872135
0.3995073453 -0.8135099068 0.422605623
0.1249132994 0.003117710434 0.04865682285
-0.3538764704 -0.8268244667 0.4371873111
0.1246960526 0.001243041951 0.04633691251
-0.6627197593 -0.3765230832 0.6473274971
0.1511098071 -0.02480247032 0.04597563054
0.7429942144 -0.5021275587 -0.4425240244
0.1519078104 -0.02390638015 0.04746549071
0.9650395591 -0.09648487794 -0.2436992361
0.1459172003 0.01325677183 0.03401557488
0.5005089942 -0.8627017387 0.0723633664
0.1497157097 0.01564476587 0.03870764857
0.4375673083 -0.8429678964 0.312953633
0.1535219014 -0.01862777929 0.01769419389
-0.04634494084 0.2715830858 -0.9612984833
0.1549828249 -0.0180403452 0.01863196601
0.5500724354 0.6272959751 -0.5512894661
0.1538297665 -0.01917599169 0.01774422243
0.6650010237 -0.1869244144 -0.7230718511
0.1492199176 0.02349503519 0.04913461967
0.08229789825 -0.9521741664 0.2942641887
0.15034572 0.02387747769 0.04715147035
0.7764340563 -0.6270426012 0.06298993966
0.1498773892 0.02372847646 0.05039793206
0.4113941936 -0.9061566753 0.09815751291
0.1508791072 -0.02323565687 0.05269428709
-0.3564859129 0.8912266781 0.2804154098
0.1491567503 -0.02406286543 0.0535149488
-0.8019603427 0.4204821269 0.4243281628
0.1514775093 0.01981820992 0.0238226779
-0.8251218894 0.2054496992 -0.5262739673
0.1513288381 0.01985143602 0.01720592321
-0.5484691305 0.6139902061 -0.5676245588
0.129288193 0.001668934758 0.04409463186
0.7128667673 -0.5670991428 0.4125767012
0.1308708167 0.0001553314185 0.03767153668
0.7951211507 -0.4665720164 0.3874182614
0.1356910323 0.002813478416 0.03403204075
0.7146817651 -0.6483543124 0.26242458
0.1364334593 0.0200388122 0.0529388395
-0.3046529571 0.6264227256 0.7174825047
0.1375148333 0.01806258132 0.0539111998
0.2977938806 -0.006838661938 0.9546056973
0.1531633328 0.0210762708 0.01755267181
0.6536933815 0.6098330753 -0.448094391
0.1541119269 0.02122518009 0.02059021542
0.9305547876 0.3661387 -0.003199949593
0.1552750887 0.01912604601 0.01892308496
0.9838352742 -0.05479108265 -0.1704878016
0.1541597633 -0.0212631338 0.06009278127
0.8899809789 0.2146066267 0.402340469
0.1540200726 -0.02241888012 0.05755929267
0.9998883731 0.01218606073 -0.0086453034
0.1540733651 -0.01892172936 0.02638673628
-0.3182209653 0.9408143831 -0.11663496
0.1535460648 -0.01888813911 0.02206743387
-0.6945924495 0.7134911729 -0.09204170443
0.1347754928 0.01951769057 0.05206434213
-0.6734769336 0.7167762672 0.1807224467
0.1499929465 0.02322328206 0.06287393051
-0.3771443608 0.4247108232 0.8230327137
0.1401571576 -0.0179227283 0.02847962068
-0.5968744038 -0.6711923829 -0.4395926879
0.1411423154 -0.01778974468 0.02755945814
-0.07980363827 -0.3273696987 -0.9415202917
0.1420874198 -0.01938666531 0.02994336468
-0.4058878866 -0.8002969934 -0.4413385843
0.1530346224 -0.0234884976 0.05434386095
0.9519678939 -0.02591820294 -0.3050989606
0.1474192094 -0.02407322458 0.05144773624
-0.1135220029 0.03463814722 0.9929314949
0.1496270611 -0.02259770494 0.05041218533
0.2297058401 0.7100852711 0.66559307
0.1421310194 -0.0173456015 0.02783234057
0.4205780789 0.4461727254 -0.7899645426
0.1440114881 -0.01897363228 0.02841762802
0.06570033937 -0.4351204632 -0.8979719639
0.1423956492 0.01961876816 0.03062025764
-0.3687710395 0.841613006 -0.3945826511
0.1421966519 0.02559169391 0.04341685211
-0.2098983101 0.9046704833 -0.370828823
0.1353328381 0.02258498235 0.05037409731
-0.6306356442 0.7715397078 0.08381624901
0.1358962008 0.02450617489 0.05000548455
-0.2924384229 0.8532661977 0.4317598462
0.1486035163 0.02067560553 0.02807463722
-0.3750707274 0.6022769591 -0.7046874584
0.1468270996 0.02657585039 0.0523968826
-0.8802913487 0.274568164 0.3869101507
0.1488251621 0.02473661085 0.05470532823
-0.8637376062 -0.4648553305 0.1945941142
0.1350649677 0.0133356487 0.05321295667
0.6517678733 -0.5766508275 0.4926179681
0.1554430703 -0.01839852146 0.02418790461
0.2396482208 0.9510165773 0.1952849199
0.1549811327 -0.01783872768 0.01976757966
0.03026952601 0.9910476618 -0.1300318725
0.1385831926 0.01970899221 0.05340310766
0.2783878106 0.1440118038 0.949610882
0.1501013944 0.02509365383 0.03962395936
0.5309734255 0.8219412538 -0.2061062752
0.1508268332 0.02405168441 0.0412595484
0.943302039 0.330952319 -0.025530881
0.1497207161 0.01954179943 0.04625304243
0.453613338 -0.8131917556 0.3646287265
0.1327293088 0.004070138573 0.02974898681
-0.6131602559 0.3617824767 -0.7022449288
0.136195942 0.009648393295 0.02786660538
-0.2382377231 0.0964777281 -0.9664030398
0.1346619346 0.002584062459 0.02902671538
0.3043473589 -0.2496501151 -0.9192646546
0.1410018091 0.008910733964 0.03190341804
0.7851350037 -0.6158430934 -0.06557675153
0.136090213 -0.02122019786 0.05430144197
-0.6638052205 -0.7224840005 0.1933377827
0.1291566823 -0.01691806572 0.05350771448
-0.7302694725 -0.6825017772 -0.02996367327
0.1524257113 -0.02244937076 0.06100478508
-0.02067222368 -0.9110840981 0.4117018646
0.1528325141 -0.02191220642 0.0631989042
-0.3717815595 -0.4161082546 0.829838775
0.1427729783 -0.02553269608 0.05025818479
-0.01559921099 -0.9868786073 0.1607086775
0.1459894831 -0.02543815244 0.05052569809
-0.1924913355 -0.84430767 0.5000916357
0.1462968519 0.02765201014 0.05158399532
-0.4120710983 0.9002254898 0.1406821861
0.1399563489 -0.02226857466 0.05479226282
0.2803918748 -0.1240390919 0.9518375388
0.1377816299 -0.02212799478 0.05476104678
-0.2961289221 -0.6181719953 0.7281284542
0.1388488807 -0.02368714064 0.05341214347
-0.1596865915 -0.5607323282 0.8124527362
0.1359284431 0.007394114936 0.04025476819
0.6556842734 -0.674867785 0.3385728967
0.1398467995 0.006392613406 0.03218940236
0.7085798199 -0.6917643388 0.1392003536
0.138375684 0.01016380673 0.02779096324
0.2177379273 -0.09433582498 -0.9714375673
0.1368024951 0.004319508508 0.02956715859
0.5810309844 -0.5973371843 -0.5528031145
0.1420751152 0.02085988596 0.05314367426
0.2520228504 -0.05566825722 0.966118796
0.13761145 0.02187224351 0.05195463692
-0.167258941 0.5724331045 0.8027108991
0.1418949339 -0.01322785952 0.03485666329
0.6816776813 0.6820709082 0.2647542541
0.1250313743 0.0005590922615 0.04271204975
-0.8157058341 0.469049099 -0.3385512295
0.1352611845 0.0005660704028 0.03199081051
0.920189321 -0.3914223675 -0.006335912522
0.1344166746 -0.002098039819 0.03416434647
0.9407182616 0.009131449214 0.3390660245
0.1347713017 -0.002424101508 0.03205330536
0.9962737949 0.005899749191 -0.08604486374
0.1546663397 0.02197462812 0.03170885348
0.6815450996 0.7308944244 -0.03591124684
0.1556455254 0.0203733378 0.02995007425
0.9721082894 0.2195049705 0.08260170493
0.1347888416 0.01858938924 0.04965913978
-0.6960033552 0.6417915787 -0.3219982905
0.1298833097 -0.005329885405 0.04429835482
0.7051738905 0.5834851889 0.4028334873
0.1308465071 -0.004095910395 0.03774629719
0.7887700824 0.4836977006 0.3793129203
0.1244376744 0.003643759614 0.048080782
-0.9930602097 0.06042994425 0.1008942104
0.1249265792 0.004064313128 0.05209723951
-0.1431447218 -0.8009574433 0.5813576891
0.1264887894 -0.00895442708 0.05386169468
0.09842198851 0.6445344683 0.7582139747
0.1257985246 -0.009371739906 0.05378165957
-0.6566984472 0.1632642539 0.736268927
0.1558512467 0.01680142033 0.03385186092
0.5102706195 -0.7545023128 0.4127349692
0.1566973731 0.01766605606 0.03097225047
0.8031986991 -0.5440080265 0.242749082
0.1506793924 0.0234485876 0.05538945121
-0.1477754421 -0.9890145762 0.003547786053
0.15027745 0.0239823944 0.05278266522
0.4682167359 -0.8815259328 -0.06070517326
0.1500446081 -0.02560580599 0.04838696304
0.6229706817 -0.7286593644 -0.2845400857
0.1523059196 -0.0233540606 0.0519684716
0.9580018038 0.208158634 -0.1972372354
0.1488169189 0.02413428398 0.05162131916
-0.3445680665 -0.8910438883 0.2954888097
0.1533280164 -0.02293426061 0.05809649432
0.7579570139 -0.6128794161 0.223338278
0.140152782 0.009290310784 0.02983684133
0.7193805702 -0.5634942542 -0.4061598463
0.1255700307 -0.008109121345 0.05274729245
-0.1541071073 0.8083599727 0.5681594442
0.1248178599 -0.008540352198 0.05219123287
-0.869813544 0.3289940071 0.3676783133
0.1403377782 -0.01024065217 0.03251338537
0.6992994014 0.7033842896 0.1274005037
0.1365094666 -0.01094274701 0.04079247234
0.6466503817 0.6891305427 0.3270204564
0.1524398659 -0.02261173909 0.05145753664
0.3998236028 0.9128538045 0.08269835693
0.1250825046 0.003646421436 0.0462029539
-0.8537431751 0.4642350574 -0.2358143391
0.1526820505 -0.02354650693 0.042742307
0.9475411629 -0.3189992033 -0.02013089522
0.1500362044 0.02481442814 0.05084738021
0.9606471121 -0.1990025023 -0.1937914605
0.147542679 0.02522909666 0.05219554786
-0.7964867021 -0.423649451 0.4314279499
0.1470935065 0.02478030216 0.05045464217
-0.4135881671 -0.5258604192 0.7432466936
0.1450721788 0.026712352 0.05007720484
-0.5247212951 0.6244835163 0.5785221693
0.1487403817 0.02579107986 0.04226241961
0.4748226789 0.8379400315 -0.2690723457
0.1264242706 -0.003310604579 0.04519997365
0.4803069266 0.3714862257 0.7945459334
0.1270034244 -0.00548881816 0.04678205781
0.3868203534 0.6898782757 0.6119133754
0.155934622 -0.01877256866 0.023311604
0.7549841655 0.621490517 0.2091612945
0.1485550356 -0.02508294919 0.05373361579
-0.8766378641 -0.2796172142 0.3915613219
0.1506621308 -0.02335416777 0.05568812616
-0.8699170518 0.4564902084 0.1867110402
0.1278397332 -0.01131701755 0.05498480595
-0.0600102685 0.1834875499 0.9811886091
0.1368198089 -0.01533731112 0.03002783383
-0.6376923739 -0.6190828124 -0.4583502019
0.1535109748 -0.02053215081 0.0190951914
0.6618631621 -0.6083905358 -0.4379476117
0.1554499052 -0.01923287878 0.01998862027
0.9829823481 0.06535410244 -0.171681521
0.1543005305 -0.02080038891 0.02192831942
0.935462132 -0.353413897 0.003035950939
0.1558528872 0.01934944177 0.02683460693
0.9778111105 -0.1386718324 0.1570208748
0.1246384355 -0.0005665263044 0.04530329892
-0.2716623602 -0.4144553188 0.8685771991
0.1267133365 0.0014835308 0.04653499001
0.3962438933 -0.6742332265 0.6232177255
0.1427839425 -0.0253024887 0.04877580254
-0.1024024827 -0.9718000772 -0.2124107846
0.125721808 -0.007693730794 0.04676617651
-0.8471782067 -0.4798086147 -0.2281946084
0.1320256172 -0.01581170191 0.04702769399
-0.6823863875 -0.6372595201 -0.3581188659
0.139862275 -0.0164426571 0.02824637896
-0.03327027994 0.07618132022 -0.9965387574
0.1508098191 -0.0247183987 0.04370889295
0.4860523009 -0.835905944 -0.2549792416
0.1282860079 -0.009637541374 0.05291578734
0.5885580024 0.6926640512 0.4169124489
0.129939738 -0.009099627197 0.04943372608
0.6271222936 0.6936232046 0.3544072219
0.1271113601 -0.007275577659 0.04917783627
0.3884235001 0.8257754711 0.408927935
0.1472826657 -0.02545194872 0.05127127796
-0.5163755495 -0.6214726065 0.5891757728
0.1520187273 -0.01928164104 0.01918938522
-0.8953430526 -0.00634454428 -0.4453319715
0.1533491465 -0.01840572584 0.01937235919
-0.5660804553 0.7531550575 -0.3351274049
0.156768089 -0.02099600127 0.03577256257
0.6924768135 0.5493602457 0.4676314609
0.1368411637 -0.02463086786 0.05174824769
-0.2810840506 -0.849547481 0.4463864178
0.143240952 0.02624538306 0.0492192921
-0.2037192839 0.850018167 0.4857649319
0.1456996244 0.02482109842 0.05019070473
-0.1132001192 -0.01897875334 0.9933909301
0.1518765011 -0.02002475697 0.0208821375
-0.9762981303 -0.04601628519 -0.2114815884
0.1516386625 -0.02058715911 0.02455038381
-0.8222024403 -0.2251714286 -0.5227628286
0.1484676949 -0.02637005481 0.04905278084
0.05797479477 -0.9808623149 -0.1858710367
0.1565337219 -0.02022069552 0.02780679077
0.9758311728 0.1544731758 0.1545689498
0.1520320728 0.01856261527 0.01838244766
-0.8951254722 -0.01343546474 -0.445611801
0.1516137464 0.01964218142 0.01981292019
-0.9767793858 0.02970874888 -0.2121778069
0.1566676662 -0.01970142264 0.03458764544
0.5001463382 0.768084533 0.3998747186
0.1479248537 -0.01883279653 0.02967952122
0.3782440687 0.7016669418 -0.603816965
0.1446625777 -0.01776266245 0.02895521895
0.4759179293 0.5334351893 -0.6992488994
0.149671229 -0.01808863353 0.03253545175
0.2886675815 0.9537538138 -0.08381342428
0.1480914928 0.0272520694 0.04731311503
0.6131863254 0.7320032169 -0.2969407698
0.1481835319 0.02785186328 0.05355365794
0.2698863509 0.9614299987 -0.05304446473
0.1563339005 0.01721350783 0.02722940498
0.6483921537 -0.7100228396 0.2746910669
0.1476756709 0.02531100565 0.03863851063
-0.06506129267 0.958619587 -0.2771561213
0.1460615996 0.02809585916 0.04786384423
0.04492381171 0.978268566 -0.2024165604
0.1250074777 -0.005435710723 0.04654663019
-0.668601583 0.3778429463 0.6404737553
0.1538044133 0.01711857295 0.02187960833
-0.6849931765 -0.7241588467 -0.07986434055
0.1528771006 0.0176826477 0.02523390858
-0.7029487557 -0.5670115966 -0.4293726776
0.1479429407 0.0226253197 0.04950612883
0.2390300982 -0.6955591373 0.6775412155
0.1455191826 -0.02194344538 0.05317760423
0.3916625796 0.579889636 0.7143727555
0.1395734894 0.02568908312 0.04872186823
-0.02871093765 0.9891099563 0.1443508796
0.1386746845 -0.01456169862 0.02836721906
0.2167809846 0.08060198599 -0.9728871078
0.126262228 -0.0008017004595 0.04519151142
0.4851634201 -0.351429777 0.8006956773
0.123775488 -0.0004314451845 0.04426131652
-0.9686799306 0.1680070744 0.1828464245
0.1393514819 -0.009918575687 0.03095799855
0.696515854 0.676848897 -0.2382041893
0.1361537784 0.002391009037 0.03101769456
0.7455504525 -0.6502538597 -0.1460289036
0.1396531644 0.02575906874 0.04714660967
-0.1152867046 0.9666402975 -0.2287258425
0.1484179013 0.02765592489 0.05531236228
-0.06803780644 0.9812221183 0.1804827178
0.153620666 0.01868440179 0.03857850133
0.6106936915 -0.6878515252 0.3923181036
0.1295537484 -0.01392024013 0.05564521072
-0.4698665377 -0.2540772495 0.8453816819
0.142781609 0.01210981973 0.02981281959
0.5684998257 -0.7531728649 -0.330966137
0.1342456122 -0.005128848105 0.02887021453
0.6870082654 0.2973658729 -0.6630182358
0.1353639289 -0.005189801192 0.03161177575
0.9149012944 0.4034662635 -0.01306122596
0.1298263481 -0.00194721349 0.03954843665
0.9263645071 0.009437428786 0.3765099401
0.1278473521 -0.002004189312 0.04368589811
0.8346797016 -0.1783982754 0.5210411223
0.1278473521 -0.002004189312 0.04368589811
0 0 0
0.1292796092 0.005540023755 0.04880978792
0.6363010948 -0.6791011927 0.3659815389
0.1436917035 -0.02284471681 0.05432370022
0.2511302717 0.07534310521 0.9650165818
0.1359640478 0.01113833761 0.02907554109
-0.6458159976 0.6027091899 -0.4686825468
0.1398939806 0.01216702882 0.02764100641
-0.03204350864 -0.09346702179 -0.995106592
0.1558246703 -0.01818633613 0.02024764868
0.6607408395 0.7502177879 -0.02438880603
0.1539484558 -0.02170473711 0.0255591361
0.8500785721 -0.5056548208 -0.1472400198
0.15607348 0.0159365046 0.03181950494
0.4377995683 -0.8676480867 0.2356232919
0.1498108914 0.01469064652 0.0345600416
0.3325515498 -0.9222344656 0.1972132277
0.1518641353 0.01984349122 0.01606411721
0.03261649064 0.6218117368 -0.7824872705
0.1536904163 0.01899271927 0.01660190197
0.6623664554 0.1837775809 -0.7262895287
0.1536369639 0.0177466483 0.01702621072
-0.04288710008 -0.2885345615 -0.9565084963
0.1289915451 0.002610646725 0.03810884358
-0.7505802281 0.5960150695 -0.2852987174
0.1274568823 -0.0005813512766 0.03838108058
-0.8697885076 0.2990294679 -0.3924911839
0.1258614239 -0.002163938497 0.04088787821
-0.9073570729 -0.0094379203 -0.4202547655
0.1340874012 0.0007956072297 0.03468964035
0.8301495459 -0.4038674711 0.3843732525
0.1416286489 0.01697817567 0.02890256549
-0.4164279077 0.7872715882 -0.4547430529
0.1336033874 -0.01828596909 0.0561835422
-0.3858946156 -0.7034996766 0.5968027736
0.137272298 -0.00860327687 0.02979631095
0.572925813 0.5955226448 -0.5631241358
0.1486101361 -0.02382350738 0.05167344543
-0.4205392769 0.5330608671 0.7341613097
0.1377951624 -0.01848589118 0.03859746182
-0.6704143524 -0.7023364619 -0.2393075227
0.1552068064 0.01701338098 0.01812709751
0.5587342026 -0.6288832463 -0.5406680621
0.1454093205 -0.02497960304 0.04510898458
-0.1977905239 -0.9135212725 -0.3554684139
0.1524822698 -0.0227126954 0.04837761667
0.7679916657 0.6383374909 0.05209653724
0.1503866663 0.01852816457 0.02729248003
-0.5148017879 0.004731622001 -0.8572961746
0.1482004627 0.01722683827 0.02822079359
-0.01167482452 -0.04377104484 -0.9989733701
0.1497766376 -0.0246865826 0.04017615229
-0.05233345707 -0.9639529628 -0.2608752474
0.1514242603 -0.0228155707 0.05020242881
0.06961803002 0.9580527924 0.2780075123
0.1521854468 0.0203652279 0.04091534756
0.6375597963 -0.6809403182 0.3603301115
0.151902256 0.02340333755 0.0299203175
-0.02205041625 0.9597013018 -0.280155654
0.1531300828 0.02309397161 0.02695259091
0.4308360071 0.8952523881 -0.1135935588
0.1389636275 -0.02085592853 0.05532830317
0.2976500688 0.02686164107 0.9542970653
0.13179733 0.003380348047 0.03251712044
-0.779334215 0.5144475012 -0.3577456496
0.1388947203 0.005919734109 0.03062621996
0.7054975739 -0.6714537898 -0.2267663586
0.153569303 -0.02159875207 0.06128753236
0.8114221591 -0.2502162536 0.5281911643
0.1523864231 -0.01988441508 0.0175239448
0.04100659392 -0.6345544429 -0.7717895557
0.1249979472 -0.01028459949 0.05229696764
-0.9018629113 -0.3993163075 0.1648932256
0.1319916331 -0.002680241031 0.03283739896
-0.7997067941 -0.01039626223 -0.6003007256
0.1332342359 0.0006223453443 0.02889957574
-0.181059692 0.05395752917 -0.9819908212
0.1324598072 -0.004266086044 0.02899870509
-0.3794073494 -0.2656979084 -0.8862588136
0.1332936686 -0.005777519414 0.0284349595
-0.1799477338 -0.07285093722 -0.9809747979
0.1299592253 -3.066865288e-05 0.03411179525
-0.8452088277 0.4144184741 -0.3374601693
0.1368798085 -0.01987508321 0.0555296567
-0.1764604495 -0.3940708593 0.9019810794
0.1535662914 0.01690994256 0.01909755568
-0.5560611148 -0.7662017357 -0.3220728751
0.1242631741 -0.002114790088 0.04487467833
0 0 0
0.124264247 -0.002114736166 0.04487498221
0 0 0
0.1242631741 -0.002114790088 0.04487467833
-0.1778732616 -0.08909826235 0.9800115318
0.1403836847 0.0141948114 0.02779423254
-0.6059499461 0.6557910006 -0.4502919345
0.1341349967 0.0001297993697 0.02938935207
0.6907786641 -0.2992624176 -0.6582300833
0.147592259 0.01521080827 0.02882391661
0.3873710676 -0.7063593546 -0.5924526295
0.1523876384 0.01625035672 0.02860526851
-0.2558881009 -0.8350130734 -0.4871082498
0.1536454125 0.02240311434 0.02419625875
0.8433229716 0.5142093252 -0.1561894217
0.1327049986 -0.001327163237 0.0297884489
-0.3828438169 0.2457454009 -0.8905278265
0.1275237639 -0.003442316025 0.03865431141
-0.8657123559 -0.3170784096 -0.3873027226
0.1321891106 -0.008066475226 0.03280162833
-0.7723601659 -0.5307447135 -0.3489553312
0.1278473521 -0.002004189312 0.04368589811
0.8082896079 0.3288092849 0.4884182264
0.1442879399 0.01397923925 0.0281908628
0.4830970507 -0.5388881457 -0.6900846369
0.1287067042 -0.002014756689 0.03577721617
-0.9167376377 -0.009452763543 -0.3993779525
0.1327965374 -0.002875171332 0.0290901825
-0.140820896 -0.009312834584 -0.989991286
0.1336843779 -0.002744353749 0.02919955539
0.6817963004 -0.001653664627 -0.731540204
0.1250608188 -0.007716593382 0.04863070393
-0.9921677275 -0.07242530519 0.1017731582
0.1254995848 -0.007125957836 0.04917071617
-0.3642787557 0.8296095971 0.4231417075
0.1276739956 -0.002063190084 0.03851531134
-0.9113684139 -0.0094218666 -0.4114837087
0.123487405 -0.002190719894 0.04320530172
-0.9821010223 -0.008140193684 -0.1881789555
0.1242631741 -0.002114790088 0.04487467833
-0.7303027044 0.0006997157894 0.6831233201
0.123771086 -0.00215627051 0.04432296122
-0.8820680877 -0.002154885426 0.4711170186
0.1278470719 -0.002005233136 0.0436868749
-0.3854800506 0.8876620691 -0.2519150287
0.1263239137 -0.002069199099 0.04524300331
0.5062023116 0.01066360679 0.8623488315
0.1299571566 -0.004391745516 0.03410051427
-0.839582811 -0.4312763739 -0.3303049998
3 0 1 2
3 3 4 5
3 6 7 8
3 9 10 11
3 12 13 14
3 15 16 17
3 18 8 19
3 20 21 22
3 23 24 25
3 26 27 28
3 12 14 29
3 3 30 31
3 13 12 32
3 33 34 35
3 36 37 38
3 39 40 41
3 42 43 44
3 12 45 41
3 46 47 48
3 49 15 50
3 14 51 52
3 53 54 55
3 56 57 58
3 59 60 61
3 62 63 64
3 65 66 67
3 68 69 70
3 71 72 73
3 74 29 52
3 52 51 40
3 39 41 75
3 45 75 41
3 76 77 78
3 79 80 81
3 10 82 83
3 47 84 85
3 86 87 88
3 89 90 91
3 29 74 92
3 74 52 93
3 94 95 96
3 97 98 99
3 100 101 102
3 103 104 105
3 106 107 108
3 106 108 104
3 109 46 110
3 26 111 112
3 113 114 115
3 116 117 118
3 50 119 120
3 121 122 123
3 12 92 45
3 119 124 30
3 125 126 127
3 128 60 71
3 94 96 129
3 130 94 129
3 131 132 133
3 134 135 136
3 137 103 105
3 138 139 90
3 140 141 142
3 103 143 104
3 144 145 146
3 147 104 148
3 148 149 147
3 55 150 151
3 105 104 152
3 75 153 154
3 155 156 157
3 154 39 75
3 158 120 159
3 109 160 161
3 162 163 164
3 165 166 167
3 168 169 23
3 170 131 171
3 172 173 174
3 175 130 176
3 129 176 130
3 177 178 179
3 24 180 181
3 19 182 183
3 175 184 130
3 14 13 185
3 186 187 188
3 181 59 189
3 106 147 149
3 155 107 106
3 190 191 125
3 192 193 187
3 194 37 195
3 38 196 197
3 132 198 194
3 199 200 93
3 48 85 201
3 182 135 202
3 45 153 75
3 163 162 203
3 204 175 176
3 89 205 206
3 89 2 207
3 208 209 210
3 74 93 200
3 110 211 109
3 212 213 83
3 87 214 215
3 137 143 103
3 6 8 18
3 107 152 108
3 127 216 217
3 152 96 95
3 199 93 218
3 219 220 221
3 23 25 168
3 46 222 223
3 86 20 87
3 209 224 225
3 85 204 176
3 204 226 227
3 97 228 124
3 78 77 229
3 230 231 232
3 233 139 234
3 184 196 235
3 236 44 237
3 238 156 149
3 156 239 149
3 148 238 149
3 117 240 241
3 138 242 243
3 244 245 45
3 59 246 247
3 86 24 21
3 244 248 245
3 60 249 72
3 225 224 250
3 197 196 227
3 143 137 235
3 251 252 240
3 124 253 254
3 247 255 25
3 148 256 238
3 120 257 50
3 118 83 213
3 258 153 245
3 248 259 260
3 199 218 261
3 206 205 262
3 142 141 188
3 236 263 264
3 202 265 203
3 204 85 84
3 266 71 267
3 240 117 268
3 188 269 186
3 38 235 196
3 270 271 272
3 273 178 133
3 256 148 143
3 2 89 206
3 274 275 157
3 217 216 276
3 157 156 238
3 277 67 278
3 192 279 69
3 267 21 23
3 120 280 257
3 281 282 283
3 217 284 190
3 162 285 286
3 287 17 100
3 288 216 127
3 289 290 261
3 260 261 290
3 289 122 290
3 122 121 290
3 19 291 292
3 70 69 97
3 123 122 197
3 128 284 293
3 294 136 102
3 36 38 197
3 171 295 296
3 92 244 45
3 297 102 136
3 253 44 254
3 298 299 300
3 246 59 61
3 282 281 62
3 153 258 154
3 1 258 167
3 166 1 167
3 154 258 301
3 301 302 154
3 54 303 144
3 195 304 132
3 301 305 302
3 136 68 297
3 264 306 283
3 247 246 159
3 260 165 248
3 258 1 301
3 307 308 296
3 290 309 260
3 191 119 310
3 122 289 311
3 197 122 311
3 26 28 140
3 269 312 279
3 172 275 313
3 313 275 274
3 128 293 61
3 221 220 82
3 256 314 157
3 314 274 157
3 99 315 253
3 210 225 316
3 7 298 300
3 317 289 261
3 289 317 311
3 279 186 269
3 36 311 317
3 60 72 71
3 218 93 318
3 138 319 161
3 84 309 121
3 320 213 63
3 94 137 95
3 117 62 268
3 160 109 321
3 223 222 174
3 42 322 323
3 324 325 326
3 48 327 172
3 318 40 39
3 313 325 172
3 258 245 167
3 225 210 209
3 133 171 131
3 328 310 219
3 12 41 32
3 109 211 250
3 329 330 224
3 224 330 250
3 50 257 49
3 151 150 144
3 59 249 60
3 331 271 163
3 96 201 129
3 195 36 317
3 297 79 287
3 27 26 332
3 278 67 66
3 312 98 279
3 87 73 214
3 166 2 1
3 207 2 166
3 144 333 334
3 305 262 195
3 279 192 187
3 335 336 337
3 37 36 195
3 54 179 178
3 20 86 21
3 229 338 339
3 340 229 339
3 316 174 341
3 292 142 18
3 2 206 262
3 305 0 262
3 37 342 76
3 29 14 52
3 301 0 305
3 302 218 318
3 287 81 17
3 116 320 117
3 231 230 341
3 64 5 4
3 338 229 77
3 228 99 253
3 0 2 262
3 187 186 279
3 50 81 80
3 184 235 137
3 48 222 46
3 93 52 40
3 341 174 173
3 78 235 38
3 29 92 12
3 73 72 214
3 265 135 134
3 264 282 236
3 161 160 334
3 343 64 63
3 57 42 344
3 79 68 70
3 123 197 227
3 14 185 51
3 345 190 284
3 86 180 24
3 157 238 256
3 66 269 346
3 347 55 337
3 205 304 195
3 80 79 119
3 82 220 212
3 188 6 142
3 248 167 245
3 280 348 49
3 22 71 73
3 270 272 26
3 335 177 336
3 41 40 51
3 280 158 293
3 349 159 120
3 350 351 198
3 134 136 294
3 91 304 205
3 48 172 222
3 281 268 62
3 119 349 120
3 293 276 348
3 348 140 352
3 277 306 34
3 334 160 321
3 327 152 107
3 30 3 310
3 353 255 349
3 43 237 44
3 161 319 354
3 305 195 317
3 185 13 32
3 213 116 118
3 133 355 356
3 286 285 183
3 172 324 173
3 34 67 277
3 171 337 295
3 240 268 281
3 98 315 99
3 260 259 199
3 91 90 233
3 45 245 153
3 58 344 312
3 5 357 3
3 11 10 278
3 338 358 339
3 211 223 359
3 161 334 242
3 215 360 88
3 174 316 359
3 112 361 26
3 135 68 136
3 241 362 117
3 345 353 191
3 17 81 50
3 275 172 327
3 292 112 111
3 356 233 234
3 22 267 71
3 193 299 6
3 304 91 355
3 121 226 84
3 363 208 364
3 365 322 366
3 287 79 81
3 90 139 233
3 240 252 241
3 91 233 355
3 314 256 229
3 333 242 334
3 200 244 92
3 363 367 358
3 44 315 42
3 11 188 141
3 104 108 152
3 193 6 188
3 220 368 212
3 58 312 269
3 286 203 162
3 95 105 152
3 24 189 25
3 337 369 295
3 213 320 116
3 370 371 372
3 362 241 252
3 271 270 164
3 246 61 293
3 168 25 255
3 208 358 329
3 89 354 319
3 283 240 281
3 342 373 329
3 214 360 215
3 124 31 30
3 316 225 359
3 374 210 316
3 316 230 374
3 270 26 361
3 374 230 232
3 353 349 191
3 8 182 19
3 139 243 234
3 35 263 33
3 227 196 175
3 146 145 375
3 198 342 194
3 126 288 127
3 360 214 180
3 209 208 329
3 374 364 210
3 63 62 320
3 350 308 376
3 234 273 377
3 377 356 234
3 154 302 318
3 345 168 353
3 219 310 3
3 285 291 183
3 115 114 342
3 196 184 175
3 378 364 374
3 263 35 264
3 57 56 366
3 343 5 64
3 210 364 208
3 9 288 10
3 376 151 144
3 65 379 380
3 54 178 273
3 146 376 144
3 263 236 381
3 231 173 324
3 351 350 376
3 351 376 146
3 284 266 345
3 361 164 270
3 115 351 382
3 344 98 312
3 382 321 113
3 244 200 259
3 114 330 373
3 330 329 373
3 328 221 126
3 257 280 49
3 217 190 127
3 131 198 132
3 170 198 131
3 373 342 114
3 350 170 308
3 202 135 265
3 277 278 118
3 330 114 113
3 113 321 330
3 209 329 224
3 356 377 133
3 145 321 382
3 293 348 280
3 303 333 144
3 308 307 151
3 54 53 179
3 150 55 54
3 219 357 220
3 369 307 295
3 308 170 296
3 295 307 296
3 177 133 178
3 177 335 133
3 9 276 216
3 171 133 335
3 53 347 179
3 85 48 47
3 179 336 177
3 336 179 347
3 358 367 383
3 79 124 119
3 332 26 294
3 337 171 335
3 369 337 55
3 322 57 366
3 378 384 363
3 346 269 188
3 184 94 130
3 111 140 142
3 69 98 97
3 143 148 104
3 18 19 292
3 273 243 333
3 384 378 385
3 362 386 277
3 378 374 385
3 67 379 65
3 11 348 9
3 49 348 352
3 56 269 380
3 183 203 286
3 140 348 141
3 126 221 288
3 16 101 100
3 87 215 88
3 220 357 368
3 353 168 255
3 324 172 325
3 228 97 99
3 3 357 219
3 168 345 169
3 31 236 282
3 307 369 55
3 338 329 358
3 156 155 239
3 284 276 293
3 155 106 239
3 115 342 351
3 138 90 319
3 22 73 20
3 306 386 387
3 354 207 161
3 189 59 247
3 15 49 352
3 98 69 279
3 170 350 198
3 265 271 331
3 101 332 294
3 287 102 297
3 76 342 329
3 97 79 70
3 327 48 152
3 42 315 344
3 337 336 347
3 165 309 166
3 50 15 17
3 266 128 71
3 329 338 77
3 234 243 273
3 152 201 96
3 387 251 283
3 7 135 8
3 306 277 386
3 31 4 3
3 18 142 6
3 104 147 106
3 47 207 84
3 0 301 1
3 376 308 151
3 180 214 72
3 207 47 46
3 226 121 123
3 283 306 387
3 322 42 57
3 107 155 327
3 118 117 362
3 34 306 35
3 31 124 254
3 218 305 261
3 133 132 355
3 260 309 165
3 331 203 265
3 235 78 143
3 111 26 140
3 110 223 211
3 85 129 201
3 309 84 207
3 200 199 259
3 5 368 357
3 242 333 243
3 129 85 176
3 207 166 309
3 310 125 191
3 249 181 180
3 382 351 375
3 276 284 217
3 250 330 321
3 27 101 16
3 212 368 343
3 233 356 355
3 218 302 305
3 212 83 82
3 53 55 347
3 86 360 180
3 290 121 309
3 37 194 342
3 256 143 78
3 77 76 329
3 165 167 248
3 36 197 311
3 345 266 169
3 363 383 367
3 299 298 6
3 274 372 313
3 374 232 385
3 341 173 231
3 112 291 285
3 119 191 349
3 300 68 135
3 349 255 159
3 11 346 188
3 112 285 162
3 266 284 128
3 247 25 189
3 164 163 271
3 267 169 266
3 9 216 288
3 158 280 120
3 340 339 388
3 11 278 346
3 162 361 112
3 386 252 387
3 219 221 328
3 228 253 124
3 124 79 97
3 361 162 164
3 344 58 57
3 8 135 182
3 159 255 247
3 387 252 251
3 203 182 202
3 30 310 119
3 293 158 246
3 80 119 50
3 300 69 68
3 65 380 269
3 37 76 78
3 205 89 91
3 382 113 115
3 346 278 66
3 307 55 151
3 275 155 157
3 46 109 161
3 343 63 213
3 296 170 171
3 222 172 174
3 239 106 149
3 105 95 137
3 183 291 19
3 132 194 195
3 354 89 207
3 320 62 117
3 83 118 278
3 110 46 223
3 256 78 229
3 139 138 243
3 135 7 300
3 359 225 250
3 31 254 236
3 226 204 84
3 377 273 133
3 58 269 56
3 291 112 292
3 150 54 144
3 375 351 146
3 125 310 328
3 242 138 161
3 62 64 4
3 154 318 39
3 321 109 250
3 145 144 334
3 79 297 68
3 10 288 82
3 230 316 341
3 59 181 249
3 299 193 192
3 141 348 11
3 94 184 137
3 318 93 40
3 37 78 38
3 226 123 227
3 269 66 65
3 262 205 195
3 299 192 69
3 249 180 72
3 32 41 51
3 298 7 6
3 368 5 343
3 145 334 321
3 261 305 317
3 51 185 32
3 261 260 199
3 300 299 69
3 342 198 351
3 250 211 359
3 161 207 46
3 223 174 359
3 294 26 272
3 292 111 142
3 155 275 327
3 132 304 355
3 378 363 364
3 74 200 92
3 208 363 358
3 315 98 344
3 90 89 319
3 48 201 152
3 190 345 191
3 204 227 175
3 277 118 362
3 303 54 273
3 248 244 259
3 375 145 382
3 339 358 383
3 340 389 229
3 303 273 333
3 389 314 229
3 127 190 125
3 348 276 9
3 193 188 187
3 100 102 287
3 323 43 42
3 61 60 128
3 278 10 83
3 372 274 314
3 16 28 27
3 101 294 102
3 20 73 87
3 283 251 240
3 390 372 314
3 15 28 16
3 352 28 15
3 134 294 265
3 140 28 352
3 392 326 325
3 283 282 264
3 288 221 82
3 328 126 125
3 23 169 267
3 282 62 31
3 183 182 203
3 254 44 236
3 265 294 272
3 158 159 246
3 35 306 264
3 24 181 189
3 253 315 44
3 332 101 27
3 343 213 212
3 331 163 203
3 17 16 100
3 88 360 86
3 21 24 23
3 362 252 386
3 31 62 4
3 372 390 370
3 372 371 393
3 393 392 325
3 22 21 267
3 265 272 271
3 314 389 391
3 339 383 388
3 56 380 363
3 340 388 379
3 379 383 380
3 340 379 67
3 340 67 389
3 236 237 324
3 231 43 323
3 43 231 237
3 324 326 381
3 380 383 394
3 365 363 384
3 323 232 231
3 324 381 236
3 363 366 56
3 370 33 371
3 392 381 326
3 231 324 237
3 322 385 232
3 363 380 394
3 384 385 365
3 363 394 383
3 33 370 390
3 322 232 323
3 365 385 322
3 390 391 34
3 365 366 363
3 389 67 34
3 393 371 33
3 381 392 393
3 34 391 389
3 379 388 383
3 391 390 314
3 313 372 393
3 313 393 325
3 33 390 34
3 263 393 33
3 263 381 393
