ply
format ascii 1.0
element vertex 395
property double x
property double y
property double z
property double nx
property double ny
property double nz
element face 786
property list uchar int vertex_indices
end_header
0.1491510838 0.02596392033 0.0445343595
0.7362981827 0.50440842 -0.4510400559
0.1500893902 0.02528031041 0.04605648043
0.9637068869 0.1050913109 -0.2454075234
0.1507483147 0.02319630581 0.04390240317
0.8683951988 -0.4954165236 -0.02126609815
0.1402601429 -0.02013102299 0.05296719585
0.5155310045 0.5259403135 0.6764721502
0.1355193499 -0.01609240505 0.05364115696
0.6439407257 0.5935383666 0.4827551648
0.136088908 -0.01787655042 0.05484071318
0.4190155972 0.2372395814 0.8764378531
0.1469130262 -0.01979493298 0.02793661049
-0.01215141802 0.02670970689 -0.9995693746
0.1494077737 -0.01860085928 0.02917229744
-0.04903877441 0.8633802205 -0.5021651057
0.1507667214 -0.01904509385 0.02712858504
-0.2668673082 0.823189226 -0.5011400384
0.1381798232 -0.02550815051 0.04983808743
-0.2617736502 -0.9535251074 -0.1492126859
0.1367945857 -0.02457242481 0.05003978876
-0.5760217382 -0.7758952456 -0.2572654757
0.1401753805 -0.02181082165 0.03984909528
-0.5679385329 -0.7588443597 -0.3187492128
0.1517456459 0.02261897763 0.0606503186
0.2693885703 -0.935087609 0.2303062346
0.1511770511 0.02303381229 0.06214250939
0.5520719332 -0.4666611058 0.6909732215
0.1500432175 0.02312716406 0.06256946747
-0.7543438878 -0.4428915831 0.4845743953
0.1513740099 -0.02461151325 0.0354771768
0.4549086496 -0.8844864355 -0.1036429732
0.1537484396 -0.02323928429 0.03095804753
0.6912010504 -0.7222747871 -0.02366938786
0.1528898301 -0.02350339876 0.0364231344
0.956334435 -0.1059365511 0.2724002489
0.1492666417 -0.02019923737 0.02670174185
-0.5144699384 -0.02596039045 -0.8571153601
0.1513051123 -0.0192799743 0.02419135986
-0.7103639815 0.5502342103 -0.4388910202
0.1523012322 -0.0225718072 0.06009951531
-0.8334047452 0.5491575157 -0.0621494451
0.1524715638 -0.022792013 0.05827471151
-0.3588980556 0.931804139 -0.05415932324
0.150621738 -0.02385165424 0.0576314914
-0.9792914399 0.1537621114 0.1317022734
0.152185988 -0.02317599928 0.05621364377
-0.1608148762 0.9868964187 -0.01319220674
0.1535323812 -0.02266414661 0.05772101664
0.630357939 0.7723512702 -0.07824566609
0.1518367859 -0.02353146044 0.05352232166
0.4565396996 0.886467862 -0.07580390764
0.1510312694 -0.02163781244 0.02088657792
0.2529001032 -0.9244024266 -0.2855200371
0.1524192884 -0.02289080496 0.02690660485
0.4428029448 -0.8911976311 -0.09844965415
0.1510139257 -0.02343582468 0.02961883988
-0.00920962886 -0.9645076933 -0.263894093
0.1506261433 0.02359881818 0.05956161941
-0.8259031866 -0.5613371876 -0.05276824968
0.1415219479 -0.01916568003 0.05040875107
0.4854716542 0.7529958801 0.4442009426
0.1359393419 -0.0149832372 0.05005683917
0.6327842268 0.6918432117 0.3477601081
0.1513838504 0.02412281715 0.06102419274
0.807891237 0.2697751703 0.5239590696
0.1239232245 -0.001825379331 0.04429580484
-0.1792121039 0.103229272 0.9783796498
0.123536842 -0.003522086218 0.04368865075
-0.9663415943 -0.1778294363 0.1859048542
0.1242743473 -0.003344483073 0.04484006532
-0.277565952 0.4253826996 0.8613981084
0.1383936041 0.02504292458 0.04862489089
-0.2744612587 0.947296073 -0.1652306494
0.140334465 0.0195087378 0.03935803037
-0.5779603879 0.745709507 -0.3314801974
0.1374337032 0.02356952198 0.04885556841
-0.5862637243 0.7637372661 -0.2701855544
0.1514302243 0.02613361233 0.05771714429
0.7498101081 0.6265811742 0.2125578366
0.1506348492 0.02646752944 0.05817790431
0.2809169779 0.9058944852 0.3169240179
0.152202073 0.02369698466 0.05976816136
0.8925460549 -0.1959725992 0.4061481013
0.1352751849 -0.006110133184 0.03025483874
0.7368446214 0.6575347715 -0.1571878754
0.1329651829 -0.003909101774 0.03360755415
0.8246837081 0.4213136968 0.3773480495
0.1346916701 -0.005776944156 0.03300900916
0.7059727155 0.6621482126 0.2513210486
0.1522746343 0.02391901025 0.05723618917
0.64063636 -0.7650634157 -0.06529183938
0.1398318088 0.01347215191 0.04320087096
0.5304612328 -0.7778760253 0.3369269502
0.1408429251 0.01647317066 0.04960235088
0.4953916477 -0.7388039725 0.4568980254
0.1351457706 0.01236626119 0.049114189
0.6418813967 -0.6774208497 0.3592899454
0.1505709395 -0.02518951626 0.03962158922
0.5419293354 -0.8181676578 -0.1921308907
0.1522871266 -0.02359788576 0.04024026579
0.9632800732 0.242003388 0.116300734
0.1501933942 0.02541470223 0.06068728143
-0.032665916 0.917404633 0.3966127549
0.1496597113 0.02579814892 0.05863718429
-0.7049012172 0.6910472298 0.1598999691
0.1548886236 0.01740064587 0.01875460584
0.6704021415 -0.7419116185 -0.01131896458
0.1550894803 0.01793206888 0.02174557599
0.7631279905 -0.607818851 0.219526569
0.153653755 0.01657386805 0.0182278407
0.04306776579 -0.9926000438 -0.1135355473
0.133219239 -0.008093486938 0.02897835164
-0.6081063526 -0.3816574731 -0.6960921183
0.1342754806 -0.006890357215 0.02846748392
0.3013014798 0.2379233012 -0.9233687893
0.1366507017 -0.01172788092 0.02742696815
-0.236885651 -0.1160681061 -0.9645793814
0.1515731718 -0.02458443355 0.05533236177
0.7726913919 -0.626228744 -0.1038536134
0.1495868837 -0.02539348859 0.05581875255
-0.0545636727 -0.9789092577 0.1968742512
0.1494018185 -0.02579636645 0.05397824962
0.2825950126 -0.95853198 -0.03683072214
0.1297780914 -0.01189842217 0.05450132504
0.3699424797 0.5042411532 0.7803098238
0.1309565585 -0.01567881947 0.0560724408
-0.3886673976 -0.349178581 0.8526499707
0.1340835933 -0.01648682722 0.05593602673
0.3673365725 -0.02840797877 0.929654145
0.1291959205 -0.006088346204 0.03715684091
-0.7425189316 -0.6107119255 -0.2751301152
0.1324181552 -0.011484956 0.04147353856
-0.7073904236 -0.6480899861 -0.2820960094
0.1248943487 -0.004263635943 0.0415936766
-0.8095046292 -0.4854041934 -0.3302802208
0.1492309276 -0.01806510088 0.03355276249
0.3201960556 0.9297778778 0.1816248438
0.1416479325 -0.01528576591 0.02943198114
0.5583486848 0.7550651013 -0.3436909063
0.1452257215 -0.01647254393 0.03345720531
0.4889114722 0.8704147285 0.05782536506
0.1494007388 -0.02511915285 0.05618978501
-0.7609797528 -0.6001531108 0.2464265803
0.1521954052 -0.02402082525 0.05880435674
0.292562776 -0.8966410551 0.332327911
0.1513361809 -0.02386180295 0.05935584188
-0.6955581445 -0.6976660982 0.1716417288
0.1492444166 0.02512300948 0.05680275575
-0.9771723662 -0.1646341602 0.1342749417
0.1521159387 0.02512237626 0.05718034475
0.999963723 0.0009689535652 -0.008462498259
0.1370464742 0.01406636224 0.03736617278
-0.6796789418 0.6891988706 -0.2510805704
0.1320096274 0.008258144834 0.04086773848
-0.715936198 0.6337324385 -0.2929480446
0.1313586675 0.01137614827 0.04542901909
-0.6907701193 0.621989277 -0.3687356525
0.1492010122 -0.01899933581 0.03773927033
0.4262488747 0.853898496 0.2986122156
0.1521324521 -0.0226790156 0.04043377573
0.6286137161 0.6951904226 0.34864749
0.1528001568 -0.02161930552 0.03743428723
0.6014340225 0.7024975447 0.3804922026
0.1362826919 -0.02341743656 0.05214152557
-0.6203162426 -0.778331038 0.09699770326
0.135448814 -0.02015244481 0.05049376176
-0.6873316633 -0.6563776385 -0.3110363006
0.1434837355 0.01973843926 0.05113359014
0.3992681772 -0.5624945666 0.7240060671
0.1395744439 0.01760550037 0.05191969882
0.5223659192 -0.5075946773 0.6851871934
0.1533894526 -0.02151946761 0.06089972237
0.2568993129 0.9423976741 0.2142180357
0.1521584566 -0.02192834496 0.06290932088
-0.7600529554 0.4407693953 0.4775372709
0.1530289632 -0.02158716698 0.06233635308
0.5452697176 0.4858292667 0.6831184807
0.151815881 0.02267708209 0.03988445028
0.9663593445 -0.227387166 0.1201860806
0.1526553274 0.02239461952 0.03627067346
0.9548098641 0.1232223781 0.2704706435
0.1511175602 0.02389367454 0.03528133707
0.4432129516 0.8885336473 -0.1186180309
0.1510347196 0.0236089642 0.05766631001
-0.3465723705 -0.9372413086 -0.03829257802
0.1481912008 0.02692835945 0.05540835453
-0.7691466024 0.5937586347 0.2363560613
0.1322850688 0.01504873513 0.05390916136
-0.3951457664 0.7082050777 0.5850687064
0.1299294374 0.01279865482 0.05457720237
-0.3932834844 0.3581878345 0.8467759893
0.1329762438 0.01407094362 0.05451598569
0.3670131781 0.04873342213 0.9289383083
0.1424702164 -0.01469792151 0.0329032369
0.6151964263 0.7852736357 0.06984750637
0.139395856 -0.01237226638 0.02930750169
0.7118813534 0.5659920142 -0.4157859769
0.140329276 -0.01236506246 0.03129491496
0.7768800207 0.6250359669 -0.07607544646
0.1549273579 -0.02220457124 0.03176544455
0.9528116548 0.04911589197 0.2995623134
0.1546565483 -0.02202184379 0.02888707466
0.9749275599 -0.2051592013 0.08617398099
0.1556227148 -0.02041224589 0.0293516197
0.7958607675 0.558682474 0.233408509
0.1267003143 0.01007361624 0.05252806643
-0.7829705103 0.5623600337 0.2659104597
0.1260920106 0.007926324361 0.05295672465
-0.7022115122 0.3210193929 0.6354884275
0.1281878608 0.01048128797 0.05365829342
-0.4732312416 0.2623586593 0.8409638077
0.1255189678 0.005066976494 0.05240261342
0.1069489334 -0.630179727 0.7690483973
0.1272001921 0.005950134418 0.05160684303
0.597794451 -0.6775393367 0.4284649829
0.1267008806 0.007499005933 0.05328218509
-0.05703094104 -0.1681149754 0.9841162669
0.1421774438 0.01162978513 0.03252982392
0.6255757246 -0.7757318892 0.08303643096
0.1403151101 0.009876827156 0.03319609353
0.6906684407 -0.6683651648 0.2761613868
0.149975889 -0.02133686525 0.02303395386
-0.5006452616 -0.7550259083 -0.4234267349
0.150528853 -0.0192310081 0.01751965347
-0.5400339205 -0.6310906723 -0.5568553925
0.1403330295 0.01371771215 0.02671974065
0.4272590163 -0.4543660113 -0.7816656963
0.139547753 0.01436171784 0.02645210846
-0.08376303308 0.309840482 -0.9470916693
0.1423409758 0.01633801359 0.02746903387
0.06031427395 0.4204382771 -0.9053142236
0.1276775752 -0.01319316645 0.05374994187
-0.7755062424 -0.5682415732 0.2751210324
0.1267985829 -0.0111557247 0.05396867233
-0.6981580336 -0.3197689501 0.6405647341
0.1269352973 -0.01198152007 0.05043866107
-0.7683696931 -0.6144681648 -0.178988517
0.14930772 -0.02172649406 0.04584484241
0.4426965615 0.8251933674 0.3508214088
0.1514944033 -0.02376499401 0.04440945226
0.861742957 0.5064685858 -0.02981019417
0.1453005541 0.02298470325 0.05063462855
0.2405993126 -0.09192982205 0.966261289
0.1437416837 0.02508560656 0.04996417041
0.01224465759 0.5863547264 0.809961853
0.1414489094 0.02376601359 0.05128014334
0.1058370389 0.3925341355 0.913627645
0.1404034589 -0.01632559789 0.0437646397
0.5200389742 0.7904479371 0.3236534013
0.1460935449 -0.02420154695 0.05142871441
0.2392275785 0.1117692844 0.9645090942
0.1419370051 -0.02493449077 0.05234452984
0.1110199885 -0.3751815137 0.9202789761
0.1447501932 -0.02586100389 0.05088299962
0.02002609439 -0.5721962374 0.8198721982
0.1479888722 -0.0264066611 0.05202207565
-0.4000093532 -0.9031424278 0.1559688192
0.1350456625 0.01554483224 0.05352733405
0.4221503953 -0.216593395 0.880270609
0.1350960419 0.01700921159 0.05351035696
-0.1819248431 0.4072098923 0.8950326559
0.150301561 0.02109116197 0.02273945361
-0.5107075459 0.7409431591 -0.4360975093
0.1494790303 0.02137855577 0.02692294385
-0.3154480961 0.8655010501 -0.389102083
0.1513829777 0.02195748777 0.02044611906
0.2404695532 0.9227061567 -0.3013100437
0.1552758818 -0.01950032961 0.0259765066
0.6386722427 0.7233195391 0.2625006871
0.153398223 -0.01871851242 0.02685821035
0.137960063 0.9896976115 0.0382839238
0.154718488 -0.019186876 0.02985115817
0.4262233205 0.8772507681 0.2208274685
0.1288551093 0.0127551056 0.05169338338
-0.7392660412 0.6721354238 -0.04146917445
0.1547505694 0.0192853699 0.03343717793
0.6997649992 -0.5320123417 0.4767513128
0.154915747 0.02076887576 0.0318522379
0.9533695469 -0.03131315435 0.3001766037
0.1492597573 -0.02235279639 0.02713826742
-0.303794511 -0.8761282154 -0.3743103597
0.1424120045 -0.02128385093 0.0311179691
-0.3575056022 -0.8530072941 -0.3802213837
0.1480128362 -0.02143698118 0.02803831599
-0.3668754876 -0.6190805462 -0.6943642084
0.1261257845 0.008767403838 0.04947116077
-0.77639057 0.6011169808 -0.1894097626
0.1535795025 0.01650886519 0.02707254992
0.1510668028 -0.9869939041 0.0549713952
0.1478997375 0.01507125328 0.03056916076
0.3012977409 -0.9511227247 -0.0677143549
0.1493089154 0.01587223725 0.0290710085
-0.03762261979 -0.8721531134 -0.487784261
0.1247814189 0.005420081103 0.05222837285
-0.6544336788 -0.159450208 0.7391158172
0.1241874538 0.006079922089 0.05076988545
-0.9071014722 0.3899677398 0.1584048014
0.1239788259 0.004464687807 0.05076947776
-0.8653521205 -0.3343706645 0.3733121566
0.1544327256 0.01688477579 0.02275758628
0.2521391074 -0.9443704756 0.2111640958
0.1527841522 0.01693390219 0.02491499014
-0.3054594289 -0.9468699949 -0.1006565946
0.1291160499 0.008819576562 0.05351013284
0.376474617 -0.4859166141 0.788766066
0.150961591 0.02566025201 0.05342845077
0.9517141872 0.03290134142 -0.3052173121
0.150494307 0.02669312052 0.05466702736
0.7643250117 0.634589533 -0.1144700883
0.1259895716 0.003557361672 0.04808489337
0.3995073453 -0.8135099068 0.422605623
0.1242341928 0.003370188726 0.04808299888
-0.3538764704 -0.8268244667 0.4371873111
0.1238354019 0.001643021525 0.04577968066
-0.6627197593 -0.3765230832 0.6473274971
0.1502600919 -0.02564843753 0.04506316011
0.7429942144 -0.5021275587 -0.4425240244
0.1510403583 -0.02489018492 0.04659132383
0.9650395591 -0.09648487794 -0.2436992361
0.1449576472 0.01352946257 0.03316610228
0.5005089942 -0.8627017387 0.0723633664
0.1489642905 0.01602694092 0.03750688534
0.4375673083 -0.8429678964 0.312953633
0.151808615 -0.01795251979 0.01637080316
-0.04634494084 0.2715830858 -0.9612984833
0.1532485681 -0.01757147162 0.01716857236
0.5500724354 0.6272959751 -0.5512894661
0.1523928641 -0.01859324032 0.01658930732
0.6650010237 -0.1869244144 -0.7230718511
0.1495287709 0.0235365288 0.04880965062
0.08229789825 -0.9521741664 0.2942641887
0.1505817603 0.02396137375 0.04694890455
0.7764340563 -0.6270426012 0.06298993966
0.1503906666 0.02383220637 0.05020102916
0.4113941936 -0.9061566753 0.09815751291
0.1502317588 -0.02402825264 0.05212294157
-0.3564859129 0.8912266781 0.2804154098
0.1488930369 -0.02492958701 0.05275299039
-0.8019603427 0.4204821269 0.4243281628
0.1505975869 0.01904800972 0.02349401871
-0.8251218894 0.2054496992 -0.5262739673
0.1507265617 0.01897889837 0.01724631591
-0.5484691305 0.6139902061 -0.5676245588
0.1288650115 0.001698315264 0.04344478114
0.7128667673 -0.5670991428 0.4125767012
0.1304579005 0.0001077849613 0.03711022204
0.7951211507 -0.4665720164 0.3874182614
0.1345158016 0.002359982115 0.03289558467
0.7146817651 -0.6483543124 0.26242458
0.1365107752 0.01950521968 0.05296300061
-0.3046529571 0.6264227256 0.7174825047
0.1372083168 0.01796993898 0.05346297847
0.2977938806 -0.006838661938 0.9546056973
0.1529494994 0.02015872787 0.01788031947
0.6536933815 0.6098330753 -0.448094391
0.1538095979 0.02054873486 0.02056172466
0.9305547876 0.3661387 -0.003199949593
0.1546132963 0.01887406046 0.0185184314
0.9838352742 -0.05479108265 -0.1704878016
0.1537412577 -0.02205411343 0.06012536356
0.8899809789 0.2146066267 0.402340469
0.153340506 -0.02321845477 0.05771349106
0.9998883731 0.01218606073 -0.0086453034
0.1524304295 -0.01869745308 0.02466730824
-0.3182209653 0.9408143831 -0.11663496
0.1519027601 -0.01822671087 0.02063633195
-0.6945924495 0.7134911729 -0.09204170443
0.1348984489 0.01851623939 0.05218956557
-0.6734769336 0.7167762672 0.1807224467
0.1499539037 0.02401893709 0.06270422641
-0.3771443608 0.4247108232 0.8230327137
0.138587398 -0.01708745191 0.02771010248
-0.5968744038 -0.6711923829 -0.4395926879
0.1393866418 -0.01708428812 0.02674957833
-0.07980363827 -0.3273696987 -0.9415202917
0.1404031136 -0.01954301987 0.02916515186
-0.4058878866 -0.8002969934 -0.4413385843
0.1519929385 -0.02413796283 0.05415203794
0.9519678939 -0.02591820294 -0.3050989606
0.1468708576 -0.02515236736 0.05058577461
-0.1135220029 0.03463814722 0.9929314949
0.148893189 -0.02352215318 0.04957482823
0.2297058401 0.7100852711 0.66559307
0.1402911472 -0.01650198918 0.02701671855
0.4205780789 0.4461727254 -0.7899645426
0.1421260009 -0.01885698327 0.02777332038
0.06570033937 -0.4351204632 -0.8979719639
0.142716226 0.01916348708 0.03076216266
-0.3687710395 0.841613006 -0.3945826511
0.1433082679 0.02514185967 0.04332243281
-0.2098983101 0.9046704833 -0.370828823
0.1365515254 0.02174641147 0.05076817044
-0.6306356442 0.7715397078 0.08381624901
0.1378436887 0.02451739083 0.05037359506
-0.2924384229 0.8532661977 0.4317598462
0.1481208248 0.019671162 0.02786108078
-0.3750707274 0.6022769591 -0.7046874584
0.1471801911 0.02670607991 0.05219458218
-0.8802913487 0.274568164 0.3869101507
0.1488427483 0.02510998344 0.05454871384
-0.8637376062 -0.4648553305 0.1945941142
0.1345944317 0.01366049716 0.05249171294
0.6517678733 -0.5766508275 0.4926179681
0.1539487291 -0.01818466877 0.02252814009
0.2396482208 0.9510165773 0.1952849199
0.1531283385 -0.01732665062 0.01820680573
0.03026952601 0.9910476618 -0.1300318725
0.1383722461 0.01971246457 0.05290229483
0.2783878106 0.1440118038 0.949610882
0.1498490948 0.02481507468 0.03918130844
0.5309734255 0.8219412538 -0.2061062752
0.1508131354 0.02413888777 0.04093240902
0.943302039 0.330952319 -0.025530881
0.1487456853 0.01977842883 0.04541048207
0.453613338 -0.8131917556 0.3646287265
0.1329588655 0.004441311725 0.02877292342
-0.6131602559 0.3617824767 -0.7022449288
0.1364201268 0.008484874862 0.02718879283
-0.2382377231 0.0964777281 -0.9664030398
0.1341603246 0.003230273287 0.02828833811
0.3043473589 -0.2496501151 -0.9192646546
0.1401110088 0.009210272511 0.03085782562
0.7851350037 -0.6158430934 -0.06557675153
0.1354875272 -0.02076449743 0.05368682609
-0.6638052205 -0.7224840005 0.1933377827
0.1297826613 -0.01594233035 0.05304260219
-0.7302694725 -0.6825017772 -0.02996367327
0.1520613061 -0.02333952888 0.06114450204
-0.02067222368 -0.9110840981 0.4117018646
0.1520626376 -0.02237205599 0.06305411027
-0.3717815595 -0.4161082546 0.829838775
0.1420659978 -0.02606176883 0.04984221703
-0.01559921099 -0.9868786073 0.1607086775
0.1452679885 -0.02638058982 0.04991080104
-0.1924913355 -0.84430767 0.5000916357
0.1467687323 0.02768865171 0.05143006198
-0.4120710983 0.9002254898 0.1406821861
0.1387993261 -0.02187418056 0.0541638731
0.2803918748 -0.1240390919 0.9518375388
0.1370232929 -0.0216525641 0.05442488108
-0.2961289221 -0.6181719953 0.7281284542
0.1383949085 -0.02358245275 0.05309684304
-0.1596865915 -0.5607323282 0.8124527362
0.1354248573 0.00757975968 0.03921666543
0.6556842734 -0.674867785 0.3385728967
0.1387238043 0.006842953058 0.03113223162
0.7085798199 -0.6917643388 0.1392003536
0.1376012025 0.009496344852 0.02693540055
0.2177379273 -0.09433582498 -0.9714375673
0.1361196592 0.004356100639 0.02856312378
0.5810309844 -0.5973371843 -0.5528031145
0.1413951864 0.02092876035 0.0520938474
0.2520228504 -0.05566825722 0.966118796
0.138369776 0.02186348375 0.05185335037
-0.167258941 0.5724331045 0.8027108991
0.1405996671 -0.01298032664 0.03367095599
0.6816776813 0.6820709082 0.2647542541
0.1247247641 0.0007717686229 0.04140096714
-0.8157058341 0.469049099 -0.3385512295
0.1340770791 0.0006148345152 0.03089662391
0.920189321 -0.3914223675 -0.006335912522
0.1331823204 -0.001709905349 0.03283767103
0.9407182616 0.009131449214 0.3390660245
0.1335718288 -0.001759570606 0.03098924554
0.9962737949 0.005899749191 -0.08604486374
0.1537272946 0.02231827136 0.03087739694
0.6815450996 0.7308944244 -0.03591124684
0.1547652467 0.02085419848 0.028918163
0.9721082894 0.2195049705 0.08260170493
0.1349044488 0.01776785104 0.0492546969
-0.6960033552 0.6417915787 -0.3219982905
0.1290929307 -0.004992794858 0.04362277073
0.7051738905 0.5834851889 0.4028334873
0.1306010735 -0.003427187628 0.03711061795
0.7887700824 0.4836977006 0.3793129203
0.123683776 0.003962708675 0.04749099402
-0.9930602097 0.06042994425 0.1008942104
0.1247204428 0.004145968343 0.05137148248
-0.1431447218 -0.8009574433 0.5813576891
0.1260337875 -0.008447089979 0.05310735563
0.09842198851 0.6445344683 0.7582139747
0.1253994343 -0.008836811355 0.05302724013
-0.6566984472 0.1632642539 0.736268927
0.1545648104 0.0173835262 0.03209510839
0.5102706195 -0.7545023128 0.4127349692
0.1554924124 0.01842534144 0.02951464908
0.8031986991 -0.5440080265 0.242749082
0.1509580774 0.02388821822 0.05554111825
-0.1477754421 -0.9890145762 0.003547786053
0.1507494392 0.02421469358 0.05278160902
0.4682167359 -0.8815259328 -0.06070517326
0.1494924736 -0.02623121381 0.04762335408
0.6229706817 -0.7286593644 -0.2845400857
0.1514632153 -0.02416306908 0.05143245549
0.9580018038 0.208158634 -0.1972372354
0.1492215323 0.0243215173 0.05142169062
-0.3445680665 -0.8910438883 0.2954888097
0.1527910494 -0.02373957813 0.05829124229
0.7579570139 -0.6128794161 0.223338278
0.1391989073 0.009173188446 0.02890988319
0.7193805702 -0.5634942542 -0.4061598463
0.1251433935 -0.007659244197 0.05199720653
-0.1541071073 0.8083599727 0.5681594442
0.1244514073 -0.008046534542 0.05145178123
-0.869813544 0.3289940071 0.3676783133
0.1389333108 -0.01005726733 0.03152308936
0.6992994014 0.7033842896 0.1274005037
0.1359380541 -0.01064198711 0.03975737989
0.6466503817 0.6891305427 0.3270204564
0.1513992322 -0.02358170082 0.05086633815
0.3998236028 0.9128538045 0.08269835693
0.1241879195 0.003914080246 0.04564650445
-0.8537431751 0.4642350574 -0.2358143391
0.1514859114 -0.02457507308 0.04136576811
0.9475411629 -0.3189992033 -0.02013089522
0.1504684216 0.02503629142 0.05074149315
0.9606471121 -0.1990025023 -0.1937914605
0.1478676169 0.02545246625 0.05197302542
-0.7964867021 -0.423649451 0.4314279499
0.1473965008 0.02488655326 0.05014509631
-0.4135881671 -0.5258604192 0.7432466936
0.1455717541 0.02660329466 0.04985413941
-0.5247212951 0.6244835163 0.5785221693
0.1487286906 0.02549961922 0.0419744622
0.4748226789 0.8379400315 -0.2690723457
0.1260167973 -0.002983460862 0.04460768601
0.4803069266 0.3714862257 0.7945459334
0.1262083313 -0.005144452544 0.04619837944
0.3868203534 0.6898782757 0.6119133754
0.1546908543 -0.01875869544 0.02169265325
0.7549841655 0.621490517 0.2091612945
0.1482639233 -0.02573720405 0.0528734988
-0.8766378641 -0.2796172142 0.3915613219
0.14995229 -0.02421066357 0.05537291343
-0.8699170518 0.4564902084 0.1867110402
0.1273471877 -0.01071256521 0.05421816586
-0.0600102685 0.1834875499 0.9811886091
0.1365802223 -0.01354470327 0.02886593707
-0.6376923739 -0.6190828124 -0.4583502019
0.1526456374 -0.0199990903 0.01823058043
0.6618631621 -0.6083905358 -0.4379476117
0.154257077 -0.01901206316 0.01868363442
0.9829823481 0.06535410244 -0.171681521
0.1535286703 -0.02056983464 0.02080488777
0.935462132 -0.353413897 0.003035950939
0.155165011 0.01974267967 0.0260080684
0.9778111105 -0.1386718324 0.1570208748
0.124169235 -0.0002679480597 0.04474061085
-0.2716623602 -0.4144553188 0.8685771991
0.1260365566 0.001672814739 0.04592230511
0.3962438933 -0.6742332265 0.6232177255
0.1421610195 -0.0259652053 0.04833175684
-0.1024024827 -0.9718000772 -0.2124107846
0.1244427896 -0.007479995015 0.04607855995
-0.8471782067 -0.4798086147 -0.2281946084
0.1320836244 -0.01461067443 0.04627909755
-0.6823863875 -0.6372595201 -0.3581188659
0.1384574847 -0.01497463178 0.02721884634
-0.03327027994 0.07618132022 -0.9965387574
0.1497712868 -0.02560147367 0.04251999215
0.4860523009 -0.835905944 -0.2549792416
0.1276925465 -0.009241325201 0.05228778926
0.5885580024 0.6926640512 0.4169124489
0.1292172263 -0.008981842856 0.04847231837
0.6271222936 0.6936232046 0.3544072219
0.126236152 -0.007002573702 0.04848194269
0.3884235001 0.8257754711 0.408927935
0.14679769 -0.02627085048 0.05057274449
-0.5163755495 -0.6214726065 0.5891757728
0.1505447979 -0.01852082423 0.01799795109
-0.8953430526 -0.00634454428 -0.4453319715
0.1515901513 -0.01768361193 0.01798937239
-0.5660804553 0.7531550575 -0.3351274049
0.1548875313 -0.02137090068 0.03331751705
0.6924768135 0.5493602457 0.4676314609
0.1375266779 -0.02525589768 0.05158843191
-0.2810840506 -0.849547481 0.4463864178
0.1440479587 0.02606270477 0.04903118993
-0.2037192839 0.850018167 0.4857649319
0.1458922152 0.024711679 0.04980881031
-0.1132001192 -0.01897875334 0.9933909301
0.1506331497 -0.01923707678 0.01978428726
-0.9762981303 -0.04601628519 -0.2114815884
0.1504532579 -0.02010220632 0.02354830268
-0.8222024403 -0.2251714286 -0.5227628286
0.1479426496 -0.02687209056 0.04835948476
0.05797479477 -0.9808623149 -0.1858710367
0.1550548544 -0.02074934247 0.02602809554
0.9758311728 0.1544731758 0.1545689498
0.1509207543 0.01791049498 0.01791609282
-0.8951254722 -0.01343546474 -0.445611801
0.1508273637 0.01863493678 0.01965649094
-0.9767793858 0.02970874888 -0.2121778069
0.1548812252 -0.01995201745 0.0319923401
0.5001463382 0.768084533 0.3998747186
0.146060092 -0.01842544876 0.02846032723
0.3782440687 0.7016669418 -0.603816965
0.1426537748 -0.01715238258 0.02811246218
0.4759179293 0.5334351893 -0.6992488994
0.148108351 -0.01789751969 0.03075783146
0.2886675815 0.9537538138 -0.08381342428
0.1483483773 0.02716670573 0.0471573844
0.6131863254 0.7320032169 -0.2969407698
0.148352949 0.02787145539 0.05340125726
0.2698863509 0.9614299987 -0.05304446473
0.1553259175 0.01791051332 0.02608566648
0.6483921537 -0.7100228396 0.2746910669
0.1474173108 0.02461596531 0.03808879331
-0.06506129267 0.958619587 -0.2771561213
0.1465662262 0.02787404185 0.04776085921
0.04492381171 0.978268566 -0.2024165604
0.123998118 -0.005241406502 0.04606624729
-0.668601583 0.3778429463 0.6404737553
0.1524335039 0.01719357441 0.0207784114
-0.6849931765 -0.7241588467 -0.07986434055
0.1515185339 0.01774941296 0.02430195296
-0.7029487557 -0.5670115966 -0.4293726776
0.1480210068 0.02264346684 0.04892839713
0.2390300982 -0.6955591373 0.6775412155
0.1440834014 -0.02209063627 0.05196643842
0.3916625796 0.579889636 0.7143727555
0.1413288936 0.02567501183 0.04869261138
-0.02871093765 0.9891099563 0.1443508796
0.1377733639 -0.01267145682 0.02719699462
0.2167809846 0.08060198599 -0.9728871078
0.1259057099 -0.0005410393632 0.0445501408
0.4851634201 -0.351429777 0.8006956773
0.1234264953 -0.0001088410135 0.04356449077
-0.9686799306 0.1680070744 0.1828464245
0.1381927197 -0.009243318288 0.02998951505
0.696515854 0.676848897 -0.2382041893
0.1351927082 0.002575300812 0.0300929259
0.7455504525 -0.6502538597 -0.1460289036
0.1414287571 0.02564182408 0.04716047253
-0.1152867046 0.9666402975 -0.2287258425
0.1484483815 0.0275978661 0.05512479624
-0.06803780644 0.9812221183 0.1804827178
0.1526793044 0.01952710905 0.03738998705
0.6106936915 -0.6878515252 0.3923181036
0.1291475595 -0.01352635296 0.05491398595
-0.4698665377 -0.2540772495 0.8453816819
0.1414728353 0.01228828281 0.02905812671
0.5684998257 -0.7531728649 -0.330966137
0.1334726477 -0.004847450082 0.02912519193
0.6870082654 0.2973658729 -0.6630182358
0.1341233745 -0.004192611582 0.03089766849
0.9149012944 0.4034662635 -0.01306122596
0.129087701 -0.001663549656 0.03850613009
0.9263645071 0.009437428786 0.3765099401
0.1272871206 -0.001734392907 0.04301816343
0.8346797016 -0.1783982754 0.5210411223
0.1272871206 -0.001734392907 0.04301816343
0 0 0
0.1288138246 0.005762978214 0.04802442044
0.6363010948 -0.6791011927 0.3659815389
0.1419111559 -0.02293830717 0.05312002967
0.2511302717 0.07534310521 0.9650165818
0.1362837061 0.01030378036 0.0285062115
-0.6458159976 0.6027091899 -0.4686825468
0.1384279095 0.01194113191 0.0269175959
-0.03204350864 -0.09346702179 -0.995106592
0.1542543089 -0.01793127879 0.01871903138
0.6607408395 0.7502177879 -0.02438880603
0.1531031856 -0.02202210878 0.02436094684
0.8500785721 -0.5056548208 -0.1472400198
0.1546468183 0.01660278246 0.03002573347
0.4377995683 -0.8676480867 0.2356232919
0.1489763444 0.01512881159 0.03337051387
0.3325515498 -0.9222344656 0.1972132277
0.1513757738 0.01913624079 0.01620620776
0.03261649064 0.6218117368 -0.7824872705
0.1528092639 0.01839379142 0.01637737394
0.6623664554 0.1837775809 -0.7262895287
0.1523544741 0.01743720839 0.01631233567
-0.04288710008 -0.2885345615 -0.9565084963
0.1290005418 0.002696077324 0.03692096487
-0.7505802281 0.5960150695 -0.2852987174
0.1269510174 -0.0002305236119 0.03651444348
-0.8697885076 0.2990294679 -0.3924911839
0.125388539 -0.001712896984 0.03893782963
-0.9073570729 -0.0094379203 -0.4202547655
0.1328635186 0.0004339267862 0.03361905731
0.8301495459 -0.4038674711 0.3843732525
0.1407310791 0.01706937001 0.02876916313
-0.4164279077 0.7872715882 -0.4547430529
0.13340392 -0.01769087724 0.05536331273
-0.3858946156 -0.7034996766 0.5968027736
0.1362061674 -0.007829524667 0.02882400073
0.572925813 0.5955226448 -0.5631241358
0.1483993294 -0.02489778445 0.05086097455
-0.4205392769 0.5330608671 0.7341613097
0.1372198692 -0.01730134354 0.03790821785
-0.6704143524 -0.7023364619 -0.2393075227
0.1538929493 0.01705573532 0.01714165997
0.5587342026 -0.6288832463 -0.5406680621
0.1442656579 -0.0256232217 0.04432277048
-0.1977905239 -0.9135212725 -0.3554684139
0.1514725562 -0.02391323062 0.04748141697
0.7679916657 0.6383374909 0.05209653724
0.1492354992 0.01822150347 0.02662398393
-0.5148017879 0.004731622001 -0.8572961746
0.1470023848 0.01729906562 0.02783236108
-0.01167482452 -0.04377104484 -0.9989733701
0.148180926 -0.02515956912 0.03859007024
-0.05233345707 -0.9639529628 -0.2608752474
0.1504540358 -0.02373684798 0.04943724419
0.06961803002 0.9580527924 0.2780075123
0.1517747147 0.02121575549 0.04018363984
0.6375597963 -0.6809403182 0.3603301115
0.1510510602 0.02263248701 0.0293830203
-0.02205041625 0.9597013018 -0.280155654
0.1526086653 0.02247974749 0.02663799857
0.4308360071 0.8952523881 -0.1135935588
0.1379811249 -0.02031204973 0.05480512576
0.2976500688 0.02686164107 0.9542970653
0.1316464762 0.003922232107 0.03138603978
-0.779334215 0.5144475012 -0.3577456496
0.1380516129 0.005949561942 0.02962745435
0.7054975739 -0.6714537898 -0.2267663586
0.1530767744 -0.02229425281 0.06131519533
0.8114221591 -0.2502162536 0.5281911643
0.1511276822 -0.01922598376 0.01652640006
0.04100659392 -0.6345544429 -0.7717895557
0.1248651284 -0.009525469116 0.05166574541
-0.9018629113 -0.3993163075 0.1648932256
0.1303659141 -0.001844070713 0.03112362253
-0.7997067941 -0.01039626223 -0.6003007256
0.132670902 0.001823730255 0.0285705105
-0.181059692 0.05395752917 -0.9819908212
0.1319175389 -0.003463527754 0.02925639145
-0.3794073494 -0.2656979084 -0.8862588136
0.1328264587 -0.005692979876 0.02861961155
-0.1799477338 -0.07285093722 -0.9809747979
0.1291291661 0.0001217074275 0.03241332576
-0.8452088277 0.4144184741 -0.3374601693
0.1361692035 -0.01929511287 0.05497131575
-0.1764604495 -0.3940708593 0.9019810794
0.1521012803 0.01687434683 0.01802829048
-0.5560611148 -0.7662017357 -0.3220728751
0.1239232245 -0.001825379331 0.04429580484
0 0 0
0.1239242365 -0.001825352607 0.04429608348
0 0 0
0.1239232245 -0.001825379331 0.04429580484
-0.1778732616 -0.08909826235 0.9800115318
0.1387324072 0.01428951917 0.02733639056
-0.6059499461 0.6557910006 -0.4502919345
0.1333889759 0.00109434793 0.0291003296
0.6907786641 -0.2992624176 -0.6582300833
0.1460320558 0.0157386242 0.02825838475
0.3873710676 -0.7063593546 -0.5924526295
0.1508931665 0.01668372899 0.02722449573
-0.2558881009 -0.8350130734 -0.4871082498
0.1533299485 0.02186157437 0.02406070267
0.8433229716 0.5142093252 -0.1561894217
0.131904361 -0.0003739002227 0.02932129463
-0.3828438169 0.2457454009 -0.8905278265
0.1270317184 -0.003091811907 0.03653041963
-0.8657123559 -0.3170784096 -0.3873027226
0.1318925383 -0.007574570572 0.03162025634
-0.7723601659 -0.5307447135 -0.3489553312
0.1272871206 -0.001734392907 0.04301816343
0.8082896079 0.3288092849 0.4884182264
0.1425991707 0.01435821242 0.0278040592
0.4830970507 -0.5388881457 -0.6900846369
0.1279321804 -0.001722687558 0.03374592345
-0.9167376377 -0.009452763543 -0.3993779525
0.1321558275 -0.00187479079 0.02915587006
-0.140820896 -0.009312834584 -0.989991286
0.1330162062 -0.00183035054 0.0293777679
0.6817963004 -0.001653664627 -0.731540204
0.1239863417 -0.007562020441 0.04798050614
-0.9921677275 -0.07242530519 0.1017731582
0.1244852765 -0.006928407718 0.04851581849
-0.3642787557 0.8296095971 0.4231417075
0.1269929418 -0.00166102736 0.03658579467
-0.9113684139 -0.0094218666 -0.4114837087
0.1234017556 -0.001814983796 0.0421481859
-0.9821010223 -0.008140193684 -0.1881789555
0.1239232245 -0.001825379331 0.04429580484
-0.7303027044 0.0006997157894 0.6831233201
0.1235204753 -0.001832459162 0.04366495797
-0.8820680877 -0.002154885426 0.4711170186
0.1272870338 -0.001735409057 0.04301925056
-0.3854800506 0.8876620691 -0.2519150287
0.1259698393 -0.001772703676 0.04462132333
0.5062023116 0.01066360679 0.8623488315
0.129200224 -0.003799621721 0.03238115566
-0.839582811 -0.4312763739 -0.3303049998
3 0 1 2
3 3 4 5
3 6 7 8
3 9 10 11
3 12 13 14
3 15 16 17
3 18 8 19
3 20 21 22
3 23 24 25
3 26 27 28
3 12 14 29
3 3 30 31
3 13 12 32
3 33 34 35
3 36 37 38
3 39 40 41
3 42 43 44
3 12 45 41
3 46 47 48
3 49 15 50
3 14 51 52
3 53 54 55
3 56 57 58
3 59 60 61
3 62 63 64
3 65 66 67
3 68 69 70
3 71 72 73
3 74 29 52
3 52 51 40
3 39 41 75
3 45 75 41
3 76 77 78
3 79 80 81
3 10 82 83
3 47 84 85
3 86 87 88
3 89 90 91
3 29 74 92
3 74 52 93
3 94 95 96
3 97 98 99
3 100 101 102
3 103 104 105
3 106 107 108
3 106 108 104
3 109 46 110
3 26 111 112
3 113 114 115
3 116 117 118
3 50 119 120
3 121 122 123
3 12 92 45
3 119 124 30
3 125 126 127
3 128 60 71
3 94 96 129
3 130 94 129
3 131 132 133
3 134 135 136
3 137 103 105
3 138 139 90
3 140 141 142
3 103 143 104
3 144 145 146
3 147 104 148
3 148 149 147
3 55 150 151
3 105 104 152
3 75 153 154
3 155 156 157
3 154 39 75
3 158 120 159
3 109 160 161
3 162 163 164
3 165 166 167
3 168 169 23
3 170 131 171
3 172 173 174
3 175 130 176
3 129 176 130
3 177 178 179
3 24 180 181
3 19 182 183
3 175 184 130
3 14 13 185
3 186 187 188
3 181 59 189
3 106 147 149
3 155 107 106
3 190 191 125
3 192 193 187
3 194 37 195
3 38 196 197
3 132 198 194
3 199 200 93
3 48 85 201
3 182 135 202
3 45 153 75
3 163 162 203
3 204 175 176
3 89 205 206
3 89 2 207
3 208 209 210
3 74 93 200
3 110 211 109
3 212 213 83
3 87 214 215
3 137 143 103
3 6 8 18
3 107 152 108
3 127 216 217
3 152 96 95
3 199 93 218
3 219 220 221
3 23 25 168
3 46 222 223
3 86 20 87
3 209 224 225
3 85 204 176
3 204 226 227
3 97 228 124
3 78 77 229
3 230 231 232
3 233 139 234
3 184 196 235
3 236 44 237
3 238 156 149
3 156 239 149
3 148 238 149
3 117 240 241
3 138 242 243
3 244 245 45
3 59 246 247
3 86 24 21
3 244 248 245
3 60 249 72
3 225 224 250
3 197 196 227
3 143 137 235
3 251 252 240
3 124 253 254
3 247 255 25
3 148 256 238
3 120 257 50
3 118 83 213
3 258 153 245
3 248 259 260
3 199 218 261
3 206 205 262
3 142 141 188
3 236 263 264
3 202 265 203
3 204 85 84
3 266 71 267
3 240 117 268
3 188 269 186
3 38 235 196
3 270 271 272
3 273 178 133
3 256 148 143
3 2 89 206
3 274 275 157
3 217 216 276
3 157 156 238
3 277 67 278
3 192 279 69
3 267 21 23
3 120 280 257
3 281 282 283
3 217 284 190
3 162 285 286
3 287 17 100
3 288 216 127
3 289 290 261
3 260 261 290
3 289 122 290
3 122 121 290
3 19 291 292
3 70 69 97
3 123 122 197
3 128 284 293
3 294 136 102
3 36 38 197
3 171 295 296
3 92 244 45
3 297 102 136
3 253 44 254
3 298 299 300
3 246 59 61
3 282 281 62
3 153 258 154
3 1 258 167
3 166 1 167
3 154 258 301
3 301 302 154
3 54 303 144
3 195 304 132
3 301 305 302
3 136 68 297
3 264 306 283
3 247 246 159
3 260 165 248
3 258 1 301
3 307 308 296
3 290 309 260
3 191 119 310
3 122 289 311
3 197 122 311
3 26 28 140
3 269 312 279
3 172 275 313
3 313 275 274
3 128 293 61
3 221 220 82
3 256 314 157
3 314 274 157
3 99 315 253
3 210 225 316
3 7 298 300
3 317 289 261
3 289 317 311
3 279 186 269
3 36 311 317
3 60 72 71
3 218 93 318
3 138 319 161
3 84 309 121
3 320 213 63
3 94 137 95
3 117 62 268
3 160 109 321
3 223 222 174
3 42 322 323
3 324 325 326
3 48 327 172
3 318 40 39
3 313 325 172
3 258 245 167
3 225 210 209
3 133 171 131
3 328 310 219
3 12 41 32
3 109 211 250
3 329 330 224
3 224 330 250
3 50 257 49
3 151 150 144
3 59 249 60
3 331 271 163
3 96 201 129
3 195 36 317
3 297 79 287
3 27 26 332
3 278 67 66
3 312 98 279
3 87 73 214
3 166 2 1
3 207 2 166
3 144 333 334
3 305 262 195
3 279 192 187
3 335 336 337
3 37 36 195
3 54 179 178
3 20 86 21
3 229 338 339
3 340 229 339
3 316 174 341
3 292 142 18
3 2 206 262
3 305 0 262
3 37 342 76
3 29 14 52
3 301 0 305
3 302 218 318
3 287 81 17
3 116 320 117
3 231 230 341
3 64 5 4
3 338 229 77
3 228 99 253
3 0 2 262
3 187 186 279
3 50 81 80
3 184 235 137
3 48 222 46
3 93 52 40
3 341 174 173
3 78 235 38
3 29 92 12
3 73 72 214
3 265 135 134
3 264 282 236
3 161 160 334
3 343 64 63
3 57 42 344
3 79 68 70
3 123 197 227
3 14 185 51
3 345 190 284
3 86 180 24
3 157 238 256
3 66 269 346
3 347 55 337
3 205 304 195
3 80 79 119
3 82 220 212
3 188 6 142
3 248 167 245
3 280 348 49
3 22 71 73
3 270 272 26
3 335 177 336
3 41 40 51
3 280 158 293
3 349 159 120
3 350 351 198
3 134 136 294
3 91 304 205
3 48 172 222
3 281 268 62
3 119 349 120
3 293 276 348
3 348 140 352
3 277 306 34
3 334 160 321
3 327 152 107
3 30 3 310
3 353 255 349
3 43 237 44
3 161 319 354
3 305 195 317
3 185 13 32
3 213 116 118
3 133 355 356
3 286 285 183
3 172 324 173
3 34 67 277
3 171 337 295
3 240 268 281
3 98 315 99
3 260 259 199
3 91 90 233
3 45 245 153
3 58 344 312
3 5 357 3
3 11 10 278
3 338 358 339
3 211 223 359
3 161 334 242
3 215 360 88
3 174 316 359
3 112 361 26
3 135 68 136
3 241 362 117
3 345 353 191
3 17 81 50
3 275 172 327
3 292 112 111
3 356 233 234
3 22 267 71
3 193 299 6
3 304 91 355
3 121 226 84
3 363 208 364
3 365 322 366
3 287 79 81
3 90 139 233
3 240 252 241
3 91 233 355
3 314 256 229
3 333 242 334
3 200 244 92
3 363 367 358
3 44 315 42
3 11 188 141
3 104 108 152
3 193 6 188
3 220 368 212
3 58 312 269
3 286 203 162
3 95 105 152
3 24 189 25
3 337 369 295
3 213 320 116
3 370 371 372
3 362 241 252
3 271 270 164
3 246 61 293
3 168 25 255
3 208 358 329
3 89 354 319
3 283 240 281
3 342 373 329
3 214 360 215
3 124 31 30
3 316 225 359
3 374 210 316
3 316 230 374
3 270 26 361
3 374 230 232
3 353 349 191
3 8 182 19
3 139 243 234
3 35 263 33
3 227 196 175
3 146 145 375
3 198 342 194
3 126 288 127
3 360 214 180
3 209 208 329
3 374 364 210
3 63 62 320
3 350 308 376
3 234 273 377
3 377 356 234
3 154 302 318
3 345 168 353
3 219 310 3
3 285 291 183
3 115 114 342
3 196 184 175
3 378 364 374
3 263 35 264
3 57 56 366
3 343 5 64
3 210 364 208
3 9 288 10
3 376 151 144
3 65 379 380
3 54 178 273
3 146 376 144
3 263 236 381
3 231 173 324
3 351 350 376
3 351 376 146
3 284 266 345
3 361 164 270
3 115 351 382
3 344 98 312
3 382 321 113
3 244 200 259
3 114 330 373
3 330 329 373
3 328 221 126
3 257 280 49
3 217 190 127
3 131 198 132
3 170 198 131
3 373 342 114
3 350 170 308
3 202 135 265
3 277 278 118
3 330 114 113
3 113 321 330
3 209 329 224
3 356 377 133
3 145 321 382
3 293 348 280
3 303 333 144
3 308 307 151
3 54 53 179
3 150 55 54
3 219 357 220
3 369 307 295
3 308 170 296
3 295 307 296
3 177 133 178
3 177 335 133
3 9 276 216
3 171 133 335
3 53 347 179
3 85 48 47
3 179 336 177
3 336 179 347
3 358 367 383
3 79 124 119
3 332 26 294
3 337 171 335
3 369 337 55
3 322 57 366
3 378 384 363
3 346 269 188
3 184 94 130
3 111 140 142
3 69 98 97
3 143 148 104
3 18 19 292
3 273 243 333
3 384 378 385
3 362 386 277
3 378 374 385
3 67 379 65
3 11 348 9
3 49 348 352
3 56 269 380
3 183 203 286
3 140 348 141
3 126 221 288
3 16 101 100
3 87 215 88
3 220 357 368
3 353 168 255
3 324 172 325
3 228 97 99
3 3 357 219
3 168 345 169
3 31 236 282
3 307 369 55
3 338 329 358
3 156 155 239
3 284 276 293
3 155 106 239
3 115 342 351
3 138 90 319
3 22 73 20
3 306 386 387
3 354 207 161
3 189 59 247
3 15 49 352
3 98 69 279
3 170 350 198
3 265 271 331
3 101 332 294
3 287 102 297
3 76 342 329
3 97 79 70
3 327 48 152
3 42 315 344
3 337 336 347
3 165 309 166
3 50 15 17
3 266 128 71
3 329 338 77
3 234 243 273
3 152 201 96
3 387 251 283
3 7 135 8
3 306 277 386
3 31 4 3
3 18 142 6
3 104 147 106
3 47 207 84
3 0 301 1
3 376 308 151
3 180 214 72
3 207 47 46
3 226 121 123
3 283 306 387
3 322 42 57
3 107 155 327
3 118 117 362
3 34 306 35
3 31 124 254
3 218 305 261
3 133 132 355
3 260 309 165
3 331 203 265
3 235 78 143
3 111 26 140
3 110 223 211
3 85 129 201
3 309 84 207
3 200 199 259
3 5 368 357
3 242 333 243
3 129 85 176
3 207 166 309
3 310 125 191
3 249 181 180
3 382 351 375
3 276 284 217
3 250 330 321
3 27 101 16
3 212 368 343
3 233 356 355
3 218 302 305
3 212 83 82
3 53 55 347
3 86 360 180
3 290 121 309
3 37 194 342
3 256 143 78
3 77 76 329
3 165 167 248
3 36 197 311
3 345 266 169
3 363 383 367
3 299 298 6
3 274 372 313
3 374 232 385
3 341 173 231
3 112 291 285
3 119 191 349
3 300 68 135
3 349 255 159
3 11 346 188
3 112 285 162
3 266 284 128
3 247 25 189
3 164 163 271
3 267 169 266
3 9 216 288
3 158 280 120
3 340 339 388
3 11 278 346
3 162 361 112
3 386 252 387
3 219 221 328
3 228 253 124
3 124 79 97
3 361 162 164
3 344 58 57
3 8 135 182
3 159 255 247
3 387 252 251
3 203 182 202
3 30 310 119
3 293 158 246
3 80 119 50
3 300 69 68
3 65 380 269
3 37 76 78
3 205 89 91
3 382 113 115
3 346 278 66
3 307 55 151
3 275 155 157
3 46 109 161
3 343 63 213
3 296 170 171
3 222 172 174
3 239 106 149
3 105 95 137
3 183 291 19
3 132 194 195
3 354 89 207
3 320 62 117
3 83 118 278
3 110 46 223
3 256 78 229
3 139 138 243
3 135 7 300
3 359 225 250
3 31 254 236
3 226 204 84
3 377 273 133
3 58 269 56
3 291 112 292
3 150 54 144
3 375 351 146
3 125 310 328
3 242 138 161
3 62 64 4
3 154 318 39
3 321 109 250
3 145 144 334
3 79 297 68
3 10 288 82
3 230 316 341
3 59 181 249
3 299 193 192
3 141 348 11
3 94 184 137
3 318 93 40
3 37 78 38
3 226 123 227
3 269 66 65
3 262 205 195
3 299 192 69
3 249 180 72
3 32 41 51
3 298 7 6
3 368 5 343
3 145 334 321
3 261 305 317
3 51 185 32
3 261 260 199
3 300 299 69
3 342 198 351
3 250 211 359
3 161 207 46
3 223 174 359
3 294 26 272
3 292 111 142
3 155 275 327
3 132 304 355
3 378 363 364
3 74 200 92
3 208 363 358
3 315 98 344
3 90 89 319
3 48 201 152
3 190 345 191
3 204 227 175
3 277 118 362
3 303 54 273
3 248 244 259
3 375 145 382
3 339 358 383
3 340 389 229
3 303 273 333
3 389 314 229
3 127 190 125
3 348 276 9
3 193 188 187
3 100 102 287
3 323 43 42
3 61 60 128
3 278 10 83
3 372 274 314
3 16 28 27
3 101 294 102
3 20 73 87
3 283 251 240
3 390 372 314
3 15 28 16
3 352 28 15
3 134 294 265
3 140 28 352
3 392 326 325
3 283 282 264
3 288 221 82
3 328 126 125
3 23 169 267
3 282 62 31
3 183 182 203
3 254 44 236
3 265 294 272
3 158 159 246
3 35 306 264
3 24 181 189
3 253 315 44
3 332 101 27
3 343 213 212
3 331 163 203
3 17 16 100
3 88 360 86
3 21 24 23
3 362 252 386
3 31 62 4
3 372 390 370
3 372 371 393
3 393 392 325
3 22 21 267
3 265 272 271
3 314 389 391
3 339 383 388
3 56 380 363
3 340 388 379
3 379 383 380
3 340 379 67
3 340 67 389
3 236 237 324
3 231 43 323
3 43 231 237
3 324 326 381
3 380 383 394
3 365 363 384
3 323 232 231
3 324 381 236
3 363 366 56
3 370 33 371
3 392 381 326
3 231 324 237
3 322 385 232
3 363 380 394
3 384 385 365
3 363 394 383
3 33 370 390
3 322 232 323
3 365 385 322
3 390 391 34
3 365 366 363
3 389 67 34
3 393 371 33
3 381 392 393
3 34 391 389
3 379 388 383
3 391 390 314
3 313 372 393
3 313 393 325
3 33 390 34
3 263 393 33
3 263 381 393
