ply
format ascii 1.0
element vertex 333
property double x
property double y
property double z
element face 662
property list uchar int vertex_indices
end_header
0.1290774068 -0.02184698652 0.08365562198
0.1299914645 -0.02125157039 0.08371160581
0.1298481465 -0.02017830033 0.08382591885
0.1291324119 -0.01941022519 0.08348250435
0.1281943808 -0.0216670812 0.08328639812
0.1280182833 -0.02011244827 0.0834818191
0.1271728291 -0.0190134029 0.08234437773
0.1300376237 0.02149433795 0.08419890308
0.1308481966 0.02074042426 0.08416680815
0.1305029888 0.01967691686 0.08425062412
0.1296052602 0.01904520652 0.0839209584
0.1291013056 0.02150226062 0.0838968584
0.1155875758 -0.01356115148 0.07390244514
0.1156682716 -0.01396563954 0.07362256644
0.1286095726 0.01997619499 0.08405746911
0.1152625955 -0.01338477439 0.07277366714
0.1274284896 0.01911327443 0.08296144805
0.1302572567 -0.02140191715 0.08253233915
0.1294587643 -0.01913289601 0.0824045606
0.1149823819 0.01431138984 0.07475848454
0.1149971537 0.01472288305 0.074493578
0.1146291134 0.01408003094 0.07358947726
0.1278108935 -0.02151145229 0.08154676345
0.126291231 -0.01957941522 0.08203688586
0.1310325733 0.02088646793 0.08296291102
0.1248840895 -0.0186813299 0.08121437941
0.1297823794 0.01875092857 0.08277757113
0.1241776374 -0.01796195886 0.08052136317
0.1253086319 -0.01801319585 0.08140736239
0.1285883318 0.02149614065 0.08218719281
0.1266723421 0.01987938506 0.08274917162
0.1251118282 0.0193577746 0.08196511455
0.1242443531 0.0188166998 0.08128600479
0.1253918893 0.01859945852 0.08209727719
0.1167327725 -0.01341354313 0.07296340435
0.1159811395 -0.01247874905 0.07308342123
0.1161623971 0.01436417863 0.07370627824
0.1154763651 0.01330293673 0.07382453401
0.1150603411 -0.01074489609 0.07124653535
0.1146752901 0.01156740216 0.07181378975
0.1149356097 -0.01243251127 0.07228701
0.1143388941 0.01313651117 0.07304922636
0.1143113141 0.01194326964 0.07137447709
0.114682417 -0.01109625561 0.07085510871
0.1144397044 -0.009499439334 0.07046029874
0.1141468596 -0.002575261301 0.07014396504
0.1139945168 -0.01025779832 0.06998555436
0.114260308 0.01027558803 0.07084281165
0.1142535618 0.003158640632 0.07023101013
0.1306056981 -0.02100795734 0.0814141296
0.1288464161 -0.0220053894 0.08112992459
0.1278407801 -0.01847936784 0.08140841307
0.1137392301 0.01101797942 0.07042583086
0.1245097516 -0.01874965755 0.08017207233
0.1242268735 -0.01689701214 0.07902252624
0.1312203851 0.02049665108 0.08179683209
0.1296562859 0.02181238925 0.0817106843
0.1240101557 -0.01826450197 0.07939373745
0.1238589268 -0.01753743535 0.07905341641
0.1279437542 0.01851855415 0.08190420635
0.1246958854 0.01953794381 0.08099137357
0.1168578006 -0.01241499032 0.07271149236
0.1162940552 -0.01376465548 0.07270742847
0.1240511257 0.01782040069 0.0797252472
0.1240726279 0.01920285468 0.08020525951
0.1237732232 0.0185293005 0.07982158208
0.1163384376 -0.01384185807 0.07159764894
0.1158057539 -0.01063159885 0.07140428822
0.1163789587 0.01338363526 0.07342717397
0.1156410018 0.0146350441 0.07349538771
0.1156761116 -0.002069427081 0.07078160712
0.115611626 0.01475435233 0.07241847763
0.1154689476 0.01150856457 0.07197190382
0.1157756997 0.002667127777 0.07082306229
0.1148695752 -0.007336677435 0.07053494061
0.114815485 0.008069549079 0.07079233758
0.1130677846 -0.008690128606 0.06935357009
0.1128895483 0.009344629587 0.06974673947
0.1309736006 0.01972663638 0.08182615906
0.1299225553 0.0189951987 0.08073678829
0.1281949133 0.01836443347 0.08036763864
0.1258231248 0.01803355926 0.07979502581
0.1305146489 -0.020222562 0.08146685571
0.1298015867 -0.01929456412 0.08037128387
0.128296958 -0.01829419501 0.07993024705
0.1241660865 0.01758446748 0.07907593322
0.1259898937 -0.01740550965 0.07920147617
0.1235921869 0.0188003418 0.07933786618
0.123025006 0.01797553818 0.07878280891
0.1192736567 0.01630661837 0.07612204565
0.1191114846 0.01565848927 0.07596598887
0.124392954 -0.01663149638 0.07841437844
0.1180491004 0.01582005798 0.07523909727
0.118144457 0.01449866969 0.07456438637
0.1236751613 -0.01774607065 0.07853990059
0.1167142576 0.01481360975 0.07395494784
0.1162863731 0.01508261714 0.07340464868
0.1233006474 -0.01686283984 0.07802541857
0.1171069983 0.01392404658 0.07372774709
0.1198983918 -0.01505290742 0.07536891774
0.1196585664 -0.01444437312 0.07523131709
0.1186809618 -0.01465348396 0.07446892413
0.1186036569 -0.01336243489 0.07386606372
0.1167613959 0.00419861302 0.07034665959
0.1173228655 -0.01378122648 0.0732069413
0.1169859564 -0.01407537114 0.07262297715
0.1176160726 -0.01284556062 0.07302140442
0.1158381345 0.006927325188 0.07080667393
0.1164767318 0.006123694412 0.07060208981
0.1173652775 0.001373242645 0.07021187774
0.1161762396 0.008964750694 0.07037110854
0.1166866725 -0.003488275597 0.07019525362
0.1144821602 0.01307376176 0.07112134917
0.1132401679 0.007560586818 0.07002179478
0.1158382774 -0.006249604256 0.07043198672
0.1108860816 0.007032526587 0.06692723602
0.1164530173 -0.005429801259 0.07029913662
0.1174007782 -0.000774899678 0.07018564621
0.1163549175 -0.008089803894 0.06995963988
0.1149952757 -0.01215788502 0.07050199812
0.1132986443 -0.006901570681 0.06971390851
0.1307623883 0.02079200034 0.0805673331
0.1303122764 0.02161929922 0.0813624661
0.1110176088 -0.006465849536 0.06654568357
0.1301887958 -0.02116720648 0.08014589292
0.1263409712 0.02029095839 0.07950676341
0.1232944862 0.01736953365 0.07846935783
0.129554689 -0.02191775346 0.08084636096
0.1261163937 -0.01966849734 0.07878697762
0.1217866692 0.01699089124 0.07732035823
0.1220341693 0.01806659894 0.07774370833
0.1236413094 -0.01628818106 0.07774872435
0.1203715004 0.0184088205 0.07642286673
0.1199068624 0.01726835386 0.07637890372
0.120358497 0.0163522171 0.07619501076
0.1222274209 -0.01573196989 0.07656940461
0.1223461607 -0.01676755235 0.07695004139
0.1208986211 -0.01701205509 0.07550509781
0.1195190508 0.01794627594 0.07594350638
0.1189315144 0.01432186212 0.07438520947
0.1204845152 -0.01595825702 0.07553333424
0.1209246219 -0.01506553075 0.07544871471
0.1173314239 0.01204912938 0.0722297394
0.1164938715 0.01057993929 0.07097519442
0.1151762093 0.01004681476 0.07104508358
0.1201741176 -0.01658769255 0.07503547961
0.1166067035 0.006291186003 0.07009873469
0.1193574577 -0.01307953312 0.07370014651
0.1176526029 -0.01099947604 0.07155085047
0.1167018207 -0.009658876619 0.07040102867
0.1154210146 -0.00921446753 0.07053531255
0.1166174837 -0.005549585788 0.06981518944
0.1124556213 0.003987984042 0.06910566411
0.1124311888 -0.003423162551 0.0688831317
0.1108443065 0.005644153014 0.06754956366
0.1110406366 0.001272771477 0.06772577235
0.110911322 -0.005122464886 0.06720853893
0.1110792077 -0.0007150521608 0.06765144685
0.1292071485 -0.0204683313 0.07893563658
0.1295320032 0.02039943132 0.07940980435
0.1287008111 0.02139756897 0.07976588907
0.1281354769 -0.02133663811 0.07915067443
0.1274197903 0.02099678956 0.07971213144
0.1257363657 0.01977002377 0.07853335681
0.127047661 -0.02062123927 0.07906913806
0.1239797816 0.01736001325 0.07797157683
0.1257464744 -0.01895407298 0.07781609867
0.1229416797 0.01874532981 0.07796187329
0.1224826325 0.01896538393 0.07658707979
0.124348872 -0.01629837816 0.07732727883
0.1218898329 0.0164945563 0.07652341953
0.1231885833 -0.01752908528 0.07713179965
0.1228841136 -0.01755586502 0.07576507462
0.120542358 0.01591468036 0.07542150918
0.122424219 -0.01519485546 0.07583633217
0.1211249589 -0.01456783375 0.07473606686
0.1192986037 0.01834045394 0.0742639925
0.1193764111 0.01400763715 0.07284953012
0.1201212201 -0.0168615655 0.07337975414
0.1162892853 0.009157603642 0.06894265279
0.116087599 0.00761885508 0.06932324022
0.1198468004 -0.01262725973 0.07226969695
0.1146538131 0.002898599819 0.06845473755
0.1131088115 0.01120485872 0.06810640525
0.1165534442 -0.008208494029 0.06857649299
0.1162322824 -0.006796794697 0.06893583245
0.1146672027 -0.002164974957 0.06838855997
0.1134768403 -0.01045181577 0.06765503527
0.1283078324 0.02051865222 0.07905778685
0.1280355826 -0.02028810129 0.07850102522
0.1266900373 -0.01812336897 0.07820108851
0.1265060972 0.01877198199 0.078758622
0.1266140723 0.01936210813 0.07870597408
0.1256985268 0.01917401578 0.07763164602
0.1252590509 0.01958362586 0.07794713777
0.1255985041 0.01854807365 0.07766563456
0.1244093253 0.01781321694 0.0772695681
0.1234498145 0.01893492806 0.07708734427
0.1266803209 -0.01872867385 0.07808575886
0.1258853652 -0.01821878718 0.07696764259
0.1253707197 -0.01861741474 0.07721457859
0.1214162485 0.01612458107 0.07524924525
0.1258718477 -0.01758552178 0.07705206291
0.1247952263 -0.01668269905 0.07665985967
0.1237914439 -0.01765272411 0.07633476535
0.1220595628 -0.01470785779 0.07463979798
0.1185372765 0.01779150005 0.07301617844
0.1167826232 0.01607428297 0.06925935815
0.1141864307 0.01346349361 0.06770813843
0.1194977861 -0.01632037747 0.07220338407
0.1177866406 -0.01485286543 0.06877935353
0.114885871 -0.01273846551 0.0671560206
0.1103742347 0.004470435664 0.06654446578
0.1243867769 0.01854186525 0.07696629614
0.1234973182 0.01857689058 0.07641965508
0.1229013786 0.01766292109 0.0754706873
0.1227614908 0.0185109472 0.07525869735
0.12236125 0.01711400783 0.07519971595
0.1217358357 0.0182991522 0.07467389823
0.1211946901 0.0161788271 0.07410753211
0.1103621144 -0.003924328372 0.06624603602
0.1194956952 0.01813405008 0.07329496809
0.1185442388 0.01759952671 0.07191560568
0.1182765684 0.01287009798 0.07011718104
0.1175531625 0.01157627654 0.06963445504
0.1247489275 -0.01734276574 0.07630389537
0.1134765269 0.004887080982 0.066847198
0.1131879129 0.002953893905 0.06685637931
0.123880559 -0.01719843025 0.07571547416
0.110444576 0.006161702845 0.06466770195
0.1234290675 -0.01623158129 0.07482704043
0.123296803 -0.01703775224 0.07453905763
0.1214753158 0.01687045648 0.07414888926
0.1229544577 -0.01567384204 0.07456798407
0.1223801314 -0.01679427814 0.07392208904
0.1218461943 -0.01467593438 0.07351847232
0.1205654541 0.01551888385 0.07325310666
0.1214543708 0.01785257784 0.07422189391
0.1203591428 -0.01658013784 0.07251495442
0.1201057231 0.01707111082 0.07273725773
0.1191930089 0.01734713513 0.07200673543
0.1195256878 -0.01609770635 0.07121712952
0.118703625 -0.01164464856 0.06962355274
0.1186107275 0.01472693061 0.06981617162
0.1178931643 -0.01050745388 0.0691922005
0.1135856245 -0.004066960618 0.06663733359
0.1132231418 -0.00214005513 0.06672525453
0.1153179358 0.01439527825 0.06664320332
0.1134625977 0.01117290449 0.06626006191
0.1128067291 0.002349706215 0.06457898946
0.1106380201 -0.005473014773 0.0642731372
0.1196302762 0.01621168899 0.0710291994
0.117919372 0.01600216561 0.06934911155
0.117755567 0.01453397841 0.06798987357
0.1221170147 -0.01535565262 0.07351759482
0.1211716701 -0.01400804815 0.0727203993
0.1221190247 -0.01633232121 0.07350247574
0.1208488014 -0.01553067589 0.07212113688
0.1168692749 0.01113396924 0.06763361186
0.1201206079 -0.01583573127 0.07136184538
0.115063755 0.008303766306 0.06629299537
0.1138837132 0.005836880208 0.06558183423
0.1193379032 -0.01330142225 0.06934781363
0.1109590551 0.006449766465 0.06358324429
0.1164101121 -0.0133738381 0.06605656155
0.1164448693 0.01395934441 0.06607808245
0.1165918182 0.01239005338 0.06621224785
0.1157491404 0.01396549993 0.06589428977
0.1166672126 0.01551212095 0.06748073456
0.1139719421 -0.01029765407 0.06580813621
0.1153167687 0.01071029002 0.065519949
0.1144074994 0.00856547883 0.06507170714
0.1151618834 0.01164527063 0.06538987452
0.1129370366 -0.001419902998 0.06446472419
0.114379532 0.01121206828 0.06528094879
0.1204314576 -0.01466607871 0.07053755814
0.1132173715 0.009586140714 0.06461729086
0.1132500964 0.004463097425 0.0642840134
0.1188951065 -0.01460484914 0.06880343872
0.1120067563 0.007844134972 0.06340431142
0.1185372511 -0.01311791105 0.0676407144
0.1173158825 -0.01002384778 0.06736317036
0.1154168037 -0.007316574009 0.06611629593
0.1134634001 0.008966752299 0.06438989908
0.1141177508 -0.00490729701 0.06541491515
0.1113322591 -0.005593697688 0.06316677557
0.1129920385 0.007784904249 0.0635409648
0.1131184942 0.006172893303 0.06348998688
0.1121734119 0.004090299779 0.06279522629
0.1117385001 0.001274194429 0.06253775606
0.1174729787 -0.01267445125 0.0656405647
0.1111480881 0.004606178686 0.06270308923
0.1174211271 -0.01115671342 0.0658875397
0.1168148733 -0.01278855774 0.06537071467
0.1178630764 -0.01424831747 0.06703464461
0.1160263029 -0.009634173059 0.06514149712
0.1149212501 -0.007522803125 0.06478827576
0.1117482114 0.004961475008 0.06271981893
0.1160313567 -0.01053489053 0.06489955998
0.115160423 -0.01016221448 0.06475958541
0.1138339717 -0.008601453817 0.0642146014
0.1113888508 0.002169043463 0.06235427035
0.110871527 0.001596609888 0.06228011302
0.1112095569 0.0004805968911 0.06209113125
0.1134850697 -0.003461970437 0.06418787295
0.1126311649 -0.006898800992 0.06292810884
0.1140963563 -0.007971140691 0.06399876725
0.1135843721 -0.006710408835 0.06322878613
0.1135159041 -0.005103105142 0.06331403269
0.1124526181 -0.003057582668 0.06261986993
0.1119079477 -0.0002923707085 0.06242489759
0.1114572209 -0.003666239812 0.06244340146
0.1121032616 -0.003977954821 0.06248211008
0.1115865544 -0.001180781232 0.06221380872
0.1110600165 -0.0006566161389 0.06217509684
0.1131736106 0.0003851437106 0.0666456444
0.1103714438 0.0003700851373 0.06465001923
0.1158204262 0.0002616080954 0.07065329715
0.1170102099 0.0002842981424 0.07010659577
0.1105524379 0.0003055566095 0.06667980166
0.1146353258 0.0003328543995 0.06845010455
0.1128934817 0.0004354807149 0.06492410199
0.1120177404 0.0004796533842 0.06294487401
0.1125256602 0.0004616143365 0.06381834705
0.1151225644 0.0002630983827 0.07049235773
0.1117931701 0.0004883946308 0.06247753716
0.1128577668 0.0002934526892 0.06899240611
0.1109531569 0.0004664071301 0.06220328345
0.1150119234 0.0002631084479 0.07044671537
0.1137059932 0.0002765300503 0.06962655092
0.1116019952 0.0002869046382 0.06803838957
0.1145041676 0.0002651198882 0.07018820267
0.1110937038 0.0002857165565 0.06762627186
3 166 198 128
3 82 83 18
3 109 73 317
3 117 318 317
3 229 183 279
3 10 9 14
3 13 12 15
3 64 32 60
3 78 26 79
3 305 250 285
3 105 104 34
3 41 19 21
3 236 177 251
3 123 46 76
3 8 24 7
3 181 147 255
3 26 10 59
3 73 107 48
3 190 189 198
3 185 184 245
3 233 256 254
3 151 116 114
3 105 178 145
3 99 145 140
3 78 9 26
3 308 304 296
3 204 225 199
3 28 25 23
3 16 33 59
3 52 77 113
3 157 220 156
3 24 55 122
3 26 80 79
3 47 113 48
3 63 32 65
3 210 209 66
3 43 38 46
3 284 304 273
3 53 128 164
3 68 36 19
3 36 69 20
3 141 140 135
3 186 318 117
3 301 289 302
3 81 85 165
3 75 48 107
3 118 74 150
3 42 52 39
3 141 100 99
3 278 275 241
3 253 223 266
3 64 197 167
3 133 129 130
3 86 169 91
3 105 34 62
3 310 309 313
3 108 73 103
3 129 134 170
3 80 26 59
3 39 41 42
3 87 65 64
3 90 89 92
3 86 51 84
3 238 178 209
3 96 36 95
3 96 69 36
3 236 173 139
3 174 135 131
3 71 69 96
3 71 21 69
3 23 25 53
3 189 128 198
3 127 17 50
3 41 112 42
3 221 222 206
3 171 137 172
3 100 141 147
3 205 230 233
3 121 122 55
3 255 147 175
3 160 29 56
3 95 36 68
3 200 166 128
3 125 64 60
3 257 254 256
3 256 238 257
3 87 64 167
3 126 85 63
3 88 129 126
3 88 87 130
3 130 129 88
3 255 275 181
3 250 311 285
3 306 296 295
3 61 106 148
3 133 89 134
3 100 101 99
3 201 170 173
3 89 133 138
3 93 139 90
3 213 193 195
3 104 61 34
3 141 174 175
3 107 146 110
3 146 107 108
3 252 222 251
3 237 218 217
3 163 125 192
3 296 307 308
3 30 33 16
3 10 26 9
3 259 238 241
3 212 319 155
3 191 192 188
3 70 45 114
3 74 114 45
3 295 296 282
3 195 196 213
3 74 45 44
3 142 144 143
3 62 13 15
3 188 192 125
3 126 170 165
3 170 126 129
3 46 44 120
3 231 234 230
3 134 173 170
3 7 9 8
3 130 132 133
3 180 110 146
3 181 102 147
3 3 5 2
3 188 160 159
3 101 104 105
3 125 162 188
3 3 6 5
3 229 115 183
3 194 163 193
3 194 197 125
3 119 15 40
3 309 304 308
3 280 292 242
3 291 263 279
3 46 120 76
3 183 208 248
3 68 39 72
3 57 53 27
3 202 225 203
3 109 103 73
3 68 142 98
3 284 273 245
3 85 81 33
3 119 46 187
3 193 197 194
3 197 193 213
3 213 214 197
3 5 6 23
3 158 189 190
3 169 86 202
3 5 23 4
3 207 71 206
3 235 254 255
3 82 18 2
3 211 119 187
3 78 24 9
3 211 210 119
3 152 113 77
3 238 209 241
3 150 38 67
3 96 206 71
3 136 140 137
3 179 258 224
3 239 232 236
3 258 260 270
3 61 67 38
3 204 128 57
3 225 204 228
3 237 221 218
3 290 280 294
3 215 196 201
3 81 80 59
3 262 278 280
3 260 179 226
3 111 116 151
3 191 195 193
3 311 305 285
3 106 181 148
3 282 245 184
3 44 45 120
3 131 169 174
3 185 151 118
3 102 106 101
3 307 300 305
3 296 306 307
3 92 93 90
3 58 97 94
3 243 253 252
3 252 253 268
3 284 245 282
3 248 274 276
3 274 267 272
3 130 87 167
3 272 265 266
3 19 37 68
3 47 144 39
3 181 242 148
3 181 262 242
3 219 236 232
3 265 272 267
3 317 73 324
3 283 270 271
3 271 286 283
3 299 295 298
3 286 279 276
3 186 117 111
3 290 293 298
3 257 255 254
3 82 49 124
3 120 45 153
3 152 77 154
3 293 264 269
3 257 275 255
3 34 13 62
3 303 289 325
3 61 104 106
3 291 297 301
3 266 270 272
3 92 96 95
3 256 234 238
3 279 183 248
3 279 263 229
3 2 5 0
3 155 152 154
3 182 109 318
3 78 79 121
3 65 87 88
3 141 175 147
3 112 71 207
3 9 7 14
3 157 156 153
3 251 177 243
3 218 215 217
3 283 286 276
3 0 4 50
3 144 68 72
3 142 68 144
3 50 4 22
3 251 240 239
3 91 169 131
3 112 41 21
3 112 21 71
3 33 30 31
3 239 237 232
3 185 118 184
3 247 208 268
3 208 207 268
3 122 56 24
3 96 138 176
3 184 244 281
3 22 4 23
3 138 96 92
3 142 224 223
3 180 179 110
3 20 19 36
3 248 267 274
3 267 248 247
3 68 37 39
3 168 197 214
3 3 2 18
3 81 195 191
3 165 195 81
3 176 218 221
3 261 226 249
3 79 191 159
3 172 228 204
3 241 275 259
3 257 238 259
3 144 72 39
3 78 121 55
3 197 64 125
3 287 288 297
3 297 288 301
3 63 33 32
3 88 126 63
3 265 268 253
3 60 30 29
3 205 235 175
3 218 176 216
3 229 212 115
3 115 212 154
3 114 118 151
3 132 130 167
3 176 138 132
3 177 236 139
3 97 54 131
3 17 2 1
3 97 136 94
3 227 249 226
3 17 127 49
3 145 99 101
3 299 298 293
3 294 278 210
3 316 229 291
3 292 298 295
3 94 171 57
3 293 294 264
3 187 269 211
3 118 150 149
3 39 19 41
3 110 143 144
3 296 284 282
3 10 14 16
3 136 97 135
3 121 160 122
3 93 92 98
3 98 177 93
3 331 48 329
3 38 43 40
3 228 172 231
3 235 205 254
3 22 53 164
3 114 116 70
3 138 133 132
3 184 281 282
3 164 161 22
3 6 51 28
3 177 139 93
3 332 330 155
3 29 30 11
3 103 146 108
3 110 144 75
3 190 199 202
3 290 294 293
3 54 27 28
3 271 287 286
3 52 42 112
3 90 139 134
3 292 280 290
3 226 182 227
3 182 320 227
3 201 232 217
3 267 247 268
3 283 274 270
3 86 28 51
3 80 81 191
3 82 124 83
3 292 295 281
3 300 269 305
3 128 189 164
3 287 297 286
3 195 165 196
3 208 247 248
3 121 79 159
3 159 160 121
3 85 126 165
3 191 193 192
3 14 7 11
3 227 320 315
3 144 47 75
3 230 205 203
3 161 50 22
3 110 75 107
3 75 47 48
3 84 51 18
3 178 231 172
3 98 142 177
3 275 262 181
3 66 105 62
3 153 76 120
3 86 190 202
3 20 21 19
3 262 280 242
3 167 168 132
3 225 230 203
3 314 313 311
3 278 294 280
3 69 21 20
3 274 283 276
3 179 224 143
3 134 139 173
3 194 125 163
3 217 232 237
3 221 206 176
3 18 51 3
3 38 44 46
3 83 158 190
3 91 54 28
3 214 216 168
3 274 272 270
3 115 77 52
3 112 183 52
3 289 301 288
3 183 115 52
3 208 183 112
3 208 112 207
3 167 197 168
3 123 76 156
3 23 6 28
3 261 277 271
3 185 111 151
3 153 156 76
3 299 300 306
3 155 154 212
3 56 29 11
3 137 171 136
3 24 8 9
3 64 65 32
3 201 196 165
3 201 165 170
3 105 209 178
3 200 128 204
3 56 122 160
3 140 141 99
3 14 30 16
3 261 249 277
3 84 190 86
3 12 61 35
3 250 305 187
3 211 294 210
3 275 257 259
3 230 228 231
3 124 127 161
3 312 313 309
3 244 149 148
3 180 226 179
3 201 217 215
3 159 191 188
3 177 223 243
3 134 89 90
3 207 206 222
3 308 312 309
3 179 143 110
3 256 233 234
3 38 40 12
3 224 142 143
3 113 152 48
3 269 300 299
3 173 236 219
3 213 215 214
3 134 129 133
3 219 232 201
3 182 103 109
3 177 142 223
3 115 154 77
3 201 173 219
3 215 216 214
3 54 58 27
3 250 123 220
3 32 31 60
3 24 56 7
3 1 0 17
3 210 241 209
3 55 24 78
3 145 101 105
3 213 196 215
3 297 291 279
3 191 79 80
3 68 98 95
3 148 242 244
3 61 38 35
3 252 207 222
3 189 158 161
3 179 260 258
3 266 258 270
3 298 292 290
3 258 266 224
3 270 260 271
3 266 223 224
3 95 98 92
3 251 243 252
3 239 240 221
3 216 215 218
3 101 100 102
3 136 171 94
3 237 239 221
3 240 222 221
3 17 0 50
3 184 118 149
3 234 233 230
3 178 137 145
3 305 269 187
3 176 132 168
3 14 11 30
3 85 33 63
3 328 48 331
3 138 92 89
3 81 59 33
3 104 101 106
3 94 57 58
3 119 210 66
3 160 188 162
3 261 260 226
3 128 53 57
3 205 174 169
3 65 88 63
3 39 37 19
3 66 62 15
3 150 74 44
3 40 43 119
3 116 111 70
3 131 54 91
3 288 287 277
3 287 271 277
3 7 56 11
3 50 161 127
3 286 297 279
3 281 295 282
3 52 113 47
3 211 269 264
3 302 291 301
3 27 25 28
3 265 267 268
3 276 279 248
3 106 102 181
3 310 325 322
3 222 240 251
3 246 245 273
3 266 265 253
3 243 223 253
3 315 249 227
3 225 228 230
3 288 249 289
3 105 66 209
3 205 233 254
3 271 260 261
3 32 33 31
3 312 305 311
3 307 305 312
3 311 313 312
3 16 59 10
3 29 162 60
3 162 29 160
3 60 162 125
3 192 193 163
3 39 52 47
3 53 22 23
3 182 180 103
3 180 146 103
3 182 226 180
3 269 299 293
3 187 46 123
3 96 176 206
3 277 249 288
3 176 168 216
3 107 73 108
3 205 169 203
3 58 54 97
3 0 1 2
3 306 295 299
3 184 149 244
3 229 263 291
3 97 131 135
3 30 60 31
3 239 236 251
3 124 49 127
3 225 202 199
3 313 314 310
3 38 12 35
3 309 310 273
3 82 2 17
3 268 207 252
3 57 27 58
3 91 28 86
3 57 171 204
3 44 38 150
3 198 166 199
3 190 198 199
3 6 3 51
3 124 158 83
3 281 244 292
3 308 307 312
3 175 235 255
3 117 70 111
3 292 244 242
3 200 199 166
3 18 83 84
3 310 322 273
3 119 66 15
3 284 296 304
3 49 82 17
3 212 229 316
3 171 172 204
3 245 246 186
3 27 53 25
3 190 84 83
3 316 302 327
3 234 231 178
3 302 289 303
3 61 12 34
3 5 4 0
3 46 119 43
3 140 136 135
3 326 330 153
3 199 200 204
3 70 324 45
3 275 278 262
3 150 67 61
3 123 156 220
3 202 203 169
3 148 149 150
3 304 309 273
3 278 241 210
3 319 212 316
3 186 111 185
3 13 34 12
3 118 114 74
3 182 318 320
3 205 175 174
3 158 124 161
3 291 302 316
3 135 174 141
3 306 300 307
3 178 172 137
3 161 164 189
3 145 137 140
3 102 100 147
3 109 317 318
3 148 150 61
3 264 294 211
3 40 15 12
3 178 238 234
3 250 187 123
3 152 155 330
3 326 153 329
3 289 249 322
3 73 48 324
3 117 317 70
3 152 326 329
3 48 152 329
3 326 152 330
3 302 303 327
3 186 185 245
3 48 328 324
3 249 323 322
3 289 322 325
3 273 323 321
3 155 319 332
3 249 321 323
3 249 315 321
3 246 315 320
3 153 45 329
3 317 324 70
3 186 246 320
3 303 325 310
3 332 157 330
3 319 316 220
3 220 316 250
3 315 246 273
3 314 303 310
3 316 327 314
3 157 332 319
3 220 157 319
3 331 329 45
3 316 311 250
3 328 331 45
3 311 316 314
3 324 328 45
3 273 321 315
3 314 327 303
3 330 157 153
3 186 320 318
3 322 323 273
