ply
format ascii 1.0
element vertex 36
property double x
property double y
property double z
element face 68
property list uchar int vertex_indices
end_header
0.1224545197 0.008202952714 0.05320295399
0.1223448246 0.007645545864 0.05359208284
0.1226672939 0.007258544063 0.05316397551
0.1219161525 0.007169206813 0.05331667315
0.121602551 0.008111958178 0.05305058587
0.1206115081 0.007705034623 0.05225066386
0.1223548147 0.00812127113 0.0519621743
0.1222751929 0.00731150514 0.05201725019
0.1217322521 0.008653218465 0.05222122159
0.1213784135 0.006899403701 0.05226694134
0.1205328117 0.008741716613 0.05162192684
0.1214312535 0.008806922374 0.05139067342
0.1210816924 0.00733801697 0.05084134278
0.1206683212 0.009097710385 0.05068986631
0.1205508732 0.007157872156 0.0509792191
0.1195838677 0.008019936025 0.05051718378
0.1197529812 0.007337427435 0.05036693482
0.1213200925 0.008361556516 0.05057650496
0.1210021178 0.008914663992 0.04995082394
0.1207569397 0.008311799341 0.04892482731
0.1204385382 0.009358068367 0.04903087531
0.1198960645 0.007326232304 0.04921060146
0.1189854766 0.008856798705 0.04885821081
0.1191116014 0.007796061352 0.04920969111
0.1195238262 0.007302521809 0.04807427606
0.1195752165 0.009385180367 0.04880564305
0.1186304954 0.008498317316 0.04854347298
0.120101193 0.008303250366 0.04803277819
0.1193842304 0.008635075636 0.04760517454
0.119183435 0.009085916896 0.04805843829
0.1186819077 0.007361441981 0.04794093723
0.1186991174 0.008909576601 0.04802571199
0.1181839896 0.008723747286 0.04790303024
0.1182067314 0.007837752902 0.04793743999
0.1185850228 0.007658329324 0.04704981986
0.118273431 0.008235893721 0.04703275097
3 2 0 1
3 1 3 2
3 0 4 1
3 4 3 1
3 4 5 3
3 6 0 2
3 2 7 6
3 8 0 6
3 2 3 7
3 3 9 7
3 4 0 8
3 10 4 8
3 10 5 4
3 5 9 3
3 13 10 8
3 6 11 8
3 11 13 8
3 25 28 29
3 14 12 9
3 5 14 9
3 5 10 16
3 16 14 5
3 17 11 6
3 17 6 7
3 7 12 17
3 18 13 11
3 18 11 17
3 33 23 26
3 12 21 17
3 20 13 18
3 14 21 12
3 13 22 15
3 16 21 14
3 15 23 16
3 19 18 17
3 17 21 19
3 20 18 19
3 13 25 22
3 23 15 22
3 16 23 21
3 23 22 26
3 19 27 20
3 25 20 27
3 19 24 27
3 27 28 25
3 24 34 27
3 21 23 24
3 25 29 22
3 23 30 24
3 22 29 31
3 22 31 26
3 25 13 20
3 26 31 32
3 32 33 26
3 15 10 13
3 33 30 23
3 21 24 19
3 27 34 28
3 24 30 34
3 28 31 29
3 9 12 7
3 32 31 28
3 28 35 32
3 34 30 33
3 33 32 35
3 33 35 34
3 35 28 34
3 10 15 16
