ply
format ascii 1.0
element vertex 36
property double x
property double y
property double z
element face 68
property list uchar int vertex_indices
end_header
0.1512257886 -0.009927584851 0.05484007709
0.1510650634 -0.009280045425 0.05523875137
0.1516097134 -0.008862304257 0.05467181669
0.1506617551 -0.008840047111 0.05471926012
0.1502468 -0.01000232033 0.05444759332
0.1492755667 -0.009764744314 0.05321282923
0.151443532 -0.01005611715 0.05317679172
0.1515259741 -0.009143421106 0.05306243958
0.150547666 -0.01071347891 0.05354061028
0.150385271 -0.008691258052 0.05310339699
0.1491657348 -0.01105437096 0.05273812564
0.150247274 -0.01099270093 0.05257863524
0.1501247331 -0.009218769508 0.0515312905
0.1493458598 -0.01144842718 0.05180652795
0.1494439445 -0.009121432608 0.05163558044
0.1481137594 -0.01039369472 0.05137553238
0.1484307199 -0.009471834394 0.05110899827
0.1501679298 -0.01045891243 0.05154699826
0.1497735934 -0.01128070196 0.05093734387
0.1497257434 -0.01089023377 0.04951317738
0.149266859 -0.01206935174 0.04984502347
0.1487421398 -0.009619300846 0.04977253532
0.1475864327 -0.01172521259 0.04957638984
0.1477421718 -0.01033668117 0.04988467306
0.1483313867 -0.009990810392 0.04826430588
0.1482649012 -0.01225399963 0.04956139619
0.1472194919 -0.01144152829 0.04912737861
0.1489710113 -0.01114188162 0.04826471908
0.1482089721 -0.01170134715 0.0477150779
0.1479171737 -0.01214588296 0.04845011056
0.1473569187 -0.01018150117 0.04810039666
0.1473592258 -0.01200568235 0.04840283213
0.1467496638 -0.01186524146 0.04818053878
0.1467646224 -0.01079440421 0.04814511387
0.1473163921 -0.01069331506 0.04684565276
0.1469175436 -0.01141655856 0.04688628106
3 2 1 0
3 1 2 3
3 0 1 4
3 4 1 3
3 4 3 5
3 6 2 0
3 2 6 7
3 8 6 0
3 2 7 3
3 3 7 9
3 4 8 0
3 10 8 4
3 10 4 5
3 5 3 9
3 13 8 10
3 6 8 11
3 11 8 13
3 25 29 28
3 14 9 12
3 5 9 14
3 5 16 10
3 16 5 14
3 17 6 11
3 17 7 6
3 7 17 12
3 18 11 13
3 18 17 11
3 33 26 23
3 12 17 21
3 20 18 13
3 14 12 21
3 13 15 22
3 16 14 21
3 15 16 23
3 19 17 18
3 17 19 21
3 20 19 18
3 13 22 25
3 23 22 15
3 16 21 23
3 23 26 22
3 19 20 27
3 25 27 20
3 19 27 24
3 27 25 28
3 24 27 34
3 21 24 23
3 25 22 29
3 23 24 30
3 22 31 29
3 22 26 31
3 25 20 13
3 26 32 31
3 32 26 33
3 15 13 10
3 33 23 30
3 21 19 24
3 27 28 34
3 24 34 30
3 28 29 31
3 9 7 12
3 32 28 31
3 28 32 35
3 34 33 30
3 33 35 32
3 33 34 35
3 35 34 28
3 10 16 15
