ply
format ascii 1.0
element vertex 36
property double x
property double y
property double z
element face 68
property list uchar int vertex_indices
end_header
0.1509070419 -0.01010697559 0.05380453782
0.1505990189 -0.00935793389 0.05414178275
0.1510704641 -0.008993805508 0.05348708792
0.1500626719 -0.008910654296 0.05365820788
0.1498570026 -0.01011234479 0.05352597485
0.1486998564 -0.009878240902 0.05234482337
0.1509667714 -0.01034973141 0.05213993956
0.1507741946 -0.009341301502 0.05200049724
0.1502191402 -0.01100249189 0.0525601038
0.1495295467 -0.008891199376 0.05218996352
0.1488027533 -0.01132680469 0.05175551213
0.1499292887 -0.01139316262 0.05149299649
0.1494206347 -0.009601533283 0.05050152837
0.149058999 -0.01190210323 0.05063522189
0.1486927943 -0.00941456264 0.05065931621
0.1476048355 -0.01059951554 0.05034624808
0.147767217 -0.009734858771 0.0500658297
0.1498227247 -0.01092220807 0.05038617587
0.1495307566 -0.01179372504 0.04967021923
0.1493008127 -0.01120405721 0.04828140126
0.148949503 -0.0125533983 0.0485633892
0.1481031878 -0.009947557135 0.0485717948
0.1470735615 -0.01200642185 0.04835172014
0.1471222267 -0.0106001166 0.04869524373
0.1476956548 -0.01013363711 0.04709455768
0.1478778237 -0.01267267871 0.04830743766
0.1465973136 -0.01162299599 0.04789454881
0.1485407375 -0.011379012 0.047082553
0.1476718734 -0.0118910734 0.0465531379
0.1474138823 -0.01239747443 0.04724769079
0.1465889006 -0.01028803628 0.04694057905
0.1467670273 -0.01218090264 0.04718775277
0.1460499385 -0.01195613793 0.04695699623
0.1459810231 -0.01088933824 0.04693593186
0.1465255518 -0.0107816871 0.0457083167
0.1461601824 -0.01148331347 0.04569882951
3 2 1 0
3 1 2 3
3 0 1 4
3 4 1 3
3 4 3 5
3 6 2 0
3 2 6 7
3 8 6 0
3 2 7 3
3 3 7 9
3 4 8 0
3 10 8 4
3 10 4 5
3 5 3 9
3 13 8 10
3 6 8 11
3 11 8 13
3 25 29 28
3 14 9 12
3 5 9 14
3 5 16 10
3 16 5 14
3 17 6 11
3 17 7 6
3 7 17 12
3 18 11 13
3 18 17 11
3 33 26 23
3 12 17 21
3 20 18 13
3 14 12 21
3 13 15 22
3 16 14 21
3 15 16 23
3 19 17 18
3 17 19 21
3 20 19 18
3 13 22 25
3 23 22 15
3 16 21 23
3 23 26 22
3 19 20 27
3 25 27 20
3 19 27 24
3 27 25 28
3 24 27 34
3 21 24 23
3 25 22 29
3 23 24 30
3 22 31 29
3 22 26 31
3 25 20 13
3 26 32 31
3 32 26 33
3 15 13 10
3 33 23 30
3 21 19 24
3 27 28 34
3 24 34 30
3 28 29 31
3 9 7 12
3 32 28 31
3 28 32 35
3 34 33 30
3 33 35 32
3 33 34 35
3 35 34 28
3 10 16 15
