ply
format ascii 1.0
element vertex 36
property double x
property double y
property double z
element face 68
property list uchar int vertex_indices
end_header
0.1513418875 -0.01022041064 0.05627704217
0.1511646811 -0.009674344887 0.05648790616
0.1515955418 -0.009440422453 0.05582354038
0.1507545365 -0.009428753483 0.05591579178
0.150456074 -0.01030006237 0.05604019376
0.1495097951 -0.0101023817 0.05503794286
0.1516387105 -0.01048101075 0.05491151234
0.15148879 -0.009780707272 0.05461897095
0.150829625 -0.01094503094 0.05542175163
0.1505042537 -0.009467326845 0.05462799981
0.1494761651 -0.01109210567 0.05469205824
0.1505923959 -0.0111599239 0.05450106907
0.1503349135 -0.009913478058 0.05336623121
0.1497179744 -0.01158929621 0.05366548448
0.1496737453 -0.009738320568 0.05346802765
0.1485095576 -0.01059341522 0.0532024514
0.1487469516 -0.009948062777 0.05291193947
0.1505692519 -0.01085713556 0.05342190465
0.1502051877 -0.01155696481 0.0527656754
0.1501721432 -0.0111473548 0.05137006771
0.1498026351 -0.01221162724 0.05167697934
0.149088248 -0.0101441043 0.05152811432
0.1481405389 -0.01178622234 0.0513578705
0.1481612566 -0.01058985923 0.05161589927
0.148811165 -0.01026690935 0.0501482881
0.1488741551 -0.01233365618 0.05137007275
0.1477644923 -0.01146886202 0.05091769955
0.1496304244 -0.01134401231 0.05027204649
0.1488689096 -0.01171698362 0.04979184914
0.1485728149 -0.01213656658 0.05040002732
0.1478049297 -0.01031121454 0.04999597757
0.1479898969 -0.01196066349 0.05033064396
0.1473685495 -0.01180119202 0.05013527232
0.1472846883 -0.01083360675 0.05003261173
0.1478744174 -0.01080004097 0.04889153839
0.1475651746 -0.01142126503 0.04896190696
3 2 1 0
3 1 2 3
3 0 1 4
3 4 1 3
3 4 3 5
3 6 2 0
3 2 6 7
3 8 6 0
3 2 7 3
3 3 7 9
3 4 8 0
3 10 8 4
3 10 4 5
3 5 3 9
3 13 8 10
3 6 8 11
3 11 8 13
3 25 29 28
3 14 9 12
3 5 9 14
3 5 16 10
3 16 5 14
3 17 6 11
3 17 7 6
3 7 17 12
3 18 11 13
3 18 17 11
3 33 26 23
3 12 17 21
3 20 18 13
3 14 12 21
3 13 15 22
3 16 14 21
3 15 16 23
3 19 17 18
3 17 19 21
3 20 19 18
3 13 22 25
3 23 22 15
3 16 21 23
3 23 26 22
3 19 20 27
3 25 27 20
3 19 27 24
3 27 25 28
3 24 27 34
3 21 24 23
3 25 22 29
3 23 24 30
3 22 31 29
3 22 26 31
3 25 20 13
3 26 32 31
3 32 26 33
3 15 13 10
3 33 23 30
3 21 19 24
3 27 28 34
3 24 34 30
3 28 29 31
3 9 7 12
3 32 28 31
3 28 32 35
3 34 33 30
3 33 35 32
3 33 34 35
3 35 34 28
3 10 16 15
