ply
format ascii 1.0
comment VTK generated PLY File
obj_info vtkPolyData points and polygons: vtk4.0
element vertex 59
property float x
property float y
property float z
element face 68
property list uchar int vertex_indices
end_header
0.107633 0.022009 0.084217 
0.107615 0.023632 0.082907 
0.100808 0.020252 0.077017 
0.099755 0.017219 0.077373 
0.094491 0.01704 0.070999 
0.094396 0.014666 0.073352 
0.077746 0 0.057221 
0.078481 0 0.059933 
0.07996 0.002639 0.060788 
0.079459 0.004147 0.057624 
0.081279 0.005817 0.061062 
0.082286 0.006455 0.059326 
0.079681 0.00177 0.064184 
0.081712 0.005052 0.064342 
0.078227 0 0.063519 
0.078177 0 0.066776 
0.079323 0.001696 0.067057 
0.078092 0 0.069552 
0.079001 0.001795 0.069938 
0.077965 0 0.072827 
0.078936 0.001615 0.073025 
0.07784 0 0.075293 
0.079068 0.001917 0.07555 
0.082959 0.006466 0.065316 
0.083932 0.008231 0.062718 
0.084388 0.008524 0.065859 
0.086754 0.010428 0.066122 
0.084487 0.008053 0.068379 
0.086641 0.009513 0.069259 
0.089067 0.012545 0.067305 
0.089218 0.011769 0.070607 
0.091341 0.013593 0.071796 
0.0911 0.014183 0.068435 
0.107633 -0.022009 0.084217 
0.100808 -0.020252 0.077017 
0.107615 -0.023632 0.082907 
0.099755 -0.017219 0.077373 
0.094491 -0.01704 0.070999 
0.094396 -0.014666 0.073352 
0.07996 -0.002639 0.060788 
0.079459 -0.004147 0.057624 
0.081279 -0.005817 0.061062 
0.082286 -0.006455 0.059326 
0.081712 -0.005052 0.064342 
0.079681 -0.00177 0.064184 
0.079323 -0.001696 0.067057 
0.079001 -0.001795 0.069938 
0.078936 -0.001615 0.073025 
0.079068 -0.001917 0.07555 
0.082959 -0.006466 0.065316 
0.083932 -0.008231 0.062718 
0.086754 -0.010428 0.066122 
0.084388 -0.008524 0.065859 
0.086641 -0.009513 0.069259 
0.084487 -0.008053 0.068379 
0.089067 -0.012545 0.067305 
0.091341 -0.013593 0.071796 
0.089218 -0.011769 0.070607 
0.0911 -0.014183 0.068435 
3 0 1 2 
3 0 2 3 
3 3 2 4 
3 3 4 5 
3 6 7 8 
3 6 8 9 
3 9 8 10 
3 9 10 11 
3 8 12 13 
3 8 13 10 
3 7 14 12 
3 7 12 8 
3 14 15 16 
3 14 16 12 
3 15 17 18 
3 15 18 16 
3 17 19 20 
3 17 20 18 
3 19 21 22 
3 19 22 20 
3 11 10 23 
3 11 23 24 
3 13 23 10 
3 24 25 26 
3 25 27 28 
3 25 28 26 
3 24 23 27 
3 24 27 25 
3 29 30 31 
3 29 31 32 
3 32 31 5 
3 32 5 4 
3 26 28 30 
3 26 30 29 
3 33 34 35 
3 33 36 34 
3 36 37 34 
3 36 38 37 
3 6 39 7 
3 6 40 39 
3 40 41 39 
3 40 42 41 
3 39 43 44 
3 39 41 43 
3 7 44 14 
3 7 39 44 
3 14 45 15 
3 14 44 45 
3 15 46 17 
3 15 45 46 
3 17 47 19 
3 17 46 47 
3 19 48 21 
3 19 47 48 
3 42 49 41 
3 42 50 49 
3 43 41 49 
3 50 51 52 
3 52 53 54 
3 52 51 53 
3 50 54 49 
3 50 52 54 
3 55 56 57 
3 55 58 56 
3 58 38 56 
3 58 37 38 
3 51 57 53 
3 51 55 57 
