ply
format ascii 1.0
comment VTK generated PLY File
obj_info vtkPolyData points and polygons: vtk4.0
element vertex 68
property float x
property float y
property float z
element face 64
property list uchar int vertex_indices
end_header
0.13077 0.026542 0.063479 
0.131975 0.024299 0.062744 
0.13069 0.024685 0.065974 
0.130483 0.027724 0.066601 
0.130373 0.025384 0.069133 
0.130145 0.028924 0.069776 
0.130084 0.026088 0.071905 
0.129831 0.0300375 0.0727207 
0.129824 0.027048 0.074262 
0.129552 0.0310084 0.0753512 
0.129591 0.027887 0.076381 
0.129302 0.0319163 0.0776906 
0.129076 0.028346 0.079404 
0.128979 0.0323768 0.0797573 
0.128362 0.028059 0.082402 
0.128724 0.0324227 0.082019 
0.12749 0.027685 0.086121 
0.128241 0.0324628 0.0845123 
0.111714 0.022344 0.086927 
0.112043 0.026089 0.084793 
0.114389 0.027679 0.085503 
0.113806 0.023602 0.08723 
0.116957 0.029313 0.086386 
0.115947 0.024453 0.087829 
0.119484 0.030911 0.086876 
0.118251 0.025552 0.0885408 
0.121438 0.032126 0.087113 
0.120268 0.026871 0.089062 
0.123176 0.0322538 0.0865896 
0.122403 0.027268 0.088622 
0.124904 0.0323259 0.085909 
0.124344 0.027656 0.087685 
0.126594 0.032394 0.085159 
0.126025 0.027948 0.086872 
0.13069 -0.024685 0.065974 
0.131975 -0.024299 0.062744 
0.13077 -0.026542 0.063479 
0.130483 -0.027724 0.066601 
0.130373 -0.025384 0.069133 
0.130145 -0.028924 0.069776 
0.130084 -0.026088 0.071905 
0.129831 -0.0300375 0.0727207 
0.129824 -0.027048 0.074262 
0.129552 -0.0310084 0.0753512 
0.129591 -0.027887 0.076381 
0.129302 -0.0319163 0.0776906 
0.129076 -0.028346 0.079404 
0.128979 -0.0323768 0.0797573 
0.128362 -0.028059 0.082402 
0.128724 -0.0324227 0.082019 
0.12749 -0.027685 0.086121 
0.128241 -0.0324628 0.0845123 
0.114389 -0.027679 0.085503 
0.112043 -0.026089 0.084793 
0.111714 -0.022344 0.086927 
0.113806 -0.023602 0.08723 
0.116957 -0.029313 0.086386 
0.115947 -0.024453 0.087829 
0.119484 -0.030911 0.086876 
0.118251 -0.025552 0.0885408 
0.121438 -0.032126 0.087113 
0.120268 -0.026871 0.089062 
0.123176 -0.0322538 0.0865896 
0.122403 -0.027268 0.088622 
0.124904 -0.0323259 0.085909 
0.124344 -0.027656 0.087685 
0.126594 -0.032394 0.085159 
0.126025 -0.027948 0.086872 
3 0 1 2 
3 0 2 3 
3 3 2 4 
3 3 4 5 
3 5 4 6 
3 5 6 7 
3 7 6 8 
3 7 8 9 
3 9 8 10 
3 9 10 11 
3 11 10 12 
3 11 12 13 
3 13 12 14 
3 13 14 15 
3 15 14 16 
3 15 16 17 
3 18 19 20 
3 18 20 21 
3 21 20 22 
3 21 22 23 
3 23 22 24 
3 23 24 25 
3 25 24 26 
3 25 26 27 
3 27 26 28 
3 27 28 29 
3 29 28 30 
3 29 30 31 
3 31 30 32 
3 31 32 33 
3 33 32 17 
3 33 17 16 
3 34 35 36 
3 37 34 36 
3 38 34 37 
3 39 38 37 
3 40 38 39 
3 41 40 39 
3 42 40 41 
3 43 42 41 
3 44 42 43 
3 45 44 43 
3 46 44 45 
3 47 46 45 
3 48 46 47 
3 49 48 47 
3 50 48 49 
3 51 50 49 
3 52 53 54 
3 55 52 54 
3 56 52 55 
3 57 56 55 
3 58 56 57 
3 59 58 57 
3 60 58 59 
3 61 60 59 
3 62 60 61 
3 63 62 61 
3 64 62 63 
3 65 64 63 
3 66 64 65 
3 67 66 65 
3 51 66 67 
3 50 51 67 
