ply
format ascii 1.0
element vertex 157
property double x
property double y
property double z
element face 310
property list uchar int vertex_indices
end_header
0.1352160543 -0.002561897603 0.06086321111
0.1352131315 -0.001608866786 0.06107924161
0.1356028694 -0.001043120473 0.06068806162
0.1351299082 -0.0008740125992 0.06090594937
0.1345067547 -0.002632710196 0.06125982917
0.1343733279 -0.001429883565 0.06108825615
0.1339489776 -0.003840080309 0.06110679956
0.1333616172 -0.00217956124 0.0609386748
0.1358609522 -0.001047040416 0.05995705042
0.135303678 -0.002080858258 0.05999268995
0.135540211 -0.0010447137 0.0596986685
0.1353409635 -0.0007552075469 0.06010641354
0.1350197491 -0.003230651506 0.06012370425
0.1344679038 -0.001234673262 0.06020649436
0.1342829855 -0.004382480277 0.06028801952
0.1335563894 -0.001613698039 0.06026691595
0.1336029579 -0.004336281753 0.06027114638
0.1329659118 -0.003331212892 0.06032641361
0.1322683772 -0.002695348285 0.06000524283
0.1325240938 -0.00209612616 0.06012201572
0.1343308387 -0.003668053077 0.05933618509
0.1339289509 -0.002149078426 0.05955487346
0.1337959474 -0.004151220867 0.05897807224
0.1332061296 -0.001991788064 0.05961468223
0.133246806 -0.004239704374 0.05880035956
0.1330619847 -0.004047771699 0.05952172482
0.1322161479 -0.002249085663 0.05952320768
0.1314678238 -0.003291031669 0.05896071213
0.1316494458 -0.002742476953 0.05912685982
0.1333894826 -0.003516059218 0.05862672873
0.1323462352 -0.002630443904 0.05874410479
0.1322234133 -0.004075349627 0.05858626484
0.1312781863 -0.002727447078 0.05813319802
0.1307672107 -0.002996020839 0.0580626947
0.1309342348 -0.003677241351 0.05836982522
0.1329565692 -0.00414776985 0.05768583478
0.1324613569 -0.003477510286 0.05750103041
0.1325859842 -0.004811054939 0.05763097001
0.1316239355 -0.002750920945 0.05754025719
0.1315562974 -0.004593889204 0.05773008298
0.1303671252 -0.004588314547 0.05743590417
0.1300325838 -0.003811134811 0.05758179267
0.1327312384 -0.005058670336 0.05633846608
0.1315542861 -0.002388139545 0.05499537194
0.1317766379 -0.005684653121 0.05690988098
0.1300065631 -0.002904928808 0.05613528339
0.1299086074 -0.004473819882 0.05690115803
0.1296423613 -0.003743510519 0.05644218172
0.1324469299 -0.005863899971 0.05609267472
0.1316793946 -0.006696343991 0.05555656098
0.1309145824 -0.005917978774 0.05593371159
0.1307824929 -0.00211807204 0.05457104054
0.1297278998 -0.004301603832 0.05617690343
0.1323300673 -0.006251289895 0.05420803502
0.1324367955 -0.003012059871 0.05450516251
0.1319342277 -0.006742152013 0.05505350661
0.1305591757 -0.005241677086 0.05486011956
0.1301918354 -0.002807812562 0.05403788148
0.1327083703 -0.00435725691 0.05434518712
0.1310169875 -0.006914095657 0.05362808228
0.1302638401 -0.002199804694 0.05408466386
0.130792301 -0.006185918941 0.05352121478
0.1309083206 -0.004141311556 0.053116389
0.1327691973 -0.003092595266 0.05328610504
0.1328957495 -0.004815818184 0.05306872368
0.1320677797 -0.002191526175 0.05335649928
0.1326692899 -0.006730935682 0.05199394604
0.1308737226 -0.001587816385 0.05328070499
0.1316038603 -0.007385005757 0.05295722582
0.1299108878 -0.001599321257 0.05293528582
0.1299656891 -0.002482134129 0.05325608998
0.1338184925 -0.005040642073 0.05092762504
0.1324892833 -0.001998151393 0.05189638601
0.1311005706 -0.001583210008 0.05210547686
0.1309921204 -0.007780456647 0.05150041673
0.1298855769 -0.001450164983 0.05226925194
0.1309048918 -0.004042245702 0.05256988567
0.1295729524 -0.002039495032 0.05256325718
0.1341524501 -0.003818526744 0.04947582798
0.1331651945 -0.002768079254 0.05149250746
0.1322656791 -0.007907123332 0.05113912244
0.1313450929 -0.008124831184 0.05122258063
0.1307959781 -0.007095904645 0.05149451059
0.1302680529 -0.003948591822 0.05107013555
0.1293949289 -0.002582164223 0.05166180322
0.1290803363 -0.001718612761 0.05129377859
0.1282559025 -0.001931630285 0.05068242893
0.1333610986 -0.002762592834 0.04967308339
0.1335494527 -0.007137028497 0.05060191671
0.1323144052 -0.001966101349 0.05024078819
0.1314686966 -0.001856957187 0.04928041921
0.1318382392 -0.008384687386 0.05049578844
0.1306031514 -0.005126418158 0.0509126577
0.1296159853 -0.001492439905 0.0506460368
0.1289560548 -0.003385393933 0.04996618193
0.1278551703 -0.002671367744 0.04978771614
0.1342863986 -0.008166001184 0.04946237517
0.1345137388 -0.006477006236 0.04963361157
0.1332340737 -0.008931425445 0.04951899143
0.1313412174 -0.008226425021 0.04988383176
0.1306938491 -0.007150692181 0.04910009871
0.1299645262 -0.004432343402 0.04990639365
0.1283878022 -0.001470475555 0.05039518776
0.1268046973 -0.00153367865 0.05026468064
0.127140762 -0.001403514223 0.05029331205
0.1351228972 -0.00705094507 0.04876579001
0.1347470136 -0.005967565362 0.04885718004
0.1340682592 -0.008755345672 0.04889935502
0.1345910649 -0.004845939485 0.04902413695
0.1339373729 -0.0037262537 0.04880067316
0.1328236471 -0.002759818533 0.0486028787
0.1329667486 -0.009211438191 0.04859750821
0.1300549312 -0.005718882524 0.04894533209
0.1277722809 -0.001320942238 0.04963492572
0.1288487661 -0.004112999296 0.04854358691
0.1261973023 -0.001779269661 0.04952410148
0.1260898955 -0.001230467109 0.04968228619
0.1353090695 -0.007217957961 0.04813200705
0.1351700107 -0.006657617288 0.04789855685
0.1346509406 -0.008250221996 0.04817123969
0.1341000595 -0.008604876243 0.04763994541
0.1328698532 -0.009014783004 0.04756813763
0.1318829606 -0.002762086686 0.04800552665
0.1315122893 -0.008222999759 0.04713693213
0.1305573393 -0.00691381277 0.04680702231
0.1302585214 -0.006665538917 0.04757754354
0.1297457181 -0.005994428276 0.04692399611
0.1277991604 -0.00155809625 0.04862427663
0.1264315972 -0.002071199637 0.04896502263
0.12637095 -0.001440040542 0.04914749304
0.1349374229 -0.007412854274 0.04748061129
0.1324920456 -0.003863169574 0.04758948592
0.1318642907 -0.00403462078 0.04727520564
0.1282579924 -0.002044253314 0.04784903041
0.1286052265 -0.003668327091 0.0475683772
0.1269425499 -0.002091741274 0.04833471151
0.1344910266 -0.007500685085 0.04717063162
0.1332857227 -0.008289720435 0.04700391026
0.1331663241 -0.008625805453 0.04708481214
0.1321931083 -0.008545454245 0.04706407046
0.1313671206 -0.007833515362 0.04695954321
0.130528713 -0.004543475934 0.04615893852
0.1300518072 -0.003312694126 0.04679644414
0.1304734683 -0.006420633169 0.04672237701
0.1299234209 -0.005698913862 0.04611466796
0.1297321533 -0.005192626772 0.04626094141
0.1288953035 -0.003051367426 0.04701392343
0.1292730921 -0.004136087875 0.04665210668
0.1302829218 -0.004775555103 0.04599235657
0.1344606218 -0.006102600674 0.04823192557
0.1338786502 -0.005146577663 0.04824602847
0.1338643467 -0.007553738323 0.04710453212
0.132931039 -0.006796310551 0.04745657432
0.1310660728 -0.006505426219 0.04685370228
0.1309725959 -0.005739952653 0.04679485178
0.1318759928 -0.007689641609 0.04699088504
0.1310138442 -0.004667736726 0.04661008022
3 1 2 3
3 1 4 0
3 5 1 3
3 133 90 122
3 4 1 5
3 7 4 5
3 14 4 6
3 85 84 77
3 9 8 1
3 2 8 11
3 147 142 148
3 11 3 2
3 0 12 9
3 3 11 13
3 14 12 4
3 3 13 5
3 55 48 49
3 13 15 5
3 14 6 16
3 7 5 15
3 17 16 6
3 84 83 76
3 18 17 7
3 15 19 7
3 18 7 19
3 10 8 9
3 142 122 141
3 10 13 11
3 12 14 20
3 12 20 9
3 9 13 10
3 21 13 9
3 22 20 14
3 15 13 21
3 16 22 14
3 22 16 24
3 23 15 21
3 24 16 25
3 84 85 86
3 16 17 25
3 23 19 15
3 19 23 26
3 17 27 25
3 27 17 18
3 18 19 26
3 27 18 28
3 26 28 18
3 101 112 92
3 29 21 20
3 21 29 30
3 23 21 30
3 25 31 24
3 30 26 23
3 25 27 31
3 26 30 28
3 28 32 27
3 34 27 33
3 156 154 148
3 35 22 24
3 35 29 22
3 36 29 35
3 35 24 37
3 30 29 36
3 24 31 37
3 38 30 36
3 39 37 31
3 30 38 32
3 39 31 34
3 34 40 39
3 33 41 34
3 40 34 41
3 42 35 37
3 73 89 90
3 43 38 36
3 37 39 44
3 39 40 44
3 45 33 32
3 51 38 43
3 40 41 46
3 45 41 33
3 45 47 41
3 46 41 47
3 37 48 42
3 49 48 44
3 44 48 37
3 32 38 51
3 97 96 105
3 45 32 51
3 40 52 50
3 40 46 52
3 47 52 46
3 53 42 48
3 53 48 55
3 27 32 33
3 50 52 56
3 120 119 107
3 4 12 0
3 58 42 53
3 58 35 42
3 35 58 54
3 9 1 0
3 49 50 59
3 50 56 59
3 57 52 47
3 45 51 60
3 56 57 62
3 45 60 57
3 56 52 57
3 79 71 78
3 58 64 63
3 63 54 58
3 64 58 53
3 65 54 63
3 54 65 43
3 66 53 68
3 43 65 67
3 6 4 7
3 68 55 59
3 43 67 51
3 153 149 152
3 59 56 61
3 67 69 51
3 61 56 62
3 137 120 138
3 112 82 92
3 57 60 70
3 63 64 79
3 63 72 65
3 66 64 53
3 67 65 73
3 74 68 59
3 67 73 75
3 50 44 40
3 57 76 62
3 75 69 67
3 57 70 76
3 70 60 77
3 69 77 60
3 79 72 63
3 71 64 66
3 68 80 66
3 68 81 80
3 74 81 68
3 74 59 82
3 82 59 61
3 34 31 27
3 76 70 84
3 84 70 77
3 85 77 75
3 73 65 72
3 76 61 62
3 78 87 79
3 66 88 71
3 80 88 66
3 72 79 89
3 72 89 73
3 91 80 81
3 82 61 92
3 76 92 61
3 83 92 76
3 75 73 93
3 94 83 84
3 28 30 32
3 93 85 75
3 94 84 95
3 84 86 95
3 96 97 88
3 88 97 71
3 98 96 88
3 20 21 9
3 98 88 80
3 80 91 98
3 129 113 127
3 11 8 10
3 99 91 81
3 100 99 74
3 74 82 100
3 73 90 93
3 100 82 112
3 68 53 55
3 83 101 92
3 94 101 83
3 85 93 102
3 1 8 2
3 74 99 81
3 102 104 86
3 104 103 86
3 106 97 105
3 78 97 106
3 78 106 108
3 109 78 108
3 107 96 98
3 54 36 35
3 109 87 78
3 110 87 109
3 89 87 110
3 89 110 90
3 91 111 98
3 111 91 99
3 139 123 140
3 123 100 124
3 93 90 113
3 101 94 114
3 113 102 93
3 103 95 86
3 113 104 102
3 115 95 103
3 104 113 116
3 116 103 104
3 115 103 116
3 117 118 105
3 96 119 117
3 105 96 117
3 105 118 106
3 119 96 107
3 107 111 120
3 98 111 107
3 121 111 123
3 90 110 122
3 99 123 111
3 60 51 69
3 100 125 124
3 112 125 100
3 125 112 126
3 112 101 126
3 59 55 49
3 101 114 126
3 127 113 90
3 114 94 128
3 95 128 94
3 115 128 95
3 116 113 129
3 100 123 99
3 115 129 128
3 129 115 116
3 7 17 6
3 117 130 118
3 119 130 117
3 119 120 130
3 155 139 140
3 120 111 121
3 131 110 109
3 110 131 122
3 131 132 122
3 127 90 133
3 126 114 134
3 128 134 114
3 134 128 135
3 135 127 133
3 127 135 129
3 128 129 135
3 136 118 130
3 130 120 136
3 137 136 120
3 75 77 69
3 121 138 120
3 138 121 139
3 89 79 87
3 139 137 138
3 137 139 155
3 139 121 123
3 132 141 122
3 123 124 140
3 47 45 57
3 124 125 143
3 143 125 126
3 126 144 143
3 126 145 144
3 122 142 133
3 102 86 85
3 147 145 126
3 126 134 147
3 146 147 134
3 135 146 134
3 135 133 146
3 142 141 148
3 144 145 148
3 147 148 145
3 146 142 147
3 29 20 22
3 50 49 44
3 118 149 106
3 106 149 108
3 108 149 150
3 79 64 71
3 71 97 78
3 133 142 146
3 108 150 109
3 109 150 131
3 118 151 149
3 152 149 151
3 150 149 153
3 154 131 150
3 131 154 132
3 136 151 118
3 151 136 137
3 155 151 137
3 152 151 155
3 153 152 155
3 43 36 54
3 150 153 154
3 132 156 141
3 155 140 153
3 156 132 154
3 140 124 153
3 143 153 124
3 143 154 153
3 156 148 141
3 144 154 143
3 148 154 144
