ply
format ascii 1.0
element vertex 36
property double x
property double y
property double z
element face 68
property list uchar int vertex_indices
end_header
0.1525655344 0.007912890504 0.05186701428
0.15235467 0.00726083127 0.05232952313
0.1527384981 0.006712930175 0.05164759427
0.1517606527 0.006763701505 0.05188457968
0.151487706 0.007956922382 0.05166813176
0.1502364099 0.007668603326 0.0506197687
0.1524077723 0.007991687615 0.05018545721
0.1522278896 0.006977882512 0.05018559558
0.1517118128 0.008764894577 0.05050059926
0.1510812746 0.006591559893 0.05049028548
0.1502903337 0.009157341022 0.04974508634
0.1513454216 0.009147976837 0.0494221931
0.1507734891 0.007333999328 0.0487054373
0.1505130006 0.009751088011 0.04849919213
0.1501086507 0.007186019657 0.04890740987
0.1490715064 0.008534392989 0.04832379512
0.1491759493 0.00760739176 0.04817837844
0.1511767583 0.008694230218 0.04830629226
0.1509317503 0.009571244194 0.0474544816
0.1505686475 0.009016351382 0.04613555184
0.1504067728 0.01039832909 0.04627262263
0.1493743584 0.007800862581 0.04657993253
0.1486308687 0.01004385225 0.04607450849
0.1485451836 0.008518690583 0.04658746099
0.1488911277 0.008041006694 0.04508853812
0.1494210532 0.0106838383 0.0459716503
0.1481193033 0.009671700698 0.04568246369
0.149810638 0.009287032299 0.04496764975
0.1490062329 0.009863420332 0.04437006584
0.1488879811 0.01044634755 0.04496736541
0.1478624779 0.008236481463 0.04492111459
0.148282221 0.01028178096 0.04494436585
0.1475837695 0.01010717196 0.04479732921
0.1473694034 0.008924207443 0.04491232206
0.1477051123 0.008746794867 0.0436538623
0.1474471052 0.009517629918 0.04362675843
3 2 0 1
3 1 3 2
3 0 4 1
3 4 3 1
3 4 5 3
3 6 0 2
3 2 7 6
3 8 0 6
3 2 3 7
3 3 9 7
3 4 0 8
3 10 4 8
3 10 5 4
3 5 9 3
3 13 10 8
3 6 11 8
3 11 13 8
3 25 28 29
3 14 12 9
3 5 14 9
3 5 10 16
3 16 14 5
3 17 11 6
3 17 6 7
3 7 12 17
3 18 13 11
3 18 11 17
3 33 23 26
3 12 21 17
3 20 13 18
3 14 21 12
3 13 22 15
3 16 21 14
3 15 23 16
3 19 18 17
3 17 21 19
3 20 18 19
3 13 25 22
3 23 15 22
3 16 23 21
3 23 22 26
3 19 27 20
3 25 20 27
3 19 24 27
3 27 28 25
3 24 34 27
3 21 23 24
3 25 29 22
3 23 30 24
3 22 29 31
3 22 31 26
3 25 13 20
3 26 31 32
3 32 33 26
3 15 10 13
3 33 30 23
3 21 24 19
3 27 34 28
3 24 30 34
3 28 31 29
3 9 12 7
3 32 31 28
3 28 35 32
3 34 30 33
3 33 32 35
3 33 35 34
3 35 28 34
3 10 15 16
