ply
format ascii 1.0
element vertex 36
property double x
property double y
property double z
element face 68
property list uchar int vertex_indices
end_header
0.1514219839 0.007829557543 0.04927111514
0.1512871964 0.007127477966 0.04978092972
0.1516493819 0.006558292946 0.04917462856
0.1507214107 0.006496030588 0.04947902647
0.1503275681 0.007710358221 0.04915183721
0.1490133274 0.007188069088 0.0482087483
0.1511542711 0.007707982805 0.04756370073
0.1510349369 0.00664055722 0.04765202316
0.1503987406 0.008417234412 0.04788962396
0.1499161058 0.006139999734 0.04812467399
0.1488542482 0.008520713826 0.04719472701
0.1500066335 0.008567730156 0.0467293374
0.1494838529 0.0066827643 0.04622147409
0.1489877143 0.008948864257 0.04583554596
0.148838695 0.006470206338 0.04648646628
0.147493326 0.007560296485 0.04589813793
0.1477033421 0.006665161999 0.0457855874
0.14981828 0.00797732662 0.04571220546
0.1494096224 0.008699018039 0.04482744491
0.1490194653 0.007948361789 0.04357720004
0.1485853891 0.009317308673 0.04362000785
0.1478139661 0.006643738069 0.04422827747
0.1466243524 0.008600856024 0.04351415704
0.1467684977 0.007220740915 0.04422139497
0.1471838925 0.006502130452 0.04262488522
0.1473874883 0.009353839782 0.04329348918
0.1462821588 0.008055342413 0.04313869692
0.1480313488 0.007836752823 0.04225544207
0.1470844008 0.008057505354 0.0416247477
0.1468687244 0.00877099521 0.04219100765
0.1461850492 0.006498898194 0.04251977509
0.146367885 0.008464853723 0.04218640434
0.1458285584 0.008151899526 0.04215153239
0.1457644105 0.007061247003 0.04249246486
0.1459851888 0.006581211484 0.04109691819
0.145776796 0.007173715727 0.0409649526
3 2 0 1
3 1 3 2
3 0 4 1
3 4 3 1
3 4 5 3
3 6 0 2
3 2 7 6
3 8 0 6
3 2 3 7
3 3 9 7
3 4 0 8
3 10 4 8
3 10 5 4
3 5 9 3
3 13 10 8
3 6 11 8
3 11 13 8
3 25 28 29
3 14 12 9
3 5 14 9
3 5 10 16
3 16 14 5
3 17 11 6
3 17 6 7
3 7 12 17
3 18 13 11
3 18 11 17
3 33 23 26
3 12 21 17
3 20 13 18
3 14 21 12
3 13 22 15
3 16 21 14
3 15 23 16
3 19 18 17
3 17 21 19
3 20 18 19
3 13 25 22
3 23 15 22
3 16 23 21
3 23 22 26
3 19 27 20
3 25 20 27
3 19 24 27
3 27 28 25
3 24 34 27
3 21 23 24
3 25 29 22
3 23 30 24
3 22 29 31
3 22 31 26
3 25 13 20
3 26 31 32
3 32 33 26
3 15 10 13
3 33 30 23
3 21 24 19
3 27 34 28
3 24 30 34
3 28 31 29
3 9 12 7
3 32 31 28
3 28 35 32
3 34 30 33
3 33 32 35
3 33 35 34
3 35 28 34
3 10 15 16
