ply
format ascii 1.0
element vertex 395
property double x
property double y
property double z
property double nx
property double ny
property double nz
element face 786
property list uchar int vertex_indices
end_header
0.157276369 0.02688792277 0.04267874923
0.6777024784 0.4693104021 -0.5660981339
0.1579947357 0.02630160801 0.04404161001
0.9181585622 0.06306965225 -0.3911611862
0.1564749232 0.02415497702 0.04177277932
0.8349328323 -0.5307740568 -0.1454856222
0.1408105796 -0.01940107342 0.05103269693
0.6330823181 0.5110586763 0.5813998692
0.1360515787 -0.01532383223 0.05239241498
0.7328724575 0.5714120701 0.3693050328
0.1367085888 -0.01732376607 0.05340174717
0.5571234377 0.2285542032 0.7983585982
0.1469771474 -0.01911179193 0.0256668252
-0.1639169977 0.01726508743 -0.9863230377
0.1488806108 -0.01776775167 0.02683646847
-0.09161082867 0.8596389827 -0.5026214037
0.1506009784 -0.01846263816 0.02495930867
-0.3081161728 0.8284205805 -0.4677432693
0.1439489902 -0.02790335598 0.04747998502
-0.318493109 -0.9434302087 -0.09220401777
0.1416307882 -0.02617756594 0.04776124455
-0.6384087398 -0.7541525568 -0.1539097204
0.1417489841 -0.02187212751 0.03820342115
-0.6391708283 -0.7380581965 -0.216172965
0.1592988376 0.02517945402 0.05760708053
0.2647993623 -0.9430102849 0.2015264259
0.1590276357 0.02572345444 0.05928280038
0.6326899105 -0.4820135633 0.6061075828
0.1577133661 0.02581280971 0.05987239035
-0.6879921012 -0.4067759903 0.6009993032
0.1540131118 -0.0261675716 0.03374257229
0.39886167 -0.9033705939 -0.1575783563
0.155592226 -0.02414395302 0.02912313417
0.6507506941 -0.7501929498 -0.1171924582
0.1546507753 -0.02449364226 0.03447816035
0.9818898683 -0.1423301504 0.1250376537
0.1497243498 -0.01987924624 0.02462008581
-0.6401871488 -0.01335942114 -0.7681028189
0.1520684817 -0.01922038525 0.02249972777
-0.7471631017 0.5745006383 -0.334209988
0.1562606508 -0.02656357429 0.05759181078
-0.8110511272 0.5822055953 0.05685695902
0.1565104404 -0.02638673084 0.0554479738
-0.3263588744 0.9451457849 -0.01375973652
0.1555525109 -0.02773995273 0.05514141123
-0.9408566373 0.1950639162 0.2770177912
0.1565548654 -0.02638913588 0.05329028439
-0.1223443959 0.9924780837 -0.004370598267
0.1580881474 -0.02662621786 0.05495331803
0.6405833981 0.7450557064 -0.1858625959
0.1565555451 -0.02653310442 0.05077960254
0.4737682116 0.8662181645 -0.1587758585
0.1549993676 -0.02278340169 0.02058586652
0.1699999171 -0.9367775025 -0.3058560757
0.1551284991 -0.02366664843 0.02545499877
0.3874409444 -0.9095281918 -0.150492468
0.1536602357 -0.02469439716 0.0278494998
-0.08707524084 -0.9658911718 -0.243869118
0.1583158633 0.02587386872 0.05675148075
-0.8454977733 -0.5275158463 0.08282842105
0.1417248395 -0.01826862067 0.04839031981
0.5767079326 0.7368393063 0.3528112769
0.1361987002 -0.01395180496 0.04886112428
0.705030449 0.6687471167 0.2360283032
0.1596835775 0.02656100292 0.05834410941
0.8884501012 0.2416269338 0.39022153
0.1238533142 0.0005732734338 0.04577906949
-0.023222751 0.1201901997 0.9924792289
0.1232337595 -0.001137143079 0.04537691107
-0.9327011165 -0.1362255704 0.3339329591
0.1242727156 -0.0009952677207 0.04619192676
-0.1256854005 0.4449268786 0.8867035879
0.146133634 0.0277573159 0.04656395026
-0.2593742894 0.956061524 -0.1366431129
0.1436194594 0.0214381874 0.03762257179
-0.5923641246 0.7654420052 -0.2514026265
0.1436652774 0.02607462607 0.04687274367
-0.590480895 0.7844022384 -0.1898563694
0.1608385342 0.02769670462 0.05519832774
0.7973546102 0.5974057362 0.08562716845
0.1601699058 0.02810864564 0.05577832004
0.3612035473 0.8967216639 0.2557777453
0.1604016166 0.02601621308 0.05690603533
0.9358588045 -0.2283448665 0.268378315
0.1341833109 -0.004623518853 0.02873317689
0.7291780514 0.6251941087 -0.2782655132
0.1316487108 -0.002252871362 0.03236960971
0.8885040278 0.3908876964 0.2403484999
0.1334654074 -0.004300012788 0.03160706435
0.7613854709 0.6351222649 0.1300456588
0.1601797629 0.02579052274 0.05415966629
0.5927831513 -0.7912843936 -0.149923794
0.1414464403 0.01511568746 0.04169018123
0.5450405003 -0.795579339 0.2645455885
0.1430096755 0.01821682881 0.04775283257
0.5302926385 -0.7539143859 0.3878180196
0.137122644 0.01430565057 0.04827637689
0.6624007648 -0.6995576213 0.2680379849
0.1538258021 -0.02685602139 0.03795140128
0.473834901 -0.8415550035 -0.2593562467
0.1544128253 -0.02469727544 0.03826483054
0.9784247103 0.2034667315 -0.03586607776
0.1589558646 0.02767980197 0.05827188473
0.06419820954 0.921863055 0.3821610886
0.1586733329 0.02770310544 0.05630144813
-0.6446495845 0.7209064315 0.2544028896
0.1569615117 0.01644925375 0.0178416653
0.6313371828 -0.7688374177 -0.1015006734
0.157390176 0.01709329205 0.02039549709
0.7634520288 -0.6363731294 0.1103188099
0.1557093471 0.0159142756 0.01703807754
-0.01354023023 -0.9946088582 -0.1028099279
0.132044281 -0.007099880739 0.02741222446
-0.7218740062 -0.3633050757 -0.5889884049
0.1331269127 -0.005672090186 0.02682676865
0.1654972458 0.2162015991 -0.9622201049
0.1359253435 -0.01088563109 0.02541542345
-0.386042979 -0.1158288653 -0.9151800327
0.1578156943 -0.02879688487 0.05300856564
0.7226924804 -0.6583674976 -0.2103991848
0.156315496 -0.02973198312 0.05377145695
-0.06191249722 -0.9738490525 0.2185974968
0.1563732617 -0.02991859408 0.0520920145
0.2360475181 -0.9696258391 -0.06408823122
0.130494291 -0.01022741025 0.05441060746
0.5043643652 0.4963754667 0.7065606719
0.1315976458 -0.01444437959 0.05547252617
-0.2669257394 -0.3244794064 0.9074490424
0.1346866417 -0.01576806149 0.05481558055
0.5038806997 -0.03421121807 0.8630954947
0.1278583648 -0.004748608846 0.0373857677
-0.7991114272 -0.5824703063 -0.1488263051
0.1318606166 -0.0100862153 0.04077258034
-0.7669467119 -0.6213238259 -0.1604663346
0.1241360199 -0.002106372441 0.04316165877
-0.8688112328 -0.4550761799 -0.1951223007
0.1484384948 -0.0172707292 0.03120056825
0.3802166496 0.9176315599 0.1157048818
0.1411025328 -0.01389507005 0.02737457445
0.5281839837 0.7281018292 -0.4369089214
0.1445601637 -0.01547908447 0.03116963585
0.5255566704 0.8501787202 -0.03140588934
0.1556063065 -0.02924847532 0.05403772106
-0.7371177273 -0.5659888886 0.3692073049
0.1578556311 -0.02884283563 0.05664542622
0.3047934213 -0.9045352361 0.2981894985
0.1563968561 -0.02841540446 0.05717779852
-0.6877621991 -0.6668382506 0.2868970286
0.1577548663 0.02694526617 0.05431920046
-0.9507822888 -0.1231105101 0.2843533746
0.1608875315 0.02678617268 0.0544082782
0.9861601058 -0.04009469161 -0.1608746763
0.1383470642 0.01567267589 0.03603136614
-0.6827061794 0.7139478955 -0.1555335175
0.1326975361 0.01044236371 0.04045224187
-0.7270775061 0.6596011686 -0.1904851661
0.1330112337 0.01362442741 0.04531843744
-0.7142823681 0.6460850886 -0.2690255691
0.1484547416 -0.01814313955 0.03538556423
0.4998828941 0.8386344617 0.2163546437
0.1535545871 -0.0233122706 0.03831017309
0.7011785389 0.6722710652 0.2374874134
0.1533339408 -0.02176463134 0.03519330037
0.6794977556 0.6810015193 0.272983023
0.1392572426 -0.02401684128 0.04996025974
-0.6280312655 -0.7512555895 0.2029575544
0.1357126279 -0.01937147462 0.04875618451
-0.7518912903 -0.6307132994 -0.1919901601
0.146497085 0.02131853084 0.04883448275
0.4831224102 -0.5711720657 0.6635926523
0.1420671031 0.01964719744 0.05022908226
0.6008755213 -0.5217507858 0.6055780093
0.157230124 -0.02583670335 0.05835565075
0.3231936094 0.9331574781 0.157362676
0.1556049393 -0.02628434683 0.06065971078
-0.6602592538 0.4762632582 0.5807159604
0.1568756654 -0.02630968851 0.06004391118
0.661901338 0.4698305521 0.5840769393
0.1564157603 0.02347507878 0.03765089407
0.9637619767 -0.2655940181 -0.02495335337
0.1566150683 0.02313066841 0.03384665297
0.9890222909 0.08666831243 0.1196808744
0.1562206198 0.02491074217 0.03299787661
0.4541375642 0.8684033975 -0.1990844342
0.1585650536 0.02560642835 0.05464254376
-0.3846195253 -0.9225851425 0.0300744991
0.1579598292 0.0285112081 0.05318587371
-0.7001817203 0.6270958342 0.3413156505
0.1349436033 0.01756972439 0.05325345613
-0.2730502351 0.7295741457 0.6270288151
0.1322772961 0.01537219107 0.05450931388
-0.2448080028 0.3823888132 0.89098139
0.1354803488 0.01651131529 0.05394796801
0.5064589715 0.04286772878 0.8611978101
0.1417925848 -0.01331110958 0.03087369258
0.6487778376 0.7600574475 -0.03741649239
0.1386145989 -0.01084123211 0.02749093011
0.6613874348 0.5321896676 -0.5285270275
0.1395495854 -0.01073575764 0.02953381366
0.7798564946 0.5918884309 -0.203695688
0.1560094016 -0.02269994352 0.02975705091
0.9886120683 0.01299829778 0.1499240562
0.1560718291 -0.02245041549 0.02703059029
0.9678844787 -0.2440744548 -0.06022704086
0.1558639813 -0.02029518412 0.02720312677
0.8433713073 0.5278871536 0.1002995069
0.1288075651 0.01250168803 0.05310458353
-0.7105336052 0.5965849359 0.3731332338
0.1277903933 0.01037314249 0.05363928248
-0.5836411721 0.355816759 0.7299023333
0.1302963246 0.01290693599 0.05397391451
-0.3283777179 0.2898634688 0.8989701017
0.1269849783 0.00748671499 0.0531195149
0.1987249433 -0.6263707432 0.7537692545
0.1288359896 0.00828418112 0.05218103352
0.6294478734 -0.6971828754 0.3431201143
0.1283697864 0.009939513403 0.05388983038
0.08772564339 -0.1558628305 0.9838754949
0.1429003969 0.01268519923 0.03054623224
0.600193553 -0.7998543127 -0.0008816614409
0.1408797296 0.01107376092 0.03162377451
0.6982079359 -0.6933341909 0.178306977
0.1532184188 -0.02227415333 0.0220170815
-0.5885913177 -0.7380395655 -0.329936146
0.1530983696 -0.02039196179 0.01696424284
-0.6430724308 -0.6139244158 -0.4577714063
0.141593031 0.01452607244 0.02445061344
0.2845715132 -0.4792276875 -0.8302769884
0.1410224596 0.01515546493 0.02413232417
-0.2155626127 0.3035994753 -0.9280948866
0.1441819529 0.01689657024 0.02522593309
-0.06258866827 0.4086091448 -0.91056094
0.1282141624 -0.0114427628 0.05393450768
-0.7458269971 -0.5332256927 0.3992648884
0.1273606234 -0.009225501867 0.05431473519
-0.6038411556 -0.284517457 0.7445976602
0.1272927218 -0.009964767571 0.05091380954
-0.8100721875 -0.5842098099 -0.04981916418
0.1503339841 -0.0219950026 0.04344555185
0.5229945411 0.8097989075 0.2658993029
0.1545521116 -0.02516510407 0.04248726527
0.8661123839 0.4704078812 -0.1690140935
0.1506138548 0.02484126091 0.04809054116
0.3818591813 -0.09211958294 0.9196181534
0.1504723146 0.02712019988 0.04755101802
0.1588930132 0.5933688174 0.7890921726
0.1473184877 0.02606732615 0.04903530482
0.2596190027 0.3969138387 0.880373431
0.1402550697 -0.01531572996 0.04207950333
0.5938547035 0.771645271 0.2278160811
0.1487955007 -0.02527767462 0.04887595059
0.3881771889 0.1114371963 0.9148225081
0.1454424237 -0.02622585232 0.04994869081
0.2358274185 -0.3702654611 0.8984925804
0.1483535252 -0.02747606815 0.04844182698
0.1229303633 -0.5643723659 0.8163160898
0.1545482785 -0.02982864884 0.05023487617
-0.4063299099 -0.8843990465 0.2296395675
0.1376624616 0.01792572768 0.05253739858
0.5431139568 -0.2249656017 0.8089608816
0.1378258351 0.01939842082 0.05244474002
-0.02680577459 0.4231845911 0.9056468695
0.1551494563 0.02053917112 0.02149104628
-0.5421499777 0.7568857259 -0.3649621893
0.1539169512 0.02178313752 0.02485125994
-0.3372933872 0.8737973955 -0.3503017022
0.1569485439 0.02094819818 0.02000460165
0.2273136123 0.9090411285 -0.3492459711
0.1556615786 -0.01941157571 0.0241584394
0.6990247733 0.6991081204 0.1503735421
0.1532047704 -0.01825284585 0.02476168042
0.1806681924 0.9835437031 0.0008878383424
0.1541499907 -0.01862142239 0.02749803011
0.4888649638 0.8611951469 0.1391185328
0.1312576818 0.01511143808 0.05172553687
-0.7101350056 0.7014215171 0.06096006272
0.1568967651 0.01981349479 0.03067210151
0.7432010106 -0.5554849335 0.3729460369
0.1578531562 0.02104160528 0.02921756638
0.9861216529 -0.06737598815 0.1517384653
0.1519119784 -0.02326676658 0.0254389942
-0.3914152344 -0.8666137885 -0.3094748064
0.1439067705 -0.02119332505 0.02904505357
-0.4444556481 -0.8413709885 -0.3074964009
0.1493344265 -0.02155110443 0.02594925307
-0.4926607181 -0.6103855692 -0.6202538784
0.127862833 0.01105206674 0.05032063499
-0.7722008302 0.6305195761 -0.07842794143
0.1547143244 0.01662059391 0.0243856545
0.1191080964 -0.9917614241 0.04714381174
0.1488892185 0.01587134516 0.02811785337
0.2500784432 -0.9632960779 -0.09757785867
0.1504102411 0.01648509932 0.02645541749
-0.1457923686 -0.8746760383 -0.4622622775
0.1263094065 0.007834210226 0.05309141547
-0.5393350168 -0.1251551938 0.8327388048
0.1258028323 0.008386546683 0.05192174027
-0.8562784298 0.4283660876 0.2885996286
0.1254476768 0.006888816394 0.05180410636
-0.8104030528 -0.2949064987 0.5062381347
0.1561753231 0.01642603205 0.02089714682
0.24447523 -0.9517679575 0.1853904449
0.154374651 0.01684783636 0.02248482629
-0.3539410335 -0.9345089312 -0.03766699137
0.1309581388 0.01121167295 0.05378620894
0.473509931 -0.4930855083 0.7298321908
0.1598205243 0.02698538373 0.05081391686
0.8943498005 -0.009158151674 -0.4472745942
0.1601395298 0.02796884421 0.05214955253
0.761956086 0.6015670146 -0.2398750714
0.1271086792 0.005897430048 0.04881144438
0.4274515746 -0.8249648028 0.3697542773
0.1253702591 0.005730641147 0.04918349405
-0.3147673001 -0.8072489344 0.499270172
0.1244234038 0.004017932578 0.04713041374
-0.5700250547 -0.3426062807 0.7467880378
0.1550332335 -0.02790687158 0.04349085707
0.6463805711 -0.536520342 -0.5425293355
0.1557802325 -0.02732003703 0.04479115389
0.9118780202 -0.1383649322 -0.3864370865
0.1458489183 0.01462668278 0.0308279368
0.4716724861 -0.8817274564 0.00904203765
0.1499284692 0.01713938036 0.03506989616
0.4471061523 -0.8570443918 0.2560683486
0.1534568216 -0.01881198505 0.01588258765
-0.1822793616 0.263701722 -0.9472252299
0.1545419953 -0.01813732768 0.01671753271
0.4832630409 0.5987254712 -0.638736756
0.1544980862 -0.01952684959 0.01640710849
0.5387224239 -0.221185237 -0.8129300344
0.15645899 0.02496721447 0.04642387177
0.0891771942 -0.9517799541 0.2935342348
0.1575982525 0.02513167669 0.04466709942
0.7518877188 -0.6576783999 -0.04608666464
0.1578445474 0.02527858274 0.04767214073
0.3859289767 -0.9212358386 0.04881961334
0.1549277627 -0.0265741883 0.0497218666
-0.2743604526 0.9078255813 0.3171420122
0.1542036276 -0.02771018573 0.05058417415
-0.7105740104 0.4571834091 0.5348531631
0.1538430787 0.01875124645 0.02160006665
-0.88729344 0.2338584542 -0.3975180182
0.1548774702 0.01846718489 0.01652157253
-0.604513637 0.6302879988 -0.4871347877
0.128898369 0.003986537985 0.04386968151
0.744950299 -0.5917142571 0.308096235
0.1294442385 0.002187175272 0.03696082388
0.8262415525 -0.4948969906 0.2690759476
0.133834559 0.004331841095 0.03148242281
0.7205979606 -0.6744615195 0.1607489904
0.1397633245 0.02184357838 0.05153948482
-0.1666182511 0.6454700588 0.7453903418
0.1400568077 0.02030533852 0.05213094407
0.4398695875 -0.009563606271 0.8980107368
0.1573133313 0.01900000564 0.01773109102
0.6006945657 0.5780557004 -0.5522840266
0.1578238221 0.0192828285 0.01995938311
0.9326624956 0.327646921 -0.1509574921
0.157658377 0.01765377386 0.0180675253
0.9432664184 -0.09675198515 -0.3176279541
0.1583022929 -0.02676126534 0.0577349361
0.9487485729 0.1819365564 0.2584090456
0.1587112605 -0.02767309883 0.05522076148
0.9864949962 -0.0288862862 -0.161224083
0.1528331001 -0.01848332785 0.02290879706
-0.2954012575 0.9518611043 -0.08184457916
0.1532038826 -0.01855805233 0.01958958207
-0.6721486539 0.7404079139 0.003508287166
0.137721069 0.02072376028 0.05095035788
-0.6094302375 0.7455314347 0.2697733595
0.1580083545 0.02665485968 0.06014558463
-0.2299114735 0.4479556484 0.8639886871
0.1388508618 -0.01593420818 0.02545477278
-0.6828188588 -0.6504975128 -0.3325829098
0.1397080639 -0.01593402984 0.02450538318
-0.2356402562 -0.3331509923 -0.9129534961
0.1412800265 -0.01857928339 0.02698151743
-0.4995285857 -0.7873313165 -0.3613593643
0.1576794588 -0.02785429924 0.0516690721
0.8923255133 -0.06793460909 -0.4462511257
0.1507921303 -0.02704500974 0.04832051079
0.04119610294 0.04911247426 0.997943308
0.1519172349 -0.02501239423 0.04718327968
0.3563569866 0.7066451152 0.6112792973
0.1403162779 -0.01527877623 0.02482841858
0.3118095435 0.4207016169 -0.8519301369
0.1426857763 -0.01777843718 0.025680449
-0.08949828184 -0.446336593 -0.8903784045
0.1457170898 0.02032347291 0.02852926258
-0.3917171703 0.8520614013 -0.3472017091
0.1503086285 0.02707528891 0.04127363532
-0.2287447376 0.9087878606 -0.3489705853
0.1409761947 0.02417066112 0.04900023806
-0.579820752 0.7975289136 0.1665999027
0.1451302392 0.02736775262 0.0484359315
-0.1894368409 0.868775982 0.4575390436
0.1512198844 0.02019828398 0.02542114281
-0.4547215203 0.6101191609 -0.6488319879
0.1565479321 0.02823267978 0.05005300217
-0.7993361668 0.3142379355 0.5121681485
0.1573280928 0.02681898061 0.05206046314
-0.8412437428 -0.4271147235 0.3314845066
0.1369193506 0.01589774657 0.05166593779
0.6964939846 -0.5979593385 0.3966620211
0.1547239156 -0.01823810685 0.02130554943
0.3035977065 0.9422877959 0.1411458196
0.1541546129 -0.01773897023 0.01746430058
0.04862491361 0.9876355271 -0.1490358462
0.1416051665 0.02190755472 0.05126021758
0.4258231693 0.1418984073 0.8936103572
0.1560560308 0.02575949759 0.03720547054
0.5248130928 0.7974056207 -0.2978514625
0.1567347655 0.0248787898 0.0389548542
0.9404609687 0.2917478536 -0.1744028563
0.1519418867 0.02107207981 0.04282069417
0.4720191858 -0.8274395251 0.304206707
0.1326495929 0.006960760601 0.02724899094
-0.6988250313 0.3796197723 -0.6062445085
0.1368538848 0.01042163862 0.02515856095
-0.379371626 0.0965652592 -0.9201914584
0.1336216902 0.005477524514 0.02667760978
0.1501262091 -0.2710223028 -0.950793896
0.140488266 0.01024567357 0.02926667017
0.7412421427 -0.6481212006 -0.1746396156
0.1363676688 -0.02025937165 0.05194879659
-0.6540550921 -0.6927200338 0.3038928945
0.1303727663 -0.01427912311 0.05253001528
-0.7522975641 -0.6522654872 0.0927259899
0.1566348361 -0.0282414096 0.05912047399
0.007071727786 -0.9053413353 0.4246257849
0.1557825677 -0.02713625415 0.06099881081
-0.256351525 -0.3922679025 0.8834080531
0.1467220247 -0.02821156852 0.04735531511
-0.02928182326 -0.9837669649 0.1770455695
0.1495023995 -0.02844780746 0.04763240732
-0.1464626356 -0.8307059937 0.5370998495
0.1568908328 0.02908622386 0.04933798964
-0.3502801203 0.9177076996 0.1873937441
0.1401976101 -0.02162801577 0.05224482111
0.4176935817 -0.1259741368 0.8998125298
0.1383953941 -0.0214206704 0.05260927461
-0.2050892381 -0.5982614935 0.7746106053
0.1412606804 -0.02422151503 0.05093560241
-0.05521596567 -0.5456275969 0.8362067463
0.1360136035 0.009546068875 0.03843008298
0.6729597535 -0.6977780505 0.2454199714
0.138771531 0.008018740991 0.02987165369
0.6940239477 -0.7188056482 0.04061034468
0.1380486205 0.01115171866 0.02487176183
0.06267419621 -0.1128145744 -0.9916374423
0.1357651633 0.006275329291 0.02710135052
0.4658625084 -0.6261023058 -0.6252743606
0.145129116 0.02289143837 0.04993772648
0.3945311438 -0.05635982025 0.9171525212
0.1429550158 0.024298129 0.04997365652
-0.02001065228 0.5867437349 0.8095253939
0.1399245057 -0.01150081912 0.03193727541
0.740227514 0.6561561596 0.1467048795
0.1243155873 0.003144831538 0.04304220954
-0.8389935156 0.4987003494 -0.2176874876
0.1331577311 0.002557769325 0.02910402746
0.892415726 -0.4288467696 -0.1403018894
0.1319051878 3.675553280e-05 0.03121143782
0.9811567847 -0.02606299553 0.1914473403
0.1323153711 -1.418203684e-05 0.0289614927
0.9708366358 -0.03578692488 -0.2370559481
0.1576130084 0.02258946711 0.02844973546
0.6959904673 0.7019581531 -0.1511688485
0.1579164951 0.02079512771 0.02644582147
0.981108321 0.1802921403 -0.07015131234
0.1371010514 0.01961102973 0.04794374528
-0.7115260123 0.6665480191 -0.2223611298
0.1286577263 -0.003201538473 0.04398973331
0.7807154155 0.5580654083 0.2811519876
0.1292898251 -0.00171662914 0.03705995111
0.8557735525 0.4547074694 0.246764552
0.1247826298 0.00629798554 0.04883655791
-0.9628053634 0.1020732879 0.2501736919
0.1261670421 0.006582587424 0.05218879078
-0.08360952616 -0.7886101463 0.6091826362
0.1267102324 -0.006309457502 0.05355866871
0.2383383423 0.6474517465 0.7238791823
0.1260280095 -0.006613623537 0.05357944075
-0.529426862 0.197336832 0.8250850699
0.1559728069 0.01783673055 0.02926923709
0.5376149102 -0.7706467448 0.342160493
0.1575037777 0.01851750399 0.02675117995
0.8090610969 -0.5740307233 0.1261303699
0.1585671838 0.02565468851 0.05247504617
-0.1839324896 -0.9820439376 0.04193499694
0.1585558062 0.02576406984 0.04997320772
0.4186887517 -0.9005320168 -0.1172254913
0.1554172889 -0.0290914882 0.0460265806
0.5432077413 -0.7563643965 -0.3644698198
0.1566808606 -0.02722128029 0.04911127108
0.9239141271 0.1667571103 -0.3443468484
0.1569564676 0.02582742228 0.04891804471
-0.3297625422 -0.873198795 0.3588600427
0.1585034043 -0.02852941199 0.05602353963
0.7587319466 -0.6411794619 0.1149553427
0.1395702263 0.01032670078 0.02720675541
0.6262356226 -0.596503923 -0.5020079829
0.1259062227 -0.00538921083 0.05258683168
-0.03371913027 0.8195943428 0.5719511636
0.1251731711 -0.005663750407 0.05222643282
-0.7898111356 0.3679951534 0.4906912849
0.1380598635 -0.008386741495 0.03006803845
0.737440404 0.6753654672 0.007945834681
0.135319659 -0.009425348653 0.03873003674
0.7154431928 0.6652628192 0.2134629223
0.1557436805 -0.02610935342 0.04841399964
0.443047141 0.8964777189 0.006077035505
0.1249139155 0.006252593909 0.04709776041
-0.861019942 0.4964688398 -0.1102875813
0.1546217624 -0.0260585489 0.03963876627
0.9201366305 -0.3577457886 -0.1592687412
0.1588792617 0.02632499553 0.04835824311
0.9111814559 -0.2401161415 -0.3348023193
0.1563338155 0.02700926873 0.04973928193
-0.736988795 -0.3863513236 0.5545991082
0.1551582962 0.02637023411 0.04792522422
-0.3151627486 -0.5010684775 0.8059794183
0.154367292 0.0281377175 0.04771774438
-0.4052654407 0.6511721212 0.6416656381
0.1560463459 0.02644578892 0.04021594476
0.4603551395 0.8150664254 -0.3517667803
0.1259921448 -0.0007764081438 0.04548484479
0.6103474736 0.3593570999 0.7059309005
0.1264720355 -0.002984801864 0.04689234927
0.5024981463 0.6794848217 0.5345989057
0.155792227 -0.01897326998 0.02081568448
0.8017455475 0.5920738675 0.0815635486
0.1542881224 -0.02895220266 0.05093023109
-0.8166201988 -0.2395581603 0.5251126915
0.1551785424 -0.02753427557 0.05289156558
-0.8126357922 0.4935864536 0.3098313769
0.1279612896 -0.008837644706 0.05449617963
0.09804196851 0.1955200493 0.9757866994
0.1358788474 -0.01269561819 0.02686020439
-0.7239637113 -0.5969476849 -0.3457311183
0.1555361632 -0.02087080347 0.01829887881
0.56282539 -0.6393186303 -0.5239267785
0.1559942059 -0.01953237185 0.018568417
0.9469250609 0.02330945996 -0.320608169
0.1560741297 -0.02109527011 0.02052995707
0.9104126996 -0.3914049871 -0.1339807913
0.1580029743 0.01914232092 0.02396344208
0.9841650367 -0.177061362 0.008273734775
0.1243545394 0.002127538298 0.04610423413
-0.1514961201 -0.3943349456 0.9063933342
0.1266759464 0.003990518015 0.04671174066
0.4603570906 -0.6836875515 0.5662531952
0.1468032764 -0.02801211043 0.04576338005
-0.1715048493 -0.9688471253 -0.1786654259
0.1246053568 -0.005110450536 0.04740778101
-0.8901723307 -0.4469286966 -0.08858872287
0.1320384436 -0.01310530568 0.04580849447
-0.7534676103 -0.6122820474 -0.2395772416
0.1381298907 -0.01390444336 0.02507190513
-0.1823786059 0.06758823493 -0.9809025816
0.1537818112 -0.02746975194 0.04098817399
0.4083500911 -0.8576113081 -0.3126548372
0.1284632385 -0.007261251666 0.05261309861
0.6719731705 0.672065836 0.3110941501
0.1296500141 -0.007176899231 0.04869582233
0.7005261192 0.6708235143 0.2434316517
0.126823176 -0.004857867808 0.04909980575
0.478316888 0.813181217 0.3315859813
0.1520616167 -0.02885868205 0.0485822789
-0.4439643795 -0.5939122399 0.6709425318
0.152467525 -0.01939392665 0.01717440773
-0.9525036145 0.02593344407 -0.3034210291
0.1529142267 -0.01826423046 0.01714474033
-0.5809011177 0.7723578995 -0.25693806
0.1552547543 -0.02144105933 0.03113398317
0.7767630974 0.5251341404 0.3476682689
0.1430977154 -0.02742472988 0.04938838262
-0.2423662981 -0.8328435118 0.4976246199
0.1517676759 0.02786053774 0.04676702157
-0.09369332904 0.8624310016 0.4974277108
0.1529150808 0.02644314048 0.04748761455
0.03949414281 -0.004465375482 0.9992098244
0.1527542381 -0.01997319055 0.0188972252
-0.9982044666 -0.008064930307 -0.05935317794
0.1520636407 -0.02038319581 0.02209820467
-0.9006599321 -0.1964645114 -0.3875737124
0.1540913007 -0.02978793975 0.04667273582
-0.009431822787 -0.9842102553 -0.1767518434
0.156312464 -0.02093277545 0.0244551494
0.9932622027 0.1158797536 0.001442026169
0.1541560128 0.01755769917 0.01673393142
-0.9526080054 0.01883713644 -0.303616782
0.1544672176 0.01818881992 0.01841588227
-0.9958342865 0.06760557318 -0.06118464186
0.1543540185 -0.01947249207 0.0296319381
0.5850036589 0.7508733137 0.3065289315
0.1458559075 -0.01743440509 0.02618975021
0.3084517058 0.6795506394 -0.6656338886
0.1424849854 -0.01582623323 0.02593557258
0.3837385183 0.5065188141 -0.7721291606
0.1474393981 -0.01705124971 0.02843587188
0.3093996671 0.9402442472 -0.1421710296
0.1577844558 0.0281201908 0.04519540623
0.5885885246 0.7032770982 -0.3987039902
0.1588030591 0.02916031849 0.05120487229
0.2958617419 0.9489885896 -0.1090251646
0.1572753855 0.0175882865 0.02375343173
0.6546131758 -0.7332369141 0.1839706984
0.1539291694 0.02637342252 0.0362121099
-0.06928763222 0.9576830467 -0.2793607097
0.1565427261 0.02893783864 0.04579002397
0.05152049799 0.973548978 -0.2225938582
0.1242535948 -0.002851607741 0.04733608036
-0.5474749488 0.411261903 0.728789975
0.1547785017 0.01683862937 0.01910858898
-0.7168492893 -0.6962361159 0.03718020125
0.1537037013 0.01763252152 0.02203644026
-0.781937184 -0.5419610042 -0.3079813473
0.1538364455 0.02423802772 0.04645021913
0.3125973632 -0.698012771 0.6442523264
0.1450123321 -0.02162159682 0.049566217
0.5186708686 0.570412277 0.6368754701
0.1489043116 0.02790998936 0.04643203063
0.03229639415 0.9908393113 0.1311274271
0.137075114 -0.0116709063 0.02513441407
0.06832692294 0.06199249239 -0.9957350865
0.1260652722 0.001772246196 0.04542984176
0.5879031671 -0.3630539938 0.7228842671
0.1233251986 0.00231725367 0.04527823859
-0.9219966267 0.2093688569 0.3257098434
0.137222444 -0.007729287545 0.0284766482
0.6777106597 0.645339809 -0.3524837482
0.1345792603 0.004502054157 0.02861646504
0.6885016405 -0.6816775134 -0.2475505175
0.1491044576 0.02769448341 0.04493358316
-0.1111591563 0.9682354553 -0.2239726437
0.1587354346 0.02899910657 0.05291866637
-0.00131545191 0.984928655 0.1729561047
0.1550730941 0.02036922451 0.03476110878
0.6362518946 -0.7083731971 0.3055993132
0.1297443847 -0.0118982609 0.05483111114
-0.3445110463 -0.2262072098 0.9111215271
0.1422867455 0.01320231691 0.02699742163
0.481360378 -0.7790845555 -0.4016459161
0.1321534006 -0.003301400022 0.02730584334
0.5885220081 0.2623684155 -0.7647252189
0.1329229695 -0.002599858216 0.02919545471
0.917151496 0.3654849185 -0.1589147811
0.1280214434 0.0003218581229 0.03896907944
0.9727249132 -0.02479750695 0.2306324496
0.1270825625 0.0004366568857 0.04374160015
0.8969851015 -0.2072746958 0.390454771
0.1270825625 0.0004366568857 0.04374160015
0 0 0
0.1300890813 0.008036761796 0.04834263232
0.6578489566 -0.7009413861 0.2755284443
0.1435464615 -0.02292456881 0.05082814167
0.3985882226 0.07456067166 0.9140941609
0.1369322053 0.01220891555 0.02654599933
-0.68593825 0.6239881306 -0.374336119
0.1393054515 0.01325002936 0.02473369798
-0.1875613527 -0.101945297 -0.9769482563
0.155472922 -0.01829940009 0.01830499778
0.6779637279 0.722231235 -0.1369205127
0.1558232667 -0.02261575564 0.02334272648
0.797169732 -0.5415026809 -0.267011732
0.1557206486 0.01699127748 0.0271093363
0.4345399209 -0.8824795088 0.1800138152
0.1498823982 0.01616027614 0.03088943127
0.322606827 -0.9330853952 0.158985787
0.1555773392 0.01855619799 0.01582072747
-0.06329331742 0.6121574071 -0.7881987471
0.1561634312 0.0176933774 0.01587826934
0.5500793436 0.1492631209 -0.8216649174
0.1551012936 0.01703205004 0.01538088277
-0.199966594 -0.2960119722 -0.9340183476
0.1283042369 0.005271510158 0.03719853863
-0.7615866326 0.6234129702 -0.177036916
0.1258654755 0.002046942611 0.03717060168
-0.9072795472 0.3305129925 -0.2600095866
0.1243243373 0.0004669810536 0.04038710825
-0.9606500402 0.02358400098 -0.2767585502
0.1318471342 0.00239338875 0.03226373214
0.8628088558 -0.4337138997 0.2597174072
0.1428333033 0.01778335373 0.02651000371
-0.4501005019 0.7991243249 -0.3985095376
0.133968847 -0.01688149466 0.05423610236
-0.3171510541 -0.6811378253 0.6598988346
0.1351905409 -0.006561889629 0.02727112492
0.5027800804 0.5659264227 -0.6534060566
0.1530151719 -0.02712125571 0.04874312145
-0.2821377442 0.5571057902 0.7810450895
0.1370600008 -0.01589545841 0.03647328217
-0.7260015129 -0.6766127546 -0.122951143
0.1560834013 0.01634744289 0.01621560087
0.4444727113 -0.6565861671 -0.6093755936
0.1480329912 -0.02762795633 0.0420758025
-0.2853156416 -0.9081306953 -0.3064206665
0.1555580872 -0.02608559917 0.04541138169
0.791211721 0.6068142373 -0.07589791828
0.1514237493 0.0184605451 0.02413398209
-0.6393460584 0.01731710129 -0.7687240959
0.1486155837 0.01789572315 0.02519365136
-0.1661026823 -0.05316660095 -0.9846741651
0.1515239334 -0.0272955721 0.03696610391
-0.129174416 -0.9635397511 -0.2343184122
0.1544021463 -0.02581327982 0.04717504152
0.1486337868 0.9571065062 0.2487069224
0.1554306339 0.02211638026 0.03777339683
0.6581553615 -0.7028865376 0.2697814586
0.1558238348 0.02331060337 0.02714140696
-0.02723324383 0.9569714363 -0.2889014026
0.1571692796 0.02214049024 0.02477157698
0.4429466942 0.8756732325 -0.1923398451
0.1388844349 -0.01982462479 0.05309011881
0.4409940671 0.02410955719 0.8971861357
0.1310848137 0.006530345322 0.03019404452
-0.8042457411 0.5423773899 -0.2429311733
0.1378863115 0.007354264238 0.0282926008
0.6357700173 -0.7020183776 -0.3208842199
0.157502916 -0.02720825705 0.05916013635
0.8723138743 -0.2780047531 0.4022211604
0.1538175705 -0.02048012593 0.01629514094
-0.1023475129 -0.6433291331 -0.7587177427
0.1254505248 -0.007159584501 0.05244430877
-0.8808808153 -0.3603663246 0.3068959129
0.128800661 0.0001047396193 0.02925490818
-0.8819393529 0.01642835559 -0.4710765192
0.131818926 0.004189405399 0.02668739231
-0.326953858 0.05158502255 -0.9436313688
0.1303837632 -0.001759505166 0.02712645892
-0.5206243745 -0.2587078338 -0.8136464327
0.1314304938 -0.004261337737 0.0268055784
-0.3306436605 -0.07514615657 -0.9407591748
0.1278211792 0.002521402493 0.03139683807
-0.8700890071 0.4453381768 -0.2112321662
0.1367421832 -0.0188068802 0.05341899949
-0.05158242855 -0.3775385466 0.924556055
0.1545549906 0.01651252881 0.0166754265
-0.6282378459 -0.7459287507 -0.2211504191
0.1238533142 0.0005732734338 0.04577906949
0 0 0
0.1238544262 0.0005732364491 0.04577902964
0 0 0
0.1238533142 0.0005732734338 0.04577906949
-0.02914835847 -0.07200496639 0.9969782636
0.1401808185 0.01521539819 0.02506251793
-0.6416889153 0.675571504 -0.3630956884
0.1324523154 0.003228449575 0.0271890981
0.5697198624 -0.333836279 -0.7509811031
0.1473641923 0.01632903264 0.02578216282
0.264315109 -0.7274847261 -0.6331694058
0.1521351548 0.0170060953 0.02453450259
-0.3597680502 -0.8286177357 -0.4289051156
0.1577175442 0.02093717368 0.02271810923
0.828886064 0.4776425183 -0.2912138692
0.1305484343 0.001780453482 0.02705973789
-0.5047337528 0.2523791034 -0.8255595842
0.1256992724 -0.001333789234 0.03722193334
-0.9264778781 -0.285162523 -0.2456034951
0.1305310834 -0.006446036537 0.0303966672
-0.8367580556 -0.5020838839 -0.2185125394
0.1270825625 0.0004366568857 0.04374160015
0.8857061169 0.3002395471 0.354091639
0.1438324273 0.01499052711 0.02554619445
0.3504282923 -0.565054145 -0.7469362926
0.1264208788 0.0002722643851 0.03323101338
-0.9667188096 0.02416075212 -0.2546978626
0.1306113268 6.354287817e-07 0.02669145312
-0.2909106298 -0.01335746073 -0.9566569833
0.1315850012 -2.260030054e-05 0.02707158524
0.5612333823 -0.03685156036 -0.8268367753
0.1245017489 -0.005117900559 0.04917231403
-0.9669685816 -0.03069166279 0.2530410717
0.1251149617 -0.00457998875 0.04948912547
-0.2626167832 0.8479989391 0.4603587997
0.1257439914 0.0003726696895 0.03723221946
-0.9632682335 0.02385146249 -0.2674797527
0.122840114 0.000580747872 0.0440516695
-0.9988921644 0.03024651593 -0.03604985797
0.1238533142 0.0005732734338 0.04577906949
-0.6165773705 0.03740582071 0.7864052077
0.1232963092 0.0005854496641 0.04533634136
-0.7989921472 0.03866938708 0.6000968482
0.1270826364 0.000435598797 0.04374267474
-0.3845897036 0.9001699584 -0.2044133214
0.1260425729 0.0004973462353 0.04548344876
0.6322278037 -0.00153301667 0.7747810362
0.1275858219 -0.00216540593 0.03147813897
-0.8964057922 -0.3997641305 -0.1914296103
3 0 1 2
3 3 4 5
3 6 7 8
3 9 10 11
3 12 13 14
3 15 16 17
3 18 8 19
3 20 21 22
3 23 24 25
3 26 27 28
3 12 14 29
3 3 30 31
3 13 12 32
3 33 34 35
3 36 37 38
3 39 40 41
3 42 43 44
3 12 45 41
3 46 47 48
3 49 15 50
3 14 51 52
3 53 54 55
3 56 57 58
3 59 60 61
3 62 63 64
3 65 66 67
3 68 69 70
3 71 72 73
3 74 29 52
3 52 51 40
3 39 41 75
3 45 75 41
3 76 77 78
3 79 80 81
3 10 82 83
3 47 84 85
3 86 87 88
3 89 90 91
3 29 74 92
3 74 52 93
3 94 95 96
3 97 98 99
3 100 101 102
3 103 104 105
3 106 107 108
3 106 108 104
3 109 46 110
3 26 111 112
3 113 114 115
3 116 117 118
3 50 119 120
3 121 122 123
3 12 92 45
3 119 124 30
3 125 126 127
3 128 60 71
3 94 96 129
3 130 94 129
3 131 132 133
3 134 135 136
3 137 103 105
3 138 139 90
3 140 141 142
3 103 143 104
3 144 145 146
3 147 104 148
3 148 149 147
3 55 150 151
3 105 104 152
3 75 153 154
3 155 156 157
3 154 39 75
3 158 120 159
3 109 160 161
3 162 163 164
3 165 166 167
3 168 169 23
3 170 131 171
3 172 173 174
3 175 130 176
3 129 176 130
3 177 178 179
3 24 180 181
3 19 182 183
3 175 184 130
3 14 13 185
3 186 187 188
3 181 59 189
3 106 147 149
3 155 107 106
3 190 191 125
3 192 193 187
3 194 37 195
3 38 196 197
3 132 198 194
3 199 200 93
3 48 85 201
3 182 135 202
3 45 153 75
3 163 162 203
3 204 175 176
3 89 205 206
3 89 2 207
3 208 209 210
3 74 93 200
3 110 211 109
3 212 213 83
3 87 214 215
3 137 143 103
3 6 8 18
3 107 152 108
3 127 216 217
3 152 96 95
3 199 93 218
3 219 220 221
3 23 25 168
3 46 222 223
3 86 20 87
3 209 224 225
3 85 204 176
3 204 226 227
3 97 228 124
3 78 77 229
3 230 231 232
3 233 139 234
3 184 196 235
3 236 44 237
3 238 156 149
3 156 239 149
3 148 238 149
3 117 240 241
3 138 242 243
3 244 245 45
3 59 246 247
3 86 24 21
3 244 248 245
3 60 249 72
3 225 224 250
3 197 196 227
3 143 137 235
3 251 252 240
3 124 253 254
3 247 255 25
3 148 256 238
3 120 257 50
3 118 83 213
3 258 153 245
3 248 259 260
3 199 218 261
3 206 205 262
3 142 141 188
3 236 263 264
3 202 265 203
3 204 85 84
3 266 71 267
3 240 117 268
3 188 269 186
3 38 235 196
3 270 271 272
3 273 178 133
3 256 148 143
3 2 89 206
3 274 275 157
3 217 216 276
3 157 156 238
3 277 67 278
3 192 279 69
3 267 21 23
3 120 280 257
3 281 282 283
3 217 284 190
3 162 285 286
3 287 17 100
3 288 216 127
3 289 290 261
3 260 261 290
3 289 122 290
3 122 121 290
3 19 291 292
3 70 69 97
3 123 122 197
3 128 284 293
3 294 136 102
3 36 38 197
3 171 295 296
3 92 244 45
3 297 102 136
3 253 44 254
3 298 299 300
3 246 59 61
3 282 281 62
3 153 258 154
3 1 258 167
3 166 1 167
3 154 258 301
3 301 302 154
3 54 303 144
3 195 304 132
3 301 305 302
3 136 68 297
3 264 306 283
3 247 246 159
3 260 165 248
3 258 1 301
3 307 308 296
3 290 309 260
3 191 119 310
3 122 289 311
3 197 122 311
3 26 28 140
3 269 312 279
3 172 275 313
3 313 275 274
3 128 293 61
3 221 220 82
3 256 314 157
3 314 274 157
3 99 315 253
3 210 225 316
3 7 298 300
3 317 289 261
3 289 317 311
3 279 186 269
3 36 311 317
3 60 72 71
3 218 93 318
3 138 319 161
3 84 309 121
3 320 213 63
3 94 137 95
3 117 62 268
3 160 109 321
3 223 222 174
3 42 322 323
3 324 325 326
3 48 327 172
3 318 40 39
3 313 325 172
3 258 245 167
3 225 210 209
3 133 171 131
3 328 310 219
3 12 41 32
3 109 211 250
3 329 330 224
3 224 330 250
3 50 257 49
3 151 150 144
3 59 249 60
3 331 271 163
3 96 201 129
3 195 36 317
3 297 79 287
3 27 26 332
3 278 67 66
3 312 98 279
3 87 73 214
3 166 2 1
3 207 2 166
3 144 333 334
3 305 262 195
3 279 192 187
3 335 336 337
3 37 36 195
3 54 179 178
3 20 86 21
3 229 338 339
3 340 229 339
3 316 174 341
3 292 142 18
3 2 206 262
3 305 0 262
3 37 342 76
3 29 14 52
3 301 0 305
3 302 218 318
3 287 81 17
3 116 320 117
3 231 230 341
3 64 5 4
3 338 229 77
3 228 99 253
3 0 2 262
3 187 186 279
3 50 81 80
3 184 235 137
3 48 222 46
3 93 52 40
3 341 174 173
3 78 235 38
3 29 92 12
3 73 72 214
3 265 135 134
3 264 282 236
3 161 160 334
3 343 64 63
3 57 42 344
3 79 68 70
3 123 197 227
3 14 185 51
3 345 190 284
3 86 180 24
3 157 238 256
3 66 269 346
3 347 55 337
3 205 304 195
3 80 79 119
3 82 220 212
3 188 6 142
3 248 167 245
3 280 348 49
3 22 71 73
3 270 272 26
3 335 177 336
3 41 40 51
3 280 158 293
3 349 159 120
3 350 351 198
3 134 136 294
3 91 304 205
3 48 172 222
3 281 268 62
3 119 349 120
3 293 276 348
3 348 140 352
3 277 306 34
3 334 160 321
3 327 152 107
3 30 3 310
3 353 255 349
3 43 237 44
3 161 319 354
3 305 195 317
3 185 13 32
3 213 116 118
3 133 355 356
3 286 285 183
3 172 324 173
3 34 67 277
3 171 337 295
3 240 268 281
3 98 315 99
3 260 259 199
3 91 90 233
3 45 245 153
3 58 344 312
3 5 357 3
3 11 10 278
3 338 358 339
3 211 223 359
3 161 334 242
3 215 360 88
3 174 316 359
3 112 361 26
3 135 68 136
3 241 362 117
3 345 353 191
3 17 81 50
3 275 172 327
3 292 112 111
3 356 233 234
3 22 267 71
3 193 299 6
3 304 91 355
3 121 226 84
3 363 208 364
3 365 322 366
3 287 79 81
3 90 139 233
3 240 252 241
3 91 233 355
3 314 256 229
3 333 242 334
3 200 244 92
3 363 367 358
3 44 315 42
3 11 188 141
3 104 108 152
3 193 6 188
3 220 368 212
3 58 312 269
3 286 203 162
3 95 105 152
3 24 189 25
3 337 369 295
3 213 320 116
3 370 371 372
3 362 241 252
3 271 270 164
3 246 61 293
3 168 25 255
3 208 358 329
3 89 354 319
3 283 240 281
3 342 373 329
3 214 360 215
3 124 31 30
3 316 225 359
3 374 210 316
3 316 230 374
3 270 26 361
3 374 230 232
3 353 349 191
3 8 182 19
3 139 243 234
3 35 263 33
3 227 196 175
3 146 145 375
3 198 342 194
3 126 288 127
3 360 214 180
3 209 208 329
3 374 364 210
3 63 62 320
3 350 308 376
3 234 273 377
3 377 356 234
3 154 302 318
3 345 168 353
3 219 310 3
3 285 291 183
3 115 114 342
3 196 184 175
3 378 364 374
3 263 35 264
3 57 56 366
3 343 5 64
3 210 364 208
3 9 288 10
3 376 151 144
3 65 379 380
3 54 178 273
3 146 376 144
3 263 236 381
3 231 173 324
3 351 350 376
3 351 376 146
3 284 266 345
3 361 164 270
3 115 351 382
3 344 98 312
3 382 321 113
3 244 200 259
3 114 330 373
3 330 329 373
3 328 221 126
3 257 280 49
3 217 190 127
3 131 198 132
3 170 198 131
3 373 342 114
3 350 170 308
3 202 135 265
3 277 278 118
3 330 114 113
3 113 321 330
3 209 329 224
3 356 377 133
3 145 321 382
3 293 348 280
3 303 333 144
3 308 307 151
3 54 53 179
3 150 55 54
3 219 357 220
3 369 307 295
3 308 170 296
3 295 307 296
3 177 133 178
3 177 335 133
3 9 276 216
3 171 133 335
3 53 347 179
3 85 48 47
3 179 336 177
3 336 179 347
3 358 367 383
3 79 124 119
3 332 26 294
3 337 171 335
3 369 337 55
3 322 57 366
3 378 384 363
3 346 269 188
3 184 94 130
3 111 140 142
3 69 98 97
3 143 148 104
3 18 19 292
3 273 243 333
3 384 378 385
3 362 386 277
3 378 374 385
3 67 379 65
3 11 348 9
3 49 348 352
3 56 269 380
3 183 203 286
3 140 348 141
3 126 221 288
3 16 101 100
3 87 215 88
3 220 357 368
3 353 168 255
3 324 172 325
3 228 97 99
3 3 357 219
3 168 345 169
3 31 236 282
3 307 369 55
3 338 329 358
3 156 155 239
3 284 276 293
3 155 106 239
3 115 342 351
3 138 90 319
3 22 73 20
3 306 386 387
3 354 207 161
3 189 59 247
3 15 49 352
3 98 69 279
3 170 350 198
3 265 271 331
3 101 332 294
3 287 102 297
3 76 342 329
3 97 79 70
3 327 48 152
3 42 315 344
3 337 336 347
3 165 309 166
3 50 15 17
3 266 128 71
3 329 338 77
3 234 243 273
3 152 201 96
3 387 251 283
3 7 135 8
3 306 277 386
3 31 4 3
3 18 142 6
3 104 147 106
3 47 207 84
3 0 301 1
3 376 308 151
3 180 214 72
3 207 47 46
3 226 121 123
3 283 306 387
3 322 42 57
3 107 155 327
3 118 117 362
3 34 306 35
3 31 124 254
3 218 305 261
3 133 132 355
3 260 309 165
3 331 203 265
3 235 78 143
3 111 26 140
3 110 223 211
3 85 129 201
3 309 84 207
3 200 199 259
3 5 368 357
3 242 333 243
3 129 85 176
3 207 166 309
3 310 125 191
3 249 181 180
3 382 351 375
3 276 284 217
3 250 330 321
3 27 101 16
3 212 368 343
3 233 356 355
3 218 302 305
3 212 83 82
3 53 55 347
3 86 360 180
3 290 121 309
3 37 194 342
3 256 143 78
3 77 76 329
3 165 167 248
3 36 197 311
3 345 266 169
3 363 383 367
3 299 298 6
3 274 372 313
3 374 232 385
3 341 173 231
3 112 291 285
3 119 191 349
3 300 68 135
3 349 255 159
3 11 346 188
3 112 285 162
3 266 284 128
3 247 25 189
3 164 163 271
3 267 169 266
3 9 216 288
3 158 280 120
3 340 339 388
3 11 278 346
3 162 361 112
3 386 252 387
3 219 221 328
3 228 253 124
3 124 79 97
3 361 162 164
3 344 58 57
3 8 135 182
3 159 255 247
3 387 252 251
3 203 182 202
3 30 310 119
3 293 158 246
3 80 119 50
3 300 69 68
3 65 380 269
3 37 76 78
3 205 89 91
3 382 113 115
3 346 278 66
3 307 55 151
3 275 155 157
3 46 109 161
3 343 63 213
3 296 170 171
3 222 172 174
3 239 106 149
3 105 95 137
3 183 291 19
3 132 194 195
3 354 89 207
3 320 62 117
3 83 118 278
3 110 46 223
3 256 78 229
3 139 138 243
3 135 7 300
3 359 225 250
3 31 254 236
3 226 204 84
3 377 273 133
3 58 269 56
3 291 112 292
3 150 54 144
3 375 351 146
3 125 310 328
3 242 138 161
3 62 64 4
3 154 318 39
3 321 109 250
3 145 144 334
3 79 297 68
3 10 288 82
3 230 316 341
3 59 181 249
3 299 193 192
3 141 348 11
3 94 184 137
3 318 93 40
3 37 78 38
3 226 123 227
3 269 66 65
3 262 205 195
3 299 192 69
3 249 180 72
3 32 41 51
3 298 7 6
3 368 5 343
3 145 334 321
3 261 305 317
3 51 185 32
3 261 260 199
3 300 299 69
3 342 198 351
3 250 211 359
3 161 207 46
3 223 174 359
3 294 26 272
3 292 111 142
3 155 275 327
3 132 304 355
3 378 363 364
3 74 200 92
3 208 363 358
3 315 98 344
3 90 89 319
3 48 201 152
3 190 345 191
3 204 227 175
3 277 118 362
3 303 54 273
3 248 244 259
3 375 145 382
3 339 358 383
3 340 389 229
3 303 273 333
3 389 314 229
3 127 190 125
3 348 276 9
3 193 188 187
3 100 102 287
3 323 43 42
3 61 60 128
3 278 10 83
3 372 274 314
3 16 28 27
3 101 294 102
3 20 73 87
3 283 251 240
3 390 372 314
3 15 28 16
3 352 28 15
3 134 294 265
3 140 28 352
3 392 326 325
3 283 282 264
3 288 221 82
3 328 126 125
3 23 169 267
3 282 62 31
3 183 182 203
3 254 44 236
3 265 294 272
3 158 159 246
3 35 306 264
3 24 181 189
3 253 315 44
3 332 101 27
3 343 213 212
3 331 163 203
3 17 16 100
3 88 360 86
3 21 24 23
3 362 252 386
3 31 62 4
3 372 390 370
3 372 371 393
3 393 392 325
3 22 21 267
3 265 272 271
3 314 389 391
3 339 383 388
3 56 380 363
3 340 388 379
3 379 383 380
3 340 379 67
3 340 67 389
3 236 237 324
3 231 43 323
3 43 231 237
3 324 326 381
3 380 383 394
3 365 363 384
3 323 232 231
3 324 381 236
3 363 366 56
3 370 33 371
3 392 381 326
3 231 324 237
3 322 385 232
3 363 380 394
3 384 385 365
3 363 394 383
3 33 370 390
3 322 232 323
3 365 385 322
3 390 391 34
3 365 366 363
3 389 67 34
3 393 371 33
3 381 392 393
3 34 391 389
3 379 388 383
3 391 390 314
3 313 372 393
3 313 393 325
3 33 390 34
3 263 393 33
3 263 381 393
