ply
format ascii 1.0
element vertex 395
property double x
property double y
property double z
property double nx
property double ny
property double nz
element face 786
property list uchar int vertex_indices
end_header
0.148739555 0.02492756433 0.03951396094
0.6559101841 0.4626199383 -0.5964600767
0.1500050818 0.02435003561 0.04094232908
0.9049891778 0.06187595648 -0.4209108623
0.1500018179 0.02227218814 0.03836228054
0.8342807344 -0.5273925453 -0.1607257273
0.1416480106 -0.02146729279 0.0514113112
0.646709253 0.5276380761 0.5507859863
0.1365234803 -0.01761003716 0.05287629956
0.7393524645 0.5843591746 0.3344880989
0.1374443096 -0.01944212923 0.05394912999
0.5798408058 0.2490975929 0.7757158173
0.1436452 -0.02240525607 0.02472776102
-0.1946882376 -0.004262751394 -0.9808559115
0.146213244 -0.02094996616 0.02563852423
-0.1141981845 0.8484041181 -0.5168841524
0.1473133299 -0.02166456665 0.02334403962
-0.3292516379 0.8162907474 -0.474618557
0.1379105215 -0.0286111078 0.04708667191
-0.313536692 -0.9474848327 -0.06298598708
0.1375134986 -0.02739639371 0.04792509377
-0.6367455989 -0.7619164261 -0.1184837618
0.1395951285 -0.02434992293 0.03814339562
-0.6395770085 -0.7471129117 -0.1810070369
0.1542465194 0.02266265251 0.05561762535
0.2785975155 -0.9366554758 0.2122732765
0.153973108 0.0231209196 0.05756469924
0.6551525328 -0.4646905469 0.5956826793
0.1528118308 0.02335445848 0.05808632581
-0.6656155135 -0.3994593078 0.6303873805
0.1484316953 -0.0286999342 0.03107999809
0.4010852232 -0.9034118855 -0.1515836695
0.1511219001 -0.02717784385 0.02597074888
0.6528572972 -0.7475549043 -0.1222252616
0.150709963 -0.02728763472 0.03198607951
0.9864311754 -0.1323750763 0.0971101198
0.1458073018 -0.02304749673 0.02308347522
-0.6636671454 -0.03395338681 -0.7472570426
0.1471370151 -0.02251236633 0.0200046485
-0.7618502391 0.5618940431 -0.3222720863
0.1515951426 -0.02732171299 0.0562857927
-0.8135892039 0.5771666237 0.07036544504
0.1515570972 -0.02729454033 0.05389746443
-0.3342950818 0.9421937463 -0.02275395775
0.1495219737 -0.02863695127 0.05373707762
-0.9333267716 0.1936769622 0.3023084049
0.1512439271 -0.02755107647 0.05154338292
-0.1304783409 0.99123463 -0.02071981932
0.1524481939 -0.0278518963 0.05329054364
0.6284118807 0.7458460272 -0.220934859
0.1509534088 -0.02806751036 0.04875573041
0.461542521 0.8662884965 -0.1911092413
0.1471038414 -0.02656566321 0.01615025854
0.1679957263 -0.9415747776 -0.2919150117
0.1494381784 -0.02705125686 0.02198207277
0.3899410955 -0.9095076558 -0.1440200197
0.1480730124 -0.02741049007 0.02501712687
-0.08677940109 -0.9713296608 -0.221332387
0.1527750909 0.02325092147 0.05450727852
-0.8381957052 -0.5320120678 0.1199629925
0.1422431905 -0.02056761088 0.04856000651
0.5814115399 0.7482386907 0.3195300971
0.1362301559 -0.01657154885 0.04911793952
0.7065838101 0.6787198963 0.2001964578
0.1540234278 0.02371206021 0.05653657879
0.8981795101 0.2562477875 0.3572263136
0.1221292161 -0.003176590289 0.04599060919
0.006720693256 0.1404113275 0.9900704477
0.1217302489 -0.005116409871 0.04567621014
-0.9207121964 -0.1363008327 0.3656653312
0.1227313392 -0.004767237146 0.04648712857
-0.1016205385 0.4621266741 0.8809723056
0.1384454606 0.02488031965 0.04451823914
-0.271260673 0.9510793846 -0.1478703872
0.1383777514 0.01854982481 0.03532058331
-0.6061035628 0.7556521002 -0.2482506288
0.1373817869 0.02372595813 0.04485296175
-0.6024586455 0.7758884097 -0.1871917629
0.1536830315 0.02471202538 0.05309687575
0.7947558324 0.6049914893 0.04846096064
0.1529459387 0.02498730573 0.05368226006
0.3616983743 0.9044732071 0.2260586287
0.1547232378 0.02326342685 0.05493927633
0.9455864881 -0.2157639019 0.2435408225
0.1312055151 -0.008030012251 0.02920092582
0.715056595 0.6247746433 -0.3136091692
0.1290832118 -0.005994244604 0.03324903738
0.8923537436 0.4023890042 0.2044208539
0.1309259351 -0.007810167516 0.03221928515
0.7598822546 0.6433438696 0.09320742756
0.1541895452 0.02311698118 0.05193276101
0.5942342263 -0.789743851 -0.152283729
0.1383260814 0.01283882161 0.03978280501
0.5594585343 -0.7858658866 0.2634785696
0.1403278349 0.01645906649 0.04569198375
0.5482188278 -0.7417845261 0.3862794762
0.1347011783 0.01186224381 0.04681913916
0.6760868445 -0.6889170712 0.2613423955
0.147876219 -0.02933171729 0.03555261238
0.4723479793 -0.8431444987 -0.2568944157
0.1506243826 -0.02727589006 0.03606513351
0.9751483037 0.2100018071 -0.07060472195
0.1527969046 0.02458912994 0.05644462204
0.0685784981 0.9299867437 0.3611393722
0.1518617772 0.02463256587 0.05407251155
-0.6422484877 0.7211446493 0.2597446339
0.1488268846 0.01479104981 0.01263440425
0.6340939499 -0.7660172674 -0.1055576084
0.1499231336 0.01533664455 0.01552888917
0.7716608908 -0.6282371467 0.099285231
0.1473378123 0.01401799571 0.01217741855
-0.008656385986 -0.9965873848 -0.08208928917
0.1290069203 -0.0104445297 0.02809744271
-0.7368913661 -0.3807405251 -0.5585944567
0.129897012 -0.008970266686 0.02733030072
0.1336901461 0.1975871981 -0.971126276
0.1324001232 -0.01462255151 0.02579143696
-0.4134025967 -0.1375230311 -0.9001031657
0.1501916133 -0.0305416309 0.0512412221
0.7211133512 -0.6571311549 -0.2194861725
0.1483043912 -0.03126790569 0.05230348328
-0.04716299155 -0.9695804635 0.2401861302
0.1481860408 -0.03179149624 0.05037351694
0.2418050143 -0.9689457599 -0.05171507879
0.1303282308 -0.01308844837 0.05480835781
0.5220749797 0.5145707621 0.6801872142
0.1317790798 -0.01716981736 0.05586153933
-0.2358923031 -0.3077251787 0.9217700558
0.1352327538 -0.01814187037 0.05530775636
0.5307759376 -0.01267107394 0.8474174579
0.1260689248 -0.008763816663 0.03806529973
-0.7986011874 -0.5913733306 -0.1118647724
0.1307639043 -0.01340160222 0.04145038778
-0.766500046 -0.6302163676 -0.1237134166
0.1228936431 -0.00623441836 0.04353678091
-0.8707413639 -0.4654840416 -0.1585373274
0.1466865101 -0.02023096741 0.03004237352
0.376169663 0.9226378831 0.0850630428
0.1382048687 -0.01760445614 0.02719125844
0.5083903507 0.7228889309 -0.4679432069
0.1425989944 -0.0185609844 0.03056909975
0.5174009654 0.8532615335 -0.0651229337
0.1481930694 -0.03053291248 0.0526335931
-0.7206409458 -0.563771589 0.403532183
0.1505043005 -0.03030898323 0.05524434267
0.3212686168 -0.8959011804 0.3068347289
0.1499489439 -0.02937609676 0.05591942509
-0.6730551493 -0.665921246 0.321785115
0.1509546225 0.02410935018 0.05181529061
-0.9404345265 -0.1243444987 0.3164195744
0.1542205229 0.02395767819 0.05223245321
0.9809649747 -0.0360158201 -0.190815563
0.1344427493 0.01287241456 0.03448379748
-0.6929950257 0.7054671147 -0.1485733638
0.1299404527 0.007183989189 0.03981095526
-0.7379904048 0.6500821181 -0.1810066356
0.1302179528 0.01088343437 0.04406934824
-0.7275380065 0.6350487864 -0.2596179655
0.1474156871 -0.0209810716 0.03445007982
0.4995499755 0.8466264553 0.1835033166
0.1509497336 -0.02583238536 0.03641490527
0.7027507121 0.6822442008 0.2017034631
0.1515362492 -0.02437942485 0.03336363431
0.6821156475 0.6915407623 0.2376754459
0.1378851265 -0.02561838277 0.05050313873
-0.6152835245 -0.7515987028 0.2377510766
0.136429573 -0.02195926726 0.04971908072
-0.7523578695 -0.6401396373 -0.1554955982
0.1430970297 0.01989348296 0.04647179834
0.5081768767 -0.5537639872 0.6596223985
0.1393741026 0.01785700625 0.04816295925
0.6236608904 -0.5046672189 0.5969573619
0.153104376 -0.02678807301 0.05718476807
0.3203473567 0.9385906081 0.128160998
0.1520323162 -0.02708963768 0.05999220503
-0.6457010115 0.4831583524 0.5912936752
0.1527020726 -0.02730972104 0.05924545628
0.6759315804 0.4866905911 0.5533974767
0.1501284645 0.02182183623 0.03395356147
0.9646428649 -0.2588316368 -0.04970238491
0.1502900992 0.02131709614 0.03010462199
0.9915330868 0.09651162062 0.08687718238
0.1484546861 0.02263632257 0.02935598928
0.4406490103 0.867496812 -0.2308196935
0.1527933202 0.02303882756 0.05226173847
-0.3759901842 -0.924623306 0.06085329307
0.149974517 0.02555215678 0.05080843064
-0.6942832737 0.6287295101 0.3502426858
0.1321689737 0.01557566457 0.05176749255
-0.2593077792 0.740259188 0.6203029987
0.1296020574 0.01324346658 0.05317744872
-0.2200402598 0.3988001936 0.8902475441
0.1328889318 0.01457685077 0.05251693083
0.5326677173 0.06436963466 0.8438730077
0.1395915546 -0.01659260427 0.03054787977
0.6411031123 0.7639602913 -0.07315376138
0.1357750705 -0.01449708373 0.02738159015
0.6402629009 0.5261351926 -0.559683104
0.1370625714 -0.01426390628 0.02928198283
0.7683015465 0.5933907323 -0.2400003594
0.1528473014 -0.02569062239 0.02680731021
0.9926632759 0.02347855893 0.1186101929
0.1521136658 -0.02571001769 0.02377079835
0.9674899549 -0.2380122624 -0.085518127
0.1531940603 -0.0232763231 0.02444775808
0.8417702668 0.5361358703 0.06309632711
0.1263802759 0.009898688555 0.05192325948
-0.7033911187 0.5988032182 0.3829825583
0.1255520442 0.007724933531 0.05280190605
-0.5634983771 0.3663841262 0.7404270734
0.1278787012 0.01050801304 0.05287014435
-0.3025663808 0.3058360449 0.9027280315
0.125057476 0.004639124496 0.05277156698
0.2271833421 -0.6092219871 0.7597606857
0.1268091974 0.005536775062 0.05163976443
0.6454699314 -0.6852444167 0.337355387
0.1262077408 0.007369855607 0.05318473135
0.1195858653 -0.1349222967 0.983613336
0.1386688114 0.009763161318 0.0285538609
0.6063518441 -0.7951891974 -0.003403151399
0.1368735388 0.008040178537 0.02989557232
0.7090305285 -0.6842737033 0.1704265488
0.1462230745 -0.02558241247 0.01864184087
-0.5925666464 -0.7490568543 -0.2962745324
0.1448246752 -0.02396851834 0.01285214682
-0.6520086645 -0.628009824 -0.4248392195
0.1360442643 0.01170896349 0.02271062106
0.2624601741 -0.4940690781 -0.828860907
0.1351448595 0.0125285907 0.02251407623
-0.2468194632 0.2828147468 -0.9268743019
0.1383171237 0.01430966515 0.02308778784
-0.09423164503 0.3893048238 -0.9162762418
0.1277675886 -0.01477394281 0.05414891526
-0.728675768 -0.5304628835 0.4331752005
0.1268923652 -0.01249406467 0.05468911916
-0.578029264 -0.2736453157 0.7687655112
0.1269309963 -0.01367409458 0.05129185909
-0.8064588757 -0.5911570225 -0.01254816734
0.1495281911 -0.02380827347 0.04232739697
0.5244267736 0.8189903229 0.2328763839
0.1505081645 -0.02723998718 0.04028531922
0.8565795044 0.4732984908 -0.2055725935
0.1449534638 0.02262141072 0.0456495513
0.4110481994 -0.07031553717 0.9088977407
0.1431609803 0.02440650628 0.04529880202
0.1785649647 0.6106539356 0.7715026405
0.1412233525 0.02351457173 0.04682730958
0.2836771105 0.4168782628 0.8635622797
0.1396599479 -0.01808737395 0.04207421983
0.5943741422 0.7805924129 0.1933775168
0.1459520745 -0.02654541347 0.04819063014
0.4155602376 0.1331410289 0.8997683899
0.1416785539 -0.02715725605 0.04964729388
0.2666933825 -0.3499222699 0.8980139446
0.1432083878 -0.02816385484 0.04767055679
0.1528722798 -0.5465185552 0.8233756948
0.1465364545 -0.03143849886 0.04849413855
-0.3917846567 -0.8825020839 0.260182349
0.1350299109 0.0159888216 0.05088957198
0.5698523851 -0.2042001324 0.79597146
0.1350133072 0.01750402114 0.05063423978
-0.002025608528 0.4415193784 0.8972494276
0.1459551372 0.01858918871 0.01707125147
-0.559382386 0.7451367592 -0.3631288427
0.1457909094 0.01918695851 0.02109755
-0.3551249549 0.8638551091 -0.3572682702
0.1471128456 0.01945675879 0.01492469717
0.2089361795 0.9033372895 -0.3746030089
0.1518524691 -0.02270615944 0.02107059415
0.6976671966 0.7072660316 0.1141719906
0.1500212466 -0.02145406575 0.02259199019
0.1726136038 0.9846781625 -0.02476812464
0.1520180977 -0.02149042265 0.02538132618
0.4859492327 0.8675098767 0.1062071417
0.1283934292 0.01278196299 0.05018513791
-0.7135658899 0.6971935915 0.06888263013
0.1518867471 0.01810582236 0.02664026464
0.7589420611 -0.5421154179 0.3607184797
0.1518393271 0.01938341359 0.02500834385
0.9908834795 -0.05685775487 0.1221356856
0.1463657889 -0.02600325004 0.02307973481
-0.3938111821 -0.8757036412 -0.2793848345
0.1404731235 -0.02431394525 0.02877144078
-0.4469675381 -0.8508231028 -0.2762608688
0.1451118443 -0.02446167085 0.02444293911
-0.5067636172 -0.6266898819 -0.5919885373
0.1255389654 0.008282344219 0.04925033162
-0.7793644751 0.6229757923 -0.06702370526
0.1493901384 0.01441874778 0.02069297152
0.1285699339 -0.9896621523 0.06354995267
0.1443065113 0.01344154088 0.02522420786
0.2547343299 -0.9632016838 -0.08574927146
0.145440414 0.01405179305 0.02339257808
-0.1530081557 -0.8850700035 -0.439590256
0.1243290466 0.004916773265 0.05264740654
-0.5121060529 -0.1120247256 0.8515854928
0.1236635527 0.005360165042 0.05116674872
-0.8503266506 0.4277944638 0.3064905937
0.1234750502 0.003794292415 0.05137632184
-0.7918227294 -0.2904827296 0.5372490568
0.1492123513 0.01436743307 0.01652747084
0.25785254 -0.9458951962 0.1969628022
0.1480012661 0.01457646606 0.01873022986
-0.3473403312 -0.9377086748 -0.007558805051
0.1288022843 0.008845252928 0.05284154133
0.4999979554 -0.4744049761 0.724528787
0.1522712327 0.02430344582 0.048450235
0.8800319311 -0.01166742936 -0.4747711778
0.1521864503 0.02506325435 0.04989711522
0.7492051055 0.6021885225 -0.2757910318
0.1252465433 0.002785661305 0.04852765926
0.4454455936 -0.8139592315 0.3728921997
0.123475508 0.002554588395 0.04890540402
-0.2924993209 -0.7991366791 0.5251901707
0.1224728752 0.0006071823307 0.04701822133
-0.543690653 -0.331422078 0.7710770908
0.1484047504 -0.02999978897 0.04106104788
0.633508147 -0.5427190248 -0.5514739231
0.1496065371 -0.02934801689 0.04242924555
0.9004951205 -0.1394601156 -0.4118973344
0.1417256896 0.01199398098 0.02842898279
0.478871396 -0.8778002687 0.01220141055
0.1462303668 0.01520611798 0.03211122581
0.4618101602 -0.8482235316 0.2593226107
0.1457366573 -0.02264983716 0.01153092046
-0.213825146 0.2427819573 -0.9462218176
0.1472954524 -0.02216884561 0.01211297658
0.4582582214 0.5890541189 -0.6655934551
0.1465936913 -0.02346018533 0.01169654497
0.5149237432 -0.2338296139 -0.824728592
0.1496624091 0.02282518571 0.04345390692
0.1060028476 -0.9448439086 0.3098925374
0.1505925824 0.02307381657 0.04157893268
0.755404864 -0.6528424386 -0.05621602781
0.1508765977 0.02301703135 0.04483144971
0.3947319506 -0.9171222672 0.05543856299
0.1495565199 -0.02815957658 0.04783490852
-0.2717155788 0.9120810756 0.3070484583
0.1479122503 -0.02926342777 0.04882439101
-0.6972629834 0.4627627659 0.5474257525
0.145920691 0.0164981271 0.01766262171
-0.9011127137 0.2189821 -0.3742228175
0.1449253326 0.01654094433 0.01160370924
-0.6244901536 0.6155885662 -0.4806898847
0.1271881854 0.000679589299 0.04365506821
0.7589651665 -0.5796574757 0.2965958311
0.1268097823 -0.001539398722 0.03709390983
0.8382127653 -0.4830580677 0.2530894375
0.1307512233 0.0003581936065 0.03150473609
0.7307088768 -0.6655993208 0.1517961844
0.1366115513 0.01990279843 0.04944638674
-0.148561814 0.6594074403 0.7369607961
0.1372457174 0.01843793159 0.05012154032
0.4676851145 0.01221011149 0.8838108094
0.1477225455 0.01758702366 0.01219009793
0.5784890974 0.5710471566 -0.5824564439
0.1490960625 0.01789231356 0.01467772087
0.924817006 0.3314413578 -0.1867086814
0.1490051538 0.01621646512 0.0125567424
0.933672109 -0.09620626591 -0.3449648494
0.1528241629 -0.02796487105 0.05635310795
0.954826685 0.1943104558 0.2248320447
0.1519036766 -0.02912384564 0.05356059808
0.9811977724 -0.02481478624 -0.1914031293
0.1484472784 -0.02182922377 0.02039103404
-0.3055283335 0.9477380398 -0.09189692815
0.1467063511 -0.02217598654 0.01605543486
-0.6777050302 0.7352726361 0.009489081069
0.1346537352 0.01880859036 0.04901864955
-0.6067687323 0.7463436094 0.2735012289
0.1527803458 0.02393108011 0.05855357091
-0.206524604 0.4639073153 0.8614740802
0.1350711383 -0.02059088519 0.02577813888
-0.6875388437 -0.6622953988 -0.2977501353
0.135712289 -0.02058190675 0.02456737235
-0.2612432906 -0.3536217111 -0.8981668155
0.1376616671 -0.02296911466 0.02731277596
-0.5041282655 -0.7983169385 -0.3294613143
0.1506753335 -0.0296079676 0.04964475261
0.8785179659 -0.07042388123 -0.4724898524
0.145720448 -0.02821864353 0.04706872073
0.07185365327 0.06994515779 0.9949596612
0.1487191423 -0.02643925913 0.04575252628
0.3694691598 0.7217216512 0.5853293075
0.1366101172 -0.01967468262 0.024735077
0.2817002709 0.4054026968 -0.8696514306
0.139014836 -0.02195840802 0.02542211829
-0.1135546633 -0.4652219754 -0.8778803176
0.1395305474 0.01749817541 0.02605788821
-0.4092474591 0.8417808455 -0.3520248932
0.1420193582 0.02357947537 0.03855560502
-0.2468752865 0.8996768885 -0.3600473429
0.1366022679 0.02211488323 0.04686511599
-0.580809937 0.7964270456 0.1684154924
0.1381933842 0.02459503977 0.04634176568
-0.1821465641 0.876565515 0.4454834756
0.144335588 0.01756304201 0.02212664827
-0.4796473653 0.5932180312 -0.6465529927
0.1481771334 0.02562885597 0.04755508152
-0.7855245644 0.3187205008 0.5304417037
0.1501949288 0.02409127407 0.04955040877
-0.8270157577 -0.4264862149 0.3662709994
0.1344446368 0.01375339771 0.05019091826
0.7133427804 -0.5844411263 0.3867436458
0.149488548 -0.02182576623 0.0178509656
0.3001824228 0.9472383744 0.1123831615
0.1472857962 -0.02164560961 0.01323250097
0.03593659154 0.9846956705 -0.1705373796
0.1383971455 0.02005775825 0.04910725199
0.4522787154 0.1634401415 0.8767732225
0.1479662591 0.02378920016 0.0336619176
0.5087888052 0.7950124734 -0.3302864193
0.1494064533 0.02315850763 0.03530649645
0.9321728907 0.2951267864 -0.209651811
0.147946288 0.0192850405 0.03987086945
0.4879689456 -0.8174487142 0.3060455974
0.1284542913 0.002282001297 0.02706452323
-0.7204259838 0.361823574 -0.5916672233
0.131729155 0.00662163774 0.02427262743
-0.4086158956 0.07476696508 -0.9096389123
0.1295461974 0.0008562680667 0.02643422691
0.1226402887 -0.289399777 -0.9493192975
0.136331002 0.007040663786 0.02761519937
0.7406837998 -0.6460126221 -0.1845405127
0.1372086516 -0.02244666614 0.05272191585
-0.638626001 -0.6911948308 0.3382403534
0.1303690294 -0.01735345945 0.05298276302
-0.7437222925 -0.6558306677 0.1294731129
0.1507283319 -0.02930263484 0.05822190021
0.02764515826 -0.8963331842 0.4425184383
0.1515003272 -0.02802098552 0.06039088228
-0.2255216482 -0.3759130179 0.8987932961
0.1402252406 -0.02865692497 0.04655027763
-0.01576266858 -0.980106886 0.1978434487
0.1430542657 -0.02905005652 0.04647821284
-0.1229132314 -0.8205501474 0.5582022869
0.1479434409 0.0265108107 0.04691918075
-0.3517167844 0.918722664 0.1795660607
0.1407170503 -0.02335489392 0.05266551071
0.44652223 -0.1043013811 0.8886726732
0.1390025781 -0.02319850601 0.05315855859
-0.1760009263 -0.5837124909 0.7926559164
0.1396741485 -0.02559308061 0.05120645749
-0.0247145835 -0.5287020986 0.8484475707
0.13330568 0.006441865369 0.03737089397
0.6859215424 -0.6875243549 0.2383734445
0.1350461837 0.004599394189 0.02848988963
0.7007674674 -0.7126039535 0.03347479747
0.1328510507 0.007657909613 0.02367920241
0.03267662269 -0.1327249175 -0.9906141199
0.1318176946 0.002010516462 0.02640557481
0.4512343771 -0.6353331644 -0.6266891631
0.1411881671 0.02107757584 0.0476961672
0.4233463612 -0.03452025828 0.9053100078
0.1384642279 0.02217663618 0.04779442423
0.0004441154339 0.6031121213 0.7976562994
0.1377111767 -0.01492574592 0.03170414591
0.7390832133 0.6645572096 0.1100895951
0.122662631 -0.0003996384854 0.04297688851
-0.849388683 0.487822584 -0.201414974
0.1298275487 -0.0015132141 0.02959902039
0.8910673964 -0.4249528568 -0.1594175792
0.1293318135 -0.003754639377 0.03220152351
0.986822234 -0.01477467281 0.1611322049
0.129389804 -0.003845244042 0.03015143921
0.9632420282 -0.0333914537 -0.2665516945
0.1505627993 0.02074958871 0.02429077989
0.6852207265 0.703887385 -0.1871232353
0.1513191022 0.01905128823 0.02210947523
0.9769510499 0.1861473163 -0.1044788143
0.1339230023 0.01763319626 0.04608874593
-0.7234960679 0.6564877214 -0.2134884336
0.1276914797 -0.006588353701 0.04434770135
0.7845337956 0.5695596831 0.2451703304
0.1270308622 -0.005553438076 0.03758423426
0.8593216674 0.4660805733 0.2105591869
0.1227898814 0.003136645794 0.04842552281
-0.9553448038 0.099991968 0.2780609864
0.1242723563 0.003556941826 0.05190061647
-0.05818980595 -0.7765106837 0.6274114316
0.1260835218 -0.00948600302 0.0540055858
0.2554990077 0.6639764323 0.7027485713
0.1253969569 -0.009868699691 0.05396447742
-0.5050607622 0.2103066216 0.8370691438
0.1515316809 0.01600311943 0.02543937453
0.5542513521 -0.759397641 0.3407648185
0.1521796131 0.01673383323 0.02258298596
0.817232369 -0.5652429998 0.1123904191
0.152386446 0.02302918998 0.05009020827
-0.1745548093 -0.982321955 0.06763279729
0.1517418916 0.02321663892 0.04744469717
0.422135641 -0.8995952141 -0.1119372657
0.1477498117 -0.03112052661 0.04381463123
0.5377195072 -0.7596182531 -0.3658385452
0.1504243067 -0.02900699265 0.0469832082
0.9113574645 0.1665449936 -0.3764177694
0.1498795842 0.02346442915 0.04623358145
-0.3113237606 -0.8680723715 0.386688342
0.1511554229 -0.03011468392 0.0544908149
0.7671266824 -0.6329822361 0.1041640141
0.1350797603 0.006942712042 0.0256826471
0.6151227491 -0.6020051076 -0.5091304881
0.125146732 -0.008641214725 0.05297962313
-0.02254704623 0.8309153931 0.5559417597
0.1243869734 -0.009051590373 0.05253635125
-0.7771099294 0.3720941474 0.5075885174
0.1356413088 -0.01180945817 0.02982250495
0.7318203102 0.6808856019 -0.02887612669
0.1340601532 -0.01264730793 0.03889326486
0.7163167327 0.6748499952 0.1773917202
0.1507041442 -0.02773754833 0.04632115901
0.435725411 0.8997033227 -0.02602493653
0.1228389235 0.003011090277 0.04661525848
-0.8680409426 0.4876369057 -0.09335507539
0.1495890701 -0.02852524797 0.03726451614
0.9176057738 -0.3540517864 -0.1806847433
0.1512027907 0.02401610658 0.0456657593
0.902233374 -0.2401295751 -0.3582076577
0.1486872014 0.02452749016 0.04715306166
-0.716197709 -0.3803610457 0.5851378612
0.1475811353 0.0241525246 0.04521777029
-0.2858299647 -0.4867209782 0.8254719381
0.1457801558 0.02575847355 0.04522864252
-0.3903618705 0.6611877481 0.6406624477
0.147608386 0.02436689792 0.03680495559
0.4425417738 0.8110771837 -0.3825056607
0.1245726998 -0.00437716323 0.04579732796
0.6290964793 0.3783654005 0.6790266884
0.1253012741 -0.006535884847 0.04717415234
0.5133672497 0.6940835334 0.5046802112
0.1500834613 -0.02277359849 0.01667301138
0.7990612536 0.5996101349 0.04437115207
0.147035175 -0.03052585029 0.04924171466
-0.7978984225 -0.2348057771 0.5551795695
0.1490818465 -0.02876059906 0.05130692468
-0.8065751652 0.4937627044 0.3250152222
0.1275141849 -0.01197643806 0.05495728718
0.1267909058 0.2162870791 0.9680619637
0.1325877413 -0.01661763802 0.02736407836
-0.7295067899 -0.6093368836 -0.3106902088
0.1475300595 -0.02498004289 0.01327131463
0.5514105273 -0.6457351286 -0.5281785437
0.1489550516 -0.02368752464 0.01359228666
0.9362608706 0.02379244318 -0.3504989328
0.1490629094 -0.02518895682 0.0157654264
0.908947784 -0.3872552946 -0.1544255897
0.1512734714 0.01749005787 0.01935112176
0.9853510187 -0.1694837604 -0.01893739213
0.122501312 -0.001454755026 0.04615228114
-0.1199879679 -0.3767218894 0.9185224579
0.1247916536 0.00069240749 0.04655090265
0.4833059053 -0.6684259568 0.565351344
0.1401058838 -0.02864217133 0.04489281716
-0.1691107002 -0.9735749311 -0.1534712504
0.1236109867 -0.009059943514 0.04767549766
-0.8888399202 -0.4553060642 -0.05157503393
0.1317412532 -0.01622719596 0.04625034354
-0.7555650268 -0.6227038713 -0.2033749713
0.1344830319 -0.01812675078 0.02517630704
-0.2133802194 0.04602171979 -0.975884667
0.1473308748 -0.02966817449 0.03856142196
0.4053676901 -0.8607838066 -0.307779587
0.12794491 -0.01034246878 0.05304705305
0.6758543895 0.6833351818 0.27617725
0.1289789281 -0.01036997224 0.04911947588
0.7022955024 0.6809144382 0.2076934163
0.12600957 -0.008292224246 0.04949873806
0.481790397 0.8233892143 0.2998469862
0.1449172997 -0.02998947894 0.04701302083
-0.418016065 -0.5832852082 0.6964488031
0.1447216057 -0.02295167746 0.01337911072
-0.9616699222 0.01255532501 -0.2739221142
0.1456559657 -0.02198989313 0.0132396753
-0.5948750506 0.7625382075 -0.2542816476
0.153126221 -0.02429703072 0.02857621223
0.7829224427 0.5379755393 0.3124336214
0.1378941617 -0.02813778563 0.04915834549
-0.2199791831 -0.824217178 0.521799964
0.1435065404 0.02517086321 0.04439775083
-0.08515890728 0.8717593905 0.4824764508
0.145654404 0.0240455377 0.04496885784
0.07062719235 0.0163934808 0.9973680632
0.1453116762 -0.02346358839 0.01529924013
-0.999470231 -0.01675434545 -0.02790249463
0.1464089732 -0.02362357659 0.01939482435
-0.9106673811 -0.2111330762 -0.3551165232
0.145827809 -0.03150630522 0.04465824284
-0.006937255297 -0.9876821437 -0.1563197283
0.151816804 -0.02445959566 0.0208461326
0.9918513617 0.1233146091 -0.03200599094
0.14481327 0.01543349746 0.01215324769
-0.9617227167 0.00545590934 -0.2739701612
0.1452932412 0.01607040583 0.01398575808
-0.9977729331 0.05887806299 -0.03134561625
0.1526714185 -0.02217638061 0.02748268563
0.5881476625 0.7613789923 0.2727349578
0.1428490916 -0.02088723172 0.02541022016
0.28204333 0.6679982247 -0.6886435448
0.139194723 -0.01977673289 0.02562088768
0.3553801004 0.4933797743 -0.7939026279
0.1451183455 -0.02021421106 0.02746351056
0.2971749662 0.9394084993 -0.1708763028
0.1488178327 0.02610484551 0.042382009
0.5701550066 0.6993083827 -0.4311508488
0.1500110214 0.02632264931 0.04891357368
0.2846052533 0.9487315276 -0.1375075934
0.1512111623 0.0156852846 0.01943986074
0.6659588328 -0.7243765447 0.1782623192
0.1452632815 0.02337319817 0.03285110218
-0.08573014599 0.9511860969 -0.2964715015
0.147146506 0.02680557362 0.04316264723
0.03665435889 0.9691204544 -0.2438483192
0.1229463896 -0.00668306398 0.04765100975
-0.5278358723 0.4220637315 0.737055967
0.1467264532 0.01461472055 0.01487758409
-0.7096650363 -0.7006685293 0.07375058181
0.1467340007 0.01526792725 0.01831465304
-0.7867212519 -0.5540203912 -0.2722702296
0.1478663823 0.02210059054 0.04357733397
0.3381681123 -0.6822483799 0.6482125237
0.1452629114 -0.02362959269 0.04960875685
0.5336025961 0.5872628652 0.6085972367
0.1408308895 0.02497384843 0.04418772184
0.02831531035 0.9935418328 0.1098766107
0.1335146594 -0.01558569239 0.02531259955
0.03677897584 0.0419982146 -0.9984405125
0.1243794996 -0.001719742686 0.04552866775
0.6130594053 -0.3436915679 0.711360859
0.1215347618 -0.001354345654 0.04529372585
-0.9130763597 0.2091216191 0.3500852892
0.1346207841 -0.01114381946 0.02835964308
0.6611409423 0.6430030633 -0.3865743332
0.1309384279 0.0002542688235 0.02840188855
0.6859725933 -0.6814559636 -0.2550673852
0.1408608181 0.02465923082 0.04260100287
-0.1259408028 0.9625624377 -0.2400259732
0.1503334719 0.02600590104 0.05061459519
-0.003928493393 0.9882418346 0.1528484324
0.1505145096 0.01860647316 0.03114066714
0.6511928521 -0.6971532599 0.2998753102
0.1294644046 -0.01496360248 0.05510522735
-0.314121248 -0.2099815711 0.9258701752
0.1374427133 0.01018850181 0.02509394029
0.4749309904 -0.7835608204 -0.4005908075
0.1288810045 -0.006909494631 0.02839201612
0.5622711443 0.2509727508 -0.7879491345
0.1299649621 -0.006203071215 0.03028107573
0.9087589049 0.3689904592 -0.1949443349
0.1258397766 -0.003500878893 0.0392940833
0.9796047485 -0.01276621598 0.2005282035
0.1257096837 -0.003107148495 0.04401831826
0.9103634705 -0.1924775401 0.3663205537
0.1257096837 -0.003107148495 0.04401831826
0 0 0
0.1280960855 0.005107011521 0.04786573118
0.6717819003 -0.6901804248 0.2689982521
0.1431010971 -0.0245850769 0.05100633643
0.4262427185 0.09633626751 0.8994645454
0.1316403956 0.008982943407 0.02556252042
-0.7023086581 0.6110021038 -0.3652930029
0.1337689818 0.01030726603 0.02335722497
-0.2170601325 -0.1234285741 -0.9683234408
0.148744781 -0.02238573523 0.01362187739
0.6674823808 0.7243139144 -0.1727328134
0.1496485842 -0.02634973833 0.01928611921
0.7928397901 -0.5409020175 -0.2807669402
0.151161707 0.01498834579 0.02336059447
0.4470885518 -0.875311676 0.1842316388
0.1457026625 0.0139235485 0.02784928519
0.3349696273 -0.9271757926 0.1677510013
0.1455432352 0.01674814407 0.01061006996
-0.09277862648 0.5953170389 -0.798116376
0.1467003049 0.01593557971 0.01058533005
0.522993863 0.1364351604 -0.841345866
0.1458472415 0.01504075336 0.01042051099
-0.2265457613 -0.3166581189 -0.9210888414
0.1254114231 0.001813468503 0.03716391035
-0.7717689195 0.6139210961 -0.1657516897
0.1233584949 -0.001891607129 0.03750004709
-0.917591259 0.3182936168 -0.2381500679
0.1225695342 -0.003603270004 0.04064315516
-0.9689627261 0.01069415611 -0.246975445
0.1291003397 -0.001454914314 0.03272804173
0.8739727354 -0.4218085839 0.2413486612
0.1369319755 0.01529440412 0.02466801348
-0.4687683957 0.7873637186 -0.4003930142
0.1346019471 -0.01931719909 0.05480887597
-0.2909038804 -0.6697681493 0.6832170655
0.1321759058 -0.009902824691 0.02744072984
0.4775747255 0.556107116 -0.6801964842
0.1473649938 -0.02864395407 0.04706154072
-0.2621933882 0.5709336026 0.7780035016
0.1358933515 -0.01915415007 0.03682867749
-0.7239586916 -0.684413625 -0.08638172729
0.1474241898 0.0145394704 0.01109674552
0.4305983769 -0.6656426121 -0.6095120596
0.1416632438 -0.02840111045 0.04062390931
-0.2873342271 -0.9163537597 -0.2788096644
0.1505041075 -0.02793666665 0.0431622548
0.7835095171 0.6110278215 -0.1129505994
0.1450932976 0.01594576322 0.02084143619
-0.6630950026 -0.003290710331 -0.7485280147
0.1429254421 0.01526385408 0.0223458105
-0.1962493731 -0.07465997762 -0.9777075592
0.1450719366 -0.02887938404 0.034730434
-0.1285784401 -0.9690973092 -0.2105183842
0.1498483291 -0.02746795958 0.04523573912
0.148528068 0.9631073226 0.224418578
0.1501250363 0.02046106474 0.03413458223
0.6719249739 -0.6922410813 0.2632852346
0.1477353397 0.020854089 0.02325123765
-0.04398887781 0.9505930333 -0.3073074417
0.1490599008 0.02023158936 0.02044740499
0.4296149285 0.8748199518 -0.223877344
0.1397497694 -0.02175054525 0.05353853183
0.4685098281 0.04586664711 0.8822668483
0.1271919541 0.002274026767 0.03039887507
-0.8157998022 0.531229706 -0.2286168895
0.1341432178 0.003678981788 0.02713662919
0.6311497543 -0.7036956592 -0.3262857748
0.1521019236 -0.02832006098 0.05814949809
0.8866459423 -0.2631331285 0.3802892711
0.1454197298 -0.02419933485 0.01180960801
-0.1206970476 -0.6595540605 -0.7419034061
0.1247794912 -0.01064718645 0.05265560044
-0.8679401824 -0.3605564359 0.3415829274
0.1262670484 -0.003887934318 0.03146797397
-0.8962861131 0.0001304772813 -0.4434762523
0.1278479894 -0.0004182070584 0.02713268615
-0.3565899002 0.02970741749 -0.9337885802
0.1273973929 -0.00558830119 0.02914536335
-0.5435918243 -0.2792854578 -0.7915223064
0.128158792 -0.00777864849 0.02791861218
-0.3591589959 -0.09696188253 -0.9282258394
0.1248612501 -0.001557147873 0.03278580307
-0.8798336114 0.4343733471 -0.1929057065
0.137635567 -0.02091370738 0.05404874781
-0.01969683932 -0.3588080633 0.9332035192
0.1457566984 0.01437935076 0.01211455345
-0.6287407697 -0.7550021915 -0.1861631952
0.1221292161 -0.003176590289 0.04599060919
0 0 0
0.122130381 -0.003176519835 0.04599057199
0 0 0
0.1221292161 -0.003176590289 0.04599060919
0.00249933231 -0.0516895169 0.9986600759
0.1343831552 0.01264809296 0.02362178329
-0.6581511741 0.6631355552 -0.3564944144
0.1286467802 -0.00115771077 0.0276193653
0.5487493149 -0.3449468643 -0.7615023639
0.1421076351 0.01368009785 0.0231040842
0.250368978 -0.7383620018 -0.6262083752
0.1466836191 0.0145505845 0.02122793504
-0.3662082881 -0.8399375665 -0.4004951611
0.1493731703 0.01937898674 0.01794648963
0.8155081801 0.4777381267 -0.326669084
0.1271970197 -0.002448614026 0.02850729116
-0.5322316383 0.2315526988 -0.8143174018
0.1234790016 -0.005535457551 0.03798730971
-0.9313303053 -0.2970814931 -0.2106334466
0.1278973681 -0.01005079968 0.03136878608
-0.8390513953 -0.5127219443 -0.1819586873
0.1257096837 -0.003107148495 0.04401831826
0.8938357259 0.3140823143 0.3200156167
0.1385462956 0.01216388622 0.02344067348
0.3315753298 -0.5776670994 -0.7458944449
0.1237285751 -0.003910864254 0.03455255768
-0.9743460257 0.0116793298 -0.2247518976
0.1274507231 -0.00400278324 0.02850790679
-0.320443502 -0.03521781692 -0.9466127336
0.1282706526 -0.003982134836 0.02840847401
0.5354927435 -0.0496578559 -0.8430786553
0.1235778651 -0.008980574707 0.04953032757
-0.9583382119 -0.03271329868 0.2837564304
0.1242023344 -0.008248147415 0.04987980178
-0.2550320272 0.8553038464 0.4510144072
0.1234500631 -0.003762568041 0.03777591173
-0.9712927766 0.01113290424 -0.2376265992
0.1213241271 -0.003371628166 0.04426199428
-0.9997430415 0.02202231597 -0.005372943661
0.1221292161 -0.003176590289 0.04599060919
-0.5920716776 0.04896580205 0.8043963444
0.1216106668 -0.003246525253 0.0455421451
-0.7802042079 0.04503003931 0.6239019871
0.1257096298 -0.003108200536 0.04401942569
-0.398067743 0.8928695756 -0.2105373908
0.1244432977 -0.003054902636 0.04570961334
0.6560408564 0.01914238453 0.7544825802
0.1249051219 -0.006183874217 0.03330741432
-0.898655893 -0.4103157649 -0.1551082175
3 0 1 2
3 3 4 5
3 6 7 8
3 9 10 11
3 12 13 14
3 15 16 17
3 18 8 19
3 20 21 22
3 23 24 25
3 26 27 28
3 12 14 29
3 3 30 31
3 13 12 32
3 33 34 35
3 36 37 38
3 39 40 41
3 42 43 44
3 12 45 41
3 46 47 48
3 49 15 50
3 14 51 52
3 53 54 55
3 56 57 58
3 59 60 61
3 62 63 64
3 65 66 67
3 68 69 70
3 71 72 73
3 74 29 52
3 52 51 40
3 39 41 75
3 45 75 41
3 76 77 78
3 79 80 81
3 10 82 83
3 47 84 85
3 86 87 88
3 89 90 91
3 29 74 92
3 74 52 93
3 94 95 96
3 97 98 99
3 100 101 102
3 103 104 105
3 106 107 108
3 106 108 104
3 109 46 110
3 26 111 112
3 113 114 115
3 116 117 118
3 50 119 120
3 121 122 123
3 12 92 45
3 119 124 30
3 125 126 127
3 128 60 71
3 94 96 129
3 130 94 129
3 131 132 133
3 134 135 136
3 137 103 105
3 138 139 90
3 140 141 142
3 103 143 104
3 144 145 146
3 147 104 148
3 148 149 147
3 55 150 151
3 105 104 152
3 75 153 154
3 155 156 157
3 154 39 75
3 158 120 159
3 109 160 161
3 162 163 164
3 165 166 167
3 168 169 23
3 170 131 171
3 172 173 174
3 175 130 176
3 129 176 130
3 177 178 179
3 24 180 181
3 19 182 183
3 175 184 130
3 14 13 185
3 186 187 188
3 181 59 189
3 106 147 149
3 155 107 106
3 190 191 125
3 192 193 187
3 194 37 195
3 38 196 197
3 132 198 194
3 199 200 93
3 48 85 201
3 182 135 202
3 45 153 75
3 163 162 203
3 204 175 176
3 89 205 206
3 89 2 207
3 208 209 210
3 74 93 200
3 110 211 109
3 212 213 83
3 87 214 215
3 137 143 103
3 6 8 18
3 107 152 108
3 127 216 217
3 152 96 95
3 199 93 218
3 219 220 221
3 23 25 168
3 46 222 223
3 86 20 87
3 209 224 225
3 85 204 176
3 204 226 227
3 97 228 124
3 78 77 229
3 230 231 232
3 233 139 234
3 184 196 235
3 236 44 237
3 238 156 149
3 156 239 149
3 148 238 149
3 117 240 241
3 138 242 243
3 244 245 45
3 59 246 247
3 86 24 21
3 244 248 245
3 60 249 72
3 225 224 250
3 197 196 227
3 143 137 235
3 251 252 240
3 124 253 254
3 247 255 25
3 148 256 238
3 120 257 50
3 118 83 213
3 258 153 245
3 248 259 260
3 199 218 261
3 206 205 262
3 142 141 188
3 236 263 264
3 202 265 203
3 204 85 84
3 266 71 267
3 240 117 268
3 188 269 186
3 38 235 196
3 270 271 272
3 273 178 133
3 256 148 143
3 2 89 206
3 274 275 157
3 217 216 276
3 157 156 238
3 277 67 278
3 192 279 69
3 267 21 23
3 120 280 257
3 281 282 283
3 217 284 190
3 162 285 286
3 287 17 100
3 288 216 127
3 289 290 261
3 260 261 290
3 289 122 290
3 122 121 290
3 19 291 292
3 70 69 97
3 123 122 197
3 128 284 293
3 294 136 102
3 36 38 197
3 171 295 296
3 92 244 45
3 297 102 136
3 253 44 254
3 298 299 300
3 246 59 61
3 282 281 62
3 153 258 154
3 1 258 167
3 166 1 167
3 154 258 301
3 301 302 154
3 54 303 144
3 195 304 132
3 301 305 302
3 136 68 297
3 264 306 283
3 247 246 159
3 260 165 248
3 258 1 301
3 307 308 296
3 290 309 260
3 191 119 310
3 122 289 311
3 197 122 311
3 26 28 140
3 269 312 279
3 172 275 313
3 313 275 274
3 128 293 61
3 221 220 82
3 256 314 157
3 314 274 157
3 99 315 253
3 210 225 316
3 7 298 300
3 317 289 261
3 289 317 311
3 279 186 269
3 36 311 317
3 60 72 71
3 218 93 318
3 138 319 161
3 84 309 121
3 320 213 63
3 94 137 95
3 117 62 268
3 160 109 321
3 223 222 174
3 42 322 323
3 324 325 326
3 48 327 172
3 318 40 39
3 313 325 172
3 258 245 167
3 225 210 209
3 133 171 131
3 328 310 219
3 12 41 32
3 109 211 250
3 329 330 224
3 224 330 250
3 50 257 49
3 151 150 144
3 59 249 60
3 331 271 163
3 96 201 129
3 195 36 317
3 297 79 287
3 27 26 332
3 278 67 66
3 312 98 279
3 87 73 214
3 166 2 1
3 207 2 166
3 144 333 334
3 305 262 195
3 279 192 187
3 335 336 337
3 37 36 195
3 54 179 178
3 20 86 21
3 229 338 339
3 340 229 339
3 316 174 341
3 292 142 18
3 2 206 262
3 305 0 262
3 37 342 76
3 29 14 52
3 301 0 305
3 302 218 318
3 287 81 17
3 116 320 117
3 231 230 341
3 64 5 4
3 338 229 77
3 228 99 253
3 0 2 262
3 187 186 279
3 50 81 80
3 184 235 137
3 48 222 46
3 93 52 40
3 341 174 173
3 78 235 38
3 29 92 12
3 73 72 214
3 265 135 134
3 264 282 236
3 161 160 334
3 343 64 63
3 57 42 344
3 79 68 70
3 123 197 227
3 14 185 51
3 345 190 284
3 86 180 24
3 157 238 256
3 66 269 346
3 347 55 337
3 205 304 195
3 80 79 119
3 82 220 212
3 188 6 142
3 248 167 245
3 280 348 49
3 22 71 73
3 270 272 26
3 335 177 336
3 41 40 51
3 280 158 293
3 349 159 120
3 350 351 198
3 134 136 294
3 91 304 205
3 48 172 222
3 281 268 62
3 119 349 120
3 293 276 348
3 348 140 352
3 277 306 34
3 334 160 321
3 327 152 107
3 30 3 310
3 353 255 349
3 43 237 44
3 161 319 354
3 305 195 317
3 185 13 32
3 213 116 118
3 133 355 356
3 286 285 183
3 172 324 173
3 34 67 277
3 171 337 295
3 240 268 281
3 98 315 99
3 260 259 199
3 91 90 233
3 45 245 153
3 58 344 312
3 5 357 3
3 11 10 278
3 338 358 339
3 211 223 359
3 161 334 242
3 215 360 88
3 174 316 359
3 112 361 26
3 135 68 136
3 241 362 117
3 345 353 191
3 17 81 50
3 275 172 327
3 292 112 111
3 356 233 234
3 22 267 71
3 193 299 6
3 304 91 355
3 121 226 84
3 363 208 364
3 365 322 366
3 287 79 81
3 90 139 233
3 240 252 241
3 91 233 355
3 314 256 229
3 333 242 334
3 200 244 92
3 363 367 358
3 44 315 42
3 11 188 141
3 104 108 152
3 193 6 188
3 220 368 212
3 58 312 269
3 286 203 162
3 95 105 152
3 24 189 25
3 337 369 295
3 213 320 116
3 370 371 372
3 362 241 252
3 271 270 164
3 246 61 293
3 168 25 255
3 208 358 329
3 89 354 319
3 283 240 281
3 342 373 329
3 214 360 215
3 124 31 30
3 316 225 359
3 374 210 316
3 316 230 374
3 270 26 361
3 374 230 232
3 353 349 191
3 8 182 19
3 139 243 234
3 35 263 33
3 227 196 175
3 146 145 375
3 198 342 194
3 126 288 127
3 360 214 180
3 209 208 329
3 374 364 210
3 63 62 320
3 350 308 376
3 234 273 377
3 377 356 234
3 154 302 318
3 345 168 353
3 219 310 3
3 285 291 183
3 115 114 342
3 196 184 175
3 378 364 374
3 263 35 264
3 57 56 366
3 343 5 64
3 210 364 208
3 9 288 10
3 376 151 144
3 65 379 380
3 54 178 273
3 146 376 144
3 263 236 381
3 231 173 324
3 351 350 376
3 351 376 146
3 284 266 345
3 361 164 270
3 115 351 382
3 344 98 312
3 382 321 113
3 244 200 259
3 114 330 373
3 330 329 373
3 328 221 126
3 257 280 49
3 217 190 127
3 131 198 132
3 170 198 131
3 373 342 114
3 350 170 308
3 202 135 265
3 277 278 118
3 330 114 113
3 113 321 330
3 209 329 224
3 356 377 133
3 145 321 382
3 293 348 280
3 303 333 144
3 308 307 151
3 54 53 179
3 150 55 54
3 219 357 220
3 369 307 295
3 308 170 296
3 295 307 296
3 177 133 178
3 177 335 133
3 9 276 216
3 171 133 335
3 53 347 179
3 85 48 47
3 179 336 177
3 336 179 347
3 358 367 383
3 79 124 119
3 332 26 294
3 337 171 335
3 369 337 55
3 322 57 366
3 378 384 363
3 346 269 188
3 184 94 130
3 111 140 142
3 69 98 97
3 143 148 104
3 18 19 292
3 273 243 333
3 384 378 385
3 362 386 277
3 378 374 385
3 67 379 65
3 11 348 9
3 49 348 352
3 56 269 380
3 183 203 286
3 140 348 141
3 126 221 288
3 16 101 100
3 87 215 88
3 220 357 368
3 353 168 255
3 324 172 325
3 228 97 99
3 3 357 219
3 168 345 169
3 31 236 282
3 307 369 55
3 338 329 358
3 156 155 239
3 284 276 293
3 155 106 239
3 115 342 351
3 138 90 319
3 22 73 20
3 306 386 387
3 354 207 161
3 189 59 247
3 15 49 352
3 98 69 279
3 170 350 198
3 265 271 331
3 101 332 294
3 287 102 297
3 76 342 329
3 97 79 70
3 327 48 152
3 42 315 344
3 337 336 347
3 165 309 166
3 50 15 17
3 266 128 71
3 329 338 77
3 234 243 273
3 152 201 96
3 387 251 283
3 7 135 8
3 306 277 386
3 31 4 3
3 18 142 6
3 104 147 106
3 47 207 84
3 0 301 1
3 376 308 151
3 180 214 72
3 207 47 46
3 226 121 123
3 283 306 387
3 322 42 57
3 107 155 327
3 118 117 362
3 34 306 35
3 31 124 254
3 218 305 261
3 133 132 355
3 260 309 165
3 331 203 265
3 235 78 143
3 111 26 140
3 110 223 211
3 85 129 201
3 309 84 207
3 200 199 259
3 5 368 357
3 242 333 243
3 129 85 176
3 207 166 309
3 310 125 191
3 249 181 180
3 382 351 375
3 276 284 217
3 250 330 321
3 27 101 16
3 212 368 343
3 233 356 355
3 218 302 305
3 212 83 82
3 53 55 347
3 86 360 180
3 290 121 309
3 37 194 342
3 256 143 78
3 77 76 329
3 165 167 248
3 36 197 311
3 345 266 169
3 363 383 367
3 299 298 6
3 274 372 313
3 374 232 385
3 341 173 231
3 112 291 285
3 119 191 349
3 300 68 135
3 349 255 159
3 11 346 188
3 112 285 162
3 266 284 128
3 247 25 189
3 164 163 271
3 267 169 266
3 9 216 288
3 158 280 120
3 340 339 388
3 11 278 346
3 162 361 112
3 386 252 387
3 219 221 328
3 228 253 124
3 124 79 97
3 361 162 164
3 344 58 57
3 8 135 182
3 159 255 247
3 387 252 251
3 203 182 202
3 30 310 119
3 293 158 246
3 80 119 50
3 300 69 68
3 65 380 269
3 37 76 78
3 205 89 91
3 382 113 115
3 346 278 66
3 307 55 151
3 275 155 157
3 46 109 161
3 343 63 213
3 296 170 171
3 222 172 174
3 239 106 149
3 105 95 137
3 183 291 19
3 132 194 195
3 354 89 207
3 320 62 117
3 83 118 278
3 110 46 223
3 256 78 229
3 139 138 243
3 135 7 300
3 359 225 250
3 31 254 236
3 226 204 84
3 377 273 133
3 58 269 56
3 291 112 292
3 150 54 144
3 375 351 146
3 125 310 328
3 242 138 161
3 62 64 4
3 154 318 39
3 321 109 250
3 145 144 334
3 79 297 68
3 10 288 82
3 230 316 341
3 59 181 249
3 299 193 192
3 141 348 11
3 94 184 137
3 318 93 40
3 37 78 38
3 226 123 227
3 269 66 65
3 262 205 195
3 299 192 69
3 249 180 72
3 32 41 51
3 298 7 6
3 368 5 343
3 145 334 321
3 261 305 317
3 51 185 32
3 261 260 199
3 300 299 69
3 342 198 351
3 250 211 359
3 161 207 46
3 223 174 359
3 294 26 272
3 292 111 142
3 155 275 327
3 132 304 355
3 378 363 364
3 74 200 92
3 208 363 358
3 315 98 344
3 90 89 319
3 48 201 152
3 190 345 191
3 204 227 175
3 277 118 362
3 303 54 273
3 248 244 259
3 375 145 382
3 339 358 383
3 340 389 229
3 303 273 333
3 389 314 229
3 127 190 125
3 348 276 9
3 193 188 187
3 100 102 287
3 323 43 42
3 61 60 128
3 278 10 83
3 372 274 314
3 16 28 27
3 101 294 102
3 20 73 87
3 283 251 240
3 390 372 314
3 15 28 16
3 352 28 15
3 134 294 265
3 140 28 352
3 392 326 325
3 283 282 264
3 288 221 82
3 328 126 125
3 23 169 267
3 282 62 31
3 183 182 203
3 254 44 236
3 265 294 272
3 158 159 246
3 35 306 264
3 24 181 189
3 253 315 44
3 332 101 27
3 343 213 212
3 331 163 203
3 17 16 100
3 88 360 86
3 21 24 23
3 362 252 386
3 31 62 4
3 372 390 370
3 372 371 393
3 393 392 325
3 22 21 267
3 265 272 271
3 314 389 391
3 339 383 388
3 56 380 363
3 340 388 379
3 379 383 380
3 340 379 67
3 340 67 389
3 236 237 324
3 231 43 323
3 43 231 237
3 324 326 381
3 380 383 394
3 365 363 384
3 323 232 231
3 324 381 236
3 363 366 56
3 370 33 371
3 392 381 326
3 231 324 237
3 322 385 232
3 363 380 394
3 384 385 365
3 363 394 383
3 33 370 390
3 322 232 323
3 365 385 322
3 390 391 34
3 365 366 363
3 389 67 34
3 393 371 33
3 381 392 393
3 34 391 389
3 379 388 383
3 391 390 314
3 313 372 393
3 313 393 325
3 33 390 34
3 263 393 33
3 263 381 393
