ply
format ascii 1.0
element vertex 36
property double x
property double y
property double z
element face 68
property list uchar int vertex_indices
end_header
0.1233437969 -0.006724197217 0.05342071315
0.1231421015 -0.00617741151 0.05380025441
0.123421486 -0.005751039424 0.05330051195
0.1226604807 -0.005756264535 0.05346042422
0.1224640739 -0.006739197775 0.05327807638
0.1214111912 -0.006463655016 0.05252472763
0.123235075 -0.00668523148 0.05220422514
0.12304109 -0.005869110898 0.05220221022
0.1226820975 -0.007281019617 0.05244832577
0.12208714 -0.005584916088 0.05240360444
0.1215267592 -0.007518946482 0.05190054577
0.1224296749 -0.00749122038 0.05164706713
0.1218668039 -0.006091187783 0.0511181194
0.1217505199 -0.007890091179 0.05100572008
0.1213125384 -0.005981812725 0.05127332209
0.1205153224 -0.006940436485 0.05087851466
0.1205636997 -0.006254500986 0.05074648883
0.1222688948 -0.007086544921 0.05086685788
0.1220669886 -0.007696430037 0.0502576818
0.1217565142 -0.007155548857 0.04928096061
0.1215885978 -0.008231883851 0.04939030617
0.1207360121 -0.006278662685 0.04957748299
0.1201079534 -0.007879613126 0.04920581333
0.1200552533 -0.006809674568 0.04957587105
0.1203994719 -0.006307226038 0.04842066771
0.1207449086 -0.008361270316 0.04916113102
0.1197129255 -0.007572677313 0.0488966298
0.121125188 -0.007246104916 0.0483784107
0.1204649238 -0.007636838225 0.04794390835
0.1203305405 -0.00809844994 0.04840524467
0.1195867954 -0.006441056718 0.04826702782
0.1198377757 -0.007972606438 0.04837090783
0.1192963971 -0.007849098133 0.04823827775
0.1191874227 -0.006967433159 0.04825355545
0.1195247611 -0.006754478015 0.0473548974
0.1192986905 -0.007364317016 0.04734876396
3 2 1 0
3 1 2 3
3 0 1 4
3 4 1 3
3 4 3 5
3 6 2 0
3 2 6 7
3 8 6 0
3 2 7 3
3 3 7 9
3 4 8 0
3 10 8 4
3 10 4 5
3 5 3 9
3 13 8 10
3 6 8 11
3 11 8 13
3 25 29 28
3 14 9 12
3 5 9 14
3 5 16 10
3 16 5 14
3 17 6 11
3 17 7 6
3 7 17 12
3 18 11 13
3 18 17 11
3 33 26 23
3 12 17 21
3 20 18 13
3 14 12 21
3 13 15 22
3 16 14 21
3 15 16 23
3 19 17 18
3 17 19 21
3 20 19 18
3 13 22 25
3 23 22 15
3 16 21 23
3 23 26 22
3 19 20 27
3 25 27 20
3 19 27 24
3 27 25 28
3 24 27 34
3 21 24 23
3 25 22 29
3 23 24 30
3 22 31 29
3 22 26 31
3 25 20 13
3 26 32 31
3 32 26 33
3 15 13 10
3 33 23 30
3 21 19 24
3 27 28 34
3 24 34 30
3 28 29 31
3 9 7 12
3 32 28 31
3 28 32 35
3 34 33 30
3 33 35 32
3 33 34 35
3 35 34 28
3 10 16 15
