ply
format ascii 1.0
element vertex 157
property double x
property double y
property double z
element face 310
property list uchar int vertex_indices
end_header
0.1545408428 0.003939271192 0.05095002821
0.1544940757 0.002592754432 0.05097335558
0.1552076968 0.001732691485 0.0506809223
0.1545932725 0.001512952693 0.05079958308
0.1535719807 0.004114574091 0.05126409782
0.1534428595 0.002416681643 0.05084219395
0.1529249703 0.005734178195 0.05108689284
0.1520688094 0.003492633888 0.05053303538
0.1556558729 0.001675732278 0.05007238292
0.1547473562 0.003191290921 0.04991182929
0.1551887915 0.001702045152 0.04962704818
0.154956732 0.001338784301 0.05010788861
0.1545268971 0.004751876466 0.05019556728
0.1537185141 0.002176198153 0.04993035158
0.1535919344 0.006394483662 0.05030237133
0.1525098271 0.002778951181 0.04981204933
0.1526007222 0.006302469352 0.04998385175
0.1517816628 0.005000510692 0.0498115996
0.1510036326 0.004171852609 0.04932283705
0.1512611242 0.003407367196 0.04948862287
0.1537849636 0.00522275643 0.04900580758
0.1531132821 0.003437192859 0.0490754436
0.1530909064 0.005808491714 0.04842661086
0.1522157696 0.003267974502 0.04895981047
0.1523849152 0.005901344815 0.04800934292
0.1520340915 0.005769549435 0.04888746714
0.1511049846 0.003591779663 0.04877531866
0.1503689027 0.00471150885 0.04799722283
0.1505681008 0.004106750505 0.04822321813
0.1527060987 0.004925760328 0.04785134304
0.1515198133 0.003985104526 0.04785643454
0.1512666421 0.005618237474 0.04763297331
0.1504578666 0.004033233192 0.04689421122
0.1498162015 0.004328421909 0.04670484124
0.149796691 0.005109418675 0.04715668113
0.1523732931 0.005565524008 0.04660328957
0.151991067 0.004708629433 0.04638360544
0.1518522811 0.00641569278 0.04646179247
0.1510595601 0.00397906113 0.04626807432
0.1505994364 0.006131691278 0.04637976864
0.1491341768 0.006194302261 0.04581935352
0.1487669427 0.005289844173 0.04603557468
0.1523450906 0.00667677907 0.04485523311
0.1514179431 0.003387382118 0.04285175498
0.1508715259 0.007434477538 0.04534644304
0.1492567009 0.004264024556 0.04419173918
0.1486418192 0.006103855786 0.04506089876
0.1484854764 0.005292504969 0.04452573188
0.1518852709 0.007662870191 0.04444025676
0.1508009804 0.008763135121 0.04340554566
0.1498431467 0.007741363142 0.0438085807
0.1505963432 0.002880358525 0.04215267315
0.1485463115 0.005946686407 0.04409497886
0.1518699709 0.008080819115 0.04205090437
0.1523207125 0.004167332457 0.04247037008
0.1512029045 0.008800599279 0.04284910641
0.1495192445 0.006895297776 0.04232883764
0.1496677686 0.003771174069 0.04144231314
0.1525011067 0.005708970186 0.04237068754
0.1499234436 0.008755917567 0.04085413125
0.1499011319 0.002909309578 0.04152726999
0.1495795803 0.007888606281 0.04062227354
0.150151953 0.005301019865 0.04025746206
0.1526669979 0.004223772495 0.04104576837
0.1526883934 0.00625603104 0.04089766947
0.1520649909 0.002984452316 0.04084035033
0.152413143 0.008660416967 0.03966257649
0.150909394 0.001860488467 0.0405641913
0.1508530746 0.009261500731 0.04040688522
0.1496248527 0.001718331559 0.04001317476
0.1494406719 0.00310199802 0.0403240867
0.1538561322 0.006436869756 0.03865496755
0.1528425505 0.002614068821 0.03927203272
0.1513572315 0.001810705249 0.03915188824
0.1503774482 0.009565328028 0.03879688434
0.1497456853 0.001457119035 0.03916159607
0.1500951007 0.005164701941 0.03957060467
0.1490585234 0.002313668828 0.03931093344
0.1549820643 0.004758581386 0.03706286618
0.1534358963 0.003650641053 0.03911455671
0.1522544803 0.00980388415 0.03862344404
0.151013172 0.00988812107 0.03862458538
0.1500223715 0.008906764815 0.03869046523
0.149555352 0.005105598827 0.03762422388
0.1487427981 0.003115775483 0.03794914004
0.1487634451 0.001857276829 0.03750081376
0.1477794468 0.002147240792 0.0364092
0.1543864061 0.003497574157 0.03707331658
0.1539166324 0.008975553923 0.038170994
0.1532470995 0.002450870704 0.0373292276
0.1526204637 0.002362004633 0.03593573463
0.152012993 0.01010422081 0.03788332525
0.1499712893 0.006656223843 0.03779359501
0.1497034604 0.001728977465 0.03700961993
0.1484835091 0.004293602665 0.03577522756
0.1472702017 0.003258672638 0.03516777697
0.1553801083 0.009882947587 0.03679091537
0.1553058055 0.008012202315 0.03717914709
0.1540376994 0.01074724221 0.03671990985
0.1517486051 0.009813728595 0.03722500945
0.1515482428 0.008784314348 0.03631383888
0.1499090165 0.005631180333 0.03645007
0.148191468 0.001523568881 0.03624806364
0.1463628633 0.001158151584 0.03530197462
0.1467748837 0.001065436715 0.03553611943
0.1563391198 0.008436989525 0.03613264298
0.1556566856 0.007258919562 0.03625996388
0.155083261 0.01052804215 0.0360019856
0.155307988 0.005939062599 0.03646782439
0.1549787204 0.004553099803 0.03614797986
0.1541591689 0.003366841408 0.03550324554
0.1538378142 0.01096951469 0.03542934147
0.1508145755 0.007077802952 0.0359190729
0.1477608484 0.001369879865 0.03515662544
0.1491736567 0.005037708919 0.03451144841
0.145565099 0.001693550841 0.03419502469
0.1456545528 0.0008158866718 0.03446899531
0.1567310724 0.008575028724 0.03534383841
0.1565894413 0.007917526217 0.03506173465
0.1560010642 0.009850216748 0.03521348386
0.1554536121 0.0103204688 0.03430541374
0.1540851506 0.01078630157 0.03395611502
0.1533786185 0.003389787894 0.03448056911
0.1529802604 0.009801174043 0.03322046321
0.1521846726 0.008253498076 0.03274981214
0.1516302221 0.00797057134 0.03413223864
0.1511742947 0.007021029137 0.03313758224
0.1479371194 0.002120548363 0.03397214863
0.1456720634 0.002435389034 0.03359541398
0.145925412 0.00141179905 0.0339126035
0.1565659494 0.008818789493 0.03442148377
0.1540366071 0.004670766617 0.03413951772
0.1534908001 0.00485961864 0.03355992386
0.1487205386 0.003035011319 0.03316723009
0.1491480889 0.004690149639 0.03311498035
0.1464482999 0.002853901536 0.03305068444
0.1561937109 0.008931481333 0.03383551594
0.1549196163 0.009873118269 0.03321013102
0.1546920272 0.01030633042 0.03329897666
0.1537432053 0.01014533699 0.03310284324
0.1529516448 0.009366870075 0.03290751376
0.152337021 0.005330951932 0.03183278598
0.151563665 0.004104275125 0.03255502816
0.1521129419 0.007652930879 0.03262083513
0.1515644853 0.006668297916 0.03178651621
0.1513357015 0.006085953907 0.0320153899
0.1498033116 0.004034931296 0.03240928179
0.150609643 0.004978165374 0.03227240394
0.152059149 0.005573346245 0.03159990965
0.1555043319 0.007334993108 0.03537092855
0.154780395 0.006224516917 0.03525187551
0.1555106752 0.008990621761 0.0335091236
0.1544370817 0.008143280216 0.03395375002
0.1527416626 0.007882730053 0.03271408155
0.1526350076 0.006919909121 0.03269700841
0.1535936257 0.009131969697 0.03300714362
0.1527708627 0.005595062236 0.03247231056
3 1 3 2
3 1 0 4
3 5 3 1
3 133 122 90
3 4 5 1
3 7 5 4
3 14 6 4
3 85 77 84
3 9 1 8
3 2 11 8
3 147 148 142
3 11 2 3
3 0 9 12
3 3 13 11
3 14 4 12
3 3 5 13
3 55 49 48
3 13 5 15
3 14 16 6
3 7 15 5
3 17 6 16
3 84 76 83
3 18 7 17
3 15 7 19
3 18 19 7
3 10 9 8
3 142 141 122
3 10 11 13
3 12 20 14
3 12 9 20
3 9 10 13
3 21 9 13
3 22 14 20
3 15 21 13
3 16 14 22
3 22 24 16
3 23 21 15
3 24 25 16
3 84 86 85
3 16 25 17
3 23 15 19
3 19 26 23
3 17 25 27
3 27 18 17
3 18 26 19
3 27 28 18
3 26 18 28
3 101 92 112
3 29 20 21
3 21 30 29
3 23 30 21
3 25 24 31
3 30 23 26
3 25 31 27
3 26 28 30
3 28 27 32
3 34 33 27
3 156 148 154
3 35 24 22
3 35 22 29
3 36 35 29
3 35 37 24
3 30 36 29
3 24 37 31
3 38 36 30
3 39 31 37
3 30 32 38
3 39 34 31
3 34 39 40
3 33 34 41
3 40 41 34
3 42 37 35
3 73 90 89
3 43 36 38
3 37 44 39
3 39 44 40
3 45 32 33
3 51 43 38
3 40 46 41
3 45 33 41
3 45 41 47
3 46 47 41
3 37 42 48
3 49 44 48
3 44 37 48
3 32 51 38
3 97 105 96
3 45 51 32
3 40 50 52
3 40 52 46
3 47 46 52
3 53 48 42
3 53 55 48
3 27 33 32
3 50 56 52
3 120 107 119
3 4 0 12
3 58 53 42
3 58 42 35
3 35 54 58
3 9 0 1
3 49 59 50
3 50 59 56
3 57 47 52
3 45 60 51
3 56 62 57
3 45 57 60
3 56 57 52
3 79 78 71
3 58 63 64
3 63 58 54
3 64 53 58
3 65 63 54
3 54 43 65
3 66 68 53
3 43 67 65
3 6 7 4
3 68 59 55
3 43 51 67
3 153 152 149
3 59 61 56
3 67 51 69
3 61 62 56
3 137 138 120
3 112 92 82
3 57 70 60
3 63 79 64
3 63 65 72
3 66 53 64
3 67 73 65
3 74 59 68
3 67 75 73
3 50 40 44
3 57 62 76
3 75 67 69
3 57 76 70
3 70 77 60
3 69 60 77
3 79 63 72
3 71 66 64
3 68 66 80
3 68 80 81
3 74 68 81
3 74 82 59
3 82 61 59
3 34 27 31
3 76 84 70
3 84 77 70
3 85 75 77
3 73 72 65
3 76 62 61
3 78 79 87
3 66 71 88
3 80 66 88
3 72 89 79
3 72 73 89
3 91 81 80
3 82 92 61
3 76 61 92
3 83 76 92
3 75 93 73
3 94 84 83
3 28 32 30
3 93 75 85
3 94 95 84
3 84 95 86
3 96 88 97
3 88 71 97
3 98 88 96
3 20 9 21
3 98 80 88
3 80 98 91
3 129 127 113
3 11 10 8
3 99 81 91
3 100 74 99
3 74 100 82
3 73 93 90
3 100 112 82
3 68 55 53
3 83 92 101
3 94 83 101
3 85 102 93
3 1 2 8
3 74 81 99
3 102 86 104
3 104 86 103
3 106 105 97
3 78 106 97
3 78 108 106
3 109 108 78
3 107 98 96
3 54 35 36
3 109 78 87
3 110 109 87
3 89 110 87
3 89 90 110
3 91 98 111
3 111 99 91
3 139 140 123
3 123 124 100
3 93 113 90
3 101 114 94
3 113 93 102
3 103 86 95
3 113 102 104
3 115 103 95
3 104 116 113
3 116 104 103
3 115 116 103
3 117 105 118
3 96 117 119
3 105 117 96
3 105 106 118
3 119 107 96
3 107 120 111
3 98 107 111
3 121 123 111
3 90 122 110
3 99 111 123
3 60 69 51
3 100 124 125
3 112 100 125
3 125 126 112
3 112 126 101
3 59 49 55
3 101 126 114
3 127 90 113
3 114 128 94
3 95 94 128
3 115 95 128
3 116 129 113
3 100 99 123
3 115 128 129
3 129 116 115
3 7 6 17
3 117 118 130
3 119 117 130
3 119 130 120
3 155 140 139
3 120 121 111
3 131 109 110
3 110 122 131
3 131 122 132
3 127 133 90
3 126 134 114
3 128 114 134
3 134 135 128
3 135 133 127
3 127 129 135
3 128 135 129
3 136 130 118
3 130 136 120
3 137 120 136
3 75 69 77
3 121 120 138
3 138 139 121
3 89 87 79
3 139 138 137
3 137 155 139
3 139 123 121
3 132 122 141
3 123 140 124
3 47 57 45
3 124 143 125
3 143 126 125
3 126 143 144
3 126 144 145
3 122 133 142
3 102 85 86
3 147 126 145
3 126 147 134
3 146 134 147
3 135 134 146
3 135 146 133
3 142 148 141
3 144 148 145
3 147 145 148
3 146 147 142
3 29 22 20
3 50 44 49
3 118 106 149
3 106 108 149
3 108 150 149
3 79 71 64
3 71 78 97
3 133 146 142
3 108 109 150
3 109 131 150
3 118 149 151
3 152 151 149
3 150 153 149
3 154 150 131
3 131 132 154
3 136 118 151
3 151 137 136
3 155 137 151
3 152 155 151
3 153 155 152
3 43 54 36
3 150 154 153
3 132 141 156
3 155 153 140
3 156 154 132
3 140 153 124
3 143 124 153
3 143 153 154
3 156 141 148
3 144 143 154
3 148 144 154
