ply
format ascii 1.0
element vertex 333
property double x
property double y
property double z
element face 662
property list uchar int vertex_indices
end_header
0.1358193845 -0.02326725339 0.0639835673
0.1364415197 -0.02254382297 0.06353779314
0.1360383879 -0.02156058868 0.06355352449
0.1350239063 -0.02103422162 0.06358357843
0.1348301588 -0.0232658551 0.06413990995
0.1342734811 -0.02182776012 0.06408942519
0.1325935089 -0.02103428216 0.06350623414
0.1352922207 0.02079756455 0.06631942956
0.136056752 0.02011459556 0.06591676716
0.1357093161 0.01909141179 0.06578225631
0.1346701436 0.01851780541 0.06556907161
0.1342395744 0.02071594675 0.06620403341
0.1103863686 -0.01710469799 0.06413720911
0.1102936664 -0.01737387443 0.06372960828
0.1337214789 0.01929433164 0.06591649746
0.1090612584 -0.01702576137 0.06402526504
0.1318854228 0.01848070421 0.06485906908
0.1361724217 -0.02292193833 0.0624552098
0.1346599022 -0.02095801093 0.06256883498
0.1098987151 0.01210463142 0.06476253294
0.1098019387 0.01251918947 0.0643722494
0.1085630636 0.01218323328 0.06450307269
0.1335444696 -0.02358746018 0.06296207124
0.1317838816 -0.02173474352 0.06376886011
0.1359886603 0.02051996078 0.06474121157
0.1299626006 -0.02111364586 0.06379133466
0.1344055644 0.01843410452 0.06444943739
0.1287393419 -0.02051041506 0.06364066389
0.1303645726 -0.02032063962 0.06352524068
0.1330301476 0.02080553893 0.0646218438
0.1309014428 0.01911513443 0.06496557114
0.1287556383 0.01851423927 0.06462186969
0.1273671226 0.01786390824 0.06432492924
0.1292793115 0.01780366695 0.06441102578
0.1105771628 -0.01636021938 0.06357695385
0.1099327635 -0.01576010382 0.06428706685
0.1100114287 0.01193492717 0.06376580367
0.1092903331 0.01093743282 0.06467284686
0.107557964 -0.01468607808 0.06487811359
0.1066150249 0.009903791203 0.06491542017
0.1083416006 -0.01640873941 0.06459935551
0.1077025681 0.01148394998 0.06495238807
0.1058338394 0.01042011395 0.0645769324
0.1067175172 -0.01519030218 0.06455695966
0.1063845013 -0.01343697416 0.06514508205
0.1050117449 -0.00569133228 0.06699242007
0.1054158595 -0.0143824133 0.06445807712
0.1052325653 0.008737778985 0.06472903547
0.1043390851 0.001053074067 0.06700584951
0.1357003121 -0.02269118733 0.06140519555
0.1343478676 -0.02396700665 0.0622511694
0.1325396313 -0.02066823835 0.06238555379
0.1043974246 0.009684746711 0.06428360739
0.1289105318 -0.02143733871 0.06325062142
0.12724322 -0.01942554209 0.06229883332
0.135670073 0.02018223983 0.06353247489
0.1339639165 0.0212984628 0.06414092468
0.127690498 -0.02113313406 0.06307312069
0.1270310009 -0.02034188024 0.06277138406
0.1319244808 0.01812387743 0.06375834275
0.1275333625 0.01878330076 0.06391168958
0.1105522967 -0.01506631523 0.06380464675
0.1098248637 -0.01699311592 0.06339148185
0.1256494334 0.01647727816 0.06294944748
0.1261033551 0.01829695638 0.06366426176
0.1253604431 0.01740352286 0.06337118395
0.108613208 -0.01735489745 0.06268156127
0.1086736683 -0.01392812938 0.06452756036
0.1098817461 0.01064913254 0.06399151294
0.1093317377 0.01245001717 0.06364325754
0.1065629888 -0.004840374267 0.06703530991
0.1081324018 0.01299195439 0.06274269754
0.1076552247 0.009306631446 0.06444012606
0.1060356336 0.0002916292767 0.06694753842
0.1066575465 -0.01083143863 0.06583980911
0.1055601665 0.006146392411 0.06540627772
0.1040142224 -0.01276438833 0.06452558188
0.103057262 0.008159684035 0.0644275879
0.1353801571 0.01945558473 0.06351221502
0.1336228396 0.01890321758 0.06275630667
0.1313476009 0.01812772759 0.06229638267
0.1279918447 0.01714721482 0.06203153284
0.1354138559 -0.02198307505 0.06145800255
0.1338648372 -0.02152917509 0.06104908586
0.1319817309 -0.02084845741 0.06102014724
0.1251536593 0.01610671654 0.06221589701
0.1292410551 -0.01992044253 0.06120430561
0.1245686576 0.01781693625 0.06308416367
0.1232992054 0.01651650261 0.06281698095
0.1160497993 0.01365277669 0.0632137062
0.1155503734 0.01278645787 0.06342562387
0.126816386 -0.01916085603 0.06158227071
0.1137277894 0.01332902633 0.06349822853
0.1130087474 0.0114453498 0.06341588281
0.1263835731 -0.02087118746 0.06254176155
0.1108484646 0.01243352318 0.06360866052
0.1098533698 0.0129811899 0.06316422694
0.1252006689 -0.01969988182 0.06232782721
0.1110101656 0.01104182826 0.06368770078
0.1174111265 -0.01690211128 0.06314127404
0.116751458 -0.0160227863 0.06338896613
0.1147166222 -0.01694830125 0.06356129362
0.1136860487 -0.0150515711 0.06352802396
0.1067576715 0.001510098191 0.06545771577
0.1114570656 -0.01657474933 0.06357476401
0.1103692859 -0.01728649614 0.06308424
0.1116280393 -0.01507689244 0.0636635198
0.1064975161 0.004641964618 0.06530302214
0.1069094944 0.00359780543 0.06515537268
0.1068992096 -0.001166210923 0.06570474422
0.1073852788 0.006396427316 0.06378172752
0.107608073 -0.006095773127 0.06586702134
0.1057733036 0.01155002694 0.06359582464
0.1033796791 0.006132247533 0.06541645778
0.1077416456 -0.009308999403 0.06591262818
0.09993184189 0.005984133406 0.0625411767
0.1080937112 -0.008219363745 0.06575360573
0.1071475907 -0.00331309883 0.06577595469
0.1088509485 -0.01100397353 0.06431148909
0.1064613879 -0.0162651205 0.06352218606
0.1042842559 -0.01078382906 0.06558902913
0.1345778838 0.02054214568 0.06275996764
0.1344945998 0.02121363611 0.0636299731
0.1008676921 -0.01016096475 0.06192200834
0.1346717592 -0.0231887087 0.06077495507
0.1286278361 0.02009303315 0.06219732217
0.1233199541 0.01558551465 0.06215059794
0.1347472283 -0.02383463702 0.06165415178
0.1297872354 -0.02300521019 0.06128330111
0.1202950241 0.01471006756 0.06224441761
0.120905344 0.01658505989 0.06253899752
0.1251992956 -0.01880121837 0.06161651362
0.1174339557 0.01684657865 0.0621529673
0.1170115669 0.01500315624 0.06269699971
0.1174455704 0.01349825867 0.06232232964
0.1220598368 -0.01802602226 0.06175902994
0.1229064491 -0.01993989416 0.0621399373
0.1192112608 -0.02039854522 0.06199346048
0.1161958027 0.01612462777 0.06223895151
0.1136583777 0.01102948677 0.06248577256
0.1186001252 -0.01834066277 0.06252055417
0.1189205251 -0.01674630464 0.06198402779
0.1099737686 0.008935816418 0.06307511513
0.1082692387 0.007819196084 0.06329368906
0.1065731482 0.00800878875 0.06450197025
0.1177065586 -0.01962404231 0.06218166656
0.1070159943 0.003616813766 0.06445295937
0.1143022396 -0.01449311095 0.0626196731
0.1110324106 -0.01311876665 0.06335097431
0.1096178738 -0.01218418863 0.06369655753
0.1078876696 -0.01268785141 0.06487315682
0.1082294162 -0.008248885931 0.06503548356
0.1019814706 0.002323370271 0.06573672694
0.1026976133 -0.006921571617 0.06553130895
0.0999773804 0.004461695851 0.06353348589
0.1002542248 -0.001131889431 0.06440027799
0.1007750214 -0.008815270792 0.0630632097
0.1003226437 -0.003622733175 0.06441275992
0.1330439292 -0.02307875036 0.06034719849
0.1327270197 0.02025910586 0.06196493545
0.1319605653 0.02109072635 0.06256763169
0.1324769502 -0.02398106321 0.06106988315
0.1303249259 0.0207728425 0.06251457219
0.1268243555 0.01968388433 0.06116126057
0.1311211482 -0.02369260092 0.06131856038
0.1236759384 0.01582060605 0.06091809117
0.1282998114 -0.02279572819 0.06036907657
0.1222372188 0.01795177614 0.0621104506
0.1200404222 0.0183592143 0.06069727856
0.1255589345 -0.01915850924 0.06034491806
0.1196565562 0.01403246967 0.06110375548
0.1243720813 -0.02132223091 0.06163760173
0.1222050578 -0.02217180237 0.0602997217
0.1169049612 0.01290364921 0.06133190143
0.1212340548 -0.01755075023 0.06053393599
0.1181593466 -0.01635033991 0.06096184385
0.1143797115 0.01695188338 0.06031528588
0.1128069936 0.01090353859 0.06074343798
0.1154475024 -0.02083415628 0.06018530211
0.1074096177 0.00622680026 0.06177850454
0.1067555525 0.004889186209 0.06296520164
0.1134416561 -0.01433134366 0.06090541703
0.1037016525 0.000450559804 0.06310825076
0.1027122949 0.0100351047 0.06177848271
0.1087305287 -0.0108810036 0.06223734254
0.1081252684 -0.009609646992 0.06356618591
0.1039688091 -0.005257551768 0.0632648388
0.1038766343 -0.01436586324 0.06121724041
0.1310742493 0.02039273947 0.06165905916
0.131673525 -0.02331944705 0.06033737148
0.1294012974 -0.02140692751 0.05990303157
0.1281921512 0.01843704433 0.06077756862
0.128366285 0.01917377441 0.06090140793
0.1258480575 0.01904017641 0.05985576934
0.1255471381 0.0195544039 0.06063904336
0.1256225114 0.01815359027 0.059711245
0.1235055612 0.0168483815 0.05976088961
0.121966199 0.01873300412 0.0605521057
0.1295330475 -0.02215681462 0.05997871365
0.127506023 -0.02228249538 0.05916172893
0.1272505093 -0.02279338541 0.05993932661
0.1177592498 0.01341931266 0.06012499383
0.127304178 -0.0214237147 0.05907217531
0.1254535449 -0.020380045 0.05917704648
0.1242110097 -0.02227902247 0.06006139901
0.1190907496 -0.01723306217 0.05953759152
0.112450971 0.01638879949 0.05981699316
0.1077711962 0.01451775175 0.05846030876
0.1042581142 0.01180675576 0.06026477327
0.1131704244 -0.02031633803 0.05953971979
0.1082882407 -0.01795146939 0.05868912391
0.1051200949 -0.0159162389 0.05970704193
0.09940992675 0.002835783874 0.06231488601
0.12314652 0.01814705497 0.0595621851
0.1213409359 0.01808666112 0.0595336914
0.1196163879 0.01634470251 0.05884877352
0.1191614244 0.01765952001 0.05878016249
0.1187189455 0.01533046816 0.05904090179
0.11745216 0.01717499922 0.05883818988
0.1163028733 0.01369165338 0.05915739579
0.09979433232 -0.007255247867 0.06191409915
0.1137743328 0.01671757025 0.05919785747
0.1116101337 0.01616020972 0.05886645341
0.1100438578 0.01002933652 0.05966264991
0.1091536443 0.008605758036 0.06046668748
0.1252209717 -0.0217134278 0.05902010493
0.1028198657 0.002914123692 0.06032862409
0.102142122 0.0007514946437 0.06052144983
0.1234420189 -0.02195291315 0.0589868905
0.09973864022 0.004625936319 0.05948096421
0.1213761805 -0.02050149653 0.05818183525
0.1210038895 -0.02200160071 0.05820911827
0.1166790073 0.01479172223 0.05873252374
0.1202752244 -0.01942827773 0.05839511179
0.1189720904 -0.02145559925 0.05837251299
0.1173227052 -0.01762572912 0.05869953268
0.1146937283 0.01280365997 0.05924010536
0.1167210731 0.01642716418 0.05859837691
0.1146066452 -0.02073239487 0.05892379104
0.1139263914 0.0152410067 0.05842405038
0.1123667091 0.01577505874 0.05843896067
0.1122012899 -0.01988863167 0.05861588848
0.1109118724 -0.01358571728 0.05996465576
0.1101980498 0.0123925715 0.05799902964
0.1101708254 -0.01254385687 0.06073133461
0.1031630716 -0.00770436569 0.0601951838
0.1021815098 -0.005513971151 0.06050828125
0.1054551297 0.01217637976 0.05807757248
0.1030432885 0.009686819784 0.05914572587
0.1021914647 9.044513418e-05 0.05763430524
0.1000394491 -0.008924287487 0.05861096005
0.1120630482 0.01411468143 0.05771460886
0.1091070942 0.01427505016 0.05747739904
0.1084531171 0.01221158592 0.05730078843
0.1178353923 -0.01889403882 0.05819404783
0.1154067199 -0.0165789123 0.05898235341
0.1180266146 -0.02066959068 0.05808276451
0.1146315722 -0.01919306001 0.05796346125
0.1078546516 0.008236271466 0.05898919115
0.1129603614 -0.01954094442 0.05809293702
0.105415736 0.005865634126 0.05867103259
0.1035255563 0.003864373881 0.05843160253
0.1108215741 -0.01567307596 0.05819253732
0.100318057 0.004739467872 0.05760320063
0.106260517 -0.01615618955 0.05768358431
0.1065306298 0.0114517195 0.05701683974
0.1069403911 0.009814897692 0.05727612388
0.1057996874 0.01152179837 0.05721063871
0.1070579049 0.01334006271 0.05736902935
0.1039310578 -0.01412975472 0.05816442574
0.1054748995 0.008371538398 0.05711350284
0.1043858695 0.006457625318 0.05718973413
0.1052135341 0.009390473917 0.05700217398
0.1020558777 -0.004408390202 0.05754383877
0.1042793348 0.009177706693 0.05726716593
0.1125761044 -0.01757026613 0.05746796342
0.1027922108 0.007872075788 0.05732704095
0.1027180936 0.002381224165 0.05722335369
0.1096416002 -0.01750392693 0.05772258382
0.1015013935 0.006091769185 0.05669932749
0.1091526305 -0.01568825107 0.05743047355
0.1086935177 -0.01247144863 0.05892513655
0.106045841 -0.01058259586 0.0583559712
0.1031131891 0.007179909351 0.05684584815
0.1038738389 -0.008441615922 0.05801398836
0.1005145653 -0.009012554683 0.05661286645
0.1025287726 0.005954673521 0.05624110563
0.1026437096 0.004267422286 0.05621432523
0.1013765889 0.002109732684 0.05593214912
0.1007770457 -0.001007570763 0.05572756892
0.1073481356 -0.01543640829 0.05667635149
0.1003368315 0.002714175208 0.05634477119
0.1076822555 -0.01395205378 0.05683620457
0.1066364867 -0.01563024268 0.05675234919
0.1078137023 -0.01690488096 0.05745249046
0.1062128446 -0.01284046499 0.05627523152
0.1049449851 -0.01099658965 0.05636581283
0.1009799251 0.003115216471 0.05603745774
0.1060096044 -0.01382879337 0.05615169596
0.1050277151 -0.01373789522 0.05620942277
0.1033699925 -0.01238179085 0.05617383953
0.1003494469 6.436784851e-06 0.05572827454
0.09975844286 -0.000665228987 0.05594209689
0.1000200454 -0.001910280248 0.05556753339
0.1028362721 -0.006700098318 0.05680994743
0.1017485089 -0.01055408459 0.05546188012
0.1036339653 -0.01167996671 0.0557257792
0.1028800855 -0.01035819151 0.05512832493
0.1028726805 -0.008550911142 0.0554127637
0.1015337605 -0.006101056341 0.05536981268
0.1007761336 -0.002863496878 0.05564944546
0.1004524422 -0.006724466791 0.05560990056
0.1011335636 -0.007151797491 0.05526560499
0.1004073428 -0.003868847518 0.05547698627
0.09977429376 -0.003204190483 0.0557772452
0.1018577902 -0.002329576808 0.06037480839
0.09900032902 -0.002115227272 0.05941143442
0.1059852846 -0.002298738057 0.06697606293
0.106576947 -0.002262830818 0.06579542495
0.09944728307 -0.00232811927 0.06312929459
0.1033771704 -0.002386847658 0.0634104477
0.1020039259 -0.002171522641 0.05809266707
0.1011315286 -0.001971343714 0.05606895599
0.1017302761 -0.002063688122 0.0569443248
0.1053411684 -0.002332138715 0.06717115905
0.1007463527 -0.00193460153 0.05567776515
0.1025450034 -0.002402327503 0.06604606857
0.09974057831 -0.001923225541 0.05585618747
0.1052225819 -0.002337099409 0.067175652
0.1036868215 -0.002387174493 0.06665315841
0.1009089622 -0.002398080755 0.06491202129
0.1046539612 -0.002360720926 0.06711041022
0.1002534559 -0.002377690841 0.06437592945
3 166 198 128
3 82 83 18
3 109 73 317
3 117 318 317
3 229 183 279
3 10 9 14
3 13 12 15
3 64 32 60
3 78 26 79
3 305 250 285
3 105 104 34
3 41 19 21
3 236 177 251
3 123 46 76
3 8 24 7
3 181 147 255
3 26 10 59
3 73 107 48
3 190 189 198
3 185 184 245
3 233 256 254
3 151 116 114
3 105 178 145
3 99 145 140
3 78 9 26
3 308 304 296
3 204 225 199
3 28 25 23
3 16 33 59
3 52 77 113
3 157 220 156
3 24 55 122
3 26 80 79
3 47 113 48
3 63 32 65
3 210 209 66
3 43 38 46
3 284 304 273
3 53 128 164
3 68 36 19
3 36 69 20
3 141 140 135
3 186 318 117
3 301 289 302
3 81 85 165
3 75 48 107
3 118 74 150
3 42 52 39
3 141 100 99
3 278 275 241
3 253 223 266
3 64 197 167
3 133 129 130
3 86 169 91
3 105 34 62
3 310 309 313
3 108 73 103
3 129 134 170
3 80 26 59
3 39 41 42
3 87 65 64
3 90 89 92
3 86 51 84
3 238 178 209
3 96 36 95
3 96 69 36
3 236 173 139
3 174 135 131
3 71 69 96
3 71 21 69
3 23 25 53
3 189 128 198
3 127 17 50
3 41 112 42
3 221 222 206
3 171 137 172
3 100 141 147
3 205 230 233
3 121 122 55
3 255 147 175
3 160 29 56
3 95 36 68
3 200 166 128
3 125 64 60
3 257 254 256
3 256 238 257
3 87 64 167
3 126 85 63
3 88 129 126
3 88 87 130
3 130 129 88
3 255 275 181
3 250 311 285
3 306 296 295
3 61 106 148
3 133 89 134
3 100 101 99
3 201 170 173
3 89 133 138
3 93 139 90
3 213 193 195
3 104 61 34
3 141 174 175
3 107 146 110
3 146 107 108
3 252 222 251
3 237 218 217
3 163 125 192
3 296 307 308
3 30 33 16
3 10 26 9
3 259 238 241
3 212 319 155
3 191 192 188
3 70 45 114
3 74 114 45
3 295 296 282
3 195 196 213
3 74 45 44
3 142 144 143
3 62 13 15
3 188 192 125
3 126 170 165
3 170 126 129
3 46 44 120
3 231 234 230
3 134 173 170
3 7 9 8
3 130 132 133
3 180 110 146
3 181 102 147
3 3 5 2
3 188 160 159
3 101 104 105
3 125 162 188
3 3 6 5
3 229 115 183
3 194 163 193
3 194 197 125
3 119 15 40
3 309 304 308
3 280 292 242
3 291 263 279
3 46 120 76
3 183 208 248
3 68 39 72
3 57 53 27
3 202 225 203
3 109 103 73
3 68 142 98
3 284 273 245
3 85 81 33
3 119 46 187
3 193 197 194
3 197 193 213
3 213 214 197
3 5 6 23
3 158 189 190
3 169 86 202
3 5 23 4
3 207 71 206
3 235 254 255
3 82 18 2
3 211 119 187
3 78 24 9
3 211 210 119
3 152 113 77
3 238 209 241
3 150 38 67
3 96 206 71
3 136 140 137
3 179 258 224
3 239 232 236
3 258 260 270
3 61 67 38
3 204 128 57
3 225 204 228
3 237 221 218
3 290 280 294
3 215 196 201
3 81 80 59
3 262 278 280
3 260 179 226
3 111 116 151
3 191 195 193
3 311 305 285
3 106 181 148
3 282 245 184
3 44 45 120
3 131 169 174
3 185 151 118
3 102 106 101
3 307 300 305
3 296 306 307
3 92 93 90
3 58 97 94
3 243 253 252
3 252 253 268
3 284 245 282
3 248 274 276
3 274 267 272
3 130 87 167
3 272 265 266
3 19 37 68
3 47 144 39
3 181 242 148
3 181 262 242
3 219 236 232
3 265 272 267
3 317 73 324
3 283 270 271
3 271 286 283
3 299 295 298
3 286 279 276
3 186 117 111
3 290 293 298
3 257 255 254
3 82 49 124
3 120 45 153
3 152 77 154
3 293 264 269
3 257 275 255
3 34 13 62
3 303 289 325
3 61 104 106
3 291 297 301
3 266 270 272
3 92 96 95
3 256 234 238
3 279 183 248
3 279 263 229
3 2 5 0
3 155 152 154
3 182 109 318
3 78 79 121
3 65 87 88
3 141 175 147
3 112 71 207
3 9 7 14
3 157 156 153
3 251 177 243
3 218 215 217
3 283 286 276
3 0 4 50
3 144 68 72
3 142 68 144
3 50 4 22
3 251 240 239
3 91 169 131
3 112 41 21
3 112 21 71
3 33 30 31
3 239 237 232
3 185 118 184
3 247 208 268
3 208 207 268
3 122 56 24
3 96 138 176
3 184 244 281
3 22 4 23
3 138 96 92
3 142 224 223
3 180 179 110
3 20 19 36
3 248 267 274
3 267 248 247
3 68 37 39
3 168 197 214
3 3 2 18
3 81 195 191
3 165 195 81
3 176 218 221
3 261 226 249
3 79 191 159
3 172 228 204
3 241 275 259
3 257 238 259
3 144 72 39
3 78 121 55
3 197 64 125
3 287 288 297
3 297 288 301
3 63 33 32
3 88 126 63
3 265 268 253
3 60 30 29
3 205 235 175
3 218 176 216
3 229 212 115
3 115 212 154
3 114 118 151
3 132 130 167
3 176 138 132
3 177 236 139
3 97 54 131
3 17 2 1
3 97 136 94
3 227 249 226
3 17 127 49
3 145 99 101
3 299 298 293
3 294 278 210
3 316 229 291
3 292 298 295
3 94 171 57
3 293 294 264
3 187 269 211
3 118 150 149
3 39 19 41
3 110 143 144
3 296 284 282
3 10 14 16
3 136 97 135
3 121 160 122
3 93 92 98
3 98 177 93
3 331 48 329
3 38 43 40
3 228 172 231
3 235 205 254
3 22 53 164
3 114 116 70
3 138 133 132
3 184 281 282
3 164 161 22
3 6 51 28
3 177 139 93
3 332 330 155
3 29 30 11
3 103 146 108
3 110 144 75
3 190 199 202
3 290 294 293
3 54 27 28
3 271 287 286
3 52 42 112
3 90 139 134
3 292 280 290
3 226 182 227
3 182 320 227
3 201 232 217
3 267 247 268
3 283 274 270
3 86 28 51
3 80 81 191
3 82 124 83
3 292 295 281
3 300 269 305
3 128 189 164
3 287 297 286
3 195 165 196
3 208 247 248
3 121 79 159
3 159 160 121
3 85 126 165
3 191 193 192
3 14 7 11
3 227 320 315
3 144 47 75
3 230 205 203
3 161 50 22
3 110 75 107
3 75 47 48
3 84 51 18
3 178 231 172
3 98 142 177
3 275 262 181
3 66 105 62
3 153 76 120
3 86 190 202
3 20 21 19
3 262 280 242
3 167 168 132
3 225 230 203
3 314 313 311
3 278 294 280
3 69 21 20
3 274 283 276
3 179 224 143
3 134 139 173
3 194 125 163
3 217 232 237
3 221 206 176
3 18 51 3
3 38 44 46
3 83 158 190
3 91 54 28
3 214 216 168
3 274 272 270
3 115 77 52
3 112 183 52
3 289 301 288
3 183 115 52
3 208 183 112
3 208 112 207
3 167 197 168
3 123 76 156
3 23 6 28
3 261 277 271
3 185 111 151
3 153 156 76
3 299 300 306
3 155 154 212
3 56 29 11
3 137 171 136
3 24 8 9
3 64 65 32
3 201 196 165
3 201 165 170
3 105 209 178
3 200 128 204
3 56 122 160
3 140 141 99
3 14 30 16
3 261 249 277
3 84 190 86
3 12 61 35
3 250 305 187
3 211 294 210
3 275 257 259
3 230 228 231
3 124 127 161
3 312 313 309
3 244 149 148
3 180 226 179
3 201 217 215
3 159 191 188
3 177 223 243
3 134 89 90
3 207 206 222
3 308 312 309
3 179 143 110
3 256 233 234
3 38 40 12
3 224 142 143
3 113 152 48
3 269 300 299
3 173 236 219
3 213 215 214
3 134 129 133
3 219 232 201
3 182 103 109
3 177 142 223
3 115 154 77
3 201 173 219
3 215 216 214
3 54 58 27
3 250 123 220
3 32 31 60
3 24 56 7
3 1 0 17
3 210 241 209
3 55 24 78
3 145 101 105
3 213 196 215
3 297 291 279
3 191 79 80
3 68 98 95
3 148 242 244
3 61 38 35
3 252 207 222
3 189 158 161
3 179 260 258
3 266 258 270
3 298 292 290
3 258 266 224
3 270 260 271
3 266 223 224
3 95 98 92
3 251 243 252
3 239 240 221
3 216 215 218
3 101 100 102
3 136 171 94
3 237 239 221
3 240 222 221
3 17 0 50
3 184 118 149
3 234 233 230
3 178 137 145
3 305 269 187
3 176 132 168
3 14 11 30
3 85 33 63
3 328 48 331
3 138 92 89
3 81 59 33
3 104 101 106
3 94 57 58
3 119 210 66
3 160 188 162
3 261 260 226
3 128 53 57
3 205 174 169
3 65 88 63
3 39 37 19
3 66 62 15
3 150 74 44
3 40 43 119
3 116 111 70
3 131 54 91
3 288 287 277
3 287 271 277
3 7 56 11
3 50 161 127
3 286 297 279
3 281 295 282
3 52 113 47
3 211 269 264
3 302 291 301
3 27 25 28
3 265 267 268
3 276 279 248
3 106 102 181
3 310 325 322
3 222 240 251
3 246 245 273
3 266 265 253
3 243 223 253
3 315 249 227
3 225 228 230
3 288 249 289
3 105 66 209
3 205 233 254
3 271 260 261
3 32 33 31
3 312 305 311
3 307 305 312
3 311 313 312
3 16 59 10
3 29 162 60
3 162 29 160
3 60 162 125
3 192 193 163
3 39 52 47
3 53 22 23
3 182 180 103
3 180 146 103
3 182 226 180
3 269 299 293
3 187 46 123
3 96 176 206
3 277 249 288
3 176 168 216
3 107 73 108
3 205 169 203
3 58 54 97
3 0 1 2
3 306 295 299
3 184 149 244
3 229 263 291
3 97 131 135
3 30 60 31
3 239 236 251
3 124 49 127
3 225 202 199
3 313 314 310
3 38 12 35
3 309 310 273
3 82 2 17
3 268 207 252
3 57 27 58
3 91 28 86
3 57 171 204
3 44 38 150
3 198 166 199
3 190 198 199
3 6 3 51
3 124 158 83
3 281 244 292
3 308 307 312
3 175 235 255
3 117 70 111
3 292 244 242
3 200 199 166
3 18 83 84
3 310 322 273
3 119 66 15
3 284 296 304
3 49 82 17
3 212 229 316
3 171 172 204
3 245 246 186
3 27 53 25
3 190 84 83
3 316 302 327
3 234 231 178
3 302 289 303
3 61 12 34
3 5 4 0
3 46 119 43
3 140 136 135
3 326 330 153
3 199 200 204
3 70 324 45
3 275 278 262
3 150 67 61
3 123 156 220
3 202 203 169
3 148 149 150
3 304 309 273
3 278 241 210
3 319 212 316
3 186 111 185
3 13 34 12
3 118 114 74
3 182 318 320
3 205 175 174
3 158 124 161
3 291 302 316
3 135 174 141
3 306 300 307
3 178 172 137
3 161 164 189
3 145 137 140
3 102 100 147
3 109 317 318
3 148 150 61
3 264 294 211
3 40 15 12
3 178 238 234
3 250 187 123
3 152 155 330
3 326 153 329
3 289 249 322
3 73 48 324
3 117 317 70
3 152 326 329
3 48 152 329
3 326 152 330
3 302 303 327
3 186 185 245
3 48 328 324
3 249 323 322
3 289 322 325
3 273 323 321
3 155 319 332
3 249 321 323
3 249 315 321
3 246 315 320
3 153 45 329
3 317 324 70
3 186 246 320
3 303 325 310
3 332 157 330
3 319 316 220
3 220 316 250
3 315 246 273
3 314 303 310
3 316 327 314
3 157 332 319
3 220 157 319
3 331 329 45
3 316 311 250
3 328 331 45
3 311 316 314
3 324 328 45
3 273 321 315
3 314 327 303
3 330 157 153
3 186 320 318
3 322 323 273
