ply
format ascii 1.0
element vertex 229
property double x
property double y
property double z
element face 458
property list uchar int vertex_indices
end_header
0.1491965 -0.01197822107 0.01304988631
0.1484938598 -0.01123327787 0.01493942206
0.1520361151 -0.01157306567 0.01207381008
0.1575413056 0.007597689203 0.03350287992
0.1553296474 0.00934236766 0.0322028081
0.1556630873 0.007796062259 0.034308598
0.1528324765 0.01322411507 0.02455236456
0.15376348 0.01097644147 0.02870137854
0.1562909602 0.01031207534 0.02818981991
0.1369005168 -0.005004713709 0.0183300185
0.1405359102 -0.007431244424 0.01670672019
0.1382264655 -0.004011610702 0.01550485168
0.1615945819 0.003538753328 0.02156843779
0.1596846279 0.007983041192 0.01410617817
0.1561151784 0.01258468 0.01954108151
0.1384251667 -0.001725082895 0.01257329398
0.1387002728 0.0005441181465 0.01242190933
0.1381929472 0.0006309954191 0.01542459899
0.1432992679 0.007066898218 0.02310716191
0.1448982767 0.00684723122 0.01962428375
0.149140993 0.006991314529 0.01928088488
0.1574005182 0.00373639893 0.03705433226
0.1594982921 0.002976654508 0.0366988862
0.1575176425 0.006755220548 0.03573540992
0.1580736302 0.0008753524091 0.03534724308
0.1521323476 0.00889065896 0.01187335505
0.1559719093 0.007575439184 0.009128184766
0.1546167651 0.006632417871 0.01187958789
0.155265619 0.01273219093 0.02417537801
0.1442201675 0.007473112929 0.01481648614
0.1425217511 0.006174285473 0.02103618195
0.1525741867 0.008546984906 0.0318367384
0.1528405933 0.006936468382 0.03255113613
0.1520053493 0.01440575473 0.01638328765
0.1489432894 0.01358855639 0.01578663927
0.151078269 0.0138438316 0.02167058643
0.1602587048 0.004002508298 0.03549502379
0.1368606586 0.001601598055 0.01819401017
0.1404180243 0.004107495461 0.01651761182
0.1481929817 0.01147926498 0.01331854516
0.1430258489 0.01031475142 0.01466884368
0.1397403865 -0.008116890303 0.01982965701
0.1387579624 -0.008923737668 0.02073328771
0.1532790837 0.005350473627 0.03263189233
0.1519330043 0.004878112238 0.02851205756
0.142473456 0.01114425929 0.01845370219
0.1391795596 0.00785032132 0.01585433702
0.1364725562 0.004282047068 0.0150308899
0.139651736 0.004719619852 0.01964511518
0.1417938564 0.00559200474 0.01798818029
0.1566340736 -0.01361255277 0.02844116668
0.1579228627 -0.01047800995 0.03371471332
0.1557380818 -0.01249694278 0.03249068325
0.1531030813 0.01196342427 0.0132035984
0.1582622552 0.009021941525 0.01202370417
0.1575621905 0.008092887583 0.009820125869
0.1430298228 0.01029923897 0.02262674041
0.1551552458 0.002780067765 0.02958262467
0.156489365 0.0007583764166 0.02904689104
0.1591825319 -0.01053593456 0.01410080908
0.1579227716 -0.01155322982 0.01211070993
0.1593144573 -0.008806079836 0.01046868908
0.1449093397 0.008378497907 0.02537027944
0.1417088552 0.007300025641 0.02270679494
0.1535920667 0.009561431434 0.03207792915
0.1507172097 0.008242757116 0.02864552263
0.1609061221 0.000697043467 0.03566511128
0.1622271109 -0.00136647399 0.03463751101
0.1613371836 -0.006705798116 0.0142285378
0.1613586069 -0.006440380017 0.02152813328
0.1518400634 0.005650935086 0.02195453012
0.1513621026 0.007472045527 0.01460648101
0.1540328505 0.005325870012 0.01677854113
0.1483620361 0.008279996057 0.01473452951
0.1568383542 0.00256898882 0.01375991268
0.1554130966 0.002665628192 0.0199231663
0.1596816917 0.005248353161 0.02877382627
0.1540285368 -0.01286289999 0.03238141054
0.1560666095 -0.01078723222 0.03456270587
0.1530014134 -0.0119338449 0.03214981709
0.1611119093 -0.0005296054151 0.01342290463
0.161023642 0.003457825377 0.01130174128
0.1617722443 0.003836741607 0.01423246551
0.1513804698 -0.01697854721 0.02159653534
0.153213515 -0.01665566736 0.02451713041
0.1427557799 -0.0144163364 0.01854677063
0.154287045 0.01394574531 0.02133712625
0.1434314319 -0.01051452264 0.0233473713
0.1492882405 -0.01015051938 0.01942445078
0.1450595223 -0.01011829093 0.0198206936
0.1374737596 -0.008414075613 0.01981417475
0.1416699948 -0.01229461103 0.02268548838
0.1506792099 0.01095325649 0.02685053157
0.1445032878 0.009405587178 0.02488162468
0.1513383816 -0.01030885372 0.01476806975
0.1539927356 -0.008254055985 0.01686464174
0.1540202963 0.01377545075 0.01660271137
0.159776859 0.006126703524 0.01032362606
0.1594202931 0.004853730886 0.009078626782
0.1539358351 0.00381750267 0.02555804791
0.1474082288 0.007238250049 0.02611697486
0.1490143797 0.006255752907 0.02447602297
0.1432121951 -0.01376341273 0.02274710377
0.1510641399 -0.01460613544 0.02720038016
0.1446936997 -0.01297947741 0.02513390004
0.1585804445 0.002270314271 0.01086559132
0.1592887108 0.003527638534 0.009038218974
0.1510924777 -0.01178657578 0.02894559382
0.1507604442 -0.01009528141 0.0284447489
0.1476617691 -0.01078746914 0.02638995597
0.1415329346 0.008813479345 0.02254111063
0.1556212467 0.001978242522 0.02496198212
0.1564949297 -0.003889227007 0.02902039568
0.1541040954 -0.007079404214 0.02560946829
0.1553057891 -0.005990941736 0.02959826732
0.1504360155 0.006533133981 0.02824443433
0.1379222021 0.007025328249 0.0189400288
0.1628427858 0.0001839953474 0.03250405887
0.160443562 -0.006787516332 0.03554757175
0.1598764017 -0.008286924876 0.0289037857
0.1527077155 -0.016816339 0.01882309891
0.1544875065 -0.01680799436 0.02117294291
0.1409803463 0.00533164274 0.01300151593
0.1436316915 0.00805025918 0.01320944143
0.1402170962 0.00620791304 0.01329769778
0.1602361465 0.0007669882403 0.0118886822
0.1373934793 0.004967283331 0.01968184299
0.1386745934 0.005480998253 0.02057599439
0.1597565542 -0.002827028182 0.03593858484
0.1596378994 -0.005742763656 0.0367378975
0.1610006121 -0.003463149428 0.03569479413
0.1578476332 -0.001468859249 0.01463762857
0.156771365 -0.001481417858 0.01666026104
0.1525029173 0.01395065188 0.01896564721
0.1518735909 0.009766549301 0.02906134247
0.1539865458 -0.01227359144 0.01114940081
0.1571843629 -0.01064291078 0.0100002379
0.1530941155 -0.01454455536 0.01326400838
0.1583648224 -0.005099475712 0.01101379934
0.1600563205 -0.003702719904 0.01194903537
0.1589422811 -0.006304450848 0.009247813713
0.1556595469 -0.01016745524 0.009379675264
0.1590004539 -0.007581910437 0.00927318986
0.1417086575 0.005628797577 0.01408146819
0.1356986783 -0.006425699066 0.01693352316
0.135342128 -0.004501042073 0.01750470082
0.1492045281 -0.009662976484 0.02472326213
0.1522019054 -0.008365698709 0.02863020928
0.1556500675 0.004329372073 0.03595258061
0.1373927293 0.003957398666 0.01302973666
0.1354361207 0.0002824902984 0.012742599
0.1387523062 -0.003967170909 0.01248787697
0.141159969 -0.008604859734 0.01322628849
0.1389468697 -0.007317629579 0.0125895937
0.1584587768 -0.001442742846 0.03350378685
0.1589561359 -0.0011470831 0.03504864587
0.1450068179 -0.01216786169 0.01334927496
0.1462645287 -0.01138957897 0.01363444183
0.1444059234 -0.01059253294 0.01503601514
0.1419283914 -0.008899051202 0.01817797356
0.1519891771 -0.008870517155 0.02204939901
0.1447621716 0.00919256456 0.01314663935
0.1353062034 0.00105716826 0.01741788391
0.1356082165 0.00297103955 0.01681535364
0.1346034473 -0.00175561299 0.01377089739
0.1593149049 -0.001451659808 0.01253651893
0.1630289981 -0.001492556628 0.02327171338
0.1623202645 -0.001505834347 0.01669672684
0.1491278379 0.00919888883 0.01283245541
0.1460995031 0.008444633403 0.01339589345
0.1558216524 0.005992807353 0.03594573007
0.1490705634 -0.01624848261 0.01574131214
0.1433358441 -0.01339495519 0.01478368772
0.1541821242 0.009702425512 0.0109942129
0.1561580424 -0.01525765031 0.01937589374
0.1540509287 -0.01636187439 0.01649645151
0.1377493098 1.225223282e-05 0.01163428715
0.1365416053 -0.0009386244762 0.0112987568
0.1562469623 -0.001584074641 0.02630827447
0.1451214372 -0.01194267318 0.02565826235
0.1418199819 -0.01076891639 0.02291371108
0.1365665082 -0.001706123199 0.01717793926
0.1353392731 -0.001714082006 0.01771565183
0.1521170741 -0.0170262951 0.01629641398
0.1356471463 -0.001761231514 0.01191887685
0.1556980919 -0.005150384642 0.02498613298
0.1418737554 -0.008869619167 0.01430386734
0.1522635533 -0.01325609943 0.02939134126
0.154245801 -0.01437444552 0.02906832843
0.1426430469 -0.009568795833 0.02126153095
0.137557424 -0.00738630889 0.01317367386
0.1404393724 -0.009497807305 0.01350587777
0.1394163148 -0.01119490109 0.01596383182
0.1483501488 -0.0141664208 0.01345086996
0.1365448376 -0.002575755879 0.01129627149
0.1377915897 -0.003486350712 0.01167672901
0.1532351273 -0.01026162902 0.0328390352
0.138784837 0.003924571823 0.01241552598
0.1629227034 -0.002976907268 0.03254247752
0.1380720018 -0.01045729546 0.01904399569
0.1558624566 -0.007271034629 0.03604687319
0.1575738887 -0.006567597071 0.03711842452
0.1581402089 -0.003749241105 0.03535211192
0.1366210007 -0.007720670085 0.01515548064
0.1345493834 -0.00173627564 0.01591772854
0.1544506366 -0.009380743907 0.01206356212
0.1554022272 -0.005701876512 0.0199599917
0.1567433765 -0.00541795864 0.01384443726
0.1381582041 -0.001705598343 0.01438674086
0.1596903867 1.474182610e-05 0.0359148851
0.1610342485 -0.002470031477 0.01343696121
0.1606042906 -0.006318596037 0.011388789
0.1561179948 -0.008897586676 0.03615108033
0.1438755245 -0.01111795469 0.01345345431
0.1578829801 -0.009614412383 0.03593108541
0.1609639745 -0.001387609488 0.03570956762
0.1557471965 -0.00152923969 0.02078891926
0.1589820663 -0.00172671782 0.03506247221
0.1536209755 -0.008613478081 0.03280435585
0.1602376409 -0.00139868483 0.03581960536
0.1369473444 -0.001755264945 0.01141921466
0.1377872668 -0.001745652016 0.01167197131
0.1555717682 -0.01583219387 0.02413996377
0.1597652694 -0.001403974055 0.03591623918
0.1590728314 -0.001428928045 0.03514933877
0.1354876009 -0.003793255977 0.01279577115
0.161058192 -0.001502783233 0.01342834562
0.1629123872 -0.001393506013 0.03248285826
0.1365636701 -0.001757828162 0.01127092243
3 0 1 2
3 3 4 5
3 6 7 8
3 9 10 11
3 12 13 14
3 15 16 17
3 18 19 20
3 21 22 23
3 21 24 22
3 25 26 27
3 28 8 14
3 29 19 30
3 31 32 5
3 33 34 35
3 23 36 3
3 37 17 38
3 34 39 40
3 41 9 42
3 43 32 44
3 45 46 47
3 48 49 30
3 50 51 52
3 53 54 55
3 45 56 6
3 24 57 58
3 59 60 61
3 18 62 63
3 4 7 64
3 31 64 65
3 36 66 67
3 59 68 69
3 70 71 72
3 25 71 73
3 27 74 75
3 14 8 76
3 77 78 79
3 22 66 36
3 80 81 82
3 83 84 85
3 28 86 35
3 87 88 89
3 13 12 82
3 23 22 36
3 90 91 42
3 65 92 93
3 93 62 65
3 94 95 2
3 96 33 14
3 97 98 26
3 49 48 37
3 56 93 92
3 70 72 99
3 100 18 101
3 102 103 104
3 105 26 106
3 34 53 39
3 107 108 109
3 110 63 93
3 111 99 75
3 20 70 101
3 112 113 114
3 44 115 100
3 98 97 81
3 45 116 56
3 117 76 36
3 118 51 119
3 120 121 83
3 122 123 29
3 124 123 122
3 58 57 99
3 125 81 80
3 126 127 110
3 18 63 127
3 128 129 130
3 48 127 37
3 131 132 75
3 34 40 45
3 116 110 56
3 117 12 76
3 110 93 56
3 86 14 133
3 72 75 99
3 93 63 62
3 65 64 134
3 135 136 137
3 138 139 140
3 33 133 14
3 61 141 142
3 37 127 126
3 32 115 44
3 65 134 92
3 16 122 143
3 33 96 54
3 144 90 145
3 74 131 75
3 146 109 147
3 148 24 21
3 149 150 47
3 149 124 122
3 151 152 153
3 24 154 155
3 0 156 157
3 158 10 159
3 160 113 95
3 25 27 72
3 39 161 40
3 143 38 17
3 116 126 110
3 162 163 164
3 47 150 164
3 105 125 165
3 166 167 82
3 168 73 169
3 21 170 148
3 171 85 172
3 168 169 161
3 12 117 166
3 149 46 124
3 125 80 165
3 25 168 173
3 173 168 39
3 168 161 39
3 60 174 175
3 81 106 98
3 149 176 177
3 150 149 177
3 106 26 98
3 44 101 70
3 19 73 20
3 124 46 40
3 134 7 92
3 111 58 99
3 58 178 154
3 163 116 47
3 44 57 24
3 127 63 110
3 33 53 34
3 123 161 169
3 105 106 125
3 106 81 125
3 104 179 180
3 40 123 124
3 181 37 182
3 162 182 37
3 179 107 109
3 143 122 29
3 170 21 23
3 138 140 141
3 5 170 23
3 183 83 171
3 26 25 173
3 3 5 23
3 29 169 19
3 133 35 86
3 184 164 150
3 163 162 126
3 88 146 160
3 121 120 174
3 185 113 112
3 131 74 105
3 87 180 179
3 177 184 150
3 101 44 100
3 27 26 105
3 186 158 152
3 74 27 105
3 18 100 62
3 16 143 17
3 81 97 13
3 65 115 32
3 26 173 55
3 6 56 92
3 187 188 77
3 159 189 158
3 40 46 45
3 190 191 192
3 38 49 37
3 48 30 18
3 148 170 32
3 113 160 147
3 159 9 41
3 147 160 146
3 193 172 156
3 190 194 195
3 196 147 108
3 24 148 43
3 6 92 7
3 5 4 64
3 107 103 187
3 16 197 122
3 82 12 166
3 172 85 192
3 36 76 3
3 198 119 69
3 55 97 26
3 123 169 29
3 2 1 94
3 199 91 90
3 70 20 73
3 197 16 176
3 13 54 14
3 181 17 37
3 33 35 133
3 8 7 4
3 200 201 202
3 126 162 37
3 176 149 197
3 59 174 60
3 80 82 167
3 6 28 35
3 183 174 120
3 199 203 85
3 85 102 199
3 182 162 204
3 28 14 86
3 160 1 88
3 205 206 207
3 12 14 76
3 72 27 75
3 174 119 50
3 168 25 73
3 117 36 67
3 35 45 6
3 147 202 114
3 158 186 10
3 173 53 55
3 29 49 38
3 70 73 71
3 195 153 190
3 149 47 46
3 97 55 54
3 51 78 52
3 163 126 116
3 186 11 10
3 45 35 34
3 208 17 181
3 13 97 54
3 29 38 143
3 209 66 22
3 54 96 14
3 87 42 180
3 22 24 155
3 201 129 202
3 8 4 3
3 62 100 65
3 76 8 3
3 57 44 99
3 116 45 47
3 161 123 40
3 30 19 18
3 0 193 156
3 170 5 32
3 210 68 211
3 61 60 136
3 53 173 39
3 134 64 7
3 190 152 191
3 111 178 58
3 95 113 206
3 158 189 89
3 111 75 178
3 58 154 24
3 193 0 135
3 54 53 33
3 171 172 193
3 211 142 140
3 144 203 199
3 185 206 113
3 64 31 5
3 212 196 78
3 91 104 180
3 49 29 30
3 19 169 73
3 211 59 61
3 162 164 204
3 152 158 213
3 214 51 118
3 84 50 188
3 201 214 129
3 156 172 213
3 2 205 141
3 95 206 205
3 67 66 215
3 214 118 129
3 89 1 157
3 171 193 137
3 114 113 147
3 75 216 178
3 42 91 180
3 101 18 20
3 190 192 203
3 75 132 216
3 208 15 17
3 28 6 8
3 50 52 188
3 207 138 205
3 139 210 211
3 107 196 108
3 119 51 50
3 140 139 211
3 158 89 157
3 87 179 109
3 183 120 83
3 2 95 205
3 151 186 152
3 128 217 129
3 200 196 212
3 136 141 61
3 147 109 108
3 0 157 1
3 198 118 119
3 52 77 188
3 197 149 122
3 153 195 151
3 71 25 72
3 163 47 164
3 84 188 103
3 129 118 130
3 99 44 70
3 43 44 24
3 165 131 105
3 82 81 13
3 31 65 32
3 127 48 18
3 43 148 32
3 199 102 91
3 90 9 145
3 9 90 42
3 218 147 196
3 151 11 186
3 215 66 219
3 220 177 176
3 69 174 59
3 191 172 192
3 209 22 155
3 41 189 159
3 222 121 174
3 109 146 87
3 69 119 174
3 209 155 224
3 176 16 15
3 41 87 189
3 191 152 213
3 91 102 104
3 175 174 183
3 141 136 135
3 10 9 159
3 183 171 137
3 84 83 222
3 201 200 212
3 60 183 137
3 85 171 83
3 187 103 188
3 213 157 156
3 137 136 60
3 218 196 200
3 107 104 103
3 213 158 157
3 142 211 61
3 85 84 102
3 205 138 141
3 172 191 213
3 183 60 175
3 202 112 114
3 104 107 179
3 79 196 107
3 135 0 2
3 84 103 102
3 85 203 192
3 144 199 90
3 65 100 115
3 51 214 78
3 160 95 94
3 89 88 1
3 107 187 77
3 140 142 141
3 141 135 2
3 225 194 190
3 165 80 226
3 160 94 1
3 190 203 225
3 212 214 201
3 166 117 227
3 68 59 211
3 153 152 190
3 78 77 52
3 184 177 228
3 79 107 77
3 222 83 121
3 137 193 135
3 79 78 196
3 222 174 50
3 129 217 202
3 202 218 200
3 146 88 87
3 177 220 228
3 42 87 41
3 117 67 227
3 222 50 84
3 80 167 226
3 189 87 89
3 176 15 221
3 78 214 212
3 66 209 223
3 218 202 147
3 138 165 139
3 194 228 220
3 206 216 132
3 184 225 164
3 185 112 178
3 203 164 225
3 220 221 195
3 208 181 11
3 224 217 128
3 208 11 15
3 68 166 69
3 112 154 178
3 198 67 118
3 165 138 131
3 210 226 167
3 15 11 151
3 112 202 154
3 210 167 68
3 185 178 206
3 206 178 216
3 207 206 131
3 198 227 67
3 139 165 210
3 194 225 184
3 166 68 167
3 69 166 198
3 131 206 132
3 131 138 207
3 195 15 151
3 181 9 11
3 182 204 145
3 145 204 164
3 215 219 130
3 130 219 223
3 195 221 15
3 202 217 154
3 145 164 144
3 166 227 198
3 184 228 194
3 165 226 210
3 145 9 182
3 181 182 9
3 144 164 203
3 67 215 130
3 118 67 130
3 155 154 224
3 217 224 154
3 221 220 176
3 223 209 224
3 219 66 223
3 194 220 195
3 223 224 128
3 128 130 223
