ply
format ascii 1.0
element vertex 395
property double x
property double y
property double z
property double nx
property double ny
property double nz
element face 786
property list uchar int vertex_indices
end_header
0.1241732951 0.0206520397 0.04853445852
0.6875881915 0.5207825583 -0.505972337
0.1249964247 0.02042200387 0.04964890403
0.9406557197 0.1305728659 -0.3132372003
0.1241265066 0.01870303016 0.04756469049
0.8792569258 -0.469977029 -0.07764567361
0.1152162785 -0.01493627609 0.0526157567
0.5454646941 0.5481908482 0.6339992598
0.1114299773 -0.01241712188 0.05346193978
0.6579641415 0.6173940548 0.4311702326
0.1121171833 -0.01396723267 0.05416748199
0.4718317168 0.2589955154 0.8427906941
0.1202119668 -0.01377191706 0.03406054694
-0.08264406618 0.01539050733 -0.9964602805
0.1218960382 -0.01282345115 0.03475987953
-0.1098096272 0.8560208207 -0.5051437423
0.1230684042 -0.01320395624 0.03344205745
-0.3257330175 0.8094817727 -0.4885051288
0.1167161196 -0.01900123459 0.05197182658
-0.2428414047 -0.9623593787 -0.1220347428
0.1150977848 -0.018152335 0.05159048771
-0.5690449234 -0.7952025827 -0.2093817746
0.1157709218 -0.01558740637 0.04374359176
-0.5657851346 -0.7785968782 -0.2714297012
0.1267456824 0.01967455754 0.06100501174
0.3127089826 -0.9242186028 0.2191644737
0.12642621 0.01995342948 0.06236426571
0.6126684076 -0.4426963496 0.6547193019
0.1251997955 0.01967040647 0.06268848792
-0.7050867334 -0.4594568822 0.5401407888
0.124890349 -0.01849241563 0.04138440509
0.472881292 -0.8718677812 -0.1273964513
0.1265343843 -0.01732880105 0.03757252746
0.7092074821 -0.7019396954 -0.06561563353
0.1257519934 -0.01759266522 0.0418239385
0.9757515897 -0.0748951278 0.2056685561
0.1220976794 -0.01423761844 0.03340221629
-0.5719964798 -0.05040324565 -0.8187060156
0.1238309602 -0.01365657782 0.03166861682
-0.7554244262 0.5243547039 -0.3929199419
0.1274189475 -0.01884397187 0.06122820593
-0.8517973704 0.5238025955 -0.008490034085
0.127666365 -0.01884895194 0.05948488017
-0.3895741731 0.920245217 -0.03715783039
0.1265470619 -0.01965195719 0.05921831166
-0.971887069 0.1264519773 0.198608717
0.1277624659 -0.01899362236 0.05780919912
-0.1908566089 0.9815600629 -0.01065822226
0.1290902428 -0.01933184773 0.05923457369
0.5999262573 0.7895760025 -0.1290667348
0.1276912975 -0.01921766099 0.05576266022
0.4233590366 0.8985734246 -0.1154682933
0.1252904726 -0.01641268891 0.0307887831
0.2599652674 -0.9196723799 -0.2943140727
0.1258208571 -0.01699326354 0.03472169942
0.4613739932 -0.8788733085 -0.1213084749
0.1245856533 -0.01733518535 0.03658592871
0.001322984786 -0.9671967981 -0.2540248086
0.1255648774 0.01985442251 0.06021799328
-0.8103720862 -0.5858267302 0.01020412402
0.1161156769 -0.01420829773 0.05051320624
0.492482771 0.7717106076 0.4023971402
0.1113123585 -0.01105060886 0.05103612747
0.6344759573 0.7138452561 0.2964206636
0.1267689442 0.02067680746 0.06165660212
0.8340216028 0.2990416965 0.4636615466
0.1015586055 -0.0006466176483 0.04762964611
-0.1135405858 0.1086488835 0.9875747848
0.1012055155 -0.002055964119 0.04729836367
-0.9452529718 -0.2040044369 0.2547135823
0.1019525413 -0.001862208457 0.0479652225
-0.2294284971 0.4264830604 0.8749141466
0.1150806764 0.01954105121 0.0506956076
-0.3135935394 0.9369854524 -0.1540043965
0.1141998402 0.01580472668 0.04302726898
-0.6217704176 0.7247884505 -0.2967882238
0.1134457563 0.01876572322 0.05039822914
-0.6263144983 0.7432357229 -0.2352250186
0.1272742476 0.02185072801 0.05907328439
0.7436891858 0.6505609914 0.1539376218
0.1266168843 0.02197496481 0.05960664821
0.2750564164 0.9171499204 0.2884094161
0.1275259181 0.02047843244 0.06049614801
0.9241763391 -0.1652899382 0.3443505925
0.1098537364 -0.003429871834 0.03629633777
0.7040408133 0.677069202 -0.2142517886
0.1075069321 -0.001967716989 0.03909108481
0.8359955511 0.4493917628 0.3148943984
0.1090904192 -0.00339179436 0.03845835331
0.7016160922 0.6852515497 0.1953590869
0.1274495971 0.02029216247 0.05822975425
0.657168029 -0.7466441249 -0.103212075
0.1134671409 0.01238577706 0.04538031595
0.5757526246 -0.7582705475 0.3058344193
0.114122368 0.01465101783 0.05017331469
0.5479817754 -0.718930297 0.4276157177
0.1099067921 0.01104391308 0.05071503179
0.6853996494 -0.6543566488 0.3194443562
0.1247517912 -0.01910438791 0.0449786408
0.551489995 -0.8040024831 -0.2223483586
0.1255407099 -0.01775410608 0.04506220266
0.9613574177 0.2713680258 0.04638221683
0.1258707357 0.0212459835 0.06160206658
-0.03240751277 0.9203444101 0.3897639283
0.1254110824 0.02122290409 0.059954384
-0.7124289044 0.6718186151 0.2027431987
0.1255673325 0.01353360909 0.0277111294
0.6899188222 -0.7220407064 -0.0516646598
0.125708967 0.01409266368 0.02972575534
0.7944602152 -0.5827691802 0.1709182526
0.1245450908 0.0129750089 0.02701437356
0.06478021314 -0.9920973329 -0.1074542046
0.1087085011 -0.004969431438 0.0351459057
-0.6434668347 -0.4069044802 -0.648366545
0.1093945102 -0.004032744233 0.03486150991
0.2288876952 0.2365148312 -0.9442834096
0.1117119598 -0.007813260005 0.03333912605
-0.3000085295 -0.1335153451 -0.9445467351
0.1284365938 -0.02103361612 0.05779470149
0.7819898664 -0.6044326504 -0.1521611644
0.1269617786 -0.02143248673 0.05847181783
-0.01132656671 -0.9778717544 0.2088983983
0.1270033645 -0.02160983186 0.05710074392
0.3079454462 -0.9501912608 -0.04802259947
0.1072083569 -0.009111469717 0.05436043666
0.4081903348 0.5233763976 0.747969115
0.108534072 -0.01239799025 0.05540204371
-0.3175992959 -0.3510488833 0.8808492315
0.1106972247 -0.01316713273 0.05517324137
0.4319777947 -0.007452560854 0.9018534494
0.1048627695 -0.003988007284 0.04218580747
-0.7412596493 -0.6351714652 -0.2170053964
0.1082802285 -0.007767841707 0.04455185851
-0.705597923 -0.671578853 -0.2260827622
0.1020324713 -0.002630233075 0.04577034483
-0.8156556371 -0.5124907893 -0.2684382099
0.1218298631 -0.0126079916 0.03807388261
0.3040680542 0.9406896879 0.1504843164
0.1157068038 -0.01029573984 0.03464755235
0.5101263989 0.7672815957 -0.3886515277
0.1185526691 -0.01150068155 0.03779626458
0.465440199 0.8849400313 0.01570229655
0.126421416 -0.02088405775 0.05856127577
-0.7236014657 -0.6194447622 0.3044488552
0.1283962581 -0.02092928202 0.06071527884
0.3417804553 -0.8839945589 0.3189666757
0.1272604246 -0.020261517 0.06103932313
-0.6606621762 -0.7158135249 0.2261337802
0.1247558062 0.02051831256 0.05815358902
-0.9600496051 -0.191698389 0.2038540737
0.1276704694 0.02118662767 0.05841153856
0.9964579168 0.03015890306 -0.07849879427
0.1111372348 0.01161593107 0.04101053204
-0.7158928114 0.6662074759 -0.2089619141
0.1072799948 0.007333223413 0.04419012885
-0.7533031598 0.6092477386 -0.2476924351
0.1071257675 0.009742375146 0.04818609333
-0.7331444014 0.5974170324 -0.3249494978
0.1218393933 -0.01318798382 0.04124212333
0.4202501912 0.8692346736 0.2604243825
0.1250092674 -0.01667592838 0.04482050747
0.6302790418 0.7170784218 0.2975682552
0.1251135242 -0.01556450755 0.04191382441
0.60518014 0.7239348953 0.3311725615
0.1136727128 -0.01720875776 0.0526131838
-0.5884261955 -0.795053355 0.1471216338
0.1111263901 -0.01439785554 0.0511967286
-0.687367401 -0.6795920901 -0.2562823582
0.116376898 0.01664975346 0.05157228987
0.4654829444 -0.542595816 0.6992248629
0.1133497402 0.01550922609 0.05219393429
0.5838716526 -0.484543211 0.6513921783
0.128522947 -0.01852836739 0.06198467835
0.2428493024 0.9518067792 0.1873181022
0.1271078821 -0.01835522574 0.06362194577
-0.7377610487 0.4235277903 0.5256737067
0.1282169822 -0.01865649387 0.06328409161
0.5767836628 0.5090430969 0.6389019736
0.1240699738 0.01830591436 0.04401025177
0.9787704595 -0.1976603016 0.0542106338
0.1243338654 0.01815840347 0.04090295676
0.9672269731 0.1540859792 0.2018154938
0.1234554624 0.01894636716 0.04043757577
0.407022241 0.8997789075 -0.157260335
0.1258926215 0.01976776317 0.05847174082
-0.3201460547 -0.9473516718 -0.005595852237
0.1246223771 0.02172934022 0.05741690423
-0.7682389243 0.5735337885 0.2843729042
0.1086637556 0.01402416396 0.05443689388
-0.374423428 0.7026967421 0.6049994919
0.1070852647 0.01230587087 0.05524183678
-0.3438175998 0.3557721674 0.8690314281
0.1091394703 0.01327944349 0.05489838283
0.4292928151 0.06963381269 0.9004769908
0.1161643355 -0.01003407583 0.0371336511
0.594751658 0.8036704203 0.01960410169
0.1136469527 -0.008014676384 0.03469946058
0.6638548786 0.5820072256 -0.4696427254
0.1142680221 -0.00803655014 0.03614918386
0.7505930777 0.6466472784 -0.1358577527
0.1271246203 -0.01635852128 0.03790900505
0.9694854826 0.08027590796 0.231632635
0.1269375445 -0.01618576203 0.03572368604
0.9842749976 -0.175564894 0.01948582024
0.1269607674 -0.0146051153 0.0355512279
0.793096901 0.5842724631 0.1721133188
0.1045761553 0.00970011363 0.053609454
-0.7790200181 0.5420694853 0.3151007529
0.1039252339 0.008014538626 0.05376336243
-0.6654784348 0.3072605317 0.6802421763
0.1056665764 0.01019166849 0.05459834529
-0.4210672091 0.2575849658 0.8696852251
0.1034799694 0.00566235478 0.05317026127
0.179178613 -0.6183147782 0.7652332061
0.104677982 0.006309772713 0.0527261541
0.646268961 -0.6550083149 0.3915361254
0.1044111276 0.007732317201 0.05401474487
0.01682256096 -0.1589218803 0.9871478296
0.1148078283 0.01020021239 0.03696022754
0.6528176336 -0.7561234828 0.04589570708
0.1133910635 0.008658120271 0.03775621161
0.7279755888 -0.6447873766 0.2330252798
0.1239934574 -0.01588333977 0.03178190398
-0.5061025745 -0.7739564083 -0.3805938282
0.1241718404 -0.01442161421 0.02750437223
-0.5584005187 -0.6526969431 -0.5120308206
0.113884789 0.01108129316 0.03244084512
0.3851202398 -0.4501950917 -0.8056095707
0.1133812354 0.01151770764 0.0322459029
-0.1588761198 0.2968606634 -0.9416114512
0.11539356 0.01306350503 0.03302124071
-0.015615984 0.4120812464 -0.9110132751
0.105692846 -0.01005687686 0.05369601732
-0.7370410441 -0.5876598747 0.3338058881
0.1049240032 -0.008375407871 0.05378928852
-0.6418726699 -0.3330402112 0.6907124534
0.1048481529 -0.008662282682 0.05144307804
-0.7602166311 -0.6386296542 -0.1192595429
0.1225383944 -0.01556785365 0.04864941554
0.441152897 0.8415971888 0.3116059905
0.1256579697 -0.01806314505 0.04875705701
0.841992854 0.5311298448 -0.09459979785
0.1191155221 0.01830953768 0.05214029314
0.3100642639 -0.07425371433 0.9478114465
0.1185650064 0.01942201415 0.05203922953
0.05113181881 0.5952997714 0.801875127
0.1162413721 0.01867918813 0.05245836747
0.1574959132 0.4054503784 0.9004471267
0.1149087916 -0.0120659351 0.04566137055
0.5174185137 0.8088360299 0.2793964181
0.1209700245 -0.01751110851 0.05317052919
0.3024676661 0.1292864366 0.9443507443
0.1180670445 -0.01806306788 0.05349482649
0.1861428492 -0.3616652848 0.9135365682
0.1203757908 -0.01880787342 0.05323027128
0.09431374032 -0.5623483269 0.8215042773
0.1253135588 -0.02121232315 0.05542749619
-0.3608999216 -0.9127061848 0.1916211547
0.1104128135 0.01426841116 0.05383526728
0.4888300635 -0.1944817906 0.8504246011
0.1103984328 0.01534077393 0.0538488509
-0.1311724202 0.4114883775 0.9019263337
0.1229787595 0.01611527184 0.03083771982
-0.5618666106 0.7208477939 -0.4058132204
0.1219151605 0.01669073469 0.03357795834
-0.3676265835 0.8515776385 -0.3737194412
0.1244313786 0.01659070425 0.02981438423
0.1910955744 0.9259961395 -0.325597345
0.1267072031 -0.01396503934 0.03309323585
0.6334559186 0.7445446022 0.2106820699
0.1250731048 -0.01304484994 0.03334129444
0.1105627504 0.9936731907 0.01973495051
0.1259461562 -0.01337443233 0.03551723734
0.4140986104 0.8917226472 0.182628205
0.1061094349 0.01166396752 0.05299255629
-0.7601745016 0.6497037073 0.004451952531
0.1252387992 0.01623653676 0.03801390075
0.7469507961 -0.5060373666 0.4312663815
0.125751679 0.01699136627 0.0371182567
0.9724957582 -9.074900828e-05 0.2329205701
0.123135649 -0.01631989284 0.03457526302
-0.3027633625 -0.8886968217 -0.3443142538
0.1175847327 -0.01526926304 0.03692536229
-0.3574248806 -0.8672248457 -0.3466533163
0.121512008 -0.01532928142 0.03466793961
-0.3956941698 -0.637128295 -0.661433035
0.1037062248 0.008147693828 0.05132850924
-0.8053827402 0.5760121327 -0.1398880437
0.1238622728 0.01376195014 0.03267834614
0.184053989 -0.9814852736 0.05301685532
0.119348289 0.01304297802 0.03526568909
0.3242177189 -0.9425762643 -0.08020509243
0.1204155554 0.01342562936 0.03405608128
-0.04539456003 -0.8781721425 -0.4761859112
0.1029320331 0.005935124524 0.05307153335
-0.5962060118 -0.1704397892 0.7845308597
0.1023856859 0.006267636226 0.05213405012
-0.9051238838 0.3649486744 0.2180899357
0.1022622368 0.005032920232 0.05200375055
-0.8267891563 -0.3554586862 0.4359688216
0.124821404 0.0135017631 0.03001299982
0.2944522984 -0.9342117699 0.2013609022
0.1233965873 0.01368800633 0.03121312181
-0.2832134634 -0.95645489 -0.07059870791
0.1061590903 0.00882986902 0.05433777679
0.4449769522 -0.4660133473 0.7647398722
0.1267458853 0.02123540694 0.05554222447
0.9266896309 0.0574117771 -0.3714164991
0.1266922047 0.02197559832 0.05668244731
0.7351096109 0.6554078966 -0.1733619021
0.1035395644 0.003960817925 0.05018068824
0.452221683 -0.7967832751 0.4007891739
0.1023606496 0.003840491166 0.05013685529
-0.2975711308 -0.8319938194 0.4682282633
0.1018439572 0.002192437995 0.04852066957
-0.6043635351 -0.3886547293 0.6954798479
0.1258093163 -0.02004028661 0.0497189052
0.7250333953 -0.4849719361 -0.4890079722
0.1266372623 -0.01975831629 0.0508486057
0.9481466637 -0.07084703021 -0.3098364125
0.1170961755 0.01205226721 0.03731034901
0.5299746188 -0.8468302139 0.04478272367
0.1202186087 0.01432470581 0.04063165578
0.4834058919 -0.8263135463 0.2890063441
0.1250021304 -0.01333487924 0.0265521677
-0.1214101622 0.2595620942 -0.958064242
0.1259370503 -0.01294178416 0.02716354951
0.4912229048 0.6370583285 -0.5940174609
0.1255709213 -0.01395382524 0.02704353026
0.6182458277 -0.17528027 -0.7661911795
0.1239394494 0.01913937016 0.05149013193
0.1311321034 -0.9460749454 0.2962204739
0.1250155923 0.01952358134 0.0501444055
0.797384639 -0.6033087353 0.01401097197
0.1252185531 0.01961086797 0.052688297
0.4442190896 -0.8925909847 0.07714100338
0.1261100308 -0.01901069572 0.05477702485
-0.3626135964 0.8834235033 0.2967731347
0.125309237 -0.01966531977 0.05545135602
-0.7826509965 0.40144031 0.4757132489
0.122441094 0.01485244922 0.03067987401
-0.8656105313 0.1754208865 -0.4689839237
0.1231679508 0.01458057585 0.02667840588
-0.6048882729 0.5914102111 -0.5332392892
0.1050262134 0.002270478348 0.04691376936
0.756589964 -0.5414263726 0.3666457547
0.10560438 0.001018621424 0.04209319836
0.8338382848 -0.4388152526 0.3348953403
0.1087158699 0.002907571204 0.0384756917
0.7503614632 -0.6242335838 0.2174628874
0.1114415311 0.0168607829 0.05325197545
-0.2725033219 0.6250549779 0.7314698997
0.1118246891 0.01600381722 0.05353463712
0.3637297716 0.01234305362 0.9314227302
0.1251834655 0.01532532206 0.02779618635
0.6022668398 0.6237689256 -0.4981836821
0.1256745482 0.01565248375 0.0296110138
0.9166691889 0.3931751819 -0.0716301229
0.1258968037 0.01445675658 0.02798449787
0.9707452197 -0.02782116971 -0.238494656
0.1293086363 -0.01932775808 0.06154009357
0.9090445053 0.2449717235 0.3370859564
0.1293914056 -0.02012663755 0.05949632184
0.9960337603 0.0413663169 -0.07877547954
0.1245746125 -0.01313135094 0.03191385556
-0.3536427285 0.9297578301 -0.1024070207
0.1246276174 -0.01309006373 0.02931256104
-0.7203974361 0.6917934445 -0.04949105121
0.1101463066 0.01598853558 0.05280404213
-0.6804141319 0.6986834187 0.2210838971
0.1253994146 0.02028065348 0.06301133398
-0.3313755832 0.4224751457 0.8436260866
0.1139726606 -0.01168792978 0.03357249986
-0.6056948402 -0.6931589607 -0.3907229399
0.1146534782 -0.01175915233 0.03291730916
-0.1354369003 -0.3398609983 -0.9306725245
0.1157581458 -0.01370621482 0.0349201878
-0.4115110389 -0.8166266914 -0.4046968147
0.1284521685 -0.02031545068 0.05659166395
0.9287141833 -0.001370283797 -0.3707938619
0.1224711935 -0.01877667764 0.05336204249
-0.04496874889 0.04217439064 0.9980977569
0.1235556269 -0.01746190469 0.05236064413
0.254185293 0.7237564364 0.6415344555
0.1151499877 -0.01126840986 0.033039636
0.3508828762 0.4496168049 -0.8214170293
0.1168321723 -0.01309260493 0.03383165198
0.01591508351 -0.4428210436 -0.8964687577
0.1158316751 0.01538196436 0.03593885181
-0.4204617882 0.8260797145 -0.375238844
0.118428453 0.01931822612 0.04701908379
-0.2622810242 0.8940190456 -0.3632335481
0.1119359061 0.0178671918 0.05160095625
-0.6460981222 0.7536130488 0.1209321679
0.1144333955 0.01932328404 0.05192579937
-0.287055643 0.8490151414 0.4435902924
0.1201313198 0.01567291658 0.03369233189
-0.4412003493 0.583278997 -0.6820028324
0.1234577439 0.02124438316 0.05479453677
-0.8589917837 0.2528939105 0.4451716361
0.1244957823 0.02037135402 0.05635716315
-0.8337344095 -0.4877901361 0.2587425701
0.1099236083 0.01253291961 0.05316161522
0.7015372223 -0.551885766 0.4508521122
0.1259306964 -0.01294353244 0.03066673327
0.2240689063 0.9597088717 0.1695641674
0.1256657512 -0.01256948049 0.02768729245
-0.008598618228 0.9900250486 -0.1406288265
0.1127489551 0.0169039476 0.05300033264
0.3395090225 0.1624967581 0.9264601596
0.1231874617 0.01955450128 0.04392311448
0.4904228096 0.8348306313 -0.2500865549
0.1240348931 0.01923608626 0.04524054239
0.9288767402 0.358134661 -0.09448579869
0.1209303034 0.01643007873 0.04769302636
0.5021176617 -0.7955159669 0.3391639726
0.1082216043 0.004147939305 0.03500947781
-0.6712225724 0.3359565926 -0.660752167
0.1107928975 0.007354127921 0.03298986483
-0.3078557188 0.07886700124 -0.9481586642
0.1089871513 0.003339610602 0.03472432915
0.2468277983 -0.2506860498 -0.9360729365
0.1132552111 0.007849653877 0.0360445445
0.7967562936 -0.5932683527 -0.1149437699
0.1118249279 -0.0155149706 0.05349299877
-0.6267434521 -0.7394517542 0.2457717405
0.1074148262 -0.01193063229 0.05319209653
-0.7097913094 -0.703881701 0.02732852142
0.1276762096 -0.02010722845 0.06264067695
0.03541949569 -0.9067338318 0.4202133001
0.1272743237 -0.01895871876 0.06392883821
-0.3003469893 -0.4177012433 0.8575064765
0.1188893845 -0.01919977654 0.05232991584
0.02524152799 -0.9850923593 0.1701643585
0.1212572032 -0.01962457898 0.05289804734
-0.1317397011 -0.844053324 0.5198255837
0.1234939216 0.02195147233 0.05432697437
-0.4280554805 0.8892593687 0.1612026079
0.1146124931 -0.01628226009 0.05372407314
0.3496983929 -0.1053400051 0.9309213271
0.1132940646 -0.01625959923 0.05398700764
-0.2259501686 -0.6185650052 0.7525449194
0.115174428 -0.01737287092 0.053314937
-0.08574142758 -0.5562340437 0.8265906461
0.1096903823 0.0070298642 0.0428103867
0.6976409863 -0.6516275818 0.2977894372
0.1122221962 0.005930856148 0.03656756164
0.7369827413 -0.6691510004 0.09535920371
0.1116614547 0.008088514728 0.0327531859
0.1521728496 -0.0985555363 -0.9834277961
0.1103425335 0.004142924327 0.03477523935
0.5586991784 -0.5860860843 -0.5868205261
0.1151493396 0.01735293882 0.0523963253
0.3203578196 -0.03767691 0.94654705
0.1133474202 0.01799538797 0.05247287583
-0.1279420903 0.5760489037 0.8073403756
0.1145571995 -0.008740076189 0.03779807253
0.6777309947 0.7046002054 0.2102837355
0.101830008 0.001277626569 0.04572091213
-0.851028989 0.4412236572 -0.2847303006
0.1084768835 0.00144181336 0.03680882929
0.9288254379 -0.3643534071 -0.06730453624
0.1075692094 -0.0003057116364 0.03811643463
0.9613813336 0.04038963236 0.2722399841
0.1080281366 -0.000307967635 0.0366267474
0.9872189053 0.03412931552 -0.155672807
0.1252163027 0.01780283575 0.03671411936
0.6551616024 0.7501021741 -0.09005555621
0.1257382802 0.01675321204 0.03492661163
0.9684838751 0.2487699618 0.0123486766
0.1095313197 0.01466249659 0.05058619942
-0.7356959144 0.61756841 -0.2781380603
0.1053415744 -0.003113167477 0.04707532139
0.7137468333 0.6082634129 0.3472478633
0.105744646 -0.001881964233 0.04214460154
0.7984524758 0.5107150903 0.3188161546
0.1019029306 0.004254633681 0.0497806767
-0.984967215 0.03242473087 0.1696709232
0.1028470913 0.004831629989 0.05237221979
-0.07816622393 -0.798388945 0.5970470115
0.1042614282 -0.006032802647 0.05311393395
0.1317064741 0.6554078036 0.7437029082
0.1038075195 -0.006332181263 0.05296946406
-0.6083373317 0.1520193855 0.7789838235
0.1248127193 0.01496621393 0.03664569796
0.5602077268 -0.7346690505 0.3826600175
0.1257866627 0.01537752047 0.03487174021
0.8341222385 -0.517561712 0.1907091121
0.1260210225 0.01984978725 0.05680285563
-0.1174522169 -0.9928196578 0.02267385621
0.1259605333 0.02005446256 0.05476604114
0.4890574266 -0.8680486251 -0.08552437085
0.1260281597 -0.02094747961 0.05195012936
0.6231678944 -0.7131770646 -0.3209988317
0.1276153422 -0.01976960982 0.05443783685
0.935237517 0.2339504361 -0.2657028045
0.1243364023 0.01974571913 0.05370733713
-0.2962488624 -0.8974615636 0.3268017033
0.129063761 -0.02075176129 0.06020455571
0.7897217666 -0.5879369417 0.1751276218
0.1127127231 0.007700147169 0.03446812934
0.7058642526 -0.5466017654 -0.4505354226
0.1036207391 -0.00530589368 0.05228077661
-0.1382625722 0.8096760518 0.5703579159
0.1029956546 -0.005608331998 0.0519807637
-0.8515173853 0.3073892933 0.4247704849
0.1129103963 -0.006274231973 0.03662148758
0.6850815137 0.7249144921 0.07184913857
0.110789116 -0.007264328165 0.04302254598
0.646936672 0.7113127694 0.2747855284
0.1269329038 -0.01881746253 0.05380070584
0.3770722919 0.9250219763 0.04637704287
0.1020259383 0.003953777062 0.0485585976
-0.8816455938 0.4364235606 -0.1795425374
0.1254808202 -0.01870101007 0.04638033191
0.9529648919 -0.2913157987 -0.0836242804
0.1258816435 0.02059571168 0.05337967871
0.9503216401 -0.1728964219 -0.2588350976
0.1235365347 0.02036475419 0.05442495009
-0.7513920901 -0.4420404961 0.4899082839
0.1224466458 0.01977214599 0.05275689527
-0.3447831219 -0.5295726395 0.7750338176
0.1214632795 0.02071231163 0.05276978683
-0.5015717507 0.6151498807 0.6082897362
0.1230676311 0.0200377245 0.04640797466
0.4295621981 0.8484874635 -0.3091040961
0.1032589559 -0.001528319837 0.04771395444
0.5232090735 0.3940742655 0.7556174552
0.1038329561 -0.003204411557 0.04863677748
0.407707527 0.7075722301 0.577162119
0.126703833 -0.01361732777 0.03039789139
0.7487639856 0.645587132 0.1502323163
0.1252281501 -0.02052751791 0.05586733951
-0.838410742 -0.3008625792 0.4544767718
0.1262736242 -0.01958568048 0.05739715063
-0.8680664827 0.4328376306 0.2431299387
0.1053355688 -0.008041861268 0.05405668037
0.003107089448 0.1923894241 0.9813137396
0.1116879505 -0.009074532146 0.03432338043
-0.6492656234 -0.6424756772 -0.4070370432
0.1260232031 -0.01512163544 0.02862840798
0.647641374 -0.5935086831 -0.4778159623
0.1267876492 -0.01415077527 0.02871010817
0.9662097118 0.09222722101 -0.24069261
0.1265149067 -0.01536957664 0.03042859669
0.9435684796 -0.3258135983 -0.05936348595
0.1260556486 0.01571671069 0.03278309287
0.9900991025 -0.1082494601 0.08936342471
0.1018673578 0.0006260151497 0.04787218935
-0.1978640631 -0.4126928259 0.8891200392
0.1034415816 0.002251048624 0.04852631045
0.4587864516 -0.6554725474 0.5998922665
0.1190432407 -0.01919660651 0.05123851792
-0.08779092546 -0.9766506939 -0.1960769633
0.1025107203 -0.005050167713 0.04871081784
-0.8462670245 -0.5068828373 -0.1640180249
0.1082291717 -0.01005284117 0.04878478064
-0.6862938733 -0.6608542905 -0.3037636026
0.1134995148 -0.01013836258 0.03309896151
-0.1049736458 0.06425268525 -0.9923971615
0.1246956132 -0.01955720581 0.04755216829
0.4919219042 -0.8240569152 -0.280968042
0.105452355 -0.006650317859 0.05278635436
0.5951766494 0.7141281299 0.3684912076
0.1061602242 -0.006251503277 0.05058636816
0.6292406891 0.7155313929 0.3034320039
0.1041783799 -0.004672214498 0.05023471015
0.3910723862 0.8412262229 0.3733642065
0.1233423853 -0.02021358637 0.0538459837
-0.4551550255 -0.6298359759 0.6293969703
0.1239515481 -0.01367063742 0.02753662711
-0.923633448 -0.03743945856 -0.3814440203
0.1245894956 -0.01287645868 0.02741160484
-0.6104024019 0.7325382999 -0.3013246538
0.1266435247 -0.01543922121 0.03873154304
0.706629537 0.5744931927 0.4130765897
0.1161509625 -0.01876670111 0.05308927864
-0.223665925 -0.8524732807 0.4725069944
0.1194404729 0.02011911683 0.05171189436
-0.1947279893 0.8489583936 0.4912745222
0.1206237935 0.01938027881 0.05225560588
-0.04300839077 -0.01140183698 0.9990096478
0.1239243427 -0.01413888853 0.02892708383
-0.9868528338 -0.07690067349 -0.1421540391
0.1235426014 -0.01452066124 0.03151882775
-0.8495452035 -0.2548657491 -0.461861881
0.1247937945 -0.02123519493 0.05251559633
0.07424642267 -0.9807212386 -0.18075763
0.1270647809 -0.01520217858 0.03356120409
0.9791657908 0.1846673855 0.08445300999
0.1228753701 0.01388153128 0.02675785414
-0.9232234405 -0.04452360608 -0.3816754214
0.1228563325 0.01440238342 0.02810988315
-0.9896513898 -0.001234382232 -0.1434872919
0.1261514897 -0.01400620719 0.03730022791
0.5035706941 0.7867360253 0.3570195828
0.1194025312 -0.01267571777 0.03423664531
0.3139968345 0.7057856402 -0.6350374933
0.1167494518 -0.01164848174 0.03382123402
0.4097750424 0.5394509795 -0.7355794011
0.1208365511 -0.01242276123 0.03598344034
0.2533956362 0.960822736 -0.1122956881
0.1242855824 0.02161238753 0.05073001119
0.5687582605 0.746349011 -0.3456547338
0.1251508934 0.02254388668 0.05596159815
0.2365848496 0.9682822492 -0.08035605082
0.1256687688 0.01459425715 0.03241463299
0.686967604 -0.687678819 0.2348900869
0.1211495259 0.01927651196 0.0429754331
-0.1129450679 0.953209394 -0.2804197976
0.123017009 0.02190892872 0.05129301793
0.001347123473 0.9768883643 -0.213745898
0.1021458151 -0.003389464722 0.0486538597
-0.6333212458 0.3650951575 0.6823560108
0.1234892269 0.01351466134 0.02858308567
-0.6668778118 -0.7447391868 -0.02524931221
0.1226936246 0.01410356104 0.030905366
-0.7138732706 -0.5920234506 -0.3740229773
0.121783372 0.01823600852 0.05120010261
0.3064552262 -0.6807967962 0.665282584
0.1182488092 -0.015866493 0.05228933698
0.4229803349 0.5989016094 0.6800033078
0.1171876667 0.01972634964 0.05102473184
-0.04821061245 0.9893669621 0.1372178963
0.112625047 -0.008451867542 0.03313428601
0.1458731789 0.07625284321 -0.9863602382
0.1031765291 0.0004447170398 0.04763065348
0.5501524799 -0.328278709 0.7678315818
0.10111248 0.0006794975875 0.04722203408
-0.9581655682 0.1415610102 0.2487553502
0.1123357703 -0.00565746362 0.03555102936
0.6575979892 0.6943053544 -0.2924123105
0.1094819312 0.002904246631 0.03625412772
0.752705484 -0.6297028514 -0.1921165616
0.1173562092 0.01969939195 0.04985966522
-0.1598875978 0.9602859268 -0.2286632784
0.1251297371 0.02234408031 0.05730816567
-0.08466704659 0.9807271498 0.1760844934
0.1235871929 0.01642099336 0.0410843628
0.6569186118 -0.6653337075 0.3546674431
0.1068689087 -0.01048837421 0.05461768631
-0.4019220615 -0.2584515231 0.8784426371
0.1144081981 0.01029337868 0.03425655324
0.5663506048 -0.7397823133 -0.3632755446
0.1084476931 -0.002364323097 0.03560019021
0.6298604069 0.3100755965 -0.7121298984
0.1086216522 -0.001988179397 0.03696867211
0.8992539621 0.4299180654 -0.08070172733
0.1046990689 -0.0004902073098 0.04321555621
0.949671816 0.04068532285 0.3105932169
0.1040025741 -0.0004963118667 0.04648164726
0.8739647653 -0.1481601214 0.4628543696
0.1040025741 -0.0004963118667 0.04648164726
0 0 0
0.1053560679 0.005682841787 0.0504276993
0.6803526152 -0.6561262784 0.3265250767
0.1169706892 -0.01665326695 0.05322517342
0.315463405 0.09323218676 0.9443466522
0.1105954642 0.00877358204 0.03395281544
-0.6947140535 0.578367897 -0.4276247884
0.1123281975 0.009889089873 0.03265297514
-0.09856470781 -0.1052611 -0.9895479267
0.1265826594 -0.01313653642 0.02838365605
0.6346418805 0.7689330828 -0.07727611376
0.1263433348 -0.01643456009 0.03295317152
0.8525125312 -0.4821267543 -0.2019311193
0.1246984164 0.01429538841 0.0348896956
0.4789830207 -0.8518220236 0.2120719357
0.120182458 0.01354230753 0.03745189609
0.3729958508 -0.9098846009 0.1816152755
0.1238358155 0.01468550593 0.02620707528
-0.040702647 0.6138907169 -0.7883409683
0.1246240101 0.01414955048 0.02625410576
0.6042813157 0.1951280853 -0.7725083313
0.1239488289 0.01356448631 0.02580472511
-0.1008366757 -0.3001279728 -0.9485542498
0.1044713923 0.0029579913 0.04222023397
-0.7861828835 0.570618086 -0.2373003872
0.1028503351 0.0004261223233 0.04212284504
-0.9036213074 0.2691124697 -0.3332371699
0.1019177088 -0.0006872797599 0.04396778053
-0.9337707427 -0.04060842194 -0.3555603412
0.1073656799 0.001348728321 0.03903315417
0.8666733694 -0.3751489438 0.3288472909
0.1140995352 0.01357257216 0.03405703878
-0.47054863 0.7697102136 -0.4314280634
0.1102655306 -0.01386412021 0.05474570909
-0.3220596444 -0.7079183596 0.6285930174
0.1108795645 -0.00473935359 0.034872262
0.5141372806 0.6058401261 -0.6071413331
0.1242669259 -0.01907982943 0.05384763537
-0.3840928172 0.5285278439 0.7570541764
0.1123943076 -0.01177360542 0.04169746942
-0.664117558 -0.7242472444 -0.1855095637
0.1248903053 0.01326933079 0.02646016448
0.5382589665 -0.6181367268 -0.5728736963
0.1200902275 -0.01889625772 0.04832173857
-0.1946300141 -0.9227609422 -0.33261299
0.1266295819 -0.01882328489 0.05134310898
0.7502725185 0.6610861368 -0.007501189113
0.1207892534 0.0146029043 0.03253144918
-0.5732600852 -0.01973793752 -0.819135696
0.1187555645 0.01407251205 0.03321259241
-0.08001436507 -0.05503529992 -0.9952732374
0.1227334514 -0.01885405076 0.04409455095
-0.04148240882 -0.9678721139 -0.2479975421
0.1256222087 -0.01840026349 0.05269109373
0.06008906358 0.962668677 0.2639286318
0.1234867987 0.01733260814 0.04384526408
0.6812685908 -0.6579895561 0.3208159149
0.1232565027 0.01777691834 0.035657897
-0.07030001104 0.9555172588 -0.2864344195
0.1247489579 0.01735457206 0.03377580522
0.3948300976 0.9061869578 -0.1514410496
0.113697812 -0.01541415122 0.05407090468
0.3625545608 0.04601928781 0.9308256634
0.1067728204 0.003895826638 0.03733047571
-0.8174622807 0.4874547022 -0.3068278556
0.1117153085 0.005207807972 0.03546682555
0.7077717557 -0.6529498129 -0.2696584574
0.1285526204 -0.01944585574 0.06266375176
0.8534261184 -0.2205457368 0.4722535742
0.1247828659 -0.01454503935 0.02703734954
0.006073462899 -0.6414983248 -0.7671003926
0.1032768711 -0.006791666681 0.05211298042
-0.8757862725 -0.423724998 0.2312045218
0.105200571 -0.0005763422039 0.03699471962
-0.8389619458 -0.04038624987 -0.5426894179
0.1078452829 0.002206312018 0.03502150828
-0.2506554001 0.03787123886 -0.9673353295
0.1069799697 -0.001481310634 0.03562118387
-0.4321697429 -0.2863876222 -0.8551090241
0.1080945271 -0.002978178004 0.03519128697
-0.2456742481 -0.08883153655 -0.9652735995
0.1042823174 0.0007714501739 0.03844723815
-0.8787329672 0.3857677229 -0.2810900857
0.1121776039 -0.01493561868 0.05428729799
-0.1012178966 -0.3891644814 0.9155904891
0.1234390433 0.01320282768 0.0267048746
-0.5539532869 -0.7856392473 -0.2755117584
0.1015586055 -0.0006466176483 0.04762964611
0 0 0
0.1015594312 -0.0006465725308 0.04762975653
0 0 0
0.1015586055 -0.0006466176483 0.04762964611
-0.1063260803 -0.08352753626 0.990816792
0.112675211 0.01149428174 0.03293179109
-0.6552715158 0.6327926702 -0.4125441517
0.1082359645 0.001717306199 0.03543099778
0.6518399558 -0.2860981304 -0.7023193944
0.1180277363 0.01298866323 0.03347311288
0.3661007585 -0.7011604881 -0.6118367466
0.1217579527 0.01377276905 0.03270602376
-0.2640962546 -0.8474345832 -0.4605516209
0.1254096293 0.0167213932 0.03203018507
0.8145781413 0.5369428991 -0.2194419622
0.1068910355 0.0005957955625 0.03549658832
-0.4512263922 0.2246582373 -0.8636685819
0.1029706873 -0.001794996855 0.04209856747
-0.8807249949 -0.3465179814 -0.3228757841
0.1072115797 -0.004698601738 0.0373565636
-0.7785618723 -0.5569259825 -0.289266073
0.1040025741 -0.0004963118667 0.04648164726
0.8301698448 0.3576692644 0.427657253
0.1154068796 0.01167094118 0.03316498437
0.4497193669 -0.5320374591 -0.7174180324
0.1033840252 -0.0006956343271 0.0395395043
-0.9416674803 -0.04066925441 -0.3340783866
0.1070328109 -0.0004404887154 0.03524168803
-0.2091940928 -0.0242774761 -0.9775727265
0.1077587559 -0.000357621647 0.03539325992
0.6288477561 0.01029896468 -0.777460244
0.1024365378 -0.005170822609 0.04989298932
-0.9800331939 -0.1003298001 0.1716649935
0.102905502 -0.004681200075 0.05021899198
-0.3585805918 0.8231719088 0.4402362636
0.1029078618 -0.0006814473891 0.04211644608
-0.9371591431 -0.04061375792 -0.3465303208
0.1009117105 -0.0007137973738 0.0462610994
-0.9921489213 -0.03895775223 -0.1188394354
0.1015586055 -0.0006466176483 0.04762964611
-0.680562965 -0.01320332563 0.7325706265
0.1011585616 -0.0006809422318 0.04726278323
-0.8465936274 -0.02282338989 0.5317502449
0.1040026339 -0.0004971186309 0.04648246627
-0.4285509784 0.8731798797 -0.2321657957
0.103224324 -0.0005366883508 0.04766693437
0.5645763641 0.03492916268 0.8246414267
0.1044275565 -0.002008069325 0.03834486172
-0.8472713966 -0.45927052 -0.2668365978
3 0 1 2
3 3 4 5
3 6 7 8
3 9 10 11
3 12 13 14
3 15 16 17
3 18 8 19
3 20 21 22
3 23 24 25
3 26 27 28
3 12 14 29
3 3 30 31
3 13 12 32
3 33 34 35
3 36 37 38
3 39 40 41
3 42 43 44
3 12 45 41
3 46 47 48
3 49 15 50
3 14 51 52
3 53 54 55
3 56 57 58
3 59 60 61
3 62 63 64
3 65 66 67
3 68 69 70
3 71 72 73
3 74 29 52
3 52 51 40
3 39 41 75
3 45 75 41
3 76 77 78
3 79 80 81
3 10 82 83
3 47 84 85
3 86 87 88
3 89 90 91
3 29 74 92
3 74 52 93
3 94 95 96
3 97 98 99
3 100 101 102
3 103 104 105
3 106 107 108
3 106 108 104
3 109 46 110
3 26 111 112
3 113 114 115
3 116 117 118
3 50 119 120
3 121 122 123
3 12 92 45
3 119 124 30
3 125 126 127
3 128 60 71
3 94 96 129
3 130 94 129
3 131 132 133
3 134 135 136
3 137 103 105
3 138 139 90
3 140 141 142
3 103 143 104
3 144 145 146
3 147 104 148
3 148 149 147
3 55 150 151
3 105 104 152
3 75 153 154
3 155 156 157
3 154 39 75
3 158 120 159
3 109 160 161
3 162 163 164
3 165 166 167
3 168 169 23
3 170 131 171
3 172 173 174
3 175 130 176
3 129 176 130
3 177 178 179
3 24 180 181
3 19 182 183
3 175 184 130
3 14 13 185
3 186 187 188
3 181 59 189
3 106 147 149
3 155 107 106
3 190 191 125
3 192 193 187
3 194 37 195
3 38 196 197
3 132 198 194
3 199 200 93
3 48 85 201
3 182 135 202
3 45 153 75
3 163 162 203
3 204 175 176
3 89 205 206
3 89 2 207
3 208 209 210
3 74 93 200
3 110 211 109
3 212 213 83
3 87 214 215
3 137 143 103
3 6 8 18
3 107 152 108
3 127 216 217
3 152 96 95
3 199 93 218
3 219 220 221
3 23 25 168
3 46 222 223
3 86 20 87
3 209 224 225
3 85 204 176
3 204 226 227
3 97 228 124
3 78 77 229
3 230 231 232
3 233 139 234
3 184 196 235
3 236 44 237
3 238 156 149
3 156 239 149
3 148 238 149
3 117 240 241
3 138 242 243
3 244 245 45
3 59 246 247
3 86 24 21
3 244 248 245
3 60 249 72
3 225 224 250
3 197 196 227
3 143 137 235
3 251 252 240
3 124 253 254
3 247 255 25
3 148 256 238
3 120 257 50
3 118 83 213
3 258 153 245
3 248 259 260
3 199 218 261
3 206 205 262
3 142 141 188
3 236 263 264
3 202 265 203
3 204 85 84
3 266 71 267
3 240 117 268
3 188 269 186
3 38 235 196
3 270 271 272
3 273 178 133
3 256 148 143
3 2 89 206
3 274 275 157
3 217 216 276
3 157 156 238
3 277 67 278
3 192 279 69
3 267 21 23
3 120 280 257
3 281 282 283
3 217 284 190
3 162 285 286
3 287 17 100
3 288 216 127
3 289 290 261
3 260 261 290
3 289 122 290
3 122 121 290
3 19 291 292
3 70 69 97
3 123 122 197
3 128 284 293
3 294 136 102
3 36 38 197
3 171 295 296
3 92 244 45
3 297 102 136
3 253 44 254
3 298 299 300
3 246 59 61
3 282 281 62
3 153 258 154
3 1 258 167
3 166 1 167
3 154 258 301
3 301 302 154
3 54 303 144
3 195 304 132
3 301 305 302
3 136 68 297
3 264 306 283
3 247 246 159
3 260 165 248
3 258 1 301
3 307 308 296
3 290 309 260
3 191 119 310
3 122 289 311
3 197 122 311
3 26 28 140
3 269 312 279
3 172 275 313
3 313 275 274
3 128 293 61
3 221 220 82
3 256 314 157
3 314 274 157
3 99 315 253
3 210 225 316
3 7 298 300
3 317 289 261
3 289 317 311
3 279 186 269
3 36 311 317
3 60 72 71
3 218 93 318
3 138 319 161
3 84 309 121
3 320 213 63
3 94 137 95
3 117 62 268
3 160 109 321
3 223 222 174
3 42 322 323
3 324 325 326
3 48 327 172
3 318 40 39
3 313 325 172
3 258 245 167
3 225 210 209
3 133 171 131
3 328 310 219
3 12 41 32
3 109 211 250
3 329 330 224
3 224 330 250
3 50 257 49
3 151 150 144
3 59 249 60
3 331 271 163
3 96 201 129
3 195 36 317
3 297 79 287
3 27 26 332
3 278 67 66
3 312 98 279
3 87 73 214
3 166 2 1
3 207 2 166
3 144 333 334
3 305 262 195
3 279 192 187
3 335 336 337
3 37 36 195
3 54 179 178
3 20 86 21
3 229 338 339
3 340 229 339
3 316 174 341
3 292 142 18
3 2 206 262
3 305 0 262
3 37 342 76
3 29 14 52
3 301 0 305
3 302 218 318
3 287 81 17
3 116 320 117
3 231 230 341
3 64 5 4
3 338 229 77
3 228 99 253
3 0 2 262
3 187 186 279
3 50 81 80
3 184 235 137
3 48 222 46
3 93 52 40
3 341 174 173
3 78 235 38
3 29 92 12
3 73 72 214
3 265 135 134
3 264 282 236
3 161 160 334
3 343 64 63
3 57 42 344
3 79 68 70
3 123 197 227
3 14 185 51
3 345 190 284
3 86 180 24
3 157 238 256
3 66 269 346
3 347 55 337
3 205 304 195
3 80 79 119
3 82 220 212
3 188 6 142
3 248 167 245
3 280 348 49
3 22 71 73
3 270 272 26
3 335 177 336
3 41 40 51
3 280 158 293
3 349 159 120
3 350 351 198
3 134 136 294
3 91 304 205
3 48 172 222
3 281 268 62
3 119 349 120
3 293 276 348
3 348 140 352
3 277 306 34
3 334 160 321
3 327 152 107
3 30 3 310
3 353 255 349
3 43 237 44
3 161 319 354
3 305 195 317
3 185 13 32
3 213 116 118
3 133 355 356
3 286 285 183
3 172 324 173
3 34 67 277
3 171 337 295
3 240 268 281
3 98 315 99
3 260 259 199
3 91 90 233
3 45 245 153
3 58 344 312
3 5 357 3
3 11 10 278
3 338 358 339
3 211 223 359
3 161 334 242
3 215 360 88
3 174 316 359
3 112 361 26
3 135 68 136
3 241 362 117
3 345 353 191
3 17 81 50
3 275 172 327
3 292 112 111
3 356 233 234
3 22 267 71
3 193 299 6
3 304 91 355
3 121 226 84
3 363 208 364
3 365 322 366
3 287 79 81
3 90 139 233
3 240 252 241
3 91 233 355
3 314 256 229
3 333 242 334
3 200 244 92
3 363 367 358
3 44 315 42
3 11 188 141
3 104 108 152
3 193 6 188
3 220 368 212
3 58 312 269
3 286 203 162
3 95 105 152
3 24 189 25
3 337 369 295
3 213 320 116
3 370 371 372
3 362 241 252
3 271 270 164
3 246 61 293
3 168 25 255
3 208 358 329
3 89 354 319
3 283 240 281
3 342 373 329
3 214 360 215
3 124 31 30
3 316 225 359
3 374 210 316
3 316 230 374
3 270 26 361
3 374 230 232
3 353 349 191
3 8 182 19
3 139 243 234
3 35 263 33
3 227 196 175
3 146 145 375
3 198 342 194
3 126 288 127
3 360 214 180
3 209 208 329
3 374 364 210
3 63 62 320
3 350 308 376
3 234 273 377
3 377 356 234
3 154 302 318
3 345 168 353
3 219 310 3
3 285 291 183
3 115 114 342
3 196 184 175
3 378 364 374
3 263 35 264
3 57 56 366
3 343 5 64
3 210 364 208
3 9 288 10
3 376 151 144
3 65 379 380
3 54 178 273
3 146 376 144
3 263 236 381
3 231 173 324
3 351 350 376
3 351 376 146
3 284 266 345
3 361 164 270
3 115 351 382
3 344 98 312
3 382 321 113
3 244 200 259
3 114 330 373
3 330 329 373
3 328 221 126
3 257 280 49
3 217 190 127
3 131 198 132
3 170 198 131
3 373 342 114
3 350 170 308
3 202 135 265
3 277 278 118
3 330 114 113
3 113 321 330
3 209 329 224
3 356 377 133
3 145 321 382
3 293 348 280
3 303 333 144
3 308 307 151
3 54 53 179
3 150 55 54
3 219 357 220
3 369 307 295
3 308 170 296
3 295 307 296
3 177 133 178
3 177 335 133
3 9 276 216
3 171 133 335
3 53 347 179
3 85 48 47
3 179 336 177
3 336 179 347
3 358 367 383
3 79 124 119
3 332 26 294
3 337 171 335
3 369 337 55
3 322 57 366
3 378 384 363
3 346 269 188
3 184 94 130
3 111 140 142
3 69 98 97
3 143 148 104
3 18 19 292
3 273 243 333
3 384 378 385
3 362 386 277
3 378 374 385
3 67 379 65
3 11 348 9
3 49 348 352
3 56 269 380
3 183 203 286
3 140 348 141
3 126 221 288
3 16 101 100
3 87 215 88
3 220 357 368
3 353 168 255
3 324 172 325
3 228 97 99
3 3 357 219
3 168 345 169
3 31 236 282
3 307 369 55
3 338 329 358
3 156 155 239
3 284 276 293
3 155 106 239
3 115 342 351
3 138 90 319
3 22 73 20
3 306 386 387
3 354 207 161
3 189 59 247
3 15 49 352
3 98 69 279
3 170 350 198
3 265 271 331
3 101 332 294
3 287 102 297
3 76 342 329
3 97 79 70
3 327 48 152
3 42 315 344
3 337 336 347
3 165 309 166
3 50 15 17
3 266 128 71
3 329 338 77
3 234 243 273
3 152 201 96
3 387 251 283
3 7 135 8
3 306 277 386
3 31 4 3
3 18 142 6
3 104 147 106
3 47 207 84
3 0 301 1
3 376 308 151
3 180 214 72
3 207 47 46
3 226 121 123
3 283 306 387
3 322 42 57
3 107 155 327
3 118 117 362
3 34 306 35
3 31 124 254
3 218 305 261
3 133 132 355
3 260 309 165
3 331 203 265
3 235 78 143
3 111 26 140
3 110 223 211
3 85 129 201
3 309 84 207
3 200 199 259
3 5 368 357
3 242 333 243
3 129 85 176
3 207 166 309
3 310 125 191
3 249 181 180
3 382 351 375
3 276 284 217
3 250 330 321
3 27 101 16
3 212 368 343
3 233 356 355
3 218 302 305
3 212 83 82
3 53 55 347
3 86 360 180
3 290 121 309
3 37 194 342
3 256 143 78
3 77 76 329
3 165 167 248
3 36 197 311
3 345 266 169
3 363 383 367
3 299 298 6
3 274 372 313
3 374 232 385
3 341 173 231
3 112 291 285
3 119 191 349
3 300 68 135
3 349 255 159
3 11 346 188
3 112 285 162
3 266 284 128
3 247 25 189
3 164 163 271
3 267 169 266
3 9 216 288
3 158 280 120
3 340 339 388
3 11 278 346
3 162 361 112
3 386 252 387
3 219 221 328
3 228 253 124
3 124 79 97
3 361 162 164
3 344 58 57
3 8 135 182
3 159 255 247
3 387 252 251
3 203 182 202
3 30 310 119
3 293 158 246
3 80 119 50
3 300 69 68
3 65 380 269
3 37 76 78
3 205 89 91
3 382 113 115
3 346 278 66
3 307 55 151
3 275 155 157
3 46 109 161
3 343 63 213
3 296 170 171
3 222 172 174
3 239 106 149
3 105 95 137
3 183 291 19
3 132 194 195
3 354 89 207
3 320 62 117
3 83 118 278
3 110 46 223
3 256 78 229
3 139 138 243
3 135 7 300
3 359 225 250
3 31 254 236
3 226 204 84
3 377 273 133
3 58 269 56
3 291 112 292
3 150 54 144
3 375 351 146
3 125 310 328
3 242 138 161
3 62 64 4
3 154 318 39
3 321 109 250
3 145 144 334
3 79 297 68
3 10 288 82
3 230 316 341
3 59 181 249
3 299 193 192
3 141 348 11
3 94 184 137
3 318 93 40
3 37 78 38
3 226 123 227
3 269 66 65
3 262 205 195
3 299 192 69
3 249 180 72
3 32 41 51
3 298 7 6
3 368 5 343
3 145 334 321
3 261 305 317
3 51 185 32
3 261 260 199
3 300 299 69
3 342 198 351
3 250 211 359
3 161 207 46
3 223 174 359
3 294 26 272
3 292 111 142
3 155 275 327
3 132 304 355
3 378 363 364
3 74 200 92
3 208 363 358
3 315 98 344
3 90 89 319
3 48 201 152
3 190 345 191
3 204 227 175
3 277 118 362
3 303 54 273
3 248 244 259
3 375 145 382
3 339 358 383
3 340 389 229
3 303 273 333
3 389 314 229
3 127 190 125
3 348 276 9
3 193 188 187
3 100 102 287
3 323 43 42
3 61 60 128
3 278 10 83
3 372 274 314
3 16 28 27
3 101 294 102
3 20 73 87
3 283 251 240
3 390 372 314
3 15 28 16
3 352 28 15
3 134 294 265
3 140 28 352
3 392 326 325
3 283 282 264
3 288 221 82
3 328 126 125
3 23 169 267
3 282 62 31
3 183 182 203
3 254 44 236
3 265 294 272
3 158 159 246
3 35 306 264
3 24 181 189
3 253 315 44
3 332 101 27
3 343 213 212
3 331 163 203
3 17 16 100
3 88 360 86
3 21 24 23
3 362 252 386
3 31 62 4
3 372 390 370
3 372 371 393
3 393 392 325
3 22 21 267
3 265 272 271
3 314 389 391
3 339 383 388
3 56 380 363
3 340 388 379
3 379 383 380
3 340 379 67
3 340 67 389
3 236 237 324
3 231 43 323
3 43 231 237
3 324 326 381
3 380 383 394
3 365 363 384
3 323 232 231
3 324 381 236
3 363 366 56
3 370 33 371
3 392 381 326
3 231 324 237
3 322 385 232
3 363 380 394
3 384 385 365
3 363 394 383
3 33 370 390
3 322 232 323
3 365 385 322
3 390 391 34
3 365 366 363
3 389 67 34
3 393 371 33
3 381 392 393
3 34 391 389
3 379 388 383
3 391 390 314
3 313 372 393
3 313 393 325
3 33 390 34
3 263 393 33
3 263 381 393
