ply
format ascii 1.0
element vertex 36
property double x
property double y
property double z
element face 68
property list uchar int vertex_indices
end_header
0.1328080934 -0.004611359511 0.06462483045
0.1326206417 -0.004104419519 0.06499326202
0.1329201273 -0.003889304171 0.06447649387
0.1322612354 -0.003948882658 0.06455333938
0.1320700025 -0.004811781967 0.06435021017
0.1312052052 -0.004908858989 0.06341903235
0.1329243073 -0.005026922164 0.06319218242
0.1327705255 -0.004325004621 0.063161449
0.1323636295 -0.005589730893 0.06349159417
0.1318818888 -0.004106162549 0.06334817171
0.1312333817 -0.006063112979 0.06284331585
0.1321151452 -0.006069297772 0.06261391074
0.1316231965 -0.004860994229 0.06196791795
0.131343047 -0.006596767797 0.06192191388
0.1310910564 -0.004745433728 0.06208198129
0.1301395373 -0.005705280391 0.06169271191
0.1302419622 -0.005090992814 0.06150555852
0.1319164649 -0.005866019639 0.06177207953
0.131565379 -0.006590625455 0.06112803427
0.1311473756 -0.006204645634 0.06003743164
0.1309964928 -0.007170976798 0.06021009785
0.1302113378 -0.005312127882 0.06028141945
0.1294135676 -0.006757187353 0.05993171245
0.1294686952 -0.005752405222 0.06027764162
0.1296833725 -0.005437444302 0.05900525406
0.1300860045 -0.007245240251 0.05990743553
0.1290241433 -0.006489956277 0.05957022064
0.1303668013 -0.006332536617 0.05899800992
0.1296245026 -0.006687455034 0.0585021565
0.1295405293 -0.007052113634 0.05900679895
0.1289160828 -0.005533517828 0.05884631931
0.1290636496 -0.006905466132 0.058960559
0.1285103803 -0.006787443819 0.0587987621
0.1284891806 -0.005989275777 0.05883012762
0.1287559219 -0.005889986273 0.05785563931
0.1284921307 -0.006437265039 0.05780242435
3 2 1 0
3 1 2 3
3 0 1 4
3 4 1 3
3 4 3 5
3 6 2 0
3 2 6 7
3 8 6 0
3 2 7 3
3 3 7 9
3 4 8 0
3 10 8 4
3 10 4 5
3 5 3 9
3 13 8 10
3 6 8 11
3 11 8 13
3 25 29 28
3 14 9 12
3 5 9 14
3 5 16 10
3 16 5 14
3 17 6 11
3 17 7 6
3 7 17 12
3 18 11 13
3 18 17 11
3 33 26 23
3 12 17 21
3 20 18 13
3 14 12 21
3 13 15 22
3 16 14 21
3 15 16 23
3 19 17 18
3 17 19 21
3 20 19 18
3 13 22 25
3 23 22 15
3 16 21 23
3 23 26 22
3 19 20 27
3 25 27 20
3 19 27 24
3 27 25 28
3 24 27 34
3 21 24 23
3 25 22 29
3 23 24 30
3 22 31 29
3 22 26 31
3 25 20 13
3 26 32 31
3 32 26 33
3 15 13 10
3 33 23 30
3 21 19 24
3 27 28 34
3 24 34 30
3 28 29 31
3 9 7 12
3 32 28 31
3 28 32 35
3 34 33 30
3 33 35 32
3 33 34 35
3 35 34 28
3 10 16 15
