ply
format ascii 1.0
element vertex 36
property double x
property double y
property double z
element face 68
property list uchar int vertex_indices
end_header
0.1524278238 -0.01001631414 0.05083168295
0.1523046595 -0.00925635758 0.05121091398
0.1527176218 -0.008965114297 0.05057561453
0.1517461883 -0.008730954884 0.05080871299
0.1513142581 -0.009868354845 0.05066559167
0.1500036975 -0.009320570016 0.0497369646
0.1521804217 -0.01020014073 0.04922081524
0.1521409863 -0.009186276755 0.04917638337
0.1513737287 -0.01074024701 0.04960854184
0.1510107612 -0.008524756889 0.0495162582
0.149815689 -0.01074091367 0.04898870415
0.1509052009 -0.01098242676 0.04860978202
0.1505016796 -0.00910528004 0.04788559104
0.1498657858 -0.01130895375 0.04785520803
0.1498551885 -0.008777660331 0.04809385035
0.1485657258 -0.009890211939 0.04783142369
0.1487994503 -0.00895935732 0.04759125266
0.1506813148 -0.01047719627 0.04760489077
0.1501932083 -0.01120341591 0.0468819389
0.1498233347 -0.01045611481 0.04560775673
0.149435603 -0.01180413672 0.04579181787
0.1488398379 -0.009103432911 0.04610727053
0.1476425814 -0.01118106419 0.04578915048
0.147858459 -0.00970158722 0.04626990087
0.148196251 -0.009065265178 0.04464635446
0.1483569903 -0.01190147431 0.04561496466
0.1471598008 -0.01068790088 0.04542649063
0.1488836764 -0.01041908402 0.04453065398
0.1479334091 -0.01081103634 0.04407529014
0.1477624767 -0.01146353777 0.04469291117
0.14710039 -0.009103490379 0.04456879172
0.1471401715 -0.0112240695 0.04470363888
0.1464068309 -0.01096264978 0.0445813532
0.1464379447 -0.009745509858 0.04461325129
0.1467339845 -0.009512290631 0.04338069084
0.1463078633 -0.01026631549 0.04340787009
3 2 1 0
3 1 2 3
3 0 1 4
3 4 1 3
3 4 3 5
3 6 2 0
3 2 6 7
3 8 6 0
3 2 7 3
3 3 7 9
3 4 8 0
3 10 8 4
3 10 4 5
3 5 3 9
3 13 8 10
3 6 8 11
3 11 8 13
3 25 29 28
3 14 9 12
3 5 9 14
3 5 16 10
3 16 5 14
3 17 6 11
3 17 7 6
3 7 17 12
3 18 11 13
3 18 17 11
3 33 26 23
3 12 17 21
3 20 18 13
3 14 12 21
3 13 15 22
3 16 14 21
3 15 16 23
3 19 17 18
3 17 19 21
3 20 19 18
3 13 22 25
3 23 22 15
3 16 21 23
3 23 26 22
3 19 20 27
3 25 27 20
3 19 27 24
3 27 25 28
3 24 27 34
3 21 24 23
3 25 22 29
3 23 24 30
3 22 31 29
3 22 26 31
3 25 20 13
3 26 32 31
3 32 26 33
3 15 13 10
3 33 23 30
3 21 19 24
3 27 28 34
3 24 34 30
3 28 29 31
3 9 7 12
3 32 28 31
3 28 32 35
3 34 33 30
3 33 35 32
3 33 34 35
3 35 34 28
3 10 16 15
