ply
format ascii 1.0
element vertex 36
property double x
property double y
property double z
element face 68
property list uchar int vertex_indices
end_header
0.1529957988 -0.01087435028 0.04988177692
0.1528332796 -0.01007484573 0.05027635063
0.1532484395 -0.009715323359 0.04953351533
0.152219794 -0.009686574336 0.04985629512
0.1517901133 -0.01096546218 0.04979734602
0.1503477053 -0.01090057741 0.04879969862
0.1527711507 -0.0113555972 0.04817701576
0.1526483032 -0.01033440522 0.04811794512
0.1519018118 -0.01199327047 0.04867034847
0.15136659 -0.009880059087 0.04852964136
0.1502073633 -0.0124122566 0.04804286583
0.1514071173 -0.01250737792 0.04760872572
0.1508462376 -0.01087342785 0.04689452315
0.1502435493 -0.01309113117 0.04688732744
0.1501253325 -0.01063923642 0.04713484761
0.1485208425 -0.01171909693 0.04692096325
0.1487949436 -0.01086295927 0.04667143023
0.151116505 -0.01217509523 0.04657006368
0.15053996 -0.01302495462 0.04587196591
0.1498483297 -0.01234876944 0.04453993139
0.1493730685 -0.01366190446 0.04481189087
0.1487172901 -0.01096080283 0.04509149219
0.1471308791 -0.01259737271 0.04481092606
0.1475585736 -0.01138496068 0.0453156369
0.1479682561 -0.01076274432 0.04353140326
0.147905727 -0.01345361287 0.04458640475
0.1465417528 -0.01190304444 0.04439791493
0.148671702 -0.01204854099 0.04332570012
0.1475994031 -0.0120773173 0.04275422015
0.1472699512 -0.01257238688 0.04351399294
0.1466382204 -0.0106487485 0.04353653519
0.1464207044 -0.01215902565 0.0435588666
0.1454550434 -0.01179358127 0.04347995464
0.1457015769 -0.01103016013 0.04360703112
0.1461663287 -0.01101859191 0.04218970202
0.1454705901 -0.01136337702 0.04218519593
3 2 1 0
3 1 2 3
3 0 1 4
3 4 1 3
3 4 3 5
3 6 2 0
3 2 6 7
3 8 6 0
3 2 7 3
3 3 7 9
3 4 8 0
3 10 8 4
3 10 4 5
3 5 3 9
3 13 8 10
3 6 8 11
3 11 8 13
3 25 29 28
3 14 9 12
3 5 9 14
3 5 16 10
3 16 5 14
3 17 6 11
3 17 7 6
3 7 17 12
3 18 11 13
3 18 17 11
3 33 26 23
3 12 17 21
3 20 18 13
3 14 12 21
3 13 15 22
3 16 14 21
3 15 16 23
3 19 17 18
3 17 19 21
3 20 19 18
3 13 22 25
3 23 22 15
3 16 21 23
3 23 26 22
3 19 20 27
3 25 27 20
3 19 27 24
3 27 25 28
3 24 27 34
3 21 24 23
3 25 22 29
3 23 24 30
3 22 31 29
3 22 26 31
3 25 20 13
3 26 32 31
3 32 26 33
3 15 13 10
3 33 23 30
3 21 19 24
3 27 28 34
3 24 34 30
3 28 29 31
3 9 7 12
3 32 28 31
3 28 32 35
3 34 33 30
3 33 35 32
3 33 34 35
3 35 34 28
3 10 16 15
