ply
format ascii 1.0
element vertex 157
property double x
property double y
property double z
element face 310
property list uchar int vertex_indices
end_header
0.1550104542 -0.00662053837 0.05087917762
0.1550409015 -0.00528567574 0.05104148032
0.1557095162 -0.004381650577 0.05074032258
0.1550861776 -0.004210875765 0.05088919104
0.1541376295 -0.006798712547 0.05124142259
0.1540299332 -0.005107206689 0.05096253756
0.1534110378 -0.008278180126 0.05098218652
0.1526653697 -0.006129318342 0.05061281779
0.1560799959 -0.004278690728 0.05010522665
0.155092232 -0.005780258891 0.04987101767
0.1556216121 -0.004326034911 0.04970574256
0.155356051 -0.003958059171 0.0501749135
0.154885723 -0.007313050858 0.05006700019
0.1541685803 -0.004787537278 0.050036285
0.1540328493 -0.008828401815 0.05021546312
0.1529926323 -0.005403859198 0.04992372227
0.1530819251 -0.008738873456 0.04997216942
0.1522641426 -0.007495027227 0.04987855769
0.1515262805 -0.006714956847 0.04947113108
0.1517680363 -0.00598357303 0.0496160935
0.1540682465 -0.007681663445 0.04895468105
0.1535238388 -0.005979884404 0.04911772118
0.1534747333 -0.008262906241 0.04843377837
0.1526885841 -0.005848409999 0.04904409337
0.1528340044 -0.008388871801 0.04809097877
0.1524947278 -0.008243490938 0.04893427363
0.1516160519 -0.006173262767 0.04889548501
0.1509242919 -0.007409887359 0.04817650087
0.1511098007 -0.006804503776 0.04840151179
0.1530795902 -0.007479609251 0.0478936411
0.1519856223 -0.006577018446 0.04793367317
0.151778995 -0.008191254007 0.04776850991
0.150939027 -0.006836509336 0.04708404263
0.1503205036 -0.00723316288 0.04688840095
0.1503681534 -0.007918027345 0.04732032207
0.1527726656 -0.008161177978 0.04668225719
0.1523974361 -0.007401983739 0.04641375608
0.1523570266 -0.008976969224 0.04664498881
0.1515359366 -0.006756234465 0.04635274618
0.1511573136 -0.008844247081 0.04662308101
0.1497262372 -0.009095463446 0.04606860584
0.1493676792 -0.008327620599 0.04618041353
0.1527827874 -0.009335416085 0.04503730712
0.1519248519 -0.006202857943 0.04296622659
0.1513832507 -0.01032188749 0.04556800135
0.1497407031 -0.007516850488 0.04434873527
0.1492304356 -0.009161206458 0.04531854624
0.1490406948 -0.008514658573 0.04467088366
0.1523482419 -0.01051089916 0.04465638285
0.1514554849 -0.01171992611 0.04374962913
0.1503724765 -0.01066873149 0.04410768938
0.1510133393 -0.005959453059 0.04231552501
0.1491068633 -0.009119827036 0.04432334922
0.152376952 -0.01101751328 0.04233402475
0.1527786931 -0.006947885659 0.04257510823
0.1518686106 -0.01177255775 0.04319488557
0.1500935218 -0.009993879776 0.04260423307
0.1500777181 -0.007004550088 0.04159611649
0.1529277967 -0.008565732882 0.04252801851
0.1504886238 -0.01182025882 0.04127525503
0.1502906437 -0.006143425812 0.04168103525
0.1501165249 -0.01103457492 0.04099439467
0.1505255832 -0.008527484021 0.04042509025
0.1530809279 -0.007049546029 0.04111170978
0.1531000818 -0.009181275464 0.04109864086
0.1524988341 -0.0059007723 0.04084108466
0.1529082224 -0.01163543835 0.04000734546
0.1511739048 -0.005090136109 0.04065317351
0.1514289978 -0.01227141688 0.04085598414
0.1497965839 -0.00513627198 0.04019239015
0.1498011995 -0.006424247832 0.04045278936
0.1542590145 -0.009418194281 0.03888139325
0.1531215898 -0.005564982442 0.03924027037
0.1515134728 -0.004959089163 0.0391866835
0.1509838807 -0.012725166 0.03927846041
0.1498392531 -0.004832875582 0.03930243922
0.1504598521 -0.008415936736 0.03972758128
0.14929391 -0.005711642192 0.03950339557
0.155215845 -0.007687645935 0.03716090315
0.1537483214 -0.006558330419 0.03911623802
0.1528052221 -0.01279715388 0.03903067521
0.1516431557 -0.01300293104 0.03910104229
0.1505786359 -0.01213836675 0.03911872091
0.149909935 -0.008418796666 0.0378061082
0.1490171651 -0.006438701017 0.03810634241
0.1489039902 -0.005299668626 0.03767767663
0.1479949656 -0.00562190917 0.03663334985
0.154609916 -0.006478878172 0.03708386458
0.1543539885 -0.01191214097 0.03851736049
0.1534827042 -0.005551937206 0.03728953277
0.1527642845 -0.005460807477 0.03590145288
0.1525732877 -0.01313977996 0.03831899996
0.1504052288 -0.009953193124 0.03807313074
0.1498728827 -0.005094739819 0.03701685267
0.1488529312 -0.007781338184 0.03591813014
0.147543426 -0.006906138618 0.03533056711
0.155797106 -0.01275700239 0.03717588626
0.1557105777 -0.01087461828 0.03747723839
0.1545494408 -0.0137087491 0.03716404704
0.152285359 -0.01296517318 0.03763048769
0.1520232791 -0.01212804265 0.03663984407
0.1502587631 -0.009021796364 0.03666812655
0.1483670908 -0.005095900221 0.03632199413
0.146478768 -0.005058000946 0.03550656871
0.1469015102 -0.004913526805 0.03569206109
0.1567378089 -0.01132008755 0.03643755018
0.1560149566 -0.01014762411 0.03652120196
0.1555822048 -0.0134770437 0.03643428912
0.1556023721 -0.008854373977 0.03666993722
0.1552036311 -0.007529288848 0.03624709638
0.1543550795 -0.006411074173 0.03554880739
0.1543581813 -0.01400330354 0.03583821963
0.151249255 -0.01047303687 0.03623257112
0.1478956558 -0.005189197414 0.0351560777
0.1495272681 -0.008698209747 0.03465665156
0.1457374783 -0.005737892696 0.0345233929
0.1457918386 -0.004896765106 0.03461615188
0.1571478987 -0.01147421736 0.03561911832
0.1570032517 -0.01083010404 0.03530242709
0.1564081033 -0.01275758047 0.03554982932
0.1559131574 -0.01331438796 0.03465570048
0.1546100783 -0.0138982049 0.03432977102
0.1535927519 -0.006537451728 0.03454701028
0.1534661849 -0.01310298503 0.03351589817
0.1526341027 -0.01169480384 0.03307409718
0.1521330541 -0.01144156096 0.0344723802
0.1515949523 -0.01053166486 0.03341189439
0.1480435605 -0.006125995817 0.03391515821
0.1458952925 -0.006472330721 0.03397184385
0.1460784443 -0.005552263876 0.03411927512
0.1569436459 -0.01173232139 0.03466441961
0.1543265883 -0.00783697027 0.03425951361
0.1538080228 -0.008092992684 0.03369199957
0.1488676005 -0.006996969289 0.03301041981
0.149434863 -0.008481239753 0.03312024676
0.1466589977 -0.006941372934 0.03329900373
0.1565646062 -0.01188895047 0.03408716961
0.1553380756 -0.0129989411 0.03349970485
0.1551570839 -0.01342916126 0.03362590429
0.1542097916 -0.01336924866 0.03341461686
0.1534080574 -0.01269704097 0.03320650189
0.1526600413 -0.008716207688 0.03195788352
0.1518072359 -0.007610077676 0.0324684077
0.1525584497 -0.01109654762 0.03296028124
0.1519501624 -0.01015491645 0.03202017616
0.1517054531 -0.009607855974 0.03217500741
0.1500499463 -0.007848700427 0.03220887671
0.1509128327 -0.008652792422 0.03224081997
0.1523932648 -0.009011915519 0.03173629965
0.1558926746 -0.01029070599 0.0356283813
0.155123425 -0.009250939905 0.03548209799
0.1558919319 -0.01203732847 0.03377640734
0.1548407566 -0.01129197828 0.03423193273
0.1531767817 -0.01124879132 0.03304348718
0.1530296932 -0.01026755889 0.03298281934
0.1540108738 -0.01240292333 0.03330503489
0.1531262264 -0.008918442979 0.03264845704
3 1 2 3
3 1 4 0
3 5 1 3
3 133 90 122
3 4 1 5
3 7 4 5
3 14 4 6
3 85 84 77
3 9 8 1
3 2 8 11
3 147 142 148
3 11 3 2
3 0 12 9
3 3 11 13
3 14 12 4
3 3 13 5
3 55 48 49
3 13 15 5
3 14 6 16
3 7 5 15
3 17 16 6
3 84 83 76
3 18 17 7
3 15 19 7
3 18 7 19
3 10 8 9
3 142 122 141
3 10 13 11
3 12 14 20
3 12 20 9
3 9 13 10
3 21 13 9
3 22 20 14
3 15 13 21
3 16 22 14
3 22 16 24
3 23 15 21
3 24 16 25
3 84 85 86
3 16 17 25
3 23 19 15
3 19 23 26
3 17 27 25
3 27 17 18
3 18 19 26
3 27 18 28
3 26 28 18
3 101 112 92
3 29 21 20
3 21 29 30
3 23 21 30
3 25 31 24
3 30 26 23
3 25 27 31
3 26 30 28
3 28 32 27
3 34 27 33
3 156 154 148
3 35 22 24
3 35 29 22
3 36 29 35
3 35 24 37
3 30 29 36
3 24 31 37
3 38 30 36
3 39 37 31
3 30 38 32
3 39 31 34
3 34 40 39
3 33 41 34
3 40 34 41
3 42 35 37
3 73 89 90
3 43 38 36
3 37 39 44
3 39 40 44
3 45 33 32
3 51 38 43
3 40 41 46
3 45 41 33
3 45 47 41
3 46 41 47
3 37 48 42
3 49 48 44
3 44 48 37
3 32 38 51
3 97 96 105
3 45 32 51
3 40 52 50
3 40 46 52
3 47 52 46
3 53 42 48
3 53 48 55
3 27 32 33
3 50 52 56
3 120 119 107
3 4 12 0
3 58 42 53
3 58 35 42
3 35 58 54
3 9 1 0
3 49 50 59
3 50 56 59
3 57 52 47
3 45 51 60
3 56 57 62
3 45 60 57
3 56 52 57
3 79 71 78
3 58 64 63
3 63 54 58
3 64 58 53
3 65 54 63
3 54 65 43
3 66 53 68
3 43 65 67
3 6 4 7
3 68 55 59
3 43 67 51
3 153 149 152
3 59 56 61
3 67 69 51
3 61 56 62
3 137 120 138
3 112 82 92
3 57 60 70
3 63 64 79
3 63 72 65
3 66 64 53
3 67 65 73
3 74 68 59
3 67 73 75
3 50 44 40
3 57 76 62
3 75 69 67
3 57 70 76
3 70 60 77
3 69 77 60
3 79 72 63
3 71 64 66
3 68 80 66
3 68 81 80
3 74 81 68
3 74 59 82
3 82 59 61
3 34 31 27
3 76 70 84
3 84 70 77
3 85 77 75
3 73 65 72
3 76 61 62
3 78 87 79
3 66 88 71
3 80 88 66
3 72 79 89
3 72 89 73
3 91 80 81
3 82 61 92
3 76 92 61
3 83 92 76
3 75 73 93
3 94 83 84
3 28 30 32
3 93 85 75
3 94 84 95
3 84 86 95
3 96 97 88
3 88 97 71
3 98 96 88
3 20 21 9
3 98 88 80
3 80 91 98
3 129 113 127
3 11 8 10
3 99 91 81
3 100 99 74
3 74 82 100
3 73 90 93
3 100 82 112
3 68 53 55
3 83 101 92
3 94 101 83
3 85 93 102
3 1 8 2
3 74 99 81
3 102 104 86
3 104 103 86
3 106 97 105
3 78 97 106
3 78 106 108
3 109 78 108
3 107 96 98
3 54 36 35
3 109 87 78
3 110 87 109
3 89 87 110
3 89 110 90
3 91 111 98
3 111 91 99
3 139 123 140
3 123 100 124
3 93 90 113
3 101 94 114
3 113 102 93
3 103 95 86
3 113 104 102
3 115 95 103
3 104 113 116
3 116 103 104
3 115 103 116
3 117 118 105
3 96 119 117
3 105 96 117
3 105 118 106
3 119 96 107
3 107 111 120
3 98 111 107
3 121 111 123
3 90 110 122
3 99 123 111
3 60 51 69
3 100 125 124
3 112 125 100
3 125 112 126
3 112 101 126
3 59 55 49
3 101 114 126
3 127 113 90
3 114 94 128
3 95 128 94
3 115 128 95
3 116 113 129
3 100 123 99
3 115 129 128
3 129 115 116
3 7 17 6
3 117 130 118
3 119 130 117
3 119 120 130
3 155 139 140
3 120 111 121
3 131 110 109
3 110 131 122
3 131 132 122
3 127 90 133
3 126 114 134
3 128 134 114
3 134 128 135
3 135 127 133
3 127 135 129
3 128 129 135
3 136 118 130
3 130 120 136
3 137 136 120
3 75 77 69
3 121 138 120
3 138 121 139
3 89 79 87
3 139 137 138
3 137 139 155
3 139 121 123
3 132 141 122
3 123 124 140
3 47 45 57
3 124 125 143
3 143 125 126
3 126 144 143
3 126 145 144
3 122 142 133
3 102 86 85
3 147 145 126
3 126 134 147
3 146 147 134
3 135 146 134
3 135 133 146
3 142 141 148
3 144 145 148
3 147 148 145
3 146 142 147
3 29 20 22
3 50 49 44
3 118 149 106
3 106 149 108
3 108 149 150
3 79 64 71
3 71 97 78
3 133 142 146
3 108 150 109
3 109 150 131
3 118 151 149
3 152 149 151
3 150 149 153
3 154 131 150
3 131 154 132
3 136 151 118
3 151 136 137
3 155 151 137
3 152 151 155
3 153 152 155
3 43 36 54
3 150 153 154
3 132 156 141
3 155 140 153
3 156 132 154
3 140 124 153
3 143 153 124
3 143 154 153
3 156 148 141
3 144 154 143
3 148 154 144
