ply
format ascii 1.0
element vertex 157
property double x
property double y
property double z
element face 310
property list uchar int vertex_indices
end_header
0.1547092747 -0.006605847246 0.04971768057
0.1547656019 -0.005340192383 0.04989482669
0.1554267984 -0.00455402741 0.04957588204
0.1548042023 -0.004360276363 0.04969156833
0.1536667927 -0.006793102757 0.04997909741
0.1536541135 -0.005147515093 0.04970212446
0.1528474934 -0.008326892302 0.04975591596
0.1521931365 -0.006145849661 0.04934680973
0.1558420458 -0.004519468749 0.04890498818
0.1550194113 -0.005929975737 0.04876563079
0.1554926987 -0.004548679144 0.0484794686
0.1552095271 -0.004174866193 0.04890962196
0.1546181221 -0.007438876298 0.04891464574
0.154043856 -0.00485154017 0.0487235602
0.1534966818 -0.008968062405 0.04893664409
0.1527485912 -0.005346555988 0.04858029788
0.1525574588 -0.008899912825 0.04872506134
0.1518007203 -0.007546319172 0.04865395935
0.1510738019 -0.006665130287 0.04816930404
0.1513908889 -0.0059046149 0.04827498607
0.153982002 -0.008024509686 0.04774828394
0.1534682529 -0.006043106138 0.04782662443
0.1533455031 -0.008640566117 0.04716172094
0.1525124129 -0.005812450689 0.04770211327
0.1526757109 -0.008733649036 0.04679804458
0.1521896333 -0.008464553556 0.04768935227
0.1512663497 -0.006061935329 0.04751981362
0.150513114 -0.007373041206 0.04683821166
0.1507028695 -0.006685287492 0.04701365133
0.1530502264 -0.007774927841 0.04662087232
0.1517918474 -0.006541555574 0.04656915392
0.1515665272 -0.008402437305 0.04647317425
0.1505896804 -0.006676393322 0.04572079501
0.1498591057 -0.007026784276 0.04563241373
0.1499238204 -0.007870789243 0.04609413449
0.1527453898 -0.008561067568 0.04540936781
0.1523494455 -0.007634397916 0.04515472541
0.1521977461 -0.009373599657 0.04536161031
0.1512822202 -0.006693756557 0.04503499927
0.1508494645 -0.009054443931 0.0453869822
0.1491929548 -0.009052195572 0.04499919949
0.1487524785 -0.008114099434 0.0451478879
0.1525950406 -0.009725112646 0.04373795741
0.1513968659 -0.006329037347 0.04178638438
0.1510532365 -0.01051231808 0.04445769875
0.1490924922 -0.007037998395 0.04324649875
0.1485892041 -0.008996324011 0.04433735641
0.1483246708 -0.008120940656 0.04373973243
0.1520630242 -0.01078973581 0.04344744381
0.1508711214 -0.0118577655 0.0426440389
0.1499077872 -0.01077377784 0.04311458738
0.1503751542 -0.005902778129 0.04117992575
0.1484085999 -0.008816052957 0.04339412312
0.151736994 -0.0111556092 0.04096568296
0.1522976681 -0.007170901991 0.0413336148
0.1512121166 -0.01190561495 0.0420059962
0.1494174496 -0.009973535006 0.04157974782
0.1493990692 -0.00686536043 0.04048875914
0.152456379 -0.00880583493 0.04119576218
0.1496880793 -0.01189559205 0.03992801421
0.1496462211 -0.005982220582 0.04053218405
0.1493018334 -0.01106798706 0.0396811981
0.1497616167 -0.008598756711 0.03927866868
0.1524721468 -0.007193410377 0.03989677923
0.1524180911 -0.009257409908 0.03964755301
0.1518426826 -0.00596931685 0.03981050979
0.1520052987 -0.01165042951 0.0383282657
0.1505367721 -0.005028953917 0.03953073451
0.1505858152 -0.01235785024 0.03934802939
0.1492875284 -0.005007102867 0.03895976368
0.1491125494 -0.006342150357 0.03938318666
0.1534147398 -0.009384105878 0.03727874843
0.1524671164 -0.005620770208 0.03817536869
0.1509061575 -0.004973285747 0.03806779381
0.1499462304 -0.0126549954 0.03764772855
0.1493540169 -0.004783671387 0.03806804411
0.1496728542 -0.008519615201 0.03854819294
0.1487062801 -0.005686117795 0.03837567778
0.1545057588 -0.007609435413 0.03565883123
0.153110339 -0.006647997303 0.03788352901
0.1518047888 -0.01284463847 0.03727282701
0.1505744991 -0.01296302175 0.03739168561
0.1495559011 -0.01204120653 0.03753936656
0.1490110941 -0.00852760587 0.03656416097
0.1482754713 -0.006604757593 0.03707696574
0.1482323723 -0.005282499231 0.03658609528
0.1470765028 -0.005641514578 0.03566749104
0.1538887648 -0.00638081564 0.03572594051
0.1534690796 -0.01199025842 0.03678280217
0.1527157747 -0.005401828624 0.03613044078
0.1519839837 -0.005243345252 0.03467847618
0.1515371843 -0.01316033464 0.03656561471
0.1493949789 -0.009936035653 0.03662877762
0.1491383396 -0.004936548821 0.0358839557
0.1478328708 -0.007798320479 0.03483762448
0.1464515994 -0.006808754036 0.03448596358
0.1550669165 -0.0130436136 0.03542732729
0.1549417836 -0.01093624169 0.03578900167
0.1536904333 -0.01392497134 0.03536480702
0.1511376827 -0.01286592604 0.03587580292
0.1507212791 -0.01189617892 0.03495232592
0.1491984105 -0.009023751728 0.03532982685
0.1474335245 -0.004966735765 0.03533061476
0.1452753777 -0.004941658644 0.03495490857
0.1457548851 -0.004782891496 0.03502992198
0.156120452 -0.01149896555 0.03472699645
0.1552576398 -0.01015111524 0.03484259878
0.154804275 -0.0137707415 0.03462994111
0.1548331266 -0.008786606114 0.03505551879
0.1544395886 -0.007440009078 0.03473680948
0.1535491855 -0.006281960273 0.0341457985
0.1534166737 -0.01412877969 0.03404902389
0.1499808217 -0.01031954624 0.0347096097
0.1467728514 -0.0048439037 0.03422477555
0.1483286916 -0.008522129135 0.03346380337
0.1445104043 -0.005382812148 0.03387472106
0.1445088092 -0.004535415329 0.03402648915
0.1565507742 -0.01169764232 0.03386775681
0.1563368607 -0.01093288396 0.03358195557
0.1557214805 -0.01307029275 0.03376250625
0.1550497842 -0.0135242564 0.03280226717
0.1535458755 -0.01390633936 0.03254764645
0.1526699637 -0.006351162603 0.03312682694
0.1520936653 -0.01283778019 0.03188104076
0.1511480875 -0.01143019673 0.03156981793
0.1506627975 -0.01116348026 0.03293647223
0.1501321105 -0.01033803366 0.03201760909
0.1468524633 -0.005416073561 0.03291939006
0.1447684257 -0.00594853672 0.03316627431
0.1448735251 -0.005007138365 0.03331436174
0.1562371887 -0.01192019185 0.03286821711
0.1532890465 -0.007684683756 0.03275002488
0.1526698202 -0.007971736103 0.03220168884
0.1475890567 -0.006160750366 0.03201556432
0.148099389 -0.008067790932 0.03205023581
0.1455405081 -0.006192617078 0.0324554356
0.1557344035 -0.01201229032 0.03226728171
0.1542360116 -0.01296505624 0.03169099374
0.1540501404 -0.01340957702 0.03180515305
0.1529337713 -0.01318246201 0.03170528448
0.1520034204 -0.01242428619 0.03159718201
0.1512677425 -0.008713522917 0.03058570897
0.1505033786 -0.007406616139 0.03123777106
0.1510603229 -0.01089487049 0.03148526958
0.1504448245 -0.01004815099 0.03066791153
0.1502115671 -0.00952354988 0.03087865951
0.1486639117 -0.007396207886 0.03118603245
0.1494657618 -0.008468960624 0.03108424124
0.1509546912 -0.008996898094 0.0303874641
0.1550481217 -0.01026124898 0.03395198232
0.1541607991 -0.009140687123 0.0338618255
0.1549151337 -0.01205912472 0.03198653437
0.1536952652 -0.0111575248 0.03255897109
0.1517298192 -0.01104725286 0.03150250116
0.1515938854 -0.01014725893 0.03149056571
0.152680741 -0.01218471934 0.03164922896
0.1517725429 -0.008878042663 0.03120674476
3 1 2 3
3 1 4 0
3 5 1 3
3 133 90 122
3 4 1 5
3 7 4 5
3 14 4 6
3 85 84 77
3 9 8 1
3 2 8 11
3 147 142 148
3 11 3 2
3 0 12 9
3 3 11 13
3 14 12 4
3 3 13 5
3 55 48 49
3 13 15 5
3 14 6 16
3 7 5 15
3 17 16 6
3 84 83 76
3 18 17 7
3 15 19 7
3 18 7 19
3 10 8 9
3 142 122 141
3 10 13 11
3 12 14 20
3 12 20 9
3 9 13 10
3 21 13 9
3 22 20 14
3 15 13 21
3 16 22 14
3 22 16 24
3 23 15 21
3 24 16 25
3 84 85 86
3 16 17 25
3 23 19 15
3 19 23 26
3 17 27 25
3 27 17 18
3 18 19 26
3 27 18 28
3 26 28 18
3 101 112 92
3 29 21 20
3 21 29 30
3 23 21 30
3 25 31 24
3 30 26 23
3 25 27 31
3 26 30 28
3 28 32 27
3 34 27 33
3 156 154 148
3 35 22 24
3 35 29 22
3 36 29 35
3 35 24 37
3 30 29 36
3 24 31 37
3 38 30 36
3 39 37 31
3 30 38 32
3 39 31 34
3 34 40 39
3 33 41 34
3 40 34 41
3 42 35 37
3 73 89 90
3 43 38 36
3 37 39 44
3 39 40 44
3 45 33 32
3 51 38 43
3 40 41 46
3 45 41 33
3 45 47 41
3 46 41 47
3 37 48 42
3 49 48 44
3 44 48 37
3 32 38 51
3 97 96 105
3 45 32 51
3 40 52 50
3 40 46 52
3 47 52 46
3 53 42 48
3 53 48 55
3 27 32 33
3 50 52 56
3 120 119 107
3 4 12 0
3 58 42 53
3 58 35 42
3 35 58 54
3 9 1 0
3 49 50 59
3 50 56 59
3 57 52 47
3 45 51 60
3 56 57 62
3 45 60 57
3 56 52 57
3 79 71 78
3 58 64 63
3 63 54 58
3 64 58 53
3 65 54 63
3 54 65 43
3 66 53 68
3 43 65 67
3 6 4 7
3 68 55 59
3 43 67 51
3 153 149 152
3 59 56 61
3 67 69 51
3 61 56 62
3 137 120 138
3 112 82 92
3 57 60 70
3 63 64 79
3 63 72 65
3 66 64 53
3 67 65 73
3 74 68 59
3 67 73 75
3 50 44 40
3 57 76 62
3 75 69 67
3 57 70 76
3 70 60 77
3 69 77 60
3 79 72 63
3 71 64 66
3 68 80 66
3 68 81 80
3 74 81 68
3 74 59 82
3 82 59 61
3 34 31 27
3 76 70 84
3 84 70 77
3 85 77 75
3 73 65 72
3 76 61 62
3 78 87 79
3 66 88 71
3 80 88 66
3 72 79 89
3 72 89 73
3 91 80 81
3 82 61 92
3 76 92 61
3 83 92 76
3 75 73 93
3 94 83 84
3 28 30 32
3 93 85 75
3 94 84 95
3 84 86 95
3 96 97 88
3 88 97 71
3 98 96 88
3 20 21 9
3 98 88 80
3 80 91 98
3 129 113 127
3 11 8 10
3 99 91 81
3 100 99 74
3 74 82 100
3 73 90 93
3 100 82 112
3 68 53 55
3 83 101 92
3 94 101 83
3 85 93 102
3 1 8 2
3 74 99 81
3 102 104 86
3 104 103 86
3 106 97 105
3 78 97 106
3 78 106 108
3 109 78 108
3 107 96 98
3 54 36 35
3 109 87 78
3 110 87 109
3 89 87 110
3 89 110 90
3 91 111 98
3 111 91 99
3 139 123 140
3 123 100 124
3 93 90 113
3 101 94 114
3 113 102 93
3 103 95 86
3 113 104 102
3 115 95 103
3 104 113 116
3 116 103 104
3 115 103 116
3 117 118 105
3 96 119 117
3 105 96 117
3 105 118 106
3 119 96 107
3 107 111 120
3 98 111 107
3 121 111 123
3 90 110 122
3 99 123 111
3 60 51 69
3 100 125 124
3 112 125 100
3 125 112 126
3 112 101 126
3 59 55 49
3 101 114 126
3 127 113 90
3 114 94 128
3 95 128 94
3 115 128 95
3 116 113 129
3 100 123 99
3 115 129 128
3 129 115 116
3 7 17 6
3 117 130 118
3 119 130 117
3 119 120 130
3 155 139 140
3 120 111 121
3 131 110 109
3 110 131 122
3 131 132 122
3 127 90 133
3 126 114 134
3 128 134 114
3 134 128 135
3 135 127 133
3 127 135 129
3 128 129 135
3 136 118 130
3 130 120 136
3 137 136 120
3 75 77 69
3 121 138 120
3 138 121 139
3 89 79 87
3 139 137 138
3 137 139 155
3 139 121 123
3 132 141 122
3 123 124 140
3 47 45 57
3 124 125 143
3 143 125 126
3 126 144 143
3 126 145 144
3 122 142 133
3 102 86 85
3 147 145 126
3 126 134 147
3 146 147 134
3 135 146 134
3 135 133 146
3 142 141 148
3 144 145 148
3 147 148 145
3 146 142 147
3 29 20 22
3 50 49 44
3 118 149 106
3 106 149 108
3 108 149 150
3 79 64 71
3 71 97 78
3 133 142 146
3 108 150 109
3 109 150 131
3 118 151 149
3 152 149 151
3 150 149 153
3 154 131 150
3 131 154 132
3 136 151 118
3 151 136 137
3 155 151 137
3 152 151 155
3 153 152 155
3 43 36 54
3 150 153 154
3 132 156 141
3 155 140 153
3 156 132 154
3 140 124 153
3 143 153 124
3 143 154 153
3 156 148 141
3 144 154 143
3 148 154 144
