ply
format ascii 1.0
element vertex 157
property double x
property double y
property double z
element face 310
property list uchar int vertex_indices
end_header
0.1549803187 -0.006742361832 0.05278150182
0.1549833739 -0.005605350601 0.05290778921
0.1557600927 -0.004759683082 0.05257752388
0.1551131065 -0.00461882199 0.05267726884
0.1540327084 -0.007043102109 0.05292417013
0.1539548711 -0.005516599437 0.05262296066
0.1535619436 -0.008653122333 0.05260456512
0.1528955184 -0.006804155988 0.05216830688
0.1560515169 -0.004643918354 0.05204679384
0.1554034827 -0.006138225044 0.05189711466
0.1556103017 -0.004693635012 0.05167371663
0.1554068145 -0.004377994858 0.05199343863
0.1550922742 -0.007440716702 0.05200314524
0.1544243907 -0.005189576328 0.05176386306
0.1542203278 -0.009069985914 0.0518729804
0.1533784739 -0.005901180524 0.0515572355
0.1533440203 -0.009157615706 0.05166120738
0.1526738279 -0.008076955493 0.05153566549
0.1521125253 -0.00742028026 0.05106586801
0.1523322223 -0.006664893706 0.05120856444
0.1546184389 -0.008002903613 0.05095424329
0.1541740495 -0.006434885886 0.05100516524
0.154051387 -0.008650579382 0.05036085307
0.1532863702 -0.006374466928 0.05084640756
0.153426465 -0.008827822417 0.05000987996
0.15293619 -0.008722205439 0.05077117073
0.152229861 -0.006783381729 0.05058222671
0.1515075535 -0.007978810242 0.04988479148
0.1517508929 -0.00742258436 0.0500473157
0.1537658688 -0.007914629618 0.04991902137
0.1526573306 -0.007142835882 0.04980547968
0.1524087667 -0.008670238692 0.04968011327
0.1516755837 -0.007364467566 0.04888364358
0.1510300586 -0.007681714771 0.04875034223
0.1509882624 -0.008335211246 0.04921442343
0.1535091335 -0.008562593959 0.04878121115
0.1531439057 -0.007858985398 0.04855160201
0.1530578753 -0.00938572138 0.04865518922
0.152270836 -0.007265436395 0.04832076088
0.1518358817 -0.009222431256 0.04863762463
0.1504112597 -0.009357825201 0.04819162482
0.1500593526 -0.008630799807 0.04824501773
0.1535080862 -0.009600345055 0.04727194027
0.1525058018 -0.006825155812 0.04535593987
0.1521415291 -0.01037971811 0.0478115309
0.1505121742 -0.007686361807 0.04646405322
0.149938562 -0.009339515008 0.04751010322
0.1497906872 -0.008676438339 0.04689190945
0.1531049395 -0.01051266952 0.04700069001
0.1521627783 -0.01145971721 0.04631374465
0.1512396987 -0.01070144431 0.04656803055
0.1516104375 -0.006549535506 0.04470401369
0.1498652762 -0.009203503097 0.04663392561
0.1531131157 -0.01093325732 0.04494436875
0.1533466173 -0.007389830699 0.04514741795
0.1525349394 -0.01150359533 0.0458114922
0.1509144906 -0.01017319678 0.04515371732
0.1508658888 -0.007418905297 0.04403579171
0.153574834 -0.008771642427 0.04512188709
0.1515973886 -0.01182648369 0.04390641317
0.1510311888 -0.006636513243 0.04407832049
0.1512367757 -0.01115471596 0.04357733431
0.1514583091 -0.008863726361 0.04315964782
0.1537034002 -0.007331413254 0.0439130909
0.1538254466 -0.009208377487 0.04380524151
0.1530795285 -0.006353693604 0.04367590744
0.153875699 -0.01142371211 0.04279939499
0.1519521598 -0.005766622053 0.04323880667
0.1525180885 -0.01213832612 0.04351691898
0.1508738102 -0.005920467082 0.042562906
0.1506996814 -0.0069923172 0.04303770217
0.1550955103 -0.009335618745 0.04194186321
0.153753869 -0.00604538767 0.04225318707
0.1523960993 -0.005813320379 0.04186554169
0.1522956574 -0.0126317912 0.04206607612
0.151028696 -0.005865547511 0.04163970707
0.1514913182 -0.008800717206 0.0424837075
0.1504345978 -0.006609395241 0.04197167809
0.1560610469 -0.007612528912 0.04053617379
0.1544254829 -0.006841208048 0.04219168823
0.1539894844 -0.01257444709 0.04204564285
0.1529108471 -0.01284460507 0.04197666447
0.1519324345 -0.01215982221 0.04186076839
0.1512809217 -0.008979185253 0.04061106643
0.1503778139 -0.007572116994 0.04070094068
0.1503070717 -0.00667652146 0.04006425404
0.149606775 -0.007225735024 0.03894667374
0.1553078321 -0.006627791721 0.04035729353
0.1554166883 -0.01162396462 0.04174476092
0.1541298467 -0.005978367689 0.0404056468
0.1537034596 -0.00601478074 0.03890148074
0.1539168726 -0.01292813501 0.04145560054
0.151742121 -0.01026015034 0.04090569597
0.1511682096 -0.006331497574 0.03950385309
0.1505313411 -0.008677410663 0.03863844049
0.1493523598 -0.008238665621 0.03785259552
0.1571355652 -0.01236459061 0.0408547618
0.1567667649 -0.01049179011 0.0410139974
0.1560263471 -0.013347111 0.04075762822
0.153667586 -0.0127571051 0.04078836561
0.1534047681 -0.01200251446 0.03980373853
0.1517060148 -0.009422377706 0.03956148597
0.1499320281 -0.006705469369 0.03860923347
0.148283578 -0.007142327008 0.03758420305
0.1486459637 -0.006947467377 0.03779717224
0.1580105589 -0.01092029643 0.04022485395
0.1571810164 -0.009827698253 0.04017410266
0.1571241673 -0.01308937661 0.04017947993
0.1566327965 -0.008635412111 0.04017941664
0.1561396255 -0.007510559267 0.03967799655
0.1552643365 -0.006619526405 0.03880010851
0.1561047547 -0.01366876166 0.03961091172
0.1526404162 -0.01064995338 0.03931117393
0.1496455095 -0.006761675951 0.03725793511
0.1512561737 -0.009154577015 0.03767503266
0.1477920142 -0.007698610299 0.03644639624
0.1477844353 -0.007044671168 0.03638844863
0.1585155101 -0.01107603273 0.03954535832
0.1583107811 -0.0104609952 0.03924508703
0.1580121038 -0.0123775226 0.03947640055
0.1576547682 -0.0129285122 0.03867802165
0.1564609013 -0.01352258651 0.03835274648
0.1546820994 -0.006788558681 0.03780331737
0.1553079783 -0.01278498868 0.03750294649
0.1543962389 -0.01158210838 0.03694950905
0.1536625073 -0.01142626282 0.03800678213
0.153274603 -0.01067461281 0.03705739548
0.1500901 -0.007122545145 0.03604508855
0.1481775302 -0.008148604129 0.03600278668
0.1482691319 -0.007366567933 0.03584499316
0.1584732065 -0.01135789204 0.03873168805
0.1555017165 -0.007920952442 0.03784007878
0.1551272484 -0.008253476126 0.03731275652
0.1509021211 -0.007623090665 0.03551816619
0.151284839 -0.008881173206 0.03636182914
0.1490595257 -0.008073032945 0.03548361473
0.1582125025 -0.0115373459 0.03820786045
0.1571606153 -0.01262624216 0.03764685819
0.1570078177 -0.01304679374 0.03775468335
0.1560816451 -0.01302032386 0.03751231082
0.1552494084 -0.01240922466 0.03720695335
0.1543433651 -0.009109868022 0.03580553871
0.1533968264 -0.008088919091 0.03595848862
0.154280323 -0.01107943007 0.03682533723
0.1537855227 -0.01038887165 0.03591175972
0.1534686289 -0.009898944661 0.03597729798
0.1519311226 -0.00833949444 0.0354724355
0.1526545819 -0.009053332939 0.03585931965
0.1541542253 -0.009403220621 0.03561205606
0.1572027125 -0.009992894717 0.03940646513
0.1563431497 -0.009131184655 0.03909780706
0.157607247 -0.01170741533 0.03790066136
0.1563850963 -0.01107835884 0.03814521967
0.1548960163 -0.01117664458 0.03696386959
0.1546841952 -0.01032420204 0.03683375811
0.1557941725 -0.01213409494 0.03733609192
0.1546883783 -0.00914641395 0.03644943099
3 1 2 3
3 1 4 0
3 5 1 3
3 133 90 122
3 4 1 5
3 7 4 5
3 14 4 6
3 85 84 77
3 9 8 1
3 2 8 11
3 147 142 148
3 11 3 2
3 0 12 9
3 3 11 13
3 14 12 4
3 3 13 5
3 55 48 49
3 13 15 5
3 14 6 16
3 7 5 15
3 17 16 6
3 84 83 76
3 18 17 7
3 15 19 7
3 18 7 19
3 10 8 9
3 142 122 141
3 10 13 11
3 12 14 20
3 12 20 9
3 9 13 10
3 21 13 9
3 22 20 14
3 15 13 21
3 16 22 14
3 22 16 24
3 23 15 21
3 24 16 25
3 84 85 86
3 16 17 25
3 23 19 15
3 19 23 26
3 17 27 25
3 27 17 18
3 18 19 26
3 27 18 28
3 26 28 18
3 101 112 92
3 29 21 20
3 21 29 30
3 23 21 30
3 25 31 24
3 30 26 23
3 25 27 31
3 26 30 28
3 28 32 27
3 34 27 33
3 156 154 148
3 35 22 24
3 35 29 22
3 36 29 35
3 35 24 37
3 30 29 36
3 24 31 37
3 38 30 36
3 39 37 31
3 30 38 32
3 39 31 34
3 34 40 39
3 33 41 34
3 40 34 41
3 42 35 37
3 73 89 90
3 43 38 36
3 37 39 44
3 39 40 44
3 45 33 32
3 51 38 43
3 40 41 46
3 45 41 33
3 45 47 41
3 46 41 47
3 37 48 42
3 49 48 44
3 44 48 37
3 32 38 51
3 97 96 105
3 45 32 51
3 40 52 50
3 40 46 52
3 47 52 46
3 53 42 48
3 53 48 55
3 27 32 33
3 50 52 56
3 120 119 107
3 4 12 0
3 58 42 53
3 58 35 42
3 35 58 54
3 9 1 0
3 49 50 59
3 50 56 59
3 57 52 47
3 45 51 60
3 56 57 62
3 45 60 57
3 56 52 57
3 79 71 78
3 58 64 63
3 63 54 58
3 64 58 53
3 65 54 63
3 54 65 43
3 66 53 68
3 43 65 67
3 6 4 7
3 68 55 59
3 43 67 51
3 153 149 152
3 59 56 61
3 67 69 51
3 61 56 62
3 137 120 138
3 112 82 92
3 57 60 70
3 63 64 79
3 63 72 65
3 66 64 53
3 67 65 73
3 74 68 59
3 67 73 75
3 50 44 40
3 57 76 62
3 75 69 67
3 57 70 76
3 70 60 77
3 69 77 60
3 79 72 63
3 71 64 66
3 68 80 66
3 68 81 80
3 74 81 68
3 74 59 82
3 82 59 61
3 34 31 27
3 76 70 84
3 84 70 77
3 85 77 75
3 73 65 72
3 76 61 62
3 78 87 79
3 66 88 71
3 80 88 66
3 72 79 89
3 72 89 73
3 91 80 81
3 82 61 92
3 76 92 61
3 83 92 76
3 75 73 93
3 94 83 84
3 28 30 32
3 93 85 75
3 94 84 95
3 84 86 95
3 96 97 88
3 88 97 71
3 98 96 88
3 20 21 9
3 98 88 80
3 80 91 98
3 129 113 127
3 11 8 10
3 99 91 81
3 100 99 74
3 74 82 100
3 73 90 93
3 100 82 112
3 68 53 55
3 83 101 92
3 94 101 83
3 85 93 102
3 1 8 2
3 74 99 81
3 102 104 86
3 104 103 86
3 106 97 105
3 78 97 106
3 78 106 108
3 109 78 108
3 107 96 98
3 54 36 35
3 109 87 78
3 110 87 109
3 89 87 110
3 89 110 90
3 91 111 98
3 111 91 99
3 139 123 140
3 123 100 124
3 93 90 113
3 101 94 114
3 113 102 93
3 103 95 86
3 113 104 102
3 115 95 103
3 104 113 116
3 116 103 104
3 115 103 116
3 117 118 105
3 96 119 117
3 105 96 117
3 105 118 106
3 119 96 107
3 107 111 120
3 98 111 107
3 121 111 123
3 90 110 122
3 99 123 111
3 60 51 69
3 100 125 124
3 112 125 100
3 125 112 126
3 112 101 126
3 59 55 49
3 101 114 126
3 127 113 90
3 114 94 128
3 95 128 94
3 115 128 95
3 116 113 129
3 100 123 99
3 115 129 128
3 129 115 116
3 7 17 6
3 117 130 118
3 119 130 117
3 119 120 130
3 155 139 140
3 120 111 121
3 131 110 109
3 110 131 122
3 131 132 122
3 127 90 133
3 126 114 134
3 128 134 114
3 134 128 135
3 135 127 133
3 127 135 129
3 128 129 135
3 136 118 130
3 130 120 136
3 137 136 120
3 75 77 69
3 121 138 120
3 138 121 139
3 89 79 87
3 139 137 138
3 137 139 155
3 139 121 123
3 132 141 122
3 123 124 140
3 47 45 57
3 124 125 143
3 143 125 126
3 126 144 143
3 126 145 144
3 122 142 133
3 102 86 85
3 147 145 126
3 126 134 147
3 146 147 134
3 135 146 134
3 135 133 146
3 142 141 148
3 144 145 148
3 147 148 145
3 146 142 147
3 29 20 22
3 50 49 44
3 118 149 106
3 106 149 108
3 108 149 150
3 79 64 71
3 71 97 78
3 133 142 146
3 108 150 109
3 109 150 131
3 118 151 149
3 152 149 151
3 150 149 153
3 154 131 150
3 131 154 132
3 136 151 118
3 151 136 137
3 155 151 137
3 152 151 155
3 153 152 155
3 43 36 54
3 150 153 154
3 132 156 141
3 155 140 153
3 156 132 154
3 140 124 153
3 143 153 124
3 143 154 153
3 156 148 141
3 144 154 143
3 148 154 144
