ply
format ascii 1.0
element vertex 395
property double x
property double y
property double z
property double nx
property double ny
property double nz
element face 786
property list uchar int vertex_indices
end_header
0.132009645 0.02172325055 0.05529679123
0.710496109 0.5042347453 -0.4908590435
0.1328312838 0.02129971584 0.05635976492
0.9479043948 0.102668372 -0.3015567338
0.1324368983 0.01966577231 0.05491391832
0.8633545875 -0.4988642356 -0.07585071325
0.124995608 -0.01327157583 0.0635740655
0.5571491954 0.5194510391 0.6478853232
0.1209286635 -0.01083447735 0.06431561901
0.6741370805 0.5877571561 0.4473038365
0.1215913367 -0.01228698319 0.06502849743
0.4713712056 0.2298764534 0.8514493542
0.1277164174 -0.01373588051 0.04445927931
-0.07134568587 0.03316869247 -0.9969000105
0.1295742318 -0.01249647577 0.04529850801
-0.07486120332 0.8667782368 -0.493042887
0.1305796537 -0.01309516382 0.04366224789
-0.2924240783 0.8274844927 -0.4793303378
0.1246267961 -0.01992207063 0.06044078317
-0.2744742568 -0.9514557857 -0.1392686978
0.1238878075 -0.01881188406 0.06106390638
-0.5937767915 -0.7718360461 -0.2273724693
0.1243891336 -0.01558295061 0.05385045107
-0.5892806997 -0.7544249086 -0.2891216255
0.1348191952 0.01988091723 0.06735853698
0.2783581447 -0.9376534295 0.2081412727
0.134570756 0.02021345363 0.06872793865
0.5900022598 -0.4733658556 0.6540811113
0.1334947521 0.02002442848 0.06953248361
-0.7262412505 -0.4428599503 0.5257839009
0.1317753846 -0.01936872691 0.04871076382
0.4439538408 -0.8856811614 -0.1359186069
0.1328406673 -0.01834683563 0.04463729897
0.6853072808 -0.7249662086 -0.06912255286
0.1330893941 -0.01824400291 0.04957884691
0.9703298714 -0.1116430615 0.2144662386
0.1291739465 -0.01448300131 0.04305962941
-0.5645548081 -0.0183317693 -0.8251919867
0.1306911351 -0.01405012259 0.04099008196
-0.7326719081 0.555976071 -0.3925334171
0.1332346372 -0.02109241231 0.0668217976
-0.8331351499 0.5529935406 -0.009163302455
0.1333895846 -0.02107512744 0.06495375621
-0.3572672594 0.9336114862 -0.02701292644
0.1321802625 -0.02183984714 0.06468749552
-0.969041766 0.156971184 0.1905730914
0.1335125917 -0.02111567608 0.0632447958
-0.1568546613 0.9876186422 0.002456167812
0.1347683815 -0.02153926754 0.0643523976
0.6280839814 0.7702183671 -0.1107888954
0.1335162199 -0.02120269838 0.06126544658
0.4552344888 0.8850362554 -0.09732618819
0.1301353955 -0.01793782239 0.03687663128
0.2313266919 -0.923592666 -0.3057197227
0.1313344308 -0.01843029888 0.04127115389
0.4321475775 -0.8923752974 -0.1300569102
0.1307237224 -0.01837376903 0.04397927417
-0.02921554244 -0.9627492859 -0.2688126944
0.1336545867 0.02023112063 0.06674496216
-0.8301064323 -0.5575600375 -0.007079239687
0.1256064137 -0.01238225761 0.06164582082
0.5143807439 0.7481139131 0.4192111918
0.1210688426 -0.009762476995 0.06179556307
0.6554308591 0.6869709787 0.3138172451
0.1348345968 0.02100606219 0.06773372725
0.8387802093 0.2630598004 0.4767046275
0.1111321495 0.0003561501017 0.05884325063
-0.1203493079 0.09769535619 0.9879127803
0.1108939616 -0.001195654579 0.05826503097
-0.9543952077 -0.1750119183 0.2418690058
0.1115717239 -0.0009163877896 0.05908349588
-0.2240177092 0.4209970656 0.8789638995
0.1240422417 0.02124630083 0.05986938649
-0.2795036671 0.9494652825 -0.1428053832
0.1233643757 0.0168790134 0.05319690756
-0.5932440157 0.7502082715 -0.2919744633
0.1230530149 0.02028955062 0.06029554672
-0.597812613 0.7678768814 -0.2301850881
0.1350481726 0.02237646565 0.06495579363
0.7639284816 0.6220928439 0.1715044271
0.1344050258 0.02250603028 0.06545731958
0.3033241555 0.9026718305 0.3052507544
0.1354283288 0.02082920506 0.06648878322
0.9141874595 -0.2022697693 0.3512096657
0.1186417742 -0.002695403669 0.04742524327
0.7291769587 0.6554701392 -0.1966211064
0.1167412037 -0.00125077179 0.05032715712
0.8475243093 0.4154644197 0.3302905707
0.1181386415 -0.002589196306 0.04961780206
0.7226305733 0.6575919456 0.2130208618
0.1350885966 0.02071151538 0.06442303867
0.632168195 -0.7672771666 -0.1079311024
0.1232337191 0.01224519095 0.05625702048
0.5460071349 -0.7822119478 0.3000344603
0.1244712729 0.01457710752 0.06104762005
0.5182979801 -0.7437649851 0.4221147364
0.1202249896 0.01139728405 0.06131304784
0.6590109705 -0.6823648054 0.3163586781
0.1314749207 -0.02046245955 0.0517945408
0.5258669355 -0.8191575187 -0.2290085712
0.132877547 -0.01888210457 0.05243240897
0.9695685489 0.2372588923 0.06037422484
0.1338940246 0.02167136556 0.06771909989
-0.004920055299 0.9149701101 0.4034916241
0.1332672507 0.02176278175 0.06610809639
-0.6910372864 0.6929227992 0.2057315318
0.1318146537 0.01397326885 0.03544845568
0.6651897041 -0.7445954729 -0.05567979251
0.13245791 0.01458857489 0.03768385458
0.7720602821 -0.6123710779 0.1700722898
0.1309297151 0.01336493062 0.03531284758
0.03176781637 -0.9920215729 -0.1220000193
0.1171218857 -0.004180250332 0.04618591219
-0.6500732568 -0.3746629774 -0.6610842716
0.1178677862 -0.003313890647 0.04588192796
0.2470287744 0.2425886135 -0.9381511335
0.1196711704 -0.007493586811 0.04483855058
-0.2942491983 -0.1088980529 -0.9495044094
0.1340280475 -0.02317199862 0.06261032723
0.7623270511 -0.6287464947 -0.1534122308
0.1323163931 -0.02361184998 0.06330563522
-0.04720204929 -0.9799170151 0.1937385093
0.1323905968 -0.02373299389 0.06199071791
0.2755774633 -0.959438915 -0.05944770826
0.1163836637 -0.007617380092 0.0651142857
0.4178848959 0.4976899854 0.7600505853
0.117548079 -0.0106658995 0.06577831065
-0.3389403163 -0.353025157 0.872062326
0.1198242689 -0.01128406749 0.06582881853
0.4217428656 -0.03589044573 0.9060048737
0.1142007666 -0.003491717286 0.05311358463
-0.7602929696 -0.6058530471 -0.2343004174
0.1175833883 -0.007221059344 0.05554282884
-0.7258091262 -0.6433309197 -0.2435701954
0.1115536742 -0.002009765237 0.05679545992
-0.8298676264 -0.4799177555 -0.2846026538
0.1296200502 -0.01195572046 0.04851976144
0.3346098171 0.9272593213 0.168007206
0.1237325728 -0.00989756461 0.04596707415
0.5403669929 0.754933179 -0.371590377
0.1266297847 -0.01074149678 0.04859887441
0.495408833 0.8679925917 0.03404333975
0.1318462359 -0.023032575 0.06366891352
-0.7477126807 -0.598562352 0.2874871439
0.1339292731 -0.02327048617 0.06542312854
0.3077211351 -0.8999582074 0.3088412667
0.1327124568 -0.02260070647 0.06610704796
-0.6872869862 -0.6958640625 0.2083501985
0.1325295732 0.02118525127 0.06472771389
-0.9682120191 -0.1614410857 0.1910556511
0.1353622355 0.02166263606 0.06441930815
0.9976921114 -0.00312052629 -0.06782855692
0.1205448266 0.01264138652 0.05224526792
-0.6902647402 0.6936052538 -0.2060250964
0.1170781696 0.008216845462 0.05524076923
-0.7291935831 0.6385591449 -0.2460059691
0.1170232906 0.01071505829 0.05891389411
-0.7086240958 0.627198004 -0.3232252383
0.1300905807 -0.0124681411 0.05174059259
0.4470763702 0.8501925394 0.2780204403
0.1328728313 -0.01744130441 0.05293390647
0.6513355428 0.690329684 0.314971329
0.1331632786 -0.01569241906 0.05095666006
0.6261274333 0.6975450284 0.3484183844
0.1232445018 -0.01712978668 0.06267537281
-0.6169739491 -0.7763598134 0.1288743042
0.1212302536 -0.01397685798 0.06183407191
-0.7075413366 -0.6515158812 -0.2737011391
0.1267349676 0.0169810625 0.06200115028
0.438997522 -0.5687751376 0.6955400912
0.1238008261 0.01552551621 0.0630060657
0.5598205564 -0.5141380354 0.6498176861
0.1343563624 -0.0208954686 0.06739510342
0.2734171495 0.9399320499 0.2043790693
0.1329884931 -0.02082788717 0.06962693494
-0.7283661805 0.4408440554 0.524537154
0.1339730337 -0.02125089994 0.06874784866
0.5870485074 0.4791753107 0.6525067597
0.1325922208 0.01923100854 0.05184235652
0.9707526291 -0.2321556554 0.06118075434
0.1327292591 0.01885802883 0.04900494114
0.9697286358 0.1175278797 0.2140410486
0.1315305775 0.0198442819 0.04832484073
0.4393991765 0.8874317362 -0.1392597474
0.1337363434 0.02020802571 0.06504287667
-0.3524645672 -0.9355323057 -0.02341012156
0.1322036627 0.02250803532 0.06369888259
-0.7510696103 0.5954130141 0.2852679146
0.1184243523 0.01388654841 0.06483197179
-0.3565148593 0.7060703075 0.6118511878
0.116432933 0.01215567039 0.06538278507
-0.3407015305 0.3543774362 0.8708266761
0.118812751 0.01311704928 0.06539794691
0.4217260211 0.04125463712 0.905784311
0.1245412853 -0.009297225288 0.04841136223
0.6217988474 0.7822535845 0.03802003361
0.122032752 -0.007443516892 0.04609200572
0.6884935327 0.5656916696 -0.4538387274
0.1228364741 -0.007369178647 0.04746579385
0.7738095399 0.6222862736 -0.1182310855
0.1339874796 -0.01700239695 0.04567450819
0.9691261514 0.04324529282 0.2427433777
0.1332943805 -0.01714932873 0.04311648676
0.9773870296 -0.2097457525 0.02685728369
0.1341390814 -0.01486046636 0.04420562058
0.8108284814 0.5538715967 0.1891650814
0.1139072932 0.009952846481 0.06382100937
-0.7632564258 0.5638831047 0.3153973251
0.1132560819 0.008273706062 0.06431692739
-0.6617919731 0.319845046 0.678034314
0.1149958818 0.01030459506 0.06474965689
-0.421285395 0.2589196153 0.8691830928
0.112845733 0.005955053187 0.06416127504
0.1495648167 -0.635535813 0.7574461011
0.1141954081 0.006620461428 0.06357279776
0.6191080579 -0.6827441607 0.3880278645
0.1136970609 0.007928780923 0.06469832661
0.0007299396379 -0.1741840696 0.9847128399
0.1240577392 0.01047787277 0.04778616458
0.6258911487 -0.7788340262 0.04096131694
0.1226986404 0.009120696482 0.04857815059
0.7028177071 -0.6729785167 0.2305367359
0.1294782112 -0.01713093676 0.03909229063
-0.5283034086 -0.7502142125 -0.3975853917
0.1290841966 -0.01532657767 0.03520139162
-0.57498295 -0.6252637998 -0.5276739408
0.1220043892 0.01194874055 0.0434583784
0.3780474154 -0.4511110983 -0.8084422853
0.12127009 0.0125453279 0.04327826988
-0.1384361169 0.3162514688 -0.9385203514
0.1236323881 0.01383324491 0.0438193199
0.008365236157 0.4259811196 -0.9046933782
0.1148909255 -0.008878981601 0.06409531578
-0.76036589 -0.5667755423 0.3171895301
0.1140066264 -0.007084614313 0.06458701179
-0.6603389686 -0.320973969 0.6789169005
0.1140345388 -0.007765091368 0.06205724828
-0.7804076863 -0.6101185313 -0.1368182041
0.1312972769 -0.01579316524 0.0574287711
0.4664644585 0.821085316 0.3289829976
0.132523654 -0.01945314288 0.05536693808
0.8607327516 0.5030740268 -0.07781808178
0.128466223 0.01926169787 0.06104395342
0.2971165282 -0.09911998691 0.9496825769
0.1274988984 0.02069990886 0.06041644098
0.06295265845 0.5810932831 0.8113985206
0.1257569552 0.01986201972 0.06184914982
0.1616573045 0.3862257839 0.9081280525
0.1240185822 -0.01066226585 0.05681518354
0.5418999855 0.7861946077 0.2970562986
0.1293261392 -0.01822109419 0.06146214642
0.2965633804 0.1045901025 0.9492687037
0.1267125052 -0.01847423818 0.06245647582
0.1637579064 -0.3815316177 0.9097345617
0.1280186575 -0.01987649698 0.06088932062
0.06607508535 -0.5775197077 0.8136983903
0.1310073197 -0.02313327934 0.06082216
-0.3941209815 -0.9024586205 0.1738881545
0.1204832448 0.01421643679 0.06450622657
0.4726778703 -0.2239808628 0.852295843
0.1205681421 0.01531701504 0.06444164987
-0.1266317156 0.4022127937 0.9067465342
0.1293838283 0.01682284324 0.03891328807
-0.5323422881 0.7458341999 -0.4004285636
0.1291190042 0.0172140151 0.04227485499
-0.3340767623 0.8692779893 -0.3643466676
0.1300847936 0.01741521421 0.03686925616
0.2263247811 0.9236148434 -0.3093747152
0.133611947 -0.0143226109 0.04157789881
0.656389446 0.7189686876 0.2285539792
0.1326441024 -0.01289326986 0.04320522142
0.1444587221 0.9888515966 0.03611367497
0.1337200001 -0.01302063202 0.04533527171
0.442538889 0.8740430059 0.2005197136
0.1156783961 0.01202824972 0.06310099634
-0.7373802704 0.675445161 0.006646149335
0.1337425574 0.01649510308 0.04691046406
0.7244215028 -0.5379535794 0.4310677821
0.133747439 0.01742716762 0.04538698537
0.9693561984 -0.03718766023 0.2428284137
0.1291781621 -0.01729605378 0.04248288179
-0.3294332182 -0.8724436557 -0.3609928288
0.1251116004 -0.01529687019 0.04707181291
-0.3832954886 -0.8490629342 -0.3635611395
0.1284108171 -0.01573599902 0.04386858939
-0.4102401991 -0.6130898388 -0.6751472644
0.1134923589 0.00904992883 0.0615062999
-0.783541817 0.6055312472 -0.1392628079
0.1319783573 0.01407484531 0.04225191024
0.1496035355 -0.9879436254 0.03982681443
0.1281692378 0.01316819479 0.04568848802
0.2924471728 -0.9519093461 -0.0913413812
0.1289889706 0.0136686585 0.04431411791
-0.07045152203 -0.8688440358 -0.4900475736
0.1125238021 0.006305969792 0.06378117465
-0.6101177689 -0.1614730135 0.7756821347
0.1123138817 0.006958379084 0.06233955807
-0.8943277168 0.3926995617 0.214394471
0.1120625625 0.005651290903 0.0624833729
-0.8431671211 -0.3331687588 0.4219807864
0.1320792141 0.0139250855 0.03870301476
0.2599610274 -0.9467418035 0.1900005837
0.1311355393 0.01411792169 0.04058326131
-0.3151700984 -0.9449311892 -0.08816380656
0.1155975322 0.009040704226 0.06482431262
0.4204346009 -0.4925202156 0.7620095692
0.1343298089 0.02177731217 0.06171732894
0.9320564328 0.03091371322 -0.3609918951
0.1343070213 0.02252434575 0.06267433332
0.7590407717 0.6321377807 -0.1557527951
0.1132935454 0.004770463532 0.06093357968
0.4202106128 -0.8178515219 0.3931182125
0.1121134993 0.004741609935 0.06075548198
-0.3310314716 -0.8281372732 0.4523348555
0.1114667292 0.003242139839 0.05944735914
-0.6248184744 -0.3779166634 0.6832136339
0.1318643791 -0.02175034364 0.05557195458
0.713138982 -0.5023542523 -0.4889509153
0.1325931054 -0.02152554427 0.05656159273
0.9484255333 -0.09891841828 -0.3011713038
0.1262160258 0.0120489477 0.04796315637
0.5000198068 -0.8652146439 0.03719963343
0.1293607782 0.01433658849 0.05105745427
0.4515608329 -0.8467632609 0.281220188
0.1300675104 -0.01404387147 0.0344386412
-0.1021005583 0.2779312286 -0.9551595198
0.1313593301 -0.01365133885 0.03488823167
0.5192047796 0.6285332297 -0.5791134396
0.1304696279 -0.01485137112 0.034219707
0.6200540996 -0.1850381804 -0.7624262491
0.132216709 0.02010552551 0.05874466851
0.09531880538 -0.9543743198 0.2829911358
0.1330097232 0.02031625647 0.05705241586
0.7759635742 -0.6306456667 0.0129063775
0.133125699 0.02036800771 0.05946884573
0.412397964 -0.9084644308 0.06797276774
0.132227953 -0.02092149302 0.06068638962
-0.3351816567 0.8908798619 0.3065718982
0.1314649258 -0.02150568406 0.06140677513
-0.7734494811 0.4210722227 0.47378696
0.129555494 0.01543720683 0.03963383157
-0.85397099 0.2122374641 -0.4750671607
0.1287498457 0.01513903223 0.03482160016
-0.5784180915 0.6198847998 -0.5302596971
0.1147647046 0.003196859582 0.05774249513
0.7335319993 -0.5726821513 0.3660136057
0.1148861159 0.001857129871 0.05309480674
0.8146011415 -0.4723374855 0.3366337476
0.1177910957 0.003371211428 0.04920607559
0.726063389 -0.6529796727 0.2155214656
0.1219121746 0.01717732692 0.06385344051
-0.2586916384 0.6230662889 0.7381510928
0.1222068957 0.01600244218 0.06432880624
0.3539021316 -0.01419357563 0.9351747557
0.1306573108 0.01597147836 0.03483861943
0.6286889182 0.6099797432 -0.4823639259
0.1316012181 0.01637546982 0.03670199696
0.9303682586 0.3622924545 -0.05620570035
0.1317594048 0.01501306636 0.03520938035
0.9717222333 -0.05777316929 -0.2289501304
0.134889547 -0.02183670715 0.06647428532
0.9132556082 0.2083325351 0.3500882016
0.1350488364 -0.02242286621 0.06437270367
0.9976567144 0.008097738374 -0.06793752179
0.1317558492 -0.01327114203 0.04150733368
-0.3203302974 0.9428535118 -0.09173742846
0.1309017749 -0.0136187043 0.03814447908
-0.695601189 0.7169388632 -0.04623475088
0.1204844654 0.01634347213 0.06333596828
-0.6583164499 0.7183873515 0.2248089524
0.1335761738 0.02070187342 0.0696357416
-0.3256999788 0.4209838538 0.8465767057
0.1213778924 -0.0121539524 0.04523231958
-0.624942813 -0.6658807109 -0.4074915451
0.1219409241 -0.01203771627 0.04438985975
-0.1370314773 -0.3209922728 -0.9371159667
0.1233801991 -0.01381104444 0.04600151573
-0.4349818913 -0.7957617861 -0.4213714917
0.1340849382 -0.02240288026 0.06164033842
0.9320510104 -0.02790592711 -0.3612508454
0.1296986725 -0.02015125514 0.06038537393
-0.05422174015 0.0287407106 0.998115211
0.1312250687 -0.0187216012 0.05954205005
0.2720170306 0.7048448093 0.6551339785
0.122625027 -0.01130165402 0.04443499733
0.3749536827 0.4494822914 -0.8107869051
0.1243546864 -0.01317754741 0.04477644917
0.01031279614 -0.4296220851 -0.9029498935
0.1243200038 0.01614201473 0.0460972553
-0.3877383736 0.8456467469 -0.3667976734
0.1266771418 0.02072594876 0.05514683183
-0.2274525127 0.9078917257 -0.3521334533
0.1222703481 0.01891045719 0.06197816149
-0.6210563156 0.7735930466 0.1258683882
0.1236549886 0.02090948131 0.06127634045
-0.2624351319 0.8516846371 0.4536089511
0.127988217 0.01617475079 0.04325098199
-0.4135164908 0.6083322255 -0.6774481643
0.1312798438 0.02222916098 0.06146147112
-0.854521896 0.2757270362 0.4401896533
0.1323063501 0.02117547339 0.0630963255
-0.8527539745 -0.4625103415 0.2426825973
0.1199909545 0.01267667498 0.06382992264
0.6772497417 -0.5824936104 0.4494819031
0.1326053226 -0.01333045343 0.0394050912
0.2551116814 0.9487435905 0.1865573091
0.1314279988 -0.01315359515 0.03593819394
0.02697372571 0.9917271323 -0.1254978611
0.1232281883 0.01726165323 0.06373641821
0.3349154144 0.1367649375 0.9322698199
0.1312728077 0.02073448028 0.05136400091
0.5215096921 0.8210386056 -0.2322138005
0.1322772029 0.02031167745 0.05264058066
0.9416083436 0.3271974658 -0.0794704072
0.1304550068 0.01721647382 0.05680647113
0.4707804481 -0.8173858301 0.3320333937
0.1164795963 0.004737380798 0.04596045194
-0.6521251084 0.368815701 -0.6623502258
0.1189852646 0.008138657485 0.04422695777
-0.2947469979 0.1036588832 -0.9499363364
0.117366881 0.003871699848 0.04551526438
0.2481103721 -0.245009531 -0.9372361351
0.1223353341 0.008424405048 0.0468693092
0.7770676992 -0.6186581491 -0.1158787531
0.1216835468 -0.01453968587 0.06395749659
-0.65441457 -0.7209519401 0.2279690124
0.1169026558 -0.01079682749 0.06351536642
-0.7338359528 -0.6792636159 0.009259289725
0.1332187157 -0.02255518787 0.06772920114
-0.0003117227601 -0.9136117853 0.4065875165
0.132931908 -0.02155259405 0.06966062338
-0.3237408882 -0.4198765833 0.8478770501
0.1264389736 -0.02015549598 0.06007466076
-0.01048956095 -0.9878156961 0.1552743367
0.1282316919 -0.02093548084 0.05986285206
-0.1662774335 -0.8466920785 0.5054348022
0.1312272868 0.02290551607 0.06073250824
-0.3989224495 0.9010047421 0.1704445188
0.1244483142 -0.01503878321 0.06437748607
0.3358372402 -0.1313007284 0.9327236819
0.1231215388 -0.01511046476 0.06450078878
-0.2551729477 -0.6215957454 0.7406115689
0.1247208821 -0.01684047848 0.06344383123
-0.1137074924 -0.5652638527 0.8170357293
0.1194870772 0.007728607651 0.05376850365
0.6715710916 -0.6797361711 0.2948745609
0.1212682978 0.006549292861 0.04745093338
0.7124613299 -0.6955730135 0.09261229021
0.1199377998 0.008845278972 0.04388860412
0.1592590685 -0.08900632799 -0.9832163662
0.1189958551 0.004743582555 0.04560018881
0.5444865457 -0.5961828209 -0.5900003776
0.1254082128 0.01791180993 0.06277915454
0.3086751492 -0.06290590281 0.9490850856
0.1235370535 0.01892421358 0.06268952933
-0.1167258736 0.5679623999 0.8147354065
0.1232276633 -0.008031931443 0.04919586499
0.6992660502 0.6775285999 0.2279955863
0.1113220811 0.002592778711 0.05672509261
-0.8322372775 0.4745864522 -0.2866161428
0.117382395 0.002011506917 0.04773941525
0.9164129 -0.3951834732 -0.06338311528
0.1167559867 0.0003095532 0.04959976971
0.9592186079 0.003058824195 0.2826487324
0.117082613 0.0002718249959 0.04804648344
0.9894255546 0.002322887622 -0.1450230194
0.1328701584 0.01842849853 0.04467560185
0.6815061362 0.7282791613 -0.07182513131
0.1332931962 0.01726805021 0.04301720612
0.9762790316 0.2149406314 0.0260725425
0.1199879144 0.01549936863 0.06122108305
-0.7109841716 0.6467217263 -0.2761385818
0.114920933 -0.002174393889 0.05795763981
0.7304719091 0.5779630009 0.3638262766
0.1150057591 -0.001133577843 0.05326572947
0.8120728288 0.4779828275 0.3347687819
0.1117440668 0.00529850518 0.06023924929
-0.9850365517 0.06389633947 0.1600632678
0.112444224 0.00528477212 0.06322471544
-0.111998402 -0.8040686928 0.5838920236
0.1132397283 -0.004723568857 0.06444804727
0.1461680915 0.6392460384 0.7549830405
0.1127625637 -0.005055372958 0.06426136774
-0.6110897239 0.1612596828 0.7749610726
0.1334647875 0.01504751608 0.04624443935
0.5304580381 -0.7592413434 0.3770501987
0.1338708698 0.01566106412 0.04374568386
0.8137267047 -0.5488770675 0.1912663453
0.1337754303 0.02036623685 0.06342729763
-0.1517703906 -0.9883961397 0.006230536163
0.1336893939 0.02067729427 0.06129698155
0.4598005713 -0.8830512163 -0.09382954748
0.1317506128 -0.02281127317 0.05735899661
0.601683275 -0.7293951147 -0.3255149815
0.1333086865 -0.02177760376 0.05983853187
0.9455345019 0.2054474563 -0.2524992047
0.1323829708 0.02065391347 0.06068101906
-0.3304411875 -0.8914848009 0.3099410772
0.1346754875 -0.02311681761 0.06492261365
0.767101888 -0.617434509 0.1741531522
0.1215327416 0.008375450672 0.04543769275
0.6914486621 -0.563854481 -0.4516269167
0.11268815 -0.004128106377 0.06356509684
-0.1164550709 0.805331877 0.5812734162
0.1122792918 -0.004508403005 0.06275809766
-0.8449584597 0.3302311923 0.4207048384
0.121616973 -0.005542838067 0.04790933432
0.7087991947 0.6996490738 0.089971524
0.1199565043 -0.006426415608 0.05414679297
0.6680290178 0.6843339155 0.2922743977
0.1329375819 -0.02075760528 0.05952379648
0.4081471999 0.9106401091 0.06442402471
0.111810463 0.00519242571 0.05917636527
-0.8641302267 0.469271406 -0.1818331622
0.1323655868 -0.02018452119 0.053089596
0.9432244857 -0.3227873062 -0.07833214194
0.1335488875 0.02128209489 0.05977128882
0.9465404031 -0.2017348704 -0.2517226796
0.1315549963 0.02137062408 0.06136959024
-0.7713772753 -0.4231029608 0.4753535356
0.1308349986 0.0209489728 0.06008646328
-0.3711094078 -0.5288970651 0.7632468159
0.1295698173 0.02202799965 0.05982804122
-0.4866273696 0.6229301071 0.6124964366
0.1310520617 0.02134053697 0.05353306245
0.4617930169 0.8376733473 -0.2916343133
0.1128323156 -0.0005637462465 0.05890806411
0.5282989817 0.3643903072 0.7668897508
0.1133285546 -0.002239362295 0.05966789008
0.4255750527 0.6843315449 0.5920947653
0.1327932822 -0.01440295079 0.0380735581
0.7688687402 0.6170026736 0.167775329
0.1311617832 -0.02239646574 0.06153947492
-0.8531022024 -0.2784871544 0.4412046431
0.1320481948 -0.02165043236 0.06304859106
-0.8552284335 0.4588844999 0.2408512868
0.1144166342 -0.006675335533 0.06495160693
-0.0008296058955 0.1774393272 0.9841313921
0.1196348255 -0.009116422868 0.04599329998
-0.6665664746 -0.6134832386 -0.4234707202
0.1308555098 -0.01638898312 0.03501914671
0.6319434769 -0.6083072811 -0.4802183813
0.1320393577 -0.01526368089 0.03545717582
0.9713426886 0.062379703 -0.2293515947
0.1317429864 -0.01678016533 0.03681912414
0.9323866497 -0.3572994928 -0.05470107819
0.1332003845 0.01625584189 0.04077105098
0.9847714241 -0.1437265528 0.0978157464
0.1114477586 0.001678139868 0.05900093541
-0.2214922118 -0.4188869736 0.8806105288
0.1131164334 0.003203803973 0.05950991871
0.4294908453 -0.6798517365 0.5944234434
0.1262987431 -0.02013769628 0.05874188009
-0.1192198876 -0.9699853985 -0.2119314633
0.1121071395 -0.004329081624 0.05926174698
-0.8613890953 -0.474820816 -0.1804273237
0.1179778186 -0.009575532122 0.05945362183
-0.7053133873 -0.6321169111 -0.3208757336
0.1210358728 -0.01023558582 0.04474015554
-0.09202370817 0.08270694487 -0.9923160779
0.1312324534 -0.0210654067 0.05396124552
0.466278075 -0.8362607466 -0.2885354751
0.1146921103 -0.005343154542 0.06383830098
0.6153918109 0.6875316451 0.3854778284
0.1157789383 -0.005129327462 0.06122187419
0.6501815955 0.6887317595 0.3207997136
0.113563161 -0.003647057947 0.06122616858
0.4157396128 0.8215197139 0.3902126779
0.1297069275 -0.02182145306 0.0600893797
-0.4832923477 -0.6230925997 0.6149667624
0.1292849204 -0.0143701332 0.03592781736
-0.9202194551 0.0002213662493 -0.3914027408
0.1302465415 -0.01344153747 0.03603351035
-0.5815680265 0.7576277627 -0.2962748786
0.1341519249 -0.01561510376 0.04745550168
0.7214897406 0.5434761716 0.4290526834
0.1245225872 -0.01932362445 0.06198779346
-0.2579247325 -0.8512202535 0.4570546055
0.1279766845 0.02150038285 0.05946849209
-0.1706821745 0.8477227711 0.5022287314
0.1293078657 0.02065154079 0.06010718846
-0.05411535725 -0.02487890715 0.9982247082
0.1295476398 -0.01495550684 0.0371891024
-0.9873283156 -0.0406132403 -0.1534058731
0.1298323616 -0.01528039825 0.04011693404
-0.8527935295 -0.2184057254 -0.4743860612
0.1305848083 -0.02311872242 0.05796574042
0.04240744526 -0.9798821313 -0.1950195309
0.1333123085 -0.01611100799 0.04094887099
0.9839736668 0.1494338386 0.09729003469
0.1288157944 0.014394487 0.03535827615
-0.9200509036 -0.006868454857 -0.3917386363
0.1291414208 0.01497682347 0.03669205854
-0.9875079748 0.03511604535 -0.1536061949
0.1338558936 -0.01373268916 0.04684856126
0.5264662641 0.7634255437 0.374185398
0.1270915172 -0.01249980098 0.04495103254
0.3448990007 0.7039508778 -0.6208847243
0.1244654092 -0.01155070738 0.0449583285
0.4359746318 0.535931207 -0.7229826152
0.1285980018 -0.01192844725 0.04650928001
0.2874886145 0.9530672439 -0.0949374797
0.1320067401 0.02259336484 0.05720937804
0.5977783741 0.7313449571 -0.3283223555
0.1327355975 0.02320358199 0.06198629754
0.2706018799 0.9606237362 -0.06306076517
0.1333138352 0.01500163547 0.04112585903
0.6603409448 -0.7144503623 0.2313234021
0.1291704257 0.02047146414 0.0508352083
-0.07706808682 0.9606384266 -0.2668975897
0.1307343436 0.02302052422 0.05778357923
0.03724738958 0.9793518266 -0.1987023695
0.1117131455 -0.002459359702 0.05951718584
-0.6276890304 0.3764957015 0.6813644164
0.1303455008 0.01400317871 0.03739523669
-0.6917903458 -0.7207871186 -0.04349766872
0.130194416 0.01459845166 0.04020329066
-0.7297517255 -0.5613289356 -0.3903488763
0.1306876204 0.01933849611 0.05929185539
0.2756843185 -0.7008738846 0.6578555726
0.1279288649 -0.01494171081 0.06265373505
0.4359940378 0.5736690582 0.6934068147
0.1259657368 0.0212361029 0.05957451911
-0.01562295772 0.9882745011 0.1518862523
0.1205030652 -0.00821087343 0.04461144522
0.1590080195 0.08593964471 -0.9835297795
0.1127365885 0.001460993696 0.05879469761
0.5302463041 -0.3585641845 0.7682906889
0.1107704999 0.001822103805 0.05814582203
-0.9553487087 0.1708438141 0.2410834627
0.1209310808 -0.004962969528 0.04680168705
0.6841976763 0.6754703093 -0.2749789101
0.1182447312 0.003399033411 0.04703381624
0.7326221121 -0.6523880066 -0.1940482665
0.1259430396 0.02121421664 0.05832498588
-0.124293262 0.9685564874 -0.2155214974
0.1326740611 0.02302568264 0.06336603803
-0.05277084441 0.9803181747 0.1902406746
0.1325779161 0.01687188147 0.0501546574
0.6297920835 -0.6928777214 0.3511159279
0.1159699655 -0.009044760457 0.06508775961
-0.4199972938 -0.2575435134 0.870214693
0.1232395804 0.0108504444 0.04523835672
0.5444423544 -0.7533844891 -0.3687740965
0.11726209 -0.001768541113 0.04665567588
0.64777489 0.2987617235 -0.7008060534
0.1176770274 -0.001383206051 0.04806531285
0.914325764 0.3997470282 -0.06488998981
0.1140167283 0.0003531145186 0.05447828582
0.947114442 0.003184178064 0.3208801875
0.113471188 0.0004523848943 0.05778912712
0.8633234161 -0.1851928811 0.4694425162
0.113471188 0.0004523848943 0.05778912712
0 0 0
0.1154013014 0.006385651159 0.06090321893
0.6538302023 -0.684064883 0.3233594012
0.1267696723 -0.01581790386 0.06356499232
0.3083105399 0.06811240771 0.9488441974
0.1189198507 0.009769452565 0.04524936085
-0.6697698544 0.6083730715 -0.4257822778
0.1204434729 0.01088074777 0.04386168116
-0.09148044665 -0.08695071974 -0.9920034779
0.1322468916 -0.01394678769 0.03589417552
0.6615100614 0.7476142878 -0.05896876586
0.131609349 -0.01792149644 0.03921303022
0.8375461309 -0.5082185664 -0.2005750916
0.1331638239 0.01443843903 0.04455886732
0.4470907068 -0.870947839 0.2038621144
0.1290890099 0.01349211213 0.04777532811
0.3395026848 -0.9248502016 0.1714352113
0.1291333621 0.01523901032 0.03392557014
-0.01108249962 0.6266758988 -0.779201191
0.1301170727 0.01464601771 0.03387347543
0.6189077634 0.1856845607 -0.7632001208
0.1296059332 0.013995929 0.03394644964
-0.100894719 -0.2822151375 -0.9540308547
0.1138297021 0.00426881426 0.05307723722
-0.7634924655 0.6009373865 -0.2365449483
0.1121890058 0.001610201932 0.05296782939
-0.8901940374 0.3051417598 -0.338294372
0.1113106725 0.0002325659134 0.05506848768
-0.9307375056 -0.002982934483 -0.3656758096
0.1165189088 0.001964809456 0.05006306809
0.8496699032 -0.4097603954 0.3318997949
0.1224782984 0.01455878269 0.04493515406
-0.4391274326 0.7918901552 -0.4243548987
0.119621406 -0.01221209575 0.06523447853
-0.3529606335 -0.7057068802 0.6143261271
0.119372502 -0.003972396185 0.04600151046
0.5411715627 0.5967420101 -0.5924797998
0.130919369 -0.02077897446 0.06023959805
-0.3738040648 0.5300804212 0.7611079215
0.1214126424 -0.01140401923 0.05294926223
-0.6866036745 -0.6980034055 -0.2033879054
0.1308774976 0.01366885913 0.03437232852
0.5228071706 -0.6277133808 -0.5767569454
0.1271610697 -0.01964624199 0.0554898626
-0.2226676694 -0.9103957071 -0.3487101455
0.1327632012 -0.02056169333 0.05718959868
0.7726055873 0.6348023814 0.01032197107
0.1287383856 0.01504321569 0.04229518705
-0.5647581579 0.01236188321 -0.8251638667
0.1269775035 0.01455228521 0.04343765306
-0.07115293938 -0.03731580177 -0.9967671695
0.1297629897 -0.019607143 0.05142266495
-0.07208117113 -0.9620352296 -0.2632347274
0.1321281763 -0.02014594604 0.05882238555
0.09032543982 0.9559537512 0.2792735945
0.1323642398 0.01817188014 0.05221245859
0.6547428832 -0.6858729328 0.3176319835
0.1305995903 0.01843383062 0.04391577856
-0.03430667083 0.9615611121 -0.2724394979
0.1314822509 0.0180900176 0.04145962478
0.4273727985 0.8941693518 -0.1334678291
0.1233990468 -0.01388639331 0.06489327459
0.3538924877 0.01950832015 0.9350826341
0.1154002804 0.004566021911 0.04824515782
-0.7968645131 0.5199558902 -0.3076569842
0.120671673 0.005888501876 0.04637334772
0.6877517692 -0.6729036427 -0.2723934499
0.1342173107 -0.0220018816 0.06775121175
0.8402071443 -0.2569582374 0.4775190246
0.1294338625 -0.01550376236 0.03422349646
-0.007747605294 -0.6297570282 -0.7767535388
0.112557166 -0.005694985879 0.06273494143
-0.8922787034 -0.3966247952 0.2157023118
0.1144924651 0.0002121445305 0.0485585385
-0.8339703908 -0.003232851134 -0.5517997245
0.1162757672 0.0027506353 0.04583779161
-0.238787782 0.06100293702 -0.9691537736
0.1160716874 -0.0008230587525 0.04690819868
-0.4325447577 -0.2584351086 -0.863780254
0.1167975524 -0.002301461022 0.04618664452
-0.2381903129 -0.06581295636 -0.9689860833
0.1134071201 0.001780806515 0.04949539218
-0.8618699562 0.4200726798 -0.2841111089
0.1218038933 -0.01339755686 0.06499711961
-0.1243841561 -0.3991118035 0.9084263041
0.129666341 0.01363454493 0.03535623677
-0.5776548833 -0.7618099767 -0.2931900326
0.1111321495 0.0003561501017 0.05884325063
0 0 0
0.1111328841 0.0003562064275 0.0588435722
0 0 0
0.1111321495 0.0003561501017 0.05884325063
-0.119784767 -0.09464258482 0.9882784986
0.120654149 0.01268049646 0.04402887555
-0.6286430234 0.6611702119 -0.4094653832
0.1168544555 0.002271964175 0.04632319794
0.6491276949 -0.2978955052 -0.6999224984
0.126528953 0.01344061651 0.0440172021
0.3483239634 -0.7041450739 -0.6187488436
0.1299282594 0.01410578298 0.04260799351
-0.2881219636 -0.8308049503 -0.4761815501
0.1316663145 0.01747575141 0.03932478722
0.8348782763 0.5117012358 -0.2028302469
0.1157542548 0.001234057547 0.04664508474
-0.4339182115 0.253034909 -0.864689725
0.1123421587 -0.001131444714 0.05308975002
-0.8886002536 -0.310998322 -0.3371492739
0.1160363094 -0.003857564742 0.04834851826
-0.7941024551 -0.5252911277 -0.3057294915
0.113471188 0.0004523848943 0.05778912712
0.8373347706 0.3223184377 0.4415668767
0.1238908148 0.01233534645 0.04404344528
0.4388410375 -0.5364493882 -0.7208610114
0.1125246314 0.0001794615534 0.05071456672
-0.9388622089 -0.003092771205 -0.3442792288
0.116067992 0.0001863697918 0.04664173655
-0.1993810918 -0.002381026558 -0.9799191349
0.1167101664 0.0002167705762 0.04678187423
0.6371538089 0.0002118729816 -0.7707366469
0.1120096323 -0.004334867788 0.060376811
-0.9846936214 -0.06896437229 0.1600699449
0.1123819102 -0.00372057225 0.0609474928
-0.3347664953 0.8283816835 0.4491271312
0.1121994333 0.0002110457817 0.05314964967
-0.9342209914 -0.003006500317 -0.3566820716
0.1105130266 0.0002679233348 0.05724992707
-0.991566526 -0.002863626737 -0.1295670641
0.1111321495 0.0003561501017 0.05884325063
-0.6884526111 -0.0006543326706 0.7252810311
0.1107840221 0.0003207668137 0.05838274075
-0.8525468293 -0.001520534693 0.5226486313
0.1134712857 0.0004515732551 0.05778998782
-0.3957406902 0.8908488985 -0.2231088215
0.1127568452 0.0004538278028 0.0589472394
0.5565434152 0.00303613346 0.8308129807
0.1137068623 -0.001234003285 0.04965988932
-0.8596494185 -0.4256667146 -0.2825079208
3 0 1 2
3 3 4 5
3 6 7 8
3 9 10 11
3 12 13 14
3 15 16 17
3 18 8 19
3 20 21 22
3 23 24 25
3 26 27 28
3 12 14 29
3 3 30 31
3 13 12 32
3 33 34 35
3 36 37 38
3 39 40 41
3 42 43 44
3 12 45 41
3 46 47 48
3 49 15 50
3 14 51 52
3 53 54 55
3 56 57 58
3 59 60 61
3 62 63 64
3 65 66 67
3 68 69 70
3 71 72 73
3 74 29 52
3 52 51 40
3 39 41 75
3 45 75 41
3 76 77 78
3 79 80 81
3 10 82 83
3 47 84 85
3 86 87 88
3 89 90 91
3 29 74 92
3 74 52 93
3 94 95 96
3 97 98 99
3 100 101 102
3 103 104 105
3 106 107 108
3 106 108 104
3 109 46 110
3 26 111 112
3 113 114 115
3 116 117 118
3 50 119 120
3 121 122 123
3 12 92 45
3 119 124 30
3 125 126 127
3 128 60 71
3 94 96 129
3 130 94 129
3 131 132 133
3 134 135 136
3 137 103 105
3 138 139 90
3 140 141 142
3 103 143 104
3 144 145 146
3 147 104 148
3 148 149 147
3 55 150 151
3 105 104 152
3 75 153 154
3 155 156 157
3 154 39 75
3 158 120 159
3 109 160 161
3 162 163 164
3 165 166 167
3 168 169 23
3 170 131 171
3 172 173 174
3 175 130 176
3 129 176 130
3 177 178 179
3 24 180 181
3 19 182 183
3 175 184 130
3 14 13 185
3 186 187 188
3 181 59 189
3 106 147 149
3 155 107 106
3 190 191 125
3 192 193 187
3 194 37 195
3 38 196 197
3 132 198 194
3 199 200 93
3 48 85 201
3 182 135 202
3 45 153 75
3 163 162 203
3 204 175 176
3 89 205 206
3 89 2 207
3 208 209 210
3 74 93 200
3 110 211 109
3 212 213 83
3 87 214 215
3 137 143 103
3 6 8 18
3 107 152 108
3 127 216 217
3 152 96 95
3 199 93 218
3 219 220 221
3 23 25 168
3 46 222 223
3 86 20 87
3 209 224 225
3 85 204 176
3 204 226 227
3 97 228 124
3 78 77 229
3 230 231 232
3 233 139 234
3 184 196 235
3 236 44 237
3 238 156 149
3 156 239 149
3 148 238 149
3 117 240 241
3 138 242 243
3 244 245 45
3 59 246 247
3 86 24 21
3 244 248 245
3 60 249 72
3 225 224 250
3 197 196 227
3 143 137 235
3 251 252 240
3 124 253 254
3 247 255 25
3 148 256 238
3 120 257 50
3 118 83 213
3 258 153 245
3 248 259 260
3 199 218 261
3 206 205 262
3 142 141 188
3 236 263 264
3 202 265 203
3 204 85 84
3 266 71 267
3 240 117 268
3 188 269 186
3 38 235 196
3 270 271 272
3 273 178 133
3 256 148 143
3 2 89 206
3 274 275 157
3 217 216 276
3 157 156 238
3 277 67 278
3 192 279 69
3 267 21 23
3 120 280 257
3 281 282 283
3 217 284 190
3 162 285 286
3 287 17 100
3 288 216 127
3 289 290 261
3 260 261 290
3 289 122 290
3 122 121 290
3 19 291 292
3 70 69 97
3 123 122 197
3 128 284 293
3 294 136 102
3 36 38 197
3 171 295 296
3 92 244 45
3 297 102 136
3 253 44 254
3 298 299 300
3 246 59 61
3 282 281 62
3 153 258 154
3 1 258 167
3 166 1 167
3 154 258 301
3 301 302 154
3 54 303 144
3 195 304 132
3 301 305 302
3 136 68 297
3 264 306 283
3 247 246 159
3 260 165 248
3 258 1 301
3 307 308 296
3 290 309 260
3 191 119 310
3 122 289 311
3 197 122 311
3 26 28 140
3 269 312 279
3 172 275 313
3 313 275 274
3 128 293 61
3 221 220 82
3 256 314 157
3 314 274 157
3 99 315 253
3 210 225 316
3 7 298 300
3 317 289 261
3 289 317 311
3 279 186 269
3 36 311 317
3 60 72 71
3 218 93 318
3 138 319 161
3 84 309 121
3 320 213 63
3 94 137 95
3 117 62 268
3 160 109 321
3 223 222 174
3 42 322 323
3 324 325 326
3 48 327 172
3 318 40 39
3 313 325 172
3 258 245 167
3 225 210 209
3 133 171 131
3 328 310 219
3 12 41 32
3 109 211 250
3 329 330 224
3 224 330 250
3 50 257 49
3 151 150 144
3 59 249 60
3 331 271 163
3 96 201 129
3 195 36 317
3 297 79 287
3 27 26 332
3 278 67 66
3 312 98 279
3 87 73 214
3 166 2 1
3 207 2 166
3 144 333 334
3 305 262 195
3 279 192 187
3 335 336 337
3 37 36 195
3 54 179 178
3 20 86 21
3 229 338 339
3 340 229 339
3 316 174 341
3 292 142 18
3 2 206 262
3 305 0 262
3 37 342 76
3 29 14 52
3 301 0 305
3 302 218 318
3 287 81 17
3 116 320 117
3 231 230 341
3 64 5 4
3 338 229 77
3 228 99 253
3 0 2 262
3 187 186 279
3 50 81 80
3 184 235 137
3 48 222 46
3 93 52 40
3 341 174 173
3 78 235 38
3 29 92 12
3 73 72 214
3 265 135 134
3 264 282 236
3 161 160 334
3 343 64 63
3 57 42 344
3 79 68 70
3 123 197 227
3 14 185 51
3 345 190 284
3 86 180 24
3 157 238 256
3 66 269 346
3 347 55 337
3 205 304 195
3 80 79 119
3 82 220 212
3 188 6 142
3 248 167 245
3 280 348 49
3 22 71 73
3 270 272 26
3 335 177 336
3 41 40 51
3 280 158 293
3 349 159 120
3 350 351 198
3 134 136 294
3 91 304 205
3 48 172 222
3 281 268 62
3 119 349 120
3 293 276 348
3 348 140 352
3 277 306 34
3 334 160 321
3 327 152 107
3 30 3 310
3 353 255 349
3 43 237 44
3 161 319 354
3 305 195 317
3 185 13 32
3 213 116 118
3 133 355 356
3 286 285 183
3 172 324 173
3 34 67 277
3 171 337 295
3 240 268 281
3 98 315 99
3 260 259 199
3 91 90 233
3 45 245 153
3 58 344 312
3 5 357 3
3 11 10 278
3 338 358 339
3 211 223 359
3 161 334 242
3 215 360 88
3 174 316 359
3 112 361 26
3 135 68 136
3 241 362 117
3 345 353 191
3 17 81 50
3 275 172 327
3 292 112 111
3 356 233 234
3 22 267 71
3 193 299 6
3 304 91 355
3 121 226 84
3 363 208 364
3 365 322 366
3 287 79 81
3 90 139 233
3 240 252 241
3 91 233 355
3 314 256 229
3 333 242 334
3 200 244 92
3 363 367 358
3 44 315 42
3 11 188 141
3 104 108 152
3 193 6 188
3 220 368 212
3 58 312 269
3 286 203 162
3 95 105 152
3 24 189 25
3 337 369 295
3 213 320 116
3 370 371 372
3 362 241 252
3 271 270 164
3 246 61 293
3 168 25 255
3 208 358 329
3 89 354 319
3 283 240 281
3 342 373 329
3 214 360 215
3 124 31 30
3 316 225 359
3 374 210 316
3 316 230 374
3 270 26 361
3 374 230 232
3 353 349 191
3 8 182 19
3 139 243 234
3 35 263 33
3 227 196 175
3 146 145 375
3 198 342 194
3 126 288 127
3 360 214 180
3 209 208 329
3 374 364 210
3 63 62 320
3 350 308 376
3 234 273 377
3 377 356 234
3 154 302 318
3 345 168 353
3 219 310 3
3 285 291 183
3 115 114 342
3 196 184 175
3 378 364 374
3 263 35 264
3 57 56 366
3 343 5 64
3 210 364 208
3 9 288 10
3 376 151 144
3 65 379 380
3 54 178 273
3 146 376 144
3 263 236 381
3 231 173 324
3 351 350 376
3 351 376 146
3 284 266 345
3 361 164 270
3 115 351 382
3 344 98 312
3 382 321 113
3 244 200 259
3 114 330 373
3 330 329 373
3 328 221 126
3 257 280 49
3 217 190 127
3 131 198 132
3 170 198 131
3 373 342 114
3 350 170 308
3 202 135 265
3 277 278 118
3 330 114 113
3 113 321 330
3 209 329 224
3 356 377 133
3 145 321 382
3 293 348 280
3 303 333 144
3 308 307 151
3 54 53 179
3 150 55 54
3 219 357 220
3 369 307 295
3 308 170 296
3 295 307 296
3 177 133 178
3 177 335 133
3 9 276 216
3 171 133 335
3 53 347 179
3 85 48 47
3 179 336 177
3 336 179 347
3 358 367 383
3 79 124 119
3 332 26 294
3 337 171 335
3 369 337 55
3 322 57 366
3 378 384 363
3 346 269 188
3 184 94 130
3 111 140 142
3 69 98 97
3 143 148 104
3 18 19 292
3 273 243 333
3 384 378 385
3 362 386 277
3 378 374 385
3 67 379 65
3 11 348 9
3 49 348 352
3 56 269 380
3 183 203 286
3 140 348 141
3 126 221 288
3 16 101 100
3 87 215 88
3 220 357 368
3 353 168 255
3 324 172 325
3 228 97 99
3 3 357 219
3 168 345 169
3 31 236 282
3 307 369 55
3 338 329 358
3 156 155 239
3 284 276 293
3 155 106 239
3 115 342 351
3 138 90 319
3 22 73 20
3 306 386 387
3 354 207 161
3 189 59 247
3 15 49 352
3 98 69 279
3 170 350 198
3 265 271 331
3 101 332 294
3 287 102 297
3 76 342 329
3 97 79 70
3 327 48 152
3 42 315 344
3 337 336 347
3 165 309 166
3 50 15 17
3 266 128 71
3 329 338 77
3 234 243 273
3 152 201 96
3 387 251 283
3 7 135 8
3 306 277 386
3 31 4 3
3 18 142 6
3 104 147 106
3 47 207 84
3 0 301 1
3 376 308 151
3 180 214 72
3 207 47 46
3 226 121 123
3 283 306 387
3 322 42 57
3 107 155 327
3 118 117 362
3 34 306 35
3 31 124 254
3 218 305 261
3 133 132 355
3 260 309 165
3 331 203 265
3 235 78 143
3 111 26 140
3 110 223 211
3 85 129 201
3 309 84 207
3 200 199 259
3 5 368 357
3 242 333 243
3 129 85 176
3 207 166 309
3 310 125 191
3 249 181 180
3 382 351 375
3 276 284 217
3 250 330 321
3 27 101 16
3 212 368 343
3 233 356 355
3 218 302 305
3 212 83 82
3 53 55 347
3 86 360 180
3 290 121 309
3 37 194 342
3 256 143 78
3 77 76 329
3 165 167 248
3 36 197 311
3 345 266 169
3 363 383 367
3 299 298 6
3 274 372 313
3 374 232 385
3 341 173 231
3 112 291 285
3 119 191 349
3 300 68 135
3 349 255 159
3 11 346 188
3 112 285 162
3 266 284 128
3 247 25 189
3 164 163 271
3 267 169 266
3 9 216 288
3 158 280 120
3 340 339 388
3 11 278 346
3 162 361 112
3 386 252 387
3 219 221 328
3 228 253 124
3 124 79 97
3 361 162 164
3 344 58 57
3 8 135 182
3 159 255 247
3 387 252 251
3 203 182 202
3 30 310 119
3 293 158 246
3 80 119 50
3 300 69 68
3 65 380 269
3 37 76 78
3 205 89 91
3 382 113 115
3 346 278 66
3 307 55 151
3 275 155 157
3 46 109 161
3 343 63 213
3 296 170 171
3 222 172 174
3 239 106 149
3 105 95 137
3 183 291 19
3 132 194 195
3 354 89 207
3 320 62 117
3 83 118 278
3 110 46 223
3 256 78 229
3 139 138 243
3 135 7 300
3 359 225 250
3 31 254 236
3 226 204 84
3 377 273 133
3 58 269 56
3 291 112 292
3 150 54 144
3 375 351 146
3 125 310 328
3 242 138 161
3 62 64 4
3 154 318 39
3 321 109 250
3 145 144 334
3 79 297 68
3 10 288 82
3 230 316 341
3 59 181 249
3 299 193 192
3 141 348 11
3 94 184 137
3 318 93 40
3 37 78 38
3 226 123 227
3 269 66 65
3 262 205 195
3 299 192 69
3 249 180 72
3 32 41 51
3 298 7 6
3 368 5 343
3 145 334 321
3 261 305 317
3 51 185 32
3 261 260 199
3 300 299 69
3 342 198 351
3 250 211 359
3 161 207 46
3 223 174 359
3 294 26 272
3 292 111 142
3 155 275 327
3 132 304 355
3 378 363 364
3 74 200 92
3 208 363 358
3 315 98 344
3 90 89 319
3 48 201 152
3 190 345 191
3 204 227 175
3 277 118 362
3 303 54 273
3 248 244 259
3 375 145 382
3 339 358 383
3 340 389 229
3 303 273 333
3 389 314 229
3 127 190 125
3 348 276 9
3 193 188 187
3 100 102 287
3 323 43 42
3 61 60 128
3 278 10 83
3 372 274 314
3 16 28 27
3 101 294 102
3 20 73 87
3 283 251 240
3 390 372 314
3 15 28 16
3 352 28 15
3 134 294 265
3 140 28 352
3 392 326 325
3 283 282 264
3 288 221 82
3 328 126 125
3 23 169 267
3 282 62 31
3 183 182 203
3 254 44 236
3 265 294 272
3 158 159 246
3 35 306 264
3 24 181 189
3 253 315 44
3 332 101 27
3 343 213 212
3 331 163 203
3 17 16 100
3 88 360 86
3 21 24 23
3 362 252 386
3 31 62 4
3 372 390 370
3 372 371 393
3 393 392 325
3 22 21 267
3 265 272 271
3 314 389 391
3 339 383 388
3 56 380 363
3 340 388 379
3 379 383 380
3 340 379 67
3 340 67 389
3 236 237 324
3 231 43 323
3 43 231 237
3 324 326 381
3 380 383 394
3 365 363 384
3 323 232 231
3 324 381 236
3 363 366 56
3 370 33 371
3 392 381 326
3 231 324 237
3 322 385 232
3 363 380 394
3 384 385 365
3 363 394 383
3 33 370 390
3 322 232 323
3 365 385 322
3 390 391 34
3 365 366 363
3 389 67 34
3 393 371 33
3 381 392 393
3 34 391 389
3 379 388 383
3 391 390 314
3 313 372 393
3 313 393 325
3 33 390 34
3 263 393 33
3 263 381 393
