ply
format ascii 1.0
element vertex 395
property double x
property double y
property double z
property double nx
property double ny
property double nz
element face 786
property list uchar int vertex_indices
end_header
0.1325545875 0.02143501412 0.05592440621
0.6563572364 0.4922087554 -0.5717741856
0.1334938227 0.02105663775 0.05695080159
0.9082316839 0.0877717779 -0.4091592884
0.1326932333 0.0195700437 0.05548733388
0.8416618332 -0.5117555114 -0.1723706909
0.1237883052 -0.01422618319 0.06444548669
0.6354223598 0.513173241 0.5769676329
0.1197352318 -0.01126800941 0.06562705465
0.7294922333 0.5791336766 0.3639303039
0.1204345934 -0.01280686581 0.06631963786
0.5695360423 0.225518872 0.7904238957
0.1261283986 -0.01418000527 0.04391192191
-0.1852111575 0.03115911947 -0.9822046306
0.1279868824 -0.01297726696 0.04500194262
-0.1187684798 0.8662709739 -0.4852511184
0.1290331928 -0.01357891342 0.0431781756
-0.333842712 0.8302279043 -0.4463974356
0.1247286515 -0.02088351342 0.06055331673
-0.3022436695 -0.9477327753 -0.1022318484
0.1236392828 -0.01953739953 0.06134752043
-0.6269717165 -0.7637009262 -0.1538420033
0.1227489337 -0.0163628412 0.05388383918
-0.6293695931 -0.7465473033 -0.2157800712
0.1354973841 0.02010936853 0.06732136386
0.2870639312 -0.9410087034 0.1791561319
0.1352746038 0.02046575519 0.06863692854
0.6545930118 -0.4799961592 0.5840476659
0.1343341152 0.02043610058 0.06922097953
-0.6670971726 -0.4305019345 0.6079880317
0.1315382288 -0.01944670887 0.04909087616
0.4126543625 -0.8925360616 -0.1819223894
0.1328400411 -0.01807477059 0.04538698955
0.6623647029 -0.7351890561 -0.1441181878
0.1328004082 -0.01819631885 0.04993680636
0.9868805769 -0.1252635123 0.1018615696
0.1279763939 -0.01483562544 0.0427441397
-0.6560455246 -0.01254524573 -0.7546170462
0.129629178 -0.01422363112 0.04084050569
-0.7649945523 0.5655001369 -0.308209231
0.134462913 -0.02074116657 0.06718449323
-0.8206655911 0.5651729712 0.0841872925
0.1346287728 -0.02054900731 0.06553949466
-0.3446354668 0.9386847147 0.009869212603
0.1336118429 -0.02146699981 0.0653067728
-0.9383023474 0.1718094166 0.3001170259
0.1347381454 -0.02057027147 0.06391096205
-0.1414119734 0.9898245124 0.0158141861
0.1361014897 -0.02080916029 0.06506040625
0.6220751566 0.7605413381 -0.1860090662
0.1347245091 -0.02066204473 0.0620162496
0.4535835538 0.8779331739 -0.1532817727
0.1314360521 -0.01732354402 0.03856292225
0.1813654631 -0.9278324068 -0.3259349532
0.132071138 -0.01791654684 0.04244029936
0.4015074534 -0.8990375895 -0.1747088362
0.1307271269 -0.01823897495 0.04456115622
-0.07372422878 -0.9630342677 -0.2590940705
0.134497476 0.02052765732 0.0667426072
-0.8332721974 -0.5452931545 0.09117467118
0.1243306903 -0.0133506583 0.06230852189
0.5698691747 0.7417389851 0.3536557673
0.1197209933 -0.01013756023 0.06279530329
0.6969541124 0.6782024904 0.2330157661
0.1355677884 0.02107441587 0.0678461196
0.8917735104 0.252138406 0.3757209475
0.1090815033 0.000566280891 0.06088858811
-0.004355252285 0.1024857772 0.9947249355
0.1086867898 -0.0008491399427 0.06068734668
-0.9225861759 -0.1601945509 0.3509593337
0.109510875 -0.0006865533312 0.06115705273
-0.1152559843 0.426943646 0.8969031058
0.1241455793 0.02167064045 0.05990446082
-0.2805078099 0.9530364154 -0.1141795056
0.1221175686 0.01730550211 0.05325186966
-0.6121537108 0.7579652382 -0.2252921036
0.1227477933 0.02087336282 0.06047983866
-0.6093223988 0.7758885844 -0.1634720738
0.1361038765 0.02206884689 0.06535561061
0.7874009642 0.6112974428 0.07946796825
0.1355449864 0.02230685857 0.06584614776
0.3493196538 0.8990383637 0.26401856
0.1361323762 0.02072736078 0.0666826495
0.9455735841 -0.2146338547 0.2445872143
0.1164498967 -0.003074443769 0.04779967095
0.7109607625 0.6440540673 -0.2823635114
0.1143698284 -0.001863631457 0.05088536286
0.8857706284 0.4039480828 0.228552708
0.1159811726 -0.002992354332 0.05021966432
0.7516707303 0.6475280401 0.1252938562
0.135858625 0.02053759508 0.06453291654
0.6045107639 -0.7768316038 -0.1763502074
0.1217724088 0.01267141065 0.05679849905
0.5657074784 -0.7892448934 0.2388881477
0.1234033979 0.01525644559 0.06157382464
0.5527954517 -0.7500198838 0.3631629971
0.1188123788 0.01190625987 0.06212688108
0.6812533306 -0.6910232763 0.2416210486
0.1316966 -0.02029131841 0.05238012292
0.4842417043 -0.827511753 -0.2841377667
0.132892867 -0.01854856444 0.05287982535
0.9733574823 0.2231377148 -0.05277093837
0.1348249663 0.0218024797 0.06783297461
0.05464926418 0.9161761708 0.3970323438
0.1343664692 0.02183809737 0.06631148958
-0.652779081 0.7036525158 0.2806289517
0.1317615214 0.01412204265 0.03633613094
0.6436511502 -0.7544785986 -0.1283559161
0.1322729089 0.01466026958 0.03842823301
0.7776889512 -0.6231509424 0.08296263098
0.1305445638 0.01353427464 0.03594041226
0.003338730623 -0.9927512434 -0.1201408408
0.1144758923 -0.005139932356 0.04696493542
-0.7271716177 -0.3670734816 -0.5800676664
0.1153582354 -0.003869994442 0.04625482982
0.1407681947 0.2360465719 -0.9614917219
0.1173817371 -0.008202054726 0.04505646497
-0.4031776293 -0.107463392 -0.908790085
0.1357563146 -0.02239897303 0.06360860046
0.7305293472 -0.6403729872 -0.2371693701
0.1343316571 -0.02305113197 0.06424162272
-0.03855847107 -0.9785169382 0.2025286301
0.134407518 -0.02313188066 0.06296978049
0.2531706032 -0.9635712193 -0.0862273218
0.1151383968 -0.007726616078 0.06720850564
0.5097074931 0.4938095894 0.7045213701
0.1159674677 -0.01124661535 0.06779894782
-0.2412472656 -0.3453196133 0.906947695
0.1186096207 -0.01186352302 0.06741383297
0.522732445 -0.03931977438 0.851589541
0.1119252047 -0.003488394185 0.05472085458
-0.7907909003 -0.5953055634 -0.1423412732
0.1157285589 -0.007269263897 0.05696334969
-0.7581428219 -0.6333154821 -0.1553414362
0.1093656967 -0.001530734205 0.05914125977
-0.8638911857 -0.4685140835 -0.1848961136
0.1281212705 -0.01236998211 0.04849318231
0.3649374556 0.9227415095 0.1239708036
0.1218287981 -0.01021973713 0.04597595425
0.5046940739 0.7457501051 -0.4349030611
0.1250210851 -0.01106490264 0.04878414152
0.5083739898 0.8607025553 -0.02733126187
0.1336397151 -0.02262917567 0.06444043318
-0.7180929905 -0.5866011302 0.3744884123
0.135754363 -0.02247045916 0.06636823928
0.3283650957 -0.9034414399 0.2756264294
0.1344152009 -0.02210845065 0.06678199813
-0.668579623 -0.6850243972 0.2893835915
0.1335851223 0.02121828016 0.06483664081
-0.9419684623 -0.1465775628 0.3020106524
0.1362574843 0.02134163177 0.06471375726
0.9830930344 -0.01802177572 -0.1822177307
0.1186984389 0.01305238158 0.05254101115
-0.6994273973 0.7030610378 -0.128477597
0.1152472779 0.008411513182 0.05650566045
-0.7434839631 0.6484719028 -0.1634496494
0.1153097879 0.01139438085 0.05989571582
-0.7321096534 0.6365723476 -0.2424687644
0.1285817176 -0.01307852866 0.05186229084
0.488214864 0.8443643921 0.2206694811
0.1325673793 -0.01724337315 0.05329939964
0.6930673473 0.6816246684 0.2346176966
0.1326599357 -0.01579083925 0.05120669276
0.6719849698 0.6893130031 0.2707097783
0.121980068 -0.01825569883 0.06324812689
-0.6090448372 -0.7667902625 0.2027241465
0.1190558007 -0.01490445839 0.06266402795
-0.7435857623 -0.6418609423 -0.1873359143
0.1259994565 0.01779201976 0.06223418662
0.5080217798 -0.5730435872 0.6430668071
0.122743832 0.01629368897 0.06361744831
0.6235421283 -0.5203322925 0.583480522
0.1355293569 -0.02039530993 0.06774470401
0.3085284815 0.9364255456 0.1670849296
0.1341325153 -0.02077692609 0.06958096648
-0.6567350794 0.4531295452 0.6028039903
0.1353260531 -0.02080494917 0.06907147902
0.6650769092 0.472475894 0.5783072146
0.1324651387 0.01925611181 0.05219446701
0.9679248261 -0.2462386805 -0.04988028978
0.1322860663 0.01908399545 0.04913673516
0.9895062065 0.1038890473 0.1004217761
0.1311539647 0.0199312913 0.04846001866
0.4330596203 0.8804330287 -0.1931244347
0.1346165327 0.02035066565 0.06508005312
-0.3661352264 -0.9303072539 0.021757972
0.1335447534 0.0223978331 0.06395340805
-0.7046369696 0.6072817629 0.3670089938
0.1168527691 0.01468589831 0.06627069228
-0.2735534434 0.7131170097 0.6454708701
0.1150793102 0.01283352737 0.06712090276
-0.2330396158 0.3620250814 0.9025687663
0.1175015323 0.01389304354 0.06672816275
0.5237916774 0.03781615068 0.8510065907
0.1226363971 -0.00962568293 0.04874279381
0.6331438613 0.7731240183 -0.03752470115
0.1198534096 -0.00795964692 0.04634943494
0.6396446752 0.5540962781 -0.5327588611
0.1208090392 -0.007601232213 0.0478242096
0.7638467971 0.6104569747 -0.2094763772
0.1336953322 -0.01687586408 0.04617971926
0.9911531755 0.02971174292 0.1293545324
0.133419911 -0.01681524467 0.0439388262
0.970881014 -0.2240342609 -0.08484519154
0.1337090887 -0.01499937605 0.04451552492
0.8350441824 0.5424473387 0.09193529342
0.1122695302 0.01048430885 0.06594648552
-0.7137213174 0.5760272833 0.3984902131
0.1117623972 0.008648334938 0.06652821368
-0.574658689 0.3316343821 0.7481884975
0.1135241489 0.01084747063 0.06662164144
-0.3146310296 0.2677598319 0.9106656838
0.111385817 0.006305013905 0.06629564139
0.226722098 -0.6353442433 0.738196981
0.1128012188 0.006955334314 0.06550602769
0.6498693836 -0.6905951704 0.3174084039
0.1123113345 0.008301580431 0.0667968942
0.1116557029 -0.1711559041 0.9788966547
0.1222927634 0.01061704756 0.0481776089
0.6152603041 -0.7878381941 -0.02767197364
0.1209447362 0.009291219529 0.04909465587
0.7150132199 -0.6825463556 0.1512830718
0.129934293 -0.01659939364 0.04007230049
-0.581236918 -0.7435676927 -0.3305612372
0.1295367009 -0.01523342928 0.03613122226
-0.6408005116 -0.6183428018 -0.4550020701
0.1205486162 0.01201179922 0.04323046217
0.275937423 -0.4591065381 -0.8444404806
0.1200555606 0.0124669055 0.0430666028
-0.2410826935 0.3153769419 -0.9178325116
0.1222735809 0.01390668074 0.04349772772
-0.08981069489 0.4230358567 -0.9016510983
0.1129606582 -0.009156167688 0.06654586896
-0.7267858187 -0.554540496 0.4052989168
0.112536344 -0.007218522241 0.06709412344
-0.5822625459 -0.3091308122 0.7519364791
0.1123531319 -0.007956546141 0.06454250879
-0.7996027579 -0.598975435 -0.04317242072
0.1305428068 -0.01620747358 0.05762875297
0.5129261565 0.8151311771 0.2691986665
0.1329259412 -0.01911744853 0.05604649707
0.8531353582 0.4901019547 -0.1787739765
0.1283696674 0.01977791693 0.0610396002
0.4030763195 -0.1005727915 0.9096233255
0.1276773652 0.02111592404 0.06038785506
0.1642786751 0.5825881947 0.7959921559
0.1256137368 0.020414224 0.06195949582
0.2706753931 0.3865856417 0.8816384595
0.1224165354 -0.01104576694 0.05745641243
0.5836765297 0.7790355412 0.2289657928
0.129041412 -0.01863006165 0.06165494088
0.4053875218 0.1031211241 0.9083099641
0.1263536345 -0.01913737823 0.06263505548
0.2619858928 -0.3811108931 0.8866328886
0.1282829774 -0.02026629424 0.06105031326
0.1511038776 -0.5759326237 0.8034109976
0.1327387009 -0.02282788654 0.06164845087
-0.3843134991 -0.8960188794 0.2223809842
0.1191930836 0.0149416886 0.06549949513
0.5644518485 -0.2283037351 0.7932663584
0.1191980215 0.01612151076 0.0653449853
-0.01559632238 0.406812419 0.9133785691
0.1294747115 0.01672475755 0.03965381865
-0.5642175362 0.7523621952 -0.340014263
0.1286022428 0.01739221035 0.04246491446
-0.3613736382 0.8729826655 -0.3275825992
0.130897817 0.01734547719 0.03809222612
0.2023481646 0.9192285357 -0.337748604
0.1331029634 -0.01441122791 0.04193018893
0.6885425698 0.7099210371 0.1480582678
0.1312653777 -0.0133777192 0.04282524354
0.1617594221 0.9867228933 0.01455407693
0.1325781954 -0.01351858779 0.04520747835
0.4751221551 0.8680413629 0.1440941707
0.1140354639 0.01270702734 0.06492307952
-0.7219887062 0.6862489663 0.08828739675
0.1328649678 0.01689026151 0.04687383677
0.7614955191 -0.5472400265 0.3473513031
0.1330449334 0.01776872643 0.04537724176
0.9902431556 -0.0507152358 0.1297939043
0.1291068378 -0.01715112423 0.04295226815
-0.3812409947 -0.8685999945 -0.3165270187
0.1234076855 -0.01583954511 0.04661299196
-0.4347012942 -0.8444365301 -0.3129883888
0.1275394351 -0.01599487113 0.04378837606
-0.4939829601 -0.6090486524 -0.6205163771
0.111647291 0.009239484214 0.06397195624
-0.7856419656 0.6165754457 -0.05100413429
0.1307945367 0.01416973169 0.04217492321
0.1390752868 -0.9899130241 0.02702349693
0.1265782212 0.01336036926 0.04562310232
0.2663603522 -0.9563887416 -0.1198863535
0.1275072775 0.01385898826 0.04425143896
-0.138822335 -0.869210659 -0.4745536742
0.1108551267 0.006520089443 0.06629752647
-0.5189583572 -0.1500908548 0.8415194346
0.1103274932 0.006892897642 0.06534654813
-0.8579841012 0.4064837974 0.3140608293
0.1101412159 0.005697202829 0.06537428863
-0.7936227285 -0.3194193835 0.5178167844
0.1314246646 0.01400121062 0.03911874094
0.2665719744 -0.9498807238 0.1632972535
0.1300295204 0.01416311296 0.04059980393
-0.3366851808 -0.9404528725 -0.04681328557
0.1143947231 0.009408800011 0.06667934152
0.4983287955 -0.4963201059 0.7108690203
0.1353238053 0.02152641637 0.06203058606
0.8846207736 0.01607640881 -0.4660339429
0.1354921925 0.02225797472 0.06306478526
0.7449967955 0.6204098314 -0.2450947079
0.1114779673 0.004986774434 0.06290751828
0.4509734657 -0.8227423487 0.3460028337
0.1100478132 0.004819759051 0.06334114914
-0.2885182902 -0.8217813619 0.4913579036
0.1093628705 0.003412902757 0.06187170276
-0.5473001468 -0.3665770215 0.7523854309
0.1329434168 -0.02137983765 0.05652726215
0.6448313866 -0.5142994112 -0.5654101153
0.1338194923 -0.02099972269 0.05755613222
0.9059157261 -0.1137986945 -0.4078805638
0.124560636 0.01228236506 0.04806986349
0.4885730867 -0.8723667848 -0.01650853378
0.1279881304 0.01462118652 0.0510851534
0.4688108558 -0.8524556184 0.2313780459
0.1299900312 -0.01418071675 0.03504592078
-0.2074562325 0.2764748844 -0.9383621635
0.1311639715 -0.01377244278 0.03559838435
0.4579681803 0.6190398465 -0.6380084751
0.130777204 -0.0149212022 0.03512597807
0.5254073386 -0.1964868234 -0.8278526782
0.1327202899 0.02002366723 0.05909732114
0.1136438814 -0.9548024715 0.2746585311
0.1335969246 0.02021191927 0.05758770737
0.7632028815 -0.6419628322 -0.0735192749
0.1338283618 0.02023500633 0.05982739846
0.4044703061 -0.9142268633 0.02435187884
0.133341671 -0.02048817052 0.06145169794
-0.2848874764 0.8966554541 0.3388924939
0.13266058 -0.02124870809 0.06207414414
-0.7076413079 0.4338683158 0.5576755902
0.128943837 0.01540547085 0.03991477961
-0.8998874207 0.2233338194 -0.3745992995
0.1290569656 0.01528512656 0.0356196879
-0.6267338117 0.6267075622 -0.4630792165
0.11303795 0.003444602562 0.05913509308
0.7625558217 -0.5822983056 0.2818462382
0.1127090931 0.002033606894 0.05391144316
0.8411257773 -0.4832490315 0.2428534542
0.1159468107 0.003768582364 0.04988204053
0.7366578963 -0.6629381663 0.1335968987
0.1206177823 0.01807662266 0.06444783838
-0.1630293053 0.6290689253 0.7600616639
0.1210623598 0.01684996565 0.06497282245
0.459019653 -0.01653678948 0.8882721952
0.131421733 0.01606343381 0.03615988352
0.5775910064 0.5991726596 -0.5544192938
0.1321957568 0.01633239619 0.03794371306
0.9227796829 0.3483770126 -0.1646545292
0.1321285079 0.01514250709 0.0363321554
0.9379607101 -0.07277977085 -0.3390174204
0.136352097 -0.02105328441 0.06717198892
0.9503808541 0.1959322721 0.2416335593
0.1365392596 -0.02162638648 0.06521886364
0.9832054845 -0.006804593272 -0.1823750881
0.1304644173 -0.01360688601 0.04118982342
-0.3152710225 0.9471832505 -0.05872028849
0.1301882098 -0.01370238141 0.03846660189
-0.6859902964 0.7269605296 0.03075226249
0.1189540189 0.0172417575 0.06413388453
-0.6177185145 0.7286907791 0.2956917065
0.1343832754 0.02099377257 0.069367274
-0.2199815975 0.4283286724 0.8764374736
0.1198763589 -0.01179011611 0.04451934053
-0.6771602369 -0.6578508383 -0.3296760351
0.1204900105 -0.01173349951 0.04369906989
-0.2486234461 -0.3218110714 -0.9135775919
0.1216882377 -0.01391933876 0.0454021245
-0.4919359475 -0.7905574465 -0.3647162561
0.1356033178 -0.0217201197 0.06255272888
0.8837458197 -0.04273728968 -0.4660116417
0.1301673569 -0.0203208245 0.06077558755
0.06151610354 0.03259631386 0.9975736812
0.1312355988 -0.01888848982 0.05998728329
0.3556987215 0.7027675768 0.6161137497
0.1210138635 -0.01124528975 0.04392521034
0.285451932 0.4414233166 -0.8506836369
0.122836304 -0.01317232685 0.04428328228
-0.09989056309 -0.4324938667 -0.8960864527
0.1229919413 0.01644832114 0.04588846015
-0.4152922931 0.8501368903 -0.323727631
0.1267220254 0.02090253669 0.05532086333
-0.2535119612 0.9100591572 -0.3279085482
0.1212045658 0.01970791135 0.06239621236
-0.5913178225 0.7830381146 0.1928588702
0.123472526 0.02141226253 0.06144315993
-0.1962566656 0.856844108 0.4767614664
0.1270501041 0.01640317829 0.04322718134
-0.4800644081 0.6122763951 -0.6282163482
0.1323405781 0.02207549735 0.06167794321
-0.7941105632 0.2896305685 0.5343243839
0.1332638708 0.02110512704 0.0631715337
-0.8256425921 -0.4491548806 0.3414296462
0.1187656182 0.01327001752 0.0649065993
0.7161275595 -0.5910238303 0.3712844604
0.1318181021 -0.01345975668 0.03968844844
0.2884198376 0.9454510422 0.1514474299
0.1309923994 -0.01328643762 0.03650597982
0.02649528808 0.9908328652 -0.1324697438
0.1221591833 0.01804005019 0.06429100231
0.4419818278 0.1346753639 0.8868565895
0.1312897137 0.02062689782 0.0517075446
0.5029611072 0.8125531139 -0.2945972874
0.1323133236 0.02014414179 0.05308162355
0.9307631872 0.313049124 -0.1888918615
0.1299541813 0.01757271934 0.05684300337
0.4941725718 -0.8232087739 0.279500955
0.1141921697 0.005361288901 0.04659324699
-0.7187410888 0.3763474035 -0.5846142995
0.1171251861 0.008697551145 0.04441347716
-0.4006872296 0.1050754986 -0.9101697004
0.1152814427 0.004271767477 0.04596969836
0.1349866423 -0.2515095207 -0.9583953085
0.1205309429 0.00855412792 0.04733718552
0.7496374468 -0.6303877974 -0.2016306604
0.1199163141 -0.01548990557 0.06491733441
-0.6340278597 -0.7105334157 0.3052063864
0.1146847032 -0.0114641479 0.06557227934
-0.7375079572 -0.6683507015 0.09689867343
0.1348824143 -0.02209785719 0.0682799769
0.03347715782 -0.912257183 0.4082476111
0.1342531347 -0.0213875488 0.06974935303
-0.2298905769 -0.4124614802 0.8814906976
0.1267341727 -0.02091491467 0.06019154552
-0.006637076626 -0.9870733472 0.1601316848
0.1289715297 -0.0213178582 0.06021934398
-0.119026562 -0.8425976947 0.5252254777
0.1324558088 0.02274907462 0.06107433138
-0.3637318819 0.9073005621 0.2109616272
0.1232248367 -0.01603955289 0.06524483279
0.4391226411 -0.1333721529 0.8884723827
0.1216049305 -0.01617650689 0.06533957971
-0.1770205037 -0.6154965432 0.7680024392
0.123635781 -0.01796890308 0.06399119251
-0.02690441389 -0.5610201527 0.8273648172
0.1177040956 0.007900634942 0.05459813429
0.6912915996 -0.6886457922 0.2188216106
0.1196104204 0.006656033314 0.04798869883
0.7083832129 -0.7057032103 0.01327413536
0.1180788807 0.009321269159 0.04398201093
0.04366704432 -0.09435638104 -0.994580345
0.1170963495 0.00510280796 0.0461918443
0.464340417 -0.605943338 -0.6459261942
0.1247891882 0.01860659306 0.06319983654
0.4150050251 -0.0645348683 0.9075274541
0.122671108 0.0195604591 0.06313741262
-0.01398876144 0.5721152666 0.8200539228
0.1213292052 -0.008169039782 0.04961672461
0.7304734876 0.667852456 0.1427640743
0.1091561546 0.002607810049 0.05903607855
-0.8528496878 0.4859108399 -0.1911493284
0.115448641 0.00240640635 0.04820598028
0.8972777918 -0.4088296776 -0.166585891
0.1147350688 0.0002557222287 0.05011142002
0.9853350865 -0.01020191081 0.1703252427
0.1149295086 0.0002567350512 0.04820285733
0.9660689353 -0.01269391519 -0.2579722402
0.1323189022 0.01865415601 0.04467776847
0.6790253258 0.7179395625 -0.1532559675
0.1327785969 0.01745266282 0.04317838646
0.9757531831 0.2006179784 -0.08751086992
0.1184315513 0.01620708734 0.06199103633
-0.7287516926 0.6562729903 -0.1955165792
0.1131970778 -0.002264796864 0.0592313054
0.7756917436 0.5682550029 0.274569792
0.1126559807 -0.001442596759 0.05418253649
0.8519670608 0.4669952628 0.2367858775
0.1095097224 0.005253500502 0.06310396223
-0.9590319002 0.078887124 0.2720930653
0.1107446176 0.005498012786 0.06565981064
-0.05546925793 -0.8005379774 0.5967094
0.1119391913 -0.004966167914 0.06664603259
0.2412641476 0.6393358298 0.7300967798
0.1114097504 -0.00521862542 0.06665508758
-0.5153992789 0.1726174253 0.8393847794
0.1323224581 0.01536026666 0.04607094629
0.5594619336 -0.7658117509 0.3170720849
0.1330840317 0.01594755809 0.04371655989
0.8224213722 -0.5602127816 0.09891777316
0.1346119831 0.02038413517 0.06340564654
-0.1641380481 -0.9860299738 0.0283476964
0.1344914336 0.0205355312 0.06148816163
0.4332792933 -0.8900107506 -0.1419504062
0.1333508978 -0.02234863253 0.05844277241
0.5497117608 -0.7391719971 -0.3891551602
0.1347952281 -0.02116042406 0.06074232833
0.9129954965 0.1907245489 -0.3606429948
0.1330944074 0.02051369151 0.06089021501
-0.3052370388 -0.8855670051 0.3501448696
0.1363633298 -0.02227827377 0.06587396119
0.7731618027 -0.6281282629 0.08761114153
0.1195928727 0.008680775785 0.04580938943
0.6267085431 -0.5753587954 -0.5255460575
0.1112342001 -0.004221059458 0.06594649591
-0.0372206974 0.8087380826 0.5869900625
0.1106194578 -0.004462598705 0.06568430115
-0.7860778477 0.3439279684 0.5136099395
0.1198520159 -0.005696820916 0.04837137208
0.7243606516 0.6894068339 0.004456879891
0.1181652173 -0.006806959224 0.05501959766
0.7069482213 0.6753141326 0.2101785782
0.1340852502 -0.02019173338 0.06035884587
0.4258101019 0.9047235528 0.01269055156
0.1096019004 0.005233528985 0.06179059093
-0.8725342784 0.4813873752 -0.08336742771
0.1326548622 -0.01979545904 0.05368918182
0.9232199585 -0.3368824087 -0.1848652237
0.1344613761 0.02107034397 0.06019582347
0.9082708721 -0.2164241353 -0.3580567225
0.1323468663 0.02125255129 0.0615156185
-0.7174545957 -0.4102370576 0.5629959677
0.1313218337 0.02092289785 0.06025146156
-0.2882429878 -0.5210314824 0.8033941587
0.1304545525 0.02206919696 0.06003416963
-0.403899324 0.6319044439 0.6614847768
0.1313453653 0.02111422968 0.05403860574
0.4370415222 0.8298832702 -0.346826276
0.1108553453 -0.0003956349609 0.06054718878
0.6182600885 0.3589198274 0.6992360263
0.1114292045 -0.00223102029 0.06158377016
0.5006654348 0.6798018056 0.5359138246
0.1327293334 -0.01419395325 0.03906871934
0.7918056568 0.6061236565 0.07521911202
0.1325950273 -0.02216802303 0.06222109888
-0.8004958362 -0.2645387048 0.5377970713
0.133424016 -0.02127181377 0.06371430931
-0.815156899 0.4721665253 0.3355264555
0.1130330149 -0.006833479547 0.06729378597
0.1150597021 0.1804488892 0.9768313382
0.1175732618 -0.009335414341 0.04606916314
-0.7195950126 -0.6048952709 -0.3410054678
0.131882001 -0.01615239746 0.03651143534
0.5636777324 -0.619017859 -0.5468860067
0.1325466121 -0.01510559956 0.0367403103
0.9392528611 0.04736386403 -0.3399422411
0.1327258436 -0.01621528122 0.0384535664
0.9146844295 -0.3711586197 -0.1599802284
0.1328847993 0.01630703682 0.04115174986
0.987330902 -0.1579137223 -0.01552244632
0.1094116744 0.00184505923 0.06107955985
-0.1245485606 -0.4128774992 0.9022304731
0.1112317443 0.003471415415 0.06143601372
0.4853471212 -0.6842776376 0.5442446937
0.126749901 -0.02101637434 0.05897886827
-0.1566721762 -0.968769609 -0.1921959256
0.110028353 -0.00406395235 0.06212741226
-0.8831281471 -0.4626340749 -0.07780995193
0.1159751503 -0.01009920182 0.06055886015
-0.7465294029 -0.6226416207 -0.2345447992
0.1193122063 -0.01029082644 0.0443763951
-0.2045142375 0.08101035905 -0.9755056373
0.1317668731 -0.0208796839 0.05472769718
0.4179551538 -0.8439179573 -0.3363271782
0.1133611283 -0.005496206712 0.06589630165
0.6654473791 0.6795724902 0.3088057905
0.1142140564 -0.005285237887 0.06288205941
0.692569688 0.6800617899 0.2405476857
0.1118594559 -0.003721836578 0.06322859084
0.4696026224 0.8165003173 0.3358580189
0.1308983386 -0.02185254727 0.06066658846
-0.4180912412 -0.6140188079 0.6694629322
0.129223972 -0.01438946711 0.03651932882
-0.9590787408 0.01257391702 -0.282860152
0.129783216 -0.01359966709 0.03644184846
-0.6009460143 0.7651987449 -0.2309432154
0.1336000319 -0.0157165909 0.04771360112
0.7737905805 0.5341043512 0.3405593629
0.1242290603 -0.02030275199 0.06214554905
-0.2156915218 -0.8459239476 0.487739523
0.1284395782 0.02177917329 0.05952952749
-0.09958037522 0.8516804592 0.5145135025
0.1296350416 0.02085748925 0.06015649145
0.06086887503 -0.02101846743 0.9979244481
0.1295335878 -0.01477981273 0.03794103766
-0.9989050249 -0.02653799792 -0.03852902723
0.1294082384 -0.01513154429 0.04047241145
-0.9047875768 -0.2072758921 -0.3720163241
0.1322113648 -0.0228104503 0.05896466773
0.005669513613 -0.9809937553 -0.1939564607
0.1334389837 -0.01581952456 0.04179017703
0.9906633099 0.1352236328 -0.01734288436
0.1287575588 0.01455912479 0.03595952508
-0.9590512345 0.005481385944 -0.2831795968
0.1290864786 0.01501684122 0.03737184003
-0.9980253883 0.04918475009 -0.03906641471
0.1329679729 -0.01410389561 0.04688987431
0.5769056318 0.7567328394 0.3074659358
0.1254714436 -0.01278570258 0.04460120177
0.2811058808 0.6968879966 -0.6597928493
0.1227433804 -0.01165162655 0.04464217226
0.3574078501 0.5272329708 -0.7708988411
0.1270590327 -0.01234657924 0.04638873764
0.2882176408 0.9484342865 -0.1319204146
0.1330323646 0.02234155683 0.05783029004
0.566364257 0.7214516822 -0.3984206303
0.1341682666 0.02303432051 0.06241081126
0.2752244058 0.9563363616 -0.09834780131
0.1325937292 0.01511763024 0.04124131322
0.6723220361 -0.7233855146 0.1571511281
0.1290046089 0.0204798442 0.0510934355
-0.09357344117 0.9608464237 -0.2608029164
0.1318360469 0.0228482559 0.05836558952
0.02809128506 0.9780832025 -0.2063107575
0.1096006856 -0.002231401556 0.06206743991
-0.5395938733 0.3877865821 0.7473018257
0.1297487013 0.01407418686 0.03786769542
-0.7024157484 -0.7106504942 0.03984961192
0.1292149067 0.01463010401 0.04029494912
-0.7777937745 -0.5517147467 -0.3010775358
0.130783973 0.01952705358 0.05939374209
0.3395858547 -0.7028377143 0.6250604728
0.1270593629 -0.01585320576 0.06302160312
0.5211030692 0.5693090249 0.6358764231
0.126241886 0.02163096076 0.05955985972
0.0160857721 0.9888584537 0.1479871837
0.1183751907 -0.008745487878 0.04467252747
0.04587922186 0.08057253148 -0.995692304
0.1108089396 0.001605620875 0.06050715441
0.6100342989 -0.3639772402 0.7038314591
0.1085430578 0.001931431556 0.06058445713
-0.9186860775 0.1856336794 0.3486488608
0.118974149 -0.005353909484 0.0473295851
0.6575458624 0.6644741611 -0.3551162177
0.1164532717 0.003720826487 0.04749815731
0.6960072419 -0.6636989339 -0.2740030006
0.1262327361 0.02150022174 0.05833718979
-0.134449032 0.9696166262 -0.2043699
0.1341495681 0.02290278858 0.06371535216
-0.01650707432 0.9815677254 0.1904004124
0.1318968482 0.01721205111 0.05022662521
0.6560850865 -0.7009981095 0.2795603866
0.1143157899 -0.009342237738 0.06725357743
-0.3206061369 -0.2486606625 0.9139910174
0.1213562761 0.01109436054 0.04527344684
0.4875326675 -0.7624482699 -0.4254227708
0.1146262524 -0.002175667303 0.04662172851
0.5669451044 0.2870390054 -0.7721281357
0.1154106195 -0.001837361072 0.04845903996
0.9063800814 0.3860369892 -0.1716117448
0.1120653253 0.0003569031951 0.05536919858
0.9777179372 -0.009781084926 0.2096949346
0.1117875848 0.0006823528755 0.05907114255
0.9089149129 -0.1964472813 0.3678072141
0.1117875848 0.0006823528755 0.05907114255
0 0 0
0.1137149196 0.006696244457 0.06252650231
0.6768896322 -0.6926253964 0.2491796261
0.1257532376 -0.01688708041 0.06402567628
0.4164856267 0.06647324767 0.9067089004
0.1171438864 0.01008163572 0.04548292719
-0.7055990694 0.6168628668 -0.3487264785
0.1189370195 0.01097752939 0.04373894773
-0.2063607719 -0.08863514989 -0.9744532015
0.1321887727 -0.01389557758 0.0368696507
0.6609211917 0.7376064143 -0.1382749287
0.1326367169 -0.01724230592 0.04073489063
0.8015287073 -0.521111101 -0.2932489587
0.1320027192 0.01461803825 0.04444342869
0.4551157017 -0.8768088112 0.1551644504
0.1276069069 0.01357506681 0.04776378728
0.3437503199 -0.9292199817 0.1355947758
0.1295473002 0.01543058769 0.03478174414
-0.09180781122 0.6243791133 -0.7757074505
0.1304131945 0.01486092421 0.03477245257
0.5294722648 0.1742084773 -0.8302472688
0.1295484073 0.01423828084 0.0345323962
-0.2141255128 -0.2836223951 -0.9347238104
0.1118037447 0.004290582515 0.05453551819
-0.7769984685 0.6113885509 -0.1499247134
0.1101369522 0.001572244688 0.05457898183
-0.9187860843 0.3171804375 -0.235007875
0.1092128487 0.0005358937941 0.05712197457
-0.9666082779 0.009603765536 -0.256078513
0.1143099326 0.002489920154 0.05053022029
0.8763056911 -0.4212100168 0.2338171454
0.1212098021 0.01463372498 0.04471144057
-0.4737308746 0.7969667455 -0.3747306567
0.1180656583 -0.01284880524 0.06687836177
-0.2898935121 -0.6985451807 0.6542143243
0.1171122384 -0.004524610498 0.04656066683
0.4777931346 0.5868877234 -0.6536639202
0.1317892248 -0.02066606898 0.06086413163
-0.2760472235 0.5378592997 0.7965584123
0.1192930658 -0.01193837137 0.0531857009
-0.7153547229 -0.6884359824 -0.1196809034
0.1307103814 0.0138784204 0.03507123621
0.4438827521 -0.6371104388 -0.6301256948
0.127241555 -0.02047022751 0.05599657012
-0.2743240689 -0.9080824945 -0.3164371792
0.13382047 -0.02003303974 0.05812480267
0.7776361765 0.6233835511 -0.08170021574
0.1275885159 0.01524865566 0.0421947707
-0.6558060614 0.01814801461 -0.7547112424
0.1256940723 0.01484825169 0.04320786473
-0.18601069 -0.03931983026 -0.9817606501
0.1294844653 -0.0199775732 0.05174340988
-0.1156475277 -0.9616718809 -0.2486218873
0.1330020972 -0.01975921103 0.05964115928
0.1355290113 0.9553715722 0.2624824681
0.1320977343 0.01833467813 0.05250622762
0.677110659 -0.694464244 0.2433938564
0.1302361138 0.01860737417 0.04400760576
-0.05172613043 0.9611222388 -0.2712350448
0.131482633 0.01813887608 0.04189602639
0.4218778063 0.8873647603 -0.186018544
0.1222245823 -0.01464637842 0.06591562086
0.4594806114 0.01716115223 0.8880219945
0.1133754511 0.005209838371 0.04898632642
-0.81949169 0.5306896743 -0.2163373283
0.1188971131 0.006169533921 0.04692595275
0.642123572 -0.6837916273 -0.3465635997
0.1357393025 -0.02137240279 0.06831952007
0.8858605297 -0.2678393058 0.378831398
0.1299780507 -0.01549015226 0.03519592083
-0.1061510889 -0.6319532483 -0.7677024413
0.1109099717 -0.005638431439 0.06575581649
-0.8670671437 -0.3827774081 0.3188667812
0.1126505022 0.0001780449424 0.0493119218
-0.8919360756 0.007358057165 -0.4521016434
0.1139815713 0.003217599042 0.04613652891
-0.3479285825 0.06154131079 -0.9354989944
0.1135306718 -0.001211986045 0.04690731676
-0.5327999443 -0.2546839244 -0.8070070124
0.1139922952 -0.002893805971 0.04627348863
-0.3491263326 -0.06526851747 -0.9347998847
0.1113065731 0.002104341823 0.05041155774
-0.8827718606 0.4318473358 -0.1849911369
0.1204366573 -0.01408020404 0.06615855216
-0.02461064463 -0.3944494525 0.9185880173
0.1293085693 0.01382322782 0.03584484627
-0.6183963663 -0.7541152305 -0.2211247458
0.1090815033 0.000566280891 0.06088858811
0 0 0
0.1090823815 0.000566301767 0.06088850469
0 0 0
0.1090815033 0.000566280891 0.06088858811
-0.006498329577 -0.08983759219 0.9959352282
0.119483974 0.01252929907 0.04391058579
-0.6621170508 0.6690983612 -0.3375031764
0.1146922789 0.002624764688 0.04647680405
0.5598723154 -0.3095679211 -0.7685770571
0.1249721609 0.0136517214 0.04377309957
0.2646509258 -0.7110925102 -0.6513887698
0.1285796717 0.0143000002 0.04248674842
-0.3528816825 -0.827927595 -0.4359018417
0.1320365872 0.0174320765 0.04015451759
0.8131800924 0.4987256655 -0.3000180791
0.1136256795 0.001691890564 0.04685298351
-0.5269668306 0.2567456553 -0.8101775286
0.1101480268 -0.0007194548441 0.05464661891
-0.9258675472 -0.2989098846 -0.2311323559
0.1136314177 -0.004700225181 0.04938746515
-0.8314488336 -0.5144738339 -0.2097844401
0.1117875848 0.0006823528755 0.05907114255
0.887136747 0.3113038905 0.3407026268
0.1222159332 0.01251070948 0.04381746561
0.3451893319 -0.5450619859 -0.7640364891
0.1104298271 0.0002895257783 0.05180759792
-0.972215225 0.009679202389 -0.233888583
0.1135933027 0.0002514344203 0.04649645584
-0.3109330334 -0.002448854739 -0.9504286674
0.114317929 0.0002704864047 0.04658885224
0.5440790508 -0.01153505104 -0.8389546645
0.1099370686 -0.004050901517 0.06342845722
-0.9605873135 -0.05396358355 0.2726901993
0.1104199883 -0.003584827221 0.06364107857
-0.2689481258 0.834595319 0.4807468765
0.1101464208 0.0004112582249 0.05462630236
-0.9690326771 0.009659081334 -0.2467435367
0.1082104144 0.0005269401377 0.05984127958
-0.9998299486 0.01134285435 -0.01454006915
0.1090815033 0.000566280891 0.06088858811
-0.6002730011 0.01170878051 0.7997094651
0.108628262 0.0005460536439 0.06063112688
-0.7866095115 0.01263810803 0.6173214354
0.111787571 0.0006815284113 0.05907192104
-0.4060453779 0.8958923431 -0.1802888259
0.1108296364 0.0006067648434 0.06052620915
0.6485173174 -0.002613436086 0.7611954144
0.1114970795 -0.001564627142 0.05067434661
-0.8924559335 -0.4138241439 -0.1796440499
3 0 1 2
3 3 4 5
3 6 7 8
3 9 10 11
3 12 13 14
3 15 16 17
3 18 8 19
3 20 21 22
3 23 24 25
3 26 27 28
3 12 14 29
3 3 30 31
3 13 12 32
3 33 34 35
3 36 37 38
3 39 40 41
3 42 43 44
3 12 45 41
3 46 47 48
3 49 15 50
3 14 51 52
3 53 54 55
3 56 57 58
3 59 60 61
3 62 63 64
3 65 66 67
3 68 69 70
3 71 72 73
3 74 29 52
3 52 51 40
3 39 41 75
3 45 75 41
3 76 77 78
3 79 80 81
3 10 82 83
3 47 84 85
3 86 87 88
3 89 90 91
3 29 74 92
3 74 52 93
3 94 95 96
3 97 98 99
3 100 101 102
3 103 104 105
3 106 107 108
3 106 108 104
3 109 46 110
3 26 111 112
3 113 114 115
3 116 117 118
3 50 119 120
3 121 122 123
3 12 92 45
3 119 124 30
3 125 126 127
3 128 60 71
3 94 96 129
3 130 94 129
3 131 132 133
3 134 135 136
3 137 103 105
3 138 139 90
3 140 141 142
3 103 143 104
3 144 145 146
3 147 104 148
3 148 149 147
3 55 150 151
3 105 104 152
3 75 153 154
3 155 156 157
3 154 39 75
3 158 120 159
3 109 160 161
3 162 163 164
3 165 166 167
3 168 169 23
3 170 131 171
3 172 173 174
3 175 130 176
3 129 176 130
3 177 178 179
3 24 180 181
3 19 182 183
3 175 184 130
3 14 13 185
3 186 187 188
3 181 59 189
3 106 147 149
3 155 107 106
3 190 191 125
3 192 193 187
3 194 37 195
3 38 196 197
3 132 198 194
3 199 200 93
3 48 85 201
3 182 135 202
3 45 153 75
3 163 162 203
3 204 175 176
3 89 205 206
3 89 2 207
3 208 209 210
3 74 93 200
3 110 211 109
3 212 213 83
3 87 214 215
3 137 143 103
3 6 8 18
3 107 152 108
3 127 216 217
3 152 96 95
3 199 93 218
3 219 220 221
3 23 25 168
3 46 222 223
3 86 20 87
3 209 224 225
3 85 204 176
3 204 226 227
3 97 228 124
3 78 77 229
3 230 231 232
3 233 139 234
3 184 196 235
3 236 44 237
3 238 156 149
3 156 239 149
3 148 238 149
3 117 240 241
3 138 242 243
3 244 245 45
3 59 246 247
3 86 24 21
3 244 248 245
3 60 249 72
3 225 224 250
3 197 196 227
3 143 137 235
3 251 252 240
3 124 253 254
3 247 255 25
3 148 256 238
3 120 257 50
3 118 83 213
3 258 153 245
3 248 259 260
3 199 218 261
3 206 205 262
3 142 141 188
3 236 263 264
3 202 265 203
3 204 85 84
3 266 71 267
3 240 117 268
3 188 269 186
3 38 235 196
3 270 271 272
3 273 178 133
3 256 148 143
3 2 89 206
3 274 275 157
3 217 216 276
3 157 156 238
3 277 67 278
3 192 279 69
3 267 21 23
3 120 280 257
3 281 282 283
3 217 284 190
3 162 285 286
3 287 17 100
3 288 216 127
3 289 290 261
3 260 261 290
3 289 122 290
3 122 121 290
3 19 291 292
3 70 69 97
3 123 122 197
3 128 284 293
3 294 136 102
3 36 38 197
3 171 295 296
3 92 244 45
3 297 102 136
3 253 44 254
3 298 299 300
3 246 59 61
3 282 281 62
3 153 258 154
3 1 258 167
3 166 1 167
3 154 258 301
3 301 302 154
3 54 303 144
3 195 304 132
3 301 305 302
3 136 68 297
3 264 306 283
3 247 246 159
3 260 165 248
3 258 1 301
3 307 308 296
3 290 309 260
3 191 119 310
3 122 289 311
3 197 122 311
3 26 28 140
3 269 312 279
3 172 275 313
3 313 275 274
3 128 293 61
3 221 220 82
3 256 314 157
3 314 274 157
3 99 315 253
3 210 225 316
3 7 298 300
3 317 289 261
3 289 317 311
3 279 186 269
3 36 311 317
3 60 72 71
3 218 93 318
3 138 319 161
3 84 309 121
3 320 213 63
3 94 137 95
3 117 62 268
3 160 109 321
3 223 222 174
3 42 322 323
3 324 325 326
3 48 327 172
3 318 40 39
3 313 325 172
3 258 245 167
3 225 210 209
3 133 171 131
3 328 310 219
3 12 41 32
3 109 211 250
3 329 330 224
3 224 330 250
3 50 257 49
3 151 150 144
3 59 249 60
3 331 271 163
3 96 201 129
3 195 36 317
3 297 79 287
3 27 26 332
3 278 67 66
3 312 98 279
3 87 73 214
3 166 2 1
3 207 2 166
3 144 333 334
3 305 262 195
3 279 192 187
3 335 336 337
3 37 36 195
3 54 179 178
3 20 86 21
3 229 338 339
3 340 229 339
3 316 174 341
3 292 142 18
3 2 206 262
3 305 0 262
3 37 342 76
3 29 14 52
3 301 0 305
3 302 218 318
3 287 81 17
3 116 320 117
3 231 230 341
3 64 5 4
3 338 229 77
3 228 99 253
3 0 2 262
3 187 186 279
3 50 81 80
3 184 235 137
3 48 222 46
3 93 52 40
3 341 174 173
3 78 235 38
3 29 92 12
3 73 72 214
3 265 135 134
3 264 282 236
3 161 160 334
3 343 64 63
3 57 42 344
3 79 68 70
3 123 197 227
3 14 185 51
3 345 190 284
3 86 180 24
3 157 238 256
3 66 269 346
3 347 55 337
3 205 304 195
3 80 79 119
3 82 220 212
3 188 6 142
3 248 167 245
3 280 348 49
3 22 71 73
3 270 272 26
3 335 177 336
3 41 40 51
3 280 158 293
3 349 159 120
3 350 351 198
3 134 136 294
3 91 304 205
3 48 172 222
3 281 268 62
3 119 349 120
3 293 276 348
3 348 140 352
3 277 306 34
3 334 160 321
3 327 152 107
3 30 3 310
3 353 255 349
3 43 237 44
3 161 319 354
3 305 195 317
3 185 13 32
3 213 116 118
3 133 355 356
3 286 285 183
3 172 324 173
3 34 67 277
3 171 337 295
3 240 268 281
3 98 315 99
3 260 259 199
3 91 90 233
3 45 245 153
3 58 344 312
3 5 357 3
3 11 10 278
3 338 358 339
3 211 223 359
3 161 334 242
3 215 360 88
3 174 316 359
3 112 361 26
3 135 68 136
3 241 362 117
3 345 353 191
3 17 81 50
3 275 172 327
3 292 112 111
3 356 233 234
3 22 267 71
3 193 299 6
3 304 91 355
3 121 226 84
3 363 208 364
3 365 322 366
3 287 79 81
3 90 139 233
3 240 252 241
3 91 233 355
3 314 256 229
3 333 242 334
3 200 244 92
3 363 367 358
3 44 315 42
3 11 188 141
3 104 108 152
3 193 6 188
3 220 368 212
3 58 312 269
3 286 203 162
3 95 105 152
3 24 189 25
3 337 369 295
3 213 320 116
3 370 371 372
3 362 241 252
3 271 270 164
3 246 61 293
3 168 25 255
3 208 358 329
3 89 354 319
3 283 240 281
3 342 373 329
3 214 360 215
3 124 31 30
3 316 225 359
3 374 210 316
3 316 230 374
3 270 26 361
3 374 230 232
3 353 349 191
3 8 182 19
3 139 243 234
3 35 263 33
3 227 196 175
3 146 145 375
3 198 342 194
3 126 288 127
3 360 214 180
3 209 208 329
3 374 364 210
3 63 62 320
3 350 308 376
3 234 273 377
3 377 356 234
3 154 302 318
3 345 168 353
3 219 310 3
3 285 291 183
3 115 114 342
3 196 184 175
3 378 364 374
3 263 35 264
3 57 56 366
3 343 5 64
3 210 364 208
3 9 288 10
3 376 151 144
3 65 379 380
3 54 178 273
3 146 376 144
3 263 236 381
3 231 173 324
3 351 350 376
3 351 376 146
3 284 266 345
3 361 164 270
3 115 351 382
3 344 98 312
3 382 321 113
3 244 200 259
3 114 330 373
3 330 329 373
3 328 221 126
3 257 280 49
3 217 190 127
3 131 198 132
3 170 198 131
3 373 342 114
3 350 170 308
3 202 135 265
3 277 278 118
3 330 114 113
3 113 321 330
3 209 329 224
3 356 377 133
3 145 321 382
3 293 348 280
3 303 333 144
3 308 307 151
3 54 53 179
3 150 55 54
3 219 357 220
3 369 307 295
3 308 170 296
3 295 307 296
3 177 133 178
3 177 335 133
3 9 276 216
3 171 133 335
3 53 347 179
3 85 48 47
3 179 336 177
3 336 179 347
3 358 367 383
3 79 124 119
3 332 26 294
3 337 171 335
3 369 337 55
3 322 57 366
3 378 384 363
3 346 269 188
3 184 94 130
3 111 140 142
3 69 98 97
3 143 148 104
3 18 19 292
3 273 243 333
3 384 378 385
3 362 386 277
3 378 374 385
3 67 379 65
3 11 348 9
3 49 348 352
3 56 269 380
3 183 203 286
3 140 348 141
3 126 221 288
3 16 101 100
3 87 215 88
3 220 357 368
3 353 168 255
3 324 172 325
3 228 97 99
3 3 357 219
3 168 345 169
3 31 236 282
3 307 369 55
3 338 329 358
3 156 155 239
3 284 276 293
3 155 106 239
3 115 342 351
3 138 90 319
3 22 73 20
3 306 386 387
3 354 207 161
3 189 59 247
3 15 49 352
3 98 69 279
3 170 350 198
3 265 271 331
3 101 332 294
3 287 102 297
3 76 342 329
3 97 79 70
3 327 48 152
3 42 315 344
3 337 336 347
3 165 309 166
3 50 15 17
3 266 128 71
3 329 338 77
3 234 243 273
3 152 201 96
3 387 251 283
3 7 135 8
3 306 277 386
3 31 4 3
3 18 142 6
3 104 147 106
3 47 207 84
3 0 301 1
3 376 308 151
3 180 214 72
3 207 47 46
3 226 121 123
3 283 306 387
3 322 42 57
3 107 155 327
3 118 117 362
3 34 306 35
3 31 124 254
3 218 305 261
3 133 132 355
3 260 309 165
3 331 203 265
3 235 78 143
3 111 26 140
3 110 223 211
3 85 129 201
3 309 84 207
3 200 199 259
3 5 368 357
3 242 333 243
3 129 85 176
3 207 166 309
3 310 125 191
3 249 181 180
3 382 351 375
3 276 284 217
3 250 330 321
3 27 101 16
3 212 368 343
3 233 356 355
3 218 302 305
3 212 83 82
3 53 55 347
3 86 360 180
3 290 121 309
3 37 194 342
3 256 143 78
3 77 76 329
3 165 167 248
3 36 197 311
3 345 266 169
3 363 383 367
3 299 298 6
3 274 372 313
3 374 232 385
3 341 173 231
3 112 291 285
3 119 191 349
3 300 68 135
3 349 255 159
3 11 346 188
3 112 285 162
3 266 284 128
3 247 25 189
3 164 163 271
3 267 169 266
3 9 216 288
3 158 280 120
3 340 339 388
3 11 278 346
3 162 361 112
3 386 252 387
3 219 221 328
3 228 253 124
3 124 79 97
3 361 162 164
3 344 58 57
3 8 135 182
3 159 255 247
3 387 252 251
3 203 182 202
3 30 310 119
3 293 158 246
3 80 119 50
3 300 69 68
3 65 380 269
3 37 76 78
3 205 89 91
3 382 113 115
3 346 278 66
3 307 55 151
3 275 155 157
3 46 109 161
3 343 63 213
3 296 170 171
3 222 172 174
3 239 106 149
3 105 95 137
3 183 291 19
3 132 194 195
3 354 89 207
3 320 62 117
3 83 118 278
3 110 46 223
3 256 78 229
3 139 138 243
3 135 7 300
3 359 225 250
3 31 254 236
3 226 204 84
3 377 273 133
3 58 269 56
3 291 112 292
3 150 54 144
3 375 351 146
3 125 310 328
3 242 138 161
3 62 64 4
3 154 318 39
3 321 109 250
3 145 144 334
3 79 297 68
3 10 288 82
3 230 316 341
3 59 181 249
3 299 193 192
3 141 348 11
3 94 184 137
3 318 93 40
3 37 78 38
3 226 123 227
3 269 66 65
3 262 205 195
3 299 192 69
3 249 180 72
3 32 41 51
3 298 7 6
3 368 5 343
3 145 334 321
3 261 305 317
3 51 185 32
3 261 260 199
3 300 299 69
3 342 198 351
3 250 211 359
3 161 207 46
3 223 174 359
3 294 26 272
3 292 111 142
3 155 275 327
3 132 304 355
3 378 363 364
3 74 200 92
3 208 363 358
3 315 98 344
3 90 89 319
3 48 201 152
3 190 345 191
3 204 227 175
3 277 118 362
3 303 54 273
3 248 244 259
3 375 145 382
3 339 358 383
3 340 389 229
3 303 273 333
3 389 314 229
3 127 190 125
3 348 276 9
3 193 188 187
3 100 102 287
3 323 43 42
3 61 60 128
3 278 10 83
3 372 274 314
3 16 28 27
3 101 294 102
3 20 73 87
3 283 251 240
3 390 372 314
3 15 28 16
3 352 28 15
3 134 294 265
3 140 28 352
3 392 326 325
3 283 282 264
3 288 221 82
3 328 126 125
3 23 169 267
3 282 62 31
3 183 182 203
3 254 44 236
3 265 294 272
3 158 159 246
3 35 306 264
3 24 181 189
3 253 315 44
3 332 101 27
3 343 213 212
3 331 163 203
3 17 16 100
3 88 360 86
3 21 24 23
3 362 252 386
3 31 62 4
3 372 390 370
3 372 371 393
3 393 392 325
3 22 21 267
3 265 272 271
3 314 389 391
3 339 383 388
3 56 380 363
3 340 388 379
3 379 383 380
3 340 379 67
3 340 67 389
3 236 237 324
3 231 43 323
3 43 231 237
3 324 326 381
3 380 383 394
3 365 363 384
3 323 232 231
3 324 381 236
3 363 366 56
3 370 33 371
3 392 381 326
3 231 324 237
3 322 385 232
3 363 380 394
3 384 385 365
3 363 394 383
3 33 370 390
3 322 232 323
3 365 385 322
3 390 391 34
3 365 366 363
3 389 67 34
3 393 371 33
3 381 392 393
3 34 391 389
3 379 388 383
3 391 390 314
3 313 372 393
3 313 393 325
3 33 390 34
3 263 393 33
3 263 381 393
