ply
format ascii 1.0
element vertex 36
property double x
property double y
property double z
element face 68
property list uchar int vertex_indices
end_header
0.1321245998 0.007335896264 0.06433918348
0.1319868115 0.00682465845 0.06468702826
0.1323056108 0.006544581087 0.06414634376
0.1316188607 0.006570066359 0.06428505453
0.1313859393 0.007445168212 0.06410109652
0.1305590183 0.007336039616 0.06318871011
0.1322042726 0.007594614188 0.0629006157
0.1320931369 0.00686615483 0.06285686608
0.1316431095 0.00814159874 0.06320834074
0.1312556736 0.00657363312 0.06308076525
0.1305643827 0.008493884754 0.06253900264
0.1314184333 0.008535170743 0.0623070024
0.1310083038 0.007233947674 0.06167950004
0.1306829317 0.009008267917 0.06156732264
0.1305017096 0.007083697757 0.06180434401
0.1295763318 0.008023771343 0.061359237
0.1296990445 0.007366519379 0.06121163649
0.1312638727 0.008267721183 0.06145985743
0.1309258475 0.008964161403 0.06077681995
0.1305313277 0.00852118564 0.05968492205
0.1303169017 0.009542944835 0.05979051578
0.1296798229 0.007543111435 0.05996464974
0.1288972953 0.00905646979 0.05947759688
0.1289706468 0.007976070178 0.05991917558
0.1291904485 0.007554676291 0.05866394848
0.1294855759 0.009600464123 0.05944575951
0.1285358416 0.008707614033 0.05913987322
0.1297910082 0.008537930545 0.05861890891
0.1291185318 0.008815786275 0.0580674581
0.1290153622 0.009264335876 0.05853665534
0.1284372766 0.007591673019 0.05849053672
0.1285782172 0.00908050647 0.05848609094
0.1280789919 0.008898146395 0.05834459095
0.1280290885 0.008058161344 0.05846608665
0.1282956574 0.007874321752 0.05750565356
0.1280675873 0.008407864853 0.05745026544
3 2 0 1
3 1 3 2
3 0 4 1
3 4 3 1
3 4 5 3
3 6 0 2
3 2 7 6
3 8 0 6
3 2 3 7
3 3 9 7
3 4 0 8
3 10 4 8
3 10 5 4
3 5 9 3
3 13 10 8
3 6 11 8
3 11 13 8
3 25 28 29
3 14 12 9
3 5 14 9
3 5 10 16
3 16 14 5
3 17 11 6
3 17 6 7
3 7 12 17
3 18 13 11
3 18 11 17
3 33 23 26
3 12 21 17
3 20 13 18
3 14 21 12
3 13 22 15
3 16 21 14
3 15 23 16
3 19 18 17
3 17 21 19
3 20 18 19
3 13 25 22
3 23 15 22
3 16 23 21
3 23 22 26
3 19 27 20
3 25 20 27
3 19 24 27
3 27 28 25
3 24 34 27
3 21 23 24
3 25 29 22
3 23 30 24
3 22 29 31
3 22 31 26
3 25 13 20
3 26 31 32
3 32 33 26
3 15 10 13
3 33 30 23
3 21 24 19
3 27 34 28
3 24 30 34
3 28 31 29
3 9 12 7
3 32 31 28
3 28 35 32
3 34 30 33
3 33 32 35
3 33 35 34
3 35 28 34
3 10 15 16
